<?xml version="1.0" encoding="UTF-8"?><svg id="Layer_2" xmlns="http://www.w3.org/2000/svg" width="828.25" height="828.25" viewBox="0 0 828.25 828.25"><g id="YOUR_FILE"><path d="M414.125,552.25c-18.646,0-36.735-3.652-53.765-10.854-16.447-6.957-31.219-16.916-43.904-29.602-12.686-12.685-22.645-27.456-29.602-43.904-7.202-17.029-10.854-35.118-10.854-53.765s3.652-36.736,10.854-53.765c6.957-16.448,16.916-31.219,29.602-43.904s27.457-22.645,43.904-29.602c17.029-7.203,35.118-10.854,53.765-10.854s36.736,3.652,53.765,10.854c16.448,6.957,31.22,16.916,43.904,29.602,12.686,12.685,22.645,27.457,29.602,43.904,7.202,17.029,10.854,35.118,10.854,53.765s-3.652,36.736-10.854,53.765c-6.957,16.448-16.916,31.219-29.602,43.904-12.685,12.686-27.456,22.645-43.904,29.602-17.028,7.202-35.118,10.854-53.765,10.854ZM414.125,276.25c-18.613,0-36.669,3.646-53.667,10.835-16.418,6.944-31.163,16.885-43.825,29.548-12.662,12.662-22.604,27.407-29.548,43.825-7.189,16.998-10.835,35.054-10.835,53.667s3.646,36.669,10.835,53.667c6.944,16.418,16.886,31.163,29.548,43.825,12.662,12.663,27.407,22.604,43.825,29.548,16.998,7.189,35.054,10.835,53.667,10.835s36.67-3.646,53.667-10.835c16.418-6.944,31.163-16.885,43.825-29.548,12.662-12.662,22.604-27.406,29.548-43.825,7.189-16.998,10.835-35.054,10.835-53.667s-3.646-36.669-10.835-53.667c-6.944-16.418-16.886-31.163-29.548-43.825-12.662-12.663-27.407-22.604-43.825-29.548-16.997-7.189-35.054-10.835-53.667-10.835Z" fill="#231f20"/><path d="M414.125,483.25c-18.464,0-35.822-7.19-48.879-20.246-13.056-13.056-20.246-30.415-20.246-48.878s7.19-35.823,20.246-48.879c13.057-13.056,30.415-20.246,48.879-20.246s35.823,7.19,48.879,20.246c13.056,13.056,20.246,30.415,20.246,48.879s-7.19,35.823-20.246,48.878-30.415,20.246-48.879,20.246ZM414.125,345.25c-18.397,0-35.693,7.164-48.702,20.173s-20.173,30.305-20.173,48.702,7.164,35.693,20.173,48.702,30.305,20.173,48.702,20.173,35.693-7.164,48.702-20.173,20.173-30.305,20.173-48.702-7.164-35.693-20.173-48.702-30.305-20.173-48.702-20.173Z" fill="#231f20"/><path d="M414.125,621.25c-27.962,0-55.087-5.477-80.622-16.277-24.664-10.432-46.815-25.366-65.837-44.388s-33.957-41.173-44.389-65.837c-10.801-25.536-16.277-52.661-16.277-80.623s5.477-55.087,16.277-80.623c10.432-24.664,25.366-46.815,44.389-65.837,19.021-19.022,41.173-33.957,65.837-44.389,25.535-10.8,52.66-16.277,80.622-16.277s55.087,5.477,80.623,16.277c24.664,10.432,46.814,25.367,65.837,44.389,19.021,19.022,33.956,41.172,44.388,65.837,10.801,25.536,16.277,52.661,16.277,80.623s-5.477,55.087-16.277,80.623c-10.432,24.664-25.366,46.814-44.388,65.837-19.022,19.021-41.173,33.956-65.837,44.388-25.536,10.801-52.661,16.277-80.623,16.277ZM414.125,207.25c-27.928,0-55.021,5.47-80.524,16.257-24.635,10.419-46.759,25.336-65.758,44.335s-33.916,41.123-44.336,65.757c-10.787,25.505-16.257,52.597-16.257,80.525s5.47,55.021,16.257,80.525c10.42,24.635,25.337,46.759,44.336,65.758s41.123,33.915,65.758,44.335c25.504,10.787,52.597,16.257,80.524,16.257s55.021-5.47,80.525-16.257c24.635-10.42,46.759-25.336,65.758-44.335s33.915-41.123,44.335-65.758c10.787-25.504,16.257-52.597,16.257-80.525s-5.47-55.021-16.257-80.525c-10.42-24.634-25.336-46.758-44.335-65.757s-41.123-33.916-65.758-44.335c-25.505-10.788-52.598-16.257-80.525-16.257Z" fill="#231f20"/><path d="M414.125,690.25c-37.276,0-73.438-7.301-107.48-21.699-32.88-13.907-62.41-33.817-87.769-59.176-25.359-25.358-45.27-54.889-59.177-87.77-14.398-34.042-21.699-70.204-21.699-107.48s7.301-73.438,21.699-107.48c13.907-32.881,33.817-62.411,59.177-87.77,25.358-25.359,54.889-45.268,87.769-59.176,34.043-14.398,70.204-21.699,107.48-21.699s73.438,7.301,107.48,21.699c32.881,13.908,62.41,33.817,87.77,59.176,25.358,25.359,45.269,54.889,59.176,87.77,14.398,34.042,21.699,70.204,21.699,107.48s-7.301,73.438-21.699,107.48c-13.907,32.881-33.817,62.411-59.176,87.77-25.359,25.358-54.889,45.269-87.77,59.176-34.042,14.398-70.204,21.699-107.48,21.699ZM414.125,138.25c-37.243,0-73.371,7.294-107.383,21.68-32.851,13.895-62.354,33.786-87.689,59.122-25.337,25.336-45.229,54.839-59.123,87.69-14.386,34.011-21.68,70.14-21.68,107.383s7.294,73.372,21.68,107.382c13.895,32.852,33.786,62.354,59.123,87.69,25.336,25.336,54.839,45.228,87.689,59.122,34.012,14.386,70.14,21.68,107.383,21.68s73.372-7.294,107.383-21.68c32.852-13.895,62.354-33.786,87.69-59.122s45.228-54.839,59.122-87.69c14.386-34.011,21.68-70.14,21.68-107.382s-7.294-73.372-21.68-107.383c-13.895-32.851-33.786-62.354-59.122-87.69s-54.839-45.228-87.69-59.122c-34.011-14.386-70.14-21.68-107.383-21.68Z" fill="#231f20"/><path d="M414.125,759.25c-46.592,0-91.789-9.125-134.338-27.122-20.45-8.649-40.175-19.355-58.625-31.82-18.274-12.346-35.46-26.524-51.077-42.143-15.618-15.617-29.797-32.803-42.143-51.077-12.465-18.45-23.171-38.175-31.82-58.625-17.997-42.548-27.122-87.746-27.122-134.337s9.125-91.79,27.122-134.338c8.649-20.45,19.355-40.174,31.82-58.625,12.346-18.275,26.524-35.46,42.143-51.078,15.617-15.617,32.803-29.796,51.077-42.143,18.45-12.465,38.175-23.17,58.625-31.82,42.549-17.997,87.746-27.122,134.338-27.122s91.79,9.125,134.339,27.122c20.45,8.65,40.174,19.355,58.624,31.82,18.275,12.346,35.46,26.525,51.078,42.143,15.617,15.618,29.796,32.803,42.143,51.078,12.464,18.45,23.17,38.174,31.82,58.625,17.996,42.549,27.121,87.747,27.121,134.338s-9.125,91.79-27.121,134.337c-8.65,20.45-19.356,40.175-31.82,58.625-12.347,18.274-26.525,35.46-42.143,51.077s-32.803,29.797-51.078,42.143c-18.45,12.465-38.174,23.171-58.624,31.82-42.549,17.997-87.747,27.122-134.339,27.122ZM414.125,69.25c-46.558,0-91.723,9.119-134.241,27.102-20.435,8.643-40.145,19.341-58.581,31.797-18.263,12.337-35.435,26.506-51.041,42.112-15.606,15.606-29.775,32.779-42.112,51.041-12.456,18.437-23.154,38.146-31.798,58.582-17.983,42.518-27.102,87.683-27.102,134.241s9.118,91.723,27.102,134.241c8.644,20.435,19.342,40.145,31.798,58.582,12.337,18.262,26.506,35.434,42.112,51.04s32.779,29.775,51.041,42.112c18.437,12.456,38.146,23.154,58.581,31.798,42.519,17.983,87.684,27.102,134.241,27.102s91.724-9.118,134.241-27.102c20.436-8.644,40.146-19.342,58.582-31.798,18.262-12.337,35.435-26.506,51.04-42.112,15.606-15.606,29.775-32.778,42.113-51.04,12.455-18.438,23.153-38.147,31.797-58.582,17.983-42.518,27.102-87.683,27.102-134.241s-9.118-91.723-27.102-134.241c-8.644-20.435-19.342-40.145-31.797-58.582-12.338-18.262-26.507-35.435-42.113-51.041-15.605-15.606-32.778-29.775-51.04-42.112-18.437-12.456-38.146-23.154-58.582-31.797-42.518-17.983-87.684-27.102-134.241-27.102Z" fill="#231f20"/><path d="M414.125,828.25c-55.906,0-110.141-10.949-161.196-32.544-24.538-10.379-48.206-23.226-70.345-38.182-21.929-14.815-42.55-31.829-61.289-50.568s-35.754-39.36-50.568-61.289c-14.957-22.14-27.804-45.807-38.183-70.346C10.949,524.266,0,470.032,0,414.125s10.949-110.141,32.544-161.196c10.379-24.539,23.226-48.206,38.183-70.345,14.814-21.928,31.828-42.549,50.568-61.289,18.739-18.74,39.36-35.754,61.289-50.568,22.139-14.957,45.807-27.803,70.345-38.182C303.984,10.949,358.219,0,414.125,0s110.141,10.949,161.196,32.544c24.539,10.379,48.206,23.226,70.346,38.182,21.929,14.814,42.549,31.828,61.289,50.568,18.739,18.74,35.753,39.361,50.568,61.289,14.956,22.139,27.803,45.807,38.182,70.345,21.595,51.056,32.544,105.29,32.544,161.196s-10.949,110.141-32.544,161.196c-10.379,24.539-23.226,48.206-38.182,70.346-14.815,21.929-31.829,42.549-50.568,61.289-18.74,18.739-39.36,35.753-61.289,50.568-22.14,14.956-45.807,27.803-70.346,38.182-51.056,21.595-105.29,32.544-161.196,32.544ZM414.125.25c-55.873,0-110.074,10.943-161.099,32.524-24.523,10.373-48.177,23.211-70.303,38.159-21.915,14.806-42.523,31.809-61.252,50.538-18.729,18.729-35.732,39.337-50.538,61.252-14.948,22.125-27.786,45.779-38.159,70.303C11.192,304.051.25,358.252.25,414.125s10.942,110.075,32.524,161.099c10.373,24.523,23.211,48.177,38.159,70.302,14.806,21.916,31.809,42.524,50.538,61.253,18.729,18.729,39.337,35.731,61.252,50.537,22.126,14.948,45.779,27.787,70.303,38.159,51.024,21.582,105.226,32.524,161.099,32.524s110.074-10.942,161.099-32.524c24.524-10.372,48.178-23.211,70.303-38.159,21.916-14.806,42.524-31.809,61.253-50.537s35.731-39.337,50.537-61.253c14.948-22.125,27.787-45.778,38.159-70.302,21.582-51.024,32.524-105.226,32.524-161.099s-10.942-110.074-32.524-161.099c-10.372-24.524-23.211-48.177-38.159-70.303-14.806-21.916-31.809-42.524-50.537-61.252-18.729-18.729-39.337-35.732-61.253-50.538-22.125-14.948-45.778-27.786-70.303-38.159C524.199,11.193,469.998.25,414.125.25Z" fill="#231f20"/><path d="M434.044,787.035l2.86-.175c3.035-.186,4.162,1.462,4.337,4.321.167,2.732-.791,4.635-3.778,4.817l-2.86.175-.559-9.139ZM436.285,794.564l1.087-.066c1.933-.118,2.116-1.588,2.017-3.202-.1-1.629-.459-3.051-2.392-2.933l-1.087.066.375,6.135Z"/><path d="M444.443,794.183l2.455-.214-.379-4.354-2.455.214-.119-1.355,4.162-.362.497,5.709,2.249-.196.116,1.34-6.41.558-.116-1.339ZM445.941,785.007l2.089-.183.168,1.93-2.089.182-.168-1.929Z"/><path d="M454.478,793.261l1.733-.196-.491-4.341-1.733.196-.153-1.352,3.212-.363.181,1.59c.213-.813.803-1.862,2.187-2.02.524-.06,1.017.014,1.354.153l.193,1.717c-.373-.167-.928-.233-1.389-.181-1.113.126-1.718.758-2.016,1.259l.356,3.148,2.958-.335.15,1.335-6.391.724-.152-1.335Z"/><path d="M463.763,789.995c-.395-2.804,1.35-3.954,3.076-4.196,1.789-.252,3.72.381,4.109,3.152l.054.381-5.48.771c.22,1.213.926,1.873,2.288,1.681.935-.131,1.53-.603,1.561-1.302l1.742-.245c-.078,1.853-1.629,2.652-3.149,2.866-2.027.285-3.831-.479-4.2-3.107ZM469.093,788.389c-.295-1.057-1.15-1.404-2.069-1.275s-1.646.7-1.638,1.797l3.707-.521Z"/><path d="M473.662,788.535c-.48-2.872,1.315-3.967,3.051-4.257,1.562-.262,3.388.082,3.883,2.27l-1.703.285c-.274-1.058-.995-1.293-1.926-1.138-1.23.206-1.83.987-1.568,2.55.264,1.577,1.082,2.105,2.328,1.896.915-.152,1.522-.595,1.438-1.684l1.704-.285c.237,2.198-1.421,3.141-2.951,3.397-1.751.293-3.779-.195-4.255-3.035Z"/><path d="M485.562,786.984l-.518-2.653-2.215.433-.26-1.335,2.213-.433-.628-3.219,1.68-.328.629,3.219,3.407-.666.261,1.335-3.407.666.506,2.591c.255,1.303.595,1.709,1.757,1.482.644-.126,1.213-.384,1.659-.684l.264,1.351c-.459.318-1.082.636-2.008.816-1.79.35-2.867-.157-3.34-2.575Z"/><path d="M494.228,786.942l2.404-.536-.949-4.262-2.404.536-.295-1.327,4.073-.908,1.245,5.589,2.201-.491.293,1.312-6.275,1.398-.293-1.311ZM494.502,777.656l2.044-.456.422,1.889-2.045.456-.421-1.889Z"/><path d="M503.113,782.68c-.693-2.762,1.01-4.063,2.639-4.472,1.738-.436,3.736-.096,4.438,2.697.688,2.747-1.01,4.063-2.64,4.473-1.737.436-3.74.08-4.437-2.698ZM508.497,781.33c-.386-1.536-1.225-2.052-2.403-1.757-1.18.296-1.676,1.146-1.29,2.683.381,1.521,1.223,2.052,2.402,1.756s1.672-1.161,1.291-2.682Z"/><path d="M512.387,776.656l1.434-.4.259.925c.198-.537.654-1.346,1.81-1.669,1.294-.361,2.59-.125,3.205,2.079l1.175,4.207-1.648.461-1.085-3.884c-.31-1.109-.709-1.646-1.71-1.366-.74.206-1.074.615-1.277,1.021l1.391,4.978-1.649.461-1.902-6.812Z"/><path d="M560.876,756.302l1.41-.609,5.262,12.182-1.41.609-5.262-12.182Z"/><path d="M603.988,735.768l1.521-.916,1.932,3.206,2.274-1.37-1.932-3.206,1.521-.917,4.722,7.838-1.521.916-2.023-3.356-2.273,1.37,2.021,3.357-1.521.916-4.722-7.838Z"/><path d="M616.505,737.28l2.074-1.327-2.354-3.679-2.075,1.328-.732-1.146,3.517-2.25,3.086,4.823,1.9-1.216.724,1.132-5.416,3.466-.724-1.132ZM613.578,728.461l1.766-1.129,1.043,1.63-1.766,1.129-1.043-1.63Z"/><path d="M623.415,730.254c-1.588-2.344-.527-4.145.916-5.122,1.497-1.015,3.51-1.296,5.08,1.022l.215.317-4.582,3.104c.73.993,1.654,1.274,2.794.503.781-.529,1.109-1.215.829-1.856l1.457-.986c.744,1.698-.297,3.099-1.568,3.96-1.695,1.148-3.65,1.256-5.141-.942ZM627.497,726.466c-.729-.82-1.651-.756-2.42-.235s-1.17,1.354-.679,2.335l3.099-2.1Z"/><path d="M633.281,726.123l1.418-1.017-2.545-3.549-1.418,1.016-.793-1.104,2.627-1.884.932,1.301c-.209-.814-.206-2.018.925-2.829.429-.308.894-.483,1.257-.526l1.006,1.403c-.406.036-.924.249-1.301.52-.91.653-1.129,1.5-1.145,2.082l1.846,2.573,2.418-1.733.783,1.092-5.227,3.748-.783-1.092Z"/><path d="M640.806,720.059c-.985-1.302-.086-2.524,1.076-3.403.586-.444,1.289-.815,1.697-.965l-.348-.459c-.551-.728-1.113-1.205-2.158-.413-.791.599-1.01,1.266-.507,1.929l-1.288.976c-1.169-1.543-.303-3.022,1.062-4.056,1.467-1.111,2.923-1.229,4.121.352l1.767,2.335c.165.217.299.235.528.062.153-.116.354-.328.479-.482l.686.906c-.152.275-.49.731-.91,1.05-.715.541-1.199.326-1.518-.095l-.078-.103c-.013.593-.242,1.589-1.402,2.468-1.098.83-2.357,1.021-3.207-.101ZM644.758,717.247l-.541-.715c-.291.12-.853.465-1.337.832-.753.569-1.145,1.087-.738,1.622.328.434.792.384,1.417-.089.714-.541,1.093-1.209,1.199-1.65Z"/><path d="M649.421,714.118l1.361-1.09-2.729-3.411-1.361,1.089-.85-1.062,2.524-2.02.999,1.25c-.252-.803-.312-2.005.775-2.874.412-.33.867-.529,1.227-.592l1.08,1.35c-.404.058-.91.297-1.272.587-.874.699-1.05,1.557-1.034,2.139l1.979,2.475,2.324-1.858.84,1.05-5.023,4.018-.84-1.05Z"/><path d="M655.527,706.388c-1.877-2.228-.889-4.085.457-5.22,1.211-1.021,2.958-1.656,4.5-.025l-1.322,1.114c-.774-.771-1.516-.606-2.237.002-.954.805-1.072,1.783-.051,2.994,1.031,1.224,2.005,1.262,2.972.446.71-.598,1.008-1.288.379-2.183l1.322-1.113c1.325,1.771.377,3.428-.81,4.429-1.358,1.145-3.353,1.759-5.21-.444Z"/><path d="M659.029,694.453l1.279-1.138,2.701,3.038c-.033-.398.043-1.302.868-2.035,1.005-.894,2.249-1.229,3.771.482l2.902,3.266-1.279,1.138-2.68-3.015c-.767-.861-1.361-1.168-2.139-.477-.574.511-.695,1.024-.699,1.479l3.436,3.863-1.279,1.139-6.881-7.74Z"/><path d="M674.07,697.008c1.121-1.05,1.342-1.914.928-3.104l-7.092-2.98,1.401-1.312,3.278,1.51,2.061,1.051-.894-2.123-1.294-3.392,1.331-1.247,2.436,6.926c.88,2.53.733,3.896-1.192,5.7l-.963-1.027Z"/><path d="M702.216,649.836l.971-1.19,10.284,8.387-.972,1.19-10.283-8.387Z"/><path d="M730.762,612.209l1.153-1.883,2.717.651,2.02.562-1.435-1.518-1.812-2.125,1.12-1.827,7.803,4.782-.828,1.351-3.982-2.441-2.301-1.636,3.441,3.968-.652,1.064-5.097-1.267,2.501,1.308,3.983,2.441-.828,1.351-7.803-4.782Z"/><path d="M740.747,606.608c-2.466-1.423-2.217-3.551-1.378-5.006.896-1.552,2.53-2.751,5.023-1.312,2.453,1.415,2.218,3.551,1.378,5.006-.896,1.552-2.544,2.743-5.023,1.312ZM743.521,601.8c-1.371-.792-2.325-.548-2.933.506-.607,1.053-.342,2,1.03,2.792,1.357.783,2.324.547,2.932-.506.608-1.053.328-2.009-1.029-2.792Z"/><path d="M742.423,596.594l.916-1.687,3.577.414,2.293.335-1.516-1.732-2.296-2.811.871-1.603,4.723,6.113-.869,1.602-7.699-.632Z"/><path d="M750.505,589.105c-2.522-1.286-2.464-3.375-1.672-4.928.82-1.61,2.447-2.828,4.941-1.558l.342.175-2.514,4.931c1.119.517,2.065.316,2.689-.909.429-.841.385-1.6-.17-2.026l.799-1.568c1.473,1.128,1.237,2.858.54,4.226-.93,1.824-2.591,2.862-4.956,1.657ZM752.248,583.816c-1.034-.365-1.812.137-2.232.963-.421.827-.371,1.75.532,2.373l1.7-3.335Z"/><path d="M751.673,578.873l.559-1.17.91.433c-.302-.409-.738-1.167-.305-2.077.357-.751,1.049-.937,1.602-.832-.221-.318-.673-1.118-.246-2.015.475-.997,1.52-.995,2.791-.39l4.408,2.099-.654,1.373-4.162-1.982c-.779-.371-1.166-.378-1.359.026-.186.391-.034.816.115,1.136l4.725,2.251-.653,1.372-4.161-1.981c-.781-.372-1.168-.379-1.36.026-.186.39-.042.831.108,1.15l4.725,2.25-.654,1.373-6.387-3.042Z"/><path d="M759.283,571.116c-2.587-1.147-2.641-3.236-1.934-4.829.732-1.652,2.291-2.955,4.85-1.82l.351.155-2.244,5.058c1.146.456,2.079.205,2.636-1.052.383-.862.299-1.617-.278-2.014l.714-1.607c1.529,1.046,1.388,2.785.766,4.188-.83,1.871-2.432,2.997-4.859,1.921ZM760.74,565.744c-1.053-.31-1.801.233-2.178,1.081-.375.848-.275,1.767.66,2.339l1.518-3.42Z"/><path d="M760.214,560.107l.568-1.375.887.366c-.301-.488-.656-1.345-.199-2.453.514-1.242,1.497-2.116,3.611-1.244l4.037,1.667-.653,1.582-3.726-1.538c-1.065-.439-1.733-.456-2.131.505-.293.71-.176,1.225.019,1.634l4.775,1.972-.653,1.582-6.535-2.697Z"/><path d="M768.251,551.039l-2.527-.964-.805,2.108-1.271-.485.805-2.108-3.065-1.17.61-1.6,3.065,1.17,1.238-3.245,1.271.485-1.238,3.244,2.467.942c1.241.474,1.767.399,2.188-.707.234-.613.316-1.232.299-1.771l1.286.491c.027.558-.033,1.255-.37,2.137-.65,1.705-1.651,2.351-3.954,1.472Z"/><path d="M776.44,499.823l.349-1.496,12.915,3.011-.349,1.496-12.915-3.011Z"/><path d="M785.566,452.971l.254-2.676c.216-2.278,1.244-3.805,3.363-3.604,1.307.124,2.163,1.089,2.427,2.207l3.752-2.28-.205,2.167-3.394,1.88-.104,1.1,3.186.302-.168,1.769-9.111-.864ZM790.226,451.63l.086-.908c.135-1.418-.33-2.121-1.301-2.213-.973-.093-1.561.511-1.694,1.929l-.086.908,2.995.284Z"/><path d="M785.255,443.074l.117-1.708,4.055.279c-.303-.262-.88-.959-.805-2.061.093-1.341.746-2.45,3.029-2.293l4.356.3-.117,1.708-4.022-.277c-1.148-.079-1.788.118-1.859,1.155-.053.767.221,1.218.535,1.544l5.155.355-.117,1.708-10.327-.711Z"/><path d="M797.78,434.354c.064-1.535-.384-2.307-1.514-2.867l-7.151,2.84.08-1.919,3.399-1.219,2.208-.692-2.125-.891-3.301-1.516.076-1.823,6.592,3.24c2.401,1.19,3.254,2.268,3.143,4.906l-1.407-.06Z"/><path d="M793.617,422.128l-2.703-.044-.037,2.255-1.359-.022.037-2.255-3.278-.053.028-1.711,3.277.053.057-3.47,1.359.022-.057,3.47,2.639.043c1.328.021,1.795-.228,1.814-1.41.011-.656-.123-1.266-.323-1.765l1.376.021c.215.516.396,1.19.381,2.134-.029,1.823-.749,2.771-3.211,2.731Z"/><path d="M786.388,413.638l-.027-1.711,4.061-.065c-.323-.235-.957-.881-.976-1.984-.021-1.343.536-2.504,2.822-2.541l4.366-.07.027,1.711-4.03.065c-1.151.019-1.771.269-1.754,1.308.013.768.323,1.194.664,1.493l5.165-.084.027,1.711-10.346.168Z"/><path d="M789.527,404.417l-.046-1.296,1.007-.035c-.455-.224-1.193-.694-1.229-1.702-.029-.831.498-1.314,1.037-1.478-.343-.18-1.113-.681-1.148-1.673-.039-1.103.889-1.584,2.297-1.634l4.877-.172.053,1.519-4.605.163c-.863.03-1.209.203-1.193.65.016.432.346.74.626.955l5.229-.185.053,1.519-4.605.163c-.863.03-1.209.202-1.193.65.016.432.348.756.627.971l5.229-.185.055,1.519-7.068.25Z"/><path d="M781.136,351.711l-.26-1.515,13.08-2.239.26,1.515-13.08,2.239Z"/><path d="M777.626,303.566l-.518-1.647c.893-.364,1.188-1.026.813-2.217-.341-1.084-.928-1.62-1.63-1.399-.58.182-.7.706-.719,1.449l-.027,2.154c-.016,1.179-.474,2.228-1.725,2.62-1.633.513-2.954-.598-3.539-2.459-.546-1.74-.213-3.403,1.73-4.047l.522,1.663c-.942.363-1.15.981-.844,1.958.341,1.083.937,1.433,1.495,1.24.484-.169.717-.493.721-1.282l.033-2.189c.025-1.148.299-2.307,1.703-2.748,1.77-.556,3.088.707,3.691,2.63.618,1.968.199,3.676-1.709,4.274Z"/><path d="M773.849,294.288c-2.756.946-4.132-.646-4.704-2.311-.515-1.498-.478-3.356,1.601-4.206l.562,1.635c-.998.445-1.113,1.195-.807,2.088.406,1.181,1.276,1.644,2.775,1.129,1.514-.521,1.899-1.415,1.488-2.611-.302-.878-.838-1.404-1.898-1.142l-.562-1.635c2.131-.597,3.334.886,3.839,2.354.577,1.681.431,3.762-2.294,4.699Z"/><path d="M772.126,284.219c-1.529.571-2.443-.642-2.952-2.005-.258-.689-.412-1.469-.438-1.902l-.539.201c-.854.319-1.473.721-1.014,1.95.348.929.924,1.328,1.703,1.037l.565,1.513c-1.813.678-2.981-.576-3.581-2.179-.645-1.724-.341-3.151,1.518-3.846l2.742-1.025c.254-.095.311-.219.21-.488-.067-.18-.213-.433-.325-.596l1.064-.397c.221.225.561.678.745,1.173.313.839-.031,1.241-.526,1.426l-.119.045c.562.183,1.451.687,1.961,2.051.482,1.288.305,2.55-1.014,3.043ZM770.564,279.629l-.839.313c.032.312.201.949.414,1.519.331.885.714,1.407,1.343,1.172.51-.19.594-.648.32-1.383-.314-.839-.846-1.393-1.238-1.621Z"/><path d="M768.893,274.247l-.882-2.18-7.104,2.872.881,2.181-1.246.503-1.523-3.767,8.351-3.376-.888-2.195,1.246-.504,2.41,5.962-1.245.504Z"/><path d="M763.267,266.193c-2.596,1.131-4.172-.241-4.868-1.839-.723-1.657-.63-3.688,1.937-4.806l.352-.153,2.212,5.073c1.11-.536,1.556-1.395,1.007-2.655-.378-.865-.992-1.312-1.674-1.155l-.703-1.613c1.807-.421,2.992.859,3.606,2.268.818,1.877.565,3.819-1.868,4.881ZM760.29,261.487c-.939.567-1.045,1.485-.675,2.336.371.851,1.116,1.398,2.171,1.096l-1.496-3.432Z"/><path d="M732.941,221.893l-.797-1.312,11.334-6.882.797,1.312-11.334,6.882Z"/><path d="M706.47,179.356l1.9,2.354-1.171.945-4.927-6.102,1.17-.945,1.9,2.354,5.952-4.807,1.126,1.395-5.951,4.807Z"/><path d="M705.085,171.105c-2.155,1.836-4.062.98-5.193-.347-1.172-1.376-1.673-3.346.458-5.161l.292-.249,3.59,4.213c.907-.835,1.085-1.785.193-2.833-.613-.718-1.33-.969-1.938-.62l-1.141-1.339c1.605-.927,3.113-.047,4.109,1.122,1.328,1.559,1.65,3.491-.371,5.214ZM700.871,167.467c-.734.814-.568,1.725.033,2.431s1.473,1.014,2.395.418l-2.428-2.849Z"/><path d="M695.572,165.521l-.995-1.106.714-.642c-.569.06-1.496.011-2.299-.882-.898-1-1.262-2.266.441-3.795l3.248-2.921,1.145,1.273-2.998,2.696c-.857.77-1.161,1.365-.466,2.139.513.571,1.028.689,1.481.691l3.844-3.455,1.145,1.273-5.26,4.728Z"/><path d="M692.717,155.149l-1.155-1.22c.502-.563.206-1.341-.531-2.119-.671-.708-1.303-1.166-1.779-.716-.512.484.145,1.34.938,2.549.772,1.164,1.396,2.402.315,3.426-1.057,1.001-2.544.339-3.743-.927s-1.885-2.665-.684-3.979l1.154,1.219c-.48.609-.035,1.312.471,1.846.672.708,1.185.972,1.533.642.465-.44-.037-1.133-.995-2.539-.751-1.096-1.384-2.391-.327-3.393,1.242-1.177,2.771-.4,4.136,1.04,1.298,1.37,1.901,2.937.668,4.171Z"/><path d="M678.18,151.777l-1.481-1.482,1.37-1.368,1.481,1.482-1.37,1.368ZM686.171,147.031l-1.741-1.744-3.091,3.087,1.741,1.744-.962.961-2.951-2.955,4.053-4.048-1.594-1.597.951-.949,4.545,4.551-.951.95Z"/><path d="M677.824,141.822c-1.961,2.064-3.972,1.324-5.189.167-1.299-1.233-2.082-3.104-.1-5.19,1.95-2.053,3.972-1.324,5.189-.167,1.299,1.233,2.07,3.115.1,5.19ZM673.798,138c-1.09,1.147-1.076,2.132-.195,2.969.882.837,1.865.801,2.956-.348,1.079-1.136,1.077-2.132.195-2.969s-1.876-.789-2.956.348Z"/><path d="M667.776,137.221l-1.105-.996.643-.713c-.56.12-1.486.168-2.378-.636-.998-.899-1.492-2.12.039-3.82l2.924-3.245,1.272,1.146-2.699,2.995c-.771.856-1.011,1.48-.238,2.177.571.514,1.095.577,1.546.531l3.46-3.839,1.272,1.146-4.735,5.254Z"/><path d="M624.633,107.106l-1.269-.867,7.488-10.955,1.269.867-7.488,10.955Z"/><path d="M585.265,82.112l-1.787-.898.734-4.808.484-2.64-1.822,1.95-3.414,3.478-1.715-.862,7.057-6.697,1.629.819-1.166,9.658Z"/><path d="M579.002,70.842c-.694,1.478-2.196,1.249-3.514.63-.666-.313-1.321-.763-1.644-1.056l-.244.521c-.389.825-.55,1.545.638,2.104.897.422,1.589.305,1.942-.448l1.463.688c-.823,1.752-2.535,1.672-4.085.943-1.665-.782-2.446-2.016-1.603-3.812l1.244-2.649c.116-.246.07-.374-.19-.497-.174-.081-.454-.16-.649-.198l.484-1.028c.314.007.875.093,1.353.317.812.381.845.91.62,1.388l-.054.116c.53-.264,1.519-.523,2.837.096,1.245.585,2,1.611,1.401,2.886ZM574.675,68.649l-.381.812c.242.201.809.538,1.358.797.854.401,1.493.508,1.78-.101.23-.492-.029-.88-.738-1.213-.812-.381-1.578-.405-2.02-.295Z"/><path d="M569.728,65.977l-1.598-.699-1.75,4.004,1.598.698-.544,1.246-2.962-1.294.641-1.467c-.593.597-1.629,1.209-2.904.651-.484-.211-.873-.521-1.096-.811l.692-1.583c.239.331.687.667,1.112.853,1.025.448,1.866.204,2.375-.08l1.269-2.903-2.728-1.191.538-1.232,5.896,2.576-.539,1.232Z"/><path d="M554.992,69.471l-1.941-.79.729-1.793,1.94.79-.729,1.793ZM560.503,61.991l-2.281-.928-1.646,4.045,2.282.928-.513,1.26-3.867-1.573,2.158-5.304-2.089-.851.507-1.244,5.955,2.423-.506,1.244Z"/><path d="M551.347,58.867c-.574,1.528-2.09,1.421-3.453.908-.689-.259-1.379-.654-1.724-.921l-.202.539c-.321.854-.425,1.585.804,2.047.929.349,1.609.177,1.901-.602l1.514.568c-.681,1.812-2.395,1.87-3.998,1.268-1.724-.647-2.602-1.815-1.903-3.674l1.03-2.742c.096-.254.039-.378-.23-.479-.18-.067-.466-.124-.662-.146l.399-1.063c.314-.019.88.022,1.375.209.839.314.915.84.729,1.334l-.045.12c.508-.306,1.473-.644,2.836-.132,1.289.484,2.124,1.448,1.629,2.767ZM546.857,57.026l-.314.839c.256.183.848.473,1.418.688.883.332,1.529.387,1.766-.243.191-.509-.098-.875-.832-1.15-.84-.315-1.605-.278-2.037-.133Z"/><path d="M539.689,55.814l-.881,2.556,2.131.735-.443,1.286-2.132-.736-1.069,3.1-1.618-.558,1.069-3.101-3.281-1.132.443-1.285,3.281,1.132.861-2.495c.434-1.255.343-1.777-.776-2.163-.62-.214-1.241-.276-1.778-.241l.449-1.301c.557-.045,1.254-.007,2.146.301,1.725.595,2.402,1.573,1.598,3.902Z"/><path d="M527.268,59.407l-1.999-.632.584-1.847,1.998.632-.583,1.847ZM532.165,51.506l-2.351-.743-1.316,4.166,2.351.742-.41,1.297-3.982-1.258,1.726-5.463-2.151-.68.405-1.282,6.134,1.938-.404,1.282Z"/><path d="M522.347,50.741c-.785,2.737-2.911,3.01-4.525,2.547-1.723-.493-3.283-1.789-2.488-4.559.78-2.722,2.91-3.01,4.525-2.547,1.723.494,3.277,1.805,2.488,4.559ZM517.009,49.211c-.437,1.522.031,2.389,1.2,2.724,1.169.336,2.024-.151,2.461-1.675.433-1.507-.03-2.389-1.2-2.724-1.168-.335-2.028.167-2.461,1.675Z"/><path d="M511.312,51.302l-1.439-.372.239-.929c-.44.365-1.239.836-2.401.536-1.301-.336-2.303-1.189-1.731-3.404l1.091-4.228,1.658.428-1.008,3.902c-.288,1.115-.211,1.779.795,2.039.744.192,1.238.006,1.615-.243l1.292-5.003,1.657.428-1.768,6.846Z"/><path d="M459.138,44.592l-1.525-.181,1.557-13.168,1.525.18-1.557,13.169Z"/><path d="M412.209,36.104c.048,2.942-1.251,4.755-3.856,4.797-2.127.034-3.582-.869-3.733-3.347l1.807-.029c.134,1.294.751,1.876,1.901,1.856,1.791-.028,2.071-1.505,2.043-3.248-.027-1.711-.355-3.193-2.146-3.164-1.168.019-1.75.62-1.841,1.901l-1.808.029c.089-2.448,1.576-3.433,3.655-3.466,2.719-.045,3.931,1.695,3.979,4.67Z"/><path d="M402.019,35.258c.117,2.847-1.815,3.775-3.494,3.844-1.791.073-3.68-.666-3.798-3.544-.116-2.831,1.815-3.775,3.495-3.844,1.791-.073,3.68.682,3.797,3.544ZM396.47,35.485c.064,1.584.781,2.259,1.996,2.209,1.216-.05,1.875-.781,1.81-2.365-.063-1.566-.781-2.258-1.997-2.208-1.215.05-1.873.798-1.809,2.364Z"/><path d="M391.703,39.264l-1.484.1-.063-.958c-.304.485-.915,1.184-2.112,1.264-1.34.09-2.561-.406-2.713-2.688l-.291-4.357,1.707-.114.27,4.022c.077,1.149.357,1.756,1.396,1.687.767-.052,1.177-.384,1.458-.739l-.346-5.155,1.708-.114.472,7.055Z"/><path d="M380.025,36.065l.252,2.692,2.246-.211.127,1.354-2.246.211.307,3.266-1.704.16-.307-3.266-3.457.324-.127-1.354,3.457-.324-.247-2.629c-.124-1.321-.422-1.76-1.602-1.649-.652.062-1.244.262-1.719.516l-.129-1.37c.488-.271,1.141-.525,2.08-.613,1.816-.171,2.838.44,3.068,2.894Z"/><path d="M371.379,35.25l-1.731.208.521,4.336,1.731-.208.162,1.351-3.209.385-.19-1.588c-.208.814-.791,1.867-2.173,2.033-.524.062-1.016-.007-1.354-.144l-.206-1.716c.374.165.93.227,1.391.172,1.111-.134,1.712-.77,2.006-1.272l-.377-3.145-2.955.354-.16-1.334,6.385-.768.161,1.335Z"/><path d="M361.853,36.946c.238,1.614-1.139,2.254-2.578,2.467-.729.107-1.521.095-1.952.029l.084.569c.133.902.396,1.591,1.694,1.399.98-.145,1.492-.624,1.371-1.447l1.598-.236c.282,1.915-1.188,2.795-2.882,3.045-1.819.269-3.152-.327-3.442-2.289l-.427-2.896c-.04-.27-.148-.351-.433-.309-.19.028-.469.118-.651.193l-.165-1.124c.266-.168.78-.406,1.303-.482.886-.131,1.207.29,1.283.812l.02.127c.296-.513.976-1.276,2.416-1.488,1.36-.201,2.557.237,2.762,1.629ZM357.038,37.511l.131.886c.312.035.971.003,1.571-.086.934-.138,1.525-.403,1.428-1.067-.08-.538-.51-.717-1.285-.603-.887.131-1.539.534-1.845.87Z"/><path d="M351.895,38.823l-1.655.288c-.191-.729-1.004-.913-2.06-.729-.962.168-1.693.441-1.581,1.088.121.693,1.196.62,2.643.628,1.397,0,2.774.166,3.029,1.632.25,1.435-1.124,2.308-2.842,2.606-1.719.3-3.264.098-3.695-1.63l1.655-.288c.242.737,1.073.755,1.798.628.963-.167,1.465-.449,1.383-.923-.109-.63-.965-.595-2.666-.574-1.328.021-2.758-.169-3.008-1.604-.295-1.687,1.199-2.531,3.153-2.872,1.86-.324,3.499.04,3.846,1.75Z"/><path d="M340.328,41.722l.533,2.651,2.213-.445.268,1.333-2.211.445.646,3.216-1.678.338-.648-3.216-3.403.686-.269-1.333,3.404-.686-.521-2.588c-.262-1.302-.604-1.706-1.766-1.473-.643.129-1.211.391-1.656.692l-.271-1.349c.458-.321,1.079-.642,2.004-.828,1.789-.36,2.869.141,3.355,2.556Z"/><path d="M292.665,62.169l-1.451.504-4.352-12.536,1.451-.504,4.352,12.536Z"/><path d="M248.2,79.479l-2.554,1.294c-2.711,1.375-4.398.311-5.693-2.243-1.236-2.439-1.111-4.564,1.557-5.917l2.553-1.295,4.138,8.161ZM243.159,73.462l-.97.492c-1.727.875-1.311,2.297-.58,3.737.737,1.455,1.631,2.616,3.357,1.741l.97-.492-2.777-5.479Z"/><path d="M237.199,78.769c1.348,2.49.114,4.177-1.419,5.007-1.59.86-3.62.94-4.952-1.521l-.184-.338,4.868-2.635c-.628-1.061-1.521-1.432-2.731-.777-.83.449-1.224,1.1-1.009,1.765l-1.548.838c-.572-1.764.603-3.055,1.953-3.785,1.801-.975,3.758-.888,5.021,1.447ZM232.763,82.135c.645.888,1.568.915,2.385.474.815-.441,1.299-1.23.907-2.256l-3.292,1.782Z"/><path d="M229.751,86.912l-1.29.742-.462-.805c-.072.613-.443,1.51-1.482,2.108-1.359.782-3.109.533-4.41-1.728s-.609-3.914.723-4.681c.971-.559,1.868-.41,2.277-.276l-1.819-3.163,1.484-.854,4.979,8.655ZM223.632,86.352c.679,1.179,1.569,1.7,2.623,1.094.625-.359.939-.872,1.07-1.317l-1.652-2.871c-.45-.109-1.052-.096-1.676.263-1.055.607-1.051,1.639-.365,2.832Z"/><path d="M217.822,89.193l1.41,2.308,1.926-1.177.709,1.161-1.926,1.177,1.711,2.8-1.461.893-1.711-2.8-2.963,1.812-.71-1.161,2.964-1.811-1.378-2.254c-.692-1.134-1.153-1.396-2.163-.778-.561.343-1.004.782-1.319,1.219l-.718-1.175c.32-.458.793-.973,1.6-1.465,1.557-.951,2.743-.852,4.029,1.252Z"/><path d="M214.515,99.875l-1.437.931-2.209-3.41c-.027.398-.239,1.279-1.165,1.879-1.129.73-2.408.874-3.652-1.047l-2.374-3.665,1.437-.931,2.191,3.384c.627.967,1.168,1.359,2.04.794.645-.417.842-.907.915-1.354l-2.81-4.337,1.437-.931,5.627,8.688Z"/><path d="M172.496,130.983l-1.166,1.001-8.64-10.069,1.166-1,8.64,10.068Z"/><path d="M137.402,163.37l-2.003,2.246c-1.47,1.649-3.28,2.309-4.856.902-1.59-1.416-1.141-3.268.34-4.928l.82-.92-2.317-2.066,1.183-1.326,6.834,6.092ZM132.814,161.661l-.83.932c-.948,1.063-.945,1.902-.217,2.552.729.65,1.551.546,2.498-.518l.831-.932-2.282-2.034Z"/><path d="M126.903,166.706c2.163,1.829,1.629,3.85.503,5.182-1.167,1.381-3.029,2.196-5.168.389l-.293-.248,3.574-4.229c-.973-.759-1.939-.779-2.828.271-.609.721-.74,1.47-.297,2.012l-1.137,1.345c-1.176-1.435-.552-3.064.439-4.238,1.322-1.564,3.178-2.197,5.206-.482ZM123.997,171.458c.924.593,1.795.281,2.395-.428.599-.709.761-1.619.022-2.432l-2.417,2.859Z"/><path d="M118.509,173.359l-1.092,1.36,3.408,2.733,1.09-1.36,1.062.851-2.022,2.521-1.248-1.001c.422.728.742,1.887-.128,2.973-.331.412-.73.707-1.067.846l-1.349-1.081c.382-.144.823-.488,1.112-.851.701-.873.685-1.748.543-2.312l-2.471-1.982-1.862,2.321-1.049-.841,4.024-5.018,1.049.841Z"/><path d="M113.153,181.512l-1.016,1.338c-.638-.404-1.356.014-2.005.867-.59.777-.939,1.477-.418,1.873.561.426,1.299-.36,2.363-1.34,1.023-.95,2.145-1.766,3.329-.866,1.159.88.747,2.455-.308,3.844s-2.323,2.293-3.814,1.321l1.016-1.338c.679.375,1.3-.178,1.744-.764.591-.777.767-1.326.385-1.617-.51-.387-1.111.221-2.344,1.395-.959.919-2.135,1.753-3.295.873-1.363-1.035-.845-2.67.355-4.25,1.141-1.504,2.589-2.353,4.007-1.336Z"/><path d="M110.81,192.698l-.868,1.209-.755-.541c.189.588.222,1.558-.479,2.533-.916,1.273-2.611,1.77-4.73.248-2.119-1.522-2.172-3.314-1.275-4.562.653-.91,1.532-1.146,1.96-1.193l-2.964-2.129.999-1.392,8.112,5.827ZM105.005,194.717c1.104.794,2.131.901,2.841-.087.421-.585.495-1.183.431-1.643l-2.691-1.933c-.456.086-.998.348-1.418.933-.71.987-.281,1.927.838,2.729Z"/><path d="M102.394,198.348c2.342,1.591,2.022,3.655,1.043,5.098-1.016,1.495-2.781,2.5-5.096.927l-.318-.216,3.109-4.577c-1.045-.652-2.008-.572-2.781.565-.53.781-.582,1.539-.084,2.031l-.989,1.455c-1.319-1.303-.87-2.988-.007-4.259,1.15-1.693,2.928-2.516,5.123-1.024ZM100.003,203.376c.98.492,1.814.092,2.336-.676.521-.768.586-1.689-.232-2.42l-2.104,3.096Z"/><path d="M96.83,206.665c2.453,1.571,2.059,3.639,1.109,5.121-.855,1.334-2.336,2.457-4.291,1.355l.933-1.455c.968.506,1.628.131,2.137-.665.674-1.051.497-2.02-.837-2.874-1.348-.864-2.289-.612-2.971.452-.502.782-.581,1.529.283,2.197l-.933,1.455c-1.79-1.3-1.376-3.163-.538-4.47.959-1.495,2.683-2.672,5.107-1.117Z"/><path d="M89.98,216.524l2.312,1.4,1.168-1.93,1.164.704-1.168,1.93,2.805,1.698-.886,1.465-2.806-1.698-1.799,2.97-1.163-.704,1.798-2.97-2.258-1.367c-1.137-.688-1.666-.709-2.279.304-.34.562-.531,1.155-.609,1.688l-1.178-.712c.074-.555.258-1.229.746-2.036.945-1.561,2.044-2.017,4.152-.741Z"/><path d="M84.183,222.987l-1.221,2.141,3.795,2.162,1.221-2.141,1.182.674-2.068,3.628-4.976-2.835-1.116,1.96-1.168-.666,3.184-5.588,1.168.665ZM90.876,229.433l-1.037,1.821-1.683-.958,1.038-1.821,1.682.958Z"/><path d="M84.683,233.742l-.906,1.694-3.584-.394-2.297-.321,1.527,1.726,2.314,2.8-.861,1.609-4.766-6.091.861-1.609,7.711.586Z"/><path d="M76.659,241.248c2.53,1.27,2.485,3.358,1.704,4.917-.811,1.615-2.43,2.844-4.932,1.589l-.343-.173,2.481-4.946c-1.123-.51-2.066-.304-2.684.926-.424.844-.374,1.603.184,2.025l-.789,1.572c-1.479-1.118-1.256-2.849-.566-4.221.918-1.83,2.571-2.88,4.944-1.689ZM74.95,246.547c1.036.358,1.81-.148,2.226-.978s.36-1.752-.547-2.368l-1.679,3.346Z"/><path d="M62.072,292.931l-.496,1.453-12.549-4.288.497-1.453,12.548,4.288Z"/><path d="M46.423,340.509l.582-2.968,1.477.29-1.511,7.693-1.476-.29.582-2.968-7.505-1.473.345-1.759,7.506,1.474Z"/><path d="M40.99,346.84c2.793.473,3.361,2.484,3.07,4.204-.301,1.782-1.489,3.432-4.25,2.965l-.379-.064.924-5.459c-1.223-.158-2.066.315-2.296,1.673-.157.931.112,1.642.769,1.883l-.293,1.735c-1.743-.636-2.036-2.357-1.779-3.872.342-2.02,1.615-3.508,4.234-3.064ZM40.908,352.409c1.098.039,1.688-.672,1.844-1.587.154-.915-.17-1.781-1.219-2.105l-.625,3.692Z"/><path d="M39.091,359.354l3.849-2.506-.298,2.091-2.606,1.616,2.06,2.217-.287,2.011-3.001-3.434-4.024,2.61.299-2.091,2.748-1.709-2.164-2.394.297-2.074,3.129,3.662Z"/><path d="M37.264,368.539l2.688.31.258-2.241,1.352.155-.259,2.242,3.26.375-.195,1.701-3.26-.375-.397,3.45-1.351-.156.396-3.45-2.623-.302c-1.32-.152-1.811.049-1.945,1.226-.076.652-.002,1.272.148,1.789l-1.368-.157c-.163-.534-.278-1.224-.169-2.162.208-1.812,1.018-2.686,3.466-2.404Z"/><path d="M36.026,377.05l4.349.387-.152,1.705-4.014-.357c-1.146-.103-1.789.081-1.882,1.116-.068.765.196,1.222.504,1.555l5.146.458-.152,1.705-7.041-.628.133-1.481.955.086c-.432-.376-1.027-1.088-.921-2.282.12-1.338.798-2.466,3.076-2.263Z"/><path d="M33.842,386.853l-.108,1.741,4.361.271.108-1.741,1.358.084-.201,3.228-1.598-.099c.765.352,1.695,1.115,1.609,2.505-.033.527-.19.999-.386,1.308l-1.726-.107c.229-.339.391-.874.42-1.337.069-1.118-.448-1.824-.89-2.204l-3.163-.196-.185,2.971-1.343-.083.399-6.422,1.342.083Z"/><path d="M35.437,396.565c2.83.104,3.657,2.022,3.594,3.766-.064,1.807-1.027,3.598-3.825,3.496l-.384-.014.201-5.533c-1.233.003-2.008.584-2.057,1.959-.035.943.325,1.613,1.008,1.766l-.063,1.759c-1.811-.401-2.327-2.069-2.271-3.604.074-2.047,1.143-3.689,3.797-3.594ZM36.085,402.097c1.092-.104,1.585-.888,1.618-1.814.034-.928-.401-1.744-1.483-1.928l-.135,3.742Z"/><path d="M43.576,449.629l.147,1.529-13.206,1.277-.148-1.529,13.207-1.277Z"/><path d="M49.905,496.939l.655,2.789c.696,2.96-.736,4.349-3.525,5.004-2.664.626-4.701.004-5.386-2.909l-.655-2.789,8.911-2.095ZM42.865,500.419l.249,1.06c.442,1.885,1.923,1.816,3.497,1.447,1.588-.374,2.928-.969,2.485-2.854l-.249-1.06-5.982,1.406Z"/><path d="M44.629,508.41l.628,2.383,4.223-1.112-.627-2.383,1.315-.346,1.063,4.038-5.539,1.458.574,2.182-1.3.343-1.638-6.22,1.3-.343ZM53.923,508.329l.533,2.027-1.872.492-.534-2.026,1.873-.493Z"/><path d="M52.554,515.885l.363,1.245-.967.282c.497.104,1.328.379,1.609,1.348.234.799-.158,1.396-.641,1.688.377.091,1.247.387,1.525,1.339.309,1.061-.472,1.756-1.824,2.15l-4.686,1.368-.427-1.46,4.425-1.292c.83-.242,1.123-.494.998-.925-.121-.415-.519-.632-.842-.771l-5.025,1.468-.426-1.46,4.425-1.292c.83-.242,1.123-.495.997-.925-.121-.415-.521-.648-.846-.787l-5.025,1.467-.426-1.459,6.791-1.983Z"/><path d="M52.039,526.722c2.695-.867,4.126.655,4.66,2.315.553,1.721.259,3.731-2.406,4.588l-.365.118-1.695-5.27c-1.158.423-1.688,1.232-1.266,2.542.289.898.855,1.405,1.549,1.316l.539,1.675c-1.839.238-2.892-1.153-3.361-2.615-.627-1.949-.183-3.856,2.346-4.67ZM54.531,531.701c.991-.47,1.188-1.373.904-2.257-.285-.883-.971-1.502-2.051-1.307l1.146,3.563Z"/><path d="M58.679,535.576l.492,1.403-.905.317c.549.163,1.385.565,1.782,1.697.444,1.268.293,2.574-1.865,3.332l-4.119,1.445-.566-1.615,3.803-1.334c1.086-.381,1.596-.814,1.251-1.795-.254-.725-.684-1.031-1.102-1.207l-4.874,1.711-.566-1.615,6.67-2.34Z"/><path d="M57.324,546.229l.598,1.569c-.68.328-.705,1.159-.324,2.161.348.912.755,1.579,1.368,1.346.657-.251.382-1.292.114-2.715-.266-1.371-.364-2.754,1.026-3.283,1.36-.519,2.479.665,3.1,2.295s.716,3.186-.898,3.938l-.598-1.57c.679-.378.537-1.197.275-1.885-.347-.913-.72-1.353-1.169-1.182-.598.228-.4,1.06-.058,2.727.272,1.3.358,2.74-1.003,3.258-1.6.609-2.713-.696-3.418-2.551-.672-1.765-.626-3.442.986-4.107Z"/><path d="M60.247,556.231l.938,2.279,4.04-1.662-.938-2.279,1.259-.518,1.589,3.863-5.299,2.18.858,2.087-1.243.511-2.447-5.95,1.243-.511ZM69.451,554.92l.797,1.939-1.791.736-.797-1.938,1.791-.737Z"/><path d="M65.96,564.249c2.604-1.154,4.178.302,4.858,1.839.727,1.639.732,3.667-1.901,4.834-2.59,1.148-4.178-.302-4.859-1.838-.727-1.64-.717-3.674,1.902-4.835ZM68.21,569.327c1.449-.643,1.813-1.557,1.32-2.669-.492-1.112-1.415-1.456-2.863-.813-1.435.635-1.814,1.557-1.321,2.668.493,1.112,1.431,1.45,2.864.814Z"/><path d="M73.472,572.352l.639,1.344-.867.412c.562.104,1.438.415,1.951,1.499.578,1.214.565,2.53-1.501,3.512l-3.944,1.875-.735-1.547,3.642-1.729c1.041-.495,1.501-.979,1.055-1.919-.33-.693-.789-.953-1.224-1.083l-4.667,2.218-.734-1.547,6.387-3.034Z"/><path d="M101.792,616.693l.84,1.286-11.105,7.249-.84-1.286,11.105-7.249Z"/><path d="M129.322,655.678l1.965,2.277c1.443,1.672,1.86,3.552.262,4.932-1.611,1.391-3.388.704-4.841-.98l-.805-.933-2.351,2.027-1.16-1.345,6.93-5.979ZM127.029,660.001l.816.945c.93,1.078,1.762,1.185,2.5.548.74-.638.744-1.466-.187-2.544l-.815-.945-2.314,1.996Z"/><path d="M131.289,666.495c2.104-1.918,4.057-1.034,5.188.208,1.207,1.324,1.854,3.245-.275,5.185-2.094,1.906-4.057,1.034-5.188-.208-1.207-1.324-1.842-3.256.275-5.185ZM135.027,670.599c1.17-1.066,1.227-2.049.408-2.948-.818-.898-1.803-.933-2.973.134-1.159,1.056-1.229,2.049-.409,2.947.819.899,1.813.923,2.974-.133Z"/><path d="M137.193,674.87l1.162,1.213c-.498.566-.197,1.343.545,2.116.676.705,1.311,1.159,1.785.705.508-.487-.153-1.339-.955-2.544-.779-1.159-1.41-2.396-.336-3.426,1.052-1.008,2.543-.354,3.751.905s1.903,2.654.709,3.977l-1.163-1.213c.477-.612.027-1.312-.482-1.844-.676-.705-1.19-.965-1.537-.632-.462.442.045,1.133,1.012,2.533.758,1.092,1.398,2.384.348,3.393-1.236,1.185-2.771.417-4.145-1.016-1.308-1.362-1.92-2.926-.693-4.168Z"/><path d="M143.763,682.92l1.753,1.731,3.069-3.107-1.752-1.731.955-.968,2.971,2.936-4.025,4.074,1.605,1.586-.945.956-4.576-4.521.945-.956ZM151.722,678.119l1.491,1.474-1.36,1.377-1.492-1.473,1.361-1.378Z"/><path d="M153.221,689.811l1.852-1.973-1.646-1.544.931-.992,1.646,1.544,2.246-2.393,1.25,1.172-2.246,2.394,2.533,2.377-.932.992-2.533-2.377-1.808,1.926c-.909.969-1.04,1.482-.177,2.293.479.449,1.021.761,1.525.949l-.942,1.004c-.526-.188-1.148-.508-1.837-1.154-1.331-1.249-1.549-2.42.138-4.218Z"/><path d="M158.339,696.834l1.84,1.639,2.904-3.262-1.84-1.638.904-1.016,3.117,2.775-3.807,4.277,1.684,1.5-.893,1.003-4.803-4.275.893-1.004ZM166.037,691.629l1.564,1.394-1.287,1.445-1.564-1.394,1.287-1.445Z"/><path d="M168.97,698.598l1.467,1.238-1.129,3.421-.792,2.178,2.003-1.135,3.218-1.68,1.394,1.177-6.943,3.391-1.393-1.176,2.176-7.414Z"/><path d="M174.635,707.999c1.769-2.212,3.804-1.732,5.165-.644,1.412,1.13,2.277,2.969.528,5.155l-.239.301-4.324-3.459c-.732.992-.727,1.96.348,2.819.737.59,1.49.699,2.02.242l1.375,1.1c-1.402,1.215-3.049.635-4.249-.324-1.6-1.279-2.282-3.116-.623-5.19ZM179.464,710.775c.566-.939.232-1.802-.493-2.382-.725-.579-1.64-.717-2.432.043l2.925,2.339Z"/><path d="M191.728,712.642l1.263.956-14.653,5.543-1.25-.946,14.641-5.553Z"/><path d="M194.206,715.971l1.834,1.314-2.221,7.543,1.51-2.461,2.647-3.692,1.274.913-5.333,7.437-1.833-1.314,2.22-7.543-1.509,2.462-2.648,3.692-1.273-.914,5.332-7.437Z"/><path d="M198.643,726.058c1.589-2.344,3.653-2.026,5.097-1.049,1.497,1.014,2.504,2.778.935,5.096l-.216.318-4.582-3.104c-.651,1.047-.57,2.011.569,2.782.781.529,1.54.579,2.031.081l1.457.987c-1.301,1.321-2.988.874-4.26.013-1.695-1.148-2.521-2.925-1.031-5.124ZM203.675,728.443c.49-.981.088-1.813-.68-2.334s-1.69-.585-2.42.234l3.1,2.1Z"/><path d="M204.928,735.006l1.388.888c-.408.727-.369,1.379.654,2.033,1.24.794,1.811.229,2.319-.566l.544-.85c-.473.116-1.279.188-2.195-.397-1.389-.888-1.938-2.551-.628-4.599,1.319-2.062,3.116-2.26,4.464-1.397.971.621,1.334,1.537,1.35,2.136l.491-.768,1.253.802-3.914,6.116c-1.025,1.604-2.468,1.84-4.436.581-1.32-.845-2.448-2.08-1.29-3.979ZM210.462,735.528l1.655-2.587c-.12-.494-.405-.999-.971-1.361-1.038-.664-1.956-.207-2.646.87-.69,1.078-.711,2.091.326,2.754.566.362,1.135.423,1.635.324Z"/><path d="M214.562,738.433c.844-1.397,2.314-1.015,3.562-.263.63.381,1.235.896,1.525,1.221l.298-.494c.471-.78.707-1.479-.417-2.158-.85-.513-1.55-.468-1.979.245l-1.385-.836c1.002-1.658,2.697-1.4,4.163-.516,1.575.951,2.226,2.259,1.2,3.958l-1.514,2.508c-.141.232-.107.364.139.514.164.099.436.207.625.265l-.587.974c-.313-.04-.861-.184-1.313-.457-.768-.463-.747-.992-.475-1.444l.066-.11c-.555.207-1.564.364-2.812-.389-1.178-.711-1.822-1.811-1.096-3.017ZM218.64,741.062l.463-.767c-.219-.226-.748-.62-1.268-.935-.809-.487-1.435-.659-1.781-.084-.281.466-.063.878.608,1.283.767.464,1.527.567,1.978.502Z"/><path d="M225.443,743.55l1.336-2.352-1.962-1.114.672-1.183,1.962,1.114,1.621-2.853,1.488.846-1.62,2.853,3.02,1.715-.672,1.183-3.02-1.715-1.304,2.296c-.656,1.155-.663,1.686.367,2.271.57.324,1.17.499,1.704.563l-.68,1.196c-.556-.058-1.235-.223-2.056-.689-1.587-.901-2.074-1.987-.857-4.131Z"/><path d="M232.075,749.179l2.174,1.161,2.058-3.854-2.174-1.161.641-1.199,3.685,1.967-2.698,5.054,1.99,1.062-.634,1.186-5.674-3.03.633-1.186ZM238.337,742.311l1.849.987-.912,1.708-1.849-.987.912-1.708Z"/><path d="M242.807,748.384l1.718.858-.293,3.593-.258,2.304,1.682-1.574,2.733-2.39,1.632.815-5.954,4.931-1.632-.815.372-7.722Z"/><path d="M250.535,756.197c1.199-2.566,3.289-2.578,4.869-1.84,1.639.766,2.912,2.35,1.727,4.887l-.163.348-5.016-2.345c-.479,1.137-.246,2.076,1.001,2.658.855.399,1.611.33,2.02-.239l1.594.745c-1.076,1.51-2.812,1.334-4.205.684-1.855-.867-2.95-2.491-1.826-4.897ZM255.88,757.759c.33-1.046-.197-1.806-1.039-2.198-.84-.393-1.762-.312-2.353.613l3.392,1.585Z"/><path d="M297.603,775.759l1.648.515c-.209.94.168,1.561,1.359,1.932,1.084.338,1.86.161,2.079-.542.181-.58-.181-.978-.782-1.416l-1.754-1.251c-.961-.685-1.562-1.66-1.171-2.912.509-1.635,2.175-2.087,4.038-1.507,1.742.543,2.92,1.765,2.341,3.729l-1.665-.519c.238-.981-.15-1.506-1.129-1.811-1.084-.338-1.711-.047-1.871.523-.138.493-.004.87.643,1.323l1.781,1.275c.93.675,1.726,1.56,1.287,2.965-.552,1.772-2.341,2.136-4.266,1.536-1.971-.614-3.135-1.932-2.539-3.842Z"/><path d="M308.845,774.685l1.433.404-.253.894c.489-.378,1.39-.738,2.544-.412,1.509.426,2.553,1.852,1.844,4.36-.708,2.51-2.374,3.17-3.853,2.753-1.078-.305-1.599-1.051-1.789-1.437l-.991,3.51-1.647-.465,2.713-9.607ZM312.719,779.453c.37-1.309.12-2.311-1.05-2.641-.693-.196-1.279-.062-1.689.154l-.9,3.187c.236.399.666.82,1.359,1.016,1.17.331,1.906-.393,2.28-1.716Z"/><path d="M316.617,782.261c.4-1.581,1.918-1.642,3.328-1.283.714.181,1.441.498,1.813.724l.142-.558c.225-.884.246-1.621-1.024-1.943-.962-.244-1.618.002-1.823.808l-1.564-.397c.476-1.876,2.172-2.122,3.83-1.7,1.783.452,2.784,1.515,2.296,3.438l-.72,2.837c-.067.264.002.38.281.451.186.047.477.071.674.072l-.279,1.101c-.311.054-.877.074-1.389-.056-.867-.22-1.002-.732-.871-1.244l.031-.124c-.471.358-1.393.802-2.803.443-1.334-.339-2.27-1.203-1.922-2.567ZM321.278,783.593l.221-.868c-.274-.152-.895-.376-1.483-.525-.915-.232-1.562-.215-1.729.437-.134.526.195.857.955,1.051.867.22,1.625.099,2.036-.094Z"/><path d="M326.724,783.056c.642-2.841,2.719-3.176,4.436-2.788,1.545.35,3.105,1.357,2.737,3.571l-1.686-.381c.146-1.082-.433-1.574-1.353-1.781-1.219-.275-2.068.222-2.418,1.767-.352,1.562.205,2.36,1.439,2.639.904.204,1.635.024,1.968-1.016l1.687.381c-.611,2.125-2.505,2.371-4.02,2.028-1.732-.391-3.426-1.609-2.791-4.42Z"/><path d="M336.523,785.263c.551-2.779,2.577-3.291,4.289-2.952,1.773.352,3.39,1.586,2.845,4.334l-.075.376-5.432-1.076c-.193,1.218.258,2.074,1.607,2.342.927.184,1.645-.065,1.904-.716l1.728.343c-.685,1.725-2.414,1.969-3.921,1.67-2.01-.398-3.463-1.714-2.945-4.32ZM342.088,785.501c.07-1.096-.624-1.707-1.535-1.888-.911-.18-1.786.119-2.139,1.159l3.674.729Z"/><path d="M390.189,785.588l1.534.094-.81,13.244-1.533-.094.809-13.244Z"/><path d="M461.716,714.669l3.252-.552c3.647-.618,5.024,1.521,5.562,4.695.555,3.272-.09,5.815-3.678,6.424l-3.252.552-1.885-11.119ZM464.999,724.111l1.617-.273c2.72-.462,2.532-2.884,2.232-4.658-.305-1.794-.923-4.123-3.643-3.662l-1.617.274,1.41,8.319Z"/><path d="M475.8,722.172l2.699-.57-1.744-8.255-2.7.57-.294-1.389,7.004-1.48.293,1.389-2.68.566,1.745,8.256,2.681-.566.293,1.389-7.003,1.48-.294-1.39Z"/><path d="M487.125,717.836l1.569-.399c.398,1.24,1.408,1.726,3.018,1.316,1.473-.374,2.293-1.202,2.013-2.307-.217-.853-.878-1.098-1.954-1.194l-2.557-.237c-1.437-.13-2.753-.683-3.157-2.271-.493-1.938.932-3.394,3.083-3.94,2.209-.562,4.011.114,4.602,2.357l-1.55.395c-.472-1.531-1.65-1.623-2.735-1.347-1.415.359-2.008,1.191-1.781,2.083.188.736.809,1.073,1.779,1.156l2.557.237c1.922.171,2.928.72,3.307,2.212.567,2.229-.988,3.656-3.256,4.232-2.48.631-4.38-.104-4.937-2.293Z"/><path d="M497.598,706.776l2.798-.834c2.779-.827,4.827-.186,5.467,1.961.52,1.744-.262,3.187-1.648,3.996l4.633,3.295-1.994.593-4.207-3.129-1.438.429,1.199,4.024-1.591.474-3.219-10.809ZM500.815,711.764l1.227-.365c2.032-.605,2.572-1.663,2.207-2.89-.36-1.208-1.396-1.817-3.429-1.212l-1.227.365,1.222,4.102Z"/><path d="M511.406,710.183l-2.361-6.906,1.57-.537,2.361,6.906c.647,1.892,1.467,2.372,2.961,1.861,1.495-.512,1.85-1.393,1.202-3.285l-2.361-6.906,1.57-.537,2.361,6.906c.944,2.763.179,4.355-2.3,5.203s-4.059.057-5.004-2.705Z"/><path d="M520.874,699.114l3.076-1.193c2.61-1.013,4.775-.63,5.65,1.626.875,2.257-.447,3.992-3.076,5.012l-1.529.593,1.505,3.879-1.548.6-4.078-10.516ZM524.483,703.828l1.548-.601c1.977-.767,2.43-1.865,1.967-3.059-.455-1.175-1.539-1.698-3.516-.932l-1.547.6,1.548,3.991Z"/><path d="M535.32,694.8l-3.484,1.516-.566-1.302,8.528-3.711.566,1.302-3.521,1.532,3.935,9.042-1.522.663-3.935-9.042Z"/><path d="M615.095,640.54l1.075-.959,10.896,12.207-1.075.959-10.896-12.207Z"/><path d="M675.699,569.593l3.685-6.351,1.229.713-2.851,4.914,2.941,1.707,2.479-4.274,1.229.713-2.479,4.274,3.131,1.817,2.852-4.914,1.229.713-3.684,6.35-9.76-5.662Z"/><path d="M687.837,559.209l-6.607.743.896-1.697,2.993-.275,2.123-.169-1.051-1.865-1.465-2.625.877-1.662,3.084,5.853,6.983-.771-.896,1.698-3.422.319-2.062.18,1.026,1.784,1.651,3.04-.867,1.645-3.265-6.196Z"/><path d="M688.527,545.656l.773-1.624,11.895,1.262-.775,1.624-2.806-.341-1.894,3.972,2.031,1.965-.757,1.589-8.468-8.446ZM694.665,549.602l1.531-3.214-1.783-.208-3.965-.561,2.932,2.728,1.285,1.255Z"/><path d="M697.394,539.983c-3.328-1.426-4.781-3.723-3.607-6.463.842-1.967,2.544-3.044,5.165-2.053l-.63,1.472c-1.607-.515-2.613-.249-3.188,1.093-1,2.336,1.135,3.598,2.955,4.378,2.097.897,4.192,1.338,5.113-.813.41-.956.318-1.757.039-2.529l-2.299-.984-1.039,2.428-1.269-.544,1.669-3.897,5.59,2.394-.512,1.195-1.14-.488c.373.551.788,1.817.135,3.343-1.204,2.813-4.243,2.644-6.983,1.471Z"/><path d="M702.239,528.475c-3.384-1.287-4.93-3.523-3.87-6.308.761-2.001,2.416-3.146,5.076-2.264l-.568,1.496c-1.627-.448-2.621-.142-3.141,1.223-.902,2.374,1.282,3.548,3.133,4.252,2.131.811,4.243,1.165,5.074-1.022.371-.972.246-1.769-.064-2.528l-2.336-.889-.939,2.468-1.289-.491,1.507-3.963,5.683,2.162-.463,1.215-1.158-.44c.395.535.862,1.782.271,3.334-1.088,2.86-4.131,2.815-6.915,1.756Z"/><path d="M701.539,514.164l2.33-6.961,1.347.45-1.803,5.387,3.224,1.079,1.568-4.685,1.347.45-1.567,4.686,3.433,1.148,1.803-5.387,1.347.451-2.33,6.961-10.697-3.58Z"/><path d="M705.326,502.522l.813-2.805c.808-2.785,2.456-4.161,4.607-3.537,1.748.507,2.54,1.944,2.47,3.549l5.278-2.114-.579,1.997-4.908,1.847-.418,1.441,4.033,1.169-.461,1.595-10.836-3.142ZM711.263,502.515l.356-1.229c.591-2.036-.007-3.063-1.237-3.42-1.209-.351-2.283.191-2.873,2.229l-.357,1.229,4.111,1.191Z"/><path d="M709.276,488.15l.431-1.748,11.909-1.163-.431,1.748-2.818.231-1.055,4.273,2.387,1.517-.421,1.709-10.002-6.567ZM716.087,490.778l.853-3.458-1.79.156-3.998.25,3.423,2.081,1.513.971Z"/><path d="M713.414,476.436l-.76,3.723-1.391-.284,1.858-9.11,1.392.283-.768,3.762,9.658,1.972-.332,1.626-9.658-1.971Z"/><path d="M713.828,466.775l1.176-7.247,1.402.228-.91,5.608,3.356.544.792-4.877,1.401.228-.792,4.877,3.574.58.91-5.607,1.402.228-1.176,7.246-11.137-1.807Z"/><path d="M713.357,367.876l-.221-1.423,16.163-2.521.222,1.423-16.164,2.521Z"/><path d="M692.003,276.706c-3.397,1.745-6.006,1.219-7.396-1.485-.886-1.726-1.099-4.022,1.542-5.491l.731,1.423c-1.404.901-1.659,2.111-.974,3.446,1.161,2.26,3.354,1.582,5.312.577,1.85-.951,3.695-2.349,2.535-4.608-.777-1.512-1.81-1.858-3.342-1.207l-.74-1.44c2.626-1.236,4.422.157,5.372,2.008,1.435,2.793.217,5.105-3.04,6.778Z"/><path d="M686.258,265.627c-3.187,1.802-5.862,1.66-7.358-.986-1.486-2.629-.25-4.913,2.884-6.685,3.187-1.801,5.845-1.649,7.341.996,1.486,2.629.25,4.913-2.866,6.675ZM682.683,259.424c-1.654.935-3.73,2.384-2.51,4.543s3.532,1.128,5.186.192c1.637-.925,3.713-2.374,2.492-4.533-1.221-2.158-3.532-1.127-5.168-.202Z"/><path d="M674.732,257.044l-1.17-1.887,6.344-8.101-2.658,1.86-5.457,3.385-.791-1.274,9.588-5.947,1.17,1.887-6.344,8.102,2.658-1.861,5.457-3.384.791,1.274-9.588,5.946Z"/><path d="M668.189,246.683l-1.245-1.838,6.011-8.347-2.58,1.966-5.314,3.6-.842-1.241,9.338-6.326,1.244,1.838-6.011,8.348,2.581-1.966,5.314-3.601.842,1.242-9.338,6.325Z"/><path d="M666.343,233.926c-2.946,2.172-5.62,2.354-7.424-.092-1.793-2.432-.842-4.848,2.057-6.984,2.945-2.173,5.604-2.344,7.408.104,1.792,2.431.84,4.848-2.041,6.973ZM662.044,228.199c-1.529,1.128-3.415,2.816-1.943,4.812,1.473,1.996,3.644.693,5.173-.434,1.513-1.116,3.399-2.806,1.927-4.802s-3.643-.693-5.156.423Z"/><path d="M653.284,223.794l2.378,2.966-1.109.888-5.817-7.258,1.108-.889,2.402,2.997,7.695-6.169,1.039,1.296-7.696,6.169Z"/><path d="M646.146,217.314l-4.816-5.538,1.071-.932,3.728,4.286,2.564-2.231-3.24-3.727,1.07-.933,3.242,3.728,2.73-2.375-3.727-4.286,1.072-.932,4.815,5.539-8.511,7.4Z"/><path d="M569.818,154.428l-1.235-.738,8.388-14.042,1.236.738-8.389,14.042Z"/><path d="M483.947,117.926l-2.85-.635c-2.83-.631-4.306-2.188-3.818-4.375.396-1.775,1.779-2.655,3.385-2.687l-2.441-5.133,2.029.452,2.15,4.781,1.465.326.912-4.099,1.621.361-2.453,11.007ZM483.566,112.004l-1.248-.278c-2.069-.461-3.057.199-3.335,1.448-.274,1.229.335,2.267,2.403,2.728l1.25.278.93-4.176Z"/><path d="M471.982,115.377l-7.224-1.305.253-1.397,5.59,1.01.604-3.347-4.861-.878.252-1.397,4.862.878.644-3.562-5.59-1.01.252-1.397,7.225,1.305-2.006,11.102Z"/><path d="M459.912,113.301l-3.268-.453c-2.773-.384-4.479-1.771-4.146-4.168.332-2.396,2.331-3.27,5.124-2.883l1.623.226.572-4.12,1.643.229-1.549,11.17ZM459.05,107.429l-1.643-.229c-2.1-.291-3.03.448-3.206,1.716-.173,1.248.519,2.232,2.618,2.523l1.644.228.587-4.238Z"/><path d="M447.731,111.714l-7.302-.717.139-1.413,5.65.555.332-3.383-4.914-.482.139-1.413,4.914.482.354-3.601-5.65-.555.139-1.413,7.302.717-1.102,11.223Z"/><path d="M432.865,110.473l-1.797-.104-3.32-11.496,1.797.104.744,2.729,4.394.255,1.055-2.624,1.757.102-4.629,11.035ZM434.205,103.296l-3.556-.206.48,1.731.978,3.885,1.42-3.746.678-1.664Z"/><path d="M420.607,108.552l3.801.069-.025,1.421-9.302-.171.026-1.42,3.84.07.182-9.862,1.66.03-.182,9.862Z"/><path d="M325.475,124.569l-1.377.424-4.817-15.64,1.376-.424,4.818,15.64Z"/><path d="M235.224,155.919l-2.25,1.6,4.895,6.878,2.248-1.601.824,1.157-5.834,4.151-.824-1.157,2.233-1.589-4.894-6.877-2.232,1.589-.824-1.157,5.834-4.151.824,1.157Z"/><path d="M230.976,171.166l-1.756,1.358-8.711-5.477,2.125,2.453,3.928,5.079-1.188.918-6.901-8.925,1.757-1.358,8.711,5.478-2.125-2.454-3.928-5.079,1.187-.918,6.901,8.925Z"/><path d="M222.381,177.877l-1.363,1.146-5.471-3.374-3.199-2.067,1.488,3.452,2.401,6.002-1.332,1.119-4.223-11.188,1.41-1.183,10.288,6.093Z"/><path d="M212.038,186.687l-5.427,4.938-.955-1.05,4.199-3.822-2.288-2.513-3.651,3.324-.956-1.05,3.651-3.324-2.436-2.677-4.199,3.822-.955-1.05,5.426-4.939,7.591,8.34Z"/><path d="M203.037,195.019l-2.078,2.05c-2.064,2.035-4.174,2.431-5.746.836-1.277-1.296-1.266-2.936-.422-4.301l-5.637-.732,1.481-1.46,5.183.785,1.068-1.053-2.948-2.989,1.182-1.165,7.917,8.029ZM197.855,192.127l-.912.898c-1.508,1.488-1.488,2.676-.59,3.587.885.897,2.086.948,3.595-.54l.911-.898-3.004-3.047Z"/><path d="M191.507,204.703l2.598-2.774,1.036.971-6.357,6.79-1.036-.971,2.625-2.804-7.199-6.74,1.135-1.212,7.199,6.74Z"/><path d="M139.712,286.091l-.607,1.307-14.84-6.89.605-1.307,14.842,6.89Z"/><path d="M104.853,373.851c.279.032.515.079.709.143l-.185,1.589c-.137-.036-.433-.09-.671-.118-1.49-.173-2.526.433-2.703,1.962-.191,1.649.842,2.453,2.809,2.682l6.875.797-.191,1.649-6.953-.807c-2.901-.336-4.299-1.827-3.992-4.47.29-2.503,2.059-3.688,4.303-3.427Z"/><path d="M103.779,386.618l7.279.546-.124,1.655-7.279-.546c-1.994-.149-2.759.415-2.877,1.99s.554,2.248,2.548,2.397l7.279.546-.124,1.655-7.279-.546c-2.911-.219-4.075-1.549-3.88-4.162.196-2.612,1.545-3.755,4.457-3.536Z"/><path d="M104.632,402.113l5.629-3.545-.068,1.919-2.576,1.551-1.838,1.076,1.758,1.223,2.461,1.728-.066,1.879-5.325-3.93-5.955,3.733.067-1.919,2.944-1.777,1.778-1.059-1.701-1.16-2.811-2.021.065-1.858,5.638,4.16Z"/><path d="M108.476,414.598l-.061-3.801,1.42-.022.148,9.302-1.42.022-.062-3.841-9.862.158-.026-1.66,9.862-.158Z"/><path d="M110.162,426.843l.08,1.798-11.089,4.474-.079-1.797,2.637-1.018-.195-4.395-2.717-.78-.077-1.758,11.44,3.476ZM102.891,426.245l.157,3.555,1.672-.654,3.762-1.367-3.867-1.029-1.724-.504Z"/><path d="M110.689,436.431l.277,3.288c.234,2.79-.744,4.759-3.154,4.962-2.412.203-3.704-1.555-3.94-4.364l-.138-1.634-4.145.349-.141-1.653,11.24-.947ZM105.148,438.564l.141,1.653c.178,2.113,1.104,2.857,2.379,2.75,1.255-.105,2.062-.996,1.885-3.108l-.139-1.654-4.266.359Z"/><path d="M106.054,448.466c3.633-.452,6.055.698,6.43,3.716.374,2.997-1.639,4.639-5.213,5.084-3.633.452-6.033-.7-6.41-3.718-.373-2.997,1.641-4.64,5.193-5.082ZM106.999,455.565c1.886-.234,4.357-.784,4.051-3.246-.307-2.461-2.838-2.388-4.724-2.153-1.866.232-4.337.782-4.031,3.243.307,2.462,2.838,2.389,4.704,2.156Z"/><path d="M105.402,461.46l.266,1.599c-1.27.292-1.839,1.258-1.566,2.896.25,1.5,1.006,2.388,2.13,2.201.868-.145,1.167-.782,1.355-1.848l.451-2.528c.251-1.421.912-2.687,2.53-2.955,1.973-.328,3.304,1.215,3.668,3.404.373,2.249-.452,3.988-2.738,4.389l-.262-1.578c1.565-.342,1.756-1.509,1.572-2.613-.239-1.44-1.018-2.102-1.926-1.951-.75.125-1.138.717-1.303,1.677l-.451,2.528c-.333,1.9-.965,2.856-2.484,3.109-2.268.377-3.561-1.294-3.943-3.602-.42-2.525.472-4.356,2.701-4.728Z"/><path d="M115.544,472.852l1.496,7.185-1.391.289-1.156-5.56-3.328.692,1.006,4.836-1.391.289-1.006-4.836-3.543.737,1.156,5.561-1.39.289-1.495-7.185,11.041-2.298Z"/><path d="M151.555,564.925l.722,1.246-14.154,8.2-.722-1.245,14.154-8.201Z"/><path d="M208.789,638.626l2.461,2.201c2.086,1.866,2.728,3.97,1.113,5.773-1.613,1.805-3.76,1.414-5.861-.467l-1.223-1.094-2.773,3.102-1.238-1.107,7.521-8.408ZM206.226,643.982l1.236,1.107c1.581,1.413,2.766,1.319,3.619.365.84-.939.815-2.142-.765-3.556l-1.237-1.106-2.854,3.189Z"/><path d="M218.002,646.727l2.252,1.858c2.237,1.845,2.847,3.903,1.421,5.631-1.158,1.404-2.791,1.561-4.236.861l-.15,5.683-1.604-1.323.251-5.238-1.157-.954-2.673,3.239-1.28-1.056,7.178-8.701ZM215.656,652.18l.987.814c1.636,1.349,2.815,1.207,3.63.22.801-.972.729-2.172-.906-3.521l-.987-.814-2.724,3.301Z"/><path d="M223.371,658.443c2.215-2.915,4.729-3.844,7.15-2.005,2.405,1.827,2.174,4.415-.004,7.282-2.215,2.915-4.717,3.828-7.139,1.989-2.405-1.827-2.174-4.415-.008-7.267ZM229.111,662.727c1.148-1.513,2.482-3.666.507-5.166s-3.69.361-4.841,1.875c-1.137,1.497-2.471,3.649-.495,5.15,1.976,1.5,3.69-.361,4.829-1.859Z"/><path d="M236.238,660.992l1.46,1.019-1.834,6.158-1.164,3.627,2.946-2.335,5.17-3.88,1.427.996-9.702,6.985-1.51-1.053,3.207-11.518Z"/><path d="M243.634,673.018c1.973-3.083,4.402-4.211,6.963-2.573,2.543,1.626,2.521,4.223.582,7.255-1.972,3.083-4.391,4.194-6.951,2.557-2.544-1.627-2.521-4.224-.594-7.238ZM249.699,676.823c1.023-1.601,2.178-3.852.089-5.188s-3.647.657-4.671,2.258c-1.014,1.583-2.168,3.835-.08,5.171,2.09,1.336,3.648-.657,4.662-2.241Z"/><path d="M257.814,675.194l1.434.838-2.672,4.577,6.715-2.218,1.727,1.009-6.076,1.918.733,8.025-1.796-1.049-.455-6.52-1.877.596-1.986,3.402-1.434-.837,5.688-9.742Z"/><path d="M268.459,681.29l6.485,3.444-.666,1.255-5.02-2.665-1.595,3.004,4.364,2.317-.666,1.255-4.364-2.318-1.698,3.198,5.018,2.665-.666,1.255-6.484-3.444,5.292-9.966Z"/><path d="M362.267,712.446l1.42.241-2.746,16.127-1.419-.242,2.745-16.126Z"/><path d="M457.053,653.463c-.7-3.532.319-6.1,3.519-6.734,2.688-.533,4.396.475,5.032,3.061l-2.198.436c-.397-1.287-1.111-1.9-2.465-1.632-2.197.436-2.009,2.52-1.631,4.423.447,2.257,1.111,3.858,3.289,3.427.942-.188,1.527-.731,1.846-1.182l-.393-1.982-2.354.467-.335-1.688,4.494-.891,1.218,6.142-1.845.366-.237-1.197c-.319.654-1.058,1.657-2.667,1.977-3.081.611-4.646-1.832-5.272-4.991Z"/><path d="M469.822,652.203c-.867-3.433,1.146-5.097,3.261-5.631,2.192-.554,4.677-.026,5.534,3.368l.117.465-6.71,1.695c.436,1.479,1.402,2.204,3.07,1.782,1.145-.288,1.821-.955,1.767-1.828l2.133-.539c.151,2.314-1.67,3.517-3.531,3.987-2.482.627-4.828-.081-5.641-3.3ZM476.234,649.49c-.508-1.275-1.619-1.593-2.744-1.309s-1.953,1.092-1.795,2.454l4.539-1.146Z"/><path d="M481.941,649.007c-1.051-3.4.986-5.139,2.992-5.759,2.139-.662,4.656-.372,5.719,3.066,1.046,3.382-.984,5.14-2.991,5.76-2.14.661-4.663.353-5.72-3.067ZM488.57,646.958c-.584-1.892-1.666-2.478-3.117-2.029-1.452.449-2.014,1.544-1.43,3.435.579,1.872,1.666,2.479,3.118,2.029,1.452-.448,2.008-1.562,1.429-3.435Z"/><path d="M492.126,641.162l1.521-.558.434,1.184c.089-.63.361-1.688,1.545-2.122.977-.357,1.756.082,2.158.658.081-.477.377-1.587,1.542-2.014,1.296-.475,2.228.44,2.833,2.094l2.1,5.729-1.784.653-1.981-5.409c-.373-1.015-.711-1.359-1.237-1.166-.507.186-.745.698-.892,1.114l2.25,6.143-1.783.653-1.982-5.409c-.371-1.015-.711-1.359-1.236-1.166-.508.186-.765.706-.91,1.121l2.25,6.143-1.785.653-3.041-8.302Z"/><path d="M505.684,640.853c-1.388-3.257.345-5.213,2.351-6.068,2.079-.886,4.616-.75,5.988,2.471l.188.441-6.367,2.714c.659,1.394,1.728,1.96,3.31,1.286,1.086-.463,1.652-1.227,1.462-2.08l2.024-.863c.508,2.263-1.105,3.733-2.872,4.486-2.355,1.004-4.782.668-6.084-2.387ZM511.599,637.179c-.699-1.181-1.847-1.322-2.914-.867s-1.76,1.381-1.393,2.703l4.307-1.836Z"/><path d="M519.664,635.336l-1.482-3.038-2.534,1.237-.745-1.528,2.533-1.237-1.798-3.685,1.923-.938,1.799,3.685,3.9-1.903.746,1.527-3.9,1.904,1.447,2.966c.729,1.491,1.271,1.872,2.601,1.224.737-.36,1.341-.855,1.784-1.361l.754,1.546c-.451.533-1.102,1.117-2.162,1.635-2.049,1-3.514.735-4.865-2.032Z"/><path d="M530.201,632.37l1.905-1.057-2.646-4.773-1.906,1.056-.823-1.486,3.532-1.957.969,1.749c-.143-1.041.036-2.534,1.558-3.377.577-.32,1.179-.471,1.636-.473l1.047,1.889c-.512-.014-1.184.176-1.69.457-1.224.678-1.62,1.696-1.724,2.417l1.919,3.462,3.253-1.802.813,1.469-7.03,3.896-.812-1.469Z"/><path d="M541.232,626.12l2.613-1.629-2.888-4.632-2.612,1.628-.899-1.442,4.429-2.76,3.785,6.074,2.393-1.49.889,1.425-6.821,4.251-.888-1.425ZM537.705,615.055l2.223-1.386,1.279,2.054-2.223,1.385-1.279-2.053Z"/><path d="M549.934,617.366c-2.08-2.985-.639-5.184,1.165-6.44,1.625-1.132,3.869-1.721,5.601.484l-1.771,1.234c-.876-1.047-1.815-.928-2.784-.254-1.279.892-1.537,2.095-.406,3.719,1.144,1.641,2.35,1.799,3.646.896.951-.663,1.4-1.487.721-2.671l1.771-1.234c1.446,2.354.078,4.308-1.514,5.416-1.82,1.269-4.371,1.804-6.429-1.149Z"/><path d="M606.505,553.225l4.629-6.621,1.541,1.078-3.357,4.801,2.703,1.892,2.911-4.163,1.54,1.077-2.91,4.163,3.589,2.509-1.272,1.819-9.373-6.555Z"/><path d="M618.993,547.469c-3.018-1.888-2.612-4.535-1.498-6.314,1.188-1.898,3.282-3.324,6.334-1.416,3.001,1.877,2.611,4.535,1.498,6.315-1.188,1.898-3.3,3.313-6.334,1.415ZM622.672,541.587c-1.679-1.05-2.88-.787-3.687.501-.806,1.289-.516,2.484,1.162,3.534,1.662,1.039,2.881.787,3.688-.501.805-1.288.498-2.494-1.163-3.534Z"/><path d="M628.24,537.637l1.059-1.904-4.77-2.654-1.059,1.905-1.486-.826,1.964-3.529,1.747.972c-.671-.809-1.309-2.17-.463-3.689.32-.577.752-1.023,1.139-1.266l1.887,1.05c-.441.258-.912.774-1.193,1.28-.681,1.224-.478,2.297-.185,2.964l3.46,1.924,1.807-3.249,1.469.816-3.908,7.023-1.467-.816Z"/><path d="M627.503,524.089l.715-1.455,1.131.556c-.37-.517-.905-1.47-.35-2.602.459-.934,1.325-1.155,2.016-1.017-.271-.4-.824-1.408-.277-2.521.607-1.239,1.914-1.222,3.495-.445l5.478,2.689-.838,1.706-5.172-2.54c-.971-.476-1.453-.49-1.701.013-.237.484-.055,1.021.127,1.422l5.873,2.884-.838,1.706-5.172-2.54c-.971-.477-1.453-.49-1.701.013-.238.484-.063,1.038.118,1.439l5.873,2.884-.838,1.706-7.938-3.897Z"/><path d="M638.621,514.98l.827-1.931c.896.297,1.642-.429,2.169-1.66.48-1.122.692-2.075-.062-2.398-.809-.347-1.465.83-2.46,2.341-.953,1.463-2.066,2.793-3.775,2.061-1.674-.717-1.65-2.752-.793-4.756.858-2.005,2.124-3.486,4.229-2.76l-.827,1.931c-.938-.249-1.523.61-1.886,1.456-.48,1.121-.527,1.841.024,2.077.735.315,1.282-.604,2.421-2.401.885-1.405,2.059-2.773,3.731-2.058,1.968.843,1.834,2.983.858,5.264-.93,2.169-2.429,3.638-4.457,2.835Z"/><path d="M649.661,426.867l.073-1.438,16.338.823-.072,1.438-16.339-.824Z"/><path d="M647.703,346.239c-3.514,1.095-6.154.348-7.125-2.764-.976-3.131.734-5.172,4.189-6.249,3.474-1.083,6.147-.366,7.123,2.765.971,3.111-.695,5.159-4.188,6.248ZM645.497,339.366c-1.929.601-3.778,1.45-3.118,3.569.66,2.118,2.666,1.766,4.594,1.165,1.89-.59,3.779-1.45,3.118-3.569s-2.704-1.754-4.594-1.165Z"/><path d="M647.396,332.288l-.756-2.046-5.123,1.892.755,2.046-1.595.589-1.4-3.791,1.877-.693c-1.051-.017-2.5-.42-3.104-2.053-.229-.619-.286-1.238-.219-1.689l2.027-.748c-.092.503-.006,1.196.195,1.74.484,1.314,1.433,1.859,2.129,2.072l3.717-1.372-1.289-3.491,1.576-.582,2.785,7.545-1.576.582Z"/><path d="M645.064,319.921l-.812-1.893c.932-.465,1.35-1.166.75-2.562-.727-1.69-1.713-1.506-2.797-1.04l-1.158.496c.57.213,1.455.703,1.992,1.952.812,1.893.215,3.998-2.578,5.197-2.811,1.207-4.809.15-5.598-1.687-.568-1.323-.301-2.525.104-3.156l-1.048.45-.733-1.709,8.34-3.581c2.188-.938,3.844-.171,4.996,2.512.772,1.8,1.073,3.868-1.457,5.021ZM639.705,315.498l-3.527,1.515c-.223.597-.282,1.318.049,2.09.607,1.415,1.878,1.587,3.349.956,1.469-.631,2.201-1.663,1.594-3.078-.332-.771-.878-1.233-1.464-1.482Z"/><path d="M637.415,309.538c-1.83.899-3.117-.495-3.92-2.128-.405-.826-.693-1.775-.779-2.312l-.646.317c-1.022.503-1.742,1.079-1.019,2.551.547,1.112,1.313,1.538,2.246,1.079l.891,1.812c-2.171,1.067-3.78-.348-4.724-2.268-1.014-2.063-.814-3.878,1.411-4.972l3.284-1.613c.305-.15.359-.311.2-.634-.105-.216-.318-.512-.478-.701l1.273-.626c.303.252.781.774,1.072,1.366.494,1.005.115,1.548-.477,1.839l-.145.07c.725.157,1.892.675,2.694,2.308.759,1.544.694,3.135-.886,3.911ZM634.906,304.021l-1.006.494c.078.385.368,1.155.703,1.838.521,1.059,1.062,1.661,1.815,1.291.61-.3.659-.881.228-1.76-.494-1.005-1.224-1.627-1.74-1.863Z"/><path d="M625.738,300.837l-.904-1.625,1.048-.584c-.711-.085-1.827-.402-2.557-1.712-.817-1.468-.909-3.111,1.589-4.503l4.77-2.658,1.042,1.869-4.403,2.453c-1.258.701-1.793,1.343-1.16,2.479.468.839,1.062,1.126,1.614,1.253l5.644-3.145,1.041,1.87-7.723,4.303Z"/><path d="M614.72,290.014l-1.391-2.221,2.051-1.285,1.391,2.221-2.051,1.285ZM625.783,286.46l-1.635-2.61-4.628,2.898,1.636,2.611-1.441.902-2.771-4.425,6.068-3.802-1.497-2.391,1.424-.892,4.27,6.814-1.425.893Z"/><path d="M617.009,277.784c-2.98,2.088-5.183.652-6.445-1.148-1.136-1.621-1.731-3.864.469-5.602l1.239,1.769c-1.044.878-.923,1.818-.245,2.784.895,1.277,2.099,1.532,3.72.396,1.638-1.147,1.792-2.354.886-3.647-.666-.95-1.492-1.396-2.674-.715l-1.239-1.768c2.352-1.453,4.308-.09,5.421,1.499,1.273,1.817,1.815,4.367-1.131,6.433Z"/><path d="M552.714,221.379l-6.633-4.617,1.074-1.543,4.811,3.349,1.885-2.709-4.17-2.903,1.074-1.543,4.17,2.902,2.504-3.596,1.822,1.269-6.537,9.392Z"/><path d="M546.927,208.905c-1.882,3.022-4.531,2.622-6.314,1.512-1.902-1.185-3.333-3.277-1.43-6.334,1.872-3.006,4.531-2.622,6.314-1.512,1.902,1.184,3.322,3.294,1.43,6.334ZM541.035,205.235c-1.047,1.682-.782,2.884.509,3.688,1.29.804,2.486.511,3.533-1.171,1.036-1.664.782-2.883-.509-3.687s-2.497-.494-3.533,1.17Z"/><path d="M537.072,199.686l-1.908-1.055-2.641,4.778,1.908,1.054-.822,1.488-3.535-1.954.967-1.751c-.807.674-2.166,1.316-3.689.475-.578-.319-1.025-.75-1.269-1.136l1.044-1.89c.26.44.777.909,1.285,1.189,1.225.678,2.299.471,2.965.176l1.915-3.465-3.255-1.8.812-1.47,7.035,3.889-.812,1.471Z"/><path d="M523.523,200.451l-1.456-.71.553-1.133c-.515.372-1.468.909-2.6.355-.935-.456-1.157-1.321-1.021-2.012-.399.272-1.405.828-2.52.284-1.24-.605-1.226-1.912-.454-3.494l2.676-5.482,1.708.834-2.526,5.177c-.475.971-.488,1.454.016,1.699.485.237,1.021.053,1.421-.13l2.869-5.878,1.708.834-2.527,5.177c-.474.971-.486,1.454.017,1.699.485.237,1.038.062,1.438-.121l2.869-5.878,1.708.834-3.878,7.944Z"/><path d="M514.406,189.37l-1.933-.822c.294-.896-.433-1.64-1.665-2.164-1.123-.478-2.076-.688-2.397.066-.345.811.833,1.464,2.347,2.454,1.465.949,2.797,2.06,2.068,3.771-.713,1.675-2.748,1.657-4.753.804-2.006-.854-3.49-2.115-2.769-4.221l1.932.822c-.246.938.613,1.521,1.46,1.882,1.122.478,1.843.522,2.077-.029.312-.736-.607-1.28-2.406-2.415-1.408-.881-2.779-2.051-2.066-3.726.838-1.969,2.979-1.841,5.26-.87,2.172.924,3.644,2.419,2.846,4.448Z"/><path d="M426.262,178.558l-1.438-.067.773-16.339,1.438.068-.773,16.338Z"/><path d="M346.546,186.496l-3.203,1.007c-2.729.858-4.984.414-5.781-2.122-.492-1.564.203-3.02,1.361-3.866l-4.447-3.212,2.595-.816,3.812,2.993,1.316-.413-1.199-3.814,2.117-.666,3.43,10.91ZM342.739,181.783l-1.087.342c-1.697.533-2.281,1.408-1.916,2.572.365,1.163,1.346,1.547,3.043,1.013l1.088-.342-1.128-3.585Z"/><path d="M332.357,181.499c.711,1.911-.806,3.052-2.511,3.687-.862.32-1.836.513-2.379.544l.251.675c.397,1.067.898,1.841,2.436,1.27,1.162-.433,1.662-1.152,1.299-2.126l1.893-.705c.844,2.268-.725,3.727-2.73,4.473-2.154.802-3.939.421-4.804-1.903l-1.276-3.429c-.118-.318-.272-.389-.609-.264-.225.084-.541.266-.746.405l-.494-1.33c.281-.275.848-.7,1.467-.93,1.049-.391,1.551.041,1.781.659l.056.15c.229-.704.861-1.814,2.566-2.449,1.611-.6,3.188-.375,3.802,1.273ZM326.617,183.443l.391,1.05c.391-.039,1.187-.25,1.898-.516,1.105-.411,1.76-.889,1.467-1.676-.236-.638-.811-.744-1.729-.402-1.049.391-1.74,1.054-2.027,1.544Z"/><path d="M322.525,192.241l-1.707.738-.477-1.102c-.155.699-.582,1.777-1.959,2.372-1.542.667-3.186.593-4.32-2.032l-2.166-5.011,1.963-.85,2,4.626c.571,1.322,1.156,1.919,2.35,1.403.881-.381,1.226-.944,1.408-1.48l-2.562-5.929,1.963-.85,3.508,8.113Z"/><path d="M309.935,192.97c1.447,2.923.456,4.932-1.266,5.784-1.255.622-2.363.367-2.863.169l2.229,4.5-1.918.95-5.746-11.601,1.668-.825.515,1.04c.138-.761.669-1.851,2.014-2.517,1.757-.87,3.921-.424,5.368,2.499ZM303.337,193.939l1.829,3.693c.554.172,1.314.22,2.121-.18,1.362-.676,1.431-1.981.675-3.506-.754-1.523-1.834-2.262-3.197-1.587-.807.4-1.229,1.034-1.428,1.579Z"/><path d="M298.71,198.625c1.74,3.104.113,5.231-1.718,6.259-1.953,1.096-4.476,1.341-6.235-1.799-1.731-3.087-.114-5.231,1.717-6.259,1.953-1.096,4.485-1.323,6.236,1.799ZM292.658,202.018c.969,1.728,2.148,2.074,3.475,1.33,1.325-.743,1.645-1.931.677-3.657-.958-1.709-2.149-2.073-3.474-1.33-1.326.743-1.636,1.948-.678,3.657Z"/><path d="M290.415,208.426l-1.371.863-.672-1.066c.045.635,0,1.727-1.065,2.398-.88.555-1.733.288-2.249-.19.021.483-.035,1.63-1.085,2.292-1.167.735-2.271.036-3.209-1.453l-3.253-5.161,1.607-1.014,3.072,4.874c.575.913.979,1.179,1.453.88.457-.287.582-.839.638-1.276l-3.487-5.533,1.607-1.014,3.071,4.874c.576.913.979,1.179,1.454.881.457-.288.599-.851.654-1.288l-3.488-5.533,1.607-1.014,4.715,7.48Z"/><path d="M228.367,266.31l-4.932,6.399-1.488-1.147,3.576-4.642-2.613-2.014-3.1,4.023-1.489-1.147,3.101-4.023-3.469-2.674,1.355-1.758,9.059,6.982Z"/><path d="M215.629,271.489c2.929,2.026,2.399,4.652,1.204,6.38-1.274,1.842-3.434,3.17-6.395,1.121-2.912-2.016-2.399-4.653-1.205-6.38,1.275-1.843,3.451-3.159,6.396-1.121ZM211.679,277.197c1.629,1.127,2.842.92,3.707-.33s.631-2.458-.998-3.585c-1.611-1.116-2.841-.921-3.706.329s-.614,2.47.997,3.586Z"/><path d="M205.942,280.881l-1.147,1.854,4.645,2.875,1.148-1.854,1.445.895-2.127,3.437-1.701-1.053c.634.839,1.209,2.23.293,3.71-.348.562-.8.988-1.197,1.213l-1.838-1.138c.453-.237.947-.731,1.252-1.225.737-1.191.584-2.274.322-2.954l-3.369-2.084-1.958,3.164-1.429-.885,4.232-6.839,1.429.884Z"/><path d="M206.045,294.454l-.78,1.42-1.104-.606c.346.533.836,1.51.229,2.614-.501.911-1.376,1.093-2.059.923.253.413.759,1.443.162,2.531-.665,1.209-1.968,1.132-3.511.285l-5.348-2.937.914-1.666,5.05,2.773c.946.52,1.429.556,1.698.065.26-.474.102-1.017-.062-1.426l-5.733-3.148.915-1.666,5.05,2.773c.946.52,1.428.556,1.697.065.261-.474.112-1.034-.051-1.443l-5.733-3.148.915-1.666,7.749,4.256Z"/><path d="M194.529,303.028l-.916,1.891c-.881-.338-1.658.353-2.242,1.559-.531,1.099-.788,2.041-.05,2.398.792.383,1.502-.763,2.565-2.226,1.02-1.418,2.193-2.694,3.867-1.884,1.639.793,1.521,2.825.572,4.788-.949,1.962-2.282,3.384-4.351,2.561l.915-1.891c.926.293,1.549-.538,1.95-1.367.532-1.098.612-1.814.071-2.076-.72-.349-1.308.545-2.529,2.287-.947,1.363-2.184,2.677-3.822,1.884-1.926-.933-1.694-3.064-.613-5.297,1.027-2.125,2.593-3.522,4.582-2.627Z"/><path d="M179.423,390.535l-.137,1.434-16.289-1.56.137-1.434,16.289,1.56Z"/><path d="M183.484,470.538l2.041,7.816-1.819.475-1.479-5.669-3.193.834,1.283,4.914-1.818.475-1.283-4.914-4.236,1.105-.562-2.147,11.067-2.889Z"/><path d="M179.785,483.787c3.393-1.078,5.146.945,5.783,2.946.679,2.135.409,4.654-3.021,5.744-3.373,1.072-5.147-.944-5.783-2.945-.679-2.135-.391-4.66,3.021-5.745ZM181.886,490.4c1.887-.6,2.465-1.686,2.004-3.134-.46-1.448-1.559-2.002-3.445-1.402-1.868.594-2.465,1.687-2.005,3.135s1.579,1.995,3.446,1.401Z"/><path d="M182.929,496.718l5.111-1.921.752,2.004-4.717,1.772c-1.349.507-1.973,1.062-1.516,2.278.338.899.883,1.271,1.41,1.479l6.047-2.271.753,2.003-8.275,3.109-.654-1.741,1.124-.422c-.691-.189-1.748-.669-2.275-2.073-.59-1.572-.438-3.211,2.24-4.217Z"/><path d="M192.482,506.297l.742,1.706-1.101.479c.7.153,1.778.578,2.378,1.954.67,1.54.6,3.185-2.023,4.326l-5.006,2.179-.854-1.963,4.622-2.011c1.32-.574,1.916-1.161,1.397-2.354-.384-.88-.947-1.224-1.483-1.404l-5.925,2.577-.854-1.962,8.107-3.527Z"/><path d="M193.238,518.88c2.918-1.455,4.93-.469,5.786,1.249.624,1.253.373,2.362.176,2.863l4.493-2.241.955,1.915-11.581,5.775-.83-1.664,1.038-.518c-.76-.135-1.851-.664-2.521-2.007-.874-1.754-.435-3.918,2.483-5.373ZM194.224,525.473l3.688-1.839c.17-.555.215-1.314-.187-2.12-.679-1.36-1.983-1.425-3.505-.666s-2.256,1.841-1.578,3.201c.402.805,1.037,1.227,1.582,1.424Z"/><path d="M248.513,584.19l5.881,5.542-1.289,1.368-4.266-4.02-2.263,2.402,3.697,3.483-1.29,1.369-3.697-3.484-3.004,3.188-1.615-1.522,7.846-8.327Z"/><path d="M252.38,597.369c2.306-2.711,4.865-1.925,6.465-.564,1.705,1.451,2.811,3.73.479,6.472-2.293,2.695-4.865,1.925-6.464.564-1.706-1.451-2.798-3.746-.479-6.472ZM257.664,601.864c1.282-1.508,1.198-2.734.04-3.719-1.157-.985-2.382-.872-3.664.636-1.27,1.492-1.198,2.734-.041,3.719,1.158.985,2.396.856,3.665-.636Z"/><path d="M260.751,607.932l1.729,1.325,3.32-4.332-1.729-1.325,1.033-1.35,3.205,2.457-1.216,1.587c.897-.547,2.338-.979,3.718.078.524.401.902.894,1.086,1.312l-1.312,1.714c-.191-.475-.633-1.015-1.094-1.367-1.111-.852-2.203-.807-2.904-.614l-2.408,3.143,2.951,2.262-1.021,1.333-6.379-4.889,1.021-1.333Z"/><path d="M274.287,609.197l1.334.918-.714,1.038c.565-.291,1.586-.682,2.624.033.857.589.949,1.479.712,2.141.437-.21,1.513-.61,2.534.093,1.137.782.93,2.071-.068,3.521l-3.457,5.026-1.566-1.077,3.266-4.746c.612-.89.697-1.365.235-1.683-.444-.307-1.001-.203-1.425-.082l-3.707,5.389-1.565-1.077,3.265-4.746c.613-.89.697-1.365.236-1.683-.445-.307-1.019-.215-1.441-.094l-3.707,5.389-1.566-1.077,5.012-7.283Z"/><path d="M281.666,621.515l1.788,1.101c-.424.843.184,1.687,1.324,2.389,1.039.64,1.95.989,2.381.291.461-.749-.607-1.57-1.955-2.776-1.307-1.156-2.459-2.452-1.483-4.036.954-1.55,2.964-1.229,4.819-.086,1.856,1.143,3.137,2.611,2.109,4.586l-1.789-1.101c.385-.892-.379-1.596-1.162-2.078-1.039-.64-1.744-.792-2.059-.281-.419.682.41,1.356,2.02,2.746,1.26,1.081,2.441,2.442,1.488,3.992-1.122,1.822-3.219,1.377-5.331.076-2.009-1.236-3.241-2.935-2.15-4.822Z"/><path d="M367.203,645.326l1.412.28-3.182,16.052-1.414-.28,3.184-16.052Z"/><path d="M421.525,591.389l2.205-.126-.387-6.743-2.204.126-.065-1.134,5.72-.328.065,1.135-2.189.125.387,6.743,2.188-.126.065,1.135-5.72.328-.065-1.135Z"/><path d="M431.035,584.879l1.049-.12.105.922c.278-.531.91-1.199,2.15-1.341,1.161-.133,2.397.258,2.66,2.564l.487,4.261-1.257.144-.455-3.99c-.148-1.305-.473-2.025-1.682-1.887-.938.107-1.411.613-1.617.926l.606,5.311-1.256.144-.792-6.932Z"/><path d="M440.228,580.461l1.246-.216,1.067,6.164,2.968-3.583,1.654-.286-2.6,3.08,3.948,3.765-1.528.265-3.18-3.167-1.041,1.203.453,2.617-1.246.216-1.742-10.057Z"/><path d="M462.236,575.469l1.104-.332,3.781,12.532-1.104.333-3.781-12.533Z"/><path d="M480.89,574.914c-1.165-2.651-.758-4.788,1.424-5.747,1.568-.689,3.15-.389,4.141,1.623l-1.172.516c-.658-1.18-1.391-1.574-2.461-1.104-1.859.817-1.303,2.723-.665,4.173.734,1.67,1.718,3.072,3.432,2.319.762-.335,1.146-.854,1.405-1.457l-.805-1.831-1.934.851-.445-1.011,3.105-1.365,1.958,4.453-.952.418-.399-.908c-.083.526-.532,1.493-1.748,2.027-2.241.985-3.924-.774-4.884-2.957Z"/><path d="M491.998,573.655l1.61-.822-2.198-4.304-1.61.822-.487-.955,2.551-1.303.721,1.411c-.063-.758.062-1.99,1.373-2.66.484-.247.991-.345,1.185-.354l.59,1.154c-.229.01-.693.121-1.149.354-1.083.554-1.397,1.415-1.485,2.053l1.638,3.206,2.693-1.375.487.955-5.43,2.772-.487-.955Z"/><path d="M500.347,568.457c-.817-1.395.209-2.459,1.369-3.139.58-.34,1.355-.663,1.864-.776l-.308-.524c-.541-.926-1.095-1.584-2.393-.824-.994.582-1.254,1.31-.77,2.138l-1.049.615c-1.012-1.727.152-3.001,1.367-3.713,1.588-.93,2.883-.65,3.806.924l1.601,2.734c.138.235.27.27.518.124.193-.113.432-.309.62-.493l.453.773c-.165.226-.492.585-.92.835-.718.421-1.141.112-1.375-.289l-.064-.11c-.075.601-.452,1.508-1.653,2.211-1.16.68-2.371.702-3.066-.485ZM504.583,566.255l-.551-.939c-.379.111-1,.382-1.607.737-.939.551-1.393,1.075-1.004,1.738.315.538.842.582,1.629.121.801-.469,1.277-1.081,1.533-1.657Z"/><path d="M506.622,558.659l.88-.585.496.746c.04-.604.334-1.491,1.307-2.138,1.238-.825,2.982-.774,4.445,1.423,1.41,2.118.875,3.8-.403,4.651-.879.585-1.771.544-2.196.424l1.985,2.984-1.053.7-5.461-8.206ZM512.683,558.815c-.851-1.279-1.928-1.83-3.074-1.068-.639.426-.941,1.012-1.049,1.544l2.093,3.144c.532.107,1.189.055,1.829-.371,1.145-.763,1.053-1.97.201-3.248Z"/><path d="M512.83,550.515l1.01-.759,2.394,3.184c.006-.444.13-1.238,1.089-1.959.946-.712,2.223-1.011,3.616.844l2.577,3.427-1.011.759-2.413-3.209c-.788-1.049-1.432-1.506-2.403-.775-.755.567-.907,1.243-.927,1.617l3.211,4.271-1.01.76-6.133-8.158Z"/><path d="M522.124,543.245l1.234-1.041,1.041,1.234-1.234,1.042-1.041-1.235ZM526.217,551.741l1.931-1.63-3.115-3.691-1.931,1.63-.69-.819,2.896-2.444,3.806,4.51,1.761-1.485.69.819-4.657,3.93-.69-.818Z"/><path d="M533.871,542.706l-2.112-2.229-1.661,1.573-.736-.778,1.66-1.573-2.223-2.346.918-.869,2.223,2.346,2.484-2.354.737.778-2.485,2.354,2.08,2.194c.979,1.033,1.562,1.208,2.445.371.511-.483.818-.974,1.021-1.387l.737.778c-.086.235-.431.849-1.139,1.52-1.22,1.155-2.321,1.34-3.95-.378Z"/><path d="M539.242,536.611c-2.026-1.909-1.449-3.805-.341-4.98,1.075-1.141,2.954-1.898,4.991.021l.187.176-3.796,4.028c1.15.995,2.249,1.042,3.247-.018.757-.804.913-1.668.382-2.388l.878-.932c1.153,1.482.397,3.078-.524,4.056-1.273,1.351-3.114,1.835-5.023.036ZM542.492,532.112c-1.029-.75-2.056-.617-2.846.221-.789.838-.861,1.87-.051,2.854l2.896-3.074Z"/><path d="M549.345,514.384l.684-.928,10.535,7.764-.684.928-10.535-7.764Z"/><path d="M563.966,502.796c-2.66-1.504-3.455-3.479-2.259-5.597.764-1.352,2.205-2.504,4.349-1.384l-.631,1.114c-1.219-.542-2.141-.181-2.73.864-1,1.77.416,2.938,1.949,3.804,1.449.818,3.194,1.438,4.194-.331.669-1.185.446-2.027-.662-2.765l.638-1.128c1.98,1.211,1.838,3.024,1.02,4.473-1.236,2.188-3.317,2.39-5.867.949Z"/><path d="M563.978,490.914l.558-1.135,3.575,1.759c-.195-.399-.443-1.163.086-2.24.523-1.062,1.526-1.906,3.608-.882l3.849,1.894-.559,1.134-3.604-1.772c-1.178-.58-1.959-.696-2.496.395-.416.848-.248,1.52-.095,1.861l4.796,2.36-.559,1.134-9.16-4.507Z"/><path d="M575.671,485.961c-1.488-.628-1.303-2.096-.78-3.334.261-.619.688-1.342,1.028-1.736l-.56-.237c-.987-.417-1.825-.614-2.41.771-.448,1.062-.222,1.8.663,2.173l-.474,1.12c-1.843-.777-1.673-2.495-1.125-3.792.716-1.695,1.921-2.246,3.602-1.536l2.919,1.232c.25.106.376.055.488-.21.087-.207.161-.506.201-.767l.826.349c.004.279-.045.764-.238,1.22-.323.767-.846.771-1.273.591l-.118-.05c.299.526.54,1.479-.003,2.761-.522,1.238-1.479,1.981-2.746,1.445ZM577.747,481.662l-1.002-.423c-.238.316-.573.904-.848,1.553-.423,1.002-.472,1.693.236,1.992.574.243,1.022-.037,1.377-.877.361-.854.376-1.63.236-2.245Z"/><path d="M580.337,476.503l.811-2.276-7.613-2.712-.811,2.276-.995-.354,1.235-3.468,8.607,3.067.812-2.276,1.011.359-2.047,5.744-1.01-.36Z"/><path d="M574.919,464.124l.354-1.214,6.008,1.754-1.913-4.244.471-1.613,1.624,3.692,5.121-1.89-.436,1.49-4.245,1.462.623,1.466,2.551.744-.355,1.214-9.803-2.861Z"/><path d="M580.124,442.156l.187-1.137,12.919,2.121-.188,1.138-12.918-2.122Z"/><path d="M583.353,424.274l.11-2.638c.094-2.239,1.068-3.704,3.003-3.623,1.936.081,2.784,1.606,2.689,3.861l-.055,1.312,3.326.14-.056,1.327-9.019-.379ZM587.966,423.138l.055-1.327c.071-1.695-.588-2.379-1.611-2.422-1.008-.043-1.739.583-1.811,2.278l-.056,1.327,3.423.144Z"/><path d="M590.886,415.013c-1.615.026-2.038-1.391-2.061-2.733-.01-.672.088-1.506.24-2.004l-.607.01c-1.072.018-1.917.176-1.893,1.679.019,1.151.523,1.734,1.483,1.72l.02,1.215c-1.999.032-2.537-1.606-2.56-3.014-.03-1.839.85-2.829,2.672-2.858l3.166-.052c.272-.004.367-.102.362-.39-.003-.224-.057-.526-.124-.781l.895-.015c.116.254.268.715.275,1.211.014.832-.463,1.047-.926,1.055l-.129.002c.486.36,1.091,1.134,1.113,2.525.021,1.344-.553,2.408-1.928,2.431ZM591.048,410.244l-1.088.018c-.089.386-.158,1.059-.146,1.763.018,1.087.252,1.739,1.02,1.727.623-.01.92-.447.906-1.358-.016-.928-.314-1.643-.691-2.148Z"/><path d="M590.231,404.73l-.084-1.182c.843-.107,1.239-.857,1.135-2.325-.069-.974-.333-1.757-1.083-1.704-.846.06-.9,1.106-1.113,2.629-.18,1.312-.494,2.537-1.818,2.631-1.389.099-2.057-1.186-2.175-2.846-.112-1.596.335-2.975,1.985-3.22l.084,1.181c-.961.244-1.057,1.166-.996,2.012.076,1.085.373,1.657.932,1.618.83-.059.855-1.296,1.033-2.64.189-1.393.527-2.523,1.867-2.618,1.533-.108,2.238,1.253,2.361,2.993.133,1.883-.441,3.287-2.128,3.471Z"/><path d="M588.571,392.969l-3.047.39.29,2.27-1.062.136-.291-2.269-3.205.409-.16-1.253,3.205-.41-.435-3.396,1.063-.136.434,3.396,3-.384c1.412-.181,1.897-.549,1.743-1.755-.089-.698-.304-1.236-.517-1.644l1.062-.137c.141.208.432.849.556,1.816.213,1.666-.288,2.666-2.637,2.966Z"/><path d="M586.808,385.024c-2.736.512-3.93-1.072-4.227-2.661-.289-1.542.207-3.507,2.959-4.022l.252-.047,1.02,5.443c1.482-.343,2.168-1.204,1.9-2.636-.203-1.085-.811-1.721-1.705-1.716l-.236-1.259c1.878-.059,2.723,1.493,2.97,2.814.341,1.825-.353,3.6-2.933,4.083ZM585.087,379.745c-1.213.39-1.711,1.297-1.499,2.43s1.005,1.799,2.276,1.724l-.777-4.153Z"/><path d="M587.114,374.259l-.581-2.346-7.844,1.942.58,2.346-1.025.253-.884-3.572,8.87-2.195-.581-2.346,1.04-.258,1.466,5.918-1.041.258Z"/><path d="M571.644,354.666l-.412-1.077,12.232-4.668.411,1.077-12.231,4.668Z"/><path d="M565.445,337.604l-1.233-2.334c-1.047-1.98-.943-3.736.769-4.641,1.711-.904,3.213-.016,4.268,1.979l.612,1.16,2.942-1.555.621,1.174-7.979,4.217ZM568.856,334.3l-.62-1.174c-.793-1.5-1.708-1.758-2.613-1.279-.891.471-1.207,1.38-.414,2.879l.62,1.174,3.027-1.6Z"/><path d="M567.255,325.787c-1.383.836-2.462-.177-3.156-1.328-.348-.575-.682-1.346-.801-1.854l-.521.314c-.918.554-1.569,1.115-.792,2.403.595.987,1.326,1.237,2.148.741l.628,1.041c-1.713,1.034-3.002-.112-3.73-1.318-.951-1.576-.688-2.875.874-3.817l2.713-1.638c.233-.141.266-.272.116-.519-.115-.192-.313-.428-.5-.614l.767-.463c.229.161.591.484.848.909.431.713.127,1.139-.271,1.379l-.109.065c.602.067,1.514.433,2.232,1.625.695,1.151.734,2.361-.445,3.072ZM564.997,321.58l-.932.562c.115.378.395.995.758,1.598.562.932,1.094,1.378,1.752.981.534-.323.571-.85.1-1.631-.479-.795-1.099-1.263-1.678-1.511Z"/><path d="M553.468,319.673l-.914-1.333,1.334-.914.914,1.333-1.334.914ZM562.335,316.446l-1.43-2.085-3.986,2.732,1.43,2.085-.885.606-2.145-3.128,4.871-3.339-1.303-1.9.884-.606,3.448,5.028-.885.606Z"/><path d="M551.701,311.582l-.645-.836.734-.567c-.598.037-1.497-.158-2.26-1.146-.715-.924-1.02-2.185.816-3.603l3.395-2.621.772,1-3.179,2.455c-1.039.803-1.487,1.452-.744,2.415.577.747,1.254.891,1.629.904l4.23-3.267.772,1.001-5.522,4.265Z"/><path d="M547.794,300.078l-2.32,2.013,1.498,1.729-.809.702-1.5-1.729-2.441,2.118-.828-.955,2.441-2.117-2.243-2.586.81-.703,2.244,2.587,2.283-1.981c1.076-.934,1.275-1.509.479-2.427-.461-.532-.937-.86-1.34-1.082l.809-.702c.232.096.829.467,1.469,1.204,1.101,1.269,1.237,2.379-.551,3.93Z"/><path d="M527.493,289.7l-.854-.773,8.787-9.698.854.773-8.787,9.698Z"/><path d="M518.984,270.914l-1.973-1.396-4.67,6.596,1.973,1.396-.61.862-3.004-2.127,5.28-7.458-1.973-1.396.619-.875,4.977,3.522-.619.876Z"/><path d="M503.765,271.627l-1.37-.857.856-1.37,1.371.857-.857,1.37ZM510.603,265.128l-2.143-1.341-2.562,4.097,2.144,1.341-.568.909-3.216-2.011,3.131-5.006-1.953-1.222.568-.909,5.168,3.232-.568.909Z"/><path d="M502.912,258.542l-1.081-.592c.463-.879.252-1.56-.856-2.167-1.461-.8-2.037-.148-2.521.736l-.445.813c.42-.134,1.262-.238,2.189.269,1.375.754,2.053,2.349.846,4.552-1.223,2.232-2.974,2.496-4.307,1.766-.997-.546-1.4-1.442-1.473-2.011l-.43.786-.927-.508,3.483-6.359c.854-1.558,2.074-2.021,4.068-.929,1.432.784,2.393,1.896,1.453,3.644ZM497.553,258.162l-1.769,3.229c.172.587.546,1.103,1.164,1.44,1.207.661,2.24.041,2.963-1.278s.689-2.524-.518-3.186c-.618-.339-1.254-.377-1.841-.205Z"/><path d="M488.834,263.22l-1.142-.543,1.709-3.598c-.396.201-1.156.459-2.24-.056-1.069-.508-1.927-1.5-.932-3.595l1.841-3.873,1.142.543-1.724,3.627c-.563,1.185-.669,1.967.429,2.488.854.405,1.522.228,1.863.07l2.293-4.826,1.142.542-4.381,9.22Z"/><path d="M481.529,251.816l-1.156,2.848,2.121.862-.404.993-2.121-.861-1.217,2.996-1.172-.477,1.217-2.996-3.174-1.29.404-.993,3.174,1.29,1.139-2.804c.537-1.32.454-1.924-.674-2.382-.652-.266-1.226-.343-1.686-.357l.403-.993c.249-.02.951.041,1.856.408,1.557.633,2.182,1.561,1.289,3.756Z"/><path d="M458.763,251.781l-1.111-.301,3.42-12.632,1.111.301-3.42,12.632Z"/><path d="M442.722,240.468l-1.282-.185c.085-1.038-.515-1.706-1.829-1.895-1.204-.173-2.064.188-2.193,1.091-.101.697.313,1.08,1.08,1.48l1.818.957c1.023.534,1.828,1.345,1.642,2.644-.228,1.584-1.726,2.226-3.483,1.974-1.807-.26-2.933-1.311-2.685-3.149l1.267.182c-.118,1.276.726,1.704,1.613,1.832,1.156.166,1.849-.269,1.953-.997.086-.602-.271-1.041-.963-1.399l-1.818-.956c-1.369-.714-1.945-1.427-1.771-2.646.261-1.821,1.849-2.401,3.701-2.136,2.027.291,3.208,1.414,2.95,3.204Z"/><path d="M430.781,239.201l-.264,3.062,2.279.196-.092,1.068-2.279-.196-.277,3.221-1.26-.108.277-3.221-3.412-.294.092-1.068,3.412.294.26-3.014c.121-1.42-.136-1.972-1.348-2.076-.701-.061-1.271.035-1.717.157l.092-1.068c.233-.092.921-.242,1.894-.158,1.675.145,2.546.846,2.343,3.206Z"/><path d="M422.386,236.831l-1.808-.052-.138,4.829,1.807.052-.031,1.071-2.862-.082.046-1.583c-.309.695-1.01,1.716-2.48,1.674-.544-.016-1.035-.174-1.209-.259l.037-1.296c.205.103.665.228,1.177.242,1.216.034,1.905-.569,2.288-1.087l.104-3.598-3.023-.087.031-1.071,6.093.174-.03,1.072Z"/><path d="M412.194,236.652l-2.526.07.133,4.829,2.527-.07.029,1.071-3.789.105-.164-5.901-2.303.064-.029-1.072,6.093-.168.029,1.071ZM410.095,245.848l-1.614.044-.045-1.614,1.615-.045.044,1.615Z"/><path d="M402.331,242.948l-1.052.089-.078-.925c-.293.522-.945,1.171-2.188,1.275-1.164.099-2.389-.328-2.584-2.641l-.359-4.273,1.26-.105.337,4.002c.11,1.308.413,2.037,1.624,1.935.941-.079,1.43-.569,1.645-.877l-.448-5.326,1.26-.105.585,6.952Z"/><path d="M391.933,236.383l-1.219.174c-.156-.979-.733-1.398-1.984-1.22-1.647.234-1.718,1.102-1.575,2.099l.131.919c.256-.359.866-.948,1.912-1.097,1.552-.222,3.05.647,3.404,3.135.358,2.518-.884,3.778-2.388,3.992-1.125.16-1.984-.314-2.383-.727l.127.887-1.046.149-1.022-7.175c-.251-1.759.448-2.86,2.697-3.181,1.615-.23,3.051.082,3.346,2.044ZM387.419,239.289l.519,3.643c.489.367,1.098.555,1.794.455,1.362-.194,1.817-1.31,1.605-2.798-.213-1.489-.961-2.433-2.323-2.238-.696.1-1.229.45-1.595.938Z"/><path d="M370.846,251.419l-1.113.299-3.395-12.644,1.112-.299,3.396,12.644Z"/><path d="M350.789,255.621l2.817-1.14.426,1.053-6.896,2.789-.426-1.054,2.848-1.151-2.956-7.312,1.23-.498,2.957,7.312Z"/><path d="M341.664,252.861c.691,1.461-.425,2.433-1.641,3.008-.607.288-1.407.543-1.924.61l.26.55c.459.97.953,1.675,2.312,1.03,1.041-.493,1.364-1.195.953-2.062l1.1-.521c.856,1.809-.414,2.978-1.688,3.58-1.664.788-2.93.396-3.711-1.253l-1.355-2.864c-.117-.246-.245-.292-.506-.169-.202.097-.456.27-.66.438l-.384-.811c.184-.211.542-.539.989-.752.752-.356,1.146-.012,1.345.408l.056.116c.127-.592.582-1.463,1.84-2.059,1.215-.576,2.424-.493,3.014.751ZM337.249,254.686l.466.983c.388-.078,1.03-.293,1.667-.595.983-.466,1.48-.949,1.151-1.644-.267-.564-.788-.654-1.612-.264-.839.397-1.367.966-1.672,1.519Z"/><path d="M334.539,262.078l-.926.506-.43-.786c-.092.598-.463,1.455-1.487,2.015-1.306.712-3.038.51-4.302-1.807-1.217-2.232-.539-3.859.809-4.595.927-.506,1.812-.388,2.225-.23l-1.716-3.145,1.109-.605,4.718,8.647ZM328.517,261.392c.736,1.348,1.761,1.991,2.968,1.332.674-.367,1.026-.924,1.179-1.444l-1.807-3.313c-.521-.153-1.18-.158-1.854.21-1.207.658-1.221,1.868-.486,3.216Z"/><path d="M324.572,263.637c1.471,2.363.428,4.049-.943,4.902-1.331.828-3.341,1.081-4.82-1.296l-.135-.217,4.698-2.925c-.857-1.257-1.907-1.582-3.144-.813-.938.584-1.309,1.38-.979,2.211l-1.087.677c-.736-1.728.402-3.077,1.543-3.787,1.575-.98,3.479-.979,4.866,1.248ZM320.281,267.157c.803.988,1.828,1.122,2.807.514.978-.608,1.311-1.588.777-2.745l-3.584,2.231Z"/><path d="M309.147,282.539l-.897.722-8.201-10.198.898-.722,8.2,10.198Z"/><path d="M292.066,290.039c2.072,2.022,2.494,4.154.83,5.859-1.195,1.225-2.775,1.538-4.444.043l.894-.916c1.051.847,1.877.938,2.692.104,1.419-1.454.19-3.011-.943-4.116-1.304-1.273-2.741-2.206-4.048-.867-.58.596-.742,1.219-.757,1.875l1.431,1.396,1.475-1.511.789.771-2.368,2.427-3.479-3.396.727-.744.709.692c-.119-.519-.064-1.582.863-2.532,1.709-1.751,3.926-.749,5.631.915Z"/><path d="M282.223,295.371l-1.585,1.822,6.096,5.302,1.584-1.822.797.692-2.414,2.776-6.893-5.995-1.584,1.823-.81-.704,4-4.598.809.703Z"/><path d="M276.784,304.273l3.39,2.625-.773.999-3.176-2.459c-1.037-.803-1.778-1.073-2.522-.112-.578.746-.548,1.438-.467,1.804l4.226,3.272-.774.999-5.515-4.271.646-.835.733.568c-.187-.569-.224-1.489.54-2.476.716-.923,1.857-1.536,3.692-.115Z"/><path d="M271.664,312.309c2.294,1.577,2.013,3.539,1.097,4.87-.888,1.292-2.629,2.328-4.936.742l-.211-.146,3.136-4.562c-1.288-.808-2.382-.687-3.207.514-.625.909-.646,1.788-.013,2.418l-.725,1.055c-1.366-1.288-.863-2.98-.102-4.088,1.052-1.529,2.798-2.29,4.96-.804ZM269.14,317.253c1.132.584,2.125.296,2.777-.653.653-.949.566-1.979-.385-2.827l-2.393,3.48Z"/><path d="M265.093,335.795l-.533,1.021-11.595-6.054.532-1.021,11.596,6.054Z"/><path d="M250.597,349.004l-.456,1.212c-.995-.306-1.776.135-2.243,1.377-.428,1.138-.261,2.056.592,2.376.659.248,1.122-.073,1.679-.735l1.325-1.569c.742-.883,1.706-1.494,2.934-1.032,1.497.563,1.801,2.164,1.176,3.825-.643,1.707-1.91,2.58-3.652,1.941l.451-1.197c1.219.391,1.819-.341,2.135-1.179.41-1.093.137-1.862-.553-2.122-.568-.214-1.074.04-1.572.639l-1.325,1.569c-.991,1.182-1.812,1.591-2.964,1.157-1.722-.647-1.947-2.321-1.287-4.072.721-1.916,2.07-2.826,3.762-2.189Z"/><path d="M247.992,358.738c2.766.862,2.912,2.919,2.445,4.415-.4,1.283-1.41,2.694-3.434,2.198l.377-1.207c1.152.226,1.703-.357,1.993-1.289.424-1.359-.087-2.356-1.767-2.88-1.695-.528-2.667.007-3.09,1.366-.291.932-.17,1.724.908,2.193l-.377,1.207c-1.932-.736-1.962-2.522-1.576-3.76.49-1.573,1.786-3.097,4.52-2.244Z"/><path d="M242.66,368.126l-.611,2.452,4.686,1.17.613-2.452,1.039.26-.918,3.678-5.727-1.43-.559,2.234-1.039-.26,1.477-5.912,1.039.26ZM250.952,372.62l-.392,1.567-1.567-.392.392-1.567,1.567.392Z"/><path d="M241.468,378.044l-.219,1.163c-.842-.109-1.416.515-1.688,1.961-.182.959-.125,1.783.614,1.922.833.157,1.151-.841,1.743-2.259.508-1.223,1.122-2.327,2.427-2.082,1.367.258,1.688,1.669,1.38,3.304-.297,1.571-1.08,2.791-2.738,2.608l.22-1.163c.991.008,1.317-.858,1.474-1.691.201-1.068.06-1.697-.49-1.801-.817-.154-1.155,1.035-1.668,2.289-.537,1.299-1.15,2.307-2.471,2.058-1.509-.284-1.846-1.779-1.523-3.493.35-1.854,1.262-3.065,2.939-2.815Z"/><path d="M239.697,388.001l-.152,1.174c-.848-.062-1.385.595-1.574,2.055-.125.968-.022,1.788.724,1.886.841.108,1.103-.906,1.612-2.356.438-1.251.988-2.39,2.306-2.219,1.38.18,1.78,1.571,1.566,3.222-.206,1.587-.919,2.85-2.585,2.762l.152-1.174c.99-.049,1.267-.933,1.376-1.774.14-1.079-.038-1.699-.593-1.771-.826-.107-1.096,1.1-1.536,2.382-.463,1.328-1.018,2.369-2.351,2.196-1.523-.197-1.945-1.673-1.721-3.402.243-1.872,1.085-3.135,2.775-2.979Z"/><path d="M239.772,397.968c2.841.203,3.524,2.081,3.41,3.677-.114,1.597-1.054,3.294-3.848,3.094-2.856-.205-3.539-2.099-3.426-3.679.115-1.612,1.086-3.291,3.863-3.092ZM239.393,403.474c1.756.126,2.64-.564,2.737-1.938.1-1.372-.678-2.182-2.434-2.308-1.738-.125-2.639.564-2.737,1.938-.099,1.372.694,2.184,2.434,2.308Z"/><path d="M236.738,408.324l-.029,1.807,4.829.079.029-1.808,1.071.018-.047,2.862-1.582-.025c.699.299,1.727.987,1.703,2.459-.009.544-.16,1.037-.244,1.212l-1.295-.021c.1-.206.219-.668.228-1.18.02-1.216-.593-1.897-1.114-2.273l-3.599-.059-.05,3.022-1.07-.018.099-6.093,1.071.018Z"/><path d="M237.823,418.259l.049,1.184c-.846.083-1.265.82-1.204,2.292.041.976.281,1.767,1.033,1.735.848-.035.933-1.079,1.19-2.596.219-1.307.569-2.522,1.896-2.577,1.392-.057,2.021,1.247,2.09,2.91.065,1.599-.423,2.965-2.081,3.161l-.049-1.184c.969-.216,1.092-1.134,1.057-1.981-.045-1.088-.324-1.669-.885-1.646-.832.034-.893,1.27-1.11,2.608-.231,1.387-.602,2.507-1.944,2.562-1.535.062-2.201-1.319-2.273-3.062-.076-1.887.539-3.273,2.231-3.407Z"/><path d="M247.902,440.799l.185,1.137-12.919,2.097-.184-1.137,12.918-2.097Z"/><path d="M250.536,458.765l.371,1.274-4.071,1.186,5.117,2.41.447,1.537-4.582-2.233-3.994,5.062-.465-1.599,3.326-4.034-1.418-.688-3.026.881-.371-1.275,8.666-2.521Z"/><path d="M251.427,468.761l.352.995-.874.31c.579.151,1.372.617,1.789,1.793.39,1.101.287,2.393-1.898,3.167l-4.04,1.431-.422-1.19,3.783-1.341c1.236-.438,1.865-.915,1.459-2.061-.314-.89-.913-1.237-1.265-1.368l-5.036,1.784-.422-1.191,6.574-2.328Z"/><path d="M249.306,480.088l.98,2.331,4.457-1.875-.981-2.332.988-.416,1.472,3.497-5.444,2.292.895,2.125-.989.416-2.365-5.622.988-.416ZM258.644,478.711l.627,1.49-1.49.627-.627-1.49,1.49-.627Z"/><path d="M253.367,489.434l.875,1.781,4.336-2.129-.875-1.781.963-.472.874,1.78.028-.015c1.953-.958,3.648-.009,4.742,2.217l-.963.473c-.627-1.278-1.643-2.33-3.223-1.555l-.028.014,1.241,2.527-.963.473-1.24-2.527-4.336,2.129,1.24,2.527-.962.473-2.671-5.442.961-.473Z"/><path d="M259.874,497.044c2.424-1.367,4.062-.253,4.856,1.154.771,1.365.936,3.384-1.503,4.759l-.223.126-2.719-4.82c-1.292.802-1.663,1.838-.947,3.105.541.961,1.321,1.366,2.166,1.073l.629,1.114c-1.758.661-3.057-.534-3.717-1.705-.912-1.615-.828-3.518,1.457-4.807ZM263.205,501.482c1.022-.76,1.201-1.778.635-2.781s-1.529-1.378-2.709-.896l2.074,3.678Z"/><path d="M278.091,513.279l.683.929-10.548,7.751-.682-.929,10.547-7.751Z"/><path d="M288.599,528.073l4.076,4.337-.828.777-3.166-3.369-2.191,2.06,2.771,2.95-.828.777-2.771-2.949-2.728,2.563-.909-.968,6.574-6.179Z"/><path d="M291.124,538.734c1.961-2.064,3.844-1.399,5.004-.298s1.873,2.904-.055,4.934c-1.972,2.076-3.867,1.4-5.016.311-1.171-1.113-1.852-2.929.066-4.946ZM295.136,542.523c1.211-1.275,1.239-2.396.242-3.344-.998-.947-2.115-.862-3.327.413-1.2,1.265-1.239,2.396-.242,3.344.997.948,2.126.851,3.327-.413Z"/><path d="M297.189,547.643l1.844,1.562,5.224-6.164-1.843-1.562.683-.806,2.808,2.38-5.907,6.97,1.843,1.562-.693.818-4.65-3.942.693-.817Z"/><path d="M306.214,551.994c1.53-2.033,3.295-2.087,4.521-1.163.845.636,1.102,1.491,1.131,1.933l2.367-3.146,1.011.761-6.143,8.158-.845-.636.54-.716c-.583.162-1.519.18-2.452-.523-1.188-.896-1.72-2.558-.131-4.668ZM309.054,556.498l2.272-3.019c-.075-.537-.343-1.14-.957-1.603-1.1-.827-2.208-.34-3.133.888s-1.087,2.428.013,3.256c.614.462,1.268.553,1.805.478Z"/><path d="M313.235,560.163l2.103,1.403,2.682-4.019-2.102-1.402.594-.892,3.154,2.104-3.277,4.91,1.916,1.278-.595.892-5.069-3.384.595-.892ZM320.261,553.871l1.344.897-.896,1.344-1.344-.897.896-1.344Z"/><path d="M324.936,560.731l.911.534-.471.801c.541-.258,1.447-.412,2.523.221,1.008.591,1.761,1.646.586,3.646l-2.172,3.697-1.09-.641,2.034-3.462c.664-1.131.839-1.901-.21-2.517-.814-.479-1.496-.359-1.849-.232l-2.706,4.607-1.09-.641,3.532-6.014Z"/><path d="M329.651,572.094l1.097.562c-.438.89-.209,1.564.916,2.141,1.48.759,2.037.092,2.497-.806l.423-.825c-.416.146-1.254.273-2.193-.208-1.396-.715-2.117-2.288-.973-4.523,1.16-2.264,2.902-2.575,4.254-1.883,1.012.518,1.439,1.402,1.526,1.968l.408-.797.939.481-3.304,6.449c-.81,1.58-2.017,2.076-4.038,1.041-1.452-.744-2.442-1.827-1.553-3.6ZM335.014,572.326l1.677-3.274c-.188-.581-.575-1.086-1.201-1.407-1.225-.627-2.24.021-2.926,1.359s-.619,2.541.605,3.168c.627.321,1.264.342,1.845.154Z"/><path d="M352.992,572.3l2.627.966c1.802.663,2.723,2.008,2.191,3.449-.32.87-.969,1.245-1.842,1.3.647.511,1.223,1.404.809,2.53-.542,1.472-2.201,1.951-4.004,1.289l-2.897-1.066,3.116-8.468ZM351.514,580.16l1.606.591c1.366.503,2.1.039,2.375-.711.311-.841-.113-1.543-1.42-2.023l-1.562-.574-1,2.718ZM352.906,576.376l1.231.453c1.276.47,2.03.321,2.345-.535.281-.766.006-1.498-1.346-1.995l-1.291-.475-.939,2.552Z"/><path d="M360.046,580.702c.826-2.728,2.809-2.979,4.341-2.516s2.98,1.755,2.169,4.437c-.83,2.742-2.828,2.99-4.346,2.53-1.547-.468-2.971-1.786-2.164-4.451ZM365.336,582.287c.511-1.686.032-2.7-1.286-3.099-1.317-.399-2.278.18-2.789,1.864-.506,1.67-.031,2.7,1.286,3.099,1.317.399,2.284-.194,2.789-1.864Z"/><path d="M371.029,580.247l1.025.248-.218.901c.443-.403,1.267-.813,2.479-.521,1.135.274,2.161,1.065,1.617,3.319l-1.006,4.167-1.229-.296.941-3.904c.309-1.274.252-2.062-.93-2.347-.918-.222-1.536.09-1.837.313l-1.253,5.194-1.229-.297,1.637-6.78Z"/><path d="M379.463,585.784c.494-2.741,2.397-3.292,3.988-3.005,1.544.278,3.204,1.439,2.707,4.196l-.046.252-5.447-.982c-.207,1.508.354,2.454,1.787,2.712,1.086.196,1.896-.146,2.209-.983l1.26.228c-.612,1.775-2.362,2.013-3.686,1.774-1.826-.329-3.238-1.608-2.772-4.19ZM385.008,586.052c.067-1.273-.604-2.061-1.738-2.265s-2.037.3-2.419,1.515l4.157.75Z"/><path d="M403.574,582.12l1.15.067-.762,13.069-1.15-.067.762-13.069Z"/><path d="M435.23,520.476l2.961-.688-1.613-6.938c-.355.679-1.097,1.2-2.305,1.481l-.448.104-.448-1.93.877-.204c1.227-.285,2.039-.946,2.27-1.985l1.617-.377,2.175,9.354,2.514-.585.417,1.793-7.6,1.768-.416-1.793Z"/><path d="M444.224,511.046l1.522-.553.431,1.184c.091-.629.366-1.687,1.551-2.117.977-.355,1.755.086,2.156.663.082-.477.381-1.586,1.547-2.01,1.297-.472,2.227.446,2.828,2.101l2.085,5.733-1.786.649-1.969-5.414c-.369-1.016-.707-1.36-1.233-1.169-.508.185-.747.697-.894,1.112l2.234,6.147-1.785.649-1.969-5.414c-.369-1.016-.708-1.36-1.234-1.169-.508.185-.766.704-.912,1.119l2.235,6.147-1.786.649-3.021-8.31Z"/><path d="M459.537,512.78l2.748-1.394-2.471-4.869-2.747,1.394-.769-1.517,4.654-2.361,3.24,6.386,2.516-1.275.76,1.498-7.171,3.638-.761-1.499ZM456.994,501.444l2.336-1.186,1.096,2.158-2.337,1.186-1.095-2.158Z"/><path d="M467.099,500.626l1.547-1.032.667.997c.027-.715.253-1.853,1.501-2.686,1.396-.934,3.027-1.156,4.616,1.222l3.032,4.541-1.779,1.188-2.799-4.191c-.801-1.197-1.482-1.68-2.564-.957-.798.533-1.036,1.148-1.119,1.709l3.588,5.372-1.779,1.188-4.91-7.352Z"/><path d="M497.437,464.352l.735-1.238,14.067,8.363-.736,1.237-14.066-8.362Z"/><path d="M522.789,427.509c-1.992-.173-3.107-1.213-3.953-2.812l-.846-1.6c-.568-1.073-1.148-2.026-2.125-2.111-.997-.086-1.68.618-1.782,1.794-.106,1.235.411,2.203,1.978,2.439l-.188,2.172c-2.641-.349-3.777-2.294-3.557-4.845.203-2.352,1.549-3.981,3.682-3.798,1.614.14,2.432,1.135,3.337,2.738l.938,1.688c.536.99.998,1.692,1.666,1.851l.521-6.018,1.833.158-.728,8.41-.777-.067Z"/><path d="M515.573,415.691l-.05-1.619,1.259-.039c-.569-.282-1.488-.874-1.527-2.134-.032-1.039.629-1.64,1.303-1.841-.427-.228-1.388-.857-1.427-2.097-.043-1.379,1.119-1.976,2.879-2.031l6.096-.19.06,1.898-5.757.181c-1.079.034-1.513.247-1.495.807.017.54.429.928.778,1.196l6.535-.204.061,1.898-5.758.181c-1.079.033-1.513.247-1.495.807.017.54.431.947.778,1.217l6.537-.205.059,1.899-8.835.276Z"/><path d="M510.442,400.563l-.392-2.591,2.393-.361.393,2.59-2.394.362ZM522.003,401.706l-.461-3.045-5.398.816.461,3.046-1.682.254-.78-5.161,7.079-1.071-.422-2.788,1.662-.251,1.202,7.949-1.661.251Z"/><path d="M512.833,390.717l-.497-1.792,1.156-.32c-.671-.25-1.681-.821-2.081-2.267-.448-1.619-.149-3.237,2.606-4.001l5.261-1.458.572,2.062-4.857,1.346c-1.387.385-2.059.882-1.711,2.135.256.925.766,1.344,1.272,1.598l6.225-1.725.571,2.062-8.518,2.36Z"/><path d="M487.787,350.606l-.949-1.083,12.307-10.785.949,1.084-12.307,10.784Z"/><path d="M460.208,317.902l-2.004-.857c.381-1.143.06-2.173-1.412-2.803-1.268-.543-2.312-.338-2.738.655-.449,1.048.231,1.948,1.519,2.5l.515.221-.692,1.617-.497-.212c-1.231-.527-2.148-.42-2.558.536-.386.901.043,1.781,1.165,2.261,1.066.457,2.188.328,2.869-1.012l2.023.866c-1.127,2.324-3.388,2.728-5.686,1.743-2.391-1.023-3.227-2.883-2.479-4.63.441-1.029,1.258-1.615,2.547-1.629-.998-.972-1.203-2.169-.715-3.31.818-1.912,3.027-2.293,5.381-1.285,2.537,1.086,3.623,3.074,2.762,5.338Z"/><path d="M447.234,318.186l-1.555-.453.353-1.209c-.444.453-1.292,1.144-2.501.79-.998-.291-1.365-1.105-1.348-1.809-.348.336-1.244,1.053-2.434.706-1.325-.387-1.532-1.676-1.039-3.365l1.708-5.854,1.823.532-1.613,5.528c-.302,1.036-.232,1.515.305,1.672.518.15,1.014-.121,1.378-.369l1.831-6.277,1.824.532-1.613,5.528c-.303,1.037-.234,1.515.304,1.672.519.151,1.034-.115,1.397-.363l1.831-6.276,1.823.531-2.475,8.484Z"/><path d="M435.914,307.732l-3.039-.503-.891,5.387,3.038.502-.277,1.678-5.149-.853,1.169-7.063-2.782-.46.274-1.657,7.932,1.312-.274,1.657ZM431.253,318.372l-2.584-.428.395-2.387,2.585.428-.396,2.387Z"/><path d="M422.609,313.052l-1.857-.084.055-1.198c-.445.56-1.302,1.342-2.8,1.274-1.678-.075-3.124-.861-2.995-3.718l.246-5.452,2.137.096-.227,5.033c-.064,1.438.2,2.231,1.498,2.289.959.044,1.516-.312,1.914-.714l.291-6.451,2.137.096-.398,8.829Z"/><path d="M376.693,324.322l-1.324.564-6.416-15.053,1.324-.565,6.416,15.054Z"/><path d="M332.816,343.824l3.894-4.434,1.037.91,1.505,9.441-1.254,1.428-5.23-4.593-1.254,1.428-1.337-1.175,1.254-1.428-2.029-1.782,1.386-1.578,2.029,1.782ZM334.154,344.999l3.006,2.64-.814-5.135-2.191,2.495Z"/><path d="M333.277,352.811l-.917,1.335-1.038-.713c.291.563.682,1.584-.031,2.622-.588.857-1.477.95-2.139.714.209.436.61,1.512-.092,2.533-.781,1.137-2.07.931-3.521-.066l-5.026-3.453,1.076-1.565,4.746,3.261c.89.611,1.365.695,1.682.234.307-.445.203-1.001.082-1.424l-5.389-3.703,1.075-1.565,4.746,3.261c.89.611,1.365.696,1.683.234.306-.444.214-1.018.092-1.44l-5.389-3.702,1.076-1.565,7.283,5.004Z"/><path d="M319.812,360.288l-1.429,2.729,4.836,2.532,1.429-2.729,1.506.789-2.422,4.624-6.342-3.321-1.308,2.497-1.488-.779,3.729-7.121,1.488.779ZM328.458,368.045l-1.215,2.32-2.144-1.123,1.216-2.32,2.143,1.123Z"/><path d="M320.714,374.565l-.66,1.739-1.123-.425c.395.599.87,1.656.338,3.06-.596,1.571-1.795,2.7-4.47,1.686l-5.106-1.938.758-2.002,4.715,1.788c1.348.512,2.184.508,2.645-.709.34-.897.176-1.537-.082-2.042l-6.042-2.292.759-2.001,8.27,3.136Z"/><path d="M317.152,421.745l.123,1.435-16.302,1.386-.122-1.436,16.301-1.385Z"/><path d="M320.044,464.778l1.109,1.876c-.895.646-1.166,1.643-.443,2.864.682,1.153,1.736,1.482,2.872.811,1.171-.692,1.315-1.823.593-3.045-.469-.792-1.322-1.448-2.312-1.63l-.354-1.463,5.879-2.71,3.704,6.266-1.618.957-2.768-4.682-2.484,1.143c.715.345,1.369.979,1.817,1.737,1.171,1.979.811,4.12-1.221,5.321-2.22,1.312-4.396.345-5.597-1.686-1.363-2.307-1.103-4.459.822-5.76Z"/><path d="M330.679,471.859l.984,1.285-1,.767c.627-.103,1.719-.158,2.484.842.633.825.445,1.699.016,2.255.479-.064,1.626-.112,2.38.871.839,1.096.243,2.257-1.153,3.327l-4.84,3.71-1.155-1.508,4.57-3.503c.856-.656,1.085-1.083.744-1.527-.329-.428-.89-.502-1.329-.518l-5.189,3.977-1.155-1.508,4.57-3.502c.856-.657,1.085-1.083.744-1.527-.329-.429-.901-.519-1.341-.534l-5.189,3.977-1.155-1.508,7.015-5.375Z"/><path d="M333.597,486.958l2.149,2.206,3.911-3.812-2.149-2.206,1.218-1.188,3.645,3.74-5.13,4.998,1.968,2.021-1.203,1.173-5.612-5.76,1.204-1.173ZM343.66,481.147l1.829,1.877-1.733,1.688-1.829-1.877,1.733-1.688Z"/><path d="M347.472,490.562l1.447,1.17-.754.934c.691-.188,1.844-.31,3.012.633,1.308,1.057,2.006,2.547.209,4.772l-3.434,4.249-1.664-1.345,3.168-3.923c.905-1.12,1.162-1.916.15-2.733-.747-.604-1.406-.647-1.966-.559l-4.062,5.026-1.665-1.345,5.558-6.88Z"/><path d="M391.139,508.663l1.401.329-3.731,15.927-1.401-.329,3.731-15.927Z"/></g></svg>