<?xml version="1.0" encoding="UTF-8"?>
<svg id="YOUR_FILE" xmlns="http://www.w3.org/2000/svg" width="18.987in" height="11.503in" version="1.1" viewBox="0 0 1367.032 828.25">
  <!-- Generator: Adobe Illustrator 29.1.0, SVG Export Plug-In . SVG Version: 2.1.0 Build 142)  -->
  <rect x=".125" y=".125" width="828" height="828" rx="21.328" ry="21.328" fill="none" stroke="#000" stroke-miterlimit="10" stroke-width=".25"/>
  <polygon points="624.537 611.408 427.254 414.125 624.537 216.842 611.408 203.713 414.125 400.996 216.842 203.713 203.713 216.842 400.996 414.125 203.713 611.408 216.842 624.537 414.125 427.254 611.408 624.537 624.537 611.408" fill="none" stroke="#000" stroke-miterlimit="10" stroke-width=".25"/>
  <polygon points="1003.18 126.125 994.18 126.125 994.18 404.842 1030.459 404.842 1030.459 423.409 994.18 423.409 994.18 702.125 1003.18 702.125 1003.18 828.125 1012.18 828.125 1012.18 756.952 1021.18 756.952 1021.18 687.952 1030.18 687.952 1030.18 618.952 1039.18 618.952 1039.18 549.952 1048.18 549.952 1048.18 480.952 1057.18 480.952 1066.18 480.952 1066.18 450.409 1056.898 450.409 1056.898 377.842 1066.18 377.842 1066.18 347.298 1057.18 347.298 1048.18 347.298 1048.18 278.298 1039.18 278.298 1039.18 209.298 1030.18 209.298 1030.18 140.298 1021.18 140.298 1021.18 71.298 1012.18 71.298 1012.18 .125 1003.18 .125 1003.18 126.125" fill="none" stroke="#000" stroke-miterlimit="10" stroke-width=".25"/>
  <polygon points="882.707 126.125 873.707 126.125 873.707 702.125 882.707 702.125 882.707 828.125 891.707 828.125 891.707 756.952 900.707 756.952 900.707 687.952 909.707 687.952 909.707 618.952 918.707 618.952 918.707 549.952 927.707 549.952 927.707 480.952 936.707 480.952 945.707 480.952 945.707 450.409 936.425 450.409 936.425 423.409 909.425 423.409 909.425 404.841 936.425 404.841 936.425 377.841 945.707 377.841 945.707 347.298 936.707 347.298 927.707 347.298 927.707 278.298 918.707 278.298 918.707 209.298 909.707 209.298 909.707 140.298 900.707 140.298 900.707 71.298 891.707 71.298 891.707 .125 882.707 .125 882.707 126.125" fill="none" stroke="#000" stroke-miterlimit="10" stroke-width=".25"/>
  <circle cx="1179.116" cy="339.549" r="9" fill="none" stroke="#000" stroke-miterlimit="10" stroke-width=".25"/>
  <path d="M1214.833,348.832v-18.567h32.644c-4.128-30.676-28.401-54.949-59.077-59.077v32.644h-18.567v-32.644c-30.676,4.128-54.949,28.401-59.077,59.077h32.645v18.567h-32.645c4.128,30.676,28.401,54.949,59.077,59.077v-32.65h18.567v32.65c30.676-4.128,54.949-28.401,59.077-59.077h-32.644Z" fill="none" stroke="#000" stroke-miterlimit="10" stroke-width=".25"/>
  <polygon points="1134.758 420.34 1116.758 447.685 1116.758 557.062 1152.758 557.062 1152.758 447.685 1134.758 420.34" fill="none" stroke="#000" stroke-miterlimit="10" stroke-width=".25"/>
  <circle cx="1134.617" cy="488.559" r="9" fill="none" stroke="#000" stroke-miterlimit="10" stroke-width=".25"/>
  <path d="M1186.829,420.548l-14.014,21.288c-.78,1.186-1.196,2.574-1.196,3.993v103.272c0,4.043,3.278,7.321,7.321,7.321h21.796c3.801,0,6.882-3.081,6.882-6.882v-103.724c0-1.411-.413-2.79-1.189-3.968l-14.021-21.299c-1.32-2.005-4.261-2.005-5.58,0Z" fill="none" stroke="#000" stroke-miterlimit="10" stroke-width=".25"/>
  <circle cx="1189.477" cy="487.92" r="9" fill="none" stroke="#000" stroke-miterlimit="10" stroke-width=".25"/>
  <circle cx="1295.608" cy="487.453" r="9" fill="none" stroke="#000" stroke-miterlimit="10" stroke-width=".25"/>
  <path d="M1242.684,420.34l-12.058,18.317c-3.876,5.889-5.942,12.784-5.942,19.834v80.532c0,9.962,8.075,18.037,18.037,18.037h0c9.921,0,17.963-8.042,17.963-17.963v-80.683c0-7.001-2.051-13.848-5.901-19.695l-12.099-18.381Z" fill="none" stroke="#000" stroke-miterlimit="10" stroke-width=".25"/>
  <circle cx="1242.543" cy="488.559" r="9" fill="none" stroke="#000" stroke-miterlimit="10" stroke-width=".25"/>
  <circle cx="1306.933" cy="342.953" r="9" fill="none" stroke="#000" stroke-miterlimit="10" stroke-width=".25"/>
  <polygon points="1313.75 449.772 1295.75 418.595 1277.75 449.772 1277.75 525.418 1295.75 556.595 1313.75 525.418 1313.75 449.772" fill="none" stroke="#000" stroke-miterlimit="10" stroke-width=".25"/>
  <circle cx="1348.673" cy="487.595" r="9" fill="none" stroke="#000" stroke-miterlimit="10" stroke-width=".25"/>
  <path d="M1364.885,442.66l-12.716-22.024c-1.491-2.582-5.218-2.582-6.709,0l-12.709,22.012c-1.269,2.198-1.937,4.691-1.937,7.229v75.718c0,2.534.667,5.024,1.934,7.219l12.711,22.017c1.491,2.582,5.218,2.582,6.709,0l12.759-22.1c1.236-2.14,1.886-4.568,1.886-7.039v-75.828c0-2.528-.666-5.012-1.93-7.202Z" fill="none" stroke="#000" stroke-miterlimit="10" stroke-width=".25"/>
  <polygon points="1366.815 377.6 1348.815 346.423 1325.075 332.567 1325.075 305.276 1307.075 274.1 1289.075 305.276 1289.075 332.555 1265.334 346.423 1247.334 377.6 1283.334 377.6 1307.065 363.738 1330.815 377.6 1366.815 377.6" fill="none" stroke="#000" stroke-miterlimit="10" stroke-width=".25"/>
</svg>