<?xml version="1.0" encoding="UTF-8"?><svg id="Layer_1" xmlns="http://www.w3.org/2000/svg" width="9.587in" height="9.587in" viewBox="0 0 690.25 690.25"><defs><style>.cls-1{fill:#ff69b4;opacity:.5;stroke:#231f20;stroke-miterlimit:10;stroke-width:.25px;}</style></defs><path class="cls-1" d="M345.125.125C154.587.125.125,154.587.125,345.125s154.462,345,345,345,345-154.462,345-345S535.663.125,345.125.125ZM345.125,621.125c-152.431,0-276-123.569-276-276S192.694,69.125,345.125,69.125s276,123.569,276,276-123.569,276-276,276Z"/><path d="M368.491,646.98l3.487-.305c2.392-.209,4.147.822,4.314,2.735.102,1.156-.434,1.926-1.393,2.451,1.005.233,2.131.938,2.261,2.433.171,1.953-1.452,3.38-3.843,3.589l-3.847.336-.98-11.239ZM370.564,651.638l1.634-.143c1.694-.148,2.468-.718,2.368-1.854-.089-1.017-.791-1.698-2.584-1.542l-1.714.15.296,3.388ZM371.003,656.66l2.132-.187c1.813-.158,2.396-1.072,2.31-2.068-.098-1.116-.95-1.685-2.685-1.533l-2.072.181.315,3.607Z"/><path d="M380.672,645.81l2.896-.372c2.876-.369,4.795.595,5.08,2.816.231,1.805-.771,3.103-2.27,3.679l4.042,3.997-2.063.266-3.649-3.766-1.487.19.535,4.166-1.646.212-1.438-11.188ZM383.045,651.252l1.27-.163c2.103-.271,2.807-1.228,2.644-2.497-.161-1.25-1.086-2.019-3.189-1.748l-1.27.163.546,4.245Z"/><path d="M394.434,653.875l2.721-.462-1.41-8.319-2.721.462-.236-1.4,7.058-1.196.237,1.399-2.701.458,1.41,8.319,2.701-.457.237,1.399-7.059,1.196-.237-1.399Z"/><path d="M405.177,647.704c-.749-3.541.294-6.05,3.209-6.666,2.093-.442,3.952.329,4.648,3.043l-1.564.331c-.504-1.61-1.3-2.28-2.728-1.979-2.484.525-2.289,2.998-1.879,4.935.471,2.229,1.316,4.197,3.604,3.713,1.018-.215,1.619-.751,2.091-1.423l-.518-2.445-2.582.546-.285-1.35,4.147-.876,1.257,5.946-1.271.269-.257-1.213c-.236.622-1.032,1.69-2.656,2.033-2.992.633-4.601-1.949-5.217-4.864Z"/><path d="M416.853,639.365l1.608-.408,1.188,4.67,3.682-.937-1.188-4.67,1.608-.409,2.78,10.93-1.608.408-1.247-4.902-3.683.937,1.247,4.902-1.608.409-2.779-10.93Z"/><path d="M431.696,636.834l-3.642,1.085-.405-1.361,8.912-2.653.405,1.36-3.68,1.096,2.813,9.448-1.591.474-2.813-9.448Z"/><path d="M440.424,632.641l2.101-.72,6.48,7.99-1.221-3.007-2.081-6.073,1.419-.486,3.657,10.671-2.1.721-6.481-7.991,1.221,3.007,2.082,6.073-1.42.486-3.657-10.671Z"/><path d="M451.949,628.58l6.844-2.66.515,1.323-5.296,2.059,1.232,3.17,4.605-1.79.515,1.324-4.605,1.79,1.312,3.375,5.296-2.059.515,1.324-6.844,2.66-4.088-10.517Z"/><path d="M465.959,631.675l1.484-.647c.594,1.159,1.669,1.475,3.19.812,1.393-.607,2.069-1.558,1.613-2.602-.352-.807-1.043-.941-2.122-.863l-2.561.18c-1.438.104-2.827-.229-3.482-1.731-.8-1.833.371-3.499,2.405-4.387,2.089-.912,3.977-.535,4.922,1.582l-1.466.64c-.713-1.434-1.891-1.334-2.917-.887-1.338.584-1.789,1.5-1.421,2.344.304.696.972.928,1.943.854l2.561-.18c1.924-.141,3.005.238,3.621,1.649.919,2.107-.385,3.767-2.529,4.702-2.346,1.023-4.339.606-5.242-1.465Z"/><path d="M477.444,626.577l1.457-.707c.64,1.135,1.728,1.407,3.221.683,1.367-.663,2.005-1.64,1.507-2.665-.384-.791-1.08-.898-2.154-.776l-2.553.282c-1.433.162-2.833-.114-3.549-1.59-.873-1.799.229-3.512,2.227-4.48,2.051-.995,3.952-.695,4.982,1.383l-1.439.698c-.77-1.404-1.943-1.257-2.951-.769-1.312.638-1.727,1.571-1.325,2.399.332.684,1.009.888,1.977.774l2.552-.282c1.917-.219,3.013.116,3.685,1.502,1.004,2.068-.233,3.779-2.338,4.801-2.303,1.117-4.311.78-5.297-1.253Z"/><path d="M511.272,596.742l1.201-.795,9.024,13.643-1.201.795-9.024-13.643Z"/><path d="M542.048,575.547l1.253-1.089,3.162,3.637,2.867-2.493-3.162-3.637,1.253-1.09,7.4,8.512-1.252,1.089-3.32-3.817-2.867,2.493,3.32,3.817-1.253,1.09-7.401-8.512Z"/><path d="M556.021,572.937l-5.007-5.313,1.208-1.139,5.007,5.313c1.372,1.455,2.317,1.555,3.467.471,1.15-1.084,1.107-2.033-.265-3.489l-5.007-5.312,1.209-1.139,5.007,5.313c2.003,2.125,1.964,3.893.058,5.689-1.907,1.797-3.674,1.73-5.677-.395Z"/><path d="M560.076,558.93l5.136-5.247,1.015.993-3.974,4.061,2.431,2.379,3.456-3.532,1.016.994-3.456,3.531,2.588,2.532,3.974-4.061,1.015.994-5.135,5.247-8.064-7.892Z"/><path d="M587.159,525.51l.864-1.152,13.093,9.811-.863,1.153-13.094-9.812Z"/><path d="M615.679,499.695l.793-1.412c1.173.565,2.221.168,3.033-1.28.743-1.325.709-2.49-.285-3.048-.768-.431-1.4-.12-2.213.593l-1.934,1.69c-1.084.951-2.391,1.524-3.821.723-1.744-.979-1.817-3.015-.731-4.95,1.115-1.988,2.847-2.828,4.88-1.711l-.782,1.396c-1.435-.713-2.313.078-2.861,1.055-.715,1.273-.521,2.276.282,2.726.662.372,1.335.153,2.064-.492l1.934-1.69c1.448-1.273,2.539-1.625,3.882-.872,2.006,1.125,1.968,3.236.824,5.276-1.252,2.232-3.093,3.104-5.064,1.998Z"/><path d="M616.082,482.101l.815-1.604,11.855,1.565-.815,1.604-2.796-.412-1.994,3.921,1.98,2.017-.798,1.568-8.248-8.658ZM622.117,486.202l1.613-3.173-1.778-.253-3.947-.662,2.859,2.801,1.253,1.287Z"/><path d="M622.76,471.623l-1.583,3.453-1.29-.592,3.874-8.45,1.29.591-1.6,3.489,8.96,4.107-.691,1.509-8.96-4.107Z"/><path d="M631.986,465.361l-6.756-2.769.629-1.536,6.756,2.769c1.851.758,2.752.457,3.352-1.005.599-1.462.168-2.31-1.684-3.067l-6.755-2.769.629-1.536,6.756,2.769c2.702,1.107,3.398,2.732,2.404,5.157-.993,2.425-2.629,3.094-5.331,1.987Z"/><path d="M629.898,450.943l.998-2.745c.991-2.726,2.728-3.989,4.833-3.224,1.711.623,2.405,2.109,2.229,3.705l5.407-1.758-.711,1.955-5.021,1.516-.513,1.41,3.947,1.436-.567,1.561-10.603-3.855ZM635.824,451.331l.438-1.203c.725-1.993.196-3.058-1.007-3.495-1.185-.431-2.292.039-3.017,2.032l-.438,1.203,4.023,1.463Z"/><path d="M634.803,436.84l.546-1.715,11.958-.368-.547,1.716-2.827.044-1.336,4.192,2.28,1.672-.534,1.677-9.54-7.218ZM641.422,439.915l1.081-3.393-1.796.037-4.005-.017,3.276,2.304,1.443,1.068Z"/><path d="M639.696,425.439l-1.006,3.664-1.369-.376,2.462-8.969,1.369.376-1.017,3.703,9.509,2.61-.439,1.601-9.509-2.609Z"/><path d="M650.344,418.097l.621-2.688-8.223-1.899-.621,2.688-1.384-.319,1.612-6.976,1.383.319-.616,2.67,8.223,1.899.616-2.67,1.384.319-1.611,6.977-1.384-.32Z"/><path d="M648.841,405.794c-3.597-.679-5.551-2.513-4.986-5.5.56-2.968,2.978-3.916,6.515-3.248,3.597.678,5.531,2.509,4.967,5.496-.56,2.968-2.978,3.916-6.495,3.252ZM650.109,398.748c-1.867-.353-4.388-.584-4.848,1.854-.46,2.437,1.972,3.14,3.839,3.492,1.848.349,4.368.58,4.828-1.857.46-2.437-1.972-3.14-3.819-3.488Z"/><path d="M645.571,391.807l.323-2.196,10.075-2.096-3.232-.294-6.353-.936.218-1.484,11.162,1.644-.323,2.197-10.074,2.095,3.231.294,6.354.936-.219,1.484-11.162-1.644Z"/><path d="M647.816,348.858l.022-1.44,16.364.262-.023,1.44-16.363-.262Z"/><path d="M647.844,312.815l-.206-1.768,5.824-2.714,3.486-1.535-3.701-.655-6.333-1.295-.202-1.728,11.664,2.625.214,1.828-10.746,5.241Z"/><path d="M645.751,296.697l-.28-1.778,10.525-5.688.28,1.779-2.508,1.306.685,4.348,2.788.472.273,1.739-11.764-2.177ZM653.047,296.479l-.554-3.518-1.59.838-3.587,1.78,3.961.591,1.77.309Z"/><path d="M644.159,287.245l-.324-1.627,9.667-1.926-1.129-5.667,1.392-.277,1.453,7.294-11.059,2.203Z"/><path d="M648.819,273.82l-7.095,1.715-.391-1.613,7.096-1.715c1.944-.471,2.498-1.242,2.127-2.778-.371-1.535-1.217-1.969-3.161-1.499l-7.095,1.716-.391-1.614,7.096-1.715c2.838-.687,4.354.223,4.97,2.77.616,2.547-.317,4.048-3.156,4.734Z"/><path d="M638.674,263.368l-2.017-7.057,1.365-.39,1.561,5.46,3.269-.934-1.357-4.749,1.365-.39,1.356,4.749,3.48-.995-1.561-5.46,1.365-.39,2.017,7.056-10.844,3.099Z"/><path d="M623.029,223.324l-.575-1.32,14.99-6.54.576,1.319-14.991,6.541Z"/><path d="M615.878,184.302l-1.43-2.36-7.219,4.372,1.43,2.36-1.214.735-3.709-6.123,1.214-.736,1.42,2.344,7.218-4.372-1.419-2.344,1.214-.735,3.71,6.124-1.215.735Z"/><path d="M600.986,178.935l-1.225-1.852,6.103-8.28-2.603,1.938-5.354,3.541-.827-1.251,9.406-6.222,1.225,1.851-6.104,8.281,2.603-1.938,5.354-3.541.828,1.25-9.406,6.223Z"/><path d="M593.72,165.761l2.221,3.082-1.151.83-5.435-7.542,1.151-.83,2.244,3.114,7.996-5.763.971,1.347-7.997,5.762Z"/><path d="M586.901,158.923l-4.531-5.779,1.118-.876,3.506,4.472,2.678-2.099-3.05-3.89,1.118-.876,3.049,3.89,2.851-2.234-3.506-4.473,1.118-.876,4.53,5.779-8.881,6.962Z"/><path d="M579.244,149.308l-1.438-1.69,5.062-8.953-2.351,2.236-4.888,4.158-.972-1.142,8.589-7.307,1.438,1.69-5.062,8.952,2.351-2.235,4.889-4.159.972,1.143-8.589,7.307Z"/><path d="M577.589,135.092l-1.099-1.191c.901-.941.848-2.062-.278-3.282-1.03-1.118-2.15-1.447-2.988-.674-.647.597-.548,1.295-.121,2.289l1.009,2.363c.569,1.326.71,2.748-.496,3.86-1.471,1.356-3.431.795-4.937-.838-1.547-1.677-1.809-3.585-.116-5.173l1.085,1.177c-1.122,1.144-.643,2.226.117,3.049.99,1.074,2.005,1.2,2.682.576.559-.516.56-1.224.171-2.117l-1.009-2.363c-.764-1.772-.76-2.919.372-3.964,1.692-1.56,3.689-.87,5.276.851,1.736,1.883,1.994,3.904.332,5.438Z"/><path d="M569.85,124.172l-1.95-1.952-5.969,5.963,1.949,1.951-1.004,1.004-5.059-5.064,1.004-1.003,1.937,1.938,5.969-5.962-1.936-1.938,1.004-1.003,5.059,5.063-1.004,1.004Z"/><path d="M553.088,119.639l2.791,2.578-.963,1.043-6.833-6.308.964-1.044,2.821,2.604,6.688-7.244,1.22,1.126-6.688,7.244Z"/><path d="M547.373,107.361l-1.047,8.016-1.462-1.245.448-3.087.577-3.238-3.12,1.072-2.977.934-1.416-1.206,7.731-2.322,2.919-3.426,1.264,1.076-2.918,3.427Z"/><path d="M509.852,89.581l-1.209-.782,8.887-13.743,1.21.782-8.888,13.743Z"/><path d="M482.11,62.903l-1.464-.692c.482-1.209.013-2.228-1.488-2.937-1.374-.649-2.534-.534-3.021.496-.376.796-.022,1.405.746,2.166l1.82,1.812c1.024,1.016,1.688,2.28.987,3.763-.854,1.808-2.881,2.022-4.888,1.074-2.062-.974-3.02-2.644-2.047-4.749l1.446.684c-.611,1.48.239,2.303,1.252,2.781,1.32.623,2.307.36,2.7-.472.324-.688.06-1.344-.636-2.025l-1.82-1.812c-1.372-1.356-1.798-2.421-1.14-3.812.982-2.08,3.091-2.189,5.207-1.189,2.314,1.094,3.311,2.87,2.345,4.913Z"/><path d="M466.98,64.766l-1.529-.647,1.88-4.438-3.5-1.481-1.879,4.438-1.528-.647,4.397-10.388,1.528.647-1.973,4.66,3.5,1.481,1.973-4.66,1.528.647-4.397,10.388Z"/><path d="M453.154,59.141l-1.686-.635.25-11.962,1.686.635-.103,2.826,4.119,1.551,1.787-2.191,1.647.62-7.701,9.156ZM456.567,52.688l-3.333-1.255-.057,1.796-.223,3.999,2.47-3.153,1.143-1.387Z"/><path d="M444.142,55.852l-3.133-1.037c-3.511-1.163-3.725-3.698-2.713-6.754,1.044-3.151,2.805-5.096,6.259-3.952l3.132,1.038-3.545,10.705ZM445.665,45.972l-1.557-.516c-2.619-.867-3.589,1.36-4.154,3.069-.572,1.727-1.118,4.074,1.502,4.941l1.556.516,2.653-8.011Z"/><path d="M432.482,52.107l-7.057-2.022.392-1.364,5.46,1.564.937-3.269-4.749-1.36.392-1.365,4.748,1.36.997-3.48-5.46-1.563.392-1.365,7.056,2.021-3.106,10.844Z"/><path d="M390.221,44.219l-1.425-.209,2.371-16.188,1.426.208-2.372,16.189Z"/><path d="M354.132,33.869c-.058,3.621-1.634,5.837-4.615,5.789-2.14-.034-3.782-1.201-3.857-4.004l1.601.025c.133,1.684.76,2.514,2.221,2.537,2.54.041,2.899-2.415,2.932-4.396.036-2.28-.351-4.388-2.69-4.425-1.041-.017-1.747.372-2.356.923l-.04,2.5,2.641.043-.022,1.38-4.24-.067.098-6.082,1.3.021-.02,1.24c.369-.555,1.383-1.419,3.043-1.393,3.062.05,4.056,2.927,4.008,5.907Z"/><path d="M340.892,39.408l-2.918.074c-2.898.072-4.708-1.082-4.764-3.32-.046-1.819,1.084-3.008,2.634-3.427l-3.611-4.39,2.079-.053,3.244,4.119,1.499-.038-.105-4.197,1.659-.042.283,11.273ZM339.09,33.752l-1.279.032c-2.119.054-2.917.934-2.885,2.213.031,1.26.873,2.118,2.992,2.065l1.279-.032-.107-4.278Z"/><path d="M325.996,39.993l-1.797.117-4.703-10.999,1.797-.116,1.071,2.616,4.392-.285.724-2.733,1.757-.114-3.24,11.515ZM326.444,32.708l-3.553.23.689,1.659,1.445,3.734.949-3.89.469-1.734Z"/><path d="M316.412,40.722l-3.283.345c-3.681.387-4.921-1.837-5.257-5.04-.348-3.304.456-5.802,4.078-6.183l3.283-.345,1.179,11.223ZM313.729,31.085l-1.631.172c-2.746.288-2.712,2.719-2.524,4.51.19,1.811.66,4.176,3.406,3.887l1.632-.171-.883-8.397Z"/><path d="M302.854,32.343l-2.731.4,1.224,8.352,2.731-.4.205,1.405-7.085,1.038-.205-1.405,2.711-.397-1.224-8.352-2.711.397-.206-1.405,7.085-1.038.206,1.405Z"/><path d="M292.138,43.977l-7.213,1.355-.263-1.396,5.582-1.049-.628-3.341-4.854.911-.262-1.395,4.854-.912-.669-3.558-5.581,1.049-.263-1.396,7.213-1.355,2.083,11.085Z"/><path d="M280.098,46.343l-2.163.498-5.615-8.618.901,3.116,1.44,6.255-1.462.337-2.529-10.99,2.162-.498,5.616,8.618-.902-3.116-1.439-6.255,1.461-.337,2.53,10.99Z"/><path d="M265.211,48.529l3.664-1.001.374,1.37-8.969,2.447-.373-1.369,3.703-1.011-2.596-9.509,1.601-.437,2.596,9.509Z"/><path d="M227.973,64.374l-1.326.561-6.365-15.065,1.326-.561,6.365,15.065Z"/><path d="M190.803,79.746l3.273-1.932.722,1.224-8.011,4.726-.722-1.224,3.308-1.951-5.01-8.492,1.43-.844,5.01,8.493Z"/><path d="M178.023,77.613l-2.318,1.497,4.578,7.089,2.318-1.497.771,1.193-6.015,3.884-.771-1.192,2.302-1.486-4.578-7.09-2.302,1.486-.771-1.193,6.015-3.884.771,1.193Z"/><path d="M173.1,92.648l-1.816,1.277-8.452-5.864,2.012,2.546,3.692,5.251-1.227.863-6.488-9.226,1.815-1.277,8.452,5.864-2.011-2.547-3.693-5.25,1.227-.863,6.489,9.226Z"/><path d="M160.132,100.305l3.019-2.311.863,1.128-7.387,5.654-.863-1.128,3.05-2.335-5.995-7.83,1.318-1.01,5.995,7.831Z"/><path d="M131.607,129.005l-1.019,1.019-11.57-11.57,1.019-1.019,11.57,11.57Z"/><path d="M102.894,157.202l2.311-3.016,1.126.864-5.654,7.379-1.127-.863,2.335-3.047-7.823-5.996,1.009-1.316,7.824,5.995Z"/><path d="M94.164,161.678c2.99,2.107,4.008,4.586,2.257,7.07-1.739,2.468-4.332,2.328-7.273.254-2.991-2.107-3.992-4.575-2.241-7.059,1.74-2.468,4.333-2.328,7.258-.266ZM90.089,167.563c1.553,1.095,3.75,2.35,5.179.323,1.428-2.026-.493-3.674-2.045-4.769-1.536-1.083-3.733-2.338-5.162-.312s.492,3.674,2.028,4.757Z"/><path d="M91.323,175.79l-1.204,1.864-10.034-2.267,2.819,1.606,5.393,3.482-.813,1.261-9.476-6.119,1.204-1.865,10.035,2.267-2.819-1.606-5.393-3.482.813-1.26,9.475,6.119Z"/><path d="M84.782,186.106l-3.729,6.322-1.224-.721,2.887-4.893-2.929-1.728-2.51,4.255-1.224-.722,2.51-4.255-3.118-1.84-2.886,4.893-1.223-.722,3.729-6.322,9.716,5.731Z"/><path d="M66.486,225.043l-.562,1.326-15.065-6.378.562-1.326,15.065,6.378Z"/><path d="M50.515,261.948l1.003-3.665,1.369.375-2.455,8.969-1.369-.375,1.014-3.703-9.509-2.603.438-1.601,9.509,2.603Z"/><path d="M49.465,271.557l-1.646,7.151-1.383-.318,1.273-5.534-3.312-.763-1.107,4.813-1.384-.319,1.108-4.812-3.527-.812-1.273,5.533-1.384-.318,1.646-7.151,10.989,2.53Z"/><path d="M46.936,282.887l-.406,2.162-3.931.563-2.578.289,2.301,1.185,3.458,1.952-.395,2.103-11.085-2.082.277-1.475,6.485,1.219,3.06.718-6.06-3.377.236-1.258,6.872-.947-3.111-.442-6.485-1.218.276-1.475,11.085,2.083Z"/><path d="M44.658,295.565l-.478,3.266c-.406,2.771-1.807,4.466-4.201,4.114-2.396-.351-3.254-2.356-2.845-5.146l.237-1.623-4.116-.604.241-1.643,11.161,1.636ZM38.777,296.381l-.24,1.643c-.308,2.098.425,3.033,1.691,3.219,1.247.184,2.236-.501,2.544-2.599l.24-1.643-4.235-.62Z"/><path d="M42.976,307.714l-.772,7.297-1.411-.149.598-5.646-3.38-.358-.521,4.911-1.411-.149.52-4.911-3.599-.381-.598,5.646-1.412-.149.773-7.297,11.213,1.188Z"/><path d="M41.794,319.918l-.189,2.914c-.188,2.895-1.501,4.593-3.736,4.447-1.816-.118-2.898-1.351-3.177-2.932l-4.697,3.202.135-2.076,4.395-2.861.098-1.496-4.191-.272.107-1.657,11.257.731ZM35.998,321.206l-.083,1.277c-.138,2.116.668,2.99,1.945,3.073,1.257.081,2.188-.68,2.326-2.796l.083-1.277-4.271-.277Z"/><path d="M41.027,334.803l-.046,1.8-11.374,3.693.046-1.799,2.701-.832.11-4.397-2.655-.968.044-1.759,11.174,4.262ZM33.814,333.702l-.09,3.559,1.714-.537,3.848-1.104-3.787-1.295-1.685-.623Z"/><path d="M39.503,347.13l-.061-3.801,1.42-.022.149,9.302-1.421.022-.062-3.841-9.861.158-.027-1.66,9.862-.158Z"/><path d="M33.851,356.733l7.291-.39.089,1.657-7.291.39c-1.997.107-2.683.765-2.599,2.343s.837,2.159,2.834,2.052l7.29-.39.089,1.658-7.29.39c-2.917.155-4.241-1.016-4.381-3.632s1.052-3.922,3.968-4.078Z"/><path d="M41.917,368.877l.274,2.907c.271,2.887-.756,4.771-2.986,4.982-1.812.171-3.076-.876-3.601-2.394l-4.132,3.905-.195-2.07,3.887-3.521-.141-1.494-4.182.395-.155-1.652,11.23-1.059ZM36.397,371.065l.12,1.274c.199,2.11,1.133,2.847,2.407,2.727,1.254-.118,2.054-1.018,1.854-3.128l-.12-1.274-4.262.401Z"/><path d="M43.165,381.077l.979,7.274-1.407.189-.758-5.629-3.37.454.66,4.896-1.407.189-.66-4.896-3.588.483.759,5.629-1.407.189-.98-7.274,11.18-1.506Z"/><path d="M52.885,422.969l.38,1.389-15.776,4.318-.38-1.389,15.776-4.318Z"/><path d="M64.469,461.233l.702,1.657-8.836,8.062-.701-1.657,2.117-1.873-1.716-4.052-2.818.216-.687-1.621,11.938-.732ZM57.443,463.208l1.388,3.278,1.34-1.197,3.05-2.594-3.985.384-1.792.129Z"/><path d="M68.298,470.029l1.407,2.983c1.578,3.345-.11,5.247-3.021,6.62-3.002,1.416-5.624,1.481-7.176-1.81l-1.408-2.983,10.198-4.811ZM60.092,475.735l.699,1.482c1.177,2.495,3.459,1.662,5.086.895,1.646-.776,3.722-1.999,2.545-4.494l-.699-1.482-7.631,3.6Z"/><path d="M73.634,481.081l1.528,2.926c1.714,3.28.103,5.25-2.752,6.741-2.943,1.537-5.562,1.709-7.248-1.518l-1.528-2.926,10-5.224ZM65.662,487.119l.759,1.453c1.278,2.447,3.525,1.521,5.122.688,1.613-.844,3.639-2.149,2.36-4.597l-.759-1.454-7.482,3.909Z"/><path d="M70.83,496.78l1.375,2.393,7.315-4.205-1.375-2.392,1.23-.708,3.567,6.206-1.231.707-1.365-2.375-7.314,4.205,1.365,2.375-1.23.707-3.567-6.205,1.23-.708Z"/><path d="M85.824,505.51l-2.023-3.215,1.201-.757,4.952,7.869-1.201.756-2.045-3.249-8.343,5.251-.884-1.404,8.343-5.251Z"/><path d="M84.055,518.331l1.562,2.273,6.954-4.777-1.562-2.274,1.171-.804,4.053,5.899-1.17.804-1.551-2.257-6.955,4.777,1.552,2.258-1.17.804-4.054-5.899,1.17-.804Z"/><path d="M98.437,521.756l1.065,1.426-3.677,5.271-2.245,3.077,3.531-1.291,6.128-2.059,1.042,1.394-11.407,3.584-1.103-1.475,6.665-9.928Z"/><path d="M106.643,532.555l4.631,5.695-1.102.896-3.584-4.407-2.639,2.146,3.117,3.833-1.102.896-3.117-3.833-2.809,2.284,3.584,4.407-1.102.896-4.632-5.695,8.753-7.117Z"/><path d="M136.759,563.249l1.047.989-11.233,11.895-1.047-.988,11.233-11.896Z"/><path d="M159.189,594.55l1.313.948c-.695,1.101-.419,2.188.927,3.159,1.233.89,2.396.988,3.062.063.515-.714.278-1.377-.338-2.267l-1.46-2.113c-.822-1.185-1.243-2.55-.283-3.88,1.17-1.622,3.201-1.463,5.002-.164,1.849,1.334,2.486,3.15,1.146,5.044l-1.298-.937c.871-1.344.186-2.308-.723-2.963-1.185-.854-2.203-.775-2.741-.029-.445.616-.304,1.31.255,2.107l1.459,2.113c1.102,1.585,1.327,2.709.426,3.958-1.346,1.865-3.439,1.588-5.338.218-2.076-1.498-2.731-3.426-1.409-5.259Z"/><path d="M170.119,601.406l4.032-6.088,1.385.917-4.032,6.088c-1.104,1.668-.985,2.61.332,3.483s2.232.614,3.337-1.053l4.032-6.088,1.385.917-4.033,6.088c-1.612,2.435-3.343,2.8-5.527,1.354-2.185-1.447-2.522-3.184-.91-5.618Z"/><path d="M184.677,602.168l2.993,1.812c2.053,1.243,2.861,3.112,1.866,4.755-.601.992-1.486,1.297-2.57,1.155.673.781,1.165,2.015.388,3.298-1.016,1.676-3.166,1.869-5.219.626l-3.302-2,5.844-9.646ZM180.988,611.46l1.83,1.109c1.557.942,2.567.549,3.085-.307.58-.958.228-1.92-1.261-2.821l-1.778-1.077-1.876,3.096ZM183.6,607.15l1.402.85c1.454.881,2.414.878,3.005-.097.528-.872.364-1.837-1.175-2.77l-1.472-.891-1.761,2.907Z"/><path d="M196.907,610.982l-3.328-1.836.686-1.243,8.146,4.491-.686,1.244-3.363-1.854-4.763,8.636-1.453-.802,4.762-8.636Z"/><path d="M205.994,614.262l2.611,1.308c2.593,1.299,3.647,3.169,2.645,5.172-.815,1.627-2.372,2.145-3.938,1.786l1.123,5.573-1.859-.932-.927-5.162-1.342-.671-1.881,3.755-1.484-.743,5.052-10.086ZM204.926,620.102l1.145.573c1.896.949,3.015.548,3.588-.597.563-1.127.225-2.281-1.671-3.23l-1.145-.573-1.917,3.827Z"/><path d="M219.429,620.747l1.641.74-1.01,11.921-1.642-.74.282-2.813-4.012-1.81-1.923,2.073-1.604-.724,8.268-8.647ZM215.612,626.968l3.245,1.465.171-1.789.477-3.976-2.665,2.989-1.228,1.311Z"/><path d="M225.263,629.527c1.428-3.544,3.746-4.853,6.566-3.717,1.8.726,3.463,2.323,2.427,5.163l-1.484-.599c.473-1.6-.127-2.683-1.519-3.243-2.356-.949-3.572.998-4.395,3.039-.777,1.93-1.259,4.194,1.098,5.144,1.577.636,2.585.222,3.316-1.273l1.503.606c-1.177,2.652-3.446,2.773-5.376,1.995-2.913-1.174-3.505-3.72-2.137-7.115Z"/><path d="M241.69,631.317l-3.58-1.275.477-1.338,8.763,3.122-.477,1.338-3.618-1.289-3.311,9.29-1.563-.557,3.31-9.291Z"/><path d="M248.224,642.494l2.635.82,2.511-8.055-2.634-.821.422-1.355,6.834,2.13-.423,1.355-2.614-.815-2.512,8.056,2.615.815-.423,1.355-6.834-2.131.423-1.354Z"/><path d="M261.624,636.285l1.719.46.374,6.415.141,3.805,1.974-3.197,3.539-5.408,1.681.45-6.742,9.871-1.777-.477-.907-11.919Z"/><path d="M274.756,639.686l7.162,1.607-.311,1.386-5.543-1.244-.744,3.317,4.82,1.082-.311,1.386-4.82-1.082-.793,3.532,5.543,1.244-.312,1.386-7.162-1.607,2.47-11.007Z"/><path d="M317.418,645.109l1.435.127-1.436,16.301-1.435-.127,1.436-16.301Z"/></svg>