<?xml version="1.0" encoding="UTF-8"?><svg id="Layer_1" xmlns="http://www.w3.org/2000/svg" width="11.503in" height="11.503in" viewBox="0 0 828.25 828.25"><defs><style>.cls-1{fill:#ff69b4;opacity:.5;stroke:#231f20;stroke-miterlimit:10;stroke-width:.25px;}</style></defs><path class="cls-1" d="M414.125.125C185.479.125.125,185.479.125,414.125s185.354,414,414,414,414-185.354,414-414S642.771.125,414.125.125ZM414.125,759.125c-190.538,0-345-154.462-345-345S223.587,69.125,414.125,69.125s345,154.462,345,345-154.462,345-345,345Z"/><path d="M456.002,783.744l2.191-.265,1.177,2.532.814,1.933.298-2.066.538-2.741,2.129-.258,1.1,9.086-1.572.19-.562-4.638-.147-2.819-.971,5.162-1.239.15-2.175-4.781.529,2.772.562,4.638-1.572.19-1.1-9.086Z"/><path d="M466.546,788.086c-.418-2.816,1.403-3.944,3.065-4.191,1.771-.263,3.728.271,4.15,3.12.416,2.801-1.403,3.943-3.065,4.19-1.771.264-3.729-.287-4.15-3.119ZM472.037,787.271c-.233-1.566-1.017-2.162-2.22-1.983-1.202.179-1.779.976-1.547,2.543.23,1.55,1.017,2.161,2.22,1.982,1.202-.179,1.776-.991,1.547-2.542Z"/><path d="M476.368,783.004l1.466-.257.165.945c.251-.515.784-1.274,1.967-1.481,1.324-.231,2.59.131,2.984,2.386l.754,4.303-1.687.296-.696-3.973c-.198-1.135-.543-1.708-1.567-1.528-.756.132-1.129.506-1.371.89l.893,5.092-1.687.295-1.221-6.967Z"/><path d="M486.29,784.82c-.565-2.792,1.195-4.014,2.843-4.347,1.757-.355,3.738.076,4.31,2.899.562,2.776-1.196,4.014-2.843,4.348-1.757.355-3.742-.093-4.31-2.9ZM491.732,783.718c-.314-1.553-1.128-2.106-2.32-1.865s-1.727,1.068-1.413,2.621c.312,1.537,1.129,2.106,2.321,1.865,1.191-.241,1.724-1.083,1.412-2.621Z"/><path d="M496.099,782.791c-.655-2.838,1.07-4.041,2.786-4.438,1.544-.356,3.388-.125,4.017,2.029l-1.685.389c-.338-1.038-1.072-1.23-1.992-1.018-1.217.28-1.767,1.098-1.41,2.642.359,1.56,1.209,2.036,2.441,1.752.904-.209,1.483-.688,1.332-1.77l1.685-.389c.372,2.181-1.227,3.224-2.739,3.572-1.731.4-3.786.037-4.435-2.771Z"/><path d="M504.669,773.773l1.657-.429,1.02,3.934c.152-.37.63-1.139,1.699-1.415,1.301-.338,2.561-.069,3.134,2.146l1.096,4.229-1.657.43-1.011-3.903c-.289-1.115-.678-1.659-1.685-1.398-.743.193-1.085.596-1.296.997l1.297,5.003-1.657.429-2.597-10.021Z"/><path d="M516.564,779.947l1.677-.482-1.208-4.198-1.677.482-.376-1.308,3.107-.894.442,1.538c.075-.838.482-1.971,1.82-2.356.508-.146,1.004-.155,1.36-.074l.479,1.661c-.396-.104-.955-.075-1.4.053-1.077.31-1.568,1.034-1.778,1.577l.876,3.046,2.861-.823.372,1.292-6.184,1.778-.372-1.292Z"/><path d="M525.135,775.165c-.858-2.716.763-4.117,2.365-4.624,1.709-.54,3.725-.321,4.593,2.426.854,2.7-.763,4.118-2.365,4.624-1.709.54-3.729.306-4.593-2.426ZM530.43,773.493c-.478-1.511-1.346-1.975-2.505-1.608-1.16.367-1.604,1.245-1.127,2.756.473,1.495,1.346,1.975,2.506,1.608,1.159-.366,1.599-1.261,1.126-2.756Z"/><path d="M533.316,768.836l1.225-.424.33.952c.08-.501.313-1.344,1.266-1.674.787-.272,1.403.09,1.717.558.072-.381.325-1.265,1.263-1.589,1.043-.361,1.775.385,2.236,1.715l1.596,4.612-1.437.497-1.507-4.354c-.283-.816-.549-1.097-.973-.95-.408.141-.606.548-.729.879l1.711,4.944-1.437.497-1.507-4.354c-.283-.817-.549-1.098-.973-.951-.408.142-.621.554-.744.885l1.712,4.944-1.437.497-2.313-6.684Z"/><path d="M544.748,770.363c-.574-1.526.636-2.443,1.998-2.955.688-.26,1.467-.416,1.901-.442l-.203-.539c-.321-.853-.724-1.47-1.951-1.009-.929.35-1.326.927-1.033,1.705l-1.513.568c-.681-1.812.57-2.982,2.172-3.585,1.722-.647,3.15-.348,3.848,1.509l1.031,2.739c.096.255.219.311.488.209.18-.067.433-.214.595-.326l.4,1.062c-.225.222-.678.562-1.172.748-.838.315-1.24-.028-1.427-.522l-.045-.12c-.181.564-.684,1.454-2.046,1.966-1.287.484-2.549.31-3.044-1.008ZM549.334,768.791l-.315-.838c-.312.032-.948.203-1.518.417-.883.332-1.405.717-1.168,1.345.191.51.649.593,1.383.317.839-.315,1.391-.848,1.618-1.241Z"/><path d="M555.508,764.99l-1.019-2.504-2.089.85-.513-1.259,2.089-.85-1.235-3.038,1.585-.645,1.236,3.037,3.215-1.308.513,1.259-3.216,1.309.995,2.444c.5,1.229.912,1.563,2.008,1.117.607-.247,1.116-.609,1.498-.989l.518,1.274c-.39.4-.939.831-1.813,1.187-1.689.688-2.844.397-3.771-1.885Z"/><path d="M564.034,763.265l2.256-.989-1.754-3.999-2.256.989-.546-1.245,3.823-1.677,2.3,5.244,2.065-.906.54,1.23-5.889,2.583-.54-1.23ZM562.513,754.099l1.919-.842.777,1.772-1.919.842-.777-1.772Z"/><path d="M571.909,757.382c-1.238-2.635.195-4.175,1.788-4.924,1.434-.674,3.284-.836,4.353,1.137l-1.564.735c-.549-.944-1.307-.977-2.161-.575-1.13.53-1.496,1.445-.822,2.879.681,1.447,1.611,1.735,2.756,1.197.84-.395,1.305-.984.929-2.01l1.564-.735c.823,2.053-.52,3.409-1.925,4.069-1.607.755-3.691.833-4.917-1.773Z"/><path d="M647.322,702.76l1.195-.966,8.336,10.322-1.195.966-8.336-10.322Z"/><path d="M716.561,647.657l1-1.309c.689.466,1.342.481,2.08-.484.893-1.17.376-1.785-.373-2.357l-.801-.611c.075.48.081,1.289-.579,2.153-.999,1.31-2.701,1.721-4.633.245-1.945-1.484-1.993-3.292-1.022-4.563.698-.915,1.641-1.201,2.239-1.167l-.725-.554.902-1.182,5.771,4.406c1.513,1.154,1.628,2.61.211,4.467-.951,1.245-2.274,2.267-4.07.956ZM717.539,642.186l-2.44-1.863c-.502.079-1.029.321-1.437.854-.747.979-.368,1.932.648,2.708s2.023.882,2.771-.098c.407-.533.515-1.096.458-1.602Z"/><path d="M721.424,638.309l1.021-1.413-3.541-2.558-1.021,1.413-1.103-.796,1.893-2.62,1.297.937c-.458-.705-.837-1.848-.021-2.976.31-.428.694-.742,1.024-.898l1.4,1.012c-.375.163-.797.529-1.068.905-.656.908-.596,1.781-.426,2.338l2.568,1.855,1.742-2.413,1.09.787-3.767,5.214-1.09-.787Z"/><path d="M725.266,629.245c-2.339-1.599-2.014-3.663-1.028-5.104,1.021-1.493,2.79-2.494,5.103-.913l.317.217-3.126,4.572c1.045.655,2.009.578,2.786-.559.533-.779.586-1.538.09-2.032l.994-1.453c1.316,1.307.862,2.993-.005,4.262-1.156,1.691-2.938,2.51-5.131,1.01ZM727.673,624.22c-.98-.495-1.815-.096-2.339.67-.524.767-.593,1.689.225,2.423l2.114-3.093Z"/><path d="M735.131,623.766c.834-1.29.838-2.183.148-3.237l-7.604-1.177,1.042-1.613,3.548.672,2.253.521-1.38-1.844-2.077-2.979.99-1.532,4.04,6.133c1.466,2.243,1.654,3.603.222,5.821l-1.183-.765Z"/><path d="M737.422,613.117l.874-1.436c.676.337,1.348-.153,1.905-1.069.507-.834.783-1.565.223-1.906-.602-.366-1.254.492-2.213,1.576-.921,1.051-1.952,1.978-3.224,1.204-1.244-.757-.996-2.366-.09-3.856s2.076-2.521,3.661-1.707l-.874,1.436c-.714-.304-1.274.311-1.657.939-.508.834-.626,1.398-.216,1.648.547.333,1.083-.334,2.188-1.628.86-1.013,1.944-1.965,3.188-1.208,1.463.891,1.115,2.57.084,4.266-.981,1.613-2.335,2.607-3.851,1.741Z"/><path d="M741.416,603.963c-2.527-1.446-2.237-3.53-1.363-5.058.787-1.375,2.209-2.57,4.217-1.568l-.858,1.5c-.992-.458-1.632-.05-2.101.77-.62,1.083-.395,2.042.98,2.829,1.388.795,2.315.496,2.943-.601.461-.806.503-1.556-.394-2.18l.858-1.5c1.853,1.209,1.532,3.09.761,4.437-.883,1.541-2.545,2.802-5.044,1.371Z"/><path d="M747.863,596.018c-1.437-.773-1.126-2.26-.437-3.542.35-.647.834-1.277,1.144-1.582l-.507-.273c-.803-.433-1.513-.633-2.135.522-.47.873-.391,1.569.342,1.964l-.767,1.423c-1.704-.918-1.53-2.623-.719-4.13.872-1.62,2.146-2.333,3.893-1.393l2.577,1.388c.239.129.369.09.506-.163.091-.169.186-.445.234-.638l.999.539c-.023.314-.141.869-.391,1.333-.425.789-.954.795-1.419.544l-.113-.061c.234.544.44,1.545-.25,2.827-.652,1.211-1.718,1.908-2.958,1.241ZM750.288,591.819l-.788-.425c-.215.229-.582.777-.87,1.312-.447.83-.589,1.463.003,1.782.479.258.88.019,1.251-.671.425-.789.491-1.553.404-1.999Z"/><path d="M753.229,587.028l1.059-2.1-6.841-3.45-1.059,2.1-1.2-.605,1.829-3.627,8.041,4.055,1.066-2.114,1.199.605-2.896,5.741-1.199-.604Z"/><path d="M755.597,577.464c-2.561-1.207-2.565-3.296-1.822-4.873.771-1.635,2.358-2.901,4.89-1.708l.348.164-2.36,5.005c1.135.481,2.073.253,2.66-.991.402-.854.335-1.61-.232-2.02l.75-1.591c1.506,1.081,1.324,2.816.67,4.205-.873,1.852-2.501,2.941-4.902,1.809ZM757.177,572.126c-1.045-.333-1.806.192-2.201,1.031s-.317,1.76.604,2.354l1.597-3.386Z"/><path d="M778.85,487.334l.303-1.506,13.004,2.618-.303,1.506-13.004-2.618Z"/><path d="M789.45,400.586l-.06-1.487.928-.037c-.511-.349-1.133-1.092-1.181-2.291-.063-1.567.969-3.002,3.575-3.106s3.751,1.274,3.812,2.81c.045,1.12-.503,1.847-.812,2.147l3.646-.146.068,1.711-9.979.4ZM792.783,395.423c-1.359.055-2.234.602-2.186,1.817.028.72.338,1.235.671,1.559l3.311-.133c.306-.349.573-.888.544-1.607-.049-1.215-.965-1.691-2.34-1.636Z"/><path d="M794.734,390.406l-.115-1.74-4.357.287.115,1.74-1.356.09-.213-3.225,1.596-.105c-.802-.251-1.822-.89-1.913-2.278-.035-.526.061-1.014.216-1.345l1.724-.113c-.185.364-.276.916-.246,1.379.074,1.117.677,1.75,1.163,2.071l3.16-.209-.196-2.969,1.341-.088.424,6.416-1.341.089Z"/><path d="M784.846,378.894l-.191-2.087,1.927-.178.192,2.087-1.928.178ZM794.024,380.347l-.226-2.453-4.35.399.226,2.454-1.354.124-.383-4.157,5.703-.525-.206-2.246,1.338-.123.589,6.404-1.338.123Z"/><path d="M787.441,371.655l-.152-1.287,1-.119c-.473-.185-1.246-.592-1.365-1.593-.099-.826.387-1.352.909-1.559-.355-.15-1.165-.586-1.282-1.57-.131-1.097.754-1.653,2.151-1.819l4.845-.577.18,1.509-4.574.545c-.858.103-1.188.303-1.136.748.051.429.407.708.703.898l5.194-.618.18,1.509-4.574.545c-.858.102-1.188.303-1.136.747.051.429.408.725.705.915l5.194-.619.18,1.51-7.021.836Z"/><path d="M791.365,360.812c-1.615.234-2.253-1.145-2.462-2.586-.106-.729-.093-1.523-.025-1.953l-.57.083c-.903.131-1.593.394-1.403,1.692.143.981.621,1.494,1.445,1.374l.232,1.6c-1.917.279-2.794-1.194-3.041-2.889-.265-1.822.334-3.154,2.298-3.44l2.898-.421c.27-.039.351-.148.31-.434-.028-.19-.117-.468-.192-.651l1.125-.163c.168.267.404.781.48,1.305.129.887-.293,1.207-.815,1.283l-.127.019c.513.297,1.274.979,1.484,2.42.198,1.362-.242,2.559-1.637,2.762ZM790.81,355.992l-.887.129c-.035.312-.004.971.083,1.573.137.935.4,1.526,1.065,1.43.539-.078.719-.509.605-1.285-.129-.887-.531-1.54-.867-1.847Z"/><path d="M790.318,350.405l-.298-1.718-4.304.745.298,1.719-1.34.231-.552-3.184,1.576-.273c-.824-.165-1.905-.692-2.144-2.063-.09-.521-.046-1.015.073-1.36l1.702-.295c-.145.382-.178.939-.099,1.397.191,1.103.857,1.669,1.375,1.937l3.12-.54-.508-2.933,1.324-.229,1.098,6.336-1.323.229Z"/><path d="M791.518,340.373c-.302-1.506-.92-2.148-2.149-2.425l-6.271,4.455-.377-1.883,3.011-1.99,1.979-1.196-2.274-.359-3.564-.689-.358-1.788,7.17,1.582c2.613.586,3.696,1.429,4.215,4.018l-1.381.276Z"/><path d="M751.46,255.066l-.653-1.39,12.004-5.642.653,1.39-12.004,5.642Z"/><path d="M712.284,176.416l-1.056-1.306c.544-.522.31-1.32-.364-2.153-.613-.759-1.208-1.266-1.718-.853-.547.442.04,1.346.735,2.613.679,1.221,1.202,2.504.046,3.439-1.132.915-2.562.138-3.658-1.218-1.096-1.355-1.67-2.804-.37-4.02l1.056,1.307c-.526.569-.139,1.304.324,1.876.613.759,1.104,1.061,1.478.759.498-.401.052-1.131-.793-2.608-.663-1.15-1.191-2.491-.06-3.406,1.33-1.076,2.794-.182,4.04,1.36,1.187,1.468,1.665,3.076.34,4.209Z"/><path d="M705.016,169.522c-2.155,1.836-4.062.98-5.192-.347-1.173-1.376-1.674-3.346.457-5.161l.293-.249,3.59,4.213c.906-.835,1.084-1.785.192-2.833-.612-.718-1.33-.969-1.937-.62l-1.142-1.339c1.605-.927,3.113-.047,4.109,1.122,1.328,1.559,1.65,3.491-.371,5.214ZM700.801,165.883c-.734.814-.568,1.725.033,2.431s1.474,1.014,2.395.418l-2.428-2.849Z"/><path d="M698.481,161.965c-2.166,1.947-4.054,1.019-5.23-.29-1.06-1.179-1.749-2.903-.168-4.496l1.155,1.285c-.745.799-.559,1.534.073,2.236.834.928,1.815,1.015,2.993-.044,1.19-1.07,1.197-2.044.353-2.984-.621-.69-1.32-.966-2.193-.31l-1.155-1.285c1.728-1.381,3.414-.487,4.451.668,1.188,1.32,1.864,3.295-.278,5.22Z"/><path d="M691.769,154.554c-2.066,1.958-4.035,1.112-5.19-.106-1.232-1.301-1.916-3.209.174-5.189,2.056-1.947,4.036-1.112,5.19.106,1.232,1.301,1.905,3.22-.174,5.189ZM687.951,150.525c-1.149,1.089-1.188,2.072-.352,2.955.837.882,1.82.897,2.97-.191,1.139-1.079,1.188-2.073.352-2.955-.836-.883-1.832-.887-2.97.191Z"/><path d="M681.964,149.421l-1.052-1.054.679-.678c-.565.09-1.493.089-2.341-.76-.95-.951-1.379-2.196.24-3.812l3.091-3.087,1.21,1.211-2.854,2.85c-.815.814-1.087,1.425-.353,2.161.543.543,1.063.634,1.516.611l3.657-3.651,1.21,1.211-5.004,4.998Z"/><path d="M677.757,140.256c-1.795,1.891-3.576,1.698-4.689.642-.812-.771-.926-1.674-.914-2.104l-2.766,2.911-1.24-1.179,7.128-7.503,1.078,1.024-.639.673c.608-.106,1.572-.007,2.442.819,1.136,1.08,1.396,2.827-.4,4.717ZM675.216,135.57l-2.27,2.389c.023.464.196,1.048.719,1.543.881.838,1.88.529,2.816-.457.937-.985,1.193-1.999.312-2.836-.522-.496-1.114-.639-1.578-.639Z"/><path d="M671.556,132.102c-1.093,1.213-2.464.559-3.546-.416-.546-.492-1.043-1.112-1.267-1.486l-.386.428c-.61.678-.974,1.32,0,2.198.737.664,1.433.753,1.99.135l1.2,1.082c-1.296,1.438-2.912.864-4.184-.281-1.367-1.232-1.758-2.64-.43-4.113l1.961-2.175c.182-.202.175-.338-.039-.531-.143-.128-.389-.285-.563-.378l.76-.844c.3.098.812.343,1.204.696.665.6.545,1.116.191,1.508l-.086.096c.584-.099,1.605-.062,2.688.913,1.022.922,1.447,2.123.505,3.169ZM668.05,128.749l-.6.666c.172.263.617.749,1.068,1.156.701.632,1.283.919,1.732.42.364-.404.229-.851-.354-1.375-.666-.6-1.392-.846-1.847-.867Z"/><path d="M664.108,124.768l-1.326-1.133-2.837,3.32,1.326,1.132-.884,1.034-2.456-2.1,1.039-1.216c-.74.398-1.909.684-2.968-.221-.401-.343-.683-.752-.812-1.094l1.122-1.313c.133.387.463.838.815,1.139.852.728,1.726.738,2.295.614l2.058-2.408-2.263-1.933.873-1.021,4.889,4.178-.872,1.021Z"/><path d="M658.627,116.28c-1.194-.967-2.081-1.067-3.204-.494l-1.983,7.434-1.492-1.209,1.048-3.455.76-2.185-1.981,1.175-3.185,1.746-1.417-1.148,6.53-3.36c2.387-1.218,3.759-1.259,5.811.402l-.886,1.095Z"/><path d="M573.392,76.089l-1.389-.655,5.654-11.991,1.389.654-5.654,11.992Z"/><path d="M491.089,40.859l-.534,2.651,2.212.445-.269,1.333-2.212-.445-.647,3.216-1.678-.338.647-3.216-3.404-.686.269-1.333,3.404.686.521-2.589c.263-1.302.104-1.808-1.058-2.041-.644-.129-1.268-.108-1.795-.002l.271-1.35c.546-.118,1.243-.174,2.169.013,1.788.36,2.59,1.239,2.104,3.655Z"/><path d="M483.088,39.79c-.486,2.79-2.5,3.349-4.219,3.05-1.781-.311-3.424-1.507-2.943-4.265l.066-.378,5.453.95c.164-1.223-.306-2.067-1.661-2.304-.93-.162-1.642.104-1.886.76l-1.734-.303c.645-1.739,2.366-2.023,3.88-1.76,2.018.352,3.499,1.633,3.044,4.249ZM477.519,39.681c-.045,1.097.664,1.691,1.578,1.851s1.782-.16,2.11-1.207l-3.688-.644Z"/><path d="M473.104,35.913l-1.725-.253-.633,4.32,1.725.252-.197,1.346-3.196-.469.231-1.582c-.414.73-1.252,1.594-2.628,1.393-.522-.077-.979-.273-1.27-.493l.25-1.709c.318.257.838.462,1.297.529,1.107.162,1.854-.294,2.269-.702l.459-3.133-2.943-.432.195-1.329,6.361.933-.195,1.329Z"/><path d="M461.422,35.969l-.322,2.685,2.24.269-.162,1.351-2.24-.269-.391,3.256-1.7-.204.392-3.256-3.447-.414.162-1.351,3.447.414.314-2.621c.158-1.318-.04-1.81-1.216-1.95-.651-.078-1.272-.008-1.789.14l.164-1.366c.535-.161,1.225-.272,2.162-.159,1.811.217,2.68,1.03,2.386,3.477Z"/><path d="M453.145,33.351l-2.454-.228-.403,4.349,2.453.229-.126,1.354-4.158-.387.53-5.702-2.246-.209.124-1.338,6.404.595-.124,1.338ZM450.034,42.108l-2.087-.193.179-1.928,2.087.194-.179,1.927Z"/><path d="M443.469,32.999c-.109,1.628-1.59,1.962-3.043,1.864-.734-.049-1.508-.229-1.914-.385l-.038.575c-.062.909.051,1.639,1.359,1.726.989.066,1.591-.294,1.646-1.124l1.612.108c-.13,1.931-1.754,2.479-3.461,2.365-1.836-.123-3.013-.987-2.88-2.966l.195-2.921c.018-.271-.071-.374-.358-.394-.191-.013-.482.017-.677.052l.075-1.134c.296-.108.85-.231,1.376-.196.895.06,1.118.54,1.083,1.066l-.008.128c.397-.438,1.224-1.041,2.676-.943,1.373.092,2.449.773,2.355,2.178ZM438.643,32.532l-.061.895c.298.1.948.207,1.555.248.942.063,1.576-.071,1.621-.741.036-.543-.347-.809-1.129-.861-.894-.06-1.616.196-1.986.46Z"/><path d="M433.064,31.84l-1.743-.071-.179,4.365,1.743.071-.056,1.359-3.23-.132.065-1.6c-.336.771-1.079,1.718-2.471,1.66-.527-.021-1.002-.169-1.314-.357l.07-1.728c.344.223.882.373,1.346.392,1.119.046,1.813-.486,2.185-.936l.13-3.166-2.975-.122.056-1.344,6.429.264-.056,1.344Z"/><path d="M423.53,28.567c-1.535-.025-2.294.442-2.825,1.585l3.021,7.071-1.919-.031-1.305-3.364-.748-2.188-.835,2.146-1.43,3.335-1.823-.029,3.067-6.668c1.127-2.43,2.182-3.308,4.82-3.265l-.023,1.407Z"/><path d="M331.647,49.562l-1.497.342-2.947-12.928,1.497-.342,2.947,12.928Z"/><path d="M247.161,72.227c1.311,2.602-.081,4.181-1.653,4.974-1.416.713-3.263.926-4.385-1.019l1.544-.777c.575.929,1.334.94,2.178.516,1.115-.562,1.456-1.486.743-2.901-.72-1.43-1.659-1.692-2.788-1.123-.829.418-1.278,1.021-.875,2.036l-1.544.777c-.88-2.03.427-3.423,1.813-4.122,1.587-.799,3.67-.935,4.967,1.64Z"/><path d="M238.24,76.756c1.348,2.51.014,4.188-1.466,4.982-1.579.848-3.601,1.006-4.963-1.531-1.34-2.496-.015-4.188,1.466-4.982,1.579-.848,3.608-.993,4.963,1.531ZM233.348,79.382c.749,1.396,1.688,1.69,2.761,1.115,1.071-.575,1.345-1.521.595-2.917-.741-1.381-1.688-1.69-2.76-1.115s-1.337,1.535-.596,2.917Z"/><path d="M231.375,84.486l-1.125.643-.5-.875c.014.508-.06,1.379-.934,1.879-.723.412-1.395.171-1.79-.23,0,.387-.085,1.302-.946,1.793-.958.548-1.814-.049-2.513-1.271l-2.42-4.234,1.318-.754,2.285,3.999c.429.75.742.976,1.131.754.375-.215.494-.651.554-.998l-2.595-4.54,1.319-.754,2.285,3.999c.429.749.742.976,1.131.753.375-.214.508-.658.567-1.005l-2.595-4.541,1.319-.754,3.507,6.138Z"/><path d="M222.14,89.824l-1.271.771-.481-.793c-.057.615-.406,1.52-1.432,2.142-1.34.813-3.094.606-4.446-1.622-1.354-2.229-.701-3.897.611-4.694.957-.581,1.857-.454,2.27-.33l-1.893-3.117,1.463-.888,5.18,8.531ZM216.013,89.408c.705,1.162,1.607,1.662,2.646,1.031.615-.373.917-.893,1.038-1.341l-1.718-2.83c-.453-.099-1.054-.071-1.669.302-1.039.631-1.012,1.662-.298,2.838Z"/><path d="M210.651,90.159l-1.978,1.274,4.151,6.446,1.979-1.274.728,1.131-3.418,2.201-4.88-7.576-1.992,1.282-.728-1.131,5.41-3.483.728,1.13Z"/><path d="M202.236,95.635l-2.035,1.389,2.462,3.607,2.035-1.389.767,1.123-3.449,2.354-3.229-4.73-1.863,1.271-.757-1.11,5.312-3.625.758,1.11ZM205.424,104.364l-1.731,1.182-1.091-1.599,1.73-1.182,1.092,1.599Z"/><path d="M197.824,105.607l-1.05.758-.59-.817c.067.503.087,1.377-.73,1.966-.675.487-1.369.317-1.804-.04.041.385.053,1.304-.752,1.883-.895.646-1.81.143-2.633-.999l-2.853-3.956,1.232-.889,2.693,3.735c.505.701.841.893,1.204.631.35-.253.422-.699.444-1.051l-3.059-4.241,1.232-.889,2.694,3.735c.505.7.84.893,1.203.631.351-.253.436-.709.458-1.061l-3.059-4.241,1.232-.888,4.134,5.732Z"/><path d="M187.426,108.76c1.718,2.253.76,4.11-.628,5.168-1.438,1.097-3.432,1.49-5.131-.736l-.232-.306,4.403-3.357c-.785-.951-1.726-1.181-2.819-.346-.751.572-1.04,1.276-.725,1.9l-1.399,1.068c-.84-1.655.122-3.112,1.344-4.044,1.629-1.242,3.576-1.46,5.188.652ZM183.562,112.773c.774.778,1.692.662,2.43.1.738-.563,1.094-1.417.548-2.37l-2.978,2.271Z"/><path d="M181.319,117.96l-1.16.932-.602-.748c.029.572-.071,1.494-1.006,2.246-1.047.843-2.33,1.136-3.764-.647l-2.737-3.403,1.334-1.072,2.526,3.142c.722.897,1.3,1.233,2.11.581.598-.48.744-.988.771-1.44l-3.238-4.026,1.334-1.073,4.432,5.511Z"/><path d="M169.899,122.049l1.751,2.061,1.72-1.461.88,1.036-1.719,1.461,2.124,2.499-1.305,1.108-2.124-2.499-2.646,2.248-.881-1.036,2.646-2.248-1.71-2.012c-.86-1.012-1.355-1.199-2.258-.433-.5.425-.87.928-1.113,1.407l-.891-1.048c.245-.503.633-1.084,1.352-1.695,1.391-1.181,2.578-1.267,4.173.611Z"/><path d="M163.005,126.436c1.088,1.216.291,2.508-.793,3.479-.549.49-1.218.918-1.613,1.1l.384.429c.608.68,1.208,1.109,2.185.234.739-.661.901-1.343.347-1.963l1.204-1.077c1.29,1.442.548,2.986-.728,4.128-1.37,1.227-2.811,1.464-4.133-.014l-1.952-2.181c-.182-.203-.316-.21-.531-.019-.144.128-.325.355-.437.52l-.758-.846c.13-.288.428-.77.821-1.121.667-.598,1.167-.423,1.52-.029l.085.095c-.035-.591.111-1.602,1.196-2.572,1.024-.917,2.265-1.211,3.203-.162ZM159.298,129.56l.597.668c.28-.144.812-.533,1.265-.938.703-.629,1.05-1.176.603-1.677-.363-.405-.821-.317-1.405.205-.667.598-.988,1.293-1.059,1.742Z"/><path d="M154.889,133.08l-1.269,1.197,2.999,3.179,1.269-1.197.934.989-2.352,2.22-1.099-1.164c.317.778.476,1.973-.538,2.928-.384.363-.821.6-1.175.691l-1.187-1.258c.399-.09.883-.371,1.221-.689.814-.769.919-1.638.856-2.217l-2.175-2.306-2.166,2.044-.923-.979,4.681-4.416.923.978Z"/><path d="M145.868,137.613c-1.09,1.082-1.284,1.953-.836,3.131l7.175,2.773-1.362,1.354-3.321-1.414-2.09-.991.955,2.097,1.392,3.354-1.295,1.285-2.636-6.854c-.953-2.503-.847-3.872,1.026-5.732l.992.999Z"/><path d="M96.758,218.034l-.802,1.311-11.321-6.919.802-1.311,11.321,6.919Z"/><path d="M52.285,293.834c1.555.493,1.526,2.011,1.086,3.398-.223.701-.581,1.409-.829,1.767l.549.174c.869.276,1.604.341,2-.909.3-.944.093-1.614-.7-1.866l.489-1.539c1.844.585,1.99,2.293,1.473,3.924-.557,1.753-1.676,2.689-3.566,2.09l-2.789-.886c-.259-.082-.38-.02-.467.255-.058.183-.1.472-.111.669l-1.083-.343c-.034-.313-.022-.88.137-1.383.271-.854.791-.957,1.294-.798l.122.039c-.331-.491-.719-1.437-.279-2.823.416-1.312,1.334-2.194,2.676-1.769ZM50.683,298.41l.854.271c.168-.266.427-.871.611-1.45.285-.899.306-1.547-.334-1.75-.519-.165-.868.144-1.105.891-.271.854-.193,1.616-.025,2.039Z"/><path d="M54.147,305.384l-.413,1.431-.923-.267c.353.452.802,1.265.469,2.418-.373,1.292-1.256,2.271-3.455,1.636l-4.199-1.212.476-1.646,3.876,1.119c1.107.319,1.773.263,2.062-.737.213-.738.04-1.238-.198-1.624l-4.968-1.434.475-1.646,6.799,1.963Z"/><path d="M46.526,313.105c1.58.411,1.632,1.929,1.265,3.339-.185.712-.506,1.438-.735,1.81l.558.145c.883.229,1.62.256,1.951-1.014.249-.96.007-1.619-.798-1.828l.406-1.564c1.874.487,2.11,2.186,1.68,3.843-.464,1.781-1.532,2.776-3.453,2.277l-2.834-.737c-.264-.068-.381,0-.453.279-.049.186-.074.477-.076.675l-1.1-.286c-.052-.312-.069-.878.063-1.39.226-.867.739-.998,1.25-.865l.124.032c-.356-.473-.794-1.396-.428-2.807.347-1.332,1.218-2.263,2.58-1.908ZM45.167,317.761l.867.226c.153-.273.381-.893.534-1.481.237-.913.224-1.562-.427-1.731-.526-.137-.859.19-1.057.949-.226.867-.108,1.625.082,2.038Z"/><path d="M43.448,323.111l-.531,2.292,7.47,1.732.531-2.292,1.31.304-.918,3.961-8.78-2.036-.535,2.308-1.31-.304,1.454-6.269,1.31.304Z"/><path d="M43.454,332.948c2.789.567,3.228,2.664,2.893,4.31-.356,1.755-1.526,3.41-4.347,2.836-2.773-.564-3.228-2.664-2.893-4.31.356-1.755,1.542-3.406,4.347-2.836ZM42.348,338.385c1.551.316,2.378-.218,2.62-1.408.242-1.191-.31-2.006-1.861-2.321-1.536-.312-2.378.218-2.62,1.409-.242,1.19.325,2.008,1.861,2.32Z"/><path d="M37.578,342.199l-.285,1.624c-.828-.098-1.415.189-1.626,1.387-.256,1.45.486,1.76,1.416,1.924l.993.175c-.289-.392-.666-1.108-.478-2.181.286-1.623,1.61-2.771,4.006-2.35,2.411.425,3.286,2.01,3.009,3.586-.2,1.135-.906,1.823-1.453,2.067l.898.158-.259,1.467-7.156-1.262c-1.875-.33-2.648-1.571-2.242-3.872.271-1.545.978-3.062,3.177-2.724ZM39.227,347.511l3.026.533c.411-.302.768-.759.884-1.421.214-1.214-.562-1.887-1.822-2.108-1.261-.223-2.203.147-2.417,1.361-.117.662.046,1.211.329,1.635Z"/><path d="M39.784,352.655c2.816.421,3.364,2.492,3.116,4.154-.266,1.771-1.347,3.486-4.195,3.061-2.801-.418-3.364-2.492-3.115-4.153.265-1.772,1.361-3.485,4.194-3.062ZM38.963,358.145c1.566.234,2.365-.342,2.545-1.544.18-1.203-.415-1.987-1.981-2.222-1.551-.231-2.364.342-2.544,1.545-.181,1.202.43,1.989,1.98,2.221Z"/><path d="M37.455,362.985l4.337.528-.208,1.7-4.002-.488c-1.145-.14-1.793.022-1.919,1.056-.093.762.157,1.228.453,1.57l5.131.626-.207,1.699-7.021-.856.181-1.477.953.116c-.42-.391-.992-1.121-.847-2.312.163-1.334.878-2.439,3.149-2.162Z"/><path d="M35.852,372.467l-.16,1.673c-.755-.008-1.146.726-1.249,1.793-.093.972-.022,1.75.631,1.812.7.067.914-.989,1.305-2.383.37-1.347.896-2.631,2.377-2.489,1.449.14,1.928,1.696,1.761,3.433-.166,1.736-.77,3.174-2.55,3.132l.16-1.673c.775-.038,1.012-.836,1.082-1.568.094-.972-.046-1.531-.523-1.577-.638-.062-.83.772-1.261,2.419-.333,1.286-.894,2.615-2.344,2.477-1.704-.163-2.124-1.827-1.935-3.803.18-1.88.966-3.363,2.706-3.245Z"/><path d="M45.589,465.232l.219,1.521-13.13,1.885-.219-1.521,13.13-1.885Z"/><path d="M61.489,553.335l2.507-1.014-.846-2.091,1.261-.51.846,2.091,3.04-1.229.643,1.587-3.041,1.229,1.302,3.219-1.261.51-1.302-3.219-2.447.99c-1.23.497-1.565.908-1.121,2.006.246.608.607,1.118.985,1.5l-1.275.516c-.399-.391-.829-.941-1.183-1.816-.684-1.691-.391-2.845,1.893-3.769Z"/><path d="M63.186,561.834l.696,1.598,4.004-1.745-.697-1.599,1.246-.543,1.292,2.962-1.467.64c.84-.035,2.016.22,2.572,1.496.211.483.285.975.252,1.339l-1.584.69c.051-.406-.05-.956-.235-1.381-.447-1.026-1.229-1.419-1.795-1.556l-2.903,1.266,1.189,2.728-1.232.537-2.57-5.895,1.232-.537Z"/><path d="M67.257,571.058l1.044,2.232,3.957-1.85-1.043-2.232,1.232-.576,1.768,3.783-5.189,2.426.955,2.044-1.218.569-2.723-5.827,1.217-.569ZM76.388,569.317l.887,1.898-1.754.82-.888-1.899,1.755-.819Z"/><path d="M71.844,579.564c1.46-.729,2.498.38,3.149,1.683.329.658.564,1.417.637,1.846l.515-.258c.816-.407,1.389-.873.802-2.046-.443-.888-1.059-1.225-1.804-.852l-.723-1.446c1.732-.865,3.027.258,3.793,1.789.823,1.646.673,3.099-1.102,3.986l-2.619,1.31c-.244.122-.287.251-.158.508.086.172.258.408.387.559l-1.017.508c-.243-.2-.629-.615-.865-1.088-.401-.801-.101-1.237.372-1.474l.114-.058c-.579-.121-1.517-.529-2.168-1.832-.616-1.23-.573-2.505.687-3.135ZM73.884,583.965l.801-.4c-.064-.308-.3-.923-.572-1.467-.422-.845-.858-1.324-1.46-1.023-.486.243-.522.708-.172,1.409.401.802.988,1.296,1.403,1.481Z"/><path d="M77.842,587.715c2.301-1.229,3.932-.484,4.655.87.527.988.352,1.881.205,2.285l3.542-1.892.807,1.51-9.132,4.877-.701-1.312.818-.438c-.61-.091-1.494-.489-2.06-1.548-.739-1.383-.435-3.124,1.865-4.353ZM78.778,592.966l2.907-1.553c.124-.447.144-1.057-.196-1.691-.572-1.072-1.618-1.095-2.818-.454-1.199.641-1.763,1.522-1.189,2.595.339.636.855.958,1.297,1.104Z"/><path d="M80.904,597.999l1.217,2.143,3.799-2.157-1.217-2.144,1.183-.672,2.063,3.633-4.982,2.829,1.114,1.962-1.169.664-3.177-5.594,1.169-.664ZM89.869,595.54l1.035,1.823-1.684.956-1.036-1.823,1.685-.956Z"/><path d="M87.575,605.225c2.494-1.506,4.175-.239,5.084,1.269.819,1.356,1.173,3.181-.68,4.448l-.894-1.48c.883-.645.837-1.401.349-2.21-.646-1.069-1.593-1.338-2.949-.52-1.37.827-1.56,1.783-.906,2.865.479.795,1.114,1.196,2.096.717l.894,1.479c-1.957,1.031-3.445-.164-4.248-1.493-.918-1.521-1.211-3.587,1.255-5.075Z"/><path d="M149.689,674.583l1.084,1.088-9.398,9.36-1.084-1.088,9.398-9.36Z"/><path d="M215.018,735.842l1.41-2.309-1.926-1.177.71-1.161,1.925,1.178,1.712-2.8,1.461.893-1.711,2.8,2.963,1.812-.709,1.16-2.964-1.811-1.377,2.253c-.692,1.134-.716,1.663.294,2.281.561.342,1.154.536,1.687.617l-.718,1.175c-.554-.076-1.228-.263-2.033-.755-1.558-.952-2.01-2.054-.724-4.156Z"/><path d="M222.167,739.588c1.412-2.455,3.496-2.29,5.008-1.42,1.567.901,2.701,2.588,1.305,5.016l-.191.333-4.799-2.762c-.573,1.092-.421,2.047.771,2.733.818.471,1.579.465,2.033-.067l1.525.878c-1.201,1.414-2.917,1.091-4.248.325-1.775-1.021-2.729-2.733-1.404-5.036ZM227.361,741.598c.418-1.015-.045-1.815-.849-2.278-.805-.463-1.729-.46-2.397.411l3.246,1.867Z"/><path d="M232.336,745.914l1.286-2.378-1.983-1.073.647-1.196,1.983,1.074,1.562-2.884,1.505.814-1.561,2.884,3.053,1.652-.647,1.196-3.053-1.652-1.257,2.321c-.632,1.167-.627,1.697.414,2.261.576.312,1.18.475,1.715.528l-.655,1.21c-.557-.047-1.238-.198-2.068-.647-1.604-.868-2.113-1.943-.94-4.11Z"/><path d="M239.08,751.396l1.556.788,1.975-3.895-1.556-.788.615-1.213,2.882,1.461-.724,1.427c.626-.562,1.694-1.114,2.936-.484.471.238.841.569,1.047.871l-.781,1.541c-.22-.345-.646-.705-1.061-.914-.999-.507-1.852-.312-2.375-.057l-1.432,2.825,2.653,1.345-.607,1.199-5.735-2.908.607-1.198Z"/><path d="M247.947,755.278c.699-1.475,2.199-1.241,3.514-.617.665.314,1.318.767,1.639,1.06l.247-.52c.391-.824.554-1.543-.631-2.104-.896-.425-1.587-.311-1.943.441l-1.46-.692c.829-1.748,2.541-1.662,4.087-.93,1.662.788,2.438,2.023,1.589,3.815l-1.254,2.645c-.116.246-.07.373.189.497.174.082.454.162.648.201l-.486,1.025c-.315-.008-.875-.096-1.352-.322-.81-.384-.842-.912-.616-1.389l.055-.116c-.53.262-1.52.519-2.835-.104-1.242-.59-1.993-1.618-1.391-2.89ZM252.264,757.484l.384-.81c-.24-.202-.805-.541-1.354-.802-.853-.404-1.491-.512-1.779.095-.232.491.026.879.734,1.215.809.384,1.575.411,2.016.302Z"/><path d="M257.678,757.993c1.055-2.386,2.797-2.805,4.201-2.184,1.024.453,1.436,1.265,1.569,1.674l1.624-3.673,1.565.691-4.186,9.468-1.361-.602.376-.849c-.537.305-1.479.536-2.576.051-1.435-.634-2.268-2.192-1.213-4.577ZM261.649,761.55l1.333-3.014c-.178-.429-.538-.921-1.196-1.212-1.112-.491-1.949.136-2.499,1.38-.55,1.243-.45,2.284.662,2.776.658.291,1.264.227,1.7.069Z"/><path d="M266.424,764.202l2.279.935,1.658-4.04-2.279-.936.516-1.258,3.863,1.585-2.174,5.299,2.087.855-.51,1.244-5.95-2.441.51-1.243ZM271.96,756.737l1.938.796-.734,1.79-1.939-.795.735-1.791Z"/><path d="M276.147,765.787c1.033-2.721,3.136-2.762,4.78-2.137,1.48.562,2.884,1.778,2.208,3.918l-1.614-.613c.296-1.051-.207-1.618-1.09-1.953-1.166-.443-2.077-.07-2.64,1.41-.567,1.495-.127,2.363,1.054,2.812.868.329,1.615.253,2.091-.729l1.615.613c-.903,2.018-2.811,1.995-4.262,1.444-1.659-.63-3.164-2.073-2.143-4.766Z"/><path d="M367.806,781.994l1.525.187-1.606,13.168-1.525-.187,1.606-13.168Z"/></svg>