<?xml version="1.0" encoding="UTF-8"?><svg id="Layer_1" xmlns="http://www.w3.org/2000/svg" width="5.753in" height="5.753in" viewBox="0 0 414.25 414.25"><defs><style>.cls-1{fill:#ff69b4;opacity:.5;stroke:#231f20;stroke-miterlimit:10;stroke-width:.25px;}</style></defs><path class="cls-1" d="M207.125.125C92.802.125.125,92.802.125,207.125s92.677,207,207,207,207-92.677,207-207S321.448.125,207.125.125ZM207.125,345.125c-76.215,0-138-61.785-138-138s61.785-138,138-138,138,61.785,138,138-61.785,138-138,138Z"/><path d="M227.75,373.908l2.616-.362c2.219-.308,3.835.39,4.101,2.308.266,1.919-1.083,3.026-3.318,3.336l-1.301.181.457,3.298-1.315.182-1.239-8.941ZM229.692,378.244l1.315-.182c1.681-.233,2.236-1.005,2.096-2.02-.139-.999-.886-1.606-2.565-1.374l-1.316.183.471,3.393Z"/><path d="M238.229,379.649c-.313-1.586,1.007-2.254,2.326-2.515.659-.13,1.497-.181,2.015-.12l-.117-.597c-.208-1.052-.514-1.855-1.989-1.564-1.131.223-1.615.824-1.43,1.767l-1.193.235c-.387-1.963,1.131-2.784,2.513-3.058,1.806-.355,2.938.335,3.29,2.125l.613,3.108c.053.267.166.343.448.287.22-.044.509-.149.748-.262l.173.879c-.229.159-.657.391-1.144.486-.816.161-1.113-.27-1.203-.725l-.025-.126c-.268.543-.923,1.275-2.288,1.545-1.319.26-2.471-.116-2.736-1.467ZM242.955,378.961l-.211-1.067c-.396-.021-1.07.031-1.762.168-1.067.21-1.668.558-1.519,1.311.12.612.604.827,1.498.65.911-.18,1.562-.602,1.993-1.062Z"/><path d="M248.695,378.212l2.338-.604-2.019-7.821-2.339.604-.264-1.022,3.562-.919,2.282,8.844,2.339-.604.268,1.038-5.9,1.523-.268-1.038Z"/><path d="M257.443,373.378c-.85-2.649.572-4.029,2.11-4.522,1.492-.479,3.502-.232,4.356,2.433l.078.243-5.269,1.689c.524,1.427,1.464,1.999,2.85,1.555,1.051-.337,1.604-1.018,1.488-1.904l1.219-.391c.292,1.854-1.141,2.885-2.42,3.295-1.767.566-3.612.101-4.413-2.397ZM262.462,371.012c-.538-1.153-1.499-1.534-2.596-1.183s-1.658,1.221-1.424,2.472l4.02-1.289Z"/><path d="M269.018,370.114l-1.107-2.865-2.134.825-.387-1,2.134-.825-1.165-3.015,1.179-.455,1.165,3.014,3.194-1.233.386.999-3.193,1.234,1.09,2.82c.514,1.328.987,1.712,2.122,1.273.656-.254,1.127-.59,1.472-.896l.387,1c-.169.186-.721.622-1.631.974-1.566.605-2.657.358-3.511-1.851Z"/><path d="M278.365,366.287l-1.269-2.798-2.083.945-.443-.977,2.084-.945-1.335-2.943,1.151-.521,1.335,2.943,3.118-1.414.442.977-3.118,1.414,1.249,2.754c.588,1.297,1.083,1.652,2.19,1.15.641-.291,1.092-.653,1.419-.978l.442.977c-.157.194-.684.661-1.572,1.064-1.53.693-2.633.508-3.611-1.648Z"/><path d="M285.419,362.277c-1.296-2.465-.134-4.069,1.297-4.822,1.388-.729,3.41-.835,4.714,1.643l.119.227-4.899,2.577c.764,1.315,1.788,1.716,3.076,1.039.978-.515,1.405-1.281,1.138-2.135l1.133-.596c.608,1.776-.625,3.04-1.814,3.665-1.643.864-3.542.725-4.763-1.598ZM289.955,359.078c-.73-1.044-1.743-1.252-2.763-.717-1.02.537-1.423,1.489-.976,2.683l3.738-1.966Z"/><path d="M316.047,333.952l.876-.75,8.513,9.948-.876.749-8.513-9.947Z"/><path d="M341.182,309.43l1.051-1.412,3.024.975,1.954.697-1.238-1.659-1.801-2.617,1.021-1.373,7.238,5.387-.717.963-4.234-3.152-1.948-1.59,3.171,4.555-.611.821-5.272-1.731,2.082,1.41,4.234,3.152-.716.962-7.238-5.387Z"/><path d="M347.393,298.695l.89-1.35,1.35.889-.889,1.351-1.351-.89ZM353.73,305.687l1.392-2.111-4.037-2.659-1.391,2.112-.896-.59,2.086-3.168,4.933,3.248,1.268-1.925.896.59-3.354,5.093-.896-.59Z"/><path d="M358.231,293.879l-4.457.893.771-1.328,3.345-.632-1.129-3.188.754-1.301,1.455,4.284,4.66-.923-.771,1.328-3.555.676,1.179,3.421-.755,1.301-1.497-4.53Z"/><path d="M357.144,282.038l.729-1.442,1.442.729-.729,1.443-1.442-.729ZM364.237,288.258l1.141-2.257-4.313-2.18-1.14,2.257-.957-.483,1.71-3.385,5.271,2.663,1.039-2.057.957.483-2.75,5.441-.957-.483Z"/><path d="M363.377,276.601l.421-.969.852.369c-.321-.506-.584-1.388-.086-2.532.465-1.072,1.422-1.947,3.55-1.022l3.935,1.709-.504,1.16-3.685-1.602c-1.204-.522-1.989-.603-2.474.514-.377.865-.176,1.528-.008,1.863l4.903,2.131-.504,1.159-6.4-2.78Z"/><path d="M374.099,270.545l.425-1.156c.937.327,1.579.019,2.016-1.168.574-1.562-.155-2.034-1.102-2.382l-.871-.32c.196.396.424,1.212.06,2.203-.542,1.472-2.018,2.378-4.374,1.511-2.388-.879-2.907-2.57-2.383-3.996.392-1.066,1.218-1.598,1.77-1.753l-.841-.31.364-.99,6.802,2.502c1.667.613,2.305,1.751,1.521,3.884-.563,1.531-1.519,2.646-3.386,1.976ZM373.681,265.193l-3.453-1.271c-.555.256-1.009.703-1.252,1.363-.475,1.291.291,2.221,1.703,2.74,1.411.52,2.597.308,3.072-.983.243-.661.187-1.295-.07-1.85Z"/><path d="M374.016,227.703l.146-1.143,12.981,1.66-.146,1.143-12.981-1.66Z"/><path d="M376.124,192.145l-.251-2.628c-.214-2.23.551-3.815,2.479-4,1.927-.185,2.978,1.21,3.192,3.456l.125,1.307,3.313-.317.127,1.322-8.985.86ZM380.538,190.388l-.127-1.322c-.162-1.688-.909-2.276-1.929-2.179-1.004.097-1.642.816-1.48,2.505l.127,1.322,3.409-.326Z"/><path d="M382.306,181.93c-1.597.245-2.208-1.101-2.411-2.429-.103-.664-.118-1.503-.035-2.018l-.601.093c-1.06.162-1.875.433-1.647,1.919.175,1.139.755,1.647,1.703,1.502l.185,1.202c-1.976.303-2.731-1.248-2.945-2.639-.279-1.818.458-2.918,2.261-3.194l3.13-.48c.269-.042.349-.151.306-.436-.034-.222-.128-.515-.229-.758l.885-.136c.149.236.362.673.438,1.163.126.821-.316,1.1-.775,1.17l-.126.02c.53.291,1.233.976,1.444,2.352.204,1.327-.221,2.461-1.58,2.669ZM381.819,177.183l-1.074.165c-.037.394-.014,1.07.093,1.766.165,1.075.485,1.689,1.244,1.572.617-.095.852-.567.713-1.468-.141-.917-.534-1.585-.976-2.035Z"/><path d="M375.497,172.461l-.221-1.033.908-.193c-.556-.226-1.282-.791-1.543-2.012-.244-1.143.025-2.412,2.296-2.896l4.195-.896.264,1.237-3.929.838c-1.284.274-1.97.666-1.716,1.856.197.924.746,1.347,1.078,1.521l5.229-1.116.264,1.236-6.825,1.457Z"/><path d="M376.952,160.4l-2.962.814.606,2.206-1.033.284-.606-2.205-3.116.856-.335-1.219,3.115-.856-.907-3.302,1.033-.284.908,3.302,2.915-.802c1.373-.378,1.802-.811,1.479-1.983-.187-.679-.474-1.181-.743-1.555l1.034-.284c.167.187.546.779.805,1.72.445,1.62.09,2.681-2.193,3.308Z"/><path d="M374.103,152.789c-2.696.912-4.054-.554-4.566-2.068-.513-1.516-.304-3.443,2.348-4.341,2.712-.918,4.074.563,4.582,2.063.518,1.53.273,3.453-2.363,4.346ZM372.319,147.566c-1.667.564-2.214,1.543-1.773,2.846.441,1.304,1.47,1.749,3.137,1.185,1.651-.559,2.214-1.542,1.772-2.846-.44-1.303-1.484-1.743-3.136-1.185Z"/><path d="M367.353,144.114l-.395-.979.859-.347c-.585-.126-1.396-.558-1.863-1.714-.437-1.083-.39-2.378,1.761-3.245l3.975-1.604.473,1.172-3.723,1.502c-1.217.49-1.823.993-1.369,2.121.353.875.966,1.196,1.322,1.312l4.954-1.998.473,1.172-6.467,2.608Z"/><path d="M366.954,134.025c-2.517,1.189-4.071-.041-4.762-1.502-.67-1.417-.689-3.443,1.842-4.64l.231-.109,2.365,5.005c1.347-.707,1.792-1.713,1.17-3.029-.472-.998-1.221-1.459-2.084-1.228l-.547-1.157c1.801-.532,3.01.754,3.584,1.969.793,1.678.572,3.57-1.8,4.691ZM363.951,129.356c-1.074.685-1.325,1.688-.833,2.729.492,1.042,1.427,1.484,2.638,1.09l-1.805-3.819Z"/><path d="M339.963,102.229l-.711-.906,10.298-8.076.711.906-10.298,8.076Z"/><path d="M316.122,75.773l-4.559-3.701.717-.882,3.527,2.864,1.714-2.111-3.067-2.491.716-.882,3.068,2.491,1.825-2.248-3.527-2.864.716-.882,4.559,3.701-5.688,7.005Z"/><path d="M315.379,61.239c-1.193-.86-2.125-.882-3.317-.185l-1.657,7.52-1.115-.805.96-3.901.609-2.32-1.991,1.284-3.443,2.15-1.063-.768,6.412-3.833c2.11-1.259,3.43-1.312,5.232-.012l-.626.869Z"/><path d="M303.978,59.738c-1.497,2.347-3.468,2.134-4.83,1.265-1.322-.844-2.417-2.548-.911-4.909l.138-.216,4.667,2.978c.764-1.315.604-2.404-.623-3.188-.931-.594-1.81-.585-2.418.071l-1.079-.688c1.241-1.41,2.95-.965,4.083-.242,1.564.998,2.385,2.718.974,4.93ZM298.951,57.384c-.545,1.151-.224,2.135.748,2.755.971.619,1.998.496,2.812-.483l-3.561-2.271Z"/><path d="M293.794,55.318l-4.133-2.312.547-.978,4.133,2.312-.547.978Z"/><path d="M283.747,54.357l-2.374-1.155c-2.662-1.296-2.562-3.329-1.435-5.646,1.163-2.389,2.766-3.744,5.385-2.469l2.374,1.155-3.95,8.115ZM286.006,46.682l-1.18-.574c-1.986-.967-2.991.697-3.622,1.992-.638,1.31-1.319,3.113.666,4.08l1.18.574,2.956-6.072Z"/><path d="M278.196,42.943l-1.67-.696-1.861,4.46,1.669.697-.413.989-2.644-1.104.61-1.462c-.537.539-1.559,1.24-2.917.673-.502-.21-.905-.534-1.036-.676l.499-1.196c.155.169.54.451,1.013.648,1.123.469,1.983.151,2.526-.194l1.388-3.323-2.792-1.165.413-.989,5.628,2.349-.413.989Z"/><path d="M268.279,41.507c-.942,2.687-2.933,2.853-4.442,2.323-1.509-.53-2.898-1.882-1.973-4.522.948-2.701,2.954-2.862,4.447-2.338,1.524.534,2.889,1.911,1.968,4.537ZM263.067,39.696c-.582,1.66-.148,2.693,1.149,3.149,1.298.455,2.282-.081,2.865-1.741.577-1.645.148-2.693-1.149-3.148s-2.288.096-2.865,1.74Z"/><path d="M257.275,41.492l-1.016-.291.247-.861c-.485.36-1.352.711-2.475.389-1.431-.41-2.521-1.771-1.794-4.309.701-2.446,2.328-3.128,3.805-2.705,1.015.291,1.562.997,1.746,1.399l.987-3.445,1.216.349-2.717,9.475ZM253.469,36.772c-.424,1.477-.146,2.654,1.178,3.034.738.211,1.38.062,1.854-.201l1.041-3.63c-.264-.475-.729-.941-1.467-1.152-1.323-.38-2.184.473-2.606,1.949Z"/><path d="M247.802,38.897l-1.029-.232.197-.874c-.465.387-1.311.786-2.449.529-1.452-.328-2.619-1.625-2.038-4.2.561-2.482,2.146-3.256,3.646-2.918,1.029.232,1.616.906,1.823,1.298l.789-3.497,1.233.278-2.172,9.616ZM243.731,34.401c-.338,1.499.007,2.659,1.35,2.963.749.169,1.381-.017,1.841-.307l.831-3.684c-.29-.459-.781-.898-1.53-1.067-1.343-.304-2.152.597-2.491,2.095Z"/><path d="M239.265,33.478c-.454,2.748-2.351,3.327-3.945,3.063-1.548-.256-3.226-1.393-2.769-4.156l.041-.253,5.465.903c.185-1.511-.391-2.45-1.827-2.688-1.09-.18-1.895.174-2.196,1.017l-1.264-.209c.587-1.785,2.334-2.048,3.661-1.829,1.831.303,3.263,1.562,2.834,4.151ZM233.715,33.292c-.048,1.273.635,2.052,1.771,2.239s2.034-.329,2.397-1.551l-4.169-.688Z"/><path d="M229.265,29.508l-1.798-.192-.517,4.806,1.799.193-.114,1.066-2.85-.306.17-1.576c-.362.67-1.142,1.633-2.605,1.476-.541-.059-1.02-.255-1.186-.353l.139-1.29c.196.118.646.279,1.155.334,1.209.13,1.944-.419,2.367-.905l.384-3.581-3.008-.322.114-1.066,6.064.651-.115,1.065Z"/><path d="M188.134,38.366l-1.145.133-1.511-13.006,1.146-.134,1.51,13.007Z"/><path d="M153.125,44.87l-1.673.593-5.248-6.336,1.001,2.395,1.714,4.839-1.131.4-3.012-8.502,1.674-.593,5.247,6.336-1-2.395-1.715-4.839,1.131-.4,3.012,8.502Z"/><path d="M141.711,41.369c.627,1.489-.529,2.41-1.768,2.932-.619.261-1.43.48-1.948.526l.236.56c.416.987.877,1.713,2.263,1.129,1.062-.447,1.414-1.134,1.042-2.018l1.12-.473c.776,1.843-.543,2.954-1.841,3.501-1.694.714-2.941.268-3.649-1.413l-1.229-2.919c-.105-.25-.231-.302-.497-.189-.206.087-.468.249-.679.407l-.348-.825c.192-.202.563-.516,1.021-.708.767-.323,1.145.039,1.325.466l.05.118c.152-.585.645-1.435,1.927-1.975,1.238-.522,2.441-.387,2.976.881ZM137.225,42.999l.423,1.002c.391-.061,1.041-.247,1.689-.521,1.002-.423,1.52-.884,1.222-1.591-.242-.575-.758-.688-1.599-.333-.854.359-1.406.904-1.735,1.442Z"/><path d="M131.108,47.17l1.354,2.757,2.053-1.008.473.962-2.054,1.009,1.425,2.9-1.135.557-1.424-2.9-3.073,1.509-.472-.963,3.072-1.508-1.332-2.714c-.628-1.278-1.133-1.618-2.225-1.082-.631.31-1.07.686-1.388,1.02l-.473-.962c.152-.199.663-.682,1.539-1.111,1.508-.74,2.615-.59,3.659,1.535Z"/><path d="M123.288,50.988l2.105,3.734-1.101.62-1.972-3.496c-.645-1.143-1.223-1.68-2.282-1.082-.821.463-1.062,1.112-1.129,1.481l2.625,4.653-1.101.62-3.427-6.074.92-.519.456.809c.049-.597.371-1.458,1.457-2.071,1.018-.573,2.308-.695,3.447,1.324Z"/><path d="M113.863,54.59l-1.521.978,2.613,4.064,1.521-.978.58.901-2.409,1.549-.856-1.332c.138.747.135,1.985-1.103,2.781-.458.295-.953.441-1.145.47l-.701-1.09c.228-.032.678-.188,1.108-.466,1.023-.657,1.251-1.546,1.275-2.188l-1.947-3.028-2.543,1.635-.58-.901,5.128-3.296.579.901Z"/><path d="M107.06,61.924c1.636,2.252.716,4.007-.591,4.956-1.268.921-3.254,1.316-4.899-.948l-.15-.207,4.478-3.252c-.945-1.191-2.016-1.441-3.193-.586-.893.648-1.206,1.469-.818,2.274l-1.035.752c-.857-1.67.182-3.097,1.269-3.887,1.501-1.09,3.399-1.225,4.941.897ZM103.031,65.74c.872.929,1.904.989,2.836.312s1.193-1.678.58-2.793l-3.416,2.48Z"/><path d="M80.817,94.362l-.76.867-9.848-8.625.759-.867,9.849,8.625Z"/><path d="M59.242,122.674l-.631,1.169-3.395-1.831-1.443,2.676,3.395,1.831-.631,1.169-7.943-4.285.631-1.169,3.562,1.922,1.444-2.676-3.563-1.923.631-1.169,7.943,4.286Z"/><path d="M54.715,131.298l-2.486,5.319-1.029-.48,1.924-4.117-2.464-1.151-1.674,3.58-1.029-.48,1.674-3.581-2.624-1.226-1.924,4.116-1.029-.48,2.486-5.32,8.176,3.821Z"/><path d="M45.843,140.452l5.197-1.147-.57,1.428-2.358.471-1.677.312.994,1.396,1.386,1.967-.559,1.396-2.947-4.399-5.494,1.2.57-1.427,2.698-.542,1.625-.316-.967-1.333-1.57-2.282.552-1.382,3.12,4.658Z"/><path d="M40.855,147.469l.507-1.519.875.512-.501,1.503,1.933,1.084.507-1.519.876.512-.502,1.503,2.141,1.221-.35,1.048-2.141-1.221-.618,1.853,2.141,1.22-.35,1.048-2.141-1.221-.506,1.519-.876-.512.502-1.503-1.934-1.084-.507,1.519-.875-.512.501-1.503-2.171-1.23.35-1.048,2.171,1.23.618-1.852-2.171-1.23.35-1.048,2.171,1.23ZM41.387,149.013l-.618,1.853,1.934,1.083.617-1.852-1.933-1.084Z"/><path d="M39.658,188.578l-.111,1.147-13.03-1.261.11-1.147,13.031,1.261Z"/><path d="M38.443,222.972l.162,1.285-4.819,1.155-2.839.632,4.915.751.156,1.237-4.577,1.931,2.908-.075,4.954-.093.159,1.27-9.09.017-.212-1.682,4.206-1.804-4.521-.704-.212-1.682,8.81-2.238Z"/><path d="M41.09,233.599l.229,1.243-3.917.722c.396.204,1.051.669,1.268,1.849.215,1.164-.087,2.439-2.368,2.86l-4.216.776-.229-1.242,3.949-.729c1.29-.237,1.985-.609,1.766-1.805-.171-.929-.707-1.366-1.034-1.551l-5.255.969-.229-1.243,10.037-1.85Z"/><path d="M36.283,244.137c2.703-.664,3.98.851,4.366,2.42.374,1.522-.011,3.511-2.729,4.178l-.248.062-1.32-5.375c-1.46.425-2.097,1.322-1.749,2.735.263,1.072.904,1.672,1.797,1.618l.306,1.242c-1.871.163-2.8-1.338-3.12-2.644-.442-1.802.151-3.61,2.698-4.236ZM38.295,249.309c1.188-.457,1.635-1.39,1.36-2.508-.274-1.119-1.103-1.739-2.368-1.593l1.008,4.101Z"/><path d="M38.771,253.891c2.66-.817,4.022.621,4.497,2.165.461,1.499.19,3.506-2.484,4.329l-.245.075-1.626-5.291c-1.434.508-2.018,1.44-1.59,2.832.324,1.055.999,1.617,1.888,1.512l.376,1.223c-1.858.271-2.872-1.176-3.267-2.46-.545-1.773-.057-3.613,2.451-4.385ZM41.076,258.94c1.16-.524,1.553-1.481,1.214-2.583-.338-1.101-1.2-1.672-2.455-1.454l1.241,4.037Z"/><path d="M39.682,264.618l.841,2.266,7.574-2.812-.841-2.266.99-.367,1.281,3.45-8.565,3.18.842,2.265-1.006.373-2.121-5.714,1.005-.374Z"/><path d="M66.016,297.425l.633.963-10.934,7.189-.633-.963,10.934-7.189Z"/><path d="M82.709,330.068l.934.898c-.675.794-.579,1.686.377,2.606.876.843,1.784,1.052,2.417.396.488-.508.376-1.06-.013-1.833l-.917-1.837c-.517-1.031-.696-2.159.213-3.104,1.109-1.152,2.7-.798,3.979.434,1.313,1.265,1.613,2.774.338,4.122l-.921-.888c.841-.966.406-1.806-.238-2.427-.841-.81-1.656-.862-2.167-.332-.422.438-.389,1.002-.036,1.697l.917,1.837c.693,1.379.745,2.294-.109,3.181-1.275,1.325-2.901.869-4.249-.429-1.475-1.42-1.776-3.021-.523-4.322Z"/><path d="M93.294,334.003l.801.688-.583.68c.592-.125,1.525-.082,2.412.679,1.13.969,1.555,2.661-.165,4.666-1.657,1.931-3.421,1.873-4.587.872-.802-.688-1.004-1.558-1.004-2l-2.335,2.721-.959-.823,6.42-7.482ZM94.787,339.881c1-1.166,1.238-2.354.194-3.25-.583-.5-1.229-.632-1.771-.591l-2.46,2.866c.042.542.271,1.16.854,1.66,1.045.896,2.182.48,3.183-.686Z"/><path d="M98.271,342.775c1.688-2.212,3.633-1.833,4.917-.854,1.245.951,2.192,2.741.494,4.966l-.155.203-4.397-3.358c-.871,1.247-.804,2.345.353,3.228.877.67,1.753.734,2.414.133l1.017.776c-1.354,1.3-3.02.713-4.087-.103-1.475-1.126-2.146-2.906-.555-4.991ZM103.08,345.542c.64-1.102.402-2.107-.513-2.807-.916-.698-1.949-.662-2.843.244l3.355,2.562Z"/><path d="M106.339,348.797c1.624-2.397,3.635-1.943,4.934-1.063,1.112.753,2.171,2.128,1.11,3.921l-1.046-.708c.549-1.039.15-1.734-.657-2.281-1.179-.799-2.281-.599-3.268.858-.996,1.47-.765,2.555.414,3.354.808.547,1.602.659,2.362-.235l1.046.708c-1.263,1.637-2.98,1.149-4.054.423-1.364-.924-2.447-2.604-.842-4.976Z"/><path d="M116.031,355.897l1.573-2.64-1.966-1.172.549-.921,1.966,1.172,1.655-2.777,1.087.647-1.655,2.777,2.941,1.753-.549.922-2.942-1.754-1.548,2.599c-.729,1.224-.739,1.833.306,2.455.605.361,1.16.524,1.613.607l-.549.922c-.25-.019-.934-.185-1.772-.685-1.443-.86-1.922-1.871-.709-3.906Z"/><path d="M122.564,361.706l1.604.835,2.23-4.286-1.604-.834.495-.951,2.54,1.322-.731,1.405c.581-.492,1.657-1.104,2.962-.425.482.251.856.607.976.76l-.599,1.149c-.14-.181-.5-.494-.954-.73-1.078-.562-1.962-.318-2.532-.02l-1.662,3.192,2.683,1.396-.495.95-5.406-2.813.494-.951Z"/><path d="M131.639,365.494c.663-1.473,2.125-1.254,3.351-.702.613.275,1.325.719,1.712,1.067l.25-.554c.439-.978.655-1.81-.716-2.427-1.05-.473-1.793-.263-2.187.612l-1.109-.499c.82-1.823,2.533-1.614,3.816-1.036,1.678.754,2.2,1.972,1.452,3.634l-1.299,2.889c-.111.248-.063.375.199.493.204.092.501.173.761.22l-.368.816c-.279-.003-.761-.062-1.213-.266-.759-.341-.752-.863-.562-1.287l.053-.116c-.532.286-1.49.505-2.759-.066-1.226-.551-1.945-1.523-1.382-2.778ZM135.888,367.669l.446-.992c-.311-.245-.891-.594-1.532-.883-.992-.445-1.683-.511-1.997.189-.256.569.014,1.023.845,1.397.846.381,1.621.413,2.238.288Z"/><path d="M140.984,370.371l2.258.861,2.882-7.552-2.258-.861.376-.987,3.439,1.312-3.258,8.539,2.258.861-.383,1.002-5.697-2.174.383-1.002Z"/><path d="M183.002,372.235l1.141.159-1.81,12.956-1.141-.159,1.81-12.956Z"/></svg>