<?xml version="1.0" encoding="UTF-8"?><svg id="Layer_1" xmlns="http://www.w3.org/2000/svg" width="11.503in" height="11.503in" viewBox="0 0 828.25 828.25"><defs><style>.cls-1{fill:#ff69b4;opacity:.5;stroke:#231f20;stroke-miterlimit:10;stroke-width:.25px;}</style></defs><path class="cls-1" d="M414.684-.126C186.038-.126.684,185.228.684,413.874s185.354,414,414,414,414-185.354,414-414S643.33-.126,414.684-.126ZM414.684,758.874c-190.538,0-345-154.462-345-345S224.145,68.874,414.684,68.874s345,154.462,345,345-154.462,345-345,345Z"/><path d="M456.561,783.493l2.191-.265,1.177,2.532.814,1.933.298-2.066.538-2.741,2.129-.258,1.1,9.086-1.572.19-.562-4.638-.147-2.819-.971,5.162-1.239.15-2.175-4.781.529,2.772.562,4.638-1.572.19-1.1-9.086Z"/><path d="M467.104,787.835c-.418-2.816,1.403-3.944,3.065-4.191,1.771-.263,3.728.271,4.15,3.12.416,2.801-1.403,3.943-3.065,4.19-1.771.264-3.729-.287-4.15-3.119ZM472.596,787.02c-.233-1.566-1.017-2.162-2.22-1.983-1.202.179-1.779.976-1.547,2.543.23,1.55,1.017,2.161,2.22,1.982,1.202-.179,1.776-.991,1.547-2.542Z"/><path d="M476.927,782.753l1.466-.257.165.945c.251-.515.784-1.274,1.967-1.481,1.324-.231,2.59.131,2.984,2.386l.754,4.303-1.687.296-.696-3.973c-.198-1.135-.543-1.708-1.567-1.528-.756.132-1.129.506-1.371.89l.893,5.092-1.687.295-1.221-6.967Z"/><path d="M486.849,784.569c-.565-2.792,1.195-4.014,2.843-4.347,1.757-.355,3.738.076,4.31,2.899.562,2.776-1.196,4.014-2.843,4.348-1.757.355-3.742-.093-4.31-2.9ZM492.291,783.467c-.314-1.553-1.128-2.106-2.32-1.865s-1.727,1.068-1.413,2.621c.312,1.537,1.129,2.106,2.321,1.865,1.191-.241,1.724-1.083,1.412-2.621Z"/><path d="M496.657,782.54c-.655-2.838,1.07-4.041,2.786-4.438,1.544-.356,3.388-.125,4.017,2.029l-1.685.389c-.338-1.038-1.072-1.23-1.992-1.018-1.217.28-1.767,1.098-1.41,2.642.359,1.56,1.209,2.036,2.441,1.752.904-.209,1.483-.688,1.332-1.77l1.685-.389c.372,2.181-1.227,3.224-2.739,3.572-1.731.4-3.786.037-4.435-2.771Z"/><path d="M505.228,773.522l1.657-.429,1.02,3.934c.152-.37.63-1.139,1.699-1.415,1.301-.338,2.561-.069,3.134,2.146l1.096,4.229-1.657.43-1.011-3.903c-.289-1.115-.678-1.659-1.685-1.398-.743.193-1.085.596-1.296.997l1.297,5.003-1.657.429-2.597-10.021Z"/><path d="M517.123,779.696l1.677-.482-1.208-4.198-1.677.482-.376-1.308,3.107-.894.442,1.538c.075-.838.482-1.971,1.82-2.356.508-.146,1.004-.155,1.36-.074l.479,1.661c-.396-.104-.955-.075-1.4.053-1.077.31-1.568,1.034-1.778,1.577l.876,3.046,2.861-.823.372,1.292-6.184,1.778-.372-1.292Z"/><path d="M525.693,774.914c-.858-2.716.763-4.117,2.365-4.624,1.709-.54,3.725-.321,4.593,2.426.854,2.7-.763,4.118-2.365,4.624-1.709.54-3.729.306-4.593-2.426ZM530.988,773.242c-.478-1.511-1.346-1.975-2.505-1.608-1.16.367-1.604,1.245-1.127,2.756.473,1.495,1.346,1.975,2.506,1.608,1.159-.366,1.599-1.261,1.126-2.756Z"/><path d="M533.875,768.585l1.225-.424.33.952c.08-.501.313-1.344,1.266-1.674.787-.272,1.403.09,1.717.558.072-.381.325-1.265,1.263-1.589,1.043-.361,1.775.385,2.236,1.715l1.596,4.612-1.437.497-1.507-4.354c-.283-.816-.549-1.097-.973-.95-.408.141-.606.548-.729.879l1.711,4.944-1.437.497-1.507-4.354c-.283-.817-.549-1.098-.973-.951-.408.142-.621.554-.744.885l1.712,4.944-1.437.497-2.313-6.684Z"/><path d="M545.307,770.112c-.574-1.526.636-2.443,1.998-2.955.688-.26,1.467-.416,1.901-.442l-.203-.539c-.321-.853-.724-1.47-1.951-1.009-.929.35-1.326.927-1.033,1.705l-1.513.568c-.681-1.812.57-2.982,2.172-3.585,1.722-.647,3.15-.348,3.848,1.509l1.031,2.739c.096.255.219.311.488.209.18-.067.433-.214.595-.326l.4,1.062c-.225.222-.678.562-1.172.748-.838.315-1.24-.028-1.427-.522l-.045-.12c-.181.564-.684,1.454-2.046,1.966-1.287.484-2.549.31-3.044-1.008ZM549.893,768.54l-.315-.838c-.312.032-.948.203-1.518.417-.883.332-1.405.717-1.168,1.345.191.51.649.593,1.383.317.839-.315,1.391-.848,1.618-1.241Z"/><path d="M556.066,764.739l-1.019-2.504-2.089.85-.513-1.259,2.089-.85-1.235-3.038,1.585-.645,1.236,3.037,3.215-1.308.513,1.259-3.216,1.309.995,2.444c.5,1.229.912,1.563,2.008,1.117.607-.247,1.116-.609,1.498-.989l.518,1.274c-.39.4-.939.831-1.813,1.187-1.689.688-2.844.397-3.771-1.885Z"/><path d="M564.593,763.014l2.256-.989-1.754-3.999-2.256.989-.546-1.245,3.823-1.677,2.3,5.244,2.065-.906.54,1.23-5.889,2.583-.54-1.23ZM563.071,753.848l1.919-.842.777,1.772-1.919.842-.777-1.772Z"/><path d="M572.468,757.131c-1.238-2.635.195-4.175,1.788-4.924,1.434-.674,3.284-.836,4.353,1.137l-1.564.735c-.549-.944-1.307-.977-2.161-.575-1.13.53-1.496,1.445-.822,2.879.681,1.447,1.611,1.735,2.756,1.197.84-.395,1.305-.984.929-2.01l1.564-.735c.823,2.053-.52,3.409-1.925,4.069-1.607.755-3.691.833-4.917-1.773Z"/><path d="M647.881,702.509l1.195-.966,8.336,10.322-1.195.966-8.336-10.322Z"/><path d="M717.12,647.406l1-1.309c.689.466,1.342.481,2.08-.484.893-1.17.376-1.785-.373-2.357l-.801-.611c.075.48.081,1.289-.579,2.153-.999,1.31-2.701,1.721-4.633.245-1.945-1.484-1.993-3.292-1.022-4.563.698-.915,1.641-1.201,2.239-1.167l-.725-.554.902-1.182,5.771,4.406c1.513,1.154,1.628,2.61.211,4.467-.951,1.245-2.274,2.267-4.07.956ZM718.098,641.935l-2.44-1.863c-.502.079-1.029.321-1.437.854-.747.979-.368,1.932.648,2.708s2.023.882,2.771-.098c.407-.533.515-1.096.458-1.602Z"/><path d="M721.982,638.058l1.021-1.413-3.541-2.558-1.021,1.413-1.103-.796,1.893-2.62,1.297.937c-.458-.705-.837-1.848-.021-2.976.31-.428.694-.742,1.024-.898l1.4,1.012c-.375.163-.797.529-1.068.905-.656.908-.596,1.781-.426,2.338l2.568,1.855,1.742-2.413,1.09.787-3.767,5.214-1.09-.787Z"/><path d="M725.824,628.994c-2.339-1.599-2.014-3.663-1.028-5.104,1.021-1.493,2.79-2.494,5.103-.913l.317.217-3.126,4.572c1.045.655,2.009.578,2.786-.559.533-.779.586-1.538.09-2.032l.994-1.453c1.316,1.307.862,2.993-.005,4.262-1.156,1.691-2.938,2.51-5.131,1.01ZM728.231,623.969c-.98-.495-1.815-.096-2.339.67-.524.767-.593,1.689.225,2.423l2.114-3.093Z"/><path d="M735.689,623.515c.834-1.29.838-2.183.148-3.237l-7.604-1.177,1.042-1.613,3.548.672,2.253.521-1.38-1.844-2.077-2.979.99-1.532,4.04,6.133c1.466,2.243,1.654,3.603.222,5.821l-1.183-.765Z"/><path d="M737.98,612.866l.874-1.436c.676.337,1.348-.153,1.905-1.069.507-.834.783-1.565.223-1.906-.602-.366-1.254.492-2.213,1.576-.921,1.051-1.952,1.978-3.224,1.204-1.244-.757-.996-2.366-.09-3.856s2.076-2.521,3.661-1.707l-.874,1.436c-.714-.304-1.274.311-1.657.939-.508.834-.626,1.398-.216,1.648.547.333,1.083-.334,2.188-1.628.86-1.013,1.944-1.965,3.188-1.208,1.463.891,1.115,2.57.084,4.266-.981,1.613-2.335,2.607-3.851,1.741Z"/><path d="M741.975,603.712c-2.527-1.446-2.237-3.53-1.363-5.058.787-1.375,2.209-2.57,4.217-1.568l-.858,1.5c-.992-.458-1.632-.05-2.101.77-.62,1.083-.395,2.042.98,2.829,1.388.795,2.315.496,2.943-.601.461-.806.503-1.556-.394-2.18l.858-1.5c1.853,1.209,1.532,3.09.761,4.437-.883,1.541-2.545,2.802-5.044,1.371Z"/><path d="M748.422,595.767c-1.437-.773-1.126-2.26-.437-3.542.35-.647.834-1.277,1.144-1.582l-.507-.273c-.803-.433-1.513-.633-2.135.522-.47.873-.391,1.569.342,1.964l-.767,1.423c-1.704-.918-1.53-2.623-.719-4.13.872-1.62,2.146-2.333,3.893-1.393l2.577,1.388c.239.129.369.09.506-.163.091-.169.186-.445.234-.638l.999.539c-.023.314-.141.869-.391,1.333-.425.789-.954.795-1.419.544l-.113-.061c.234.544.44,1.545-.25,2.827-.652,1.211-1.718,1.908-2.958,1.241ZM750.847,591.568l-.788-.425c-.215.229-.582.777-.87,1.312-.447.83-.589,1.463.003,1.782.479.258.88.019,1.251-.671.425-.789.491-1.553.404-1.999Z"/><path d="M753.788,586.777l1.059-2.1-6.841-3.45-1.059,2.1-1.2-.605,1.829-3.627,8.041,4.055,1.066-2.114,1.199.605-2.896,5.741-1.199-.604Z"/><path d="M756.155,577.213c-2.561-1.207-2.565-3.296-1.822-4.873.771-1.635,2.358-2.901,4.89-1.708l.348.164-2.36,5.005c1.135.481,2.073.253,2.66-.991.402-.854.335-1.61-.232-2.02l.75-1.591c1.506,1.081,1.324,2.816.67,4.205-.873,1.852-2.501,2.941-4.902,1.809ZM757.735,571.875c-1.045-.333-1.806.192-2.201,1.031s-.317,1.76.604,2.354l1.597-3.386Z"/><path d="M779.408,487.083l.303-1.506,13.004,2.618-.303,1.506-13.004-2.618Z"/><path d="M790.009,400.335l-.06-1.487.928-.037c-.511-.349-1.133-1.092-1.181-2.291-.063-1.567.969-3.002,3.575-3.106s3.751,1.274,3.812,2.81c.045,1.12-.503,1.847-.812,2.147l3.646-.146.068,1.711-9.979.4ZM793.342,395.172c-1.359.055-2.234.602-2.186,1.817.028.72.338,1.235.671,1.559l3.311-.133c.306-.349.573-.888.544-1.607-.049-1.215-.965-1.691-2.34-1.636Z"/><path d="M795.293,390.155l-.115-1.74-4.357.287.115,1.74-1.356.09-.213-3.225,1.596-.105c-.802-.251-1.822-.89-1.913-2.278-.035-.526.061-1.014.216-1.345l1.724-.113c-.185.364-.276.916-.246,1.379.074,1.117.677,1.75,1.163,2.071l3.16-.209-.196-2.969,1.341-.088.424,6.416-1.341.089Z"/><path d="M785.404,378.643l-.191-2.087,1.927-.178.192,2.087-1.928.178ZM794.583,380.096l-.226-2.453-4.35.399.226,2.454-1.354.124-.383-4.157,5.703-.525-.206-2.246,1.338-.123.589,6.404-1.338.123Z"/><path d="M788,371.404l-.152-1.287,1-.119c-.473-.185-1.246-.592-1.365-1.593-.099-.826.387-1.352.909-1.559-.355-.15-1.165-.586-1.282-1.57-.131-1.097.754-1.653,2.151-1.819l4.845-.577.18,1.509-4.574.545c-.858.103-1.188.303-1.136.748.051.429.407.708.703.898l5.194-.618.18,1.509-4.574.545c-.858.102-1.188.303-1.136.747.051.429.408.725.705.915l5.194-.619.18,1.51-7.021.836Z"/><path d="M791.924,360.561c-1.615.234-2.253-1.145-2.462-2.586-.106-.729-.093-1.523-.025-1.953l-.57.083c-.903.131-1.593.394-1.403,1.692.143.981.621,1.494,1.445,1.374l.232,1.6c-1.917.279-2.794-1.194-3.041-2.889-.265-1.822.334-3.154,2.298-3.44l2.898-.421c.27-.039.351-.148.31-.434-.028-.19-.117-.468-.192-.651l1.125-.163c.168.267.404.781.48,1.305.129.887-.293,1.207-.815,1.283l-.127.019c.513.297,1.274.979,1.484,2.42.198,1.362-.242,2.559-1.637,2.762ZM791.368,355.741l-.887.129c-.035.312-.004.971.083,1.573.137.935.4,1.526,1.065,1.43.539-.078.719-.509.605-1.285-.129-.887-.531-1.54-.867-1.847Z"/><path d="M790.877,350.154l-.298-1.718-4.304.745.298,1.719-1.34.231-.552-3.184,1.576-.273c-.824-.165-1.905-.692-2.144-2.063-.09-.521-.046-1.015.073-1.36l1.702-.295c-.145.382-.178.939-.099,1.397.191,1.103.857,1.669,1.375,1.937l3.12-.54-.508-2.933,1.324-.229,1.098,6.336-1.323.229Z"/><path d="M792.076,340.121c-.302-1.506-.92-2.148-2.149-2.425l-6.271,4.455-.377-1.883,3.011-1.99,1.979-1.196-2.274-.359-3.564-.689-.358-1.788,7.17,1.582c2.613.586,3.696,1.429,4.215,4.018l-1.381.276Z"/><path d="M752.019,254.815l-.653-1.39,12.004-5.642.653,1.39-12.004,5.642Z"/><path d="M712.843,176.165l-1.056-1.306c.544-.522.31-1.32-.364-2.153-.613-.759-1.208-1.266-1.718-.853-.547.442.04,1.346.735,2.613.679,1.221,1.202,2.504.046,3.439-1.132.915-2.562.138-3.658-1.218-1.096-1.355-1.67-2.804-.37-4.02l1.056,1.307c-.526.569-.139,1.304.324,1.876.613.759,1.104,1.061,1.478.759.498-.401.052-1.131-.793-2.608-.663-1.15-1.191-2.491-.06-3.406,1.33-1.076,2.794-.182,4.04,1.36,1.187,1.468,1.665,3.076.34,4.209Z"/><path d="M705.574,169.271c-2.155,1.836-4.062.98-5.192-.347-1.173-1.376-1.674-3.346.457-5.161l.293-.249,3.59,4.213c.906-.835,1.084-1.785.192-2.833-.612-.718-1.33-.969-1.937-.62l-1.142-1.339c1.605-.927,3.113-.047,4.109,1.122,1.328,1.559,1.65,3.491-.371,5.214ZM701.359,165.632c-.734.814-.568,1.725.033,2.431s1.474,1.014,2.395.418l-2.428-2.849Z"/><path d="M699.04,161.714c-2.166,1.947-4.054,1.019-5.23-.29-1.06-1.179-1.749-2.903-.168-4.496l1.155,1.285c-.745.799-.559,1.534.073,2.236.834.928,1.815,1.015,2.993-.044,1.19-1.07,1.197-2.044.353-2.984-.621-.69-1.32-.966-2.193-.31l-1.155-1.285c1.728-1.381,3.414-.487,4.451.668,1.188,1.32,1.864,3.295-.278,5.22Z"/><path d="M692.327,154.303c-2.066,1.958-4.035,1.112-5.19-.106-1.232-1.301-1.916-3.209.174-5.189,2.056-1.947,4.036-1.112,5.19.106,1.232,1.301,1.905,3.22-.174,5.189ZM688.51,150.274c-1.149,1.089-1.188,2.072-.352,2.955.837.882,1.82.897,2.97-.191,1.139-1.079,1.188-2.073.352-2.955-.836-.883-1.832-.887-2.97.191Z"/><path d="M682.522,149.17l-1.052-1.054.679-.678c-.565.09-1.493.089-2.341-.76-.95-.951-1.379-2.196.24-3.812l3.091-3.087,1.21,1.211-2.854,2.85c-.815.814-1.087,1.425-.353,2.161.543.543,1.063.634,1.516.611l3.657-3.651,1.21,1.211-5.004,4.998Z"/><path d="M678.315,140.005c-1.795,1.891-3.576,1.698-4.689.642-.812-.771-.926-1.674-.914-2.104l-2.766,2.911-1.24-1.179,7.128-7.503,1.078,1.024-.639.673c.608-.106,1.572-.007,2.442.819,1.136,1.08,1.396,2.827-.4,4.717ZM675.774,135.319l-2.27,2.389c.023.464.196,1.048.719,1.543.881.838,1.88.529,2.816-.457.937-.985,1.193-1.999.312-2.836-.522-.496-1.114-.639-1.578-.639Z"/><path d="M672.114,131.851c-1.093,1.213-2.464.559-3.546-.416-.546-.492-1.043-1.112-1.267-1.486l-.386.428c-.61.678-.974,1.32,0,2.198.737.664,1.433.753,1.99.135l1.2,1.082c-1.296,1.438-2.912.864-4.184-.281-1.367-1.232-1.758-2.64-.43-4.113l1.961-2.175c.182-.202.175-.338-.039-.531-.143-.128-.389-.285-.563-.378l.76-.844c.3.098.812.343,1.204.696.665.6.545,1.116.191,1.508l-.086.096c.584-.099,1.605-.062,2.688.913,1.022.922,1.447,2.123.505,3.169ZM668.608,128.498l-.6.666c.172.263.617.749,1.068,1.156.701.632,1.283.919,1.732.42.364-.404.229-.851-.354-1.375-.666-.6-1.392-.846-1.847-.867Z"/><path d="M664.667,124.517l-1.326-1.133-2.837,3.32,1.326,1.132-.884,1.034-2.456-2.1,1.039-1.216c-.74.398-1.909.684-2.968-.221-.401-.343-.683-.752-.812-1.094l1.122-1.313c.133.387.463.838.815,1.139.852.728,1.726.738,2.295.614l2.058-2.408-2.263-1.933.873-1.021,4.889,4.178-.872,1.021Z"/><path d="M659.186,116.029c-1.194-.967-2.081-1.067-3.204-.494l-1.983,7.434-1.492-1.209,1.048-3.455.76-2.185-1.981,1.175-3.185,1.746-1.417-1.148,6.53-3.36c2.387-1.218,3.759-1.259,5.811.402l-.886,1.095Z"/><path d="M573.95,75.838l-1.389-.655,5.654-11.991,1.389.654-5.654,11.992Z"/><path d="M491.647,40.608l-.534,2.651,2.212.445-.269,1.333-2.212-.445-.647,3.216-1.678-.338.647-3.216-3.404-.686.269-1.333,3.404.686.521-2.589c.263-1.302.104-1.808-1.058-2.041-.644-.129-1.268-.108-1.795-.002l.271-1.35c.546-.118,1.243-.174,2.169.013,1.788.36,2.59,1.239,2.104,3.655Z"/><path d="M483.646,39.539c-.486,2.79-2.5,3.349-4.219,3.05-1.781-.311-3.424-1.507-2.943-4.265l.066-.378,5.453.95c.164-1.223-.306-2.067-1.661-2.304-.93-.162-1.642.104-1.886.76l-1.734-.303c.645-1.739,2.366-2.023,3.88-1.76,2.018.352,3.499,1.633,3.044,4.249ZM478.078,39.43c-.045,1.097.664,1.691,1.578,1.851s1.782-.16,2.11-1.207l-3.688-.644Z"/><path d="M473.663,35.662l-1.725-.253-.633,4.32,1.725.252-.197,1.346-3.196-.469.231-1.582c-.414.73-1.252,1.594-2.628,1.393-.522-.077-.979-.273-1.27-.493l.25-1.709c.318.257.838.462,1.297.529,1.107.162,1.854-.294,2.269-.702l.459-3.133-2.943-.432.195-1.329,6.361.933-.195,1.329Z"/><path d="M461.98,35.718l-.322,2.685,2.24.269-.162,1.351-2.24-.269-.391,3.256-1.7-.204.392-3.256-3.447-.414.162-1.351,3.447.414.314-2.621c.158-1.318-.04-1.81-1.216-1.95-.651-.078-1.272-.008-1.789.14l.164-1.366c.535-.161,1.225-.272,2.162-.159,1.811.217,2.68,1.03,2.386,3.477Z"/><path d="M453.704,33.1l-2.454-.228-.403,4.349,2.453.229-.126,1.354-4.158-.387.53-5.702-2.246-.209.124-1.338,6.404.595-.124,1.338ZM450.593,41.857l-2.087-.193.179-1.928,2.087.194-.179,1.927Z"/><path d="M444.027,32.748c-.109,1.628-1.59,1.962-3.043,1.864-.734-.049-1.508-.229-1.914-.385l-.038.575c-.062.909.051,1.639,1.359,1.726.989.066,1.591-.294,1.646-1.124l1.612.108c-.13,1.931-1.754,2.479-3.461,2.365-1.836-.123-3.013-.987-2.88-2.966l.195-2.921c.018-.271-.071-.374-.358-.394-.191-.013-.482.017-.677.052l.075-1.134c.296-.108.85-.231,1.376-.196.895.06,1.118.54,1.083,1.066l-.008.128c.397-.438,1.224-1.041,2.676-.943,1.373.092,2.449.773,2.355,2.178ZM439.201,32.281l-.061.895c.298.1.948.207,1.555.248.942.063,1.576-.071,1.621-.741.036-.543-.347-.809-1.129-.861-.894-.06-1.616.196-1.986.46Z"/><path d="M433.623,31.589l-1.743-.071-.179,4.365,1.743.071-.056,1.359-3.23-.132.065-1.6c-.336.771-1.079,1.718-2.471,1.66-.527-.021-1.002-.169-1.314-.357l.07-1.728c.344.223.882.373,1.346.392,1.119.046,1.813-.486,2.185-.936l.13-3.166-2.975-.122.056-1.344,6.429.264-.056,1.344Z"/><path d="M424.089,28.316c-1.535-.025-2.294.442-2.825,1.585l3.021,7.071-1.919-.031-1.305-3.364-.748-2.188-.835,2.146-1.43,3.335-1.823-.029,3.067-6.668c1.127-2.43,2.182-3.308,4.82-3.265l-.023,1.407Z"/><path d="M332.206,49.311l-1.497.342-2.947-12.928,1.497-.342,2.947,12.928Z"/><path d="M247.72,71.976c1.311,2.602-.081,4.181-1.653,4.974-1.416.713-3.263.926-4.385-1.019l1.544-.777c.575.929,1.334.94,2.178.516,1.115-.562,1.456-1.486.743-2.901-.72-1.43-1.659-1.692-2.788-1.123-.829.418-1.278,1.021-.875,2.036l-1.544.777c-.88-2.03.427-3.423,1.813-4.122,1.587-.799,3.67-.935,4.967,1.64Z"/><path d="M238.799,76.505c1.348,2.51.014,4.188-1.466,4.982-1.579.848-3.601,1.006-4.963-1.531-1.34-2.496-.015-4.188,1.466-4.982,1.579-.848,3.608-.993,4.963,1.531ZM233.906,79.131c.749,1.396,1.688,1.69,2.761,1.115,1.071-.575,1.345-1.521.595-2.917-.741-1.381-1.688-1.69-2.76-1.115s-1.337,1.535-.596,2.917Z"/><path d="M231.934,84.235l-1.125.643-.5-.875c.014.508-.06,1.379-.934,1.879-.723.412-1.395.171-1.79-.23,0,.387-.085,1.302-.946,1.793-.958.548-1.814-.049-2.513-1.271l-2.42-4.234,1.318-.754,2.285,3.999c.429.75.742.976,1.131.754.375-.215.494-.651.554-.998l-2.595-4.54,1.319-.754,2.285,3.999c.429.749.742.976,1.131.753.375-.214.508-.658.567-1.005l-2.595-4.541,1.319-.754,3.507,6.138Z"/><path d="M222.698,89.573l-1.271.771-.481-.793c-.057.615-.406,1.52-1.432,2.142-1.34.813-3.094.606-4.446-1.622-1.354-2.229-.701-3.897.611-4.694.957-.581,1.857-.454,2.27-.33l-1.893-3.117,1.463-.888,5.18,8.531ZM216.571,89.157c.705,1.162,1.607,1.662,2.646,1.031.615-.373.917-.893,1.038-1.341l-1.718-2.83c-.453-.099-1.054-.071-1.669.302-1.039.631-1.012,1.662-.298,2.838Z"/><path d="M211.21,89.908l-1.978,1.274,4.151,6.446,1.979-1.274.728,1.131-3.418,2.201-4.88-7.576-1.992,1.282-.728-1.131,5.41-3.483.728,1.13Z"/><path d="M202.795,95.384l-2.035,1.389,2.462,3.607,2.035-1.389.767,1.123-3.449,2.354-3.229-4.73-1.863,1.271-.757-1.11,5.312-3.625.758,1.11ZM205.982,104.113l-1.731,1.182-1.091-1.599,1.73-1.182,1.092,1.599Z"/><path d="M198.383,105.356l-1.05.758-.59-.817c.067.503.087,1.377-.73,1.966-.675.487-1.369.317-1.804-.04.041.385.053,1.304-.752,1.883-.895.646-1.81.143-2.633-.999l-2.853-3.956,1.232-.889,2.693,3.735c.505.701.841.893,1.204.631.35-.253.422-.699.444-1.051l-3.059-4.241,1.232-.889,2.694,3.735c.505.7.84.893,1.203.631.351-.253.436-.709.458-1.061l-3.059-4.241,1.232-.888,4.134,5.732Z"/><path d="M187.984,108.509c1.718,2.253.76,4.11-.628,5.168-1.438,1.097-3.432,1.49-5.131-.736l-.232-.306,4.403-3.357c-.785-.951-1.726-1.181-2.819-.346-.751.572-1.04,1.276-.725,1.9l-1.399,1.068c-.84-1.655.122-3.112,1.344-4.044,1.629-1.242,3.576-1.46,5.188.652ZM184.121,112.522c.774.778,1.692.662,2.43.1.738-.563,1.094-1.417.548-2.37l-2.978,2.271Z"/><path d="M181.878,117.709l-1.16.932-.602-.748c.029.572-.071,1.494-1.006,2.246-1.047.843-2.33,1.136-3.764-.647l-2.737-3.403,1.334-1.072,2.526,3.142c.722.897,1.3,1.233,2.11.581.598-.48.744-.988.771-1.44l-3.238-4.026,1.334-1.073,4.432,5.511Z"/><path d="M170.458,121.798l1.751,2.061,1.72-1.461.88,1.036-1.719,1.461,2.124,2.499-1.305,1.108-2.124-2.499-2.646,2.248-.881-1.036,2.646-2.248-1.71-2.012c-.86-1.012-1.355-1.199-2.258-.433-.5.425-.87.928-1.113,1.407l-.891-1.048c.245-.503.633-1.084,1.352-1.695,1.391-1.181,2.578-1.267,4.173.611Z"/><path d="M163.563,126.185c1.088,1.216.291,2.508-.793,3.479-.549.49-1.218.918-1.613,1.1l.384.429c.608.68,1.208,1.109,2.185.234.739-.661.901-1.343.347-1.963l1.204-1.077c1.29,1.442.548,2.986-.728,4.128-1.37,1.227-2.811,1.464-4.133-.014l-1.952-2.181c-.182-.203-.316-.21-.531-.019-.144.128-.325.355-.437.52l-.758-.846c.13-.288.428-.77.821-1.121.667-.598,1.167-.423,1.52-.029l.085.095c-.035-.591.111-1.602,1.196-2.572,1.024-.917,2.265-1.211,3.203-.162ZM159.856,129.309l.597.668c.28-.144.812-.533,1.265-.938.703-.629,1.05-1.176.603-1.677-.363-.405-.821-.317-1.405.205-.667.598-.988,1.293-1.059,1.742Z"/><path d="M155.447,132.828l-1.269,1.197,2.999,3.179,1.269-1.197.934.989-2.352,2.22-1.099-1.164c.317.778.476,1.973-.538,2.928-.384.363-.821.6-1.175.691l-1.187-1.258c.399-.09.883-.371,1.221-.689.814-.769.919-1.638.856-2.217l-2.175-2.306-2.166,2.044-.923-.979,4.681-4.416.923.978Z"/><path d="M146.427,137.362c-1.09,1.082-1.284,1.953-.836,3.131l7.175,2.773-1.362,1.354-3.321-1.414-2.09-.991.955,2.097,1.392,3.354-1.295,1.285-2.636-6.854c-.953-2.503-.847-3.872,1.026-5.732l.992.999Z"/><path d="M97.316,217.783l-.802,1.311-11.321-6.919.802-1.311,11.321,6.919Z"/><path d="M52.844,293.583c1.555.493,1.526,2.011,1.086,3.398-.223.701-.581,1.409-.829,1.767l.549.174c.869.276,1.604.341,2-.909.3-.944.093-1.614-.7-1.866l.489-1.539c1.844.585,1.99,2.293,1.473,3.924-.557,1.753-1.676,2.689-3.566,2.09l-2.789-.886c-.259-.082-.38-.02-.467.255-.058.183-.1.472-.111.669l-1.083-.343c-.034-.313-.022-.88.137-1.383.271-.854.791-.957,1.294-.798l.122.039c-.331-.491-.719-1.437-.279-2.823.416-1.312,1.334-2.194,2.676-1.769ZM51.241,298.159l.854.271c.168-.266.427-.871.611-1.45.285-.899.306-1.547-.334-1.75-.519-.165-.868.144-1.105.891-.271.854-.193,1.616-.025,2.039Z"/><path d="M54.706,305.133l-.413,1.431-.923-.267c.353.452.802,1.265.469,2.418-.373,1.292-1.256,2.271-3.455,1.636l-4.199-1.212.476-1.646,3.876,1.119c1.107.319,1.773.263,2.062-.737.213-.738.04-1.238-.198-1.624l-4.968-1.434.475-1.646,6.799,1.963Z"/><path d="M47.085,312.854c1.58.411,1.632,1.929,1.265,3.339-.185.712-.506,1.438-.735,1.81l.558.145c.883.229,1.62.256,1.951-1.014.249-.96.007-1.619-.798-1.828l.406-1.564c1.874.487,2.11,2.186,1.68,3.843-.464,1.781-1.532,2.776-3.453,2.277l-2.834-.737c-.264-.068-.381,0-.453.279-.049.186-.074.477-.076.675l-1.1-.286c-.052-.312-.069-.878.063-1.39.226-.867.739-.998,1.25-.865l.124.032c-.356-.473-.794-1.396-.428-2.807.347-1.332,1.218-2.263,2.58-1.908ZM45.726,317.51l.867.226c.153-.273.381-.893.534-1.481.237-.913.224-1.562-.427-1.731-.526-.137-.859.19-1.057.949-.226.867-.108,1.625.082,2.038Z"/><path d="M44.007,322.86l-.531,2.292,7.47,1.732.531-2.292,1.31.304-.918,3.961-8.78-2.036-.535,2.308-1.31-.304,1.454-6.269,1.31.304Z"/><path d="M44.013,332.697c2.789.567,3.228,2.664,2.893,4.31-.356,1.755-1.526,3.41-4.347,2.836-2.773-.564-3.228-2.664-2.893-4.31.356-1.755,1.542-3.406,4.347-2.836ZM42.906,338.134c1.551.316,2.378-.218,2.62-1.408.242-1.191-.31-2.006-1.861-2.321-1.536-.312-2.378.218-2.62,1.409-.242,1.19.325,2.008,1.861,2.32Z"/><path d="M38.137,341.948l-.285,1.624c-.828-.098-1.415.189-1.626,1.387-.256,1.45.486,1.76,1.416,1.924l.993.175c-.289-.392-.666-1.108-.478-2.181.286-1.623,1.61-2.771,4.006-2.35,2.411.425,3.286,2.01,3.009,3.586-.2,1.135-.906,1.823-1.453,2.067l.898.158-.259,1.467-7.156-1.262c-1.875-.33-2.648-1.571-2.242-3.872.271-1.545.978-3.062,3.177-2.724ZM39.785,347.26l3.026.533c.411-.302.768-.759.884-1.421.214-1.214-.562-1.887-1.822-2.108-1.261-.223-2.203.147-2.417,1.361-.117.662.046,1.211.329,1.635Z"/><path d="M40.343,352.404c2.816.421,3.364,2.492,3.116,4.154-.266,1.771-1.347,3.486-4.195,3.061-2.801-.418-3.364-2.492-3.115-4.153.265-1.772,1.361-3.485,4.194-3.062ZM39.521,357.894c1.566.234,2.365-.342,2.545-1.544.18-1.203-.415-1.987-1.981-2.222-1.551-.231-2.364.342-2.544,1.545-.181,1.202.43,1.989,1.98,2.221Z"/><path d="M38.014,362.734l4.337.528-.208,1.7-4.002-.488c-1.145-.14-1.793.022-1.919,1.056-.093.762.157,1.228.453,1.57l5.131.626-.207,1.699-7.021-.856.181-1.477.953.116c-.42-.391-.992-1.121-.847-2.312.163-1.334.878-2.439,3.149-2.162Z"/><path d="M36.41,372.216l-.16,1.673c-.755-.008-1.146.726-1.249,1.793-.093.972-.022,1.75.631,1.812.7.067.914-.989,1.305-2.383.37-1.347.896-2.631,2.377-2.489,1.449.14,1.928,1.696,1.761,3.433-.166,1.736-.77,3.174-2.55,3.132l.16-1.673c.775-.038,1.012-.836,1.082-1.568.094-.972-.046-1.531-.523-1.577-.638-.062-.83.772-1.261,2.419-.333,1.286-.894,2.615-2.344,2.477-1.704-.163-2.124-1.827-1.935-3.803.18-1.88.966-3.363,2.706-3.245Z"/><path d="M46.147,464.981l.219,1.521-13.13,1.885-.219-1.521,13.13-1.885Z"/><path d="M62.048,553.084l2.507-1.014-.846-2.091,1.261-.51.846,2.091,3.04-1.229.643,1.587-3.041,1.229,1.302,3.219-1.261.51-1.302-3.219-2.447.99c-1.23.497-1.565.908-1.121,2.006.246.608.607,1.118.985,1.5l-1.275.516c-.399-.391-.829-.941-1.183-1.816-.684-1.691-.391-2.845,1.893-3.769Z"/><path d="M63.744,561.583l.696,1.598,4.004-1.745-.697-1.599,1.246-.543,1.292,2.962-1.467.64c.84-.035,2.016.22,2.572,1.496.211.483.285.975.252,1.339l-1.584.69c.051-.406-.05-.956-.235-1.381-.447-1.026-1.229-1.419-1.795-1.556l-2.903,1.266,1.189,2.728-1.232.537-2.57-5.895,1.232-.537Z"/><path d="M67.815,570.807l1.044,2.232,3.957-1.85-1.043-2.232,1.232-.576,1.768,3.783-5.189,2.426.955,2.044-1.218.569-2.723-5.827,1.217-.569ZM76.946,569.066l.887,1.898-1.754.82-.888-1.899,1.755-.819Z"/><path d="M72.402,579.313c1.46-.729,2.498.38,3.149,1.683.329.658.564,1.417.637,1.846l.515-.258c.816-.407,1.389-.873.802-2.046-.443-.888-1.059-1.225-1.804-.852l-.723-1.446c1.732-.865,3.027.258,3.793,1.789.823,1.646.673,3.099-1.102,3.986l-2.619,1.31c-.244.122-.287.251-.158.508.086.172.258.408.387.559l-1.017.508c-.243-.2-.629-.615-.865-1.088-.401-.801-.101-1.237.372-1.474l.114-.058c-.579-.121-1.517-.529-2.168-1.832-.616-1.23-.573-2.505.687-3.135ZM74.442,583.714l.801-.4c-.064-.308-.3-.923-.572-1.467-.422-.845-.858-1.324-1.46-1.023-.486.243-.522.708-.172,1.409.401.802.988,1.296,1.403,1.481Z"/><path d="M78.4,587.464c2.301-1.229,3.932-.484,4.655.87.527.988.352,1.881.205,2.285l3.542-1.892.807,1.51-9.132,4.877-.701-1.312.818-.438c-.61-.091-1.494-.489-2.06-1.548-.739-1.383-.435-3.124,1.865-4.353ZM79.337,592.715l2.907-1.553c.124-.447.144-1.057-.196-1.691-.572-1.072-1.618-1.095-2.818-.454-1.199.641-1.763,1.522-1.189,2.595.339.636.855.958,1.297,1.104Z"/><path d="M81.463,597.748l1.217,2.143,3.799-2.157-1.217-2.144,1.183-.672,2.063,3.633-4.982,2.829,1.114,1.962-1.169.664-3.177-5.594,1.169-.664ZM90.428,595.288l1.035,1.823-1.684.956-1.036-1.823,1.685-.956Z"/><path d="M88.134,604.974c2.494-1.506,4.175-.239,5.084,1.269.819,1.356,1.173,3.181-.68,4.448l-.894-1.48c.883-.645.837-1.401.349-2.21-.646-1.069-1.593-1.338-2.949-.52-1.37.827-1.56,1.783-.906,2.865.479.795,1.114,1.196,2.096.717l.894,1.479c-1.957,1.031-3.445-.164-4.248-1.493-.918-1.521-1.211-3.587,1.255-5.075Z"/><path d="M150.248,674.332l1.084,1.088-9.398,9.36-1.084-1.088,9.398-9.36Z"/><path d="M215.576,735.591l1.41-2.309-1.926-1.177.71-1.161,1.925,1.178,1.712-2.8,1.461.893-1.711,2.8,2.963,1.812-.709,1.16-2.964-1.811-1.377,2.253c-.692,1.134-.716,1.663.294,2.281.561.342,1.154.536,1.687.617l-.718,1.175c-.554-.076-1.228-.263-2.033-.755-1.558-.952-2.01-2.054-.724-4.156Z"/><path d="M222.726,739.337c1.412-2.455,3.496-2.29,5.008-1.42,1.567.901,2.701,2.588,1.305,5.016l-.191.333-4.799-2.762c-.573,1.092-.421,2.047.771,2.733.818.471,1.579.465,2.033-.067l1.525.878c-1.201,1.414-2.917,1.091-4.248.325-1.775-1.021-2.729-2.733-1.404-5.036ZM227.92,741.347c.418-1.015-.045-1.815-.849-2.278-.805-.463-1.729-.46-2.397.411l3.246,1.867Z"/><path d="M232.895,745.662l1.286-2.378-1.983-1.073.647-1.196,1.983,1.074,1.562-2.884,1.505.814-1.561,2.884,3.053,1.652-.647,1.196-3.053-1.652-1.257,2.321c-.632,1.167-.627,1.697.414,2.261.576.312,1.18.475,1.715.528l-.655,1.21c-.557-.047-1.238-.198-2.068-.647-1.604-.868-2.113-1.943-.94-4.11Z"/><path d="M239.639,751.145l1.556.788,1.975-3.895-1.556-.788.615-1.213,2.882,1.461-.724,1.427c.626-.562,1.694-1.114,2.936-.484.471.238.841.569,1.047.871l-.781,1.541c-.22-.345-.646-.705-1.061-.914-.999-.507-1.852-.312-2.375-.057l-1.432,2.825,2.653,1.345-.607,1.199-5.735-2.908.607-1.198Z"/><path d="M248.506,755.027c.699-1.475,2.199-1.241,3.514-.617.665.314,1.318.767,1.639,1.06l.247-.52c.391-.824.554-1.543-.631-2.104-.896-.425-1.587-.311-1.943.441l-1.46-.692c.829-1.748,2.541-1.662,4.087-.93,1.662.788,2.438,2.023,1.589,3.815l-1.254,2.645c-.116.246-.07.373.189.497.174.082.454.162.648.201l-.486,1.025c-.315-.008-.875-.096-1.352-.322-.81-.384-.842-.912-.616-1.389l.055-.116c-.53.262-1.52.519-2.835-.104-1.242-.59-1.993-1.618-1.391-2.89ZM252.822,757.233l.384-.81c-.24-.202-.805-.541-1.354-.802-.853-.404-1.491-.512-1.779.095-.232.491.026.879.734,1.215.809.384,1.575.411,2.016.302Z"/><path d="M258.236,757.742c1.055-2.386,2.797-2.805,4.201-2.184,1.024.453,1.436,1.265,1.569,1.674l1.624-3.673,1.565.691-4.186,9.468-1.361-.602.376-.849c-.537.305-1.479.536-2.576.051-1.435-.634-2.268-2.192-1.213-4.577ZM262.208,761.299l1.333-3.014c-.178-.429-.538-.921-1.196-1.212-1.112-.491-1.949.136-2.499,1.38-.55,1.243-.45,2.284.662,2.776.658.291,1.264.227,1.7.069Z"/><path d="M266.982,763.951l2.279.935,1.658-4.04-2.279-.936.516-1.258,3.863,1.585-2.174,5.299,2.087.855-.51,1.244-5.95-2.441.51-1.243ZM272.519,756.486l1.938.796-.734,1.79-1.939-.795.735-1.791Z"/><path d="M276.706,765.536c1.033-2.721,3.136-2.762,4.78-2.137,1.48.562,2.884,1.778,2.208,3.918l-1.614-.613c.296-1.051-.207-1.618-1.09-1.953-1.166-.443-2.077-.07-2.64,1.41-.567,1.495-.127,2.363,1.054,2.812.868.329,1.615.253,2.091-.729l1.615.613c-.903,2.018-2.811,1.995-4.262,1.444-1.659-.63-3.164-2.073-2.143-4.766Z"/><path d="M368.364,781.743l1.525.187-1.606,13.168-1.525-.187,1.606-13.168Z"/><path class="cls-1" d="M414.684,68.874c-190.538,0-345,154.462-345,345s154.462,345,345,345,345-154.462,345-345S605.222,68.874,414.684,68.874ZM414.684,689.874c-152.431,0-276-123.569-276-276s123.569-276,276-276,276,123.569,276,276-123.569,276-276,276Z"/><path d="M438.05,715.729l3.487-.305c2.392-.209,4.147.822,4.314,2.735.102,1.156-.434,1.926-1.393,2.451,1.005.233,2.131.938,2.261,2.433.171,1.953-1.452,3.38-3.843,3.589l-3.847.336-.98-11.239ZM440.123,720.387l1.634-.143c1.694-.148,2.468-.718,2.368-1.854-.089-1.017-.791-1.698-2.584-1.542l-1.714.15.296,3.388ZM440.562,725.409l2.132-.187c1.813-.158,2.396-1.072,2.31-2.068-.098-1.116-.95-1.685-2.685-1.533l-2.072.181.315,3.607Z"/><path d="M450.23,714.559l2.896-.372c2.876-.369,4.795.595,5.08,2.816.231,1.805-.771,3.103-2.27,3.679l4.042,3.997-2.063.266-3.649-3.766-1.487.19.535,4.166-1.646.212-1.438-11.188ZM452.603,720.001l1.27-.163c2.103-.271,2.807-1.228,2.644-2.497-.161-1.25-1.086-2.019-3.189-1.748l-1.27.163.546,4.245Z"/><path d="M463.992,722.624l2.721-.462-1.41-8.319-2.721.462-.236-1.4,7.058-1.196.237,1.399-2.701.458,1.41,8.319,2.701-.457.237,1.399-7.059,1.196-.237-1.399Z"/><path d="M474.735,716.453c-.749-3.541.294-6.05,3.209-6.666,2.093-.442,3.952.329,4.648,3.043l-1.564.331c-.504-1.61-1.3-2.28-2.728-1.979-2.484.525-2.289,2.998-1.879,4.935.471,2.229,1.316,4.197,3.604,3.713,1.018-.215,1.619-.751,2.091-1.423l-.518-2.445-2.582.546-.285-1.35,4.147-.876,1.257,5.946-1.271.269-.257-1.213c-.236.622-1.032,1.69-2.656,2.033-2.992.633-4.601-1.949-5.217-4.864Z"/><path d="M486.411,708.114l1.608-.408,1.188,4.67,3.682-.937-1.188-4.67,1.608-.409,2.78,10.93-1.608.408-1.247-4.902-3.683.937,1.247,4.902-1.608.409-2.779-10.93Z"/><path d="M501.255,705.583l-3.642,1.085-.405-1.361,8.912-2.653.405,1.36-3.68,1.096,2.813,9.448-1.591.474-2.813-9.448Z"/><path d="M509.982,701.39l2.101-.72,6.48,7.99-1.221-3.007-2.081-6.073,1.419-.486,3.657,10.671-2.1.721-6.481-7.991,1.221,3.007,2.082,6.073-1.42.486-3.657-10.671Z"/><path d="M521.508,697.328l6.844-2.66.515,1.323-5.296,2.059,1.232,3.17,4.605-1.79.515,1.324-4.605,1.79,1.312,3.375,5.296-2.059.515,1.324-6.844,2.66-4.088-10.517Z"/><path d="M535.518,700.424l1.484-.647c.594,1.159,1.669,1.475,3.19.812,1.393-.607,2.069-1.558,1.613-2.602-.352-.807-1.043-.941-2.122-.863l-2.561.18c-1.438.104-2.827-.229-3.482-1.731-.8-1.833.371-3.499,2.405-4.387,2.089-.912,3.977-.535,4.922,1.582l-1.466.64c-.713-1.434-1.891-1.334-2.917-.887-1.338.584-1.789,1.5-1.421,2.344.304.696.972.928,1.943.854l2.561-.18c1.924-.141,3.005.238,3.621,1.649.919,2.107-.385,3.767-2.529,4.702-2.346,1.023-4.339.606-5.242-1.465Z"/><path d="M547.003,695.326l1.457-.707c.64,1.135,1.728,1.407,3.221.683,1.367-.663,2.005-1.64,1.507-2.665-.384-.791-1.08-.898-2.154-.776l-2.553.282c-1.433.162-2.833-.114-3.549-1.59-.873-1.799.229-3.512,2.227-4.48,2.051-.995,3.952-.695,4.982,1.383l-1.439.698c-.77-1.404-1.943-1.257-2.951-.769-1.312.638-1.727,1.571-1.325,2.399.332.684,1.009.888,1.977.774l2.552-.282c1.917-.219,3.013.116,3.685,1.502,1.004,2.068-.233,3.779-2.338,4.801-2.303,1.117-4.311.78-5.297-1.253Z"/><path d="M580.831,665.491l1.201-.795,9.024,13.643-1.201.795-9.024-13.643Z"/><path d="M611.606,644.296l1.253-1.089,3.162,3.637,2.867-2.493-3.162-3.637,1.253-1.09,7.4,8.512-1.252,1.089-3.32-3.817-2.867,2.493,3.32,3.817-1.253,1.09-7.401-8.512Z"/><path d="M625.58,641.686l-5.007-5.313,1.208-1.139,5.007,5.313c1.372,1.455,2.317,1.555,3.467.471,1.15-1.084,1.107-2.033-.265-3.489l-5.007-5.312,1.209-1.139,5.007,5.313c2.003,2.125,1.964,3.893.058,5.689-1.907,1.797-3.674,1.73-5.677-.395Z"/><path d="M629.635,627.679l5.136-5.247,1.015.993-3.974,4.061,2.431,2.379,3.456-3.532,1.016.994-3.456,3.531,2.588,2.532,3.974-4.061,1.015.994-5.135,5.247-8.064-7.892Z"/><path d="M656.718,594.259l.864-1.152,13.093,9.811-.863,1.153-13.094-9.812Z"/><path d="M685.237,568.444l.793-1.412c1.173.565,2.221.168,3.033-1.28.743-1.325.709-2.49-.285-3.048-.768-.431-1.4-.12-2.213.593l-1.934,1.69c-1.084.951-2.391,1.524-3.821.723-1.744-.979-1.817-3.015-.731-4.95,1.115-1.988,2.847-2.828,4.88-1.711l-.782,1.396c-1.435-.713-2.313.078-2.861,1.055-.715,1.273-.521,2.276.282,2.726.662.372,1.335.153,2.064-.492l1.934-1.69c1.448-1.273,2.539-1.625,3.882-.872,2.006,1.125,1.968,3.236.824,5.276-1.252,2.232-3.093,3.104-5.064,1.998Z"/><path d="M685.641,550.85l.815-1.604,11.855,1.565-.815,1.604-2.796-.412-1.994,3.921,1.98,2.017-.798,1.568-8.248-8.658ZM691.676,554.951l1.613-3.173-1.778-.253-3.947-.662,2.859,2.801,1.253,1.287Z"/><path d="M692.318,540.372l-1.583,3.453-1.29-.592,3.874-8.45,1.29.591-1.6,3.489,8.96,4.107-.691,1.509-8.96-4.107Z"/><path d="M701.545,534.11l-6.756-2.769.629-1.536,6.756,2.769c1.851.758,2.752.457,3.352-1.005.599-1.462.168-2.31-1.684-3.067l-6.755-2.769.629-1.536,6.756,2.769c2.702,1.107,3.398,2.732,2.404,5.157-.993,2.425-2.629,3.094-5.331,1.987Z"/><path d="M699.457,519.692l.998-2.745c.991-2.726,2.728-3.989,4.833-3.224,1.711.623,2.405,2.109,2.229,3.705l5.407-1.758-.711,1.955-5.021,1.516-.513,1.41,3.947,1.436-.567,1.561-10.603-3.855ZM705.383,520.079l.438-1.203c.725-1.993.196-3.058-1.007-3.495-1.185-.431-2.292.039-3.017,2.032l-.438,1.203,4.023,1.463Z"/><path d="M704.361,505.589l.546-1.715,11.958-.368-.547,1.716-2.827.044-1.336,4.192,2.28,1.672-.534,1.677-9.54-7.218ZM710.98,508.664l1.081-3.393-1.796.037-4.005-.017,3.276,2.304,1.443,1.068Z"/><path d="M709.255,494.188l-1.006,3.664-1.369-.376,2.462-8.969,1.369.376-1.017,3.703,9.509,2.61-.439,1.601-9.509-2.609Z"/><path d="M719.902,486.846l.621-2.688-8.223-1.899-.621,2.688-1.384-.319,1.612-6.976,1.383.319-.616,2.67,8.223,1.899.616-2.67,1.384.319-1.611,6.977-1.384-.32Z"/><path d="M718.399,474.543c-3.597-.679-5.551-2.513-4.986-5.5.56-2.968,2.978-3.916,6.515-3.248,3.597.678,5.531,2.509,4.967,5.496-.56,2.968-2.978,3.916-6.495,3.252ZM719.668,467.496c-1.867-.353-4.388-.584-4.848,1.854-.46,2.437,1.972,3.14,3.839,3.492,1.848.349,4.368.58,4.828-1.857.46-2.437-1.972-3.14-3.819-3.488Z"/><path d="M715.13,460.556l.323-2.196,10.075-2.096-3.232-.294-6.353-.936.218-1.484,11.162,1.644-.323,2.197-10.074,2.095,3.231.294,6.354.936-.219,1.484-11.162-1.644Z"/><path d="M717.375,417.607l.022-1.44,16.364.262-.023,1.44-16.363-.262Z"/><path d="M717.402,381.564l-.206-1.768,5.824-2.714,3.486-1.535-3.701-.655-6.333-1.295-.202-1.728,11.664,2.625.214,1.828-10.746,5.241Z"/><path d="M715.31,365.446l-.28-1.778,10.525-5.688.28,1.779-2.508,1.306.685,4.348,2.788.472.273,1.739-11.764-2.177ZM722.605,365.228l-.554-3.518-1.59.838-3.587,1.78,3.961.591,1.77.309Z"/><path d="M713.718,355.994l-.324-1.627,9.667-1.926-1.129-5.667,1.392-.277,1.453,7.294-11.059,2.203Z"/><path d="M718.378,342.569l-7.095,1.715-.391-1.613,7.096-1.715c1.944-.471,2.498-1.242,2.127-2.778-.371-1.535-1.217-1.969-3.161-1.499l-7.095,1.716-.391-1.614,7.096-1.715c2.838-.687,4.354.223,4.97,2.77.616,2.547-.317,4.048-3.156,4.734Z"/><path d="M708.232,332.117l-2.017-7.057,1.365-.39,1.561,5.46,3.269-.934-1.357-4.749,1.365-.39,1.356,4.749,3.48-.995-1.561-5.46,1.365-.39,2.017,7.056-10.844,3.099Z"/><path d="M692.588,292.073l-.575-1.32,14.99-6.54.576,1.319-14.991,6.541Z"/><path d="M685.437,253.051l-1.43-2.36-7.219,4.372,1.43,2.36-1.214.735-3.709-6.123,1.214-.736,1.42,2.344,7.218-4.372-1.419-2.344,1.214-.735,3.71,6.124-1.215.735Z"/><path d="M670.545,247.684l-1.225-1.852,6.103-8.28-2.603,1.938-5.354,3.541-.827-1.251,9.406-6.222,1.225,1.851-6.104,8.281,2.603-1.938,5.354-3.541.828,1.25-9.406,6.223Z"/><path d="M663.278,234.51l2.221,3.082-1.151.83-5.435-7.542,1.151-.83,2.244,3.114,7.996-5.763.971,1.347-7.997,5.762Z"/><path d="M656.46,227.672l-4.531-5.779,1.118-.876,3.506,4.472,2.678-2.099-3.05-3.89,1.118-.876,3.049,3.89,2.851-2.234-3.506-4.473,1.118-.876,4.53,5.779-8.881,6.962Z"/><path d="M648.803,218.057l-1.438-1.69,5.062-8.953-2.351,2.236-4.888,4.158-.972-1.142,8.589-7.307,1.438,1.69-5.062,8.952,2.351-2.235,4.889-4.159.972,1.143-8.589,7.307Z"/><path d="M647.147,203.841l-1.099-1.191c.901-.941.848-2.062-.278-3.282-1.03-1.118-2.15-1.447-2.988-.674-.647.597-.548,1.295-.121,2.289l1.009,2.363c.569,1.326.71,2.748-.496,3.86-1.471,1.356-3.431.795-4.937-.838-1.547-1.677-1.809-3.585-.116-5.173l1.085,1.177c-1.122,1.144-.643,2.226.117,3.049.99,1.074,2.005,1.2,2.682.576.559-.516.56-1.224.171-2.117l-1.009-2.363c-.764-1.772-.76-2.919.372-3.964,1.692-1.56,3.689-.87,5.276.851,1.736,1.883,1.994,3.904.332,5.438Z"/><path d="M639.408,192.921l-1.95-1.952-5.969,5.963,1.949,1.951-1.004,1.004-5.059-5.064,1.004-1.003,1.937,1.938,5.969-5.962-1.936-1.938,1.004-1.003,5.059,5.063-1.004,1.004Z"/><path d="M622.646,188.388l2.791,2.578-.963,1.043-6.833-6.308.964-1.044,2.821,2.604,6.688-7.244,1.22,1.126-6.688,7.244Z"/><path d="M616.932,176.11l-1.047,8.016-1.462-1.245.448-3.087.577-3.238-3.12,1.072-2.977.934-1.416-1.206,7.731-2.322,2.919-3.426,1.264,1.076-2.918,3.427Z"/><path d="M579.41,158.329l-1.209-.782,8.887-13.743,1.21.782-8.888,13.743Z"/><path d="M551.669,131.652l-1.464-.692c.482-1.209.013-2.228-1.488-2.937-1.374-.649-2.534-.534-3.021.496-.376.796-.022,1.405.746,2.166l1.82,1.812c1.024,1.016,1.688,2.28.987,3.763-.854,1.808-2.881,2.022-4.888,1.074-2.062-.974-3.02-2.644-2.047-4.749l1.446.684c-.611,1.48.239,2.303,1.252,2.781,1.32.623,2.307.36,2.7-.472.324-.688.06-1.344-.636-2.025l-1.82-1.812c-1.372-1.356-1.798-2.421-1.14-3.812.982-2.08,3.091-2.189,5.207-1.189,2.314,1.094,3.311,2.87,2.345,4.913Z"/><path d="M536.539,133.515l-1.529-.647,1.88-4.438-3.5-1.481-1.879,4.438-1.528-.647,4.397-10.388,1.528.647-1.973,4.66,3.5,1.481,1.973-4.66,1.528.647-4.397,10.388Z"/><path d="M522.713,127.89l-1.686-.635.25-11.962,1.686.635-.103,2.826,4.119,1.551,1.787-2.191,1.647.62-7.701,9.156ZM526.126,121.437l-3.333-1.255-.057,1.796-.223,3.999,2.47-3.153,1.143-1.387Z"/><path d="M513.7,124.601l-3.133-1.037c-3.511-1.163-3.725-3.698-2.713-6.754,1.044-3.151,2.805-5.096,6.259-3.952l3.132,1.038-3.545,10.705ZM515.224,114.721l-1.557-.516c-2.619-.867-3.589,1.36-4.154,3.069-.572,1.727-1.118,4.074,1.502,4.941l1.556.516,2.653-8.011Z"/><path d="M502.041,120.856l-7.057-2.022.392-1.364,5.46,1.564.937-3.269-4.749-1.36.392-1.365,4.748,1.36.997-3.48-5.46-1.563.392-1.365,7.056,2.021-3.106,10.844Z"/><path d="M459.779,112.968l-1.425-.209,2.371-16.188,1.426.208-2.372,16.189Z"/><path d="M423.69,102.618c-.058,3.621-1.634,5.837-4.615,5.789-2.14-.034-3.782-1.201-3.857-4.004l1.601.025c.133,1.684.76,2.514,2.221,2.537,2.54.041,2.899-2.415,2.932-4.396.036-2.28-.351-4.388-2.69-4.425-1.041-.017-1.747.372-2.356.923l-.04,2.5,2.641.043-.022,1.38-4.24-.067.098-6.082,1.3.021-.02,1.24c.369-.555,1.383-1.419,3.043-1.393,3.062.05,4.056,2.927,4.008,5.907Z"/><path d="M410.45,108.157l-2.918.074c-2.898.072-4.708-1.082-4.764-3.32-.046-1.819,1.084-3.008,2.634-3.427l-3.611-4.39,2.079-.053,3.244,4.119,1.499-.038-.105-4.197,1.659-.042.283,11.273ZM408.648,102.501l-1.279.032c-2.119.054-2.917.934-2.885,2.213.031,1.26.873,2.118,2.992,2.065l1.279-.032-.107-4.278Z"/><path d="M395.555,108.742l-1.797.117-4.703-10.999,1.797-.116,1.071,2.616,4.392-.285.724-2.733,1.757-.114-3.24,11.515ZM396.003,101.457l-3.553.23.689,1.659,1.445,3.734.949-3.89.469-1.734Z"/><path d="M385.971,109.471l-3.283.345c-3.681.387-4.921-1.837-5.257-5.04-.348-3.304.456-5.802,4.078-6.183l3.283-.345,1.179,11.223ZM383.288,99.834l-1.631.172c-2.746.288-2.712,2.719-2.524,4.51.19,1.811.66,4.176,3.406,3.887l1.632-.171-.883-8.397Z"/><path d="M372.413,101.092l-2.731.4,1.224,8.352,2.731-.4.205,1.405-7.085,1.038-.205-1.405,2.711-.397-1.224-8.352-2.711.397-.206-1.405,7.085-1.038.206,1.405Z"/><path d="M361.696,112.726l-7.213,1.355-.263-1.396,5.582-1.049-.628-3.341-4.854.911-.262-1.395,4.854-.912-.669-3.558-5.581,1.049-.263-1.396,7.213-1.355,2.083,11.085Z"/><path d="M349.656,115.092l-2.163.498-5.615-8.618.901,3.116,1.44,6.255-1.462.337-2.529-10.99,2.162-.498,5.616,8.618-.902-3.116-1.439-6.255,1.461-.337,2.53,10.99Z"/><path d="M334.77,117.278l3.664-1.001.374,1.37-8.969,2.447-.373-1.369,3.703-1.011-2.596-9.509,1.601-.437,2.596,9.509Z"/><path d="M297.531,133.123l-1.326.561-6.365-15.065,1.326-.561,6.365,15.065Z"/><path d="M260.361,148.495l3.273-1.932.722,1.224-8.011,4.726-.722-1.224,3.308-1.951-5.01-8.492,1.43-.844,5.01,8.493Z"/><path d="M247.582,146.362l-2.318,1.497,4.578,7.089,2.318-1.497.771,1.193-6.015,3.884-.771-1.192,2.302-1.486-4.578-7.09-2.302,1.486-.771-1.193,6.015-3.884.771,1.193Z"/><path d="M242.658,161.397l-1.816,1.277-8.452-5.864,2.012,2.546,3.692,5.251-1.227.863-6.488-9.226,1.815-1.277,8.452,5.864-2.011-2.547-3.693-5.25,1.227-.863,6.489,9.226Z"/><path d="M229.69,169.054l3.019-2.311.863,1.128-7.387,5.654-.863-1.128,3.05-2.335-5.995-7.83,1.318-1.01,5.995,7.831Z"/><path d="M201.166,197.754l-1.019,1.019-11.57-11.57,1.019-1.019,11.57,11.57Z"/><path d="M172.453,225.951l2.311-3.016,1.126.864-5.654,7.379-1.127-.863,2.335-3.047-7.823-5.996,1.009-1.316,7.824,5.995Z"/><path d="M163.723,230.427c2.99,2.107,4.008,4.586,2.257,7.07-1.739,2.468-4.332,2.328-7.273.254-2.991-2.107-3.992-4.575-2.241-7.059,1.74-2.468,4.333-2.328,7.258-.266ZM159.647,236.312c1.553,1.095,3.75,2.35,5.179.323,1.428-2.026-.493-3.674-2.045-4.769-1.536-1.083-3.733-2.338-5.162-.312s.492,3.674,2.028,4.757Z"/><path d="M160.882,244.538l-1.204,1.864-10.034-2.267,2.819,1.606,5.393,3.482-.813,1.261-9.476-6.119,1.204-1.865,10.035,2.267-2.819-1.606-5.393-3.482.813-1.26,9.475,6.119Z"/><path d="M154.341,254.855l-3.729,6.322-1.224-.721,2.887-4.893-2.929-1.728-2.51,4.255-1.224-.722,2.51-4.255-3.118-1.84-2.886,4.893-1.223-.722,3.729-6.322,9.716,5.731Z"/><path d="M136.045,293.792l-.562,1.326-15.065-6.378.562-1.326,15.065,6.378Z"/><path d="M120.073,330.697l1.003-3.665,1.369.375-2.455,8.969-1.369-.375,1.014-3.703-9.509-2.603.438-1.601,9.509,2.603Z"/><path d="M119.023,340.306l-1.646,7.151-1.383-.318,1.273-5.534-3.312-.763-1.107,4.813-1.384-.319,1.108-4.812-3.527-.812-1.273,5.533-1.384-.318,1.646-7.151,10.989,2.53Z"/><path d="M116.494,351.636l-.406,2.162-3.931.563-2.578.289,2.301,1.185,3.458,1.952-.395,2.103-11.085-2.082.277-1.475,6.485,1.219,3.06.718-6.06-3.377.236-1.258,6.872-.947-3.111-.442-6.485-1.218.276-1.475,11.085,2.083Z"/><path d="M114.217,364.314l-.478,3.266c-.406,2.771-1.807,4.466-4.201,4.114-2.396-.351-3.254-2.356-2.845-5.146l.237-1.623-4.116-.604.241-1.643,11.161,1.636ZM108.336,365.13l-.24,1.643c-.308,2.098.425,3.033,1.691,3.219,1.247.184,2.236-.501,2.544-2.599l.24-1.643-4.235-.62Z"/><path d="M112.534,376.463l-.772,7.297-1.411-.149.598-5.646-3.38-.358-.521,4.911-1.411-.149.52-4.911-3.599-.381-.598,5.646-1.412-.149.773-7.297,11.213,1.188Z"/><path d="M111.353,388.667l-.189,2.914c-.188,2.895-1.501,4.593-3.736,4.447-1.816-.118-2.898-1.351-3.177-2.932l-4.697,3.202.135-2.076,4.395-2.861.098-1.496-4.191-.272.107-1.657,11.257.731ZM105.557,389.954l-.083,1.277c-.138,2.116.668,2.99,1.945,3.073,1.257.081,2.188-.68,2.326-2.796l.083-1.277-4.271-.277Z"/><path d="M110.586,403.552l-.046,1.8-11.374,3.693.046-1.799,2.701-.832.11-4.397-2.655-.968.044-1.759,11.174,4.262ZM103.373,402.451l-.09,3.559,1.714-.537,3.848-1.104-3.787-1.295-1.685-.623Z"/><path d="M109.062,415.879l-.061-3.801,1.42-.022.149,9.302-1.421.022-.062-3.841-9.861.158-.027-1.66,9.862-.158Z"/><path d="M103.409,425.482l7.291-.39.089,1.657-7.291.39c-1.997.107-2.683.765-2.599,2.343s.837,2.159,2.834,2.052l7.29-.39.089,1.658-7.29.39c-2.917.155-4.241-1.016-4.381-3.632s1.052-3.922,3.968-4.078Z"/><path d="M111.476,437.626l.274,2.907c.271,2.887-.756,4.771-2.986,4.982-1.812.171-3.076-.876-3.601-2.394l-4.132,3.905-.195-2.07,3.887-3.521-.141-1.494-4.182.395-.155-1.652,11.23-1.059ZM105.956,439.814l.12,1.274c.199,2.11,1.133,2.847,2.407,2.727,1.254-.118,2.054-1.018,1.854-3.128l-.12-1.274-4.262.401Z"/><path d="M112.724,449.826l.979,7.274-1.407.189-.758-5.629-3.37.454.66,4.896-1.407.189-.66-4.896-3.588.483.759,5.629-1.407.189-.98-7.274,11.18-1.506Z"/><path d="M122.443,491.718l.38,1.389-15.776,4.318-.38-1.389,15.776-4.318Z"/><path d="M134.027,529.982l.702,1.657-8.836,8.062-.701-1.657,2.117-1.873-1.716-4.052-2.818.216-.687-1.621,11.938-.732ZM127.002,531.957l1.388,3.278,1.34-1.197,3.05-2.594-3.985.384-1.792.129Z"/><path d="M137.856,538.778l1.407,2.983c1.578,3.345-.11,5.247-3.021,6.62-3.002,1.416-5.624,1.481-7.176-1.81l-1.408-2.983,10.198-4.811ZM129.65,544.484l.699,1.482c1.177,2.495,3.459,1.662,5.086.895,1.646-.776,3.722-1.999,2.545-4.494l-.699-1.482-7.631,3.6Z"/><path d="M143.192,549.829l1.528,2.926c1.714,3.28.103,5.25-2.752,6.741-2.943,1.537-5.562,1.709-7.248-1.518l-1.528-2.926,10-5.224ZM135.221,555.868l.759,1.453c1.278,2.447,3.525,1.521,5.122.688,1.613-.844,3.639-2.149,2.36-4.597l-.759-1.454-7.482,3.909Z"/><path d="M140.389,565.529l1.375,2.393,7.315-4.205-1.375-2.392,1.23-.708,3.567,6.206-1.231.707-1.365-2.375-7.314,4.205,1.365,2.375-1.23.707-3.567-6.205,1.23-.708Z"/><path d="M155.383,574.259l-2.023-3.215,1.201-.757,4.952,7.869-1.201.756-2.045-3.249-8.343,5.251-.884-1.404,8.343-5.251Z"/><path d="M153.613,587.08l1.562,2.273,6.954-4.777-1.562-2.274,1.171-.804,4.053,5.899-1.17.804-1.551-2.257-6.955,4.777,1.552,2.258-1.17.804-4.054-5.899,1.17-.804Z"/><path d="M167.996,590.505l1.065,1.426-3.677,5.271-2.245,3.077,3.531-1.291,6.128-2.059,1.042,1.394-11.407,3.584-1.103-1.475,6.665-9.928Z"/><path d="M176.201,601.304l4.631,5.695-1.102.896-3.584-4.407-2.639,2.146,3.117,3.833-1.102.896-3.117-3.833-2.809,2.284,3.584,4.407-1.102.896-4.632-5.695,8.753-7.117Z"/><path d="M206.317,631.998l1.047.989-11.233,11.895-1.047-.988,11.233-11.896Z"/><path d="M228.748,663.299l1.313.948c-.695,1.101-.419,2.188.927,3.159,1.233.89,2.396.988,3.062.063.515-.714.278-1.377-.338-2.267l-1.46-2.113c-.822-1.185-1.243-2.55-.283-3.88,1.17-1.622,3.201-1.463,5.002-.164,1.849,1.334,2.486,3.15,1.146,5.044l-1.298-.937c.871-1.344.186-2.308-.723-2.963-1.185-.854-2.203-.775-2.741-.029-.445.616-.304,1.31.255,2.107l1.459,2.113c1.102,1.585,1.327,2.709.426,3.958-1.346,1.865-3.439,1.588-5.338.218-2.076-1.498-2.731-3.426-1.409-5.259Z"/><path d="M239.678,670.155l4.032-6.088,1.385.917-4.032,6.088c-1.104,1.668-.985,2.61.332,3.483s2.232.614,3.337-1.053l4.032-6.088,1.385.917-4.033,6.088c-1.612,2.435-3.343,2.8-5.527,1.354-2.185-1.447-2.522-3.184-.91-5.618Z"/><path d="M254.235,670.917l2.993,1.812c2.053,1.243,2.861,3.112,1.866,4.755-.601.992-1.486,1.297-2.57,1.155.673.781,1.165,2.015.388,3.298-1.016,1.676-3.166,1.869-5.219.626l-3.302-2,5.844-9.646ZM250.547,680.209l1.83,1.109c1.557.942,2.567.549,3.085-.307.58-.958.228-1.92-1.261-2.821l-1.778-1.077-1.876,3.096ZM253.158,675.899l1.402.85c1.454.881,2.414.878,3.005-.097.528-.872.364-1.837-1.175-2.77l-1.472-.891-1.761,2.907Z"/><path d="M266.466,679.731l-3.328-1.836.686-1.243,8.146,4.491-.686,1.244-3.363-1.854-4.763,8.636-1.453-.802,4.762-8.636Z"/><path d="M275.553,683.011l2.611,1.308c2.593,1.299,3.647,3.169,2.645,5.172-.815,1.627-2.372,2.145-3.938,1.786l1.123,5.573-1.859-.932-.927-5.162-1.342-.671-1.881,3.755-1.484-.743,5.052-10.086ZM274.484,688.851l1.145.573c1.896.949,3.015.548,3.588-.597.563-1.127.225-2.281-1.671-3.23l-1.145-.573-1.917,3.827Z"/><path d="M288.987,689.495l1.641.74-1.01,11.921-1.642-.74.282-2.813-4.012-1.81-1.923,2.073-1.604-.724,8.268-8.647ZM285.171,695.717l3.245,1.465.171-1.789.477-3.976-2.665,2.989-1.228,1.311Z"/><path d="M294.821,698.276c1.428-3.544,3.746-4.853,6.566-3.717,1.8.726,3.463,2.323,2.427,5.163l-1.484-.599c.473-1.6-.127-2.683-1.519-3.243-2.356-.949-3.572.998-4.395,3.039-.777,1.93-1.259,4.194,1.098,5.144,1.577.636,2.585.222,3.316-1.273l1.503.606c-1.177,2.652-3.446,2.773-5.376,1.995-2.913-1.174-3.505-3.72-2.137-7.115Z"/><path d="M311.249,700.066l-3.58-1.275.477-1.338,8.763,3.122-.477,1.338-3.618-1.289-3.311,9.29-1.563-.557,3.31-9.291Z"/><path d="M317.782,711.243l2.635.82,2.511-8.055-2.634-.821.422-1.355,6.834,2.13-.423,1.355-2.614-.815-2.512,8.056,2.615.815-.423,1.355-6.834-2.131.423-1.354Z"/><path d="M331.183,705.034l1.719.46.374,6.415.141,3.805,1.974-3.197,3.539-5.408,1.681.45-6.742,9.871-1.777-.477-.907-11.919Z"/><path d="M344.314,708.435l7.162,1.607-.311,1.386-5.543-1.244-.744,3.317,4.82,1.082-.311,1.386-4.82-1.082-.793,3.532,5.543,1.244-.312,1.386-7.162-1.607,2.47-11.007Z"/><path d="M386.977,713.858l1.435.127-1.436,16.301-1.435-.127,1.436-16.301Z"/><path class="cls-1" d="M414.684,137.874c-152.431,0-276,123.569-276,276s123.569,276,276,276,276-123.569,276-276-123.569-276-276-276ZM414.684,620.874c-114.323,0-207-92.677-207-207s92.677-207,207-207,207,92.677,207,207-92.677,207-207,207Z"/><path d="M458.476,645.729l3.684-.749c2.704-.55,5.008.146,5.533,2.731.529,2.605-1.305,4.121-4.028,4.675l-1.508.307.772,3.801-2.175.442-2.278-11.207ZM461.785,650.871l1.528-.311c1.744-.354,2.369-1.195,2.126-2.391s-1.143-1.706-2.887-1.352l-1.528.311.761,3.742Z"/><path d="M472.021,651.706l2.033-.523c.312.89,1.342,1.038,2.639.703,1.182-.304,2.066-.718,1.861-1.512-.22-.853-1.552-.653-3.354-.52-1.74.139-3.473.069-3.937-1.731-.454-1.763,1.172-2.986,3.282-3.53s4.056-.446,4.765,1.663l-2.033.523c-.375-.895-1.412-.833-2.303-.604-1.182.304-1.78.706-1.63,1.287.199.774,1.261.646,3.379.451,1.652-.158,3.452-.064,3.906,1.698.534,2.071-1.242,3.272-3.644,3.892-2.284.589-4.362.298-4.965-1.798Z"/><path d="M485.489,653.05c1.833-.575,2.55-1.43,2.729-2.996l-6.374-7.204,2.29-.72,2.876,3.479,1.751,2.302.146-2.876.382-4.524,2.176-.684-1.013,9.126c-.38,3.329-1.285,4.787-4.435,5.777l-.528-1.681Z"/><path d="M495.571,643.081c-1.269-3.413.678-5.183,2.74-5.95,1.856-.689,4.18-.7,5.306,1.87l-2.025.753c-.587-1.233-1.527-1.354-2.634-.941-1.463.544-2.014,1.645-1.323,3.502.697,1.875,1.827,2.33,3.309,1.779,1.087-.404,1.729-1.092,1.367-2.408l2.025-.753c.812,2.644-1.003,4.193-2.821,4.869-2.082.774-4.688.655-5.943-2.721Z"/><path d="M504.526,630.545l1.965-.849,2.015,4.662c.117-.486.561-1.527,1.827-2.074,1.542-.667,3.148-.577,4.283,2.048l2.166,5.011-1.964.85-1.999-4.626c-.571-1.322-1.156-1.919-2.35-1.403-.881.381-1.226.944-1.408,1.48l2.562,5.929-1.964.85-5.134-11.877Z"/><path d="M518.789,633.569c-1.578-3.191.158-5.232,2.04-6.163,2.009-.993,4.54-1.106,6.136,2.12,1.569,3.174-.157,5.232-2.04,6.163-2.008.993-4.549,1.089-6.136-2.12ZM525.011,630.493c-.878-1.775-2.039-2.183-3.401-1.509s-1.743,1.844-.865,3.618c.868,1.758,2.038,2.183,3.4,1.51,1.363-.674,1.735-1.862.866-3.619Z"/><path d="M531.807,630.053l2.563-1.438-4.685-8.354-2.563,1.438-.822-1.466,4.431-2.484,5.506,9.819,2.581-1.447.822,1.465-7.012,3.932-.821-1.465Z"/><path d="M540.908,621.711c-1.898-3.012-.383-5.221,1.395-6.341,1.895-1.194,4.401-1.568,6.321,1.478,1.888,2.995.383,5.221-1.395,6.341-1.895,1.194-4.412,1.552-6.321-1.478ZM546.78,618.01c-1.057-1.675-2.253-1.961-3.539-1.15s-1.545,2.014-.489,3.689c1.046,1.658,2.253,1.961,3.539,1.15s1.534-2.031.489-3.689Z"/><path d="M554.44,618.904l1.685-1.188c.648.816,1.421,1.08,2.664.204,1.505-1.06,1.121-1.988.441-2.953l-.727-1.03c-.09.602-.387,1.569-1.499,2.353-1.685,1.187-3.87,1.037-5.621-1.449-1.763-2.502-1.142-4.678.494-5.829,1.178-.83,2.411-.817,3.111-.552l-.656-.933,1.521-1.071,5.23,7.427c1.371,1.946.962,3.728-1.427,5.409-1.603,1.129-3.566,1.851-5.217-.388ZM557.663,612.743l-2.212-3.141c-.63-.095-1.349-.004-2.036.479-1.259.887-1.165,2.167-.243,3.476.921,1.309,2.083,1.812,3.343.925.687-.484,1.026-1.114,1.148-1.739Z"/><path d="M565.577,612.735c1.512-1.184,1.882-2.235,1.498-3.764l-8.499-4.496,1.89-1.479,3.915,2.243,2.448,1.537-.877-2.742-1.234-4.367,1.795-1.405,2.265,8.895c.816,3.247.482,4.931-2.115,6.965l-1.085-1.386Z"/><path d="M614.877,537.161l.76-1.224,13.904,8.625-.759,1.224-13.905-8.625Z"/><path d="M648.881,461.456l-.755,3.703-1.842-.376,1.959-9.601,1.841.376-.755,3.703,9.365,1.911-.448,2.194-9.365-1.911Z"/><path d="M647.319,451.609l.318-2.116,5.023.756c-.351-.355-1-1.282-.795-2.647.25-1.661,1.176-2.978,4.004-2.552l5.398.812-.318,2.115-4.983-.75c-1.424-.214-2.239-.033-2.433,1.252-.143.949.152,1.54.511,1.979l6.388.961-.318,2.115-12.795-1.925Z"/><path d="M657.466,441.11c-3.522-.346-4.406-2.804-4.193-4.973.221-2.248,1.558-4.407,5.04-4.065l.478.047-.676,6.885c1.538.091,2.547-.573,2.715-2.284.115-1.175-.282-2.037-1.122-2.28l.215-2.188c2.228.641,2.743,2.76,2.556,4.67-.25,2.547-1.709,4.514-5.012,4.189ZM657.083,434.162c-1.371.046-2.046.984-2.159,2.138-.113,1.154.366,2.206,1.702,2.518l.457-4.655Z"/><path d="M658.565,428.622c-3.555-.168-4.497-2.675-4.397-4.772.105-2.237,1.234-4.506,4.829-4.335,3.535.167,4.498,2.675,4.398,4.772-.106,2.237-1.255,4.505-4.83,4.335ZM658.895,421.691c-1.978-.094-2.897.724-2.97,2.241-.071,1.519.767,2.419,2.744,2.513,1.957.093,2.896-.724,2.969-2.241.072-1.519-.786-2.42-2.743-2.513Z"/><path d="M661.857,415.49l-.035-2.181-5.461.087.034,2.181-1.7.027-.064-4.041,2-.032c-.986-.364-2.221-1.225-2.248-2.965-.011-.66.14-1.263.354-1.667l2.16-.034c-.253.444-.402,1.127-.393,1.707.022,1.4.736,2.229,1.323,2.66l3.961-.063-.06-3.721,1.68-.027.129,8.042-1.68.027Z"/><path d="M665.333,403.261c-.104-1.918-.754-2.824-2.227-3.385l-8.557,4.391-.13-2.397,4.083-1.924,2.663-1.126-2.751-.853-4.287-1.49-.124-2.277,8.59,3.24c3.129,1.192,4.318,2.431,4.497,5.726l-1.758.096Z"/><path d="M631.611,319.598l-.571-1.321,15.016-6.49.571,1.321-15.016,6.49Z"/><path d="M589.444,251.719l-1.529-1.609,3.392-3.224-2.287-2.406-3.392,3.224-1.529-1.608,8.291-7.882,1.529,1.609-3.551,3.376,2.287,2.406,3.552-3.376,1.529,1.609-8.292,7.881Z"/><path d="M577.957,242.169l-1.898-1.805,1.667-1.754,1.899,1.805-1.668,1.754ZM587.788,235.979l-2.232-2.122-3.762,3.958,2.232,2.121-1.172,1.232-3.783-3.596,4.933-5.189-2.044-1.943,1.158-1.218,5.827,5.539-1.157,1.218Z"/><path d="M578.092,228.417l-1.594-1.366c.551-.766.082-1.694-.936-2.566-.926-.794-1.771-1.282-2.306-.659-.572.668.354,1.646,1.497,3.047,1.11,1.348,2.045,2.808.835,4.22-1.185,1.381-3.12.75-4.774-.669-1.655-1.419-2.689-3.069-1.366-4.858l1.594,1.366c-.519.82.126,1.636.824,2.234.927.794,1.599,1.054,1.989.599.521-.607-.193-1.403-1.565-3.028-1.076-1.265-2.03-2.794-.846-4.176,1.393-1.624,3.395-.856,5.277.758,1.791,1.536,2.743,3.405,1.37,5.1Z"/><path d="M566.012,219.631l-2.065,2.674,2.231,1.724-1.039,1.345-2.231-1.724-2.505,3.244-1.693-1.308,2.506-3.244-3.435-2.652,1.039-1.345,3.434,2.652,2.017-2.611c1.015-1.313,1.116-1.968-.055-2.872-.648-.501-1.36-.823-2.01-.996l1.052-1.361c.677.17,1.488.493,2.422,1.215,1.804,1.393,2.216,2.822.333,5.26Z"/><path d="M557.564,214.051c-2.029,2.925-4.654,2.394-6.38,1.197-1.841-1.277-3.166-3.438-1.114-6.396,2.018-2.908,4.654-2.394,6.38-1.197,1.841,1.276,3.154,3.453,1.114,6.396ZM551.861,210.096c-1.128,1.626-.923,2.84.326,3.706s2.457.633,3.585-.994c1.117-1.61.924-2.84-.325-3.706s-2.469-.617-3.586.994Z"/><path d="M548.202,204.366l-1.854-1.149-2.878,4.641,1.853,1.149-.896,1.445-3.434-2.13,1.055-1.7c-.84.633-2.23,1.206-3.71.288-.561-.348-.986-.8-1.21-1.198l1.139-1.836c.236.453.73.948,1.224,1.254,1.189.738,2.272.586,2.952.325l2.088-3.366-3.162-1.961.886-1.428,6.834,4.238-.886,1.428Z"/><path d="M539.639,194.854c-1.682-.928-2.795-.855-4.051.096l-.807,9.584-2.102-1.159.529-4.482.455-2.855-2.18,1.882-3.535,2.848-1.996-1.101,7.297-5.57c2.669-2.023,4.349-2.377,7.239-.783l-.851,1.542Z"/><path d="M450.8,179.246l-1.424-.214,2.435-16.177,1.424.215-2.435,16.176Z"/><path d="M369.885,171.062l-2.116.432c-.337-1.155-1.123-1.607-2.651-1.296-1.392.284-2.134.945-1.95,1.847.152.745.788.962,1.71,1.08l2.676.312c1.464.17,2.71.875,3.037,2.481.428,2.097-1.123,3.597-3.514,4.085-2.233.455-4.259-.172-4.81-2.672l2.135-.436c.331,1.218,1.073,1.557,2.327,1.301,1.391-.284,1.902-.98,1.734-1.701-.147-.623-.521-.955-1.502-1.061l-2.719-.323c-1.425-.179-2.83-.667-3.198-2.47-.464-2.272,1.275-3.75,3.744-4.254,2.527-.516,4.597.226,5.097,2.675Z"/><path d="M357.847,174.603c.911,3.524-1.206,5.084-3.336,5.634-1.917.496-4.228.267-5.083-2.404l2.091-.54c.457,1.286,1.38,1.502,2.522,1.207,1.511-.391,2.172-1.429,1.676-3.346-.5-1.937-1.577-2.505-3.106-2.11-1.123.291-1.831.907-1.607,2.254l-2.091.541c-.536-2.712,1.428-4.066,3.306-4.552,2.149-.556,4.729-.169,5.629,3.316Z"/><path d="M344.402,175.368l-2.939.924,1.637,5.211,2.939-.924.51,1.623-4.981,1.564-2.147-6.833-2.691.845-.504-1.604,7.674-2.41.504,1.604ZM345.049,186.972l-2.501.785-.726-2.31,2.501-.785.726,2.31Z"/><path d="M333.741,181.638c1.234,3.317-.586,5.189-2.628,5.949-2.118.788-4.645.533-5.864-2.745l-.168-.45,6.483-2.413c-.593-1.422-1.633-2.037-3.244-1.438-1.105.411-1.707,1.147-1.557,2.009l-2.062.767c-.401-2.282,1.277-3.675,3.076-4.345,2.398-.893,4.806-.444,5.963,2.666ZM327.665,185.031c.644,1.211,1.782,1.406,2.869,1.001,1.087-.404,1.821-1.296,1.516-2.633l-4.385,1.632Z"/><path d="M323.17,190.454l-1.707.738-.477-1.102c-.155.699-.582,1.777-1.959,2.372-1.542.667-3.186.593-4.32-2.032l-2.166-5.011,1.964-.85,1.999,4.626c.571,1.322,1.156,1.919,2.35,1.403.881-.381,1.226-.944,1.408-1.48l-2.562-5.929,1.964-.85,3.507,8.113Z"/><path d="M310.558,191.186c1.613,3.263-.14,5.224-2.112,6.198-1.774.878-4.084,1.127-5.468-1.312l1.936-.957c.711,1.166,1.659,1.188,2.717.665,1.398-.691,1.833-1.844.955-3.618-.887-1.793-2.057-2.13-3.473-1.429-1.04.514-1.607,1.263-1.112,2.535l-1.936.957c-1.08-2.545.564-4.272,2.304-5.133,1.989-.984,4.594-1.134,6.189,2.094Z"/><path d="M299.314,196.802c1.731,3.087.221,5.218-1.68,6.284-1.972,1.105-4.507,1.244-6.219-1.809l-.235-.418,6.035-3.385c-.806-1.313-1.928-1.762-3.428-.92-1.029.576-1.51,1.396-1.229,2.225l-1.919,1.076c-.748-2.194.696-3.829,2.37-4.769,2.232-1.252,4.68-1.18,6.304,1.715ZM293.833,201.091c.822,1.099,1.978,1.115,2.989.548s1.601-1.562,1.092-2.836l-4.081,2.288Z"/><path d="M236.019,258.373l-.938,1.093-12.419-10.646.937-1.094,12.42,10.647Z"/><path d="M193.499,326.024l-1.312,3.525c-.962,2.588-2.771,4.179-5.246,3.258-2.494-.928-2.812-3.287-1.843-5.894l.537-1.444-3.638-1.353.773-2.081,10.728,3.988ZM187.38,326.118l-.544,1.463c-.62,1.669-.236,2.645.908,3.07,1.144.425,2.053-.069,2.674-1.738l.544-1.463-3.582-1.332Z"/><path d="M182.863,334.729c3.398,1.067,3.673,3.733,3.043,5.738-.672,2.138-2.341,4.046-5.777,2.967-3.378-1.062-3.672-3.733-3.042-5.737.672-2.139,2.36-4.041,5.776-2.968ZM180.783,341.353c1.89.594,2.987.037,3.443-1.414.455-1.45-.127-2.535-2.017-3.129-1.87-.588-2.987-.037-3.443,1.414-.455,1.451.146,2.541,2.017,3.129Z"/><path d="M176.4,346.565l-.733,2.847,9.275,2.39.733-2.846,1.626.419-1.268,4.918-10.901-2.809-.738,2.865-1.627-.419,2.006-7.784,1.627.419Z"/><path d="M173.347,358.873l-.615,3.018,5.349,1.091.615-3.017,1.666.34-1.044,5.113-7.014-1.432-.563,2.763-1.646-.336,1.607-7.876,1.646.336ZM183.806,363.925l-.523,2.566-2.371-.483.523-2.567,2.371.484Z"/><path d="M172.702,373.553l3.342.502.419-2.788,1.682.253-.42,2.788,4.054.61-.318,2.116-4.054-.61-.646,4.291-1.681-.253.646-4.291-3.263-.491c-1.642-.246-2.263-.017-2.483,1.447-.122.811-.057,1.589.108,2.24l-1.701-.256c-.182-.674-.294-1.54-.118-2.707.339-2.255,1.388-3.311,4.434-2.852Z"/><path d="M169.165,383.889l-.301,3.064,5.433.533.301-3.064,1.691.166-.51,5.193-7.124-.699-.275,2.806-1.671-.164.785-7.999,1.671.164ZM180.088,387.834l-.256,2.606-2.407-.236.256-2.606,2.407.236Z"/><path d="M170.802,396.123c3.636.172,4.499,2.655,4.395,4.853-.094,1.977-.996,4.116-3.8,4.144l.103-2.157c1.364-.056,1.843-.873,1.898-2.052.074-1.558-.723-2.497-2.699-2.59-1.998-.095-2.859.765-2.934,2.343-.056,1.158.324,2.018,1.677,2.201l-.102,2.157c-2.749-.29-3.462-2.565-3.37-4.503.104-2.218,1.237-4.566,4.832-4.396Z"/><path d="M168.604,408.863l.033,2.101c-.938.095-1.323,1.062-1.302,2.401.02,1.221.215,2.178,1.035,2.165.88-.015.999-1.357,1.29-3.143.272-1.726.746-3.394,2.606-3.424,1.82-.028,2.631,1.839,2.666,4.02s-.516,4.051-2.733,4.246l-.034-2.101c.958-.155,1.143-1.179,1.127-2.099-.02-1.221-.271-1.897-.87-1.888-.8.013-.923,1.075-1.229,3.182-.234,1.645-.746,3.373-2.567,3.402-2.14.034-2.893-1.975-2.933-4.455-.037-2.36.731-4.313,2.911-4.408Z"/><path d="M193.282,493.916l.502,1.349-15.327,5.704-.502-1.349,15.327-5.704Z"/><path d="M227,566.916c2.794-2.395,5.574-2.593,7.696-.118,1.73,2.02,2.021,4.141-.24,6.265l-1.471-1.716c1.139-1.16,1.205-2.219.269-3.312-1.458-1.701-3.103-.792-4.757.627-1.625,1.393-2.789,2.892-1.332,4.592.95,1.108,1.994,1.188,3.3.254l1.471,1.716c-2.427,1.869-4.562,1.224-6.254-.75-2.213-2.581-1.506-5.137,1.318-7.558Z"/><path d="M234.097,578.595l3.957-3.762,1.475,1.551-3.653,3.473c-1.043.992-1.402,1.747-.507,2.689.662.695,1.31.825,1.875.812l4.683-4.451,1.475,1.551-6.407,6.091-1.281-1.349.869-.826c-.71.095-1.869.065-2.902-1.021-1.157-1.218-1.655-2.786.418-4.757Z"/><path d="M241.58,588.766l2.131,2.025,6.6-6.943-2.131-2.025,1.158-1.218,3.682,3.5-7.758,8.161,2.146,2.039-1.157,1.218-5.827-5.539,1.157-1.218Z"/><path d="M253.675,597.093l2.2-2.565-2.142-1.836,1.106-1.29,2.141,1.835,2.669-3.112,1.624,1.393-2.668,3.112,3.295,2.825-1.106,1.29-3.295-2.824-2.147,2.505c-1.08,1.26-1.215,1.909-.092,2.872.623.533,1.317.892,1.957,1.098l-1.119,1.306c-.669-.204-1.462-.568-2.358-1.336-1.73-1.484-2.068-2.934-.064-5.271Z"/><path d="M261.733,604.341l3.337-4.319,1.692,1.308-3.08,3.987c-.88,1.14-1.119,1.94-.09,2.734.759.587,1.419.616,1.976.516l3.948-5.11,1.693,1.308-5.402,6.994-1.472-1.137.733-.949c-.688.202-1.837.35-3.023-.567-1.329-1.026-2.061-2.501-.312-4.764Z"/><path d="M270.686,613.253l1.791,1.242,3.112-4.486-1.791-1.242.969-1.397,3.319,2.303-1.14,1.644c.87-.589,2.289-1.09,3.719-.098.542.376.944.85,1.147,1.258l-1.231,1.775c-.213-.465-.681-.983-1.157-1.314-1.15-.798-2.239-.701-2.932-.476l-2.257,3.254,3.057,2.12-.957,1.381-6.606-4.582.957-1.381Z"/><path d="M282.166,617.824c1.866-3.009,4.463-2.716,6.315-1.567,1.921,1.191,3.269,3.346,1.423,6.32l-.253.408-5.881-3.648c-.761,1.341-.61,2.54.852,3.447,1.003.622,1.952.646,2.542,0l1.87,1.159c-1.56,1.717-3.689,1.242-5.321.23-2.176-1.35-3.297-3.527-1.547-6.35ZM288.572,620.55c.564-1.251.021-2.271-.966-2.883-.985-.611-2.142-.646-3.012.415l3.978,2.468Z"/><path d="M366.677,643.36l1.411.286-3.258,16.026-1.411-.286,3.258-16.026Z"/><path class="cls-1" d="M414.684,206.874c-114.323,0-207,92.677-207,207s92.677,207,207,207,207-92.677,207-207-92.677-207-207-207ZM414.684,551.874c-76.215,0-138-61.785-138-138s61.785-138,138-138,138,61.785,138,138-61.785,138-138,138Z"/><path d="M435.309,580.657l2.616-.362c2.219-.308,3.835.39,4.101,2.308.266,1.919-1.083,3.026-3.318,3.336l-1.301.181.457,3.298-1.315.182-1.239-8.941ZM437.251,584.993l1.315-.182c1.681-.233,2.236-1.005,2.096-2.02-.139-.999-.886-1.606-2.565-1.374l-1.316.183.471,3.393Z"/><path d="M445.788,586.398c-.313-1.586,1.007-2.254,2.326-2.515.659-.13,1.497-.181,2.015-.12l-.117-.597c-.208-1.052-.514-1.855-1.989-1.564-1.131.223-1.615.824-1.43,1.767l-1.193.235c-.387-1.963,1.131-2.784,2.513-3.058,1.806-.355,2.938.335,3.29,2.125l.613,3.108c.053.267.166.343.448.287.22-.044.509-.149.748-.262l.173.879c-.229.159-.657.391-1.144.486-.816.161-1.113-.27-1.203-.725l-.025-.126c-.268.543-.923,1.275-2.288,1.545-1.319.26-2.471-.116-2.736-1.467ZM450.514,585.71l-.211-1.067c-.396-.021-1.07.031-1.762.168-1.067.21-1.668.558-1.519,1.311.12.612.604.827,1.498.65.911-.18,1.562-.602,1.993-1.062Z"/><path d="M456.254,584.961l2.338-.604-2.019-7.821-2.339.604-.264-1.022,3.562-.919,2.282,8.844,2.339-.604.268,1.038-5.9,1.523-.268-1.038Z"/><path d="M465.002,580.126c-.85-2.649.572-4.029,2.11-4.522,1.492-.479,3.502-.232,4.356,2.433l.078.243-5.269,1.689c.524,1.427,1.464,1.999,2.85,1.555,1.051-.337,1.604-1.018,1.488-1.904l1.219-.391c.292,1.854-1.141,2.885-2.42,3.295-1.767.566-3.612.101-4.413-2.397ZM470.02,577.761c-.538-1.153-1.499-1.534-2.596-1.183s-1.658,1.221-1.424,2.472l4.02-1.289Z"/><path d="M476.576,576.863l-1.107-2.865-2.134.825-.387-1,2.134-.825-1.165-3.015,1.179-.455,1.165,3.014,3.194-1.233.386.999-3.193,1.234,1.09,2.82c.514,1.328.987,1.712,2.122,1.273.656-.254,1.127-.59,1.472-.896l.387,1c-.169.186-.721.622-1.631.974-1.566.605-2.657.358-3.511-1.851Z"/><path d="M485.924,573.036l-1.269-2.798-2.083.945-.443-.977,2.084-.945-1.335-2.943,1.151-.521,1.335,2.943,3.118-1.414.442.977-3.118,1.414,1.249,2.754c.588,1.297,1.083,1.652,2.19,1.15.641-.291,1.092-.653,1.419-.978l.442.977c-.157.194-.684.661-1.572,1.064-1.53.693-2.633.508-3.611-1.648Z"/><path d="M492.978,569.026c-1.296-2.465-.134-4.069,1.297-4.822,1.388-.729,3.41-.835,4.714,1.643l.119.227-4.899,2.577c.764,1.315,1.788,1.716,3.076,1.039.978-.515,1.405-1.281,1.138-2.135l1.133-.596c.608,1.776-.625,3.04-1.814,3.665-1.643.864-3.542.725-4.763-1.598ZM497.514,565.827c-.73-1.044-1.743-1.252-2.763-.717-1.02.537-1.423,1.489-.976,2.683l3.738-1.966Z"/><path d="M523.605,540.701l.876-.75,8.513,9.948-.876.749-8.513-9.947Z"/><path d="M548.74,516.179l1.051-1.412,3.024.975,1.954.697-1.238-1.659-1.801-2.617,1.021-1.373,7.238,5.387-.717.963-4.234-3.152-1.948-1.59,3.171,4.555-.611.821-5.272-1.731,2.082,1.41,4.234,3.152-.716.962-7.238-5.387Z"/><path d="M554.951,505.444l.89-1.35,1.35.889-.889,1.351-1.351-.89ZM561.289,512.436l1.392-2.111-4.037-2.659-1.391,2.112-.896-.59,2.086-3.168,4.933,3.248,1.268-1.925.896.59-3.354,5.093-.896-.59Z"/><path d="M565.79,500.628l-4.457.893.771-1.328,3.345-.632-1.129-3.188.754-1.301,1.455,4.284,4.66-.923-.771,1.328-3.555.676,1.179,3.421-.755,1.301-1.497-4.53Z"/><path d="M564.702,488.787l.729-1.442,1.442.729-.729,1.443-1.442-.729ZM571.796,495.007l1.141-2.257-4.313-2.18-1.14,2.257-.957-.483,1.71-3.385,5.271,2.663,1.039-2.057.957.483-2.75,5.441-.957-.483Z"/><path d="M570.936,483.35l.421-.969.852.369c-.321-.506-.584-1.388-.086-2.532.465-1.072,1.422-1.947,3.55-1.022l3.935,1.709-.504,1.16-3.685-1.602c-1.204-.522-1.989-.603-2.474.514-.377.865-.176,1.528-.008,1.863l4.903,2.131-.504,1.159-6.4-2.78Z"/><path d="M581.657,477.294l.425-1.156c.937.327,1.579.019,2.016-1.168.574-1.562-.155-2.034-1.102-2.382l-.871-.32c.196.396.424,1.212.06,2.203-.542,1.472-2.018,2.378-4.374,1.511-2.388-.879-2.907-2.57-2.383-3.996.392-1.066,1.218-1.598,1.77-1.753l-.841-.31.364-.99,6.802,2.502c1.667.613,2.305,1.751,1.521,3.884-.563,1.531-1.519,2.646-3.386,1.976ZM581.239,471.942l-3.453-1.271c-.555.256-1.009.703-1.252,1.363-.475,1.291.291,2.221,1.703,2.74,1.411.52,2.597.308,3.072-.983.243-.661.187-1.295-.07-1.85Z"/><path d="M581.574,434.452l.146-1.143,12.981,1.66-.146,1.143-12.981-1.66Z"/><path d="M583.683,398.894l-.251-2.628c-.214-2.23.551-3.815,2.479-4,1.927-.185,2.978,1.21,3.192,3.456l.125,1.307,3.313-.317.127,1.322-8.985.86ZM588.097,397.137l-.127-1.322c-.162-1.688-.909-2.276-1.929-2.179-1.004.097-1.642.816-1.48,2.505l.127,1.322,3.409-.326Z"/><path d="M589.864,388.679c-1.597.245-2.208-1.101-2.411-2.429-.103-.664-.118-1.503-.035-2.018l-.601.093c-1.06.162-1.875.433-1.647,1.919.175,1.139.755,1.647,1.703,1.502l.185,1.202c-1.976.303-2.731-1.248-2.945-2.639-.279-1.818.458-2.918,2.261-3.194l3.13-.48c.269-.042.349-.151.306-.436-.034-.222-.128-.515-.229-.758l.885-.136c.149.236.362.673.438,1.163.126.821-.316,1.1-.775,1.17l-.126.02c.53.291,1.233.976,1.444,2.352.204,1.327-.221,2.461-1.58,2.669ZM589.378,383.932l-1.074.165c-.037.394-.014,1.07.093,1.766.165,1.075.485,1.689,1.244,1.572.617-.095.852-.567.713-1.468-.141-.917-.534-1.585-.976-2.035Z"/><path d="M583.056,379.21l-.221-1.033.908-.193c-.556-.226-1.282-.791-1.543-2.012-.244-1.143.025-2.412,2.296-2.896l4.195-.896.264,1.237-3.929.838c-1.284.274-1.97.666-1.716,1.856.197.924.746,1.347,1.078,1.521l5.229-1.116.264,1.236-6.825,1.457Z"/><path d="M584.511,367.149l-2.962.814.606,2.206-1.033.284-.606-2.205-3.116.856-.335-1.219,3.115-.856-.907-3.302,1.033-.284.908,3.302,2.915-.802c1.373-.378,1.802-.811,1.479-1.983-.187-.679-.474-1.181-.743-1.555l1.034-.284c.167.187.546.779.805,1.72.445,1.62.09,2.681-2.193,3.308Z"/><path d="M581.661,359.538c-2.696.912-4.054-.554-4.566-2.068-.513-1.516-.304-3.443,2.348-4.341,2.712-.918,4.074.563,4.582,2.063.518,1.53.273,3.453-2.363,4.346ZM579.878,354.315c-1.667.564-2.214,1.543-1.773,2.846.441,1.304,1.47,1.749,3.137,1.185,1.651-.559,2.214-1.542,1.772-2.846-.44-1.303-1.484-1.743-3.136-1.185Z"/><path d="M574.911,350.863l-.395-.979.859-.347c-.585-.126-1.396-.558-1.863-1.714-.437-1.083-.39-2.378,1.761-3.245l3.975-1.604.473,1.172-3.723,1.502c-1.217.49-1.823.993-1.369,2.121.353.875.966,1.196,1.322,1.312l4.954-1.998.473,1.172-6.467,2.608Z"/><path d="M574.513,340.774c-2.517,1.189-4.071-.041-4.762-1.502-.67-1.417-.689-3.443,1.842-4.64l.231-.109,2.365,5.005c1.347-.707,1.792-1.713,1.17-3.029-.472-.998-1.221-1.459-2.084-1.228l-.547-1.157c1.801-.532,3.01.754,3.584,1.969.793,1.678.572,3.57-1.8,4.691ZM571.51,336.105c-1.074.685-1.325,1.688-.833,2.729.492,1.042,1.427,1.484,2.638,1.09l-1.805-3.819Z"/><path d="M547.521,308.978l-.711-.906,10.298-8.076.711.906-10.298,8.076Z"/><path d="M523.681,282.522l-4.559-3.701.717-.882,3.527,2.864,1.714-2.111-3.067-2.491.716-.882,3.068,2.491,1.825-2.248-3.527-2.864.716-.882,4.559,3.701-5.688,7.005Z"/><path d="M522.937,267.988c-1.193-.86-2.125-.882-3.317-.185l-1.657,7.52-1.115-.805.96-3.901.609-2.32-1.991,1.284-3.443,2.15-1.063-.768,6.412-3.833c2.11-1.259,3.43-1.312,5.232-.012l-.626.869Z"/><path d="M511.537,266.487c-1.497,2.347-3.468,2.134-4.83,1.265-1.322-.844-2.417-2.548-.911-4.909l.138-.216,4.667,2.978c.764-1.315.604-2.404-.623-3.188-.931-.594-1.81-.585-2.418.071l-1.079-.688c1.241-1.41,2.95-.965,4.083-.242,1.564.998,2.385,2.718.974,4.93ZM506.51,264.133c-.545,1.151-.224,2.135.748,2.755.971.619,1.998.496,2.812-.483l-3.561-2.271Z"/><path d="M501.353,262.067l-4.133-2.312.547-.978,4.133,2.312-.547.978Z"/><path d="M491.306,261.106l-2.374-1.155c-2.662-1.296-2.562-3.329-1.435-5.646,1.163-2.389,2.766-3.744,5.385-2.469l2.374,1.155-3.95,8.115ZM493.564,253.431l-1.18-.574c-1.986-.967-2.991.697-3.622,1.992-.638,1.31-1.319,3.113.666,4.08l1.18.574,2.956-6.072Z"/><path d="M485.755,249.692l-1.67-.696-1.861,4.46,1.669.697-.413.989-2.644-1.104.61-1.462c-.537.539-1.559,1.24-2.917.673-.502-.21-.905-.534-1.036-.676l.499-1.196c.155.169.54.451,1.013.648,1.123.469,1.983.151,2.526-.194l1.388-3.323-2.792-1.165.413-.989,5.628,2.349-.413.989Z"/><path d="M475.838,248.256c-.942,2.687-2.933,2.853-4.442,2.323-1.509-.53-2.898-1.882-1.973-4.522.948-2.701,2.954-2.862,4.447-2.338,1.524.534,2.889,1.911,1.968,4.537ZM470.626,246.445c-.582,1.66-.148,2.693,1.149,3.149,1.298.455,2.282-.081,2.865-1.741.577-1.645.148-2.693-1.149-3.148s-2.288.096-2.865,1.74Z"/><path d="M464.834,248.241l-1.016-.291.247-.861c-.485.36-1.352.711-2.475.389-1.431-.41-2.521-1.771-1.794-4.309.701-2.446,2.328-3.128,3.805-2.705,1.015.291,1.562.997,1.746,1.399l.987-3.445,1.216.349-2.717,9.475ZM461.027,243.521c-.424,1.477-.146,2.654,1.178,3.034.738.211,1.38.062,1.854-.201l1.041-3.63c-.264-.475-.729-.941-1.467-1.152-1.323-.38-2.184.473-2.606,1.949Z"/><path d="M455.36,245.646l-1.029-.232.197-.874c-.465.387-1.311.786-2.449.529-1.452-.328-2.619-1.625-2.038-4.2.561-2.482,2.146-3.256,3.646-2.918,1.029.232,1.616.906,1.823,1.298l.789-3.497,1.233.278-2.172,9.616ZM451.29,241.15c-.338,1.499.007,2.659,1.35,2.963.749.169,1.381-.017,1.841-.307l.831-3.684c-.29-.459-.781-.898-1.53-1.067-1.343-.304-2.152.597-2.491,2.095Z"/><path d="M446.823,240.227c-.454,2.748-2.351,3.327-3.945,3.063-1.548-.256-3.226-1.393-2.769-4.156l.041-.253,5.465.903c.185-1.511-.391-2.45-1.827-2.688-1.09-.18-1.895.174-2.196,1.017l-1.264-.209c.587-1.785,2.334-2.048,3.661-1.829,1.831.303,3.263,1.562,2.834,4.151ZM441.273,240.04c-.048,1.273.635,2.052,1.771,2.239s2.034-.329,2.397-1.551l-4.169-.688Z"/><path d="M436.823,236.257l-1.798-.192-.517,4.806,1.799.193-.114,1.066-2.85-.306.17-1.576c-.362.67-1.142,1.633-2.605,1.476-.541-.059-1.02-.255-1.186-.353l.139-1.29c.196.118.646.279,1.155.334,1.209.13,1.944-.419,2.367-.905l.384-3.581-3.008-.322.114-1.066,6.064.651-.115,1.065Z"/><path d="M395.692,245.115l-1.145.133-1.511-13.006,1.146-.134,1.51,13.007Z"/><path d="M360.684,251.619l-1.673.593-5.248-6.336,1.001,2.395,1.714,4.839-1.131.4-3.012-8.502,1.674-.593,5.247,6.336-1-2.395-1.715-4.839,1.131-.4,3.012,8.502Z"/><path d="M349.27,248.118c.627,1.489-.529,2.41-1.768,2.932-.619.261-1.43.48-1.948.526l.236.56c.416.987.877,1.713,2.263,1.129,1.062-.447,1.414-1.134,1.042-2.018l1.12-.473c.776,1.843-.543,2.954-1.841,3.501-1.694.714-2.941.268-3.649-1.413l-1.229-2.919c-.105-.25-.231-.302-.497-.189-.206.087-.468.249-.679.407l-.348-.825c.192-.202.563-.516,1.021-.708.767-.323,1.145.039,1.325.466l.05.118c.152-.585.645-1.435,1.927-1.975,1.238-.522,2.441-.387,2.976.881ZM344.783,249.748l.423,1.002c.391-.061,1.041-.247,1.689-.521,1.002-.423,1.52-.884,1.222-1.591-.242-.575-.758-.688-1.599-.333-.854.359-1.406.904-1.735,1.442Z"/><path d="M338.667,253.919l1.354,2.757,2.053-1.008.473.962-2.054,1.009,1.425,2.9-1.135.557-1.424-2.9-3.073,1.509-.472-.963,3.072-1.508-1.332-2.714c-.628-1.278-1.133-1.618-2.225-1.082-.631.31-1.07.686-1.388,1.02l-.473-.962c.152-.199.663-.682,1.539-1.111,1.508-.74,2.615-.59,3.659,1.535Z"/><path d="M330.847,257.737l2.105,3.734-1.101.62-1.972-3.496c-.645-1.143-1.223-1.68-2.282-1.082-.821.463-1.062,1.112-1.129,1.481l2.625,4.653-1.101.62-3.427-6.074.92-.519.456.809c.049-.597.371-1.458,1.457-2.071,1.018-.573,2.308-.695,3.447,1.324Z"/><path d="M321.422,261.339l-1.521.978,2.613,4.064,1.521-.978.58.901-2.409,1.549-.856-1.332c.138.747.135,1.985-1.103,2.781-.458.295-.953.441-1.145.47l-.701-1.09c.228-.032.678-.188,1.108-.466,1.023-.657,1.251-1.546,1.275-2.188l-1.947-3.028-2.543,1.635-.58-.901,5.128-3.296.579.901Z"/><path d="M314.618,268.673c1.636,2.252.716,4.007-.591,4.956-1.268.921-3.254,1.316-4.899-.948l-.15-.207,4.478-3.252c-.945-1.191-2.016-1.441-3.193-.586-.893.648-1.206,1.469-.818,2.274l-1.035.752c-.857-1.67.182-3.097,1.269-3.887,1.501-1.09,3.399-1.225,4.941.897ZM310.59,272.489c.872.929,1.904.989,2.836.312s1.193-1.678.58-2.793l-3.416,2.48Z"/><path d="M288.376,301.111l-.76.867-9.848-8.625.759-.867,9.849,8.625Z"/><path d="M266.801,329.423l-.631,1.169-3.395-1.831-1.443,2.676,3.395,1.831-.631,1.169-7.943-4.285.631-1.169,3.562,1.922,1.444-2.676-3.563-1.923.631-1.169,7.943,4.286Z"/><path d="M262.273,338.047l-2.486,5.319-1.029-.48,1.924-4.117-2.464-1.151-1.674,3.58-1.029-.48,1.674-3.581-2.624-1.226-1.924,4.116-1.029-.48,2.486-5.32,8.176,3.821Z"/><path d="M253.401,347.201l5.197-1.147-.57,1.428-2.358.471-1.677.312.994,1.396,1.386,1.967-.559,1.396-2.947-4.399-5.494,1.2.57-1.427,2.698-.542,1.625-.316-.967-1.333-1.57-2.282.552-1.382,3.12,4.658Z"/><path d="M248.414,354.218l.507-1.519.875.512-.501,1.503,1.933,1.084.507-1.519.876.512-.502,1.503,2.141,1.221-.35,1.048-2.141-1.221-.618,1.853,2.141,1.22-.35,1.048-2.141-1.221-.506,1.519-.876-.512.502-1.503-1.934-1.084-.507,1.519-.875-.512.501-1.503-2.171-1.23.35-1.048,2.171,1.23.618-1.852-2.171-1.23.35-1.048,2.171,1.23ZM248.945,355.762l-.618,1.853,1.934,1.083.617-1.852-1.933-1.084Z"/><path d="M247.217,395.327l-.111,1.147-13.03-1.261.11-1.147,13.031,1.261Z"/><path d="M246.002,429.721l.162,1.285-4.819,1.155-2.839.632,4.915.751.156,1.237-4.577,1.931,2.908-.075,4.954-.093.159,1.27-9.09.017-.212-1.682,4.206-1.804-4.521-.704-.212-1.682,8.81-2.238Z"/><path d="M248.648,440.348l.229,1.243-3.917.722c.396.204,1.051.669,1.268,1.849.215,1.164-.087,2.439-2.368,2.86l-4.216.776-.229-1.242,3.949-.729c1.29-.237,1.985-.609,1.766-1.805-.171-.929-.707-1.366-1.034-1.551l-5.255.969-.229-1.243,10.037-1.85Z"/><path d="M243.842,450.886c2.703-.664,3.98.851,4.366,2.42.374,1.522-.011,3.511-2.729,4.178l-.248.062-1.32-5.375c-1.46.425-2.097,1.322-1.749,2.735.263,1.072.904,1.672,1.797,1.618l.306,1.242c-1.871.163-2.8-1.338-3.12-2.644-.442-1.802.151-3.61,2.698-4.236ZM245.853,456.058c1.188-.457,1.635-1.39,1.36-2.508-.274-1.119-1.103-1.739-2.368-1.593l1.008,4.101Z"/><path d="M246.33,460.64c2.66-.817,4.022.621,4.497,2.165.461,1.499.19,3.506-2.484,4.329l-.245.075-1.626-5.291c-1.434.508-2.018,1.44-1.59,2.832.324,1.055.999,1.617,1.888,1.512l.376,1.223c-1.858.271-2.872-1.176-3.267-2.46-.545-1.773-.057-3.613,2.451-4.385ZM248.635,465.689c1.16-.524,1.553-1.481,1.214-2.583-.338-1.101-1.2-1.672-2.455-1.454l1.241,4.037Z"/><path d="M247.24,471.367l.841,2.266,7.574-2.812-.841-2.266.99-.367,1.281,3.45-8.565,3.18.842,2.265-1.006.373-2.121-5.714,1.005-.374Z"/><path d="M273.574,504.174l.633.963-10.934,7.189-.633-.963,10.934-7.189Z"/><path d="M290.268,536.817l.934.898c-.675.794-.579,1.686.377,2.606.876.843,1.784,1.052,2.417.396.488-.508.376-1.06-.013-1.833l-.917-1.837c-.517-1.031-.696-2.159.213-3.104,1.109-1.152,2.7-.798,3.979.434,1.313,1.265,1.613,2.774.338,4.122l-.921-.888c.841-.966.406-1.806-.238-2.427-.841-.81-1.656-.862-2.167-.332-.422.438-.389,1.002-.036,1.697l.917,1.837c.693,1.379.745,2.294-.109,3.181-1.275,1.325-2.901.869-4.249-.429-1.475-1.42-1.776-3.021-.523-4.322Z"/><path d="M300.853,540.751l.801.688-.583.68c.592-.125,1.525-.082,2.412.679,1.13.969,1.555,2.661-.165,4.666-1.657,1.931-3.421,1.873-4.587.872-.802-.688-1.004-1.558-1.004-2l-2.335,2.721-.959-.823,6.42-7.482ZM302.346,546.63c1-1.166,1.238-2.354.194-3.25-.583-.5-1.229-.632-1.771-.591l-2.46,2.866c.042.542.271,1.16.854,1.66,1.045.896,2.182.48,3.183-.686Z"/><path d="M305.83,549.524c1.688-2.212,3.633-1.833,4.917-.854,1.245.951,2.192,2.741.494,4.966l-.155.203-4.397-3.358c-.871,1.247-.804,2.345.353,3.228.877.67,1.753.734,2.414.133l1.017.776c-1.354,1.3-3.02.713-4.087-.103-1.475-1.126-2.146-2.906-.555-4.991ZM310.639,552.29c.64-1.102.402-2.107-.513-2.807-.916-.698-1.949-.662-2.843.244l3.355,2.562Z"/><path d="M313.897,555.546c1.624-2.397,3.635-1.943,4.934-1.063,1.112.753,2.171,2.128,1.11,3.921l-1.046-.708c.549-1.039.15-1.734-.657-2.281-1.179-.799-2.281-.599-3.268.858-.996,1.47-.765,2.555.414,3.354.808.547,1.602.659,2.362-.235l1.046.708c-1.263,1.637-2.98,1.149-4.054.423-1.364-.924-2.447-2.604-.842-4.976Z"/><path d="M323.59,562.646l1.573-2.64-1.966-1.172.549-.921,1.966,1.172,1.655-2.777,1.087.647-1.655,2.777,2.941,1.753-.549.922-2.942-1.754-1.548,2.599c-.729,1.224-.739,1.833.306,2.455.605.361,1.16.524,1.613.607l-.549.922c-.25-.019-.934-.185-1.772-.685-1.443-.86-1.922-1.871-.709-3.906Z"/><path d="M330.123,568.455l1.604.835,2.23-4.286-1.604-.834.495-.951,2.54,1.322-.731,1.405c.581-.492,1.657-1.104,2.962-.425.482.251.856.607.976.76l-.599,1.149c-.14-.181-.5-.494-.954-.73-1.078-.562-1.962-.318-2.532-.02l-1.662,3.192,2.683,1.396-.495.95-5.406-2.813.494-.951Z"/><path d="M339.197,572.243c.663-1.473,2.125-1.254,3.351-.702.613.275,1.325.719,1.712,1.067l.25-.554c.439-.978.655-1.81-.716-2.427-1.05-.473-1.793-.263-2.187.612l-1.109-.499c.82-1.823,2.533-1.614,3.816-1.036,1.678.754,2.2,1.972,1.452,3.634l-1.299,2.889c-.111.248-.063.375.199.493.204.092.501.173.761.22l-.368.816c-.279-.003-.761-.062-1.213-.266-.759-.341-.752-.863-.562-1.287l.053-.116c-.532.286-1.49.505-2.759-.066-1.226-.551-1.945-1.523-1.382-2.778ZM343.446,574.417l.446-.992c-.311-.245-.891-.594-1.532-.883-.992-.445-1.683-.511-1.997.189-.256.569.014,1.023.845,1.397.846.381,1.621.413,2.238.288Z"/><path d="M348.543,577.12l2.258.861,2.882-7.552-2.258-.861.376-.987,3.439,1.312-3.258,8.539,2.258.861-.383,1.002-5.697-2.174.383-1.002Z"/><path d="M390.561,578.984l1.141.159-1.81,12.956-1.141-.159,1.81-12.956Z"/><path class="cls-1" d="M414.684,275.874c-76.215,0-138,61.785-138,138s61.785,138,138,138,138-61.785,138-138-61.785-138-138-138ZM414.684,482.874c-38.108,0-69-30.892-69-69s30.892-69,69-69,69,30.892,69,69-30.892,69-69,69Z"/><path d="M434.852,517.257l2.124-.494c.347,1.049,1.216,1.607,2.599,1.285,1.306-.304,1.938-1.21,1.638-2.496-.308-1.325-1.343-1.804-2.727-1.481-.896.208-1.78.824-2.251,1.715l-1.503-.103-.815-6.424,7.092-1.649.427,1.831-5.301,1.233.344,2.713c.544-.578,1.347-1.012,2.204-1.211,2.24-.521,4.175.467,4.71,2.767.585,2.514-.993,4.298-3.292,4.832-2.611.607-4.586-.289-5.248-2.518Z"/><path d="M444.788,509.25l1.523-.553.431,1.184c.09-.629.365-1.687,1.55-2.117.978-.355,1.755.086,2.156.663.082-.477.382-1.586,1.547-2.01,1.297-.472,2.227.446,2.828,2.101l2.085,5.733-1.785.649-1.969-5.414c-.369-1.016-.708-1.36-1.234-1.169-.508.185-.747.697-.894,1.112l2.235,6.147-1.786.649-1.969-5.414c-.369-1.016-.707-1.36-1.233-1.169-.508.185-.766.704-.913,1.119l2.235,6.147-1.786.649-3.021-8.31Z"/><path d="M460.077,510.991l2.747-1.394-2.471-4.869-2.747,1.394-.769-1.517,4.655-2.361,3.239,6.386,2.516-1.275.76,1.498-7.171,3.638-.76-1.499ZM457.533,499.655l2.337-1.186,1.095,2.158-2.337,1.186-1.095-2.158Z"/><path d="M467.653,498.83l1.547-1.032.667.997c.027-.715.253-1.853,1.501-2.686,1.396-.934,3.027-1.156,4.616,1.222l3.032,4.541-1.779,1.188-2.8-4.191c-.8-1.197-1.482-1.68-2.563-.957-.798.533-1.036,1.148-1.119,1.709l3.588,5.372-1.779,1.188-4.91-7.352Z"/><path d="M495.044,467.088l1.066-1.598,13.787,9.209-1.066,1.597-13.787-9.208Z"/><path d="M520.294,436.754l.583-2.984-6.991-1.364c.474.603.646,1.492.409,2.71l-.089.451-1.943-.379.172-.884c.241-1.237-.03-2.248-.885-2.884l.318-1.63,9.426,1.839.494-2.533,1.807.352-1.494,7.659-1.807-.353Z"/><path d="M518.545,424.808c-3.67-.267-5.854-1.929-5.618-5.18.237-3.271,2.576-4.544,6.186-4.282,3.63.265,5.855,1.91,5.618,5.181-.236,3.25-2.536,4.547-6.186,4.281ZM519.008,417.605c-2.014-.146-4.047-.034-4.208,2.18s1.835,2.619,3.849,2.766c1.975.144,4.048.034,4.209-2.18.16-2.214-1.875-2.622-3.85-2.766ZM518.762,420.995c-.538-.039-.89-.445-.851-.983.039-.539.445-.891.984-.851.538.039.89.445.851.983-.039.539-.445.89-.984.851Z"/><path d="M516.104,412.603l-.073-1.618,1.259-.057c-.573-.274-1.5-.853-1.557-2.111-.047-1.038.606-1.648,1.277-1.858-.43-.221-1.398-.838-1.454-2.076-.062-1.378,1.091-1.99,2.849-2.069l6.092-.275.086,1.897-5.753.26c-1.078.049-1.509.269-1.483.827.024.539.441.921.794,1.186l6.531-.295.086,1.897-5.753.26c-1.078.049-1.509.268-1.483.827.024.539.442.94.795,1.205l6.531-.294.085,1.897-8.828.397Z"/><path d="M510.772,397.54l-.428-2.584,2.388-.396.428,2.585-2.388.395ZM522.348,398.524l-.503-3.039-5.387.892.503,3.039-1.677.277-.853-5.149,7.063-1.169-.461-2.782,1.658-.274,1.312,7.932-1.657.274Z"/><path d="M513.03,387.647l-.521-1.785,1.151-.336c-.675-.241-1.691-.798-2.111-2.238-.47-1.612-.193-3.234,2.552-4.035l5.24-1.528.6,2.054-4.838,1.411c-1.382.403-2.047.909-1.683,2.157.269.922.785,1.333,1.294,1.58l6.2-1.809.6,2.054-8.484,2.476Z"/><path d="M490.924,352.053l-1.207-1.493,12.891-10.423,1.207,1.492-12.891,10.424Z"/><path d="M469.491,318.869l-2.672-1.452-3.4,6.258c.716-.271,1.617-.168,2.707.424l.404.22-.946,1.74-.791-.43c-1.107-.602-2.153-.646-3.016-.022l-1.459-.793,4.585-8.438-2.268-1.232.879-1.617,6.855,3.726-.879,1.617Z"/><path d="M457.923,314.699l-2.025-.804c.312-1.059-.084-2.012-1.403-2.535-1.245-.494-2.28-.108-2.767,1.118-.501,1.264.077,2.246,1.396,2.77.855.339,1.932.336,2.825-.127l1.176.939-2.986,5.741-6.765-2.683.692-1.747,5.056,2.004,1.263-2.424c-.775.165-1.682.064-2.5-.26-2.137-.848-3.164-2.761-2.294-4.954.95-2.397,3.262-2.965,5.455-2.095,2.49.987,3.603,2.848,2.877,5.056Z"/><path d="M445.218,315.629l-1.566-.411.319-1.219c-.433.465-1.261,1.179-2.479.858-1.006-.265-1.395-1.069-1.396-1.773-.339.346-1.217,1.087-2.416.772-1.335-.351-1.577-1.635-1.13-3.337l1.55-5.901,1.838.482-1.463,5.572c-.274,1.045-.193,1.521.349,1.664.522.137,1.011-.148,1.368-.406l1.662-6.327,1.838.483-1.464,5.572c-.274,1.044-.192,1.521.35,1.663.522.138,1.03-.143,1.388-.4l1.661-6.327,1.838.482-2.246,8.552Z"/><path d="M433.619,305.479l-3.05-.421-.745,5.407,3.05.421-.232,1.683-5.169-.713.978-7.09-2.793-.386.229-1.663,7.962,1.098-.229,1.664ZM429.25,316.239l-2.595-.357.33-2.396,2.595.357-.33,2.396Z"/><path d="M420.489,311.154l-1.859-.033.022-1.2c-.431.572-1.266,1.377-2.765,1.35-1.679-.031-3.145-.777-3.093-3.636l.101-5.457,2.139.039-.093,5.037c-.026,1.439.26,2.225,1.559,2.248.96.018,1.507-.353,1.894-.765l.118-6.457,2.14.039-.162,8.835Z"/><path d="M379.898,321.565l-1.786.705-6.084-15.42,1.785-.705,6.085,15.42Z"/><path d="M341.288,331.201c1.393,1.436,1.554,2.952,1.146,4.714l-.409,1.763c-.272,1.185-.458,2.285.225,2.988.696.719,1.674.634,2.521-.188.891-.864,1.133-1.936.104-3.14l1.564-1.519c1.768,1.993,1.352,4.208-.486,5.991-1.694,1.645-3.779,1.995-5.27.458-1.129-1.163-1.096-2.449-.729-4.255l.396-1.89c.243-1.101.354-1.934-.047-2.491l-4.337,4.207-1.281-1.32,6.06-5.88.543.561Z"/><path d="M336.472,342.929c2.858,2.318,3.699,4.933,1.645,7.465-2.066,2.548-4.714,2.255-7.525-.026-2.827-2.294-3.712-4.918-1.645-7.466,2.054-2.532,4.683-2.279,7.525.027ZM331.969,348.574c1.568,1.273,3.302,2.345,4.7.62,1.399-1.724-.006-3.199-1.575-4.472-1.537-1.248-3.301-2.345-4.7-.62s.037,3.225,1.575,4.472ZM334.111,345.933c.419.341.475.875.135,1.295-.341.419-.875.475-1.295.135-.419-.341-.475-.875-.135-1.295.341-.419.875-.475,1.295-.135Z"/><path d="M331.486,354.356l-.863,1.37-1.066-.672c.313.553.745,1.557.072,2.623-.554.88-1.438,1.008-2.11.798.228.427.671,1.486.01,2.536-.736,1.167-2.033,1.012-3.522.073l-5.161-3.253,1.014-1.607,4.873,3.071c.914.576,1.393.642,1.691.168.288-.457.163-1.009.024-1.427l-5.533-3.488,1.014-1.607,4.873,3.072c.914.575,1.393.641,1.691.167.288-.457.174-1.025.035-1.443l-5.533-3.488,1.013-1.607,7.479,4.715Z"/><path d="M318.336,362.343l-1.317,2.782,4.932,2.337,1.318-2.782,1.535.728-2.233,4.715-6.468-3.064-1.207,2.548-1.518-.719,3.44-7.264,1.518.72ZM327.283,369.746l-1.121,2.367-2.186-1.036,1.121-2.366,2.186,1.035Z"/><path d="M319.79,376.605l-.589,1.764-1.138-.38c.417.582.936,1.619.46,3.042-.531,1.593-1.684,2.769-4.396,1.863l-5.178-1.729.678-2.029,4.779,1.596c1.365.456,2.2.419,2.612-.814.304-.91.114-1.543-.164-2.036l-6.126-2.045.678-2.029,8.383,2.799Z"/><path d="M317.655,418.439l.136,1.915-16.532,1.176-.137-1.914,16.533-1.177Z"/><path d="M315.272,458.184c1.785-.901,3.28-.604,4.841.312l1.561.914c1.049.613,2.044,1.119,2.918.677.893-.45,1.104-1.408.571-2.462-.559-1.106-1.509-1.657-2.965-1.034l-.982-1.946c2.429-1.092,4.418-.036,5.572,2.249,1.064,2.107.778,4.201-1.133,5.166-1.445.73-2.664.315-4.277-.572l-1.686-.941c-.978-.56-1.739-.914-2.392-.697l2.724,5.392-1.643.83-3.806-7.534.696-.352Z"/><path d="M323.462,467.921l1.207,1.814c-.859.692-1.077,1.702-.29,2.884.742,1.115,1.812,1.388,2.911.657,1.132-.754,1.216-1.891.429-3.072-.509-.766-1.396-1.377-2.395-1.505l-.431-1.442,5.726-3.018,4.032,6.06-1.564,1.041-3.014-4.528-2.419,1.273c.732.306,1.419.905,1.906,1.638,1.274,1.915,1.028,4.072-.936,5.379-2.147,1.43-4.371.579-5.679-1.386-1.484-2.23-1.338-4.394.516-5.795Z"/><path d="M334.444,474.408l1.052,1.232-.959.818c.621-.136,1.708-.248,2.526.71.675.791.534,1.674.134,2.252.476-.09,1.619-.198,2.424.745.896,1.05.362,2.242-.977,3.385l-4.64,3.96-1.234-1.445,4.382-3.739c.821-.701,1.026-1.139.663-1.565-.351-.41-.915-.455-1.355-.447l-4.975,4.246-1.233-1.445,4.381-3.739c.822-.701,1.026-1.14.663-1.565-.351-.41-.928-.471-1.368-.463l-4.975,4.246-1.233-1.444,6.725-5.74Z"/><path d="M338.17,489.356l2.263,2.089,3.703-4.011-2.263-2.09,1.153-1.249,3.835,3.541-4.856,5.261,2.072,1.912-1.14,1.234-5.907-5.453,1.14-1.234ZM347.908,483.023l1.925,1.777-1.642,1.778-1.925-1.777,1.642-1.778Z"/><path d="M352.206,492.212l1.507,1.092-.704.972c.681-.224,1.826-.406,3.041.474,1.361.985,2.139,2.438.46,4.755l-3.203,4.424-1.733-1.256,2.956-4.084c.846-1.166,1.06-1.975.007-2.737-.778-.562-1.438-.572-1.993-.454l-3.79,5.233-1.733-1.255,5.187-7.163Z"/><path d="M391.478,506.798l1.869.438-3.782,16.141-1.869-.438,3.782-16.141Z"/></svg>