<?xml version="1.0" encoding="UTF-8"?><svg id="Layer_1" xmlns="http://www.w3.org/2000/svg" width="7.67in" height="7.67in" viewBox="0 0 552.25 552.25"><defs><style>.cls-1{fill:#ff69b4;opacity:.5;stroke:#231f20;stroke-miterlimit:10;stroke-width:.25px;}</style></defs><path class="cls-1" d="M276.125.125C123.694.125.125,123.694.125,276.125s123.569,276,276,276,276-123.569,276-276S428.556.125,276.125.125ZM276.125,483.125c-114.323,0-207-92.677-207-207s92.677-207,207-207,207,92.677,207,207-92.677,207-207,207Z"/><path d="M319.917,507.98l3.684-.749c2.704-.55,5.008.146,5.533,2.731.529,2.605-1.305,4.121-4.028,4.675l-1.508.307.772,3.801-2.175.442-2.278-11.207ZM323.227,513.122l1.528-.311c1.744-.354,2.369-1.195,2.126-2.391s-1.143-1.706-2.887-1.352l-1.528.311.761,3.742Z"/><path d="M333.463,513.958l2.033-.523c.312.89,1.342,1.038,2.639.703,1.182-.304,2.066-.718,1.861-1.512-.22-.853-1.552-.653-3.354-.52-1.74.139-3.473.069-3.937-1.731-.454-1.763,1.172-2.986,3.282-3.53s4.056-.446,4.765,1.663l-2.033.523c-.375-.895-1.412-.833-2.303-.604-1.182.304-1.78.706-1.63,1.287.199.774,1.261.646,3.379.451,1.652-.158,3.452-.064,3.906,1.698.534,2.071-1.242,3.272-3.644,3.892-2.284.589-4.362.298-4.965-1.798Z"/><path d="M346.931,515.301c1.833-.575,2.55-1.43,2.729-2.996l-6.374-7.204,2.29-.72,2.876,3.479,1.751,2.302.146-2.876.382-4.524,2.176-.684-1.013,9.126c-.38,3.329-1.285,4.787-4.435,5.777l-.528-1.681Z"/><path d="M357.013,505.332c-1.269-3.413.678-5.183,2.74-5.95,1.856-.689,4.18-.7,5.306,1.87l-2.025.753c-.587-1.233-1.527-1.354-2.634-.941-1.463.544-2.014,1.645-1.323,3.502.697,1.875,1.827,2.33,3.309,1.779,1.087-.404,1.729-1.092,1.367-2.408l2.025-.753c.812,2.644-1.003,4.193-2.821,4.869-2.082.774-4.688.655-5.943-2.721Z"/><path d="M365.968,492.796l1.965-.849,2.015,4.662c.117-.486.561-1.527,1.827-2.074,1.542-.667,3.148-.577,4.283,2.048l2.166,5.011-1.964.85-1.999-4.626c-.571-1.322-1.156-1.919-2.35-1.403-.881.381-1.226.944-1.408,1.48l2.562,5.929-1.964.85-5.134-11.877Z"/><path d="M380.23,495.82c-1.578-3.191.158-5.232,2.04-6.163,2.009-.993,4.54-1.106,6.136,2.12,1.569,3.174-.157,5.232-2.04,6.163-2.008.993-4.549,1.089-6.136-2.12ZM386.452,492.744c-.878-1.775-2.039-2.183-3.401-1.509s-1.743,1.844-.865,3.618c.868,1.758,2.038,2.183,3.4,1.51,1.363-.674,1.735-1.862.866-3.619Z"/><path d="M393.248,492.304l2.563-1.438-4.685-8.354-2.563,1.438-.822-1.466,4.431-2.484,5.506,9.819,2.581-1.447.822,1.465-7.012,3.932-.821-1.465Z"/><path d="M402.35,483.962c-1.898-3.012-.383-5.221,1.395-6.341,1.895-1.194,4.401-1.568,6.321,1.478,1.888,2.995.383,5.221-1.395,6.341-1.895,1.194-4.412,1.552-6.321-1.478ZM408.222,480.261c-1.057-1.675-2.253-1.961-3.539-1.15s-1.545,2.014-.489,3.689c1.046,1.658,2.253,1.961,3.539,1.15s1.534-2.031.489-3.689Z"/><path d="M415.882,481.155l1.685-1.188c.648.816,1.421,1.08,2.664.204,1.505-1.06,1.121-1.988.441-2.953l-.727-1.03c-.09.602-.387,1.569-1.499,2.353-1.685,1.187-3.87,1.037-5.621-1.449-1.763-2.502-1.142-4.678.494-5.829,1.178-.83,2.411-.817,3.111-.552l-.656-.933,1.521-1.071,5.23,7.427c1.371,1.946.962,3.728-1.427,5.409-1.603,1.129-3.566,1.851-5.217-.388ZM419.104,474.994l-2.212-3.141c-.63-.095-1.349-.004-2.036.479-1.259.887-1.165,2.167-.243,3.476.921,1.309,2.083,1.812,3.343.925.687-.484,1.026-1.114,1.148-1.739Z"/><path d="M427.019,474.986c1.512-1.184,1.882-2.235,1.498-3.764l-8.499-4.496,1.89-1.479,3.915,2.243,2.448,1.537-.877-2.742-1.234-4.367,1.795-1.405,2.265,8.895c.816,3.247.482,4.931-2.115,6.965l-1.085-1.386Z"/><path d="M476.318,399.412l.76-1.224,13.904,8.625-.759,1.224-13.905-8.625Z"/><path d="M510.322,323.708l-.755,3.703-1.842-.376,1.959-9.601,1.841.376-.755,3.703,9.365,1.911-.448,2.194-9.365-1.911Z"/><path d="M508.761,313.86l.318-2.116,5.023.756c-.351-.355-1-1.282-.795-2.647.25-1.661,1.176-2.978,4.004-2.552l5.398.812-.318,2.115-4.983-.75c-1.424-.214-2.239-.033-2.433,1.252-.143.949.152,1.54.511,1.979l6.388.961-.318,2.115-12.795-1.925Z"/><path d="M518.907,303.361c-3.522-.346-4.406-2.804-4.193-4.973.221-2.248,1.558-4.407,5.04-4.065l.478.047-.676,6.885c1.538.091,2.547-.573,2.715-2.284.115-1.175-.282-2.037-1.122-2.28l.215-2.188c2.228.641,2.743,2.76,2.556,4.67-.25,2.547-1.709,4.514-5.012,4.189ZM518.524,296.413c-1.371.046-2.046.984-2.159,2.138-.113,1.154.366,2.206,1.702,2.518l.457-4.655Z"/><path d="M520.007,290.873c-3.555-.168-4.497-2.675-4.397-4.772.105-2.237,1.234-4.506,4.829-4.335,3.535.167,4.498,2.675,4.398,4.772-.106,2.237-1.255,4.505-4.83,4.335ZM520.336,283.942c-1.978-.094-2.897.724-2.97,2.241-.071,1.519.767,2.419,2.744,2.513,1.957.093,2.896-.724,2.969-2.241.072-1.519-.786-2.42-2.743-2.513Z"/><path d="M523.299,277.741l-.035-2.181-5.461.087.034,2.181-1.7.027-.064-4.041,2-.032c-.986-.364-2.221-1.225-2.248-2.965-.011-.66.14-1.263.354-1.667l2.16-.034c-.253.444-.402,1.127-.393,1.707.022,1.4.736,2.229,1.323,2.66l3.961-.063-.06-3.721,1.68-.027.129,8.042-1.68.027Z"/><path d="M526.774,265.512c-.104-1.918-.754-2.824-2.227-3.385l-8.557,4.391-.13-2.397,4.083-1.924,2.663-1.126-2.751-.853-4.287-1.49-.124-2.277,8.59,3.24c3.129,1.192,4.318,2.431,4.497,5.726l-1.758.096Z"/><path d="M493.053,181.849l-.571-1.321,15.016-6.49.571,1.321-15.016,6.49Z"/><path d="M450.886,113.97l-1.529-1.609,3.392-3.224-2.287-2.406-3.392,3.224-1.529-1.608,8.291-7.882,1.529,1.609-3.551,3.376,2.287,2.406,3.552-3.376,1.529,1.609-8.292,7.881Z"/><path d="M439.398,104.42l-1.898-1.805,1.667-1.754,1.899,1.805-1.668,1.754ZM449.229,98.23l-2.232-2.122-3.762,3.958,2.232,2.121-1.172,1.232-3.783-3.596,4.933-5.189-2.044-1.943,1.158-1.218,5.827,5.539-1.157,1.218Z"/><path d="M439.533,90.669l-1.594-1.366c.551-.766.082-1.694-.936-2.566-.926-.794-1.771-1.282-2.306-.659-.572.668.354,1.646,1.497,3.047,1.11,1.348,2.045,2.808.835,4.22-1.185,1.381-3.12.75-4.774-.669-1.655-1.419-2.689-3.069-1.366-4.858l1.594,1.366c-.519.82.126,1.636.824,2.234.927.794,1.599,1.054,1.989.599.521-.607-.193-1.403-1.565-3.028-1.076-1.265-2.03-2.794-.846-4.176,1.393-1.624,3.395-.856,5.277.758,1.791,1.536,2.743,3.405,1.37,5.1Z"/><path d="M427.453,81.882l-2.065,2.674,2.231,1.724-1.039,1.345-2.231-1.724-2.505,3.244-1.693-1.308,2.506-3.244-3.435-2.652,1.039-1.345,3.434,2.652,2.017-2.611c1.015-1.313,1.116-1.968-.055-2.872-.648-.501-1.36-.823-2.01-.996l1.052-1.361c.677.17,1.488.493,2.422,1.215,1.804,1.393,2.216,2.822.333,5.26Z"/><path d="M419.006,76.302c-2.029,2.925-4.654,2.394-6.38,1.197-1.841-1.277-3.166-3.438-1.114-6.396,2.018-2.908,4.654-2.394,6.38-1.197,1.841,1.276,3.154,3.453,1.114,6.396ZM413.303,72.347c-1.128,1.626-.923,2.84.326,3.706s2.457.633,3.585-.994c1.117-1.61.924-2.84-.325-3.706s-2.469-.617-3.586.994Z"/><path d="M409.644,66.617l-1.854-1.149-2.878,4.641,1.853,1.149-.896,1.445-3.434-2.13,1.055-1.7c-.84.633-2.23,1.206-3.71.288-.561-.348-.986-.8-1.21-1.198l1.139-1.836c.236.453.73.948,1.224,1.254,1.189.738,2.272.586,2.952.325l2.088-3.366-3.162-1.961.886-1.428,6.834,4.238-.886,1.428Z"/><path d="M401.08,57.105c-1.682-.928-2.795-.855-4.051.096l-.807,9.584-2.102-1.159.529-4.482.455-2.855-2.18,1.882-3.535,2.848-1.996-1.101,7.297-5.57c2.669-2.023,4.349-2.377,7.239-.783l-.851,1.542Z"/><path d="M312.241,41.497l-1.424-.214,2.435-16.177,1.424.215-2.435,16.176Z"/><path d="M231.326,33.313l-2.116.432c-.337-1.155-1.123-1.607-2.651-1.296-1.392.284-2.134.945-1.95,1.847.152.745.788.962,1.71,1.08l2.676.312c1.464.17,2.71.875,3.037,2.481.428,2.097-1.123,3.597-3.514,4.085-2.233.455-4.259-.172-4.81-2.672l2.135-.436c.331,1.218,1.073,1.557,2.327,1.301,1.391-.284,1.902-.98,1.734-1.701-.147-.623-.521-.955-1.502-1.061l-2.719-.323c-1.425-.179-2.83-.667-3.198-2.47-.464-2.272,1.275-3.75,3.744-4.254,2.527-.516,4.597.226,5.097,2.675Z"/><path d="M219.288,36.854c.911,3.524-1.206,5.084-3.336,5.634-1.917.496-4.228.267-5.083-2.404l2.091-.54c.457,1.286,1.38,1.502,2.522,1.207,1.511-.391,2.172-1.429,1.676-3.346-.5-1.937-1.577-2.505-3.106-2.11-1.123.291-1.831.907-1.607,2.254l-2.091.541c-.536-2.712,1.428-4.066,3.306-4.552,2.149-.556,4.729-.169,5.629,3.316Z"/><path d="M205.844,37.619l-2.939.924,1.637,5.211,2.939-.924.51,1.623-4.981,1.564-2.147-6.833-2.691.845-.504-1.604,7.674-2.41.504,1.604ZM206.49,49.223l-2.501.785-.726-2.31,2.501-.785.726,2.31Z"/><path d="M195.183,43.889c1.234,3.317-.586,5.189-2.628,5.949-2.118.788-4.645.533-5.864-2.745l-.168-.45,6.483-2.413c-.593-1.422-1.633-2.037-3.244-1.438-1.105.411-1.707,1.147-1.557,2.009l-2.062.767c-.401-2.282,1.277-3.675,3.076-4.345,2.398-.893,4.806-.444,5.963,2.666ZM189.106,47.282c.644,1.211,1.782,1.406,2.869,1.001,1.087-.404,1.821-1.296,1.516-2.633l-4.385,1.632Z"/><path d="M184.611,52.705l-1.707.738-.477-1.102c-.155.699-.582,1.777-1.959,2.372-1.542.667-3.186.593-4.32-2.032l-2.166-5.011,1.964-.85,1.999,4.626c.571,1.322,1.156,1.919,2.35,1.403.881-.381,1.226-.944,1.408-1.48l-2.562-5.929,1.964-.85,3.507,8.113Z"/><path d="M171.999,53.437c1.613,3.263-.14,5.224-2.112,6.198-1.774.878-4.084,1.127-5.468-1.312l1.936-.957c.711,1.166,1.659,1.188,2.717.665,1.398-.691,1.833-1.844.955-3.618-.887-1.793-2.057-2.13-3.473-1.429-1.04.514-1.607,1.263-1.112,2.535l-1.936.957c-1.08-2.545.564-4.272,2.304-5.133,1.989-.984,4.594-1.134,6.189,2.094Z"/><path d="M160.756,59.053c1.731,3.087.221,5.218-1.68,6.284-1.972,1.105-4.507,1.244-6.219-1.809l-.235-.418,6.035-3.385c-.806-1.313-1.928-1.762-3.428-.92-1.029.576-1.51,1.396-1.229,2.225l-1.919,1.076c-.748-2.194.696-3.829,2.37-4.769,2.232-1.252,4.68-1.18,6.304,1.715ZM155.274,63.342c.822,1.099,1.978,1.115,2.989.548s1.601-1.562,1.092-2.836l-4.081,2.288Z"/><path d="M97.46,120.624l-.938,1.093-12.419-10.646.937-1.094,12.42,10.647Z"/><path d="M54.94,188.275l-1.312,3.525c-.962,2.588-2.771,4.179-5.246,3.258-2.494-.928-2.812-3.287-1.843-5.894l.537-1.444-3.638-1.353.773-2.081,10.728,3.988ZM48.821,188.369l-.544,1.463c-.62,1.669-.236,2.645.908,3.07,1.144.425,2.053-.069,2.674-1.738l.544-1.463-3.582-1.332Z"/><path d="M44.305,196.98c3.398,1.067,3.673,3.733,3.043,5.738-.672,2.138-2.341,4.046-5.777,2.967-3.378-1.062-3.672-3.733-3.042-5.737.672-2.139,2.36-4.041,5.776-2.968ZM42.225,203.604c1.89.594,2.987.037,3.443-1.414.455-1.45-.127-2.535-2.017-3.129-1.87-.588-2.987-.037-3.443,1.414-.455,1.451.146,2.541,2.017,3.129Z"/><path d="M37.842,208.816l-.733,2.847,9.275,2.39.733-2.846,1.626.419-1.268,4.918-10.901-2.809-.738,2.865-1.627-.419,2.006-7.784,1.627.419Z"/><path d="M34.788,221.124l-.615,3.018,5.349,1.091.615-3.017,1.666.34-1.044,5.113-7.014-1.432-.563,2.763-1.646-.336,1.607-7.876,1.646.336ZM45.247,226.176l-.523,2.566-2.371-.483.523-2.567,2.371.484Z"/><path d="M34.144,235.804l3.342.502.419-2.788,1.682.253-.42,2.788,4.054.61-.318,2.116-4.054-.61-.646,4.291-1.681-.253.646-4.291-3.263-.491c-1.642-.246-2.263-.017-2.483,1.447-.122.811-.057,1.589.108,2.24l-1.701-.256c-.182-.674-.294-1.54-.118-2.707.339-2.255,1.388-3.311,4.434-2.852Z"/><path d="M30.606,246.14l-.301,3.064,5.433.533.301-3.064,1.691.166-.51,5.193-7.124-.699-.275,2.806-1.671-.164.785-7.999,1.671.164ZM41.529,250.086l-.256,2.606-2.407-.236.256-2.606,2.407.236Z"/><path d="M32.243,258.375c3.636.172,4.499,2.655,4.395,4.853-.094,1.977-.996,4.116-3.8,4.144l.103-2.157c1.364-.056,1.843-.873,1.898-2.052.074-1.558-.723-2.497-2.699-2.59-1.998-.095-2.859.765-2.934,2.343-.056,1.158.324,2.018,1.677,2.201l-.102,2.157c-2.749-.29-3.462-2.565-3.37-4.503.104-2.218,1.237-4.566,4.832-4.396Z"/><path d="M30.046,271.114l.033,2.101c-.938.095-1.323,1.062-1.302,2.401.02,1.221.215,2.178,1.035,2.165.88-.015.999-1.357,1.29-3.143.272-1.726.746-3.394,2.606-3.424,1.82-.028,2.631,1.839,2.666,4.02s-.516,4.051-2.733,4.246l-.034-2.101c.958-.155,1.143-1.179,1.127-2.099-.02-1.221-.271-1.897-.87-1.888-.8.013-.923,1.075-1.229,3.182-.234,1.645-.746,3.373-2.567,3.402-2.14.034-2.893-1.975-2.933-4.455-.037-2.36.731-4.313,2.911-4.408Z"/><path d="M54.724,356.168l.502,1.349-15.327,5.704-.502-1.349,15.327-5.704Z"/><path d="M88.441,429.168c2.794-2.395,5.574-2.593,7.696-.118,1.73,2.02,2.021,4.141-.24,6.265l-1.471-1.716c1.139-1.16,1.205-2.219.269-3.312-1.458-1.701-3.103-.792-4.757.627-1.625,1.393-2.789,2.892-1.332,4.592.95,1.108,1.994,1.188,3.3.254l1.471,1.716c-2.427,1.869-4.562,1.224-6.254-.75-2.213-2.581-1.506-5.137,1.318-7.558Z"/><path d="M95.538,440.846l3.957-3.762,1.475,1.551-3.653,3.473c-1.043.992-1.402,1.747-.507,2.689.662.695,1.31.825,1.875.812l4.683-4.451,1.475,1.551-6.407,6.091-1.281-1.349.869-.826c-.71.095-1.869.065-2.902-1.021-1.157-1.218-1.655-2.786.418-4.757Z"/><path d="M103.021,451.017l2.131,2.025,6.6-6.943-2.131-2.025,1.158-1.218,3.682,3.5-7.758,8.161,2.146,2.039-1.157,1.218-5.827-5.539,1.157-1.218Z"/><path d="M115.116,459.344l2.2-2.565-2.142-1.836,1.106-1.29,2.141,1.835,2.669-3.112,1.624,1.393-2.668,3.112,3.295,2.825-1.106,1.29-3.295-2.824-2.147,2.505c-1.08,1.26-1.215,1.909-.092,2.872.623.533,1.317.892,1.957,1.098l-1.119,1.306c-.669-.204-1.462-.568-2.358-1.336-1.73-1.484-2.068-2.934-.064-5.271Z"/><path d="M123.175,466.592l3.337-4.319,1.692,1.308-3.08,3.987c-.88,1.14-1.119,1.94-.09,2.734.759.587,1.419.616,1.976.516l3.948-5.11,1.693,1.308-5.402,6.994-1.472-1.137.733-.949c-.688.202-1.837.35-3.023-.567-1.329-1.026-2.061-2.501-.312-4.764Z"/><path d="M132.127,475.504l1.791,1.242,3.112-4.486-1.791-1.242.969-1.397,3.319,2.303-1.14,1.644c.87-.589,2.289-1.09,3.719-.098.542.376.944.85,1.147,1.258l-1.231,1.775c-.213-.465-.681-.983-1.157-1.314-1.15-.798-2.239-.701-2.932-.476l-2.257,3.254,3.057,2.12-.957,1.381-6.606-4.582.957-1.381Z"/><path d="M143.607,480.075c1.866-3.009,4.463-2.716,6.315-1.567,1.921,1.191,3.269,3.346,1.423,6.32l-.253.408-5.881-3.648c-.761,1.341-.61,2.54.852,3.447,1.003.622,1.952.646,2.542,0l1.87,1.159c-1.56,1.717-3.689,1.242-5.321.23-2.176-1.35-3.297-3.527-1.547-6.35ZM150.014,482.801c.564-1.251.021-2.271-.966-2.883-.985-.611-2.142-.646-3.012.415l3.978,2.468Z"/><path d="M228.118,505.611l1.411.286-3.258,16.026-1.411-.286,3.258-16.026Z"/></svg>