<?xml version="1.0" encoding="UTF-8"?><svg id="Layer_1" xmlns="http://www.w3.org/2000/svg" width="3.837in" height="3.837in" viewBox="0 0 276.25 276.25"><defs><style>.cls-1{fill:#ff69b4;opacity:.5;stroke:#231f20;stroke-miterlimit:10;stroke-width:.25px;}</style></defs><path class="cls-1" d="M138.125.125C61.91.125.125,61.91.125,138.125s61.785,138,138,138,138-61.785,138-138S214.34.125,138.125.125ZM138.125,207.125c-38.108,0-69-30.892-69-69s30.892-69,69-69,69,30.892,69,69-30.892,69-69,69Z"/><path d="M158.293,241.508l2.124-.494c.347,1.049,1.216,1.607,2.599,1.285,1.306-.304,1.938-1.21,1.638-2.496-.308-1.325-1.343-1.804-2.727-1.481-.896.208-1.78.824-2.251,1.715l-1.503-.103-.815-6.424,7.092-1.649.427,1.831-5.301,1.233.344,2.713c.544-.578,1.347-1.012,2.204-1.211,2.24-.521,4.175.467,4.71,2.767.585,2.514-.993,4.298-3.292,4.832-2.611.607-4.586-.289-5.248-2.518Z"/><path d="M168.229,233.502l1.523-.553.431,1.184c.09-.629.365-1.687,1.55-2.117.978-.355,1.755.086,2.156.663.082-.477.382-1.586,1.547-2.01,1.297-.472,2.227.446,2.828,2.101l2.085,5.733-1.785.649-1.969-5.414c-.369-1.016-.708-1.36-1.234-1.169-.508.185-.747.697-.894,1.112l2.235,6.147-1.786.649-1.969-5.414c-.369-1.016-.707-1.36-1.233-1.169-.508.185-.766.704-.913,1.119l2.235,6.147-1.786.649-3.021-8.31Z"/><path d="M183.519,235.242l2.747-1.394-2.471-4.869-2.747,1.394-.769-1.517,4.655-2.361,3.239,6.386,2.516-1.275.76,1.498-7.171,3.638-.76-1.499ZM180.975,223.906l2.337-1.186,1.095,2.158-2.337,1.186-1.095-2.158Z"/><path d="M191.095,223.081l1.547-1.032.667.997c.027-.715.253-1.853,1.501-2.686,1.396-.934,3.027-1.156,4.616,1.222l3.032,4.541-1.779,1.188-2.8-4.191c-.8-1.197-1.482-1.68-2.563-.957-.798.533-1.036,1.148-1.119,1.709l3.588,5.372-1.779,1.188-4.91-7.352Z"/><path d="M218.485,191.339l1.066-1.598,13.787,9.209-1.066,1.597-13.787-9.208Z"/><path d="M243.735,161.005l.583-2.984-6.991-1.364c.474.603.646,1.492.409,2.71l-.089.451-1.943-.379.172-.884c.241-1.237-.03-2.248-.885-2.884l.318-1.63,9.426,1.839.494-2.533,1.807.352-1.494,7.659-1.807-.353Z"/><path d="M241.986,149.059c-3.67-.267-5.854-1.929-5.618-5.18.237-3.271,2.576-4.544,6.186-4.282,3.63.265,5.855,1.91,5.618,5.181-.236,3.25-2.536,4.547-6.186,4.281ZM242.449,141.856c-2.014-.146-4.047-.034-4.208,2.18s1.835,2.619,3.849,2.766c1.975.144,4.048.034,4.209-2.18.16-2.214-1.875-2.622-3.85-2.766ZM242.203,145.246c-.538-.039-.89-.445-.851-.983.039-.539.445-.891.984-.851.538.039.89.445.851.983-.039.539-.445.89-.984.851Z"/><path d="M239.546,136.854l-.073-1.618,1.259-.057c-.573-.274-1.5-.853-1.557-2.111-.047-1.038.606-1.648,1.277-1.858-.43-.221-1.398-.838-1.454-2.076-.062-1.378,1.091-1.99,2.849-2.069l6.092-.275.086,1.897-5.753.26c-1.078.049-1.509.269-1.483.827.024.539.441.921.794,1.186l6.531-.295.086,1.897-5.753.26c-1.078.049-1.509.268-1.483.827.024.539.442.94.795,1.205l6.531-.294.085,1.897-8.828.397Z"/><path d="M234.214,121.792l-.428-2.584,2.388-.396.428,2.585-2.388.395ZM245.789,122.775l-.503-3.039-5.387.892.503,3.039-1.677.277-.853-5.149,7.063-1.169-.461-2.782,1.658-.274,1.312,7.932-1.657.274Z"/><path d="M236.472,111.898l-.521-1.785,1.151-.336c-.675-.241-1.691-.798-2.111-2.238-.47-1.612-.193-3.234,2.552-4.035l5.24-1.528.6,2.054-4.838,1.411c-1.382.403-2.047.909-1.683,2.157.269.922.785,1.333,1.294,1.58l6.2-1.809.6,2.054-8.484,2.476Z"/><path d="M214.365,76.304l-1.207-1.493,12.891-10.423,1.207,1.492-12.891,10.424Z"/><path d="M192.933,43.12l-2.672-1.452-3.4,6.258c.716-.271,1.617-.168,2.707.424l.404.22-.946,1.74-.791-.43c-1.107-.602-2.153-.646-3.016-.022l-1.459-.793,4.585-8.438-2.268-1.232.879-1.617,6.855,3.726-.879,1.617Z"/><path d="M181.364,38.95l-2.025-.804c.312-1.059-.084-2.012-1.403-2.535-1.245-.494-2.28-.108-2.767,1.118-.501,1.264.077,2.246,1.396,2.77.855.339,1.932.336,2.825-.127l1.176.939-2.986,5.741-6.765-2.683.692-1.747,5.056,2.004,1.263-2.424c-.775.165-1.682.064-2.5-.26-2.137-.848-3.164-2.761-2.294-4.954.95-2.397,3.262-2.965,5.455-2.095,2.49.987,3.603,2.848,2.877,5.056Z"/><path d="M168.659,39.88l-1.566-.411.319-1.219c-.433.465-1.261,1.179-2.479.858-1.006-.265-1.395-1.069-1.396-1.773-.339.346-1.217,1.087-2.416.772-1.335-.351-1.577-1.635-1.13-3.337l1.55-5.901,1.838.482-1.463,5.572c-.274,1.045-.193,1.521.349,1.664.522.137,1.011-.148,1.368-.406l1.662-6.327,1.838.483-1.464,5.572c-.274,1.044-.192,1.521.35,1.663.522.138,1.03-.143,1.388-.4l1.661-6.327,1.838.482-2.246,8.552Z"/><path d="M157.061,29.73l-3.05-.421-.745,5.407,3.05.421-.232,1.683-5.169-.713.978-7.09-2.793-.386.229-1.663,7.962,1.098-.229,1.664ZM152.691,40.49l-2.595-.357.33-2.396,2.595.357-.33,2.396Z"/><path d="M143.931,35.405l-1.859-.033.022-1.2c-.431.572-1.266,1.377-2.765,1.35-1.679-.031-3.145-.777-3.093-3.636l.101-5.457,2.139.039-.093,5.037c-.026,1.439.26,2.225,1.559,2.248.96.018,1.507-.353,1.894-.765l.118-6.457,2.14.039-.162,8.835Z"/><path d="M103.34,45.816l-1.786.705-6.084-15.42,1.785-.705,6.085,15.42Z"/><path d="M64.729,55.452c1.393,1.436,1.554,2.952,1.146,4.714l-.409,1.763c-.272,1.185-.458,2.285.225,2.988.696.719,1.674.634,2.521-.188.891-.864,1.133-1.936.104-3.14l1.564-1.519c1.768,1.993,1.352,4.208-.486,5.991-1.694,1.645-3.779,1.995-5.27.458-1.129-1.163-1.096-2.449-.729-4.255l.396-1.89c.243-1.101.354-1.934-.047-2.491l-4.337,4.207-1.281-1.32,6.06-5.88.543.561Z"/><path d="M59.913,67.18c2.858,2.318,3.699,4.933,1.645,7.465-2.066,2.548-4.714,2.255-7.525-.026-2.827-2.294-3.712-4.918-1.645-7.466,2.054-2.532,4.683-2.279,7.525.027ZM55.41,72.825c1.568,1.273,3.302,2.345,4.7.62,1.399-1.724-.006-3.199-1.575-4.472-1.537-1.248-3.301-2.345-4.7-.62s.037,3.225,1.575,4.472ZM57.553,70.184c.419.341.475.875.135,1.295-.341.419-.875.475-1.295.135-.419-.341-.475-.875-.135-1.295.341-.419.875-.475,1.295-.135Z"/><path d="M54.928,78.607l-.863,1.37-1.066-.672c.313.553.745,1.557.072,2.623-.554.88-1.438,1.008-2.11.798.228.427.671,1.486.01,2.536-.736,1.167-2.033,1.012-3.522.073l-5.161-3.253,1.014-1.607,4.873,3.071c.914.576,1.393.642,1.691.168.288-.457.163-1.009.024-1.427l-5.533-3.488,1.014-1.607,4.873,3.072c.914.575,1.393.641,1.691.167.288-.457.174-1.025.035-1.443l-5.533-3.488,1.013-1.607,7.479,4.715Z"/><path d="M41.777,86.594l-1.317,2.782,4.932,2.337,1.318-2.782,1.535.728-2.233,4.715-6.468-3.064-1.207,2.548-1.518-.719,3.44-7.264,1.518.72ZM50.725,93.997l-1.121,2.367-2.186-1.036,1.121-2.366,2.186,1.035Z"/><path d="M43.231,100.856l-.589,1.764-1.138-.38c.417.582.936,1.619.46,3.042-.531,1.593-1.684,2.769-4.396,1.863l-5.178-1.729.678-2.029,4.779,1.596c1.365.456,2.2.419,2.612-.814.304-.91.114-1.543-.164-2.036l-6.126-2.045.678-2.029,8.383,2.799Z"/><path d="M41.097,142.69l.136,1.915-16.532,1.176-.137-1.914,16.533-1.177Z"/><path d="M38.714,182.435c1.785-.901,3.28-.604,4.841.312l1.561.914c1.049.613,2.044,1.119,2.918.677.893-.45,1.104-1.408.571-2.462-.559-1.106-1.509-1.657-2.965-1.034l-.982-1.946c2.429-1.092,4.418-.036,5.572,2.249,1.064,2.107.778,4.201-1.133,5.166-1.445.73-2.664.315-4.277-.572l-1.686-.941c-.978-.56-1.739-.914-2.392-.697l2.724,5.392-1.643.83-3.806-7.534.696-.352Z"/><path d="M46.903,192.172l1.207,1.814c-.859.692-1.077,1.702-.29,2.884.742,1.115,1.812,1.388,2.911.657,1.132-.754,1.216-1.891.429-3.072-.509-.766-1.396-1.377-2.395-1.505l-.431-1.442,5.726-3.018,4.032,6.06-1.564,1.041-3.014-4.528-2.419,1.273c.732.306,1.419.905,1.906,1.638,1.274,1.915,1.028,4.072-.936,5.379-2.147,1.43-4.371.579-5.679-1.386-1.484-2.23-1.338-4.394.516-5.795Z"/><path d="M57.886,198.659l1.052,1.232-.959.818c.621-.136,1.708-.248,2.526.71.675.791.534,1.674.134,2.252.476-.09,1.619-.198,2.424.745.896,1.05.362,2.242-.977,3.385l-4.64,3.96-1.234-1.445,4.382-3.739c.821-.701,1.026-1.139.663-1.565-.351-.41-.915-.455-1.355-.447l-4.975,4.246-1.233-1.445,4.381-3.739c.822-.701,1.026-1.14.663-1.565-.351-.41-.928-.471-1.368-.463l-4.975,4.246-1.233-1.444,6.725-5.74Z"/><path d="M61.611,213.607l2.263,2.089,3.703-4.011-2.263-2.09,1.153-1.249,3.835,3.541-4.856,5.261,2.072,1.912-1.14,1.234-5.907-5.453,1.14-1.234ZM71.35,207.274l1.925,1.777-1.642,1.778-1.925-1.777,1.642-1.778Z"/><path d="M75.647,216.463l1.507,1.092-.704.972c.681-.224,1.826-.406,3.041.474,1.361.985,2.139,2.438.46,4.755l-3.203,4.424-1.733-1.256,2.956-4.084c.846-1.166,1.06-1.975.007-2.737-.778-.562-1.438-.572-1.993-.454l-3.79,5.233-1.733-1.255,5.187-7.163Z"/><path d="M114.919,231.049l1.869.438-3.782,16.141-1.869-.438,3.782-16.141Z"/></svg>