<?xml version="1.0" encoding="UTF-8"?><svg id="Layer_1" xmlns="http://www.w3.org/2000/svg" width="11.503in" height="11.503in" viewBox="0 0 828.25 828.25"><defs><style>.cls-1{fill:#f1f2f2;opacity:.5;stroke:#231f20;stroke-miterlimit:10;stroke-width:.25px;}</style></defs><path class="cls-1" d="M414.125.125C185.479.125.125,185.479.125,414.125s185.354,414,414,414,414-185.354,414-414S642.771.125,414.125.125ZM414.125,759.125c-190.538,0-345-154.462-345-345S223.587,69.125,414.125,69.125s345,154.462,345,345-154.462,345-345,345Z"/><path d="M434.044,787.036l2.86-.175c3.035-.186,4.162,1.462,4.337,4.321.167,2.732-.791,4.635-3.778,4.817l-2.86.175-.559-9.139ZM436.284,794.564l1.086-.066c1.933-.118,2.116-1.588,2.017-3.202-.1-1.629-.459-3.051-2.392-2.933l-1.086.066.375,6.135Z"/><path d="M444.442,794.183l2.456-.214-.379-4.354-2.456.214-.118-1.355,4.162-.362.497,5.709,2.249-.196.117,1.34-6.41.558-.117-1.339ZM445.94,785.007l2.089-.183.168,1.93-2.089.182-.168-1.929Z"/><path d="M454.478,793.261l1.733-.196-.491-4.341-1.733.196-.153-1.352,3.211-.363.18,1.59c.214-.813.804-1.862,2.187-2.02.524-.06,1.016.014,1.354.153l.194,1.717c-.373-.167-.928-.233-1.389-.181-1.113.126-1.718.758-2.016,1.259l.356,3.148,2.958-.335.151,1.335-6.392.724-.151-1.335Z"/><path d="M463.762,789.996c-.395-2.804,1.35-3.954,3.076-4.196,1.79-.252,3.72.381,4.11,3.152l.054.381-5.48.771c.219,1.213.926,1.873,2.288,1.681.935-.131,1.53-.603,1.561-1.302l1.742-.245c-.079,1.853-1.629,2.652-3.15,2.866-2.027.285-3.831-.479-4.201-3.107ZM469.092,788.389c-.294-1.057-1.15-1.404-2.069-1.275-.919.129-1.646.7-1.637,1.797l3.706-.521Z"/><path d="M473.661,788.536c-.48-2.872,1.315-3.967,3.05-4.257,1.562-.262,3.388.082,3.883,2.27l-1.704.285c-.274-1.058-.995-1.293-1.926-1.138-1.23.206-1.83.987-1.568,2.55.264,1.577,1.082,2.105,2.329,1.896.915-.152,1.522-.595,1.438-1.684l1.704-.285c.238,2.198-1.421,3.141-2.951,3.397-1.751.293-3.779-.195-4.254-3.035Z"/><path d="M485.562,786.984l-.519-2.653-2.214.433-.261-1.335,2.214-.433-.628-3.219,1.68-.328.629,3.219,3.407-.666.261,1.335-3.407.666.506,2.591c.255,1.303.595,1.709,1.757,1.482.644-.126,1.213-.384,1.66-.684l.264,1.351c-.459.318-1.082.636-2.009.816-1.79.35-2.867-.157-3.339-2.575Z"/><path d="M494.228,786.942l2.404-.536-.95-4.262-2.404.536-.295-1.327,4.074-.908,1.246,5.589,2.201-.491.292,1.312-6.275,1.398-.292-1.311ZM494.502,777.656l2.044-.456.421,1.889-2.045.456-.421-1.889Z"/><path d="M503.112,782.68c-.692-2.762,1.01-4.063,2.639-4.472,1.738-.436,3.737-.096,4.437,2.697.689,2.747-1.01,4.063-2.639,4.473-1.738.436-3.74.08-4.437-2.698ZM508.496,781.331c-.385-1.536-1.224-2.052-2.403-1.757-1.18.296-1.676,1.146-1.291,2.683.381,1.521,1.224,2.052,2.403,1.756,1.179-.296,1.671-1.161,1.29-2.682Z"/><path d="M512.386,776.656l1.434-.4.258.925c.199-.537.654-1.346,1.81-1.669,1.294-.361,2.59-.125,3.205,2.079l1.175,4.207-1.649.461-1.084-3.884c-.31-1.109-.709-1.646-1.71-1.366-.74.206-1.074.615-1.277,1.021l1.39,4.978-1.649.461-1.902-6.812Z"/><path d="M560.875,756.302l1.411-.609,5.262,12.182-1.411.609-5.262-12.182Z"/><path d="M603.987,735.768l1.521-.916,1.932,3.206,2.275-1.37-1.932-3.206,1.521-.917,4.722,7.838-1.521.916-2.022-3.356-2.274,1.37,2.022,3.357-1.521.916-4.722-7.838Z"/><path d="M616.504,737.28l2.075-1.327-2.354-3.679-2.075,1.328-.732-1.146,3.517-2.25,3.086,4.823,1.899-1.216.724,1.132-5.416,3.466-.724-1.132ZM613.577,728.461l1.765-1.129,1.043,1.63-1.765,1.129-1.043-1.63Z"/><path d="M623.415,730.254c-1.588-2.344-.528-4.145.916-5.122,1.497-1.015,3.509-1.296,5.079,1.022l.215.317-4.583,3.104c.73.993,1.655,1.274,2.794.503.781-.529,1.109-1.215.829-1.856l1.457-.986c.745,1.698-.296,3.099-1.568,3.96-1.695,1.148-3.651,1.256-5.141-.942ZM627.496,726.466c-.729-.82-1.652-.756-2.42-.235s-1.17,1.354-.679,2.335l3.099-2.1Z"/><path d="M633.281,726.123l1.417-1.017-2.545-3.549-1.417,1.016-.792-1.104,2.626-1.884.932,1.301c-.21-.814-.207-2.018.924-2.829.429-.308.894-.483,1.256-.526l1.007,1.403c-.407.036-.924.249-1.301.52-.91.653-1.13,1.5-1.146,2.082l1.846,2.573,2.418-1.733.783,1.092-5.226,3.748-.783-1.092Z"/><path d="M640.805,720.059c-.985-1.302-.085-2.524,1.076-3.403.586-.444,1.289-.815,1.698-.965l-.348-.459c-.55-.728-1.113-1.205-2.159-.413-.791.599-1.009,1.266-.506,1.929l-1.289.976c-1.168-1.543-.302-3.022,1.063-4.056,1.467-1.111,2.923-1.229,4.121.352l1.767,2.335c.165.217.299.235.528.062.153-.116.354-.328.478-.482l.686.906c-.152.275-.49.731-.911,1.05-.714.541-1.199.326-1.517-.095l-.078-.103c-.013.593-.242,1.589-1.403,2.468-1.097.83-2.357,1.021-3.207-.101ZM644.758,717.248l-.541-.715c-.291.12-.853.465-1.337.832-.753.569-1.144,1.087-.738,1.622.328.434.792.384,1.417-.089.714-.541,1.092-1.209,1.199-1.65Z"/><path d="M649.42,714.119l1.362-1.09-2.729-3.411-1.362,1.089-.849-1.062,2.524-2.02.999,1.25c-.252-.803-.312-2.005.775-2.874.412-.33.867-.529,1.227-.592l1.08,1.35c-.405.058-.91.297-1.272.587-.875.699-1.05,1.557-1.035,2.139l1.979,2.475,2.324-1.858.839,1.05-5.023,4.018-.84-1.05Z"/><path d="M655.527,706.388c-1.877-2.228-.89-4.085.457-5.22,1.211-1.021,2.958-1.656,4.5-.025l-1.322,1.114c-.775-.771-1.516-.606-2.238.002-.955.805-1.072,1.783-.051,2.994,1.031,1.224,2.005,1.262,2.972.446.71-.598,1.007-1.288.379-2.183l1.321-1.113c1.326,1.771.378,3.428-.809,4.429-1.358,1.145-3.353,1.759-5.209-.444Z"/><path d="M659.028,694.454l1.28-1.138,2.701,3.038c-.033-.398.042-1.302.868-2.035,1.005-.894,2.249-1.229,3.77.482l2.903,3.266-1.28,1.138-2.68-3.015c-.766-.861-1.36-1.168-2.138-.477-.574.511-.695,1.024-.699,1.479l3.435,3.863-1.28,1.139-6.881-7.74Z"/><path d="M674.07,697.008c1.121-1.05,1.341-1.914.927-3.104l-7.091-2.98,1.401-1.312,3.279,1.51,2.06,1.051-.893-2.123-1.294-3.392,1.331-1.247,2.436,6.926c.88,2.53.734,3.896-1.192,5.7l-.962-1.027Z"/><path d="M702.215,649.836l.971-1.19,10.284,8.387-.971,1.19-10.284-8.387Z"/><path d="M730.761,612.209l1.154-1.883,2.716.651,2.02.562-1.435-1.518-1.812-2.125,1.12-1.827,7.803,4.782-.828,1.351-3.983-2.441-2.301-1.636,3.442,3.968-.652,1.064-5.097-1.267,2.501,1.308,3.983,2.441-.828,1.351-7.803-4.782Z"/><path d="M740.746,606.608c-2.466-1.423-2.217-3.551-1.377-5.006.896-1.552,2.53-2.751,5.023-1.312,2.453,1.415,2.217,3.551,1.377,5.006-.896,1.552-2.543,2.743-5.023,1.312ZM743.52,601.8c-1.372-.792-2.325-.548-2.933.506-.607,1.053-.342,2,1.03,2.792,1.358.783,2.325.547,2.933-.506.608-1.053.328-2.009-1.03-2.792Z"/><path d="M742.423,596.594l.916-1.687,3.578.414,2.293.335-1.516-1.732-2.295-2.811.87-1.603,4.724,6.113-.87,1.602-7.699-.632Z"/><path d="M750.505,589.105c-2.522-1.286-2.464-3.374-1.672-4.928.821-1.61,2.447-2.828,4.941-1.558l.342.175-2.513,4.931c1.119.517,2.065.316,2.69-.909.428-.841.384-1.6-.17-2.025l.799-1.568c1.472,1.128,1.237,2.857.54,4.226-.93,1.824-2.59,2.862-4.956,1.657ZM752.248,583.817c-1.035-.365-1.811.137-2.232.963-.421.827-.371,1.75.533,2.372l1.7-3.335Z"/><path d="M751.673,578.873l.558-1.17.91.433c-.301-.409-.738-1.167-.305-2.077.358-.751,1.049-.937,1.602-.832-.221-.318-.673-1.118-.247-2.015.475-.997,1.52-.995,2.792-.39l4.407,2.099-.654,1.373-4.162-1.982c-.78-.371-1.167-.378-1.36.026-.186.391-.034.816.115,1.136l4.726,2.251-.654,1.372-4.162-1.981c-.78-.372-1.167-.379-1.36.026-.186.39-.042.831.108,1.15l4.725,2.25-.654,1.373-6.387-3.042Z"/><path d="M759.282,571.117c-2.587-1.147-2.641-3.236-1.934-4.829.732-1.652,2.291-2.955,4.849-1.82l.351.155-2.244,5.058c1.145.456,2.079.205,2.636-1.052.383-.862.298-1.617-.279-2.014l.713-1.607c1.53,1.046,1.388,2.785.766,4.188-.83,1.871-2.432,2.997-4.858,1.921ZM760.739,565.745c-1.052-.31-1.8.233-2.177,1.081-.376.848-.276,1.767.659,2.339l1.518-3.42Z"/><path d="M760.214,560.108l.567-1.375.887.366c-.301-.488-.657-1.345-.199-2.453.513-1.242,1.497-2.116,3.611-1.244l4.037,1.667-.653,1.582-3.726-1.538c-1.065-.439-1.733-.456-2.13.505-.293.71-.177,1.225.018,1.634l4.775,1.972-.653,1.582-6.535-2.697Z"/><path d="M768.251,551.04l-2.527-.964-.805,2.108-1.271-.485.805-2.108-3.065-1.17.61-1.6,3.065,1.17,1.239-3.245,1.271.485-1.238,3.244,2.467.942c1.241.474,1.766.399,2.188-.707.234-.613.316-1.232.299-1.771l1.286.491c.027.558-.033,1.255-.37,2.137-.65,1.705-1.651,2.351-3.954,1.472Z"/><path d="M776.439,499.824l.349-1.496,12.915,3.011-.349,1.496-12.915-3.011Z"/><path d="M785.565,452.972l.254-2.676c.216-2.278,1.245-3.805,3.364-3.604,1.306.124,2.163,1.089,2.427,2.207l3.752-2.28-.205,2.167-3.393,1.88-.104,1.1,3.186.302-.167,1.769-9.112-.864ZM790.225,451.63l.086-.908c.135-1.418-.329-2.121-1.301-2.213-.972-.093-1.56.511-1.694,1.929l-.086.908,2.995.284Z"/><path d="M785.255,443.075l.117-1.708,4.054.279c-.303-.262-.88-.959-.804-2.061.092-1.341.746-2.45,3.028-2.293l4.357.3-.117,1.708-4.022-.277c-1.149-.079-1.788.118-1.859,1.155-.053.767.221,1.218.535,1.544l5.155.355-.117,1.708-10.327-.711Z"/><path d="M797.779,434.355c.064-1.535-.384-2.307-1.514-2.867l-7.151,2.84.08-1.919,3.399-1.219,2.208-.692-2.125-.891-3.3-1.516.076-1.823,6.592,3.24c2.401,1.19,3.253,2.268,3.142,4.906l-1.407-.06Z"/><path d="M793.615,422.128l-2.703-.044-.037,2.255-1.359-.022.037-2.255-3.278-.053.028-1.711,3.278.053.056-3.47,1.359.022-.056,3.47,2.638.043c1.328.021,1.795-.228,1.814-1.41.011-.656-.124-1.266-.323-1.765l1.375.021c.215.516.396,1.19.381,2.134-.03,1.823-.749,2.771-3.211,2.731Z"/><path d="M786.387,413.639l-.027-1.711,4.062-.065c-.324-.235-.958-.881-.976-1.984-.021-1.343.536-2.504,2.822-2.541l4.366-.07.027,1.711-4.03.065c-1.151.019-1.771.269-1.754,1.308.012.768.323,1.194.664,1.493l5.165-.084.028,1.711-10.347.168Z"/><path d="M789.526,404.417l-.045-1.296,1.007-.035c-.456-.224-1.193-.694-1.229-1.702-.029-.831.498-1.314,1.037-1.478-.342-.18-1.113-.681-1.148-1.673-.039-1.103.889-1.584,2.296-1.634l4.877-.172.054,1.519-4.605.163c-.863.03-1.209.203-1.194.65.015.432.346.74.626.955l5.229-.185.053,1.519-4.605.163c-.863.03-1.209.202-1.194.65.016.432.347.756.627.971l5.229-.185.054,1.519-7.068.25Z"/><path d="M781.135,351.711l-.259-1.515,13.08-2.239.259,1.515-13.08,2.239Z"/><path d="M777.626,303.567l-.518-1.647c.892-.364,1.187-1.026.813-2.217-.34-1.084-.928-1.62-1.63-1.399-.58.182-.7.706-.718,1.449l-.027,2.154c-.016,1.179-.474,2.228-1.726,2.62-1.632.513-2.954-.598-3.538-2.459-.546-1.74-.213-3.403,1.73-4.047l.522,1.663c-.942.363-1.15.981-.844,1.958.34,1.083.936,1.433,1.496,1.24.484-.169.717-.493.721-1.282l.033-2.189c.025-1.148.298-2.307,1.702-2.748,1.77-.556,3.088.707,3.692,2.63.618,1.968.199,3.676-1.708,4.274Z"/><path d="M773.848,294.289c-2.755.946-4.131-.646-4.704-2.311-.515-1.498-.477-3.356,1.601-4.206l.562,1.635c-.998.445-1.113,1.195-.806,2.088.406,1.181,1.276,1.644,2.774,1.129,1.514-.521,1.9-1.415,1.489-2.611-.302-.878-.838-1.404-1.898-1.142l-.562-1.635c2.13-.597,3.333.886,3.838,2.354.578,1.681.43,3.762-2.294,4.699Z"/><path d="M772.126,284.22c-1.529.571-2.443-.642-2.952-2.005-.258-.689-.412-1.469-.438-1.902l-.54.201c-.854.319-1.472.721-1.013,1.95.347.929.923,1.328,1.703,1.037l.565,1.513c-1.813.678-2.981-.576-3.581-2.179-.644-1.724-.341-3.151,1.517-3.846l2.742-1.025c.255-.095.311-.219.21-.488-.067-.18-.213-.433-.325-.596l1.064-.397c.221.225.561.678.746,1.173.313.839-.031,1.241-.526,1.426l-.12.045c.563.183,1.452.687,1.961,2.051.481,1.288.304,2.55-1.014,3.043ZM770.564,279.629l-.839.313c.032.312.201.949.414,1.519.331.885.713,1.407,1.343,1.172.51-.19.594-.648.32-1.383-.313-.839-.845-1.393-1.237-1.621Z"/><path d="M768.892,274.248l-.882-2.18-7.104,2.872.881,2.181-1.246.503-1.523-3.767,8.35-3.376-.887-2.195,1.246-.504,2.411,5.962-1.246.504Z"/><path d="M763.266,266.194c-2.595,1.131-4.171-.241-4.868-1.839-.723-1.657-.63-3.688,1.936-4.806l.352-.153,2.212,5.073c1.11-.536,1.556-1.395,1.006-2.655-.377-.865-.991-1.312-1.673-1.155l-.704-1.613c1.806-.421,2.993.859,3.606,2.268.818,1.877.565,3.819-1.869,4.881ZM760.289,261.488c-.939.567-1.045,1.485-.674,2.336.371.851,1.116,1.398,2.17,1.096l-1.496-3.432Z"/><path d="M732.94,221.894l-.797-1.312,11.334-6.882.797,1.312-11.334,6.882Z"/><path d="M706.469,179.357l1.9,2.354-1.17.945-4.927-6.102,1.17-.945,1.901,2.354,5.952-4.807,1.126,1.395-5.952,4.807Z"/><path d="M705.084,171.106c-2.155,1.836-4.061.98-5.192-.347-1.172-1.376-1.673-3.346.458-5.161l.292-.249,3.59,4.213c.907-.835,1.084-1.785.192-2.833-.612-.718-1.33-.969-1.937-.62l-1.142-1.339c1.606-.927,3.113-.047,4.109,1.122,1.328,1.559,1.65,3.491-.371,5.214ZM700.87,167.467c-.735.814-.569,1.725.033,2.431.602.706,1.474,1.014,2.395.418l-2.428-2.849Z"/><path d="M695.571,165.522l-.995-1.106.714-.642c-.569.06-1.496.011-2.298-.882-.898-1-1.262-2.266.44-3.795l3.249-2.921,1.145,1.273-2.999,2.696c-.857.77-1.161,1.365-.465,2.139.513.571,1.028.689,1.481.691l3.844-3.455,1.145,1.273-5.261,4.728Z"/><path d="M692.717,155.15l-1.155-1.22c.501-.563.206-1.341-.531-2.119-.671-.708-1.304-1.166-1.78-.716-.511.484.145,1.34.938,2.549.772,1.164,1.395,2.402.315,3.426-1.057,1.001-2.543.339-3.743-.927s-1.886-2.665-.685-3.979l1.155,1.219c-.48.609-.035,1.312.471,1.846.671.708,1.185.972,1.533.642.464-.44-.038-1.133-.995-2.539-.751-1.096-1.384-2.391-.327-3.393,1.242-1.177,2.771-.4,4.136,1.04,1.298,1.37,1.901,2.937.668,4.171Z"/><path d="M678.179,151.778l-1.481-1.482,1.37-1.368,1.481,1.482-1.37,1.368ZM686.171,147.032l-1.741-1.744-3.091,3.087,1.741,1.744-.962.961-2.951-2.955,4.053-4.048-1.594-1.597.951-.949,4.545,4.551-.951.95Z"/><path d="M677.822,141.823c-1.961,2.064-3.971,1.324-5.189.167-1.299-1.233-2.083-3.104-.099-5.19,1.95-2.053,3.971-1.324,5.189-.167,1.299,1.233,2.071,3.115.099,5.19ZM673.798,138c-1.09,1.147-1.077,2.132-.195,2.969s1.865.801,2.956-.348c1.08-1.136,1.077-2.132.195-2.969s-1.875-.789-2.956.348Z"/><path d="M667.775,137.222l-1.105-.996.643-.713c-.56.12-1.486.168-2.378-.636-.999-.899-1.493-2.12.039-3.82l2.924-3.245,1.272,1.146-2.699,2.995c-.771.856-1.011,1.48-.238,2.177.571.514,1.095.577,1.546.531l3.46-3.839,1.272,1.146-4.735,5.254Z"/><path d="M624.633,107.107l-1.269-.867,7.488-10.955,1.269.867-7.488,10.955Z"/><path d="M585.265,82.113l-1.787-.898.733-4.808.485-2.64-1.822,1.95-3.414,3.478-1.715-.862,7.056-6.697,1.63.819-1.166,9.658Z"/><path d="M579.002,70.842c-.694,1.478-2.196,1.249-3.514.63-.666-.313-1.321-.763-1.643-1.056l-.245.521c-.388.825-.549,1.545.638,2.104.898.422,1.589.305,1.943-.448l1.463.688c-.824,1.752-2.536,1.672-4.085.943-1.666-.782-2.447-2.016-1.603-3.812l1.245-2.649c.116-.246.07-.374-.191-.497-.174-.081-.455-.16-.649-.198l.483-1.028c.315.007.875.093,1.353.317.811.381.845.91.621,1.388l-.054.116c.53-.264,1.519-.523,2.836.096,1.246.585,2,1.611,1.402,2.886ZM574.675,68.65l-.381.812c.241.201.808.538,1.358.797.854.401,1.494.508,1.78-.101.231-.492-.029-.88-.738-1.213-.811-.381-1.577-.405-2.019-.295Z"/><path d="M569.727,65.978l-1.598-.699-1.75,4.004,1.598.698-.544,1.246-2.962-1.294.641-1.467c-.593.597-1.629,1.209-2.905.651-.484-.211-.873-.521-1.095-.811l.692-1.583c.239.331.687.667,1.112.853,1.026.448,1.867.204,2.375-.08l1.269-2.903-2.728-1.191.538-1.232,5.895,2.576-.539,1.232Z"/><path d="M554.99,69.472l-1.941-.79.729-1.793,1.941.79-.729,1.793ZM560.503,61.992l-2.282-.928-1.646,4.045,2.282.928-.512,1.26-3.867-1.573,2.158-5.304-2.089-.851.506-1.244,5.956,2.423-.506,1.244Z"/><path d="M551.346,58.868c-.575,1.528-2.09,1.421-3.454.908-.689-.259-1.378-.654-1.723-.921l-.203.539c-.321.854-.424,1.585.804,2.047.929.349,1.609.177,1.902-.602l1.514.568c-.681,1.812-2.396,1.87-3.999,1.268-1.723-.647-2.601-1.815-1.903-3.674l1.03-2.742c.096-.254.04-.378-.23-.479-.18-.067-.466-.124-.663-.146l.4-1.063c.314-.019.88.022,1.375.209.839.314.916.84.729,1.334l-.045.12c.508-.306,1.473-.644,2.836-.132,1.289.484,2.124,1.448,1.628,2.767ZM546.857,57.027l-.315.839c.257.183.849.473,1.418.688.884.332,1.53.387,1.767-.243.191-.509-.099-.875-.833-1.15-.839-.315-1.605-.278-2.037-.133Z"/><path d="M539.689,55.815l-.882,2.556,2.132.735-.443,1.286-2.132-.736-1.07,3.1-1.618-.558,1.07-3.101-3.282-1.132.444-1.285,3.281,1.132.861-2.495c.434-1.255.343-1.777-.776-2.163-.62-.214-1.241-.276-1.778-.241l.449-1.301c.557-.045,1.254-.007,2.146.301,1.724.595,2.402,1.573,1.598,3.902Z"/><path d="M527.267,59.408l-1.999-.632.583-1.847,1.999.632-.583,1.847ZM532.164,51.506l-2.35-.743-1.316,4.166,2.35.742-.41,1.297-3.983-1.258,1.726-5.463-2.151-.68.405-1.282,6.134,1.938-.405,1.282Z"/><path d="M522.346,50.742c-.785,2.737-2.911,3.01-4.525,2.547-1.723-.493-3.282-1.789-2.488-4.559.781-2.722,2.911-3.01,4.525-2.547,1.723.494,3.278,1.805,2.488,4.559ZM517.009,49.211c-.437,1.522.031,2.389,1.2,2.724,1.169.336,2.024-.151,2.461-1.675.432-1.507-.031-2.389-1.2-2.724s-2.029.167-2.461,1.675Z"/><path d="M511.312,51.303l-1.44-.372.24-.929c-.441.365-1.24.836-2.401.536-1.301-.336-2.303-1.189-1.731-3.404l1.091-4.228,1.657.428-1.007,3.902c-.288,1.115-.211,1.779.795,2.039.744.192,1.238.006,1.616-.243l1.292-5.003,1.657.428-1.767,6.846Z"/><path d="M459.137,44.592l-1.525-.181,1.556-13.168,1.525.18-1.556,13.169Z"/><path d="M412.209,36.105c.048,2.942-1.25,4.755-3.857,4.797-2.127.034-3.581-.869-3.733-3.347l1.807-.029c.133,1.294.75,1.876,1.902,1.856,1.791-.028,2.071-1.505,2.042-3.248-.028-1.711-.355-3.193-2.146-3.164-1.167.019-1.75.62-1.841,1.901l-1.807.029c.088-2.448,1.576-3.433,3.655-3.466,2.719-.045,3.931,1.695,3.979,4.67Z"/><path d="M402.018,35.258c.117,2.847-1.815,3.775-3.495,3.844-1.791.073-3.679-.666-3.797-3.544-.116-2.831,1.815-3.775,3.495-3.844,1.791-.073,3.68.682,3.797,3.544ZM396.469,35.486c.065,1.584.781,2.259,1.997,2.209s1.874-.781,1.809-2.365c-.064-1.566-.781-2.258-1.997-2.208s-1.874.798-1.809,2.364Z"/><path d="M391.702,39.265l-1.484.1-.064-.958c-.304.485-.915,1.184-2.112,1.264-1.341.09-2.561-.406-2.713-2.688l-.292-4.357,1.708-.114.269,4.022c.077,1.149.358,1.756,1.396,1.687.766-.052,1.177-.384,1.458-.739l-.345-5.155,1.708-.114.472,7.055Z"/><path d="M380.024,36.066l.252,2.692,2.247-.211.127,1.354-2.246.211.307,3.266-1.705.16-.307-3.266-3.457.324-.127-1.354,3.457-.324-.247-2.629c-.124-1.321-.422-1.76-1.601-1.649-.653.062-1.245.262-1.719.516l-.129-1.37c.489-.271,1.14-.525,2.08-.613,1.816-.171,2.837.44,3.068,2.894Z"/><path d="M371.379,35.25l-1.731.208.521,4.336,1.731-.208.162,1.351-3.208.385-.191-1.588c-.208.814-.791,1.867-2.173,2.033-.524.062-1.016-.007-1.354-.144l-.206-1.716c.374.165.93.227,1.39.172,1.112-.134,1.712-.77,2.006-1.272l-.377-3.145-2.955.354-.16-1.334,6.385-.768.161,1.335Z"/><path d="M361.853,36.947c.238,1.614-1.139,2.254-2.579,2.467-.728.107-1.521.095-1.952.029l.084.569c.133.902.396,1.591,1.694,1.399.981-.145,1.492-.624,1.371-1.447l1.598-.236c.282,1.915-1.188,2.795-2.882,3.045-1.819.269-3.152-.327-3.442-2.289l-.427-2.896c-.04-.27-.148-.351-.433-.309-.19.028-.468.118-.651.193l-.166-1.124c.266-.168.781-.406,1.303-.482.886-.131,1.207.29,1.284.812l.019.127c.296-.513.976-1.276,2.416-1.488,1.361-.201,2.557.237,2.763,1.629ZM357.037,37.512l.131.886c.312.035.971.003,1.572-.086.934-.138,1.525-.403,1.427-1.067-.079-.538-.51-.717-1.285-.603-.886.131-1.538.534-1.844.87Z"/><path d="M351.894,38.824l-1.655.288c-.192-.729-1.003-.913-2.06-.729-.961.168-1.693.441-1.581,1.088.121.693,1.196.62,2.643.628,1.397,0,2.774.166,3.029,1.632.25,1.435-1.125,2.308-2.843,2.606-1.718.3-3.264.098-3.695-1.63l1.655-.288c.242.737,1.073.755,1.798.628.962-.167,1.465-.449,1.382-.923-.11-.63-.964-.595-2.667-.574-1.328.021-2.758-.169-3.008-1.604-.294-1.687,1.199-2.531,3.154-2.872,1.86-.324,3.499.04,3.846,1.75Z"/><path d="M340.327,41.723l.534,2.651,2.212-.445.268,1.333-2.211.445.647,3.216-1.678.338-.648-3.216-3.404.686-.269-1.333,3.404-.686-.521-2.588c-.262-1.302-.604-1.706-1.766-1.473-.643.129-1.21.391-1.656.692l-.271-1.349c.458-.321,1.079-.642,2.004-.828,1.788-.36,2.869.141,3.355,2.556Z"/><path d="M292.665,62.169l-1.452.504-4.352-12.536,1.452-.504,4.352,12.536Z"/><path d="M248.199,79.48l-2.554,1.294c-2.71,1.375-4.397.311-5.692-2.243-1.236-2.439-1.112-4.564,1.556-5.917l2.554-1.295,4.137,8.161ZM243.158,73.462l-.97.492c-1.726.875-1.311,2.297-.58,3.737.738,1.455,1.631,2.616,3.357,1.741l.97-.492-2.777-5.479Z"/><path d="M237.198,78.77c1.348,2.49.114,4.177-1.419,5.007-1.59.86-3.62.94-4.953-1.521l-.183-.338,4.868-2.635c-.628-1.061-1.521-1.432-2.731-.777-.83.449-1.224,1.1-1.009,1.765l-1.547.838c-.573-1.764.602-3.055,1.953-3.785,1.801-.975,3.758-.888,5.022,1.447ZM232.762,82.135c.644.888,1.568.915,2.384.474s1.299-1.23.908-2.256l-3.292,1.782Z"/><path d="M229.751,86.913l-1.29.742-.462-.805c-.072.613-.442,1.51-1.482,2.108-1.359.782-3.109.533-4.41-1.728s-.609-3.914.723-4.681c.971-.559,1.868-.41,2.278-.276l-1.82-3.163,1.484-.854,4.979,8.655ZM223.632,86.353c.678,1.179,1.569,1.7,2.623,1.094.624-.359.938-.872,1.07-1.317l-1.652-2.871c-.451-.109-1.052-.096-1.676.263-1.054.607-1.051,1.639-.365,2.832Z"/><path d="M217.821,89.194l1.411,2.308,1.925-1.177.709,1.161-1.925,1.177,1.711,2.8-1.461.893-1.711-2.8-2.963,1.812-.709-1.161,2.963-1.811-1.377-2.254c-.692-1.134-1.153-1.396-2.164-.778-.56.343-1.004.782-1.319,1.219l-.718-1.175c.32-.458.793-.973,1.6-1.465,1.557-.951,2.743-.852,4.029,1.252Z"/><path d="M214.515,99.875l-1.437.931-2.209-3.41c-.027.398-.239,1.279-1.166,1.879-1.128.73-2.408.874-3.651-1.047l-2.375-3.665,1.437-.931,2.192,3.384c.626.967,1.167,1.359,2.04.794.645-.417.842-.907.915-1.354l-2.809-4.337,1.437-.931,5.627,8.688Z"/><path d="M172.495,130.984l-1.166,1.001-8.64-10.069,1.166-1,8.64,10.068Z"/><path d="M137.401,163.371l-2.002,2.246c-1.47,1.649-3.28,2.309-4.857.902-1.589-1.416-1.14-3.268.341-4.928l.82-.92-2.318-2.066,1.182-1.326,6.834,6.092ZM132.813,161.662l-.831.932c-.948,1.063-.945,1.902-.216,2.552.729.65,1.55.546,2.498-.518l.831-.932-2.282-2.034Z"/><path d="M126.902,166.706c2.164,1.829,1.629,3.85.503,5.182-1.167,1.381-3.029,2.196-5.168.389l-.293-.248,3.574-4.229c-.972-.759-1.939-.779-2.828.271-.609.721-.74,1.47-.297,2.012l-1.136,1.345c-1.176-1.435-.552-3.064.439-4.238,1.322-1.564,3.177-2.197,5.206-.482ZM123.996,171.458c.924.593,1.795.281,2.395-.428s.761-1.619.023-2.432l-2.417,2.859Z"/><path d="M118.508,173.36l-1.091,1.36,3.408,2.733,1.091-1.36,1.061.851-2.022,2.521-1.248-1.001c.421.728.742,1.887-.128,2.973-.331.412-.73.707-1.068.846l-1.348-1.081c.382-.144.823-.488,1.113-.851.701-.873.684-1.748.542-2.312l-2.471-1.982-1.862,2.321-1.049-.841,4.024-5.018,1.048.841Z"/><path d="M113.152,181.513l-1.016,1.338c-.638-.404-1.357.014-2.005.867-.59.777-.94,1.477-.417,1.873.561.426,1.298-.36,2.363-1.34,1.023-.95,2.145-1.766,3.329-.866,1.16.88.747,2.455-.307,3.844-1.055,1.389-2.324,2.293-3.815,1.321l1.016-1.338c.679.375,1.3-.178,1.745-.764.59-.777.766-1.326.384-1.617-.51-.387-1.112.221-2.344,1.395-.959.919-2.135,1.753-3.294.873-1.363-1.035-.845-2.67.355-4.25,1.142-1.504,2.589-2.353,4.007-1.336Z"/><path d="M110.809,192.699l-.868,1.209-.754-.541c.188.588.221,1.558-.479,2.533-.916,1.273-2.612,1.77-4.731.248-2.119-1.522-2.172-3.314-1.275-4.562.654-.91,1.533-1.146,1.96-1.193l-2.964-2.129.999-1.392,8.112,5.827ZM105.004,194.717c1.105.794,2.132.901,2.841-.087.42-.585.495-1.183.431-1.643l-2.691-1.933c-.457.086-.999.348-1.418.933-.71.987-.281,1.927.837,2.729Z"/><path d="M102.394,198.349c2.341,1.591,2.022,3.655,1.042,5.098-1.016,1.495-2.781,2.5-5.096.927l-.318-.216,3.11-4.577c-1.045-.652-2.009-.572-2.782.565-.53.781-.582,1.539-.084,2.031l-.989,1.455c-1.319-1.303-.87-2.988-.007-4.259,1.15-1.693,2.927-2.516,5.124-1.024ZM100.003,203.376c.98.492,1.813.092,2.335-.676.521-.768.587-1.689-.232-2.42l-2.103,3.096Z"/><path d="M96.829,206.665c2.452,1.571,2.059,3.639,1.108,5.121-.855,1.334-2.335,2.457-4.291,1.355l.933-1.455c.968.506,1.627.131,2.137-.665.674-1.051.497-2.02-.837-2.874-1.347-.864-2.289-.612-2.971.452-.501.782-.581,1.529.284,2.197l-.933,1.455c-1.791-1.3-1.375-3.163-.538-4.47.958-1.495,2.682-2.672,5.107-1.117Z"/><path d="M89.979,216.525l2.313,1.4,1.168-1.93,1.164.704-1.168,1.93,2.806,1.698-.886,1.465-2.806-1.698-1.798,2.97-1.164-.704,1.798-2.97-2.259-1.367c-1.136-.688-1.666-.709-2.278.304-.34.562-.532,1.155-.61,1.688l-1.177-.712c.074-.555.257-1.229.746-2.036.945-1.561,2.044-2.017,4.152-.741Z"/><path d="M84.182,222.988l-1.22,2.141,3.795,2.162,1.22-2.141,1.182.674-2.067,3.628-4.976-2.835-1.117,1.96-1.168-.666,3.184-5.588,1.168.665ZM90.875,229.434l-1.037,1.821-1.682-.958,1.038-1.821,1.682.958Z"/><path d="M84.683,233.743l-.906,1.694-3.584-.394-2.297-.321,1.528,1.726,2.314,2.8-.861,1.609-4.766-6.091.861-1.609,7.711.586Z"/><path d="M76.658,241.248c2.531,1.27,2.485,3.358,1.704,4.917-.811,1.615-2.429,2.844-4.931,1.589l-.343-.173,2.481-4.946c-1.123-.51-2.067-.304-2.684.926-.423.844-.374,1.603.183,2.025l-.789,1.572c-1.479-1.118-1.255-2.849-.567-4.221.918-1.83,2.572-2.88,4.945-1.689ZM74.949,246.547c1.037.358,1.81-.148,2.226-.978.416-.829.36-1.752-.548-2.368l-1.678,3.346Z"/><path d="M62.072,292.932l-.497,1.453-12.548-4.288.497-1.453,12.548,4.288Z"/><path d="M46.422,340.509l.583-2.968,1.476.29-1.51,7.693-1.476-.29.583-2.968-7.505-1.473.345-1.759,7.505,1.474Z"/><path d="M40.989,346.84c2.793.473,3.361,2.484,3.07,4.204-.302,1.782-1.49,3.432-4.251,2.965l-.378-.064.924-5.459c-1.223-.158-2.066.315-2.296,1.673-.157.931.112,1.642.769,1.883l-.294,1.735c-1.743-.636-2.036-2.357-1.779-3.872.342-2.02,1.616-3.508,4.235-3.064ZM40.907,352.41c1.097.039,1.688-.672,1.843-1.587s-.169-1.781-1.218-2.105l-.625,3.692Z"/><path d="M39.091,359.355l3.848-2.506-.298,2.091-2.606,1.616,2.06,2.217-.287,2.011-3.001-3.434-4.024,2.61.298-2.091,2.749-1.709-2.164-2.394.296-2.074,3.13,3.662Z"/><path d="M37.263,368.54l2.688.31.258-2.241,1.352.155-.258,2.242,3.26.375-.196,1.701-3.259-.375-.397,3.45-1.351-.156.397-3.45-2.623-.302c-1.32-.152-1.811.049-1.946,1.226-.075.652-.001,1.272.148,1.789l-1.368-.157c-.164-.534-.278-1.224-.169-2.162.208-1.812,1.018-2.686,3.466-2.404Z"/><path d="M36.025,377.05l4.349.387-.152,1.705-4.014-.357c-1.147-.103-1.79.081-1.882,1.116-.068.765.196,1.222.504,1.555l5.146.458-.152,1.705-7.042-.628.132-1.481.956.086c-.432-.376-1.027-1.088-.921-2.282.12-1.338.798-2.466,3.076-2.263Z"/><path d="M33.842,386.854l-.108,1.741,4.361.271.108-1.741,1.358.084-.201,3.228-1.598-.099c.764.352,1.695,1.115,1.609,2.505-.033.527-.19.999-.386,1.308l-1.726-.107c.229-.339.391-.874.42-1.337.069-1.118-.448-1.824-.89-2.204l-3.163-.196-.185,2.971-1.342-.083.399-6.422,1.342.083Z"/><path d="M35.436,396.566c2.83.104,3.657,2.022,3.594,3.766-.065,1.807-1.027,3.598-3.826,3.496l-.384-.014.201-5.533c-1.233.003-2.007.584-2.057,1.959-.034.943.326,1.613,1.009,1.766l-.064,1.759c-1.811-.401-2.327-2.069-2.271-3.604.074-2.047,1.143-3.689,3.797-3.594ZM36.084,402.098c1.092-.104,1.585-.888,1.619-1.814.034-.928-.401-1.744-1.483-1.928l-.136,3.742Z"/><path d="M43.574,449.629l.148,1.529-13.206,1.277-.148-1.529,13.206-1.277Z"/><path d="M49.904,496.94l.656,2.789c.696,2.96-.737,4.349-3.525,5.004-2.664.626-4.701.004-5.386-2.909l-.655-2.789,8.911-2.095ZM42.864,500.419l.249,1.06c.443,1.885,1.923,1.816,3.497,1.447,1.589-.374,2.929-.969,2.486-2.854l-.249-1.06-5.982,1.406Z"/><path d="M44.629,508.411l.627,2.383,4.224-1.112-.627-2.383,1.315-.346,1.063,4.038-5.539,1.458.574,2.182-1.3.343-1.638-6.22,1.3-.343ZM53.922,508.33l.534,2.027-1.872.492-.534-2.026,1.872-.493Z"/><path d="M52.554,515.885l.363,1.245-.968.282c.498.104,1.328.379,1.61,1.348.233.799-.159,1.396-.641,1.688.376.091,1.247.387,1.525,1.339.31,1.061-.471,1.756-1.823,2.15l-4.687,1.368-.426-1.46,4.425-1.292c.83-.242,1.123-.494.997-.925-.121-.415-.518-.632-.842-.771l-5.025,1.468-.426-1.46,4.425-1.292c.83-.242,1.123-.495.998-.925-.121-.415-.522-.648-.847-.787l-5.024,1.467-.426-1.459,6.792-1.983Z"/><path d="M52.037,526.723c2.696-.867,4.126.655,4.66,2.315.554,1.721.259,3.731-2.406,4.588l-.366.118-1.694-5.27c-1.158.423-1.688,1.232-1.267,2.542.289.898.855,1.405,1.549,1.316l.539,1.675c-1.839.238-2.892-1.153-3.362-2.615-.627-1.949-.182-3.856,2.346-4.67ZM54.53,531.702c.992-.47,1.188-1.373.904-2.257-.284-.883-.971-1.502-2.05-1.307l1.146,3.563Z"/><path d="M58.678,535.577l.492,1.403-.905.317c.549.163,1.385.565,1.782,1.697.445,1.268.293,2.574-1.865,3.332l-4.12,1.445-.566-1.615,3.803-1.334c1.086-.381,1.596-.814,1.251-1.795-.254-.725-.684-1.031-1.102-1.207l-4.874,1.711-.567-1.615,6.67-2.34Z"/><path d="M57.323,546.23l.598,1.569c-.68.328-.706,1.159-.325,2.161.347.912.755,1.579,1.368,1.346.658-.251.381-1.292.114-2.715-.265-1.371-.364-2.754,1.027-3.283,1.361-.519,2.479.665,3.1,2.295.62,1.63.716,3.186-.898,3.938l-.598-1.57c.678-.378.537-1.197.275-1.885-.347-.913-.72-1.353-1.168-1.182-.598.228-.401,1.06-.058,2.727.272,1.3.358,2.74-1.002,3.258-1.6.609-2.713-.696-3.419-2.551-.672-1.765-.625-3.442.987-4.107Z"/><path d="M60.246,556.232l.938,2.279,4.041-1.662-.938-2.279,1.258-.518,1.589,3.863-5.299,2.18.858,2.087-1.243.511-2.448-5.95,1.244-.511ZM69.449,554.92l.797,1.939-1.791.736-.797-1.938,1.791-.737Z"/><path d="M65.959,564.249c2.605-1.154,4.178.302,4.859,1.839.727,1.639.732,3.667-1.901,4.834-2.59,1.148-4.178-.302-4.859-1.838-.727-1.64-.718-3.674,1.901-4.835ZM68.21,569.328c1.449-.643,1.813-1.557,1.321-2.669s-1.416-1.456-2.864-.813c-1.434.635-1.813,1.557-1.321,2.668.493,1.112,1.43,1.45,2.864.814Z"/><path d="M73.471,572.353l.639,1.344-.867.412c.563.104,1.438.415,1.952,1.499.577,1.214.565,2.53-1.501,3.512l-3.945,1.875-.735-1.547,3.642-1.729c1.041-.495,1.501-.979,1.055-1.919-.33-.693-.79-.953-1.224-1.083l-4.667,2.218-.734-1.547,6.387-3.034Z"/><path d="M101.792,616.693l.839,1.286-11.106,7.249-.839-1.286,11.106-7.249Z"/><path d="M129.322,655.678l1.965,2.277c1.442,1.672,1.86,3.552.261,4.932-1.611,1.391-3.387.704-4.84-.98l-.805-.933-2.351,2.027-1.16-1.345,6.93-5.979ZM127.029,660.001l.815.945c.93,1.078,1.762,1.185,2.501.548.739-.638.743-1.466-.187-2.544l-.815-.945-2.314,1.996Z"/><path d="M131.287,666.496c2.105-1.918,4.057-1.034,5.188.208,1.207,1.324,1.853,3.245-.276,5.185-2.093,1.906-4.057,1.034-5.188-.208-1.207-1.324-1.841-3.256.275-5.185ZM135.026,670.599c1.17-1.066,1.228-2.049.409-2.948-.818-.898-1.802-.933-2.973.134-1.159,1.056-1.228,2.049-.409,2.947.819.899,1.814.923,2.973-.133Z"/><path d="M137.192,674.871l1.163,1.213c-.499.566-.198,1.343.544,2.116.676.705,1.311,1.159,1.785.705.508-.487-.153-1.339-.954-2.544-.779-1.159-1.41-2.396-.336-3.426,1.051-1.008,2.543-.354,3.75.905s1.903,2.654.709,3.977l-1.163-1.213c.477-.612.027-1.312-.482-1.844-.676-.705-1.191-.965-1.538-.632-.462.442.044,1.133,1.011,2.533.758,1.092,1.399,2.384.348,3.393-1.236,1.185-2.771.417-4.144-1.016-1.308-1.362-1.92-2.926-.694-4.168Z"/><path d="M143.762,682.92l1.753,1.731,3.07-3.107-1.753-1.731.956-.968,2.971,2.936-4.026,4.074,1.605,1.586-.944.956-4.576-4.521.945-.956ZM151.721,678.12l1.491,1.474-1.361,1.377-1.491-1.473,1.361-1.378Z"/><path d="M153.22,689.811l1.852-1.973-1.646-1.544.931-.992,1.646,1.544,2.246-2.393,1.249,1.172-2.246,2.394,2.533,2.377-.931.992-2.533-2.377-1.808,1.926c-.91.969-1.041,1.482-.177,2.293.479.449,1.021.761,1.525.949l-.942,1.004c-.527-.188-1.148-.508-1.837-1.154-1.331-1.249-1.549-2.42.138-4.218Z"/><path d="M158.339,696.834l1.84,1.639,2.904-3.262-1.84-1.638.904-1.016,3.118,2.775-3.808,4.277,1.685,1.5-.893,1.003-4.803-4.275.894-1.004ZM166.035,691.629l1.565,1.394-1.287,1.445-1.565-1.394,1.287-1.445Z"/><path d="M168.969,698.598l1.467,1.238-1.129,3.421-.792,2.178,2.003-1.135,3.217-1.68,1.394,1.177-6.943,3.391-1.393-1.176,2.176-7.414Z"/><path d="M174.635,707.999c1.769-2.212,3.803-1.732,5.166-.644,1.412,1.13,2.277,2.969.528,5.155l-.24.301-4.324-3.459c-.732.992-.727,1.96.348,2.819.737.59,1.49.699,2.02.242l1.375,1.1c-1.402,1.215-3.049.635-4.249-.324-1.6-1.279-2.282-3.116-.623-5.19ZM179.463,710.775c.567-.939.232-1.802-.493-2.382-.725-.579-1.64-.717-2.432.043l2.924,2.339Z"/><path d="M191.727,712.642l1.263.956-14.653,5.543-1.25-.946,14.641-5.553Z"/><path d="M194.206,715.971l1.833,1.314-2.22,7.543,1.509-2.461,2.647-3.692,1.274.913-5.333,7.437-1.833-1.314,2.22-7.543-1.509,2.462-2.648,3.692-1.274-.914,5.333-7.437Z"/><path d="M198.642,726.058c1.588-2.344,3.653-2.026,5.097-1.049,1.497,1.014,2.504,2.778.934,5.096l-.215.318-4.583-3.104c-.651,1.047-.57,2.011.569,2.782.781.529,1.54.579,2.031.081l1.457.987c-1.301,1.321-2.988.874-4.26.013-1.695-1.148-2.521-2.925-1.031-5.124ZM203.674,728.443c.491-.981.089-1.813-.679-2.334s-1.69-.585-2.42.234l3.099,2.1Z"/><path d="M204.927,735.006l1.388.888c-.408.727-.369,1.379.655,2.033,1.24.794,1.811.229,2.319-.566l.543-.85c-.473.116-1.279.188-2.195-.397-1.388-.888-1.938-2.551-.627-4.599,1.319-2.062,3.117-2.26,4.464-1.397.97.621,1.333,1.537,1.349,2.136l.492-.768,1.253.802-3.914,6.116c-1.026,1.604-2.468,1.84-4.435.581-1.32-.845-2.449-2.08-1.291-3.979ZM210.462,735.528l1.655-2.587c-.121-.494-.405-.999-.971-1.361-1.038-.664-1.957-.207-2.646.87-.69,1.078-.711,2.091.327,2.754.566.362,1.135.423,1.635.324Z"/><path d="M214.562,738.433c.844-1.397,2.314-1.015,3.561-.263.63.381,1.235.896,1.525,1.221l.298-.494c.471-.78.707-1.479-.417-2.158-.85-.513-1.55-.468-1.979.245l-1.384-.836c1.001-1.658,2.696-1.4,4.163-.516,1.576.951,2.226,2.259,1.2,3.958l-1.514,2.508c-.141.232-.108.364.139.514.165.099.436.207.625.265l-.587.974c-.313-.04-.861-.184-1.313-.457-.768-.463-.747-.992-.474-1.444l.066-.11c-.555.207-1.565.364-2.812-.389-1.178-.711-1.823-1.811-1.096-3.017ZM218.639,741.062l.463-.767c-.219-.226-.748-.62-1.268-.935-.809-.487-1.434-.659-1.781-.084-.281.466-.063.878.609,1.283.767.464,1.527.567,1.978.502Z"/><path d="M225.443,743.55l1.335-2.352-1.962-1.114.672-1.183,1.962,1.114,1.621-2.853,1.489.846-1.62,2.853,3.02,1.715-.672,1.183-3.02-1.715-1.304,2.296c-.656,1.155-.663,1.686.367,2.271.571.324,1.17.499,1.705.563l-.68,1.196c-.556-.058-1.235-.223-2.056-.689-1.586-.901-2.074-1.987-.856-4.131Z"/><path d="M232.074,749.179l2.174,1.161,2.058-3.854-2.173-1.161.641-1.199,3.684,1.967-2.699,5.054,1.99,1.062-.633,1.186-5.674-3.03.633-1.186ZM238.336,742.311l1.849.987-.912,1.708-1.849-.987.912-1.708Z"/><path d="M242.806,748.384l1.718.858-.293,3.593-.258,2.304,1.682-1.574,2.734-2.39,1.632.815-5.954,4.931-1.632-.815.372-7.722Z"/><path d="M250.534,756.198c1.199-2.566,3.289-2.578,4.869-1.84,1.638.766,2.911,2.35,1.726,4.887l-.163.348-5.016-2.345c-.479,1.137-.246,2.076,1.001,2.658.855.399,1.612.33,2.02-.239l1.594.745c-1.077,1.51-2.813,1.334-4.205.684-1.855-.867-2.951-2.491-1.826-4.897ZM255.88,757.759c.33-1.046-.198-1.806-1.039-2.198s-1.762-.312-2.353.613l3.392,1.585Z"/><path d="M297.602,775.759l1.649.515c-.209.94.167,1.561,1.359,1.932,1.084.338,1.86.161,2.079-.542.181-.58-.181-.978-.782-1.416l-1.755-1.251c-.96-.685-1.561-1.66-1.17-2.912.509-1.635,2.175-2.087,4.039-1.507,1.742.543,2.919,1.765,2.34,3.729l-1.665-.519c.239-.981-.151-1.506-1.128-1.811-1.084-.338-1.711-.047-1.872.523-.137.493-.003.87.643,1.323l1.781,1.275c.929.675,1.726,1.56,1.288,2.965-.552,1.772-2.341,2.136-4.266,1.536-1.97-.614-3.135-1.932-2.54-3.842Z"/><path d="M308.845,774.685l1.432.404-.252.894c.489-.378,1.389-.738,2.543-.412,1.509.426,2.553,1.852,1.844,4.36-.708,2.51-2.375,3.17-3.853,2.753-1.078-.305-1.599-1.051-1.789-1.437l-.991,3.51-1.647-.465,2.713-9.607ZM312.718,779.454c.37-1.309.121-2.311-1.05-2.641-.693-.196-1.279-.062-1.689.154l-.9,3.187c.236.399.666.82,1.359,1.016,1.17.331,1.906-.393,2.28-1.716Z"/><path d="M316.615,782.261c.401-1.581,1.918-1.642,3.329-1.283.713.181,1.441.498,1.813.724l.142-.558c.225-.884.247-1.621-1.024-1.943-.961-.244-1.618.002-1.823.808l-1.565-.397c.476-1.876,2.172-2.122,3.831-1.7,1.783.452,2.784,1.515,2.295,3.438l-.72,2.837c-.067.264.002.38.282.451.186.047.477.071.674.072l-.279,1.101c-.311.054-.877.074-1.389-.056-.868-.22-1.002-.732-.872-1.244l.032-.124c-.471.358-1.392.802-2.803.443-1.333-.339-2.269-1.203-1.922-2.567ZM321.277,783.593l.221-.868c-.275-.152-.895-.376-1.484-.525-.915-.232-1.562-.215-1.728.437-.134.526.195.857.955,1.051.868.22,1.625.099,2.037-.094Z"/><path d="M326.723,783.056c.642-2.841,2.719-3.176,4.436-2.788,1.545.35,3.106,1.357,2.737,3.571l-1.686-.381c.146-1.082-.432-1.574-1.353-1.781-1.218-.275-2.068.222-2.417,1.767-.353,1.562.205,2.36,1.438,2.639.905.204,1.635.024,1.968-1.016l1.686.381c-.611,2.125-2.504,2.371-4.019,2.028-1.732-.391-3.426-1.609-2.792-4.42Z"/><path d="M336.522,785.263c.551-2.779,2.578-3.291,4.289-2.952,1.774.352,3.39,1.586,2.845,4.334l-.075.376-5.433-1.076c-.192,1.218.258,2.074,1.608,2.342.927.184,1.645-.065,1.904-.716l1.728.343c-.685,1.725-2.414,1.969-3.921,1.67-2.01-.398-3.462-1.714-2.945-4.32ZM342.088,785.501c.07-1.096-.625-1.707-1.535-1.888-.911-.18-1.786.119-2.139,1.159l3.674.729Z"/><path d="M390.189,785.588l1.534.094-.81,13.244-1.534-.094.81-13.244Z"/></svg>