<?xml version="1.0" encoding="UTF-8"?><svg id="Layer_1" xmlns="http://www.w3.org/2000/svg" width="3.837in" height="3.837in" viewBox="0 0 276.25 276.25"><defs><style>.cls-1{fill:#f1f2f2;opacity:.5;stroke:#231f20;stroke-miterlimit:10;stroke-width:.25px;}</style></defs><path class="cls-1" d="M138.125.125C61.91.125.125,61.91.125,138.125s61.785,138,138,138,138-61.785,138-138S214.34.125,138.125.125ZM138.125,207.125c-38.108,0-69-30.892-69-69s30.892-69,69-69,69,30.892,69,69-30.892,69-69,69Z"/><path d="M159.229,244.476l2.962-.688-1.613-6.938c-.356.679-1.097,1.2-2.305,1.481l-.448.104-.449-1.93.877-.204c1.228-.285,2.039-.946,2.27-1.985l1.618-.377,2.175,9.354,2.514-.585.417,1.793-7.599,1.768-.417-1.793Z"/><path d="M168.223,235.046l1.522-.553.431,1.184c.091-.629.366-1.687,1.55-2.117.978-.355,1.755.086,2.157.663.082-.477.381-1.586,1.547-2.01,1.297-.472,2.227.446,2.828,2.101l2.085,5.733-1.786.649-1.969-5.414c-.369-1.016-.707-1.36-1.233-1.169-.508.185-.747.697-.894,1.112l2.235,6.147-1.786.649-1.969-5.414c-.369-1.016-.708-1.36-1.234-1.169-.507.185-.766.704-.912,1.119l2.235,6.147-1.786.649-3.021-8.31Z"/><path d="M183.536,236.78l2.747-1.394-2.47-4.869-2.747,1.394-.769-1.517,4.655-2.361,3.24,6.386,2.515-1.275.76,1.498-7.17,3.638-.76-1.499ZM180.993,225.444l2.336-1.186,1.095,2.158-2.337,1.186-1.095-2.158Z"/><path d="M191.099,224.626l1.547-1.032.667.997c.027-.715.253-1.853,1.501-2.686,1.397-.934,3.028-1.156,4.616,1.222l3.033,4.541-1.78,1.188-2.799-4.191c-.8-1.197-1.482-1.68-2.563-.957-.798.533-1.037,1.148-1.119,1.709l3.588,5.372-1.779,1.188-4.91-7.352Z"/><path d="M221.436,188.352l.736-1.238,14.067,8.363-.736,1.237-14.067-8.362Z"/><path d="M246.788,151.509c-1.993-.173-3.107-1.213-3.953-2.812l-.846-1.6c-.569-1.073-1.149-2.026-2.126-2.111-.997-.086-1.68.618-1.782,1.794-.106,1.235.412,2.203,1.978,2.439l-.188,2.172c-2.64-.349-3.777-2.294-3.556-4.845.204-2.352,1.549-3.981,3.682-3.798,1.614.14,2.432,1.135,3.337,2.738l.938,1.688c.537.99.998,1.692,1.667,1.851l.521-6.018,1.833.158-.728,8.41-.777-.067Z"/><path d="M239.572,139.691l-.05-1.619,1.259-.039c-.569-.282-1.488-.874-1.527-2.134-.033-1.039.629-1.64,1.303-1.841-.427-.228-1.387-.857-1.426-2.097-.043-1.379,1.119-1.976,2.878-2.031l6.097-.19.059,1.898-5.757.181c-1.079.034-1.513.247-1.495.807.017.54.429.928.778,1.196l6.536-.204.06,1.898-5.757.181c-1.08.033-1.513.247-1.496.807.017.54.43.947.778,1.217l6.537-.205.06,1.899-8.835.276Z"/><path d="M234.441,124.563l-.392-2.591,2.393-.361.392,2.59-2.393.362ZM246.003,125.707l-.461-3.045-5.398.816.46,3.046-1.681.254-.781-5.161,7.08-1.071-.422-2.788,1.661-.251,1.203,7.949-1.661.251Z"/><path d="M236.832,114.717l-.497-1.792,1.156-.32c-.671-.25-1.68-.821-2.081-2.267-.449-1.619-.15-3.237,2.606-4.001l5.261-1.458.571,2.062-4.856,1.346c-1.388.385-2.059.882-1.712,2.135.256.925.767,1.344,1.273,1.598l6.225-1.725.572,2.062-8.519,2.36Z"/><path d="M211.786,74.606l-.949-1.083,12.307-10.785.949,1.084-12.307,10.784Z"/><path d="M184.208,41.902l-2.004-.857c.38-1.143.06-2.173-1.412-2.803-1.269-.543-2.313-.338-2.739.655-.449,1.048.231,1.948,1.519,2.5l.515.221-.693,1.617-.497-.212c-1.232-.527-2.148-.42-2.558.536-.386.901.043,1.781,1.165,2.261,1.066.457,2.188.328,2.87-1.012l2.022.866c-1.126,2.324-3.387,2.728-5.686,1.743-2.39-1.023-3.226-2.883-2.478-4.63.441-1.029,1.258-1.615,2.547-1.629-.998-.972-1.203-2.169-.715-3.31.819-1.912,3.028-2.293,5.381-1.285,2.537,1.086,3.623,3.074,2.762,5.338Z"/><path d="M171.233,42.186l-1.555-.453.353-1.209c-.445.453-1.292,1.144-2.501.79-.999-.291-1.365-1.105-1.347-1.809-.348.336-1.245,1.053-2.435.706-1.325-.387-1.532-1.676-1.039-3.365l1.708-5.854,1.823.532-1.613,5.528c-.302,1.036-.233,1.515.304,1.672.518.15,1.014-.121,1.378-.369l1.831-6.277,1.824.532-1.613,5.528c-.302,1.037-.234,1.515.304,1.672.519.151,1.034-.115,1.397-.363l1.831-6.276,1.824.531-2.475,8.484Z"/><path d="M159.913,31.732l-3.039-.503-.891,5.387,3.038.502-.277,1.678-5.149-.853,1.169-7.063-2.782-.46.274-1.657,7.932,1.312-.274,1.657ZM155.253,42.373l-2.584-.428.395-2.387,2.584.428-.395,2.387Z"/><path d="M146.609,37.052l-1.857-.084.054-1.198c-.445.56-1.301,1.342-2.799,1.274-1.678-.075-3.124-.861-2.995-3.718l.246-5.452,2.137.096-.227,5.033c-.065,1.438.2,2.231,1.498,2.289.959.044,1.516-.312,1.914-.714l.291-6.451,2.137.096-.398,8.829Z"/><path d="M100.692,48.322l-1.325.564-6.416-15.053,1.325-.565,6.416,15.054Z"/><path d="M56.815,67.825l3.894-4.434,1.037.91,1.505,9.441-1.254,1.428-5.23-4.593-1.254,1.428-1.337-1.175,1.254-1.428-2.029-1.782,1.386-1.578,2.029,1.782ZM58.153,69l3.006,2.64-.815-5.135-2.191,2.495Z"/><path d="M57.277,76.811l-.917,1.335-1.038-.713c.292.563.682,1.584-.031,2.622-.588.857-1.477.95-2.139.714.21.436.611,1.512-.091,2.533-.781,1.137-2.071.931-3.521-.066l-5.026-3.453,1.076-1.565,4.746,3.261c.89.611,1.366.695,1.683.234.306-.445.203-1.001.081-1.424l-5.389-3.703,1.076-1.565,4.746,3.261c.89.611,1.365.696,1.683.234.306-.444.214-1.018.092-1.44l-5.389-3.702,1.076-1.565,7.284,5.004Z"/><path d="M43.811,84.289l-1.429,2.729,4.836,2.532,1.429-2.729,1.506.789-2.421,4.624-6.342-3.321-1.308,2.497-1.488-.779,3.729-7.121,1.488.779ZM52.458,92.045l-1.215,2.32-2.144-1.123,1.215-2.32,2.144,1.123Z"/><path d="M44.713,98.565l-.66,1.739-1.122-.425c.394.599.87,1.656.337,3.06-.596,1.571-1.794,2.7-4.47,1.686l-5.107-1.938.759-2.002,4.714,1.788c1.347.512,2.183.508,2.644-.709.341-.897.177-1.537-.081-2.042l-6.042-2.292.759-2.001,8.269,3.136Z"/><path d="M41.152,145.746l.122,1.435-16.301,1.386-.122-1.436,16.301-1.385Z"/><path d="M44.044,188.778l1.109,1.876c-.896.646-1.166,1.643-.443,2.864.682,1.153,1.736,1.482,2.872.811,1.17-.692,1.315-1.823.592-3.045-.468-.792-1.321-1.448-2.311-1.63l-.354-1.463,5.878-2.71,3.705,6.266-1.618.957-2.769-4.682-2.483,1.143c.715.345,1.369.979,1.817,1.737,1.17,1.979.811,4.12-1.221,5.321-2.22,1.312-4.395.345-5.596-1.686-1.364-2.307-1.103-4.459.822-5.76Z"/><path d="M54.678,195.859l.985,1.285-1,.767c.627-.103,1.718-.158,2.484.842.632.825.445,1.699.015,2.255.479-.064,1.626-.112,2.38.871.839,1.096.244,2.257-1.153,3.327l-4.84,3.71-1.155-1.508,4.57-3.503c.857-.656,1.084-1.083.744-1.527-.329-.428-.889-.502-1.329-.518l-5.189,3.977-1.155-1.508,4.57-3.502c.857-.657,1.084-1.083.744-1.527-.329-.429-.901-.519-1.341-.534l-5.189,3.977-1.155-1.508,7.014-5.375Z"/><path d="M57.596,210.959l2.15,2.206,3.912-3.812-2.15-2.206,1.218-1.188,3.644,3.74-5.129,4.998,1.968,2.021-1.204,1.173-5.612-5.76,1.204-1.173ZM67.659,205.147l1.829,1.877-1.734,1.688-1.829-1.877,1.733-1.688Z"/><path d="M71.471,214.562l1.448,1.17-.754.934c.691-.188,1.845-.31,3.012.633,1.308,1.057,2.006,2.547.208,4.772l-3.433,4.249-1.665-1.345,3.168-3.923c.905-1.12,1.162-1.916.15-2.733-.747-.604-1.406-.647-1.966-.559l-4.062,5.026-1.665-1.345,5.557-6.88Z"/><path d="M115.138,232.664l1.402.329-3.732,15.927-1.402-.329,3.732-15.927Z"/></svg>