<?xml version="1.0" encoding="UTF-8"?><svg id="Layer_1" xmlns="http://www.w3.org/2000/svg" width="5.753in" height="5.753in" viewBox="0 0 414.25 414.25"><defs><style>.cls-1{fill:#f1f2f2;opacity:.5;stroke:#231f20;stroke-miterlimit:10;stroke-width:.25px;}</style></defs><path class="cls-1" d="M207.125.125C92.802.125.125,92.802.125,207.125s92.677,207,207,207,207-92.677,207-207S321.448.125,207.125.125ZM207.125,345.125c-76.215,0-138-61.785-138-138s61.785-138,138-138,138,61.785,138,138-61.785,138-138,138Z"/><path d="M214.525,384.389l2.205-.126-.386-6.742-2.205.126-.065-1.134,5.72-.328.065,1.135-2.189.125.387,6.742,2.188-.126.065,1.135-5.719.328-.065-1.135Z"/><path d="M224.034,377.879l1.049-.12.105.922c.278-.531.91-1.199,2.15-1.341,1.161-.133,2.397.258,2.66,2.563l.487,4.261-1.256.144-.456-3.99c-.149-1.305-.473-2.024-1.681-1.887-.938.107-1.412.612-1.618.926l.606,5.311-1.256.144-.792-6.932Z"/><path d="M233.227,373.461l1.246-.216,1.068,6.163,2.967-3.583,1.655-.286-2.6,3.08,3.948,3.765-1.529.265-3.179-3.167-1.042,1.203.454,2.617-1.246.216-1.743-10.057Z"/><path d="M255.235,368.47l1.103-.332,3.782,12.531-1.103.333-3.782-12.532Z"/><path d="M273.89,367.915c-1.166-2.651-.759-4.788,1.424-5.747,1.567-.689,3.15-.389,4.14,1.623l-1.172.516c-.658-1.18-1.391-1.574-2.46-1.104-1.86.817-1.303,2.723-.666,4.173.734,1.67,1.718,3.072,3.432,2.319.762-.335,1.146-.854,1.405-1.457l-.805-1.831-1.934.851-.444-1.011,3.105-1.365,1.958,4.453-.952.418-.399-.908c-.083.526-.532,1.493-1.748,2.027-2.241.985-3.924-.774-4.883-2.957Z"/><path d="M284.998,366.656l1.61-.822-2.198-4.304-1.61.822-.487-.955,2.551-1.303.721,1.411c-.064-.758.062-1.99,1.373-2.66.484-.247.992-.345,1.185-.354l.59,1.154c-.229.01-.693.121-1.149.354-1.083.554-1.398,1.415-1.485,2.053l1.638,3.206,2.693-1.375.488.955-5.43,2.772-.488-.955Z"/><path d="M293.346,361.458c-.817-1.395.21-2.459,1.37-3.139.58-.34,1.354-.663,1.864-.776l-.308-.524c-.542-.926-1.095-1.584-2.393-.824-.994.582-1.254,1.31-.77,2.138l-1.049.615c-1.011-1.727.153-3.001,1.368-3.713,1.588-.93,2.883-.65,3.806.924l1.601,2.734c.137.235.269.27.518.124.193-.113.431-.309.62-.493l.453.773c-.165.226-.492.585-.92.835-.718.421-1.141.112-1.375-.289l-.064-.11c-.075.601-.453,1.508-1.654,2.211-1.16.68-2.371.702-3.066-.485ZM297.582,359.255l-.55-.939c-.38.111-1,.382-1.608.737-.939.551-1.392,1.075-1.004,1.738.315.538.842.582,1.629.121.801-.469,1.276-1.081,1.532-1.657Z"/><path d="M299.621,351.66l.879-.585.497.746c.04-.604.334-1.491,1.306-2.138,1.239-.825,2.983-.774,4.446,1.423,1.41,2.118.875,3.8-.403,4.651-.879.585-1.771.544-2.197.424l1.986,2.984-1.053.7-5.461-8.206ZM305.683,351.816c-.851-1.279-1.929-1.83-3.074-1.068-.64.426-.942,1.012-1.049,1.544l2.092,3.144c.532.107,1.189.055,1.829-.371,1.146-.763,1.053-1.97.202-3.248Z"/><path d="M305.828,343.516l1.01-.759,2.394,3.184c.006-.444.13-1.238,1.089-1.959.946-.712,2.223-1.011,3.616.844l2.577,3.427-1.01.759-2.413-3.209c-.788-1.049-1.432-1.506-2.403-.775-.755.567-.907,1.243-.926,1.617l3.211,4.271-1.01.76-6.133-8.158Z"/><path d="M315.123,336.246l1.234-1.041,1.042,1.234-1.234,1.042-1.042-1.235ZM319.217,344.742l1.931-1.63-3.115-3.691-1.931,1.63-.691-.819,2.896-2.444,3.806,4.51,1.76-1.485.691.819-4.657,3.93-.691-.818Z"/><path d="M326.87,335.707l-2.112-2.229-1.661,1.573-.737-.778,1.66-1.573-2.222-2.346.917-.869,2.222,2.346,2.485-2.354.737.778-2.485,2.354,2.079,2.194c.979,1.033,1.563,1.208,2.445.371.511-.483.818-.974,1.022-1.387l.737.778c-.086.235-.431.849-1.139,1.52-1.219,1.155-2.322,1.34-3.95-.378Z"/><path d="M332.24,329.612c-2.026-1.909-1.448-3.805-.34-4.98,1.075-1.141,2.954-1.898,4.992.021l.186.176-3.796,4.028c1.15.995,2.249,1.042,3.247-.018.757-.804.913-1.668.382-2.388l.878-.932c1.153,1.482.397,3.078-.525,4.056-1.272,1.351-3.114,1.835-5.023.036ZM335.49,325.113c-1.029-.75-2.055-.617-2.845.221-.79.838-.861,1.87-.051,2.854l2.896-3.074Z"/><path d="M342.345,307.384l.684-.928,10.535,7.764-.684.928-10.535-7.764Z"/><path d="M356.966,295.796c-2.661-1.504-3.456-3.479-2.259-5.597.764-1.352,2.205-2.504,4.348-1.384l-.63,1.114c-1.219-.542-2.141-.181-2.731.864-1,1.77.417,2.938,1.949,3.804,1.449.818,3.194,1.438,4.194-.331.669-1.185.447-2.027-.662-2.765l.638-1.128c1.98,1.211,1.838,3.024,1.02,4.473-1.236,2.188-3.317,2.39-5.867.949Z"/><path d="M356.977,283.915l.558-1.135,3.575,1.759c-.196-.399-.444-1.163.086-2.24.523-1.062,1.526-1.906,3.608-.882l3.848,1.894-.558,1.134-3.604-1.772c-1.177-.58-1.958-.696-2.495.395-.417.848-.248,1.52-.095,1.861l4.795,2.36-.558,1.134-9.161-4.507Z"/><path d="M368.671,278.961c-1.489-.628-1.303-2.096-.78-3.334.261-.619.688-1.342,1.029-1.736l-.56-.237c-.988-.417-1.825-.614-2.41.771-.448,1.062-.222,1.8.663,2.173l-.473,1.12c-1.842-.777-1.673-2.495-1.125-3.792.716-1.695,1.921-2.246,3.602-1.536l2.918,1.232c.25.106.376.055.488-.21.087-.207.162-.506.202-.767l.825.349c.004.279-.044.764-.237,1.22-.324.767-.847.771-1.274.591l-.118-.05c.299.526.54,1.479-.002,2.761-.523,1.238-1.479,1.981-2.747,1.445ZM370.747,274.663l-1.002-.423c-.238.316-.573.904-.847,1.553-.423,1.002-.472,1.693.235,1.992.575.243,1.023-.037,1.378-.877.361-.854.375-1.63.236-2.245Z"/><path d="M373.336,269.503l.811-2.276-7.613-2.712-.811,2.276-.995-.354,1.235-3.468,8.608,3.067.811-2.276,1.01.359-2.046,5.744-1.01-.36Z"/><path d="M367.919,257.125l.354-1.214,6.008,1.754-1.913-4.244.471-1.613,1.624,3.692,5.121-1.89-.436,1.49-4.245,1.462.623,1.466,2.551.744-.354,1.214-9.803-2.861Z"/><path d="M373.123,235.157l.187-1.137,12.918,2.121-.187,1.138-12.918-2.122Z"/><path d="M376.352,217.275l.111-2.638c.094-2.239,1.068-3.704,3.003-3.623s2.784,1.606,2.689,3.861l-.055,1.312,3.326.14-.056,1.327-9.019-.379ZM380.965,216.139l.056-1.327c.071-1.695-.589-2.379-1.612-2.422-1.008-.043-1.739.583-1.81,2.278l-.056,1.327,3.422.144Z"/><path d="M383.885,208.014c-1.615.026-2.038-1.391-2.06-2.733-.011-.672.087-1.506.239-2.004l-.607.01c-1.071.018-1.917.176-1.892,1.679.019,1.151.524,1.734,1.483,1.72l.02,1.215c-1.999.032-2.537-1.606-2.56-3.014-.03-1.839.85-2.829,2.673-2.858l3.166-.052c.272-.004.367-.102.362-.39-.003-.224-.057-.526-.125-.781l.896-.015c.116.254.268.715.275,1.211.014.832-.463,1.047-.927,1.055l-.128.002c.486.36,1.09,1.134,1.113,2.525.022,1.344-.553,2.408-1.928,2.431ZM384.048,203.245l-1.087.018c-.089.386-.159,1.059-.147,1.763.018,1.087.252,1.739,1.02,1.727.624-.01.92-.447.906-1.358-.015-.928-.314-1.643-.691-2.148Z"/><path d="M383.23,197.731l-.084-1.182c.843-.107,1.239-.857,1.135-2.325-.069-.974-.333-1.757-1.083-1.704-.846.06-.9,1.106-1.113,2.629-.18,1.312-.494,2.537-1.819,2.631-1.389.099-2.057-1.186-2.174-2.846-.113-1.596.335-2.975,1.986-3.22l.083,1.181c-.961.244-1.056,1.166-.997,2.012.077,1.085.374,1.657.933,1.618.83-.059.855-1.296,1.032-2.64.19-1.393.527-2.523,1.868-2.618,1.532-.108,2.238,1.253,2.361,2.993.133,1.883-.441,3.287-2.128,3.471Z"/><path d="M381.57,185.97l-3.047.39.29,2.27-1.063.136-.291-2.269-3.206.409-.16-1.253,3.206-.41-.435-3.396,1.063-.136.434,3.396,3-.384c1.412-.181,1.897-.549,1.743-1.755-.089-.698-.303-1.236-.517-1.644l1.063-.137c.14.208.431.849.555,1.816.213,1.666-.288,2.666-2.637,2.966Z"/><path d="M379.808,178.025c-2.737.512-3.93-1.072-4.227-2.661-.289-1.542.207-3.507,2.959-4.022l.252-.047,1.019,5.443c1.482-.343,2.168-1.204,1.9-2.636-.203-1.085-.811-1.721-1.705-1.716l-.236-1.259c1.878-.059,2.722,1.493,2.97,2.814.341,1.825-.352,3.6-2.932,4.083ZM378.087,172.746c-1.213.39-1.711,1.297-1.499,2.43s1.004,1.799,2.276,1.724l-.777-4.153Z"/><path d="M380.113,167.259l-.581-2.346-7.844,1.942.581,2.346-1.025.253-.884-3.572,8.87-2.195-.581-2.346,1.041-.258,1.465,5.918-1.041.258Z"/><path d="M364.643,147.667l-.411-1.077,12.232-4.668.411,1.077-12.232,4.668Z"/><path d="M358.444,130.605l-1.233-2.334c-1.047-1.98-.943-3.736.768-4.641s3.213-.016,4.268,1.979l.613,1.16,2.942-1.555.621,1.174-7.978,4.217ZM361.855,127.3l-.621-1.174c-.792-1.5-1.708-1.758-2.613-1.279-.891.471-1.207,1.38-.415,2.879l.621,1.174,3.027-1.6Z"/><path d="M360.255,118.788c-1.384.836-2.462-.177-3.157-1.328-.347-.575-.681-1.346-.801-1.854l-.521.314c-.918.554-1.57,1.115-.792,2.403.595.987,1.326,1.237,2.148.741l.628,1.041c-1.713,1.034-3.003-.112-3.731-1.318-.951-1.576-.688-2.875.874-3.817l2.713-1.638c.233-.141.266-.272.117-.519-.116-.192-.314-.428-.501-.614l.767-.463c.229.161.591.484.848.909.43.713.127,1.139-.271,1.379l-.11.065c.602.067,1.514.433,2.233,1.625.695,1.151.734,2.361-.445,3.072ZM357.996,114.581l-.932.562c.116.378.395.995.759,1.598.562.932,1.093,1.378,1.751.981.535-.323.572-.85.1-1.631-.479-.795-1.099-1.263-1.678-1.511Z"/><path d="M346.468,112.673l-.914-1.333,1.333-.914.914,1.333-1.333.914ZM355.334,109.447l-1.429-2.085-3.986,2.732,1.43,2.085-.884.606-2.145-3.128,4.871-3.339-1.303-1.9.884-.606,3.448,5.028-.885.606Z"/><path d="M344.7,104.583l-.646-.836.735-.567c-.598.037-1.497-.158-2.26-1.146-.714-.924-1.02-2.185.816-3.603l3.394-2.621.773,1-3.179,2.455c-1.039.803-1.487,1.452-.744,2.415.577.747,1.254.891,1.629.904l4.23-3.267.772,1.001-5.522,4.265Z"/><path d="M340.793,93.079l-2.32,2.013,1.499,1.729-.81.702-1.499-1.729-2.441,2.118-.828-.955,2.441-2.117-2.244-2.586.81-.703,2.244,2.587,2.284-1.981c1.075-.934,1.275-1.509.478-2.427-.461-.532-.937-.86-1.34-1.082l.81-.702c.231.096.829.467,1.468,1.204,1.101,1.269,1.237,2.379-.551,3.93Z"/><path d="M320.492,82.701l-.854-.773,8.787-9.698.854.773-8.787,9.698Z"/><path d="M311.983,63.915l-1.973-1.396-4.669,6.596,1.972,1.396-.61.862-3.004-2.127,5.28-7.458-1.972-1.396.62-.875,4.976,3.522-.619.876Z"/><path d="M296.764,64.627l-1.37-.857.857-1.37,1.37.857-.857,1.37ZM303.603,58.128l-2.143-1.341-2.562,4.097,2.144,1.341-.568.909-3.215-2.011,3.131-5.006-1.954-1.222.568-.909,5.168,3.232-.568.909Z"/><path d="M295.911,51.542l-1.081-.592c.463-.879.252-1.56-.857-2.167-1.46-.8-2.036-.148-2.521.736l-.446.813c.42-.134,1.262-.238,2.189.269,1.375.754,2.054,2.349.846,4.552-1.223,2.232-2.974,2.496-4.307,1.766-.997-.546-1.4-1.442-1.472-2.011l-.431.786-.926-.508,3.483-6.359c.854-1.558,2.075-2.021,4.068-.929,1.432.784,2.393,1.896,1.454,3.644ZM290.552,51.163l-1.769,3.229c.171.587.546,1.103,1.164,1.44,1.208.661,2.241.041,2.963-1.278.723-1.319.689-2.524-.518-3.186-.618-.339-1.254-.377-1.841-.205Z"/><path d="M281.834,56.221l-1.142-.543,1.709-3.598c-.396.201-1.157.459-2.241-.056-1.069-.508-1.927-1.5-.931-3.595l1.84-3.873,1.142.543-1.724,3.627c-.563,1.185-.669,1.967.429,2.488.853.405,1.522.228,1.862.07l2.293-4.826,1.142.542-4.381,9.22Z"/><path d="M274.529,44.817l-1.157,2.848,2.121.862-.404.993-2.121-.861-1.217,2.996-1.172-.477,1.218-2.996-3.174-1.29.404-.993,3.174,1.29,1.139-2.804c.536-1.32.454-1.924-.674-2.382-.652-.266-1.226-.343-1.687-.357l.404-.993c.25-.02.951.041,1.856.408,1.557.633,2.182,1.561,1.29,3.756Z"/><path d="M251.763,44.782l-1.112-.301,3.42-12.632,1.112.301-3.42,12.632Z"/><path d="M235.722,33.468l-1.283-.185c.084-1.038-.515-1.706-1.83-1.895-1.204-.173-2.064.188-2.193,1.091-.1.697.314,1.08,1.081,1.48l1.819.957c1.022.534,1.828,1.345,1.641,2.644-.228,1.584-1.726,2.226-3.484,1.974-1.806-.26-2.932-1.311-2.684-3.149l1.267.182c-.119,1.276.725,1.704,1.612,1.832,1.156.166,1.849-.269,1.954-.997.086-.602-.271-1.041-.963-1.399l-1.819-.956c-1.369-.714-1.945-1.427-1.77-2.646.261-1.821,1.848-2.401,3.701-2.136,2.027.291,3.208,1.414,2.951,3.204Z"/><path d="M223.78,32.202l-.264,3.062,2.28.196-.092,1.068-2.28-.196-.277,3.221-1.26-.108.277-3.221-3.412-.294.092-1.068,3.413.294.259-3.014c.122-1.42-.135-1.972-1.347-2.076-.702-.061-1.272.035-1.716.157l.092-1.068c.233-.092.92-.242,1.893-.158,1.674.145,2.546.846,2.342,3.206Z"/><path d="M215.385,29.832l-1.807-.052-.138,4.829,1.807.052-.031,1.071-2.863-.082.045-1.583c-.308.695-1.009,1.716-2.48,1.674-.543-.016-1.035-.174-1.209-.259l.037-1.296c.205.103.666.228,1.177.242,1.216.034,1.905-.569,2.288-1.087l.103-3.598-3.022-.087.031-1.071,6.093.174-.031,1.072Z"/><path d="M205.193,29.653l-2.526.07.133,4.829,2.527-.07.03,1.071-3.79.105-.164-5.901-2.303.064-.029-1.072,6.093-.168.029,1.071ZM203.095,38.849l-1.615.044-.045-1.614,1.615-.045.044,1.615Z"/><path d="M195.331,35.949l-1.052.089-.078-.925c-.293.522-.945,1.171-2.189,1.275-1.164.099-2.388-.328-2.583-2.641l-.36-4.273,1.26-.105.337,4.002c.11,1.308.413,2.037,1.625,1.935.941-.079,1.429-.569,1.645-.877l-.449-5.326,1.26-.105.585,6.952Z"/><path d="M184.933,29.383l-1.22.174c-.156-.979-.733-1.398-1.984-1.22-1.647.234-1.718,1.102-1.575,2.099l.131.919c.256-.359.867-.948,1.912-1.097,1.552-.222,3.05.647,3.404,3.135.359,2.518-.883,3.778-2.388,3.992-1.125.16-1.984-.314-2.382-.727l.126.887-1.045.149-1.023-7.175c-.25-1.759.449-2.86,2.698-3.181,1.616-.23,3.05.082,3.346,2.044ZM180.418,32.29l.519,3.643c.489.367,1.098.555,1.794.455,1.362-.194,1.817-1.31,1.605-2.798-.212-1.489-.961-2.433-2.323-2.238-.697.1-1.229.45-1.595.938Z"/><path d="M163.845,44.419l-1.113.299-3.395-12.644,1.113-.299,3.395,12.644Z"/><path d="M143.787,48.622l2.818-1.14.426,1.053-6.896,2.789-.426-1.054,2.848-1.151-2.957-7.312,1.231-.498,2.957,7.312Z"/><path d="M134.662,45.862c.692,1.461-.424,2.433-1.64,3.008-.607.288-1.408.543-1.924.61l.26.55c.459.97.952,1.675,2.312,1.03,1.042-.493,1.364-1.195.953-2.062l1.1-.521c.856,1.809-.415,2.978-1.688,3.58-1.664.788-2.929.396-3.71-1.253l-1.356-2.864c-.117-.246-.245-.292-.505-.169-.203.097-.457.27-.661.438l-.384-.811c.184-.211.542-.539.99-.752.752-.356,1.146-.012,1.344.408l.055.116c.127-.592.583-1.463,1.841-2.059,1.215-.576,2.423-.493,3.013.751ZM130.249,47.687l.466.983c.388-.078,1.03-.293,1.667-.595.984-.466,1.481-.949,1.152-1.644-.267-.564-.788-.654-1.612-.264-.839.397-1.367.966-1.672,1.519Z"/><path d="M127.538,55.079l-.926.506-.429-.786c-.093.598-.463,1.455-1.488,2.015-1.306.712-3.038.51-4.301-1.807-1.218-2.232-.539-3.859.809-4.595.926-.506,1.811-.388,2.224-.23l-1.716-3.145,1.109-.605,4.718,8.647ZM121.517,54.393c.735,1.348,1.76,1.991,2.967,1.332.674-.367,1.026-.924,1.179-1.444l-1.808-3.313c-.521-.153-1.179-.158-1.853.21-1.208.658-1.221,1.868-.486,3.216Z"/><path d="M117.571,56.638c1.471,2.363.429,4.049-.943,4.902-1.331.828-3.341,1.081-4.82-1.296l-.135-.217,4.699-2.925c-.857-1.257-1.908-1.582-3.144-.813-.937.584-1.308,1.38-.979,2.211l-1.086.677c-.736-1.728.402-3.077,1.543-3.787,1.575-.98,3.479-.979,4.866,1.248ZM113.28,60.158c.804.988,1.829,1.122,2.807.514.978-.608,1.31-1.588.778-2.745l-3.585,2.231Z"/><path d="M102.146,75.54l-.898.722-8.2-10.198.897-.722,8.201,10.198Z"/><path d="M85.066,83.04c2.071,2.022,2.493,4.154.829,5.859-1.195,1.225-2.775,1.538-4.444.043l.894-.916c1.051.847,1.877.938,2.692.104,1.419-1.454.19-3.011-.943-4.116-1.304-1.273-2.741-2.206-4.047-.867-.581.596-.743,1.219-.757,1.875l1.43,1.396,1.475-1.511.79.771-2.368,2.427-3.479-3.396.726-.744.709.692c-.119-.519-.064-1.582.863-2.532,1.709-1.751,3.926-.749,5.631.915Z"/><path d="M75.222,88.372l-1.585,1.822,6.095,5.302,1.585-1.822.797.692-2.415,2.776-6.892-5.995-1.585,1.823-.809-.704,4-4.598.809.703Z"/><path d="M69.783,97.274l3.39,2.625-.773.999-3.175-2.459c-1.037-.803-1.779-1.073-2.523-.112-.578.746-.547,1.438-.467,1.804l4.225,3.272-.774.999-5.515-4.271.646-.835.734.568c-.187-.569-.224-1.489.541-2.476.715-.923,1.857-1.536,3.692-.115Z"/><path d="M64.664,105.31c2.294,1.577,2.013,3.539,1.097,4.87-.888,1.292-2.629,2.328-4.937.742l-.211-.146,3.136-4.562c-1.289-.808-2.382-.687-3.207.514-.625.909-.646,1.788-.012,2.418l-.725,1.055c-1.366-1.288-.863-2.98-.102-4.088,1.052-1.529,2.798-2.29,4.96-.804ZM62.139,110.253c1.132.584,2.126.296,2.778-.653.653-.949.565-1.979-.385-2.827l-2.393,3.48Z"/><path d="M58.093,128.795l-.533,1.021-11.595-6.054.533-1.021,11.596,6.054Z"/><path d="M43.596,142.004l-.456,1.212c-.995-.306-1.776.135-2.244,1.377-.428,1.138-.26,2.056.593,2.376.659.248,1.122-.073,1.678-.735l1.325-1.569c.742-.883,1.707-1.494,2.934-1.032,1.497.563,1.8,2.164,1.176,3.825-.642,1.707-1.91,2.58-3.652,1.941l.451-1.197c1.22.391,1.82-.341,2.135-1.179.411-1.093.137-1.862-.552-2.122-.569-.214-1.075.04-1.573.639l-1.325,1.569c-.991,1.182-1.812,1.591-2.964,1.157-1.721-.647-1.946-2.321-1.287-4.072.721-1.916,2.071-2.826,3.762-2.189Z"/><path d="M40.991,151.739c2.765.862,2.911,2.919,2.445,4.415-.4,1.283-1.41,2.694-3.433,2.198l.376-1.207c1.153.226,1.703-.357,1.994-1.289.424-1.359-.087-2.356-1.767-2.88-1.696-.528-2.667.007-3.09,1.366-.291.932-.169,1.724.908,2.193l-.376,1.207c-1.933-.736-1.962-2.522-1.577-3.76.49-1.573,1.786-3.097,4.52-2.244Z"/><path d="M35.659,161.126l-.612,2.452,4.687,1.17.612-2.452,1.04.26-.918,3.678-5.726-1.43-.558,2.234-1.04-.26,1.477-5.912,1.04.26ZM43.951,165.621l-.392,1.567-1.567-.392.392-1.567,1.567.392Z"/><path d="M34.468,171.044l-.219,1.163c-.842-.109-1.415.515-1.688,1.961-.181.959-.124,1.783.615,1.922.833.157,1.151-.841,1.744-2.259.507-1.223,1.122-2.327,2.426-2.082,1.367.258,1.688,1.669,1.379,3.304-.296,1.571-1.079,2.791-2.737,2.608l.219-1.163c.991.008,1.317-.858,1.474-1.691.201-1.068.059-1.697-.491-1.801-.817-.154-1.155,1.035-1.668,2.289-.538,1.299-1.15,2.307-2.471,2.058-1.509-.284-1.846-1.779-1.523-3.493.349-1.854,1.261-3.065,2.939-2.815Z"/><path d="M32.696,181.001l-.153,1.174c-.847-.062-1.384.595-1.574,2.055-.125.968-.022,1.788.724,1.886.841.108,1.102-.906,1.613-2.356.437-1.251.988-2.39,2.305-2.219,1.38.18,1.781,1.571,1.566,3.222-.206,1.587-.918,2.85-2.585,2.762l.153-1.174c.991-.049,1.267-.933,1.376-1.774.14-1.079-.038-1.699-.593-1.771-.825-.107-1.095,1.1-1.536,2.382-.463,1.328-1.018,2.369-2.351,2.196-1.523-.197-1.945-1.673-1.721-3.402.243-1.872,1.085-3.135,2.775-2.979Z"/><path d="M32.771,190.968c2.841.203,3.524,2.081,3.41,3.677-.115,1.597-1.054,3.294-3.848,3.094-2.857-.205-3.539-2.099-3.426-3.679.115-1.612,1.086-3.291,3.863-3.092ZM32.392,196.475c1.756.126,2.64-.564,2.738-1.938.099-1.372-.678-2.182-2.434-2.308-1.739-.125-2.639.564-2.738,1.938-.098,1.372.694,2.184,2.434,2.308Z"/><path d="M29.737,201.325l-.029,1.807,4.829.079.029-1.808,1.072.018-.047,2.862-1.583-.025c.699.299,1.728.987,1.704,2.459-.009.544-.161,1.037-.244,1.212l-1.295-.021c.099-.206.219-.668.227-1.18.02-1.216-.593-1.897-1.115-2.273l-3.598-.059-.049,3.022-1.071-.018.099-6.093,1.071.018Z"/><path d="M30.822,211.259l.049,1.184c-.846.083-1.264.82-1.204,2.292.04.976.281,1.767,1.032,1.735.848-.035.933-1.079,1.191-2.596.219-1.307.569-2.522,1.896-2.577,1.392-.057,2.021,1.247,2.09,2.91.065,1.599-.423,2.965-2.081,3.161l-.048-1.184c.968-.216,1.091-1.134,1.056-1.981-.045-1.088-.325-1.669-.885-1.646-.832.034-.893,1.27-1.11,2.608-.231,1.387-.602,2.507-1.945,2.562-1.535.062-2.201-1.319-2.272-3.062-.077-1.887.539-3.273,2.231-3.407Z"/><path d="M40.901,233.799l.185,1.137-12.918,2.097-.185-1.137,12.918-2.097Z"/><path d="M43.535,251.766l.371,1.274-4.072,1.186,5.118,2.41.447,1.537-4.583-2.233-3.994,5.062-.465-1.599,3.326-4.034-1.417-.688-3.027.881-.371-1.275,8.666-2.521Z"/><path d="M44.426,261.762l.353.995-.875.31c.58.151,1.372.617,1.789,1.793.39,1.101.287,2.393-1.898,3.167l-4.041,1.431-.422-1.19,3.784-1.341c1.236-.438,1.865-.915,1.458-2.061-.315-.89-.913-1.237-1.265-1.368l-5.036,1.784-.422-1.191,6.573-2.328Z"/><path d="M42.305,273.088l.981,2.331,4.456-1.875-.981-2.332.988-.416,1.472,3.497-5.445,2.292.895,2.125-.989.416-2.366-5.622.989-.416ZM51.643,271.711l.627,1.49-1.49.627-.627-1.49,1.49-.627Z"/><path d="M46.366,282.435l.874,1.781,4.336-2.129-.875-1.781.962-.472.874,1.78.029-.015c1.953-.958,3.648-.009,4.741,2.217l-.962.473c-.627-1.278-1.643-2.33-3.222-1.555l-.029.014,1.241,2.527-.962.473-1.241-2.527-4.336,2.129,1.241,2.527-.962.473-2.671-5.442.962-.473Z"/><path d="M52.874,290.044c2.424-1.367,4.062-.253,4.856,1.154.77,1.365.936,3.384-1.502,4.759l-.223.126-2.719-4.82c-1.292.802-1.663,1.838-.948,3.105.542.961,1.322,1.366,2.167,1.073l.628,1.114c-1.757.661-3.056-.534-3.716-1.705-.912-1.615-.828-3.518,1.458-4.807ZM56.204,294.483c1.022-.76,1.2-1.778.634-2.781s-1.53-1.378-2.709-.896l2.075,3.678Z"/><path d="M71.091,306.28l.683.929-10.547,7.751-.682-.929,10.547-7.751Z"/><path d="M81.599,321.074l4.076,4.337-.828.777-3.166-3.369-2.191,2.06,2.771,2.95-.828.777-2.772-2.949-2.728,2.563-.91-.968,6.575-6.179Z"/><path d="M84.123,331.735c1.961-2.064,3.845-1.399,5.004-.298s1.874,2.904-.054,4.934c-1.972,2.076-3.868,1.4-5.016.311-1.171-1.113-1.852-2.929.065-4.946ZM88.135,335.524c1.212-1.275,1.24-2.396.243-3.344-.998-.947-2.115-.862-3.327.413-1.201,1.265-1.24,2.396-.242,3.344.997.948,2.126.851,3.327-.413Z"/><path d="M90.188,340.644l1.843,1.562,5.224-6.164-1.843-1.562.683-.806,2.808,2.38-5.907,6.97,1.843,1.562-.693.818-4.651-3.942.693-.817Z"/><path d="M99.213,344.995c1.531-2.033,3.295-2.087,4.522-1.163.844.636,1.102,1.491,1.13,1.933l2.368-3.146,1.01.761-6.143,8.158-.844-.636.54-.716c-.583.162-1.518.18-2.452-.523-1.189-.896-1.72-2.558-.132-4.668ZM102.054,349.499l2.272-3.019c-.076-.537-.343-1.14-.957-1.603-1.1-.827-2.208-.34-3.133.888s-1.086,2.428.013,3.256c.614.462,1.267.553,1.805.478Z"/><path d="M106.234,353.164l2.103,1.403,2.682-4.019-2.102-1.402.595-.892,3.154,2.104-3.277,4.91,1.916,1.278-.595.892-5.069-3.384.595-.892ZM113.261,346.872l1.344.897-.897,1.344-1.344-.897.897-1.344Z"/><path d="M117.935,353.732l.911.534-.47.801c.541-.258,1.448-.412,2.524.221,1.007.591,1.76,1.646.585,3.646l-2.172,3.697-1.089-.641,2.034-3.462c.664-1.131.838-1.901-.21-2.517-.814-.479-1.496-.359-1.849-.232l-2.707,4.607-1.089-.641,3.532-6.014Z"/><path d="M122.65,365.095l1.096.562c-.438.89-.208,1.564.916,2.141,1.48.759,2.038.092,2.498-.806l.423-.825c-.416.146-1.254.273-2.194-.208-1.396-.715-2.117-2.288-.972-4.523,1.16-2.264,2.901-2.575,4.253-1.883,1.011.518,1.439,1.402,1.526,1.968l.408-.797.939.481-3.304,6.449c-.81,1.58-2.017,2.076-4.038,1.041-1.452-.744-2.443-1.827-1.553-3.6ZM128.013,365.327l1.677-3.274c-.188-.581-.576-1.086-1.202-1.407-1.225-.627-2.239.021-2.925,1.359-.686,1.338-.619,2.541.606,3.168.626.321,1.263.342,1.844.154Z"/><path d="M145.99,365.3l2.627.966c1.802.663,2.722,2.008,2.192,3.449-.32.87-.97,1.245-1.842,1.3.647.511,1.222,1.404.808,2.53-.542,1.472-2.201,1.951-4.003,1.289l-2.898-1.066,3.116-8.468ZM144.513,373.161l1.606.591c1.366.503,2.1.039,2.375-.711.31-.841-.114-1.543-1.42-2.023l-1.562-.574-1,2.718ZM145.906,369.376l1.231.453c1.276.47,2.03.321,2.345-.535.282-.766.006-1.498-1.346-1.995l-1.291-.475-.939,2.552Z"/><path d="M153.046,373.703c.826-2.728,2.809-2.979,4.341-2.516,1.532.464,2.98,1.755,2.169,4.437-.83,2.742-2.829,2.99-4.345,2.53-1.547-.468-2.971-1.786-2.165-4.451ZM158.336,375.288c.51-1.686.032-2.7-1.286-3.099-1.317-.399-2.278.18-2.789,1.864-.506,1.67-.032,2.7,1.286,3.099,1.318.399,2.284-.194,2.789-1.864Z"/><path d="M164.028,373.248l1.026.248-.218.901c.443-.403,1.266-.813,2.479-.521,1.135.274,2.162,1.065,1.618,3.319l-1.006,4.167-1.228-.296.942-3.903c.308-1.274.251-2.062-.931-2.347-.917-.222-1.536.09-1.836.313l-1.253,5.193-1.229-.297,1.637-6.779Z"/><path d="M172.463,378.785c.494-2.74,2.398-3.291,3.988-3.005,1.543.278,3.204,1.439,2.707,4.195l-.045.252-5.448-.982c-.207,1.508.354,2.454,1.787,2.712,1.087.196,1.896-.146,2.21-.983l1.26.228c-.613,1.775-2.363,2.013-3.686,1.774-1.827-.329-3.238-1.608-2.773-4.19ZM178.008,379.052c.067-1.272-.604-2.061-1.738-2.265s-2.037.3-2.419,1.515l4.157.75Z"/><path d="M196.572,375.121l1.15.067-.762,13.068-1.15-.067.761-13.068Z"/></svg>