<?xml version="1.0" encoding="UTF-8"?><svg id="Layer_1" xmlns="http://www.w3.org/2000/svg" width="7.67in" height="7.67in" viewBox="0 0 552.25 552.25"><defs><style>.cls-1{fill:#f1f2f2;opacity:.5;stroke:#231f20;stroke-miterlimit:10;stroke-width:.25px;}</style></defs><path class="cls-1" d="M276.125.125C123.694.125.125,123.694.125,276.125s123.569,276,276,276,276-123.569,276-276S428.556.125,276.125.125ZM276.125,483.125c-114.323,0-207-92.677-207-207s92.677-207,207-207,207,92.677,207,207-92.677,207-207,207Z"/><path d="M319.052,515.463c-.701-3.532.32-6.1,3.518-6.734,2.688-.533,4.397.475,5.033,3.061l-2.198.436c-.398-1.287-1.111-1.9-2.465-1.632-2.198.436-2.009,2.52-1.631,4.423.448,2.257,1.112,3.858,3.29,3.427.942-.188,1.527-.731,1.846-1.182l-.393-1.982-2.354.467-.334-1.688,4.494-.891,1.218,6.142-1.845.366-.237-1.197c-.319.654-1.058,1.657-2.667,1.977-3.081.611-4.646-1.832-5.272-4.991Z"/><path d="M331.821,514.204c-.867-3.433,1.147-5.097,3.261-5.631,2.192-.554,4.677-.026,5.534,3.368l.118.465-6.71,1.695c.436,1.479,1.402,2.204,3.07,1.782,1.145-.288,1.822-.955,1.767-1.828l2.133-.539c.151,2.314-1.67,3.517-3.532,3.987-2.482.627-4.827-.081-5.64-3.3ZM338.233,511.491c-.507-1.275-1.619-1.593-2.744-1.309s-1.953,1.092-1.794,2.454l4.538-1.146Z"/><path d="M343.94,511.007c-1.051-3.4.986-5.139,2.992-5.759,2.14-.662,4.657-.372,5.72,3.066,1.045,3.382-.985,5.14-2.992,5.76-2.14.661-4.663.353-5.72-3.067ZM350.57,508.959c-.585-1.892-1.666-2.478-3.118-2.029-1.452.449-2.013,1.544-1.429,3.435.579,1.872,1.666,2.479,3.118,2.029,1.452-.448,2.008-1.562,1.429-3.435Z"/><path d="M354.126,503.163l1.521-.558.434,1.184c.089-.63.361-1.688,1.545-2.122.977-.357,1.755.082,2.158.658.081-.477.377-1.587,1.542-2.014,1.296-.475,2.228.44,2.833,2.094l2.099,5.729-1.784.653-1.982-5.409c-.372-1.015-.711-1.359-1.237-1.166-.507.186-.746.698-.892,1.114l2.25,6.143-1.784.653-1.982-5.409c-.372-1.015-.711-1.359-1.237-1.166-.507.186-.764.706-.91,1.121l2.25,6.143-1.785.653-3.042-8.302Z"/><path d="M367.683,502.853c-1.388-3.257.344-5.213,2.35-6.068,2.08-.886,4.617-.75,5.989,2.471l.188.441-6.367,2.714c.659,1.394,1.727,1.96,3.31,1.286,1.086-.463,1.652-1.227,1.462-2.08l2.024-.863c.508,2.263-1.105,3.733-2.872,4.486-2.355,1.004-4.782.668-6.084-2.387ZM373.598,499.179c-.699-1.181-1.847-1.322-2.914-.867s-1.76,1.381-1.392,2.703l4.306-1.836Z"/><path d="M381.663,497.336l-1.482-3.038-2.535,1.237-.746-1.528,2.534-1.237-1.798-3.685,1.923-.938,1.798,3.685,3.9-1.903.746,1.527-3.9,1.904,1.447,2.966c.729,1.491,1.271,1.872,2.601,1.224.737-.36,1.341-.855,1.784-1.361l.754,1.546c-.452.533-1.102,1.117-2.163,1.635-2.049,1-3.514.735-4.865-2.032Z"/><path d="M392.199,494.371l1.906-1.057-2.645-4.773-1.906,1.056-.824-1.486,3.533-1.957.969,1.749c-.143-1.041.036-2.534,1.557-3.377.577-.32,1.179-.471,1.636-.473l1.046,1.889c-.511-.014-1.183.176-1.69.457-1.224.678-1.62,1.696-1.723,2.417l1.918,3.462,3.252-1.802.814,1.469-7.03,3.896-.813-1.469Z"/><path d="M403.231,488.121l2.613-1.629-2.887-4.632-2.613,1.628-.899-1.442,4.429-2.76,3.786,6.074,2.393-1.49.888,1.425-6.821,4.251-.888-1.425ZM399.704,477.055l2.223-1.386,1.28,2.054-2.223,1.385-1.279-2.053Z"/><path d="M411.933,479.367c-2.08-2.985-.639-5.184,1.166-6.44,1.624-1.132,3.869-1.721,5.6.484l-1.771,1.234c-.875-1.047-1.816-.928-2.784-.254-1.279.892-1.538,2.095-.406,3.719,1.143,1.641,2.35,1.799,3.646.896.952-.663,1.4-1.487.722-2.671l1.771-1.234c1.446,2.354.078,4.308-1.514,5.416-1.821,1.269-4.372,1.804-6.429-1.149Z"/><path d="M468.505,415.226l4.629-6.621,1.541,1.078-3.357,4.801,2.704,1.892,2.911-4.163,1.541,1.077-2.911,4.163,3.589,2.509-1.272,1.819-9.374-6.555Z"/><path d="M480.992,409.47c-3.018-1.888-2.612-4.535-1.498-6.314,1.188-1.898,3.282-3.324,6.334-1.416,3,1.877,2.611,4.535,1.498,6.315-1.188,1.898-3.299,3.313-6.334,1.415ZM484.672,403.587c-1.678-1.05-2.88-.787-3.686.501-.806,1.289-.516,2.484,1.162,3.534,1.662,1.039,2.88.787,3.687-.501.806-1.288.499-2.494-1.163-3.534Z"/><path d="M490.239,399.638l1.06-1.904-4.77-2.654-1.06,1.905-1.485-.826,1.963-3.529,1.748.972c-.671-.809-1.31-2.17-.464-3.689.321-.577.752-1.023,1.139-1.266l1.887,1.05c-.441.258-.911.774-1.193,1.28-.681,1.224-.478,2.297-.185,2.964l3.459,1.924,1.808-3.249,1.468.816-3.907,7.023-1.468-.816Z"/><path d="M489.503,386.089l.714-1.455,1.132.556c-.371-.517-.906-1.47-.35-2.602.459-.934,1.325-1.155,2.015-1.017-.271-.4-.824-1.408-.277-2.521.608-1.239,1.915-1.222,3.496-.445l5.478,2.689-.838,1.706-5.172-2.54c-.97-.476-1.453-.49-1.7.013-.238.484-.055,1.021.126,1.422l5.873,2.884-.838,1.706-5.172-2.54c-.97-.477-1.453-.49-1.7.013-.238.484-.064,1.038.118,1.439l5.873,2.884-.838,1.706-7.938-3.897Z"/><path d="M500.62,376.981l.827-1.931c.896.297,1.641-.429,2.169-1.66.48-1.122.692-2.075-.062-2.398-.809-.347-1.465.83-2.46,2.341-.953,1.463-2.066,2.793-3.776,2.061-1.673-.717-1.65-2.752-.792-4.756.858-2.005,2.124-3.486,4.228-2.76l-.827,1.931c-.938-.249-1.523.61-1.885,1.456-.48,1.121-.527,1.841.024,2.077.735.315,1.282-.604,2.421-2.401.885-1.405,2.058-2.773,3.731-2.058,1.967.843,1.834,2.983.858,5.264-.929,2.169-2.428,3.638-4.456,2.835Z"/><path d="M511.66,288.868l.073-1.438,16.338.823-.072,1.438-16.339-.824Z"/><path d="M509.701,208.24c-3.513,1.095-6.154.348-7.124-2.764-.976-3.131.733-5.172,4.188-6.249,3.474-1.083,6.148-.366,7.124,2.765.97,3.111-.695,5.159-4.188,6.248ZM507.496,201.367c-1.928.601-3.779,1.45-3.118,3.569.661,2.118,2.666,1.766,4.594,1.165,1.89-.59,3.779-1.45,3.118-3.569s-2.704-1.754-4.594-1.165Z"/><path d="M509.395,194.289l-.755-2.046-5.124,1.892.755,2.046-1.595.589-1.399-3.791,1.877-.693c-1.051-.017-2.501-.42-3.104-2.053-.229-.619-.287-1.238-.219-1.689l2.027-.748c-.092.503-.006,1.196.194,1.74.485,1.314,1.433,1.859,2.13,2.072l3.716-1.372-1.289-3.491,1.577-.582,2.785,7.545-1.576.582Z"/><path d="M507.064,181.921l-.812-1.893c.932-.465,1.349-1.166.749-2.562-.726-1.69-1.713-1.506-2.797-1.04l-1.157.496c.57.213,1.455.703,1.991,1.952.812,1.893.215,3.998-2.577,5.197-2.811,1.207-4.809.15-5.598-1.687-.568-1.323-.301-2.525.103-3.156l-1.047.45-.734-1.709,8.341-3.581c2.187-.938,3.843-.171,4.995,2.512.773,1.8,1.074,3.868-1.456,5.021ZM501.705,177.499l-3.527,1.515c-.223.597-.283,1.318.049,2.09.607,1.415,1.878,1.587,3.348.956s2.201-1.663,1.594-3.078c-.331-.771-.877-1.233-1.463-1.482Z"/><path d="M499.415,171.539c-1.83.899-3.117-.495-3.92-2.128-.406-.826-.694-1.775-.78-2.312l-.646.317c-1.023.503-1.742,1.079-1.019,2.551.547,1.112,1.313,1.538,2.246,1.079l.891,1.812c-2.171,1.067-3.78-.348-4.724-2.268-1.014-2.063-.814-3.878,1.411-4.972l3.284-1.613c.305-.15.36-.311.201-.634-.105-.216-.318-.512-.478-.701l1.274-.626c.302.252.781.774,1.072,1.366.494,1.005.115,1.548-.478,1.839l-.144.07c.724.157,1.891.675,2.694,2.308.759,1.544.694,3.135-.885,3.911ZM496.905,166.022l-1.005.494c.078.385.368,1.155.703,1.838.52,1.059,1.062,1.661,1.815,1.291.61-.3.659-.881.227-1.76-.494-1.005-1.223-1.627-1.74-1.863Z"/><path d="M487.738,162.837l-.905-1.625,1.048-.584c-.711-.085-1.827-.402-2.557-1.712-.818-1.468-.909-3.111,1.589-4.503l4.77-2.658,1.042,1.869-4.403,2.453c-1.258.701-1.793,1.343-1.16,2.479.467.839,1.062,1.126,1.614,1.253l5.643-3.145,1.042,1.87-7.723,4.303Z"/><path d="M476.719,152.015l-1.391-2.221,2.051-1.285,1.391,2.221-2.051,1.285ZM487.782,148.46l-1.635-2.61-4.628,2.898,1.635,2.611-1.441.902-2.772-4.425,6.069-3.802-1.498-2.391,1.424-.892,4.27,6.814-1.424.893Z"/><path d="M479.008,139.785c-2.98,2.088-5.182.652-6.444-1.148-1.136-1.621-1.732-3.864.468-5.602l1.239,1.769c-1.044.878-.922,1.818-.246,2.784.895,1.277,2.099,1.532,3.72.396,1.637-1.147,1.792-2.354.886-3.647-.666-.95-1.492-1.396-2.674-.715l-1.239-1.768c2.352-1.453,4.308-.09,5.421,1.499,1.273,1.817,1.815,4.367-1.131,6.433Z"/><path d="M414.713,83.379l-6.633-4.617,1.074-1.543,4.811,3.349,1.886-2.709-4.17-2.903,1.075-1.543,4.17,2.902,2.503-3.596,1.823,1.269-6.538,9.392Z"/><path d="M408.927,70.906c-1.882,3.022-4.532,2.622-6.315,1.512-1.902-1.185-3.333-3.277-1.43-6.334,1.872-3.006,4.532-2.622,6.315-1.512,1.902,1.184,3.322,3.294,1.43,6.334ZM403.034,67.236c-1.047,1.682-.782,2.884.509,3.688,1.291.804,2.486.511,3.533-1.171,1.036-1.664.782-2.883-.509-3.687-1.291-.804-2.497-.494-3.533,1.17Z"/><path d="M399.071,61.687l-1.908-1.055-2.641,4.778,1.908,1.054-.822,1.488-3.535-1.954.967-1.751c-.807.674-2.167,1.316-3.689.475-.578-.319-1.025-.75-1.269-1.136l1.044-1.89c.259.44.777.909,1.285,1.189,1.225.678,2.299.471,2.964.176l1.916-3.465-3.255-1.8.812-1.47,7.036,3.889-.812,1.471Z"/><path d="M385.522,62.452l-1.456-.71.553-1.133c-.515.372-1.467.909-2.6.355-.935-.456-1.158-1.321-1.021-2.012-.4.272-1.405.828-2.52.284-1.24-.605-1.226-1.912-.454-3.494l2.676-5.482,1.708.834-2.527,5.177c-.474.971-.487,1.454.016,1.699.485.237,1.021.053,1.421-.13l2.869-5.878,1.708.834-2.527,5.177c-.474.971-.487,1.454.017,1.699.485.237,1.038.062,1.439-.121l2.869-5.878,1.708.834-3.878,7.944Z"/><path d="M376.405,51.371l-1.932-.822c.294-.896-.433-1.64-1.666-2.164-1.123-.478-2.076-.688-2.397.066-.344.811.833,1.464,2.346,2.454,1.465.949,2.797,2.06,2.069,3.771-.712,1.675-2.748,1.657-4.753.804-2.006-.854-3.49-2.115-2.769-4.221l1.932.822c-.247.938.613,1.521,1.459,1.882,1.123.478,1.842.522,2.077-.029.313-.736-.607-1.28-2.407-2.415-1.407-.881-2.778-2.051-2.066-3.726.837-1.969,2.978-1.841,5.26-.87,2.171.924,3.644,2.419,2.845,4.448Z"/><path d="M288.261,40.559l-1.438-.067.774-16.339,1.438.068-.773,16.338Z"/><path d="M208.546,48.497l-3.204,1.007c-2.728.858-4.984.414-5.781-2.122-.492-1.564.203-3.02,1.362-3.866l-4.447-3.212,2.594-.816,3.812,2.993,1.316-.413-1.2-3.814,2.117-.666,3.43,10.91ZM204.738,43.784l-1.087.342c-1.697.533-2.281,1.408-1.916,2.572.366,1.163,1.346,1.547,3.043,1.013l1.087-.342-1.127-3.585Z"/><path d="M194.356,43.5c.711,1.911-.806,3.052-2.511,3.687-.862.32-1.836.513-2.379.544l.251.675c.397,1.067.899,1.841,2.435,1.27,1.162-.433,1.662-1.152,1.299-2.126l1.893-.705c.844,2.268-.725,3.727-2.73,4.473-2.155.802-3.939.421-4.804-1.903l-1.276-3.429c-.118-.318-.272-.389-.61-.264-.225.084-.541.266-.745.405l-.495-1.33c.282-.275.849-.7,1.467-.93,1.049-.391,1.551.041,1.781.659l.056.15c.229-.704.861-1.814,2.566-2.449,1.611-.6,3.188-.375,3.802,1.273ZM188.616,45.444l.39,1.05c.391-.039,1.187-.25,1.899-.516,1.105-.411,1.759-.889,1.467-1.676-.237-.638-.811-.744-1.729-.402-1.049.391-1.741,1.054-2.028,1.544Z"/><path d="M184.524,54.242l-1.708.738-.476-1.102c-.155.699-.583,1.777-1.959,2.372-1.542.667-3.186.593-4.321-2.032l-2.166-5.011,1.964-.85,2,4.626c.571,1.322,1.156,1.919,2.349,1.403.881-.381,1.226-.944,1.408-1.48l-2.562-5.929,1.964-.85,3.507,8.113Z"/><path d="M171.934,54.971c1.448,2.923.456,4.932-1.265,5.784-1.255.622-2.364.367-2.864.169l2.229,4.5-1.918.95-5.746-11.601,1.667-.825.515,1.04c.137-.761.669-1.851,2.014-2.517,1.757-.87,3.921-.424,5.368,2.499ZM165.336,55.94l1.83,3.693c.554.172,1.314.22,2.121-.18,1.363-.676,1.43-1.981.675-3.506-.755-1.523-1.834-2.262-3.197-1.587-.807.4-1.229,1.034-1.429,1.579Z"/><path d="M160.709,60.625c1.741,3.104.114,5.231-1.717,6.259-1.953,1.096-4.475,1.341-6.236-1.799-1.731-3.087-.114-5.231,1.717-6.259,1.954-1.096,4.485-1.323,6.236,1.799ZM154.657,64.019c.968,1.728,2.148,2.074,3.474,1.33,1.325-.743,1.645-1.931.677-3.657-.958-1.709-2.149-2.073-3.474-1.33-1.326.743-1.635,1.948-.677,3.657Z"/><path d="M152.415,70.427l-1.371.863-.672-1.066c.044.635,0,1.727-1.066,2.398-.88.555-1.733.288-2.249-.19.021.483-.036,1.63-1.085,2.292-1.167.735-2.271.036-3.209-1.453l-3.253-5.161,1.608-1.014,3.072,4.874c.576.913.979,1.179,1.454.88.457-.287.582-.839.638-1.276l-3.488-5.533,1.607-1.014,3.072,4.874c.576.913.98,1.179,1.454.881.457-.288.599-.851.655-1.288l-3.488-5.533,1.607-1.014,4.714,7.48Z"/><path d="M90.366,128.311l-4.932,6.399-1.489-1.147,3.577-4.642-2.613-2.014-3.101,4.023-1.489-1.147,3.101-4.023-3.469-2.674,1.355-1.758,9.06,6.982Z"/><path d="M77.629,133.49c2.928,2.026,2.4,4.652,1.205,6.38-1.275,1.842-3.434,3.17-6.395,1.121-2.912-2.016-2.399-4.653-1.205-6.38,1.275-1.843,3.451-3.159,6.395-1.121ZM73.679,139.198c1.628,1.127,2.842.92,3.707-.33.865-1.25.631-2.458-.998-3.585-1.612-1.116-2.841-.921-3.707.329s-.614,2.47.998,3.586Z"/><path d="M67.941,142.881l-1.147,1.854,4.645,2.875,1.148-1.854,1.446.895-2.126,3.437-1.702-1.053c.634.839,1.208,2.23.292,3.71-.348.562-.799.988-1.197,1.213l-1.837-1.138c.453-.237.947-.731,1.252-1.225.737-1.191.584-2.274.322-2.954l-3.369-2.084-1.958,3.164-1.429-.885,4.232-6.839,1.429.884Z"/><path d="M68.045,156.455l-.78,1.42-1.104-.606c.346.533.837,1.51.23,2.614-.5.911-1.376,1.093-2.059.923.252.413.759,1.443.162,2.531-.665,1.209-1.968,1.132-3.511.285l-5.348-2.937.915-1.666,5.049,2.773c.947.52,1.429.556,1.698.065.26-.474.102-1.017-.062-1.426l-5.733-3.148.915-1.666,5.049,2.773c.947.52,1.429.556,1.698.065.26-.474.112-1.034-.052-1.443l-5.733-3.148.915-1.666,7.75,4.256Z"/><path d="M56.528,165.029l-.915,1.891c-.881-.338-1.659.353-2.243,1.559-.531,1.099-.788,2.041-.049,2.398.792.383,1.502-.763,2.565-2.226,1.02-1.418,2.193-2.694,3.867-1.884,1.639.793,1.522,2.825.572,4.788-.95,1.962-2.282,3.384-4.351,2.561l.915-1.891c.925.293,1.549-.538,1.95-1.367.532-1.098.612-1.814.072-2.076-.72-.349-1.308.545-2.529,2.287-.948,1.363-2.184,2.677-3.822,1.884-1.927-.933-1.695-3.064-.614-5.297,1.028-2.125,2.593-3.522,4.582-2.627Z"/><path d="M41.423,252.536l-.137,1.434-16.289-1.56.137-1.434,16.289,1.56Z"/><path d="M45.483,332.539l2.041,7.816-1.819.475-1.48-5.669-3.192.834,1.283,4.914-1.819.475-1.283-4.914-4.237,1.105-.561-2.147,11.067-2.889Z"/><path d="M41.783,345.788c3.393-1.078,5.147.945,5.784,2.946.679,2.135.409,4.654-3.021,5.744-3.373,1.072-5.147-.944-5.783-2.945-.679-2.135-.39-4.66,3.021-5.745ZM43.885,352.401c1.887-.6,2.465-1.686,2.004-3.134s-1.559-2.002-3.446-1.402c-1.868.594-2.465,1.687-2.004,3.135s1.579,1.995,3.446,1.401Z"/><path d="M44.928,358.718l5.111-1.921.752,2.004-4.718,1.772c-1.348.507-1.973,1.062-1.516,2.278.338.899.883,1.271,1.41,1.479l6.047-2.271.753,2.003-8.275,3.109-.654-1.741,1.124-.422c-.691-.189-1.747-.669-2.274-2.073-.591-1.572-.438-3.211,2.24-4.217Z"/><path d="M54.481,368.297l.742,1.706-1.101.479c.7.153,1.779.578,2.377,1.954.67,1.54.601,3.185-2.022,4.326l-5.007,2.179-.854-1.963,4.622-2.011c1.32-.574,1.916-1.161,1.397-2.354-.383-.88-.947-1.224-1.484-1.404l-5.924,2.577-.854-1.962,8.107-3.527Z"/><path d="M55.237,380.88c2.917-1.455,4.929-.469,5.786,1.249.625,1.253.373,2.362.176,2.863l4.493-2.241.955,1.915-11.581,5.775-.83-1.664,1.038-.518c-.76-.135-1.851-.664-2.521-2.007-.875-1.754-.434-3.918,2.483-5.373ZM56.223,387.474l3.687-1.839c.17-.555.216-1.314-.186-2.12-.678-1.36-1.984-1.425-3.505-.666s-2.256,1.841-1.578,3.201c.402.805,1.037,1.227,1.582,1.424Z"/><path d="M110.513,446.191l5.881,5.542-1.29,1.368-4.265-4.02-2.263,2.402,3.697,3.483-1.29,1.369-3.697-3.484-3.004,3.188-1.616-1.522,7.847-8.326Z"/><path d="M114.38,459.369c2.306-2.711,4.866-1.925,6.464-.564,1.706,1.451,2.812,3.73.479,6.472-2.293,2.695-4.865,1.925-6.464.564-1.706-1.451-2.798-3.746-.479-6.472ZM119.664,463.864c1.283-1.508,1.198-2.734.041-3.719-1.158-.985-2.382-.872-3.665.636-1.27,1.492-1.198,2.734-.04,3.719,1.157.985,2.395.856,3.665-.636Z"/><path d="M122.751,469.932l1.729,1.325,3.32-4.332-1.73-1.325,1.034-1.35,3.206,2.457-1.216,1.587c.897-.547,2.338-.979,3.718.078.524.401.902.894,1.086,1.312l-1.313,1.714c-.191-.475-.633-1.015-1.094-1.367-1.111-.852-2.203-.807-2.905-.614l-2.408,3.143,2.952,2.262-1.022,1.333-6.379-4.889,1.021-1.333Z"/><path d="M136.285,471.198l1.335.918-.714,1.038c.565-.291,1.586-.682,2.624.033.857.589.949,1.479.712,2.141.436-.21,1.513-.61,2.535.093,1.137.782.929,2.071-.068,3.521l-3.458,5.026-1.566-1.077,3.265-4.746c.612-.89.697-1.365.235-1.683-.445-.307-1.001-.203-1.424-.082l-3.708,5.389-1.565-1.077,3.265-4.746c.612-.89.697-1.365.235-1.683-.445-.307-1.018-.215-1.441-.094l-3.707,5.389-1.566-1.077,5.011-7.283Z"/><path d="M143.666,483.515l1.788,1.101c-.424.843.183,1.687,1.324,2.389,1.039.64,1.95.989,2.38.291.461-.749-.606-1.57-1.954-2.776-1.308-1.156-2.459-2.452-1.484-4.036.954-1.55,2.963-1.229,4.82-.086,1.856,1.143,3.136,2.611,2.108,4.586l-1.788-1.101c.384-.892-.38-1.596-1.163-2.078-1.039-.64-1.744-.792-2.058-.281-.419.682.41,1.356,2.02,2.746,1.26,1.081,2.442,2.442,1.488,3.992-1.122,1.822-3.219,1.377-5.331.076-2.009-1.236-3.242-2.935-2.15-4.822Z"/><path d="M229.202,507.327l1.413.28-3.183,16.052-1.413-.28,3.183-16.052Z"/></svg>