<?xml version="1.0" encoding="UTF-8"?><svg id="Layer_1" xmlns="http://www.w3.org/2000/svg" width="9.587in" height="9.587in" viewBox="0 0 690.25 690.25"><defs><style>.cls-1{fill:#f1f2f2;opacity:.5;stroke:#231f20;stroke-miterlimit:10;stroke-width:.25px;}</style></defs><path class="cls-1" d="M345.125.125C154.587.125.125,154.587.125,345.125s154.462,345,345,345,345-154.462,345-345S535.663.125,345.125.125ZM345.125,621.125c-152.431,0-276-123.569-276-276S192.694,69.125,345.125,69.125s276,123.569,276,276-123.569,276-276,276Z"/><path d="M392.715,645.669l3.253-.552c3.647-.618,5.024,1.521,5.562,4.695.555,3.272-.089,5.815-3.677,6.424l-3.253.552-1.885-11.119ZM395.999,655.111l1.617-.273c2.72-.462,2.533-2.884,2.232-4.658-.304-1.794-.922-4.123-3.643-3.662l-1.617.274,1.41,8.319Z"/><path d="M406.8,653.172l2.7-.57-1.745-8.255-2.7.57-.293-1.389,7.003-1.48.293,1.389-2.68.566,1.745,8.256,2.68-.566.293,1.389-7.003,1.48-.294-1.39Z"/><path d="M418.125,648.836l1.569-.399c.398,1.24,1.409,1.726,3.017,1.316,1.473-.374,2.294-1.202,2.013-2.307-.217-.853-.877-1.098-1.955-1.194l-2.557-.237c-1.436-.13-2.752-.683-3.157-2.271-.493-1.938.932-3.394,3.083-3.94,2.209-.562,4.011.114,4.602,2.357l-1.55.395c-.472-1.531-1.65-1.623-2.736-1.347-1.415.359-2.008,1.191-1.781,2.083.188.736.81,1.073,1.78,1.156l2.557.237c1.921.171,2.928.72,3.307,2.212.567,2.229-.989,3.656-3.256,4.232-2.48.631-4.38-.104-4.937-2.293Z"/><path d="M428.597,637.776l2.798-.834c2.779-.827,4.827-.186,5.466,1.961.52,1.744-.261,3.187-1.648,3.996l4.632,3.295-1.993.593-4.207-3.129-1.438.429,1.198,4.024-1.59.474-3.219-10.809ZM431.814,642.764l1.227-.365c2.032-.605,2.572-1.663,2.207-2.89-.36-1.208-1.396-1.817-3.428-1.212l-1.227.365,1.221,4.102Z"/><path d="M442.405,641.183l-2.361-6.906,1.57-.537,2.362,6.906c.647,1.892,1.466,2.372,2.961,1.861,1.495-.512,1.849-1.393,1.202-3.285l-2.361-6.906,1.57-.537,2.361,6.906c.944,2.763.179,4.355-2.3,5.203-2.479.848-4.059.057-5.004-2.705Z"/><path d="M451.873,630.115l3.077-1.193c2.61-1.013,4.775-.63,5.65,1.626.875,2.257-.447,3.992-3.076,5.012l-1.529.593,1.504,3.879-1.547.6-4.079-10.516ZM455.482,634.829l1.547-.601c1.977-.767,2.43-1.865,1.967-3.059-.456-1.175-1.539-1.698-3.515-.932l-1.547.6,1.548,3.991Z"/><path d="M466.32,625.8l-3.485,1.516-.567-1.302,8.529-3.711.566,1.302-3.521,1.532,3.935,9.042-1.522.663-3.934-9.042Z"/><path d="M546.095,571.54l1.075-.959,10.896,12.207-1.075.959-10.896-12.207Z"/><path d="M606.698,500.594l3.685-6.351,1.229.713-2.851,4.914,2.941,1.707,2.48-4.274,1.229.713-2.48,4.274,3.132,1.817,2.852-4.914,1.229.713-3.685,6.35-9.759-5.662Z"/><path d="M618.837,490.209l-6.607.743.895-1.697,2.993-.275,2.123-.169-1.051-1.865-1.464-2.625.876-1.662,3.084,5.853,6.983-.771-.895,1.698-3.423.319-2.061.18,1.026,1.784,1.652,3.04-.867,1.645-3.265-6.196Z"/><path d="M619.526,476.657l.774-1.624,11.894,1.262-.774,1.624-2.806-.341-1.894,3.972,2.032,1.965-.757,1.589-8.468-8.446ZM625.664,480.603l1.532-3.214-1.784-.208-3.964-.561,2.932,2.728,1.285,1.255Z"/><path d="M628.394,470.984c-3.328-1.426-4.781-3.723-3.608-6.463.842-1.967,2.544-3.044,5.165-2.053l-.63,1.472c-1.607-.515-2.613-.249-3.188,1.093-1,2.336,1.136,3.598,2.956,4.378,2.096.897,4.192,1.338,5.113-.813.41-.956.317-1.757.039-2.529l-2.298-.984-1.039,2.428-1.269-.544,1.669-3.897,5.589,2.394-.512,1.195-1.14-.488c.373.551.788,1.817.135,3.343-1.205,2.813-4.244,2.644-6.983,1.471Z"/><path d="M633.238,459.476c-3.383-1.287-4.93-3.523-3.87-6.308.761-2.001,2.417-3.146,5.076-2.264l-.569,1.496c-1.627-.448-2.621-.142-3.14,1.223-.903,2.374,1.282,3.548,3.133,4.252,2.131.811,4.243,1.165,5.075-1.022.37-.972.245-1.769-.065-2.528l-2.336-.889-.939,2.468-1.29-.491,1.507-3.963,5.683,2.162-.462,1.215-1.159-.44c.395.535.862,1.782.272,3.334-1.088,2.86-4.131,2.815-6.916,1.756Z"/><path d="M632.538,445.165l2.33-6.961,1.347.45-1.803,5.387,3.224,1.079,1.568-4.685,1.347.45-1.568,4.686,3.433,1.148,1.803-5.387,1.347.451-2.33,6.961-10.697-3.58Z"/><path d="M636.325,433.523l.813-2.805c.808-2.785,2.456-4.161,4.607-3.537,1.748.507,2.54,1.944,2.47,3.549l5.278-2.114-.579,1.997-4.909,1.847-.418,1.441,4.034,1.169-.462,1.595-10.835-3.142ZM642.262,433.516l.356-1.229c.59-2.036-.007-3.063-1.237-3.42-1.21-.351-2.284.191-2.874,2.229l-.356,1.229,4.111,1.191Z"/><path d="M640.275,419.151l.431-1.748,11.909-1.163-.431,1.748-2.818.231-1.054,4.273,2.387,1.517-.421,1.709-10.002-6.567ZM647.086,421.779l.853-3.458-1.79.156-3.998.25,3.422,2.081,1.512.971Z"/><path d="M644.413,407.437l-.76,3.723-1.391-.284,1.859-9.11,1.391.283-.768,3.762,9.659,1.972-.332,1.626-9.659-1.971Z"/><path d="M644.827,397.776l1.176-7.247,1.402.228-.91,5.608,3.356.544.792-4.877,1.402.228-.792,4.877,3.574.58.91-5.607,1.402.228-1.176,7.246-11.136-1.807Z"/><path d="M644.357,298.876l-.222-1.423,16.164-2.521.222,1.423-16.164,2.521Z"/><path d="M623.003,207.706c-3.398,1.745-6.007,1.219-7.396-1.485-.886-1.726-1.099-4.022,1.542-5.491l.731,1.423c-1.404.901-1.659,2.111-.974,3.446,1.161,2.26,3.354,1.582,5.312.577,1.85-.951,3.696-2.349,2.535-4.608-.777-1.512-1.809-1.858-3.341-1.207l-.74-1.44c2.625-1.236,4.421.157,5.372,2.008,1.435,2.793.217,5.105-3.04,6.778Z"/><path d="M617.258,196.627c-3.186,1.802-5.862,1.66-7.358-.986-1.486-2.629-.25-4.913,2.884-6.685,3.187-1.801,5.845-1.649,7.341.996,1.486,2.629.25,4.913-2.866,6.675ZM613.682,190.424c-1.654.935-3.729,2.384-2.509,4.543s3.532,1.128,5.186.192c1.637-.925,3.712-2.374,2.492-4.533-1.22-2.158-3.532-1.127-5.168-.202Z"/><path d="M605.732,188.044l-1.17-1.887,6.344-8.101-2.659,1.86-5.457,3.385-.791-1.274,9.587-5.947,1.17,1.887-6.344,8.102,2.659-1.861,5.456-3.384.791,1.274-9.587,5.946Z"/><path d="M599.188,177.684l-1.245-1.838,6.011-8.347-2.581,1.966-5.314,3.6-.841-1.241,9.337-6.326,1.245,1.838-6.011,8.348,2.581-1.966,5.314-3.601.841,1.242-9.337,6.325Z"/><path d="M597.342,164.927c-2.946,2.172-5.62,2.354-7.424-.092-1.793-2.432-.841-4.848,2.057-6.984,2.946-2.173,5.604-2.344,7.408.104,1.792,2.431.841,4.848-2.041,6.973ZM593.044,159.2c-1.529,1.128-3.416,2.816-1.943,4.812s3.643.693,5.172-.434c1.513-1.116,3.399-2.806,1.927-4.802s-3.643-.693-5.156.423Z"/><path d="M584.283,154.794l2.377,2.966-1.108.888-5.818-7.258,1.108-.889,2.402,2.997,7.696-6.169,1.039,1.296-7.696,6.169Z"/><path d="M577.145,148.315l-4.816-5.538,1.071-.932,3.727,4.286,2.565-2.231-3.241-3.727,1.071-.933,3.241,3.728,2.731-2.375-3.727-4.286,1.071-.932,4.816,5.539-8.511,7.4Z"/><path d="M500.818,85.429l-1.236-.738,8.388-14.042,1.236.738-8.388,14.042Z"/><path d="M414.946,48.927l-2.85-.635c-2.83-.631-4.306-2.188-3.819-4.375.396-1.775,1.78-2.655,3.385-2.687l-2.441-5.133,2.03.452,2.15,4.781,1.464.326.913-4.099,1.62.361-2.453,11.007ZM414.566,43.004l-1.249-.278c-2.069-.461-3.056.199-3.334,1.448-.274,1.229.335,2.267,2.404,2.728l1.249.278.931-4.176Z"/><path d="M402.981,46.377l-7.224-1.305.252-1.397,5.59,1.01.604-3.347-4.862-.878.252-1.397,4.862.878.644-3.562-5.59-1.01.252-1.397,7.224,1.305-2.005,11.102Z"/><path d="M390.911,44.302l-3.268-.453c-2.773-.384-4.478-1.771-4.146-4.168.332-2.396,2.331-3.27,5.124-2.883l1.624.226.571-4.12,1.644.229-1.549,11.17ZM390.05,38.43l-1.644-.229c-2.1-.291-3.03.448-3.206,1.716-.173,1.248.518,2.232,2.618,2.523l1.644.228.587-4.238Z"/><path d="M378.73,42.714l-7.302-.717.139-1.413,5.651.555.332-3.383-4.915-.482.139-1.413,4.915.482.354-3.601-5.651-.555.139-1.413,7.302.717-1.102,11.223Z"/><path d="M363.864,41.474l-1.797-.104-3.321-11.496,1.798.104.743,2.729,4.394.255,1.055-2.624,1.757.102-4.629,11.035ZM365.203,34.296l-3.555-.206.48,1.731.977,3.885,1.42-3.746.678-1.664Z"/><path d="M351.607,39.553l3.801.069-.026,1.421-9.302-.171.026-1.42,3.841.07.181-9.862,1.66.03-.181,9.862Z"/><path d="M256.474,55.57l-1.377.424-4.818-15.64,1.376-.424,4.818,15.64Z"/><path d="M166.223,86.919l-2.249,1.6,4.894,6.878,2.249-1.601.824,1.157-5.834,4.151-.823-1.157,2.233-1.589-4.894-6.877-2.232,1.589-.824-1.157,5.834-4.151.823,1.157Z"/><path d="M161.976,102.166l-1.756,1.358-8.711-5.477,2.125,2.453,3.928,5.079-1.187.918-6.902-8.925,1.756-1.358,8.711,5.478-2.125-2.454-3.928-5.079,1.187-.918,6.902,8.925Z"/><path d="M153.381,108.877l-1.363,1.146-5.471-3.374-3.199-2.067,1.488,3.452,2.401,6.002-1.333,1.119-4.222-11.188,1.41-1.183,10.288,6.093Z"/><path d="M143.037,117.688l-5.426,4.938-.956-1.05,4.199-3.822-2.288-2.513-3.652,3.324-.956-1.05,3.652-3.324-2.436-2.677-4.199,3.822-.956-1.05,5.427-4.939,7.59,8.34Z"/><path d="M134.036,126.02l-2.079,2.05c-2.064,2.035-4.173,2.431-5.746.836-1.278-1.296-1.266-2.936-.422-4.301l-5.636-.732,1.481-1.46,5.183.785,1.067-1.053-2.948-2.989,1.182-1.165,7.917,8.029ZM128.854,123.127l-.911.898c-1.509,1.488-1.489,2.676-.59,3.587.884.897,2.085.948,3.595-.54l.911-.898-3.004-3.047Z"/><path d="M122.506,135.704l2.598-2.774,1.037.971-6.357,6.79-1.037-.971,2.625-2.804-7.199-6.74,1.135-1.212,7.199,6.74Z"/><path d="M70.711,217.091l-.606,1.307-14.841-6.89.606-1.307,14.841,6.89Z"/><path d="M35.853,304.852c.278.032.514.079.708.143l-.185,1.589c-.137-.036-.432-.09-.671-.118-1.49-.173-2.526.433-2.704,1.962-.191,1.649.843,2.453,2.81,2.682l6.874.797-.191,1.649-6.953-.807c-2.901-.336-4.298-1.827-3.992-4.47.29-2.503,2.059-3.688,4.303-3.427Z"/><path d="M34.778,317.619l7.279.546-.124,1.655-7.279-.546c-1.994-.149-2.759.415-2.877,1.99s.554,2.248,2.548,2.397l7.279.546-.124,1.655-7.279-.546c-2.912-.219-4.075-1.549-3.879-4.162.196-2.612,1.545-3.755,4.457-3.536Z"/><path d="M35.632,333.114l5.628-3.545-.067,1.919-2.576,1.551-1.839,1.076,1.758,1.223,2.461,1.728-.066,1.879-5.326-3.93-5.955,3.733.067-1.919,2.944-1.777,1.778-1.059-1.701-1.16-2.811-2.021.065-1.858,5.638,4.16Z"/><path d="M39.475,345.599l-.061-3.801,1.42-.022.149,9.302-1.42.022-.062-3.841-9.862.158-.027-1.66,9.862-.158Z"/><path d="M41.161,357.843l.08,1.798-11.089,4.474-.08-1.797,2.637-1.018-.195-4.395-2.716-.78-.078-1.758,11.441,3.476ZM33.89,357.246l.157,3.555,1.672-.654,3.762-1.367-3.868-1.029-1.723-.504Z"/><path d="M41.688,367.432l.277,3.288c.235,2.79-.743,4.759-3.154,4.962-2.412.203-3.704-1.555-3.94-4.364l-.138-1.634-4.145.349-.14-1.653,11.24-.947ZM36.148,369.565l.14,1.653c.178,2.113,1.104,2.857,2.379,2.75,1.255-.105,2.063-.996,1.886-3.108l-.14-1.654-4.265.359Z"/><path d="M37.054,379.466c3.633-.452,6.054.698,6.43,3.716.374,2.997-1.64,4.639-5.213,5.084-3.633.452-6.034-.7-6.41-3.718-.373-2.997,1.64-4.64,5.193-5.082ZM37.998,386.566c1.886-.234,4.358-.784,4.051-3.246-.307-2.461-2.837-2.388-4.724-2.153-1.866.232-4.337.782-4.031,3.243.307,2.462,2.838,2.389,4.704,2.156Z"/><path d="M36.401,392.46l.266,1.599c-1.27.292-1.839,1.258-1.566,2.896.25,1.5,1.005,2.388,2.13,2.201.868-.145,1.167-.782,1.355-1.848l.451-2.528c.25-1.421.912-2.687,2.53-2.955,1.973-.328,3.304,1.215,3.668,3.404.374,2.249-.452,3.988-2.738,4.389l-.262-1.578c1.565-.342,1.756-1.509,1.573-2.613-.24-1.44-1.019-2.102-1.926-1.951-.75.125-1.138.717-1.303,1.677l-.451,2.528c-.333,1.9-.964,2.856-2.484,3.109-2.269.377-3.561-1.294-3.944-3.602-.42-2.525.472-4.356,2.702-4.728Z"/><path d="M46.544,403.853l1.495,7.185-1.39.289-1.157-5.56-3.328.692,1.006,4.836-1.39.289-1.006-4.836-3.543.737,1.157,5.561-1.39.289-1.495-7.185,11.042-2.298Z"/><path d="M82.554,495.925l.722,1.246-14.154,8.2-.722-1.245,14.154-8.201Z"/><path d="M139.788,569.626l2.46,2.201c2.087,1.866,2.728,3.97,1.114,5.773-1.613,1.805-3.76,1.414-5.862-.467l-1.222-1.094-2.774,3.102-1.237-1.107,7.521-8.408ZM137.225,574.982l1.237,1.107c1.581,1.413,2.765,1.319,3.619.365.84-.939.815-2.142-.765-3.556l-1.237-1.106-2.854,3.189Z"/><path d="M149.002,577.727l2.252,1.858c2.237,1.845,2.847,3.903,1.421,5.631-1.158,1.404-2.791,1.561-4.236.861l-.151,5.683-1.604-1.323.25-5.238-1.157-.954-2.672,3.239-1.281-1.056,7.178-8.701ZM146.655,583.18l.987.814c1.635,1.349,2.815,1.207,3.629.22.802-.972.729-2.172-.906-3.521l-.987-.814-2.724,3.301Z"/><path d="M154.37,589.443c2.214-2.915,4.729-3.844,7.15-2.005,2.405,1.827,2.174,4.415-.004,7.282-2.214,2.915-4.717,3.828-7.138,1.989-2.405-1.827-2.173-4.415-.007-7.267ZM160.11,593.727c1.149-1.513,2.483-3.666.507-5.166-1.975-1.5-3.691.361-4.84,1.875-1.138,1.497-2.471,3.649-.496,5.15,1.975,1.5,3.691-.361,4.829-1.859Z"/><path d="M167.237,591.993l1.46,1.019-1.834,6.158-1.164,3.627,2.946-2.335,5.17-3.88,1.427.996-9.703,6.985-1.509-1.053,3.207-11.518Z"/><path d="M174.634,604.018c1.972-3.083,4.402-4.211,6.962-2.573,2.543,1.626,2.521,4.223.582,7.255-1.972,3.083-4.391,4.194-6.952,2.557-2.543-1.627-2.521-4.224-.593-7.238ZM180.697,607.824c1.023-1.601,2.178-3.852.089-5.188s-3.648.657-4.671,2.258c-1.013,1.583-2.168,3.835-.079,5.171s3.648-.657,4.661-2.241Z"/><path d="M188.814,606.194l1.434.838-2.673,4.577,6.715-2.218,1.727,1.009-6.077,1.918.734,8.025-1.796-1.049-.455-6.52-1.876.596-1.987,3.402-1.434-.837,5.688-9.742Z"/><path d="M199.459,612.29l6.485,3.444-.666,1.255-5.019-2.665-1.595,3.004,4.364,2.317-.666,1.255-4.364-2.318-1.699,3.198,5.018,2.665-.666,1.255-6.485-3.444,5.292-9.966Z"/><path d="M293.267,643.446l1.419.241-2.746,16.127-1.419-.242,2.746-16.126Z"/></svg>