<?xml version="1.0" encoding="UTF-8"?><svg id="Layer_1" xmlns="http://www.w3.org/2000/svg" width="11.503in" height="11.503in" viewBox="0 0 828.25 828.25"><defs><style>.cls-1{fill:#f1f2f2;opacity:.5;stroke:#231f20;stroke-miterlimit:10;stroke-width:.25px;}</style></defs><path class="cls-1" d="M414.125.125C185.479.125.125,185.479.125,414.125s185.354,414,414,414,414-185.354,414-414S642.771.125,414.125.125ZM414.125,759.125c-190.538,0-345-154.462-345-345S223.587,69.125,414.125,69.125s345,154.462,345,345-154.462,345-345,345Z"/><path d="M434.044,787.036l2.86-.175c3.035-.186,4.162,1.462,4.337,4.321.167,2.732-.791,4.635-3.778,4.817l-2.86.175-.559-9.139ZM436.284,794.564l1.086-.066c1.933-.118,2.116-1.588,2.017-3.202-.1-1.629-.459-3.051-2.392-2.933l-1.086.066.375,6.135Z"/><path d="M444.442,794.183l2.456-.214-.379-4.354-2.456.214-.118-1.355,4.162-.362.497,5.709,2.249-.196.117,1.34-6.41.558-.117-1.339ZM445.94,785.007l2.089-.183.168,1.93-2.089.182-.168-1.929Z"/><path d="M454.478,793.261l1.733-.196-.491-4.341-1.733.196-.153-1.352,3.211-.363.18,1.59c.214-.813.804-1.862,2.187-2.02.524-.06,1.016.014,1.354.153l.194,1.717c-.373-.167-.928-.233-1.389-.181-1.113.126-1.718.758-2.016,1.259l.356,3.148,2.958-.335.151,1.335-6.392.724-.151-1.335Z"/><path d="M463.762,789.996c-.395-2.804,1.35-3.954,3.076-4.196,1.79-.252,3.72.381,4.11,3.152l.054.381-5.48.771c.219,1.213.926,1.873,2.288,1.681.935-.131,1.53-.603,1.561-1.302l1.742-.245c-.079,1.853-1.629,2.652-3.15,2.866-2.027.285-3.831-.479-4.201-3.107ZM469.092,788.389c-.294-1.057-1.15-1.404-2.069-1.275-.919.129-1.646.7-1.637,1.797l3.706-.521Z"/><path d="M473.661,788.536c-.48-2.872,1.315-3.967,3.05-4.257,1.562-.262,3.388.082,3.883,2.27l-1.704.285c-.274-1.058-.995-1.293-1.926-1.138-1.23.206-1.83.987-1.568,2.55.264,1.577,1.082,2.105,2.329,1.896.915-.152,1.522-.595,1.438-1.684l1.704-.285c.238,2.198-1.421,3.141-2.951,3.397-1.751.293-3.779-.195-4.254-3.035Z"/><path d="M485.562,786.984l-.519-2.653-2.214.433-.261-1.335,2.214-.433-.628-3.219,1.68-.328.629,3.219,3.407-.666.261,1.335-3.407.666.506,2.591c.255,1.303.595,1.709,1.757,1.482.644-.126,1.213-.384,1.66-.684l.264,1.351c-.459.318-1.082.636-2.009.816-1.79.35-2.867-.157-3.339-2.575Z"/><path d="M494.228,786.942l2.404-.536-.95-4.262-2.404.536-.295-1.327,4.074-.908,1.246,5.589,2.201-.491.292,1.312-6.275,1.398-.292-1.311ZM494.502,777.656l2.044-.456.421,1.889-2.045.456-.421-1.889Z"/><path d="M503.112,782.68c-.692-2.762,1.01-4.063,2.639-4.472,1.738-.436,3.737-.096,4.437,2.697.689,2.747-1.01,4.063-2.639,4.473-1.738.436-3.74.08-4.437-2.698ZM508.496,781.331c-.385-1.536-1.224-2.052-2.403-1.757-1.18.296-1.676,1.146-1.291,2.683.381,1.521,1.224,2.052,2.403,1.756,1.179-.296,1.671-1.161,1.29-2.682Z"/><path d="M512.386,776.656l1.434-.4.258.925c.199-.537.654-1.346,1.81-1.669,1.294-.361,2.59-.125,3.205,2.079l1.175,4.207-1.649.461-1.084-3.884c-.31-1.109-.709-1.646-1.71-1.366-.74.206-1.074.615-1.277,1.021l1.39,4.978-1.649.461-1.902-6.812Z"/><path d="M560.875,756.302l1.411-.609,5.262,12.182-1.411.609-5.262-12.182Z"/><path d="M603.987,735.768l1.521-.916,1.932,3.206,2.275-1.37-1.932-3.206,1.521-.917,4.722,7.838-1.521.916-2.022-3.356-2.274,1.37,2.022,3.357-1.521.916-4.722-7.838Z"/><path d="M616.504,737.28l2.075-1.327-2.354-3.679-2.075,1.328-.732-1.146,3.517-2.25,3.086,4.823,1.899-1.216.724,1.132-5.416,3.466-.724-1.132ZM613.577,728.461l1.765-1.129,1.043,1.63-1.765,1.129-1.043-1.63Z"/><path d="M623.415,730.254c-1.588-2.344-.528-4.145.916-5.122,1.497-1.015,3.509-1.296,5.079,1.022l.215.317-4.583,3.104c.73.993,1.655,1.274,2.794.503.781-.529,1.109-1.215.829-1.856l1.457-.986c.745,1.698-.296,3.099-1.568,3.96-1.695,1.148-3.651,1.256-5.141-.942ZM627.496,726.466c-.729-.82-1.652-.756-2.42-.235s-1.17,1.354-.679,2.335l3.099-2.1Z"/><path d="M633.281,726.123l1.417-1.017-2.545-3.549-1.417,1.016-.792-1.104,2.626-1.884.932,1.301c-.21-.814-.207-2.018.924-2.829.429-.308.894-.483,1.256-.526l1.007,1.403c-.407.036-.924.249-1.301.52-.91.653-1.13,1.5-1.146,2.082l1.846,2.573,2.418-1.733.783,1.092-5.226,3.748-.783-1.092Z"/><path d="M640.805,720.059c-.985-1.302-.085-2.524,1.076-3.403.586-.444,1.289-.815,1.698-.965l-.348-.459c-.55-.728-1.113-1.205-2.159-.413-.791.599-1.009,1.266-.506,1.929l-1.289.976c-1.168-1.543-.302-3.022,1.063-4.056,1.467-1.111,2.923-1.229,4.121.352l1.767,2.335c.165.217.299.235.528.062.153-.116.354-.328.478-.482l.686.906c-.152.275-.49.731-.911,1.05-.714.541-1.199.326-1.517-.095l-.078-.103c-.013.593-.242,1.589-1.403,2.468-1.097.83-2.357,1.021-3.207-.101ZM644.758,717.248l-.541-.715c-.291.12-.853.465-1.337.832-.753.569-1.144,1.087-.738,1.622.328.434.792.384,1.417-.089.714-.541,1.092-1.209,1.199-1.65Z"/><path d="M649.42,714.119l1.362-1.09-2.729-3.411-1.362,1.089-.849-1.062,2.524-2.02.999,1.25c-.252-.803-.312-2.005.775-2.874.412-.33.867-.529,1.227-.592l1.08,1.35c-.405.058-.91.297-1.272.587-.875.699-1.05,1.557-1.035,2.139l1.979,2.475,2.324-1.858.839,1.05-5.023,4.018-.84-1.05Z"/><path d="M655.527,706.388c-1.877-2.228-.89-4.085.457-5.22,1.211-1.021,2.958-1.656,4.5-.025l-1.322,1.114c-.775-.771-1.516-.606-2.238.002-.955.805-1.072,1.783-.051,2.994,1.031,1.224,2.005,1.262,2.972.446.71-.598,1.007-1.288.379-2.183l1.321-1.113c1.326,1.771.378,3.428-.809,4.429-1.358,1.145-3.353,1.759-5.209-.444Z"/><path d="M659.028,694.454l1.28-1.138,2.701,3.038c-.033-.398.042-1.302.868-2.035,1.005-.894,2.249-1.229,3.77.482l2.903,3.266-1.28,1.138-2.68-3.015c-.766-.861-1.36-1.168-2.138-.477-.574.511-.695,1.024-.699,1.479l3.435,3.863-1.28,1.139-6.881-7.74Z"/><path d="M674.07,697.008c1.121-1.05,1.341-1.914.927-3.104l-7.091-2.98,1.401-1.312,3.279,1.51,2.06,1.051-.893-2.123-1.294-3.392,1.331-1.247,2.436,6.926c.88,2.53.734,3.896-1.192,5.7l-.962-1.027Z"/><path d="M702.215,649.836l.971-1.19,10.284,8.387-.971,1.19-10.284-8.387Z"/><path d="M730.761,612.209l1.154-1.883,2.716.651,2.02.562-1.435-1.518-1.812-2.125,1.12-1.827,7.803,4.782-.828,1.351-3.983-2.441-2.301-1.636,3.442,3.968-.652,1.064-5.097-1.267,2.501,1.308,3.983,2.441-.828,1.351-7.803-4.782Z"/><path d="M740.746,606.608c-2.466-1.423-2.217-3.551-1.377-5.006.896-1.552,2.53-2.751,5.023-1.312,2.453,1.415,2.217,3.551,1.377,5.006-.896,1.552-2.543,2.743-5.023,1.312ZM743.52,601.8c-1.372-.792-2.325-.548-2.933.506-.607,1.053-.342,2,1.03,2.792,1.358.783,2.325.547,2.933-.506.608-1.053.328-2.009-1.03-2.792Z"/><path d="M742.423,596.594l.916-1.687,3.578.414,2.293.335-1.516-1.732-2.295-2.811.87-1.603,4.724,6.113-.87,1.602-7.699-.632Z"/><path d="M750.505,589.105c-2.522-1.286-2.464-3.374-1.672-4.928.821-1.61,2.447-2.828,4.941-1.558l.342.175-2.513,4.931c1.119.517,2.065.316,2.69-.909.428-.841.384-1.6-.17-2.025l.799-1.568c1.472,1.128,1.237,2.857.54,4.226-.93,1.824-2.59,2.862-4.956,1.657ZM752.248,583.817c-1.035-.365-1.811.137-2.232.963-.421.827-.371,1.75.533,2.372l1.7-3.335Z"/><path d="M751.673,578.873l.558-1.17.91.433c-.301-.409-.738-1.167-.305-2.077.358-.751,1.049-.937,1.602-.832-.221-.318-.673-1.118-.247-2.015.475-.997,1.52-.995,2.792-.39l4.407,2.099-.654,1.373-4.162-1.982c-.78-.371-1.167-.378-1.36.026-.186.391-.034.816.115,1.136l4.726,2.251-.654,1.372-4.162-1.981c-.78-.372-1.167-.379-1.36.026-.186.39-.042.831.108,1.15l4.725,2.25-.654,1.373-6.387-3.042Z"/><path d="M759.282,571.117c-2.587-1.147-2.641-3.236-1.934-4.829.732-1.652,2.291-2.955,4.849-1.82l.351.155-2.244,5.058c1.145.456,2.079.205,2.636-1.052.383-.862.298-1.617-.279-2.014l.713-1.607c1.53,1.046,1.388,2.785.766,4.188-.83,1.871-2.432,2.997-4.858,1.921ZM760.739,565.745c-1.052-.31-1.8.233-2.177,1.081-.376.848-.276,1.767.659,2.339l1.518-3.42Z"/><path d="M760.214,560.108l.567-1.375.887.366c-.301-.488-.657-1.345-.199-2.453.513-1.242,1.497-2.116,3.611-1.244l4.037,1.667-.653,1.582-3.726-1.538c-1.065-.439-1.733-.456-2.13.505-.293.71-.177,1.225.018,1.634l4.775,1.972-.653,1.582-6.535-2.697Z"/><path d="M768.251,551.04l-2.527-.964-.805,2.108-1.271-.485.805-2.108-3.065-1.17.61-1.6,3.065,1.17,1.239-3.245,1.271.485-1.238,3.244,2.467.942c1.241.474,1.766.399,2.188-.707.234-.613.316-1.232.299-1.771l1.286.491c.027.558-.033,1.255-.37,2.137-.65,1.705-1.651,2.351-3.954,1.472Z"/><path d="M776.439,499.824l.349-1.496,12.915,3.011-.349,1.496-12.915-3.011Z"/><path d="M785.565,452.972l.254-2.676c.216-2.278,1.245-3.805,3.364-3.604,1.306.124,2.163,1.089,2.427,2.207l3.752-2.28-.205,2.167-3.393,1.88-.104,1.1,3.186.302-.167,1.769-9.112-.864ZM790.225,451.63l.086-.908c.135-1.418-.329-2.121-1.301-2.213-.972-.093-1.56.511-1.694,1.929l-.086.908,2.995.284Z"/><path d="M785.255,443.075l.117-1.708,4.054.279c-.303-.262-.88-.959-.804-2.061.092-1.341.746-2.45,3.028-2.293l4.357.3-.117,1.708-4.022-.277c-1.149-.079-1.788.118-1.859,1.155-.053.767.221,1.218.535,1.544l5.155.355-.117,1.708-10.327-.711Z"/><path d="M797.779,434.355c.064-1.535-.384-2.307-1.514-2.867l-7.151,2.84.08-1.919,3.399-1.219,2.208-.692-2.125-.891-3.3-1.516.076-1.823,6.592,3.24c2.401,1.19,3.253,2.268,3.142,4.906l-1.407-.06Z"/><path d="M793.615,422.128l-2.703-.044-.037,2.255-1.359-.022.037-2.255-3.278-.053.028-1.711,3.278.053.056-3.47,1.359.022-.056,3.47,2.638.043c1.328.021,1.795-.228,1.814-1.41.011-.656-.124-1.266-.323-1.765l1.375.021c.215.516.396,1.19.381,2.134-.03,1.823-.749,2.771-3.211,2.731Z"/><path d="M786.387,413.639l-.027-1.711,4.062-.065c-.324-.235-.958-.881-.976-1.984-.021-1.343.536-2.504,2.822-2.541l4.366-.07.027,1.711-4.03.065c-1.151.019-1.771.269-1.754,1.308.012.768.323,1.194.664,1.493l5.165-.084.028,1.711-10.347.168Z"/><path d="M789.526,404.417l-.045-1.296,1.007-.035c-.456-.224-1.193-.694-1.229-1.702-.029-.831.498-1.314,1.037-1.478-.342-.18-1.113-.681-1.148-1.673-.039-1.103.889-1.584,2.296-1.634l4.877-.172.054,1.519-4.605.163c-.863.03-1.209.203-1.194.65.015.432.346.74.626.955l5.229-.185.053,1.519-4.605.163c-.863.03-1.209.202-1.194.65.016.432.347.756.627.971l5.229-.185.054,1.519-7.068.25Z"/><path d="M781.135,351.711l-.259-1.515,13.08-2.239.259,1.515-13.08,2.239Z"/><path d="M777.626,303.567l-.518-1.647c.892-.364,1.187-1.026.813-2.217-.34-1.084-.928-1.62-1.63-1.399-.58.182-.7.706-.718,1.449l-.027,2.154c-.016,1.179-.474,2.228-1.726,2.62-1.632.513-2.954-.598-3.538-2.459-.546-1.74-.213-3.403,1.73-4.047l.522,1.663c-.942.363-1.15.981-.844,1.958.34,1.083.936,1.433,1.496,1.24.484-.169.717-.493.721-1.282l.033-2.189c.025-1.148.298-2.307,1.702-2.748,1.77-.556,3.088.707,3.692,2.63.618,1.968.199,3.676-1.708,4.274Z"/><path d="M773.848,294.289c-2.755.946-4.131-.646-4.704-2.311-.515-1.498-.477-3.356,1.601-4.206l.562,1.635c-.998.445-1.113,1.195-.806,2.088.406,1.181,1.276,1.644,2.774,1.129,1.514-.521,1.9-1.415,1.489-2.611-.302-.878-.838-1.404-1.898-1.142l-.562-1.635c2.13-.597,3.333.886,3.838,2.354.578,1.681.43,3.762-2.294,4.699Z"/><path d="M772.126,284.22c-1.529.571-2.443-.642-2.952-2.005-.258-.689-.412-1.469-.438-1.902l-.54.201c-.854.319-1.472.721-1.013,1.95.347.929.923,1.328,1.703,1.037l.565,1.513c-1.813.678-2.981-.576-3.581-2.179-.644-1.724-.341-3.151,1.517-3.846l2.742-1.025c.255-.095.311-.219.21-.488-.067-.18-.213-.433-.325-.596l1.064-.397c.221.225.561.678.746,1.173.313.839-.031,1.241-.526,1.426l-.12.045c.563.183,1.452.687,1.961,2.051.481,1.288.304,2.55-1.014,3.043ZM770.564,279.629l-.839.313c.032.312.201.949.414,1.519.331.885.713,1.407,1.343,1.172.51-.19.594-.648.32-1.383-.313-.839-.845-1.393-1.237-1.621Z"/><path d="M768.892,274.248l-.882-2.18-7.104,2.872.881,2.181-1.246.503-1.523-3.767,8.35-3.376-.887-2.195,1.246-.504,2.411,5.962-1.246.504Z"/><path d="M763.266,266.194c-2.595,1.131-4.171-.241-4.868-1.839-.723-1.657-.63-3.688,1.936-4.806l.352-.153,2.212,5.073c1.11-.536,1.556-1.395,1.006-2.655-.377-.865-.991-1.312-1.673-1.155l-.704-1.613c1.806-.421,2.993.859,3.606,2.268.818,1.877.565,3.819-1.869,4.881ZM760.289,261.488c-.939.567-1.045,1.485-.674,2.336.371.851,1.116,1.398,2.17,1.096l-1.496-3.432Z"/><path d="M732.94,221.894l-.797-1.312,11.334-6.882.797,1.312-11.334,6.882Z"/><path d="M706.469,179.357l1.9,2.354-1.17.945-4.927-6.102,1.17-.945,1.901,2.354,5.952-4.807,1.126,1.395-5.952,4.807Z"/><path d="M705.084,171.106c-2.155,1.836-4.061.98-5.192-.347-1.172-1.376-1.673-3.346.458-5.161l.292-.249,3.59,4.213c.907-.835,1.084-1.785.192-2.833-.612-.718-1.33-.969-1.937-.62l-1.142-1.339c1.606-.927,3.113-.047,4.109,1.122,1.328,1.559,1.65,3.491-.371,5.214ZM700.87,167.467c-.735.814-.569,1.725.033,2.431.602.706,1.474,1.014,2.395.418l-2.428-2.849Z"/><path d="M695.571,165.522l-.995-1.106.714-.642c-.569.06-1.496.011-2.298-.882-.898-1-1.262-2.266.44-3.795l3.249-2.921,1.145,1.273-2.999,2.696c-.857.77-1.161,1.365-.465,2.139.513.571,1.028.689,1.481.691l3.844-3.455,1.145,1.273-5.261,4.728Z"/><path d="M692.717,155.15l-1.155-1.22c.501-.563.206-1.341-.531-2.119-.671-.708-1.304-1.166-1.78-.716-.511.484.145,1.34.938,2.549.772,1.164,1.395,2.402.315,3.426-1.057,1.001-2.543.339-3.743-.927s-1.886-2.665-.685-3.979l1.155,1.219c-.48.609-.035,1.312.471,1.846.671.708,1.185.972,1.533.642.464-.44-.038-1.133-.995-2.539-.751-1.096-1.384-2.391-.327-3.393,1.242-1.177,2.771-.4,4.136,1.04,1.298,1.37,1.901,2.937.668,4.171Z"/><path d="M678.179,151.778l-1.481-1.482,1.37-1.368,1.481,1.482-1.37,1.368ZM686.171,147.032l-1.741-1.744-3.091,3.087,1.741,1.744-.962.961-2.951-2.955,4.053-4.048-1.594-1.597.951-.949,4.545,4.551-.951.95Z"/><path d="M677.822,141.823c-1.961,2.064-3.971,1.324-5.189.167-1.299-1.233-2.083-3.104-.099-5.19,1.95-2.053,3.971-1.324,5.189-.167,1.299,1.233,2.071,3.115.099,5.19ZM673.798,138c-1.09,1.147-1.077,2.132-.195,2.969s1.865.801,2.956-.348c1.08-1.136,1.077-2.132.195-2.969s-1.875-.789-2.956.348Z"/><path d="M667.775,137.222l-1.105-.996.643-.713c-.56.12-1.486.168-2.378-.636-.999-.899-1.493-2.12.039-3.82l2.924-3.245,1.272,1.146-2.699,2.995c-.771.856-1.011,1.48-.238,2.177.571.514,1.095.577,1.546.531l3.46-3.839,1.272,1.146-4.735,5.254Z"/><path d="M624.633,107.107l-1.269-.867,7.488-10.955,1.269.867-7.488,10.955Z"/><path d="M585.265,82.113l-1.787-.898.733-4.808.485-2.64-1.822,1.95-3.414,3.478-1.715-.862,7.056-6.697,1.63.819-1.166,9.658Z"/><path d="M579.002,70.842c-.694,1.478-2.196,1.249-3.514.63-.666-.313-1.321-.763-1.643-1.056l-.245.521c-.388.825-.549,1.545.638,2.104.898.422,1.589.305,1.943-.448l1.463.688c-.824,1.752-2.536,1.672-4.085.943-1.666-.782-2.447-2.016-1.603-3.812l1.245-2.649c.116-.246.07-.374-.191-.497-.174-.081-.455-.16-.649-.198l.483-1.028c.315.007.875.093,1.353.317.811.381.845.91.621,1.388l-.054.116c.53-.264,1.519-.523,2.836.096,1.246.585,2,1.611,1.402,2.886ZM574.675,68.65l-.381.812c.241.201.808.538,1.358.797.854.401,1.494.508,1.78-.101.231-.492-.029-.88-.738-1.213-.811-.381-1.577-.405-2.019-.295Z"/><path d="M569.727,65.978l-1.598-.699-1.75,4.004,1.598.698-.544,1.246-2.962-1.294.641-1.467c-.593.597-1.629,1.209-2.905.651-.484-.211-.873-.521-1.095-.811l.692-1.583c.239.331.687.667,1.112.853,1.026.448,1.867.204,2.375-.08l1.269-2.903-2.728-1.191.538-1.232,5.895,2.576-.539,1.232Z"/><path d="M554.99,69.472l-1.941-.79.729-1.793,1.941.79-.729,1.793ZM560.503,61.992l-2.282-.928-1.646,4.045,2.282.928-.512,1.26-3.867-1.573,2.158-5.304-2.089-.851.506-1.244,5.956,2.423-.506,1.244Z"/><path d="M551.346,58.868c-.575,1.528-2.09,1.421-3.454.908-.689-.259-1.378-.654-1.723-.921l-.203.539c-.321.854-.424,1.585.804,2.047.929.349,1.609.177,1.902-.602l1.514.568c-.681,1.812-2.396,1.87-3.999,1.268-1.723-.647-2.601-1.815-1.903-3.674l1.03-2.742c.096-.254.04-.378-.23-.479-.18-.067-.466-.124-.663-.146l.4-1.063c.314-.019.88.022,1.375.209.839.314.916.84.729,1.334l-.045.12c.508-.306,1.473-.644,2.836-.132,1.289.484,2.124,1.448,1.628,2.767ZM546.857,57.027l-.315.839c.257.183.849.473,1.418.688.884.332,1.53.387,1.767-.243.191-.509-.099-.875-.833-1.15-.839-.315-1.605-.278-2.037-.133Z"/><path d="M539.689,55.815l-.882,2.556,2.132.735-.443,1.286-2.132-.736-1.07,3.1-1.618-.558,1.07-3.101-3.282-1.132.444-1.285,3.281,1.132.861-2.495c.434-1.255.343-1.777-.776-2.163-.62-.214-1.241-.276-1.778-.241l.449-1.301c.557-.045,1.254-.007,2.146.301,1.724.595,2.402,1.573,1.598,3.902Z"/><path d="M527.267,59.408l-1.999-.632.583-1.847,1.999.632-.583,1.847ZM532.164,51.506l-2.35-.743-1.316,4.166,2.35.742-.41,1.297-3.983-1.258,1.726-5.463-2.151-.68.405-1.282,6.134,1.938-.405,1.282Z"/><path d="M522.346,50.742c-.785,2.737-2.911,3.01-4.525,2.547-1.723-.493-3.282-1.789-2.488-4.559.781-2.722,2.911-3.01,4.525-2.547,1.723.494,3.278,1.805,2.488,4.559ZM517.009,49.211c-.437,1.522.031,2.389,1.2,2.724,1.169.336,2.024-.151,2.461-1.675.432-1.507-.031-2.389-1.2-2.724s-2.029.167-2.461,1.675Z"/><path d="M511.312,51.303l-1.44-.372.24-.929c-.441.365-1.24.836-2.401.536-1.301-.336-2.303-1.189-1.731-3.404l1.091-4.228,1.657.428-1.007,3.902c-.288,1.115-.211,1.779.795,2.039.744.192,1.238.006,1.616-.243l1.292-5.003,1.657.428-1.767,6.846Z"/><path d="M459.137,44.592l-1.525-.181,1.556-13.168,1.525.18-1.556,13.169Z"/><path d="M412.209,36.105c.048,2.942-1.25,4.755-3.857,4.797-2.127.034-3.581-.869-3.733-3.347l1.807-.029c.133,1.294.75,1.876,1.902,1.856,1.791-.028,2.071-1.505,2.042-3.248-.028-1.711-.355-3.193-2.146-3.164-1.167.019-1.75.62-1.841,1.901l-1.807.029c.088-2.448,1.576-3.433,3.655-3.466,2.719-.045,3.931,1.695,3.979,4.67Z"/><path d="M402.018,35.258c.117,2.847-1.815,3.775-3.495,3.844-1.791.073-3.679-.666-3.797-3.544-.116-2.831,1.815-3.775,3.495-3.844,1.791-.073,3.68.682,3.797,3.544ZM396.469,35.486c.065,1.584.781,2.259,1.997,2.209s1.874-.781,1.809-2.365c-.064-1.566-.781-2.258-1.997-2.208s-1.874.798-1.809,2.364Z"/><path d="M391.702,39.265l-1.484.1-.064-.958c-.304.485-.915,1.184-2.112,1.264-1.341.09-2.561-.406-2.713-2.688l-.292-4.357,1.708-.114.269,4.022c.077,1.149.358,1.756,1.396,1.687.766-.052,1.177-.384,1.458-.739l-.345-5.155,1.708-.114.472,7.055Z"/><path d="M380.024,36.066l.252,2.692,2.247-.211.127,1.354-2.246.211.307,3.266-1.705.16-.307-3.266-3.457.324-.127-1.354,3.457-.324-.247-2.629c-.124-1.321-.422-1.76-1.601-1.649-.653.062-1.245.262-1.719.516l-.129-1.37c.489-.271,1.14-.525,2.08-.613,1.816-.171,2.837.44,3.068,2.894Z"/><path d="M371.379,35.25l-1.731.208.521,4.336,1.731-.208.162,1.351-3.208.385-.191-1.588c-.208.814-.791,1.867-2.173,2.033-.524.062-1.016-.007-1.354-.144l-.206-1.716c.374.165.93.227,1.39.172,1.112-.134,1.712-.77,2.006-1.272l-.377-3.145-2.955.354-.16-1.334,6.385-.768.161,1.335Z"/><path d="M361.853,36.947c.238,1.614-1.139,2.254-2.579,2.467-.728.107-1.521.095-1.952.029l.084.569c.133.902.396,1.591,1.694,1.399.981-.145,1.492-.624,1.371-1.447l1.598-.236c.282,1.915-1.188,2.795-2.882,3.045-1.819.269-3.152-.327-3.442-2.289l-.427-2.896c-.04-.27-.148-.351-.433-.309-.19.028-.468.118-.651.193l-.166-1.124c.266-.168.781-.406,1.303-.482.886-.131,1.207.29,1.284.812l.019.127c.296-.513.976-1.276,2.416-1.488,1.361-.201,2.557.237,2.763,1.629ZM357.037,37.512l.131.886c.312.035.971.003,1.572-.086.934-.138,1.525-.403,1.427-1.067-.079-.538-.51-.717-1.285-.603-.886.131-1.538.534-1.844.87Z"/><path d="M351.894,38.824l-1.655.288c-.192-.729-1.003-.913-2.06-.729-.961.168-1.693.441-1.581,1.088.121.693,1.196.62,2.643.628,1.397,0,2.774.166,3.029,1.632.25,1.435-1.125,2.308-2.843,2.606-1.718.3-3.264.098-3.695-1.63l1.655-.288c.242.737,1.073.755,1.798.628.962-.167,1.465-.449,1.382-.923-.11-.63-.964-.595-2.667-.574-1.328.021-2.758-.169-3.008-1.604-.294-1.687,1.199-2.531,3.154-2.872,1.86-.324,3.499.04,3.846,1.75Z"/><path d="M340.327,41.723l.534,2.651,2.212-.445.268,1.333-2.211.445.647,3.216-1.678.338-.648-3.216-3.404.686-.269-1.333,3.404-.686-.521-2.588c-.262-1.302-.604-1.706-1.766-1.473-.643.129-1.21.391-1.656.692l-.271-1.349c.458-.321,1.079-.642,2.004-.828,1.788-.36,2.869.141,3.355,2.556Z"/><path d="M292.665,62.169l-1.452.504-4.352-12.536,1.452-.504,4.352,12.536Z"/><path d="M248.199,79.48l-2.554,1.294c-2.71,1.375-4.397.311-5.692-2.243-1.236-2.439-1.112-4.564,1.556-5.917l2.554-1.295,4.137,8.161ZM243.158,73.462l-.97.492c-1.726.875-1.311,2.297-.58,3.737.738,1.455,1.631,2.616,3.357,1.741l.97-.492-2.777-5.479Z"/><path d="M237.198,78.77c1.348,2.49.114,4.177-1.419,5.007-1.59.86-3.62.94-4.953-1.521l-.183-.338,4.868-2.635c-.628-1.061-1.521-1.432-2.731-.777-.83.449-1.224,1.1-1.009,1.765l-1.547.838c-.573-1.764.602-3.055,1.953-3.785,1.801-.975,3.758-.888,5.022,1.447ZM232.762,82.135c.644.888,1.568.915,2.384.474s1.299-1.23.908-2.256l-3.292,1.782Z"/><path d="M229.751,86.913l-1.29.742-.462-.805c-.072.613-.442,1.51-1.482,2.108-1.359.782-3.109.533-4.41-1.728s-.609-3.914.723-4.681c.971-.559,1.868-.41,2.278-.276l-1.82-3.163,1.484-.854,4.979,8.655ZM223.632,86.353c.678,1.179,1.569,1.7,2.623,1.094.624-.359.938-.872,1.07-1.317l-1.652-2.871c-.451-.109-1.052-.096-1.676.263-1.054.607-1.051,1.639-.365,2.832Z"/><path d="M217.821,89.194l1.411,2.308,1.925-1.177.709,1.161-1.925,1.177,1.711,2.8-1.461.893-1.711-2.8-2.963,1.812-.709-1.161,2.963-1.811-1.377-2.254c-.692-1.134-1.153-1.396-2.164-.778-.56.343-1.004.782-1.319,1.219l-.718-1.175c.32-.458.793-.973,1.6-1.465,1.557-.951,2.743-.852,4.029,1.252Z"/><path d="M214.515,99.875l-1.437.931-2.209-3.41c-.027.398-.239,1.279-1.166,1.879-1.128.73-2.408.874-3.651-1.047l-2.375-3.665,1.437-.931,2.192,3.384c.626.967,1.167,1.359,2.04.794.645-.417.842-.907.915-1.354l-2.809-4.337,1.437-.931,5.627,8.688Z"/><path d="M172.495,130.984l-1.166,1.001-8.64-10.069,1.166-1,8.64,10.068Z"/><path d="M137.401,163.371l-2.002,2.246c-1.47,1.649-3.28,2.309-4.857.902-1.589-1.416-1.14-3.268.341-4.928l.82-.92-2.318-2.066,1.182-1.326,6.834,6.092ZM132.813,161.662l-.831.932c-.948,1.063-.945,1.902-.216,2.552.729.65,1.55.546,2.498-.518l.831-.932-2.282-2.034Z"/><path d="M126.902,166.706c2.164,1.829,1.629,3.85.503,5.182-1.167,1.381-3.029,2.196-5.168.389l-.293-.248,3.574-4.229c-.972-.759-1.939-.779-2.828.271-.609.721-.74,1.47-.297,2.012l-1.136,1.345c-1.176-1.435-.552-3.064.439-4.238,1.322-1.564,3.177-2.197,5.206-.482ZM123.996,171.458c.924.593,1.795.281,2.395-.428s.761-1.619.023-2.432l-2.417,2.859Z"/><path d="M118.508,173.36l-1.091,1.36,3.408,2.733,1.091-1.36,1.061.851-2.022,2.521-1.248-1.001c.421.728.742,1.887-.128,2.973-.331.412-.73.707-1.068.846l-1.348-1.081c.382-.144.823-.488,1.113-.851.701-.873.684-1.748.542-2.312l-2.471-1.982-1.862,2.321-1.049-.841,4.024-5.018,1.048.841Z"/><path d="M113.152,181.513l-1.016,1.338c-.638-.404-1.357.014-2.005.867-.59.777-.94,1.477-.417,1.873.561.426,1.298-.36,2.363-1.34,1.023-.95,2.145-1.766,3.329-.866,1.16.88.747,2.455-.307,3.844-1.055,1.389-2.324,2.293-3.815,1.321l1.016-1.338c.679.375,1.3-.178,1.745-.764.59-.777.766-1.326.384-1.617-.51-.387-1.112.221-2.344,1.395-.959.919-2.135,1.753-3.294.873-1.363-1.035-.845-2.67.355-4.25,1.142-1.504,2.589-2.353,4.007-1.336Z"/><path d="M110.809,192.699l-.868,1.209-.754-.541c.188.588.221,1.558-.479,2.533-.916,1.273-2.612,1.77-4.731.248-2.119-1.522-2.172-3.314-1.275-4.562.654-.91,1.533-1.146,1.96-1.193l-2.964-2.129.999-1.392,8.112,5.827ZM105.004,194.717c1.105.794,2.132.901,2.841-.087.42-.585.495-1.183.431-1.643l-2.691-1.933c-.457.086-.999.348-1.418.933-.71.987-.281,1.927.837,2.729Z"/><path d="M102.394,198.349c2.341,1.591,2.022,3.655,1.042,5.098-1.016,1.495-2.781,2.5-5.096.927l-.318-.216,3.11-4.577c-1.045-.652-2.009-.572-2.782.565-.53.781-.582,1.539-.084,2.031l-.989,1.455c-1.319-1.303-.87-2.988-.007-4.259,1.15-1.693,2.927-2.516,5.124-1.024ZM100.003,203.376c.98.492,1.813.092,2.335-.676.521-.768.587-1.689-.232-2.42l-2.103,3.096Z"/><path d="M96.829,206.665c2.452,1.571,2.059,3.639,1.108,5.121-.855,1.334-2.335,2.457-4.291,1.355l.933-1.455c.968.506,1.627.131,2.137-.665.674-1.051.497-2.02-.837-2.874-1.347-.864-2.289-.612-2.971.452-.501.782-.581,1.529.284,2.197l-.933,1.455c-1.791-1.3-1.375-3.163-.538-4.47.958-1.495,2.682-2.672,5.107-1.117Z"/><path d="M89.979,216.525l2.313,1.4,1.168-1.93,1.164.704-1.168,1.93,2.806,1.698-.886,1.465-2.806-1.698-1.798,2.97-1.164-.704,1.798-2.97-2.259-1.367c-1.136-.688-1.666-.709-2.278.304-.34.562-.532,1.155-.61,1.688l-1.177-.712c.074-.555.257-1.229.746-2.036.945-1.561,2.044-2.017,4.152-.741Z"/><path d="M84.182,222.988l-1.22,2.141,3.795,2.162,1.22-2.141,1.182.674-2.067,3.628-4.976-2.835-1.117,1.96-1.168-.666,3.184-5.588,1.168.665ZM90.875,229.434l-1.037,1.821-1.682-.958,1.038-1.821,1.682.958Z"/><path d="M84.683,233.743l-.906,1.694-3.584-.394-2.297-.321,1.528,1.726,2.314,2.8-.861,1.609-4.766-6.091.861-1.609,7.711.586Z"/><path d="M76.658,241.248c2.531,1.27,2.485,3.358,1.704,4.917-.811,1.615-2.429,2.844-4.931,1.589l-.343-.173,2.481-4.946c-1.123-.51-2.067-.304-2.684.926-.423.844-.374,1.603.183,2.025l-.789,1.572c-1.479-1.118-1.255-2.849-.567-4.221.918-1.83,2.572-2.88,4.945-1.689ZM74.949,246.547c1.037.358,1.81-.148,2.226-.978.416-.829.36-1.752-.548-2.368l-1.678,3.346Z"/><path d="M62.072,292.932l-.497,1.453-12.548-4.288.497-1.453,12.548,4.288Z"/><path d="M46.422,340.509l.583-2.968,1.476.29-1.51,7.693-1.476-.29.583-2.968-7.505-1.473.345-1.759,7.505,1.474Z"/><path d="M40.989,346.84c2.793.473,3.361,2.484,3.07,4.204-.302,1.782-1.49,3.432-4.251,2.965l-.378-.064.924-5.459c-1.223-.158-2.066.315-2.296,1.673-.157.931.112,1.642.769,1.883l-.294,1.735c-1.743-.636-2.036-2.357-1.779-3.872.342-2.02,1.616-3.508,4.235-3.064ZM40.907,352.41c1.097.039,1.688-.672,1.843-1.587s-.169-1.781-1.218-2.105l-.625,3.692Z"/><path d="M39.091,359.355l3.848-2.506-.298,2.091-2.606,1.616,2.06,2.217-.287,2.011-3.001-3.434-4.024,2.61.298-2.091,2.749-1.709-2.164-2.394.296-2.074,3.13,3.662Z"/><path d="M37.263,368.54l2.688.31.258-2.241,1.352.155-.258,2.242,3.26.375-.196,1.701-3.259-.375-.397,3.45-1.351-.156.397-3.45-2.623-.302c-1.32-.152-1.811.049-1.946,1.226-.075.652-.001,1.272.148,1.789l-1.368-.157c-.164-.534-.278-1.224-.169-2.162.208-1.812,1.018-2.686,3.466-2.404Z"/><path d="M36.025,377.05l4.349.387-.152,1.705-4.014-.357c-1.147-.103-1.79.081-1.882,1.116-.068.765.196,1.222.504,1.555l5.146.458-.152,1.705-7.042-.628.132-1.481.956.086c-.432-.376-1.027-1.088-.921-2.282.12-1.338.798-2.466,3.076-2.263Z"/><path d="M33.842,386.854l-.108,1.741,4.361.271.108-1.741,1.358.084-.201,3.228-1.598-.099c.764.352,1.695,1.115,1.609,2.505-.033.527-.19.999-.386,1.308l-1.726-.107c.229-.339.391-.874.42-1.337.069-1.118-.448-1.824-.89-2.204l-3.163-.196-.185,2.971-1.342-.083.399-6.422,1.342.083Z"/><path d="M35.436,396.566c2.83.104,3.657,2.022,3.594,3.766-.065,1.807-1.027,3.598-3.826,3.496l-.384-.014.201-5.533c-1.233.003-2.007.584-2.057,1.959-.034.943.326,1.613,1.009,1.766l-.064,1.759c-1.811-.401-2.327-2.069-2.271-3.604.074-2.047,1.143-3.689,3.797-3.594ZM36.084,402.098c1.092-.104,1.585-.888,1.619-1.814.034-.928-.401-1.744-1.483-1.928l-.136,3.742Z"/><path d="M43.574,449.629l.148,1.529-13.206,1.277-.148-1.529,13.206-1.277Z"/><path d="M49.904,496.94l.656,2.789c.696,2.96-.737,4.349-3.525,5.004-2.664.626-4.701.004-5.386-2.909l-.655-2.789,8.911-2.095ZM42.864,500.419l.249,1.06c.443,1.885,1.923,1.816,3.497,1.447,1.589-.374,2.929-.969,2.486-2.854l-.249-1.06-5.982,1.406Z"/><path d="M44.629,508.411l.627,2.383,4.224-1.112-.627-2.383,1.315-.346,1.063,4.038-5.539,1.458.574,2.182-1.3.343-1.638-6.22,1.3-.343ZM53.922,508.33l.534,2.027-1.872.492-.534-2.026,1.872-.493Z"/><path d="M52.554,515.885l.363,1.245-.968.282c.498.104,1.328.379,1.61,1.348.233.799-.159,1.396-.641,1.688.376.091,1.247.387,1.525,1.339.31,1.061-.471,1.756-1.823,2.15l-4.687,1.368-.426-1.46,4.425-1.292c.83-.242,1.123-.494.997-.925-.121-.415-.518-.632-.842-.771l-5.025,1.468-.426-1.46,4.425-1.292c.83-.242,1.123-.495.998-.925-.121-.415-.522-.648-.847-.787l-5.024,1.467-.426-1.459,6.792-1.983Z"/><path d="M52.037,526.723c2.696-.867,4.126.655,4.66,2.315.554,1.721.259,3.731-2.406,4.588l-.366.118-1.694-5.27c-1.158.423-1.688,1.232-1.267,2.542.289.898.855,1.405,1.549,1.316l.539,1.675c-1.839.238-2.892-1.153-3.362-2.615-.627-1.949-.182-3.856,2.346-4.67ZM54.53,531.702c.992-.47,1.188-1.373.904-2.257-.284-.883-.971-1.502-2.05-1.307l1.146,3.563Z"/><path d="M58.678,535.577l.492,1.403-.905.317c.549.163,1.385.565,1.782,1.697.445,1.268.293,2.574-1.865,3.332l-4.12,1.445-.566-1.615,3.803-1.334c1.086-.381,1.596-.814,1.251-1.795-.254-.725-.684-1.031-1.102-1.207l-4.874,1.711-.567-1.615,6.67-2.34Z"/><path d="M57.323,546.23l.598,1.569c-.68.328-.706,1.159-.325,2.161.347.912.755,1.579,1.368,1.346.658-.251.381-1.292.114-2.715-.265-1.371-.364-2.754,1.027-3.283,1.361-.519,2.479.665,3.1,2.295.62,1.63.716,3.186-.898,3.938l-.598-1.57c.678-.378.537-1.197.275-1.885-.347-.913-.72-1.353-1.168-1.182-.598.228-.401,1.06-.058,2.727.272,1.3.358,2.74-1.002,3.258-1.6.609-2.713-.696-3.419-2.551-.672-1.765-.625-3.442.987-4.107Z"/><path d="M60.246,556.232l.938,2.279,4.041-1.662-.938-2.279,1.258-.518,1.589,3.863-5.299,2.18.858,2.087-1.243.511-2.448-5.95,1.244-.511ZM69.449,554.92l.797,1.939-1.791.736-.797-1.938,1.791-.737Z"/><path d="M65.959,564.249c2.605-1.154,4.178.302,4.859,1.839.727,1.639.732,3.667-1.901,4.834-2.59,1.148-4.178-.302-4.859-1.838-.727-1.64-.718-3.674,1.901-4.835ZM68.21,569.328c1.449-.643,1.813-1.557,1.321-2.669s-1.416-1.456-2.864-.813c-1.434.635-1.813,1.557-1.321,2.668.493,1.112,1.43,1.45,2.864.814Z"/><path d="M73.471,572.353l.639,1.344-.867.412c.563.104,1.438.415,1.952,1.499.577,1.214.565,2.53-1.501,3.512l-3.945,1.875-.735-1.547,3.642-1.729c1.041-.495,1.501-.979,1.055-1.919-.33-.693-.79-.953-1.224-1.083l-4.667,2.218-.734-1.547,6.387-3.034Z"/><path d="M101.792,616.693l.839,1.286-11.106,7.249-.839-1.286,11.106-7.249Z"/><path d="M129.322,655.678l1.965,2.277c1.442,1.672,1.86,3.552.261,4.932-1.611,1.391-3.387.704-4.84-.98l-.805-.933-2.351,2.027-1.16-1.345,6.93-5.979ZM127.029,660.001l.815.945c.93,1.078,1.762,1.185,2.501.548.739-.638.743-1.466-.187-2.544l-.815-.945-2.314,1.996Z"/><path d="M131.287,666.496c2.105-1.918,4.057-1.034,5.188.208,1.207,1.324,1.853,3.245-.276,5.185-2.093,1.906-4.057,1.034-5.188-.208-1.207-1.324-1.841-3.256.275-5.185ZM135.026,670.599c1.17-1.066,1.228-2.049.409-2.948-.818-.898-1.802-.933-2.973.134-1.159,1.056-1.228,2.049-.409,2.947.819.899,1.814.923,2.973-.133Z"/><path d="M137.192,674.871l1.163,1.213c-.499.566-.198,1.343.544,2.116.676.705,1.311,1.159,1.785.705.508-.487-.153-1.339-.954-2.544-.779-1.159-1.41-2.396-.336-3.426,1.051-1.008,2.543-.354,3.75.905s1.903,2.654.709,3.977l-1.163-1.213c.477-.612.027-1.312-.482-1.844-.676-.705-1.191-.965-1.538-.632-.462.442.044,1.133,1.011,2.533.758,1.092,1.399,2.384.348,3.393-1.236,1.185-2.771.417-4.144-1.016-1.308-1.362-1.92-2.926-.694-4.168Z"/><path d="M143.762,682.92l1.753,1.731,3.07-3.107-1.753-1.731.956-.968,2.971,2.936-4.026,4.074,1.605,1.586-.944.956-4.576-4.521.945-.956ZM151.721,678.12l1.491,1.474-1.361,1.377-1.491-1.473,1.361-1.378Z"/><path d="M153.22,689.811l1.852-1.973-1.646-1.544.931-.992,1.646,1.544,2.246-2.393,1.249,1.172-2.246,2.394,2.533,2.377-.931.992-2.533-2.377-1.808,1.926c-.91.969-1.041,1.482-.177,2.293.479.449,1.021.761,1.525.949l-.942,1.004c-.527-.188-1.148-.508-1.837-1.154-1.331-1.249-1.549-2.42.138-4.218Z"/><path d="M158.339,696.834l1.84,1.639,2.904-3.262-1.84-1.638.904-1.016,3.118,2.775-3.808,4.277,1.685,1.5-.893,1.003-4.803-4.275.894-1.004ZM166.035,691.629l1.565,1.394-1.287,1.445-1.565-1.394,1.287-1.445Z"/><path d="M168.969,698.598l1.467,1.238-1.129,3.421-.792,2.178,2.003-1.135,3.217-1.68,1.394,1.177-6.943,3.391-1.393-1.176,2.176-7.414Z"/><path d="M174.635,707.999c1.769-2.212,3.803-1.732,5.166-.644,1.412,1.13,2.277,2.969.528,5.155l-.24.301-4.324-3.459c-.732.992-.727,1.96.348,2.819.737.59,1.49.699,2.02.242l1.375,1.1c-1.402,1.215-3.049.635-4.249-.324-1.6-1.279-2.282-3.116-.623-5.19ZM179.463,710.775c.567-.939.232-1.802-.493-2.382-.725-.579-1.64-.717-2.432.043l2.924,2.339Z"/><path d="M191.727,712.642l1.263.956-14.653,5.543-1.25-.946,14.641-5.553Z"/><path d="M194.206,715.971l1.833,1.314-2.22,7.543,1.509-2.461,2.647-3.692,1.274.913-5.333,7.437-1.833-1.314,2.22-7.543-1.509,2.462-2.648,3.692-1.274-.914,5.333-7.437Z"/><path d="M198.642,726.058c1.588-2.344,3.653-2.026,5.097-1.049,1.497,1.014,2.504,2.778.934,5.096l-.215.318-4.583-3.104c-.651,1.047-.57,2.011.569,2.782.781.529,1.54.579,2.031.081l1.457.987c-1.301,1.321-2.988.874-4.26.013-1.695-1.148-2.521-2.925-1.031-5.124ZM203.674,728.443c.491-.981.089-1.813-.679-2.334s-1.69-.585-2.42.234l3.099,2.1Z"/><path d="M204.927,735.006l1.388.888c-.408.727-.369,1.379.655,2.033,1.24.794,1.811.229,2.319-.566l.543-.85c-.473.116-1.279.188-2.195-.397-1.388-.888-1.938-2.551-.627-4.599,1.319-2.062,3.117-2.26,4.464-1.397.97.621,1.333,1.537,1.349,2.136l.492-.768,1.253.802-3.914,6.116c-1.026,1.604-2.468,1.84-4.435.581-1.32-.845-2.449-2.08-1.291-3.979ZM210.462,735.528l1.655-2.587c-.121-.494-.405-.999-.971-1.361-1.038-.664-1.957-.207-2.646.87-.69,1.078-.711,2.091.327,2.754.566.362,1.135.423,1.635.324Z"/><path d="M214.562,738.433c.844-1.397,2.314-1.015,3.561-.263.63.381,1.235.896,1.525,1.221l.298-.494c.471-.78.707-1.479-.417-2.158-.85-.513-1.55-.468-1.979.245l-1.384-.836c1.001-1.658,2.696-1.4,4.163-.516,1.576.951,2.226,2.259,1.2,3.958l-1.514,2.508c-.141.232-.108.364.139.514.165.099.436.207.625.265l-.587.974c-.313-.04-.861-.184-1.313-.457-.768-.463-.747-.992-.474-1.444l.066-.11c-.555.207-1.565.364-2.812-.389-1.178-.711-1.823-1.811-1.096-3.017ZM218.639,741.062l.463-.767c-.219-.226-.748-.62-1.268-.935-.809-.487-1.434-.659-1.781-.084-.281.466-.063.878.609,1.283.767.464,1.527.567,1.978.502Z"/><path d="M225.443,743.55l1.335-2.352-1.962-1.114.672-1.183,1.962,1.114,1.621-2.853,1.489.846-1.62,2.853,3.02,1.715-.672,1.183-3.02-1.715-1.304,2.296c-.656,1.155-.663,1.686.367,2.271.571.324,1.17.499,1.705.563l-.68,1.196c-.556-.058-1.235-.223-2.056-.689-1.586-.901-2.074-1.987-.856-4.131Z"/><path d="M232.074,749.179l2.174,1.161,2.058-3.854-2.173-1.161.641-1.199,3.684,1.967-2.699,5.054,1.99,1.062-.633,1.186-5.674-3.03.633-1.186ZM238.336,742.311l1.849.987-.912,1.708-1.849-.987.912-1.708Z"/><path d="M242.806,748.384l1.718.858-.293,3.593-.258,2.304,1.682-1.574,2.734-2.39,1.632.815-5.954,4.931-1.632-.815.372-7.722Z"/><path d="M250.534,756.198c1.199-2.566,3.289-2.578,4.869-1.84,1.638.766,2.911,2.35,1.726,4.887l-.163.348-5.016-2.345c-.479,1.137-.246,2.076,1.001,2.658.855.399,1.612.33,2.02-.239l1.594.745c-1.077,1.51-2.813,1.334-4.205.684-1.855-.867-2.951-2.491-1.826-4.897ZM255.88,757.759c.33-1.046-.198-1.806-1.039-2.198s-1.762-.312-2.353.613l3.392,1.585Z"/><path d="M297.602,775.759l1.649.515c-.209.94.167,1.561,1.359,1.932,1.084.338,1.86.161,2.079-.542.181-.58-.181-.978-.782-1.416l-1.755-1.251c-.96-.685-1.561-1.66-1.17-2.912.509-1.635,2.175-2.087,4.039-1.507,1.742.543,2.919,1.765,2.34,3.729l-1.665-.519c.239-.981-.151-1.506-1.128-1.811-1.084-.338-1.711-.047-1.872.523-.137.493-.003.87.643,1.323l1.781,1.275c.929.675,1.726,1.56,1.288,2.965-.552,1.772-2.341,2.136-4.266,1.536-1.97-.614-3.135-1.932-2.54-3.842Z"/><path d="M308.845,774.685l1.432.404-.252.894c.489-.378,1.389-.738,2.543-.412,1.509.426,2.553,1.852,1.844,4.36-.708,2.51-2.375,3.17-3.853,2.753-1.078-.305-1.599-1.051-1.789-1.437l-.991,3.51-1.647-.465,2.713-9.607ZM312.718,779.454c.37-1.309.121-2.311-1.05-2.641-.693-.196-1.279-.062-1.689.154l-.9,3.187c.236.399.666.82,1.359,1.016,1.17.331,1.906-.393,2.28-1.716Z"/><path d="M316.615,782.261c.401-1.581,1.918-1.642,3.329-1.283.713.181,1.441.498,1.813.724l.142-.558c.225-.884.247-1.621-1.024-1.943-.961-.244-1.618.002-1.823.808l-1.565-.397c.476-1.876,2.172-2.122,3.831-1.7,1.783.452,2.784,1.515,2.295,3.438l-.72,2.837c-.067.264.002.38.282.451.186.047.477.071.674.072l-.279,1.101c-.311.054-.877.074-1.389-.056-.868-.22-1.002-.732-.872-1.244l.032-.124c-.471.358-1.392.802-2.803.443-1.333-.339-2.269-1.203-1.922-2.567ZM321.277,783.593l.221-.868c-.275-.152-.895-.376-1.484-.525-.915-.232-1.562-.215-1.728.437-.134.526.195.857.955,1.051.868.22,1.625.099,2.037-.094Z"/><path d="M326.723,783.056c.642-2.841,2.719-3.176,4.436-2.788,1.545.35,3.106,1.357,2.737,3.571l-1.686-.381c.146-1.082-.432-1.574-1.353-1.781-1.218-.275-2.068.222-2.417,1.767-.353,1.562.205,2.36,1.438,2.639.905.204,1.635.024,1.968-1.016l1.686.381c-.611,2.125-2.504,2.371-4.019,2.028-1.732-.391-3.426-1.609-2.792-4.42Z"/><path d="M336.522,785.263c.551-2.779,2.578-3.291,4.289-2.952,1.774.352,3.39,1.586,2.845,4.334l-.075.376-5.433-1.076c-.192,1.218.258,2.074,1.608,2.342.927.184,1.645-.065,1.904-.716l1.728.343c-.685,1.725-2.414,1.969-3.921,1.67-2.01-.398-3.462-1.714-2.945-4.32ZM342.088,785.501c.07-1.096-.625-1.707-1.535-1.888-.911-.18-1.786.119-2.139,1.159l3.674.729Z"/><path d="M390.189,785.588l1.534.094-.81,13.244-1.534-.094.81-13.244Z"/><path class="cls-1" d="M414.125,69.028c-190.538,0-345,154.462-345,345s154.462,345,345,345,345-154.462,345-345S604.663,69.028,414.125,69.028ZM414.125,690.028c-152.431,0-276-123.569-276-276s123.569-276,276-276,276,123.569,276,276-123.569,276-276,276Z"/><path d="M461.715,714.573l3.253-.552c3.647-.618,5.024,1.521,5.562,4.695.555,3.272-.089,5.815-3.677,6.424l-3.253.552-1.885-11.119ZM464.999,724.014l1.617-.273c2.72-.462,2.533-2.884,2.232-4.658-.304-1.794-.922-4.123-3.643-3.662l-1.617.274,1.41,8.319Z"/><path d="M475.8,722.076l2.7-.57-1.745-8.255-2.7.57-.293-1.389,7.003-1.48.293,1.389-2.68.566,1.745,8.256,2.68-.566.293,1.389-7.003,1.48-.294-1.39Z"/><path d="M487.125,717.74l1.569-.399c.398,1.24,1.409,1.726,3.017,1.316,1.473-.374,2.294-1.202,2.013-2.307-.217-.853-.877-1.098-1.955-1.194l-2.557-.237c-1.436-.13-2.752-.683-3.157-2.271-.493-1.938.932-3.394,3.083-3.94,2.209-.562,4.011.114,4.602,2.357l-1.55.395c-.472-1.531-1.65-1.623-2.736-1.347-1.415.359-2.008,1.191-1.781,2.083.188.736.81,1.073,1.78,1.156l2.557.237c1.921.171,2.928.72,3.307,2.212.567,2.229-.989,3.656-3.256,4.232-2.48.631-4.38-.104-4.937-2.293Z"/><path d="M497.597,706.679l2.798-.834c2.779-.827,4.827-.186,5.466,1.961.52,1.744-.261,3.187-1.648,3.996l4.632,3.295-1.993.593-4.207-3.129-1.438.429,1.198,4.024-1.59.474-3.219-10.809ZM500.814,711.668l1.227-.365c2.032-.605,2.572-1.663,2.207-2.89-.36-1.208-1.396-1.817-3.428-1.212l-1.227.365,1.221,4.102Z"/><path d="M511.405,710.087l-2.361-6.906,1.57-.537,2.362,6.906c.647,1.892,1.466,2.372,2.961,1.861,1.495-.512,1.849-1.393,1.202-3.285l-2.361-6.906,1.57-.537,2.361,6.906c.944,2.763.179,4.355-2.3,5.203-2.479.848-4.059.057-5.004-2.705Z"/><path d="M520.873,699.018l3.077-1.193c2.61-1.013,4.775-.63,5.65,1.626.875,2.257-.447,3.992-3.076,5.012l-1.529.593,1.504,3.879-1.547.6-4.079-10.516ZM524.482,703.732l1.547-.601c1.977-.767,2.43-1.865,1.967-3.059-.456-1.175-1.539-1.698-3.515-.932l-1.547.6,1.548,3.991Z"/><path d="M535.32,694.704l-3.485,1.516-.567-1.302,8.529-3.711.566,1.302-3.521,1.532,3.935,9.042-1.522.663-3.934-9.042Z"/><path d="M615.095,640.444l1.075-.959,10.896,12.207-1.075.959-10.896-12.207Z"/><path d="M675.698,569.498l3.685-6.351,1.229.713-2.851,4.914,2.941,1.707,2.48-4.274,1.229.713-2.48,4.274,3.132,1.817,2.852-4.914,1.229.713-3.685,6.35-9.759-5.662Z"/><path d="M687.837,559.113l-6.607.743.895-1.697,2.993-.275,2.123-.169-1.051-1.865-1.464-2.625.876-1.662,3.084,5.853,6.983-.771-.895,1.698-3.423.319-2.061.18,1.026,1.784,1.652,3.04-.867,1.645-3.265-6.196Z"/><path d="M688.526,545.56l.774-1.624,11.894,1.262-.774,1.624-2.806-.341-1.894,3.972,2.032,1.965-.757,1.589-8.468-8.446ZM694.664,549.506l1.532-3.214-1.784-.208-3.964-.561,2.932,2.728,1.285,1.255Z"/><path d="M697.394,539.887c-3.328-1.426-4.781-3.723-3.608-6.463.842-1.967,2.544-3.044,5.165-2.053l-.63,1.472c-1.607-.515-2.613-.249-3.188,1.093-1,2.336,1.136,3.598,2.956,4.378,2.096.897,4.192,1.338,5.113-.813.41-.956.317-1.757.039-2.529l-2.298-.984-1.039,2.428-1.269-.544,1.669-3.897,5.589,2.394-.512,1.195-1.14-.488c.373.551.788,1.817.135,3.343-1.205,2.813-4.244,2.644-6.983,1.471Z"/><path d="M702.238,528.379c-3.383-1.287-4.93-3.523-3.87-6.308.761-2.001,2.417-3.146,5.076-2.264l-.569,1.496c-1.627-.448-2.621-.142-3.14,1.223-.903,2.374,1.282,3.548,3.133,4.252,2.131.811,4.243,1.165,5.075-1.022.37-.972.245-1.769-.065-2.528l-2.336-.889-.939,2.468-1.29-.491,1.507-3.963,5.683,2.162-.462,1.215-1.159-.44c.395.535.862,1.782.272,3.334-1.088,2.86-4.131,2.815-6.916,1.756Z"/><path d="M701.538,514.068l2.33-6.961,1.347.45-1.803,5.387,3.224,1.079,1.568-4.685,1.347.45-1.568,4.686,3.433,1.148,1.803-5.387,1.347.451-2.33,6.961-10.697-3.58Z"/><path d="M705.325,502.426l.813-2.805c.808-2.785,2.456-4.161,4.607-3.537,1.748.507,2.54,1.944,2.47,3.549l5.278-2.114-.579,1.997-4.909,1.847-.418,1.441,4.034,1.169-.462,1.595-10.835-3.142ZM711.262,502.42l.356-1.229c.59-2.036-.007-3.063-1.237-3.42-1.21-.351-2.284.191-2.874,2.229l-.356,1.229,4.111,1.191Z"/><path d="M709.275,488.054l.431-1.748,11.909-1.163-.431,1.748-2.818.231-1.054,4.273,2.387,1.517-.421,1.709-10.002-6.567ZM716.086,490.682l.853-3.458-1.79.156-3.998.25,3.422,2.081,1.512.971Z"/><path d="M713.413,476.34l-.76,3.723-1.391-.284,1.859-9.11,1.391.283-.768,3.762,9.659,1.972-.332,1.626-9.659-1.971Z"/><path d="M713.827,466.679l1.176-7.247,1.402.228-.91,5.608,3.356.544.792-4.877,1.402.228-.792,4.877,3.574.58.91-5.607,1.402.228-1.176,7.246-11.136-1.807Z"/><path d="M713.357,367.78l-.222-1.423,16.164-2.521.222,1.423-16.164,2.521Z"/><path d="M692.003,276.61c-3.398,1.745-6.007,1.219-7.396-1.485-.886-1.726-1.099-4.022,1.542-5.491l.731,1.423c-1.404.901-1.659,2.111-.974,3.446,1.161,2.26,3.354,1.582,5.312.577,1.85-.951,3.696-2.349,2.535-4.608-.777-1.512-1.809-1.858-3.341-1.207l-.74-1.44c2.625-1.236,4.421.157,5.372,2.008,1.435,2.793.217,5.105-3.04,6.778Z"/><path d="M686.258,265.531c-3.186,1.802-5.862,1.66-7.358-.986-1.486-2.629-.25-4.913,2.884-6.685,3.187-1.801,5.845-1.649,7.341.996,1.486,2.629.25,4.913-2.866,6.675ZM682.682,259.328c-1.654.935-3.729,2.384-2.509,4.543s3.532,1.128,5.186.192c1.637-.925,3.712-2.374,2.492-4.533-1.22-2.158-3.532-1.127-5.168-.202Z"/><path d="M674.732,256.948l-1.17-1.887,6.344-8.101-2.659,1.86-5.457,3.385-.791-1.274,9.587-5.947,1.17,1.887-6.344,8.102,2.659-1.861,5.456-3.384.791,1.274-9.587,5.946Z"/><path d="M668.188,246.587l-1.245-1.838,6.011-8.347-2.581,1.966-5.314,3.6-.841-1.241,9.337-6.326,1.245,1.838-6.011,8.348,2.581-1.966,5.314-3.601.841,1.242-9.337,6.325Z"/><path d="M666.342,233.831c-2.946,2.172-5.62,2.354-7.424-.092-1.793-2.432-.841-4.848,2.057-6.984,2.946-2.173,5.604-2.344,7.408.104,1.792,2.431.841,4.848-2.041,6.973ZM662.044,228.103c-1.529,1.128-3.416,2.816-1.943,4.812s3.643.693,5.172-.434c1.513-1.116,3.399-2.806,1.927-4.802s-3.643-.693-5.156.423Z"/><path d="M653.283,223.698l2.377,2.966-1.108.888-5.818-7.258,1.108-.889,2.402,2.997,7.696-6.169,1.039,1.296-7.696,6.169Z"/><path d="M646.145,217.218l-4.816-5.538,1.071-.932,3.727,4.286,2.565-2.231-3.241-3.727,1.071-.933,3.241,3.728,2.731-2.375-3.727-4.286,1.071-.932,4.816,5.539-8.511,7.4Z"/><path d="M569.818,154.333l-1.236-.738,8.388-14.042,1.236.738-8.388,14.042Z"/><path d="M483.946,117.831l-2.85-.635c-2.83-.631-4.306-2.188-3.819-4.375.396-1.775,1.78-2.655,3.385-2.687l-2.441-5.133,2.03.452,2.15,4.781,1.464.326.913-4.099,1.62.361-2.453,11.007ZM483.566,111.908l-1.249-.278c-2.069-.461-3.056.199-3.334,1.448-.274,1.229.335,2.267,2.404,2.728l1.249.278.931-4.176Z"/><path d="M471.981,115.281l-7.224-1.305.252-1.397,5.59,1.01.604-3.347-4.862-.878.252-1.397,4.862.878.644-3.562-5.59-1.01.252-1.397,7.224,1.305-2.005,11.102Z"/><path d="M459.911,113.206l-3.268-.453c-2.773-.384-4.478-1.771-4.146-4.168.332-2.396,2.331-3.27,5.124-2.883l1.624.226.571-4.12,1.644.229-1.549,11.17ZM459.05,107.334l-1.644-.229c-2.1-.291-3.03.448-3.206,1.716-.173,1.248.518,2.232,2.618,2.523l1.644.228.587-4.238Z"/><path d="M447.73,111.618l-7.302-.717.139-1.413,5.651.555.332-3.383-4.915-.482.139-1.413,4.915.482.354-3.601-5.651-.555.139-1.413,7.302.717-1.102,11.223Z"/><path d="M432.864,110.378l-1.797-.104-3.321-11.496,1.798.104.743,2.729,4.394.255,1.055-2.624,1.757.102-4.629,11.035ZM434.203,103.2l-3.555-.206.48,1.731.977,3.885,1.42-3.746.678-1.664Z"/><path d="M420.607,108.457l3.801.069-.026,1.421-9.302-.171.026-1.42,3.841.07.181-9.862,1.66.03-.181,9.862Z"/><path d="M325.474,124.473l-1.377.424-4.818-15.64,1.376-.424,4.818,15.64Z"/><path d="M235.223,155.823l-2.249,1.6,4.894,6.878,2.249-1.601.824,1.157-5.834,4.151-.823-1.157,2.233-1.589-4.894-6.877-2.232,1.589-.824-1.157,5.834-4.151.823,1.157Z"/><path d="M230.976,171.07l-1.756,1.358-8.711-5.477,2.125,2.453,3.928,5.079-1.187.918-6.902-8.925,1.756-1.358,8.711,5.478-2.125-2.454-3.928-5.079,1.187-.918,6.902,8.925Z"/><path d="M222.381,177.781l-1.363,1.146-5.471-3.374-3.199-2.067,1.488,3.452,2.401,6.002-1.333,1.119-4.222-11.188,1.41-1.183,10.288,6.093Z"/><path d="M212.037,186.591l-5.426,4.938-.956-1.05,4.199-3.822-2.288-2.513-3.652,3.324-.956-1.05,3.652-3.324-2.436-2.677-4.199,3.822-.956-1.05,5.427-4.939,7.59,8.34Z"/><path d="M203.036,194.923l-2.079,2.05c-2.064,2.035-4.173,2.431-5.746.836-1.278-1.296-1.266-2.936-.422-4.301l-5.636-.732,1.481-1.46,5.183.785,1.067-1.053-2.948-2.989,1.182-1.165,7.917,8.029ZM197.854,192.031l-.911.898c-1.509,1.488-1.489,2.676-.59,3.587.884.897,2.085.948,3.595-.54l.911-.898-3.004-3.047Z"/><path d="M191.506,204.607l2.598-2.774,1.037.971-6.357,6.79-1.037-.971,2.625-2.804-7.199-6.74,1.135-1.212,7.199,6.74Z"/><path d="M139.711,285.995l-.606,1.307-14.841-6.89.606-1.307,14.841,6.89Z"/><path d="M104.853,373.755c.278.032.514.079.708.143l-.185,1.589c-.137-.036-.432-.09-.671-.118-1.49-.173-2.526.433-2.704,1.962-.191,1.649.843,2.453,2.81,2.682l6.874.797-.191,1.649-6.953-.807c-2.901-.336-4.298-1.827-3.992-4.47.29-2.503,2.059-3.688,4.303-3.427Z"/><path d="M103.778,386.522l7.279.546-.124,1.655-7.279-.546c-1.994-.149-2.759.415-2.877,1.99s.554,2.248,2.548,2.397l7.279.546-.124,1.655-7.279-.546c-2.912-.219-4.075-1.549-3.879-4.162.196-2.612,1.545-3.755,4.457-3.536Z"/><path d="M104.632,402.017l5.628-3.545-.067,1.919-2.576,1.551-1.839,1.076,1.758,1.223,2.461,1.728-.066,1.879-5.326-3.93-5.955,3.733.067-1.919,2.944-1.777,1.778-1.059-1.701-1.16-2.811-2.021.065-1.858,5.638,4.16Z"/><path d="M108.475,414.503l-.061-3.801,1.42-.022.149,9.302-1.42.022-.062-3.841-9.862.158-.027-1.66,9.862-.158Z"/><path d="M110.161,426.747l.08,1.798-11.089,4.474-.08-1.797,2.637-1.018-.195-4.395-2.716-.78-.078-1.758,11.441,3.476ZM102.89,426.149l.157,3.555,1.672-.654,3.762-1.367-3.868-1.029-1.723-.504Z"/><path d="M110.688,436.336l.277,3.288c.235,2.79-.743,4.759-3.154,4.962-2.412.203-3.704-1.555-3.94-4.364l-.138-1.634-4.145.349-.14-1.653,11.24-.947ZM105.148,438.468l.14,1.653c.178,2.113,1.104,2.857,2.379,2.75,1.255-.105,2.063-.996,1.886-3.108l-.14-1.654-4.265.359Z"/><path d="M106.054,448.37c3.633-.452,6.054.698,6.43,3.716.374,2.997-1.64,4.639-5.213,5.084-3.633.452-6.034-.7-6.41-3.718-.373-2.997,1.64-4.64,5.193-5.082ZM106.998,455.469c1.886-.234,4.358-.784,4.051-3.246-.307-2.461-2.837-2.388-4.724-2.153-1.866.232-4.337.782-4.031,3.243.307,2.462,2.838,2.389,4.704,2.156Z"/><path d="M105.401,461.364l.266,1.599c-1.27.292-1.839,1.258-1.566,2.896.25,1.5,1.005,2.388,2.13,2.201.868-.145,1.167-.782,1.355-1.848l.451-2.528c.25-1.421.912-2.687,2.53-2.955,1.973-.328,3.304,1.215,3.668,3.404.374,2.249-.452,3.988-2.738,4.389l-.262-1.578c1.565-.342,1.756-1.509,1.573-2.613-.24-1.44-1.019-2.102-1.926-1.951-.75.125-1.138.717-1.303,1.677l-.451,2.528c-.333,1.9-.964,2.856-2.484,3.109-2.269.377-3.561-1.294-3.944-3.602-.42-2.525.472-4.356,2.702-4.728Z"/><path d="M115.544,472.756l1.495,7.185-1.39.289-1.157-5.56-3.328.692,1.006,4.836-1.39.289-1.006-4.836-3.543.737,1.157,5.561-1.39.289-1.495-7.185,11.042-2.298Z"/><path d="M151.554,564.829l.722,1.246-14.154,8.2-.722-1.245,14.154-8.201Z"/><path d="M208.788,638.53l2.46,2.201c2.087,1.866,2.728,3.97,1.114,5.773-1.613,1.805-3.76,1.414-5.862-.467l-1.222-1.094-2.774,3.102-1.237-1.107,7.521-8.408ZM206.225,643.885l1.237,1.107c1.581,1.413,2.765,1.319,3.619.365.84-.939.815-2.142-.765-3.556l-1.237-1.106-2.854,3.189Z"/><path d="M218.002,646.63l2.252,1.858c2.237,1.845,2.847,3.903,1.421,5.631-1.158,1.404-2.791,1.561-4.236.861l-.151,5.683-1.604-1.323.25-5.238-1.157-.954-2.672,3.239-1.281-1.056,7.178-8.701ZM215.655,652.084l.987.814c1.635,1.349,2.815,1.207,3.629.22.802-.972.729-2.172-.906-3.521l-.987-.814-2.724,3.301Z"/><path d="M223.37,658.346c2.214-2.915,4.729-3.844,7.15-2.005,2.405,1.827,2.174,4.415-.004,7.282-2.214,2.915-4.717,3.828-7.138,1.989-2.405-1.827-2.173-4.415-.007-7.267ZM229.11,662.63c1.149-1.513,2.483-3.666.507-5.166-1.975-1.5-3.691.361-4.84,1.875-1.138,1.497-2.471,3.649-.496,5.15,1.975,1.5,3.691-.361,4.829-1.859Z"/><path d="M236.237,660.896l1.46,1.019-1.834,6.158-1.164,3.627,2.946-2.335,5.17-3.88,1.427.996-9.703,6.985-1.509-1.053,3.207-11.518Z"/><path d="M243.634,672.921c1.972-3.083,4.402-4.211,6.962-2.573,2.543,1.626,2.521,4.223.582,7.255-1.972,3.083-4.391,4.194-6.952,2.557-2.543-1.627-2.521-4.224-.593-7.238ZM249.697,676.727c1.023-1.601,2.178-3.852.089-5.188s-3.648.657-4.671,2.258c-1.013,1.583-2.168,3.835-.079,5.171s3.648-.657,4.661-2.241Z"/><path d="M257.814,675.097l1.434.838-2.673,4.577,6.715-2.218,1.727,1.009-6.077,1.918.734,8.025-1.796-1.049-.455-6.52-1.876.596-1.987,3.402-1.434-.837,5.688-9.742Z"/><path d="M268.459,681.194l6.485,3.444-.666,1.255-5.019-2.665-1.595,3.004,4.364,2.317-.666,1.255-4.364-2.318-1.699,3.198,5.018,2.665-.666,1.255-6.485-3.444,5.292-9.966Z"/><path d="M362.267,712.349l1.419.241-2.746,16.127-1.419-.242,2.746-16.126Z"/><path class="cls-1" d="M414.125,137.884c-152.431,0-276,123.569-276,276s123.569,276,276,276,276-123.569,276-276-123.569-276-276-276ZM414.125,620.884c-114.323,0-207-92.677-207-207s92.677-207,207-207,207,92.677,207,207-92.677,207-207,207Z"/><path d="M457.052,653.222c-.701-3.532.32-6.1,3.518-6.734,2.688-.533,4.397.475,5.033,3.061l-2.198.436c-.398-1.287-1.111-1.9-2.465-1.632-2.198.436-2.009,2.52-1.631,4.423.448,2.257,1.112,3.858,3.29,3.427.942-.188,1.527-.731,1.846-1.182l-.393-1.982-2.354.467-.334-1.688,4.494-.891,1.218,6.142-1.845.366-.237-1.197c-.319.654-1.058,1.657-2.667,1.977-3.081.611-4.646-1.832-5.272-4.991Z"/><path d="M469.821,651.962c-.867-3.433,1.147-5.097,3.261-5.631,2.192-.554,4.677-.026,5.534,3.368l.118.465-6.71,1.695c.436,1.479,1.402,2.204,3.07,1.782,1.145-.288,1.822-.955,1.767-1.828l2.133-.539c.151,2.314-1.67,3.517-3.532,3.987-2.482.627-4.827-.081-5.64-3.3ZM476.233,649.249c-.507-1.275-1.619-1.593-2.744-1.309s-1.953,1.092-1.794,2.454l4.538-1.146Z"/><path d="M481.94,648.766c-1.051-3.4.986-5.139,2.992-5.759,2.14-.662,4.657-.372,5.72,3.066,1.045,3.382-.985,5.14-2.992,5.76-2.14.661-4.663.353-5.72-3.067ZM488.57,646.717c-.585-1.892-1.666-2.478-3.118-2.029-1.452.449-2.013,1.544-1.429,3.435.579,1.872,1.666,2.479,3.118,2.029,1.452-.448,2.008-1.562,1.429-3.435Z"/><path d="M492.126,640.921l1.521-.558.434,1.184c.089-.63.361-1.688,1.545-2.122.977-.357,1.755.082,2.158.658.081-.477.377-1.587,1.542-2.014,1.296-.475,2.228.44,2.833,2.094l2.099,5.729-1.784.653-1.982-5.409c-.372-1.015-.711-1.359-1.237-1.166-.507.186-.746.698-.892,1.114l2.25,6.143-1.784.653-1.982-5.409c-.372-1.015-.711-1.359-1.237-1.166-.507.186-.764.706-.91,1.121l2.25,6.143-1.785.653-3.042-8.302Z"/><path d="M505.683,640.612c-1.388-3.257.344-5.213,2.35-6.068,2.08-.886,4.617-.75,5.989,2.471l.188.441-6.367,2.714c.659,1.394,1.727,1.96,3.31,1.286,1.086-.463,1.652-1.227,1.462-2.08l2.024-.863c.508,2.263-1.105,3.733-2.872,4.486-2.355,1.004-4.782.668-6.084-2.387ZM511.598,636.938c-.699-1.181-1.847-1.322-2.914-.867s-1.76,1.381-1.392,2.703l4.306-1.836Z"/><path d="M519.663,635.095l-1.482-3.038-2.535,1.237-.746-1.528,2.534-1.237-1.798-3.685,1.923-.938,1.798,3.685,3.9-1.903.746,1.527-3.9,1.904,1.447,2.966c.729,1.491,1.271,1.872,2.601,1.224.737-.36,1.341-.855,1.784-1.361l.754,1.546c-.452.533-1.102,1.117-2.163,1.635-2.049,1-3.514.735-4.865-2.032Z"/><path d="M530.199,632.129l1.906-1.057-2.645-4.773-1.906,1.056-.824-1.486,3.533-1.957.969,1.749c-.143-1.041.036-2.534,1.557-3.377.577-.32,1.179-.471,1.636-.473l1.046,1.889c-.511-.014-1.183.176-1.69.457-1.224.678-1.62,1.696-1.723,2.417l1.918,3.462,3.252-1.802.814,1.469-7.03,3.896-.813-1.469Z"/><path d="M541.231,625.879l2.613-1.629-2.887-4.632-2.613,1.628-.899-1.442,4.429-2.76,3.786,6.074,2.393-1.49.888,1.425-6.821,4.251-.888-1.425ZM537.704,614.814l2.223-1.386,1.28,2.054-2.223,1.385-1.279-2.053Z"/><path d="M549.933,617.125c-2.08-2.985-.639-5.184,1.166-6.44,1.624-1.132,3.869-1.721,5.6.484l-1.771,1.234c-.875-1.047-1.816-.928-2.784-.254-1.279.892-1.538,2.095-.406,3.719,1.143,1.641,2.35,1.799,3.646.896.952-.663,1.4-1.487.722-2.671l1.771-1.234c1.446,2.354.078,4.308-1.514,5.416-1.821,1.269-4.372,1.804-6.429-1.149Z"/><path d="M606.505,552.985l4.629-6.621,1.541,1.078-3.357,4.801,2.704,1.892,2.911-4.163,1.541,1.077-2.911,4.163,3.589,2.509-1.272,1.819-9.374-6.555Z"/><path d="M618.992,547.229c-3.018-1.888-2.612-4.535-1.498-6.314,1.188-1.898,3.282-3.324,6.334-1.416,3,1.877,2.611,4.535,1.498,6.315-1.188,1.898-3.299,3.313-6.334,1.415ZM622.672,541.346c-1.678-1.05-2.88-.787-3.686.501-.806,1.289-.516,2.484,1.162,3.534,1.662,1.039,2.88.787,3.687-.501.806-1.288.499-2.494-1.163-3.534Z"/><path d="M628.239,537.397l1.06-1.904-4.77-2.654-1.06,1.905-1.485-.826,1.963-3.529,1.748.972c-.671-.809-1.31-2.17-.464-3.689.321-.577.752-1.023,1.139-1.266l1.887,1.05c-.441.258-.911.774-1.193,1.28-.681,1.224-.478,2.297-.185,2.964l3.459,1.924,1.808-3.249,1.468.816-3.907,7.023-1.468-.816Z"/><path d="M627.503,523.848l.714-1.455,1.132.556c-.371-.517-.906-1.47-.35-2.602.459-.934,1.325-1.155,2.015-1.017-.271-.4-.824-1.408-.277-2.521.608-1.239,1.915-1.222,3.496-.445l5.478,2.689-.838,1.706-5.172-2.54c-.97-.476-1.453-.49-1.7.013-.238.484-.055,1.021.126,1.422l5.873,2.884-.838,1.706-5.172-2.54c-.97-.477-1.453-.49-1.7.013-.238.484-.064,1.038.118,1.439l5.873,2.884-.838,1.706-7.938-3.897Z"/><path d="M638.62,514.74l.827-1.931c.896.297,1.641-.429,2.169-1.66.48-1.122.692-2.075-.062-2.398-.809-.347-1.465.83-2.46,2.341-.953,1.463-2.066,2.793-3.776,2.061-1.673-.717-1.65-2.752-.792-4.756.858-2.005,2.124-3.486,4.228-2.76l-.827,1.931c-.938-.249-1.523.61-1.885,1.456-.48,1.121-.527,1.841.024,2.077.735.315,1.282-.604,2.421-2.401.885-1.405,2.058-2.773,3.731-2.058,1.967.843,1.834,2.983.858,5.264-.929,2.169-2.428,3.638-4.456,2.835Z"/><path d="M649.66,426.626l.073-1.438,16.338.823-.072,1.438-16.339-.824Z"/><path d="M647.701,345.998c-3.513,1.095-6.154.348-7.124-2.764-.976-3.131.733-5.172,4.188-6.249,3.474-1.083,6.148-.366,7.124,2.765.97,3.111-.695,5.159-4.188,6.248ZM645.496,339.125c-1.928.601-3.779,1.45-3.118,3.569.661,2.118,2.666,1.766,4.594,1.165,1.89-.59,3.779-1.45,3.118-3.569s-2.704-1.754-4.594-1.165Z"/><path d="M647.395,332.047l-.755-2.046-5.124,1.892.755,2.046-1.595.589-1.399-3.791,1.877-.693c-1.051-.017-2.501-.42-3.104-2.053-.229-.619-.287-1.238-.219-1.689l2.027-.748c-.092.503-.006,1.196.194,1.74.485,1.314,1.433,1.859,2.13,2.072l3.716-1.372-1.289-3.491,1.577-.582,2.785,7.545-1.576.582Z"/><path d="M645.064,319.68l-.812-1.893c.932-.465,1.349-1.166.749-2.562-.726-1.69-1.713-1.506-2.797-1.04l-1.157.496c.57.213,1.455.703,1.991,1.952.812,1.893.215,3.998-2.577,5.197-2.811,1.207-4.809.15-5.598-1.687-.568-1.323-.301-2.525.103-3.156l-1.047.45-.734-1.709,8.341-3.581c2.187-.938,3.843-.171,4.995,2.512.773,1.8,1.074,3.868-1.456,5.021ZM639.705,315.257l-3.527,1.515c-.223.597-.283,1.318.049,2.09.607,1.415,1.878,1.587,3.348.956s2.201-1.663,1.594-3.078c-.331-.771-.877-1.233-1.463-1.482Z"/><path d="M637.415,309.297c-1.83.899-3.117-.495-3.92-2.128-.406-.826-.694-1.775-.78-2.312l-.646.317c-1.023.503-1.742,1.079-1.019,2.551.547,1.112,1.313,1.538,2.246,1.079l.891,1.812c-2.171,1.067-3.78-.348-4.724-2.268-1.014-2.063-.814-3.878,1.411-4.972l3.284-1.613c.305-.15.36-.311.201-.634-.105-.216-.318-.512-.478-.701l1.274-.626c.302.252.781.774,1.072,1.366.494,1.005.115,1.548-.478,1.839l-.144.07c.724.157,1.891.675,2.694,2.308.759,1.544.694,3.135-.885,3.911ZM634.905,303.781l-1.005.494c.078.385.368,1.155.703,1.838.52,1.059,1.062,1.661,1.815,1.291.61-.3.659-.881.227-1.76-.494-1.005-1.223-1.627-1.74-1.863Z"/><path d="M625.738,300.596l-.905-1.625,1.048-.584c-.711-.085-1.827-.402-2.557-1.712-.818-1.468-.909-3.111,1.589-4.503l4.77-2.658,1.042,1.869-4.403,2.453c-1.258.701-1.793,1.343-1.16,2.479.467.839,1.062,1.126,1.614,1.253l5.643-3.145,1.042,1.87-7.723,4.303Z"/><path d="M614.719,289.774l-1.391-2.221,2.051-1.285,1.391,2.221-2.051,1.285ZM625.782,286.219l-1.635-2.61-4.628,2.898,1.635,2.611-1.441.902-2.772-4.425,6.069-3.802-1.498-2.391,1.424-.892,4.27,6.814-1.424.893Z"/><path d="M617.008,277.543c-2.98,2.088-5.182.652-6.444-1.148-1.136-1.621-1.732-3.864.468-5.602l1.239,1.769c-1.044.878-.922,1.818-.246,2.784.895,1.277,2.099,1.532,3.72.396,1.637-1.147,1.792-2.354.886-3.647-.666-.95-1.492-1.396-2.674-.715l-1.239-1.768c2.352-1.453,4.308-.09,5.421,1.499,1.273,1.817,1.815,4.367-1.131,6.433Z"/><path d="M552.713,221.138l-6.633-4.617,1.074-1.543,4.811,3.349,1.886-2.709-4.17-2.903,1.075-1.543,4.17,2.902,2.503-3.596,1.823,1.269-6.538,9.392Z"/><path d="M546.927,208.664c-1.882,3.022-4.532,2.622-6.315,1.512-1.902-1.185-3.333-3.277-1.43-6.334,1.872-3.006,4.532-2.622,6.315-1.512,1.902,1.184,3.322,3.294,1.43,6.334ZM541.034,204.994c-1.047,1.682-.782,2.884.509,3.688,1.291.804,2.486.511,3.533-1.171,1.036-1.664.782-2.883-.509-3.687-1.291-.804-2.497-.494-3.533,1.17Z"/><path d="M537.071,199.446l-1.908-1.055-2.641,4.778,1.908,1.054-.822,1.488-3.535-1.954.967-1.751c-.807.674-2.167,1.316-3.689.475-.578-.319-1.025-.75-1.269-1.136l1.044-1.89c.259.44.777.909,1.285,1.189,1.225.678,2.299.471,2.964.176l1.916-3.465-3.255-1.8.812-1.47,7.036,3.889-.812,1.471Z"/><path d="M523.522,200.21l-1.456-.71.553-1.133c-.515.372-1.467.909-2.6.355-.935-.456-1.158-1.321-1.021-2.012-.4.272-1.405.828-2.52.284-1.24-.605-1.226-1.912-.454-3.494l2.676-5.482,1.708.834-2.527,5.177c-.474.971-.487,1.454.016,1.699.485.237,1.021.053,1.421-.13l2.869-5.878,1.708.834-2.527,5.177c-.474.971-.487,1.454.017,1.699.485.237,1.038.062,1.439-.121l2.869-5.878,1.708.834-3.878,7.944Z"/><path d="M514.405,189.129l-1.932-.822c.294-.896-.433-1.64-1.666-2.164-1.123-.478-2.076-.688-2.397.066-.344.811.833,1.464,2.346,2.454,1.465.949,2.797,2.06,2.069,3.771-.712,1.675-2.748,1.657-4.753.804-2.006-.854-3.49-2.115-2.769-4.221l1.932.822c-.247.938.613,1.521,1.459,1.882,1.123.478,1.842.522,2.077-.029.313-.736-.607-1.28-2.407-2.415-1.407-.881-2.778-2.051-2.066-3.726.837-1.969,2.978-1.841,5.26-.87,2.171.924,3.644,2.419,2.845,4.448Z"/><path d="M426.261,178.318l-1.438-.067.774-16.339,1.438.068-.773,16.338Z"/><path d="M346.546,186.255l-3.204,1.007c-2.728.858-4.984.414-5.781-2.122-.492-1.564.203-3.02,1.362-3.866l-4.447-3.212,2.594-.816,3.812,2.993,1.316-.413-1.2-3.814,2.117-.666,3.43,10.91ZM342.738,181.542l-1.087.342c-1.697.533-2.281,1.408-1.916,2.572.366,1.163,1.346,1.547,3.043,1.013l1.087-.342-1.127-3.585Z"/><path d="M332.356,181.258c.711,1.911-.806,3.052-2.511,3.687-.862.32-1.836.513-2.379.544l.251.675c.397,1.067.899,1.841,2.435,1.27,1.162-.433,1.662-1.152,1.299-2.126l1.893-.705c.844,2.268-.725,3.727-2.73,4.473-2.155.802-3.939.421-4.804-1.903l-1.276-3.429c-.118-.318-.272-.389-.61-.264-.225.084-.541.266-.745.405l-.495-1.33c.282-.275.849-.7,1.467-.93,1.049-.391,1.551.041,1.781.659l.056.15c.229-.704.861-1.814,2.566-2.449,1.611-.6,3.188-.375,3.802,1.273ZM326.616,183.202l.39,1.05c.391-.039,1.187-.25,1.899-.516,1.105-.411,1.759-.889,1.467-1.676-.237-.638-.811-.744-1.729-.402-1.049.391-1.741,1.054-2.028,1.544Z"/><path d="M322.524,192l-1.708.738-.476-1.102c-.155.699-.583,1.777-1.959,2.372-1.542.667-3.186.593-4.321-2.032l-2.166-5.011,1.964-.85,2,4.626c.571,1.322,1.156,1.919,2.349,1.403.881-.381,1.226-.944,1.408-1.48l-2.562-5.929,1.964-.85,3.507,8.113Z"/><path d="M309.934,192.73c1.448,2.923.456,4.932-1.265,5.784-1.255.622-2.364.367-2.864.169l2.229,4.5-1.918.95-5.746-11.601,1.667-.825.515,1.04c.137-.761.669-1.851,2.014-2.517,1.757-.87,3.921-.424,5.368,2.499ZM303.336,193.699l1.83,3.693c.554.172,1.314.22,2.121-.18,1.363-.676,1.43-1.981.675-3.506-.755-1.523-1.834-2.262-3.197-1.587-.807.4-1.229,1.034-1.429,1.579Z"/><path d="M298.709,198.384c1.741,3.104.114,5.231-1.717,6.259-1.953,1.096-4.475,1.341-6.236-1.799-1.731-3.087-.114-5.231,1.717-6.259,1.954-1.096,4.485-1.323,6.236,1.799ZM292.657,201.778c.968,1.728,2.148,2.074,3.474,1.33,1.325-.743,1.645-1.931.677-3.657-.958-1.709-2.149-2.073-3.474-1.33-1.326.743-1.635,1.948-.677,3.657Z"/><path d="M290.415,208.186l-1.371.863-.672-1.066c.044.635,0,1.727-1.066,2.398-.88.555-1.733.288-2.249-.19.021.483-.036,1.63-1.085,2.292-1.167.735-2.271.036-3.209-1.453l-3.253-5.161,1.608-1.014,3.072,4.874c.576.913.979,1.179,1.454.88.457-.287.582-.839.638-1.276l-3.488-5.533,1.607-1.014,3.072,4.874c.576.913.98,1.179,1.454.881.457-.288.599-.851.655-1.288l-3.488-5.533,1.607-1.014,4.714,7.48Z"/><path d="M228.366,266.07l-4.932,6.399-1.489-1.147,3.577-4.642-2.613-2.014-3.101,4.023-1.489-1.147,3.101-4.023-3.469-2.674,1.355-1.758,9.06,6.982Z"/><path d="M215.629,271.248c2.928,2.026,2.4,4.652,1.205,6.38-1.275,1.842-3.434,3.17-6.395,1.121-2.912-2.016-2.399-4.653-1.205-6.38,1.275-1.843,3.451-3.159,6.395-1.121ZM211.679,276.956c1.628,1.127,2.842.92,3.707-.33.865-1.25.631-2.458-.998-3.585-1.612-1.116-2.841-.921-3.707.329s-.614,2.47.998,3.586Z"/><path d="M205.941,280.64l-1.147,1.854,4.645,2.875,1.148-1.854,1.446.895-2.126,3.437-1.702-1.053c.634.839,1.208,2.23.292,3.71-.348.562-.799.988-1.197,1.213l-1.837-1.138c.453-.237.947-.731,1.252-1.225.737-1.191.584-2.274.322-2.954l-3.369-2.084-1.958,3.164-1.429-.885,4.232-6.839,1.429.884Z"/><path d="M206.045,294.213l-.78,1.42-1.104-.606c.346.533.837,1.51.23,2.614-.5.911-1.376,1.093-2.059.923.252.413.759,1.443.162,2.531-.665,1.209-1.968,1.132-3.511.285l-5.348-2.937.915-1.666,5.049,2.773c.947.52,1.429.556,1.698.065.26-.474.102-1.017-.062-1.426l-5.733-3.148.915-1.666,5.049,2.773c.947.52,1.429.556,1.698.065.26-.474.112-1.034-.052-1.443l-5.733-3.148.915-1.666,7.75,4.256Z"/><path d="M194.528,302.787l-.915,1.891c-.881-.338-1.659.353-2.243,1.559-.531,1.099-.788,2.041-.049,2.398.792.383,1.502-.763,2.565-2.226,1.02-1.418,2.193-2.694,3.867-1.884,1.639.793,1.522,2.825.572,4.788-.95,1.962-2.282,3.384-4.351,2.561l.915-1.891c.925.293,1.549-.538,1.95-1.367.532-1.098.612-1.814.072-2.076-.72-.349-1.308.545-2.529,2.287-.948,1.363-2.184,2.677-3.822,1.884-1.927-.933-1.695-3.064-.614-5.297,1.028-2.125,2.593-3.522,4.582-2.627Z"/><path d="M179.423,390.294l-.137,1.434-16.289-1.56.137-1.434,16.289,1.56Z"/><path d="M183.483,470.297l2.041,7.816-1.819.475-1.48-5.669-3.192.834,1.283,4.914-1.819.475-1.283-4.914-4.237,1.105-.561-2.147,11.067-2.889Z"/><path d="M179.783,483.546c3.393-1.078,5.147.945,5.784,2.946.679,2.135.409,4.654-3.021,5.744-3.373,1.072-5.147-.944-5.783-2.945-.679-2.135-.39-4.66,3.021-5.745ZM181.885,490.159c1.887-.6,2.465-1.686,2.004-3.134s-1.559-2.002-3.446-1.402c-1.868.594-2.465,1.687-2.004,3.135s1.579,1.995,3.446,1.401Z"/><path d="M182.928,496.477l5.111-1.921.752,2.004-4.718,1.772c-1.348.507-1.973,1.062-1.516,2.278.338.899.883,1.271,1.41,1.479l6.047-2.271.753,2.003-8.275,3.109-.654-1.741,1.124-.422c-.691-.189-1.747-.669-2.274-2.073-.591-1.572-.438-3.211,2.24-4.217Z"/><path d="M192.481,506.056l.742,1.706-1.101.479c.7.153,1.779.578,2.377,1.954.67,1.54.601,3.185-2.022,4.326l-5.007,2.179-.854-1.963,4.622-2.011c1.32-.574,1.916-1.161,1.397-2.354-.383-.88-.947-1.224-1.484-1.404l-5.924,2.577-.854-1.962,8.107-3.527Z"/><path d="M193.237,518.639c2.917-1.455,4.929-.469,5.786,1.249.625,1.253.373,2.362.176,2.863l4.493-2.241.955,1.915-11.581,5.775-.83-1.664,1.038-.518c-.76-.135-1.851-.664-2.521-2.007-.875-1.754-.434-3.918,2.483-5.373ZM194.223,525.233l3.687-1.839c.17-.555.216-1.314-.186-2.12-.678-1.36-1.984-1.425-3.505-.666s-2.256,1.841-1.578,3.201c.402.805,1.037,1.227,1.582,1.424Z"/><path d="M248.513,583.949l5.881,5.542-1.29,1.368-4.265-4.02-2.263,2.402,3.697,3.483-1.29,1.369-3.697-3.484-3.004,3.188-1.616-1.522,7.847-8.326Z"/><path d="M252.38,597.127c2.306-2.711,4.866-1.925,6.464-.564,1.706,1.451,2.812,3.73.479,6.472-2.293,2.695-4.865,1.925-6.464.564-1.706-1.451-2.798-3.746-.479-6.472ZM257.664,601.622c1.283-1.508,1.198-2.734.041-3.719-1.158-.985-2.382-.872-3.665.636-1.27,1.492-1.198,2.734-.04,3.719,1.157.985,2.395.856,3.665-.636Z"/><path d="M260.751,607.691l1.729,1.325,3.32-4.332-1.73-1.325,1.034-1.35,3.206,2.457-1.216,1.587c.897-.547,2.338-.979,3.718.078.524.401.902.894,1.086,1.312l-1.313,1.714c-.191-.475-.633-1.015-1.094-1.367-1.111-.852-2.203-.807-2.905-.614l-2.408,3.143,2.952,2.262-1.022,1.333-6.379-4.889,1.021-1.333Z"/><path d="M274.285,608.956l1.335.918-.714,1.038c.565-.291,1.586-.682,2.624.033.857.589.949,1.479.712,2.141.436-.21,1.513-.61,2.535.093,1.137.782.929,2.071-.068,3.521l-3.458,5.026-1.566-1.077,3.265-4.746c.612-.89.697-1.365.235-1.683-.445-.307-1.001-.203-1.424-.082l-3.708,5.389-1.565-1.077,3.265-4.746c.612-.89.697-1.365.235-1.683-.445-.307-1.018-.215-1.441-.094l-3.707,5.389-1.566-1.077,5.011-7.283Z"/><path d="M281.666,621.274l1.788,1.101c-.424.843.183,1.687,1.324,2.389,1.039.64,1.95.989,2.38.291.461-.749-.606-1.57-1.954-2.776-1.308-1.156-2.459-2.452-1.484-4.036.954-1.55,2.963-1.229,4.82-.086,1.856,1.143,3.136,2.611,2.108,4.586l-1.788-1.101c.384-.892-.38-1.596-1.163-2.078-1.039-.64-1.744-.792-2.058-.281-.419.682.41,1.356,2.02,2.746,1.26,1.081,2.442,2.442,1.488,3.992-1.122,1.822-3.219,1.377-5.331.076-2.009-1.236-3.242-2.935-2.15-4.822Z"/><path d="M367.202,645.085l1.413.28-3.183,16.052-1.413-.28,3.183-16.052Z"/><path class="cls-1" d="M414.125,206.739c-114.323,0-207,92.677-207,207s92.677,207,207,207,207-92.677,207-207-92.677-207-207-207ZM414.125,551.739c-76.215,0-138-61.785-138-138s61.785-138,138-138,138,61.785,138,138-61.785,138-138,138Z"/><path d="M421.525,591.003l2.205-.126-.386-6.742-2.205.126-.065-1.134,5.72-.328.065,1.135-2.189.125.387,6.742,2.188-.126.065,1.135-5.719.328-.065-1.135Z"/><path d="M431.034,584.493l1.049-.12.105.922c.278-.531.91-1.199,2.15-1.341,1.161-.133,2.397.258,2.66,2.563l.487,4.261-1.256.144-.456-3.99c-.149-1.305-.473-2.024-1.681-1.887-.938.107-1.412.612-1.618.926l.606,5.311-1.256.144-.792-6.932Z"/><path d="M440.227,580.075l1.246-.216,1.068,6.163,2.967-3.583,1.655-.286-2.6,3.08,3.948,3.765-1.529.265-3.179-3.167-1.042,1.203.454,2.617-1.246.216-1.743-10.057Z"/><path d="M462.235,575.084l1.103-.332,3.782,12.531-1.103.333-3.782-12.532Z"/><path d="M480.89,574.528c-1.166-2.651-.759-4.788,1.424-5.747,1.567-.689,3.15-.389,4.14,1.623l-1.172.516c-.658-1.18-1.391-1.574-2.46-1.104-1.86.817-1.303,2.723-.666,4.173.734,1.67,1.718,3.072,3.432,2.319.762-.335,1.146-.854,1.405-1.457l-.805-1.831-1.934.851-.444-1.011,3.105-1.365,1.958,4.453-.952.418-.399-.908c-.083.526-.532,1.493-1.748,2.027-2.241.985-3.924-.774-4.883-2.957Z"/><path d="M491.998,573.269l1.61-.822-2.198-4.304-1.61.822-.487-.955,2.551-1.303.721,1.411c-.064-.758.062-1.99,1.373-2.66.484-.247.992-.345,1.185-.354l.59,1.154c-.229.01-.693.121-1.149.354-1.083.554-1.398,1.415-1.485,2.053l1.638,3.206,2.693-1.375.488.955-5.43,2.772-.488-.955Z"/><path d="M500.346,568.071c-.817-1.395.21-2.459,1.37-3.139.58-.34,1.354-.663,1.864-.776l-.308-.524c-.542-.926-1.095-1.584-2.393-.824-.994.582-1.254,1.31-.77,2.138l-1.049.615c-1.011-1.727.153-3.001,1.368-3.713,1.588-.93,2.883-.65,3.806.924l1.601,2.734c.137.235.269.27.518.124.193-.113.431-.309.62-.493l.453.773c-.165.226-.492.585-.92.835-.718.421-1.141.112-1.375-.289l-.064-.11c-.075.601-.453,1.508-1.654,2.211-1.16.68-2.371.702-3.066-.485ZM504.582,565.869l-.55-.939c-.38.111-1,.382-1.608.737-.939.551-1.392,1.075-1.004,1.738.315.538.842.582,1.629.121.801-.469,1.276-1.081,1.532-1.657Z"/><path d="M506.621,558.273l.879-.585.497.746c.04-.604.334-1.491,1.306-2.138,1.239-.825,2.983-.774,4.446,1.423,1.41,2.118.875,3.8-.403,4.651-.879.585-1.771.544-2.197.424l1.986,2.984-1.053.7-5.461-8.206ZM512.683,558.43c-.851-1.279-1.929-1.83-3.074-1.068-.64.426-.942,1.012-1.049,1.544l2.092,3.144c.532.107,1.189.055,1.829-.371,1.146-.763,1.053-1.97.202-3.248Z"/><path d="M512.828,550.13l1.01-.759,2.394,3.184c.006-.444.13-1.238,1.089-1.959.946-.712,2.223-1.011,3.616.844l2.577,3.427-1.01.759-2.413-3.209c-.788-1.049-1.432-1.506-2.403-.775-.755.567-.907,1.243-.926,1.617l3.211,4.271-1.01.76-6.133-8.158Z"/><path d="M522.123,542.859l1.234-1.041,1.042,1.234-1.234,1.042-1.042-1.235ZM526.217,551.355l1.931-1.63-3.115-3.691-1.931,1.63-.691-.819,2.896-2.444,3.806,4.51,1.76-1.485.691.819-4.657,3.93-.691-.818Z"/><path d="M533.87,542.32l-2.112-2.229-1.661,1.573-.737-.778,1.66-1.573-2.222-2.346.917-.869,2.222,2.346,2.485-2.354.737.778-2.485,2.354,2.079,2.194c.979,1.033,1.563,1.208,2.445.371.511-.483.818-.974,1.022-1.387l.737.778c-.086.235-.431.849-1.139,1.52-1.219,1.155-2.322,1.34-3.95-.378Z"/><path d="M539.24,536.226c-2.026-1.909-1.448-3.805-.34-4.98,1.075-1.141,2.954-1.898,4.992.021l.186.176-3.796,4.028c1.15.995,2.249,1.042,3.247-.018.757-.804.913-1.668.382-2.388l.878-.932c1.153,1.482.397,3.078-.525,4.056-1.272,1.351-3.114,1.835-5.023.036ZM542.49,531.727c-1.029-.75-2.055-.617-2.845.221-.79.838-.861,1.87-.051,2.854l2.896-3.074Z"/><path d="M549.345,513.998l.684-.928,10.535,7.764-.684.928-10.535-7.764Z"/><path d="M563.966,502.41c-2.661-1.504-3.456-3.479-2.259-5.597.764-1.352,2.205-2.504,4.348-1.384l-.63,1.114c-1.219-.542-2.141-.181-2.731.864-1,1.77.417,2.938,1.949,3.804,1.449.818,3.194,1.438,4.194-.331.669-1.185.447-2.027-.662-2.765l.638-1.128c1.98,1.211,1.838,3.024,1.02,4.473-1.236,2.188-3.317,2.39-5.867.949Z"/><path d="M563.977,490.528l.558-1.135,3.575,1.759c-.196-.399-.444-1.163.086-2.24.523-1.062,1.526-1.906,3.608-.882l3.848,1.894-.558,1.134-3.604-1.772c-1.177-.58-1.958-.696-2.495.395-.417.848-.248,1.52-.095,1.861l4.795,2.36-.558,1.134-9.161-4.507Z"/><path d="M575.671,485.575c-1.489-.628-1.303-2.096-.78-3.334.261-.619.688-1.342,1.029-1.736l-.56-.237c-.988-.417-1.825-.614-2.41.771-.448,1.062-.222,1.8.663,2.173l-.473,1.12c-1.842-.777-1.673-2.495-1.125-3.792.716-1.695,1.921-2.246,3.602-1.536l2.918,1.232c.25.106.376.055.488-.21.087-.207.162-.506.202-.767l.825.349c.004.279-.044.764-.237,1.22-.324.767-.847.771-1.274.591l-.118-.05c.299.526.54,1.479-.002,2.761-.523,1.238-1.479,1.981-2.747,1.445ZM577.747,481.276l-1.002-.423c-.238.316-.573.904-.847,1.553-.423,1.002-.472,1.693.235,1.992.575.243,1.023-.037,1.378-.877.361-.854.375-1.63.236-2.245Z"/><path d="M580.336,476.117l.811-2.276-7.613-2.712-.811,2.276-.995-.354,1.235-3.468,8.608,3.067.811-2.276,1.01.359-2.046,5.744-1.01-.36Z"/><path d="M574.919,463.738l.354-1.214,6.008,1.754-1.913-4.244.471-1.613,1.624,3.692,5.121-1.89-.436,1.49-4.245,1.462.623,1.466,2.551.744-.354,1.214-9.803-2.861Z"/><path d="M580.123,441.77l.187-1.137,12.918,2.121-.187,1.138-12.918-2.122Z"/><path d="M583.352,423.889l.111-2.638c.094-2.239,1.068-3.704,3.003-3.623s2.784,1.606,2.689,3.861l-.055,1.312,3.326.14-.056,1.327-9.019-.379ZM587.965,422.753l.056-1.327c.071-1.695-.589-2.379-1.612-2.422-1.008-.043-1.739.583-1.81,2.278l-.056,1.327,3.422.144Z"/><path d="M590.885,414.628c-1.615.026-2.038-1.391-2.06-2.733-.011-.672.087-1.506.239-2.004l-.607.01c-1.071.018-1.917.176-1.892,1.679.019,1.151.524,1.734,1.483,1.72l.02,1.215c-1.999.032-2.537-1.606-2.56-3.014-.03-1.839.85-2.829,2.673-2.858l3.166-.052c.272-.004.367-.102.362-.39-.003-.224-.057-.526-.125-.781l.896-.015c.116.254.268.715.275,1.211.014.832-.463,1.047-.927,1.055l-.128.002c.486.36,1.09,1.134,1.113,2.525.022,1.344-.553,2.408-1.928,2.431ZM591.048,409.858l-1.087.018c-.089.386-.159,1.059-.147,1.763.018,1.087.252,1.739,1.02,1.727.624-.01.92-.447.906-1.358-.015-.928-.314-1.643-.691-2.148Z"/><path d="M590.23,404.345l-.084-1.182c.843-.107,1.239-.857,1.135-2.325-.069-.974-.333-1.757-1.083-1.704-.846.06-.9,1.106-1.113,2.629-.18,1.312-.494,2.537-1.819,2.631-1.389.099-2.057-1.186-2.174-2.846-.113-1.596.335-2.975,1.986-3.22l.083,1.181c-.961.244-1.056,1.166-.997,2.012.077,1.085.374,1.657.933,1.618.83-.059.855-1.296,1.032-2.64.19-1.393.527-2.523,1.868-2.618,1.532-.108,2.238,1.253,2.361,2.993.133,1.883-.441,3.287-2.128,3.471Z"/><path d="M588.57,392.584l-3.047.39.29,2.27-1.063.136-.291-2.269-3.206.409-.16-1.253,3.206-.41-.435-3.396,1.063-.136.434,3.396,3-.384c1.412-.181,1.897-.549,1.743-1.755-.089-.698-.303-1.236-.517-1.644l1.063-.137c.14.208.431.849.555,1.816.213,1.666-.288,2.666-2.637,2.966Z"/><path d="M586.808,384.639c-2.737.512-3.93-1.072-4.227-2.661-.289-1.542.207-3.507,2.959-4.022l.252-.047,1.019,5.443c1.482-.343,2.168-1.204,1.9-2.636-.203-1.085-.811-1.721-1.705-1.716l-.236-1.259c1.878-.059,2.722,1.493,2.97,2.814.341,1.825-.352,3.6-2.932,4.083ZM585.087,379.359c-1.213.39-1.711,1.297-1.499,2.43s1.004,1.799,2.276,1.724l-.777-4.153Z"/><path d="M587.113,373.873l-.581-2.346-7.844,1.942.581,2.346-1.025.253-.884-3.572,8.87-2.195-.581-2.346,1.041-.258,1.465,5.918-1.041.258Z"/><path d="M571.643,354.28l-.411-1.077,12.232-4.668.411,1.077-12.232,4.668Z"/><path d="M565.444,337.219l-1.233-2.334c-1.047-1.98-.943-3.736.768-4.641s3.213-.016,4.268,1.979l.613,1.16,2.942-1.555.621,1.174-7.978,4.217ZM568.855,333.914l-.621-1.174c-.792-1.5-1.708-1.758-2.613-1.279-.891.471-1.207,1.38-.415,2.879l.621,1.174,3.027-1.6Z"/><path d="M567.255,325.401c-1.384.836-2.462-.177-3.157-1.328-.347-.575-.681-1.346-.801-1.854l-.521.314c-.918.554-1.57,1.115-.792,2.403.595.987,1.326,1.237,2.148.741l.628,1.041c-1.713,1.034-3.003-.112-3.731-1.318-.951-1.576-.688-2.875.874-3.817l2.713-1.638c.233-.141.266-.272.117-.519-.116-.192-.314-.428-.501-.614l.767-.463c.229.161.591.484.848.909.43.713.127,1.139-.271,1.379l-.11.065c.602.067,1.514.433,2.233,1.625.695,1.151.734,2.361-.445,3.072ZM564.996,321.194l-.932.562c.116.378.395.995.759,1.598.562.932,1.093,1.378,1.751.981.535-.323.572-.85.1-1.631-.479-.795-1.099-1.263-1.678-1.511Z"/><path d="M553.468,319.287l-.914-1.333,1.333-.914.914,1.333-1.333.914ZM562.334,316.061l-1.429-2.085-3.986,2.732,1.43,2.085-.884.606-2.145-3.128,4.871-3.339-1.303-1.9.884-.606,3.448,5.028-.885.606Z"/><path d="M551.7,311.196l-.646-.836.735-.567c-.598.037-1.497-.158-2.26-1.146-.714-.924-1.02-2.185.816-3.603l3.394-2.621.773,1-3.179,2.455c-1.039.803-1.487,1.452-.744,2.415.577.747,1.254.891,1.629.904l4.23-3.267.772,1.001-5.522,4.265Z"/><path d="M547.793,299.692l-2.32,2.013,1.499,1.729-.81.702-1.499-1.729-2.441,2.118-.828-.955,2.441-2.117-2.244-2.586.81-.703,2.244,2.587,2.284-1.981c1.075-.934,1.275-1.509.478-2.427-.461-.532-.937-.86-1.34-1.082l.81-.702c.231.096.829.467,1.468,1.204,1.101,1.269,1.237,2.379-.551,3.93Z"/><path d="M527.492,289.314l-.854-.773,8.787-9.698.854.773-8.787,9.698Z"/><path d="M518.983,270.528l-1.973-1.396-4.669,6.596,1.972,1.396-.61.862-3.004-2.127,5.28-7.458-1.972-1.396.62-.875,4.976,3.522-.619.876Z"/><path d="M503.764,271.241l-1.37-.857.857-1.37,1.37.857-.857,1.37ZM510.603,264.742l-2.143-1.341-2.562,4.097,2.144,1.341-.568.909-3.215-2.011,3.131-5.006-1.954-1.222.568-.909,5.168,3.232-.568.909Z"/><path d="M502.911,258.156l-1.081-.592c.463-.879.252-1.56-.857-2.167-1.46-.8-2.036-.148-2.521.736l-.446.813c.42-.134,1.262-.238,2.189.269,1.375.754,2.054,2.349.846,4.552-1.223,2.232-2.974,2.496-4.307,1.766-.997-.546-1.4-1.442-1.472-2.011l-.431.786-.926-.508,3.483-6.359c.854-1.558,2.075-2.021,4.068-.929,1.432.784,2.393,1.896,1.454,3.644ZM497.552,257.776l-1.769,3.229c.171.587.546,1.103,1.164,1.44,1.208.661,2.241.041,2.963-1.278.723-1.319.689-2.524-.518-3.186-.618-.339-1.254-.377-1.841-.205Z"/><path d="M488.834,262.835l-1.142-.543,1.709-3.598c-.396.201-1.157.459-2.241-.056-1.069-.508-1.927-1.5-.931-3.595l1.84-3.873,1.142.543-1.724,3.627c-.563,1.185-.669,1.967.429,2.488.853.405,1.522.228,1.862.07l2.293-4.826,1.142.542-4.381,9.22Z"/><path d="M481.529,251.431l-1.157,2.848,2.121.862-.404.993-2.121-.861-1.217,2.996-1.172-.477,1.218-2.996-3.174-1.29.404-.993,3.174,1.29,1.139-2.804c.536-1.32.454-1.924-.674-2.382-.652-.266-1.226-.343-1.687-.357l.404-.993c.25-.02.951.041,1.856.408,1.557.633,2.182,1.561,1.29,3.756Z"/><path d="M458.763,251.395l-1.112-.301,3.42-12.632,1.112.301-3.42,12.632Z"/><path d="M442.722,240.082l-1.283-.185c.084-1.038-.515-1.706-1.83-1.895-1.204-.173-2.064.188-2.193,1.091-.1.697.314,1.08,1.081,1.48l1.819.957c1.022.534,1.828,1.345,1.641,2.644-.228,1.584-1.726,2.226-3.484,1.974-1.806-.26-2.932-1.311-2.684-3.149l1.267.182c-.119,1.276.725,1.704,1.612,1.832,1.156.166,1.849-.269,1.954-.997.086-.602-.271-1.041-.963-1.399l-1.819-.956c-1.369-.714-1.945-1.427-1.77-2.646.261-1.821,1.848-2.401,3.701-2.136,2.027.291,3.208,1.414,2.951,3.204Z"/><path d="M430.78,238.815l-.264,3.062,2.28.196-.092,1.068-2.28-.196-.277,3.221-1.26-.108.277-3.221-3.412-.294.092-1.068,3.413.294.259-3.014c.122-1.42-.135-1.972-1.347-2.076-.702-.061-1.272.035-1.716.157l.092-1.068c.233-.092.92-.242,1.893-.158,1.674.145,2.546.846,2.342,3.206Z"/><path d="M422.385,236.445l-1.807-.052-.138,4.829,1.807.052-.031,1.071-2.863-.082.045-1.583c-.308.695-1.009,1.716-2.48,1.674-.543-.016-1.035-.174-1.209-.259l.037-1.296c.205.103.666.228,1.177.242,1.216.034,1.905-.569,2.288-1.087l.103-3.598-3.022-.087.031-1.071,6.093.174-.031,1.072Z"/><path d="M412.193,236.267l-2.526.07.133,4.829,2.527-.07.03,1.071-3.79.105-.164-5.901-2.303.064-.029-1.072,6.093-.168.029,1.071ZM410.095,245.463l-1.615.044-.045-1.614,1.615-.045.044,1.615Z"/><path d="M402.331,242.562l-1.052.089-.078-.925c-.293.522-.945,1.171-2.189,1.275-1.164.099-2.388-.328-2.583-2.641l-.36-4.273,1.26-.105.337,4.002c.11,1.308.413,2.037,1.625,1.935.941-.079,1.429-.569,1.645-.877l-.449-5.326,1.26-.105.585,6.952Z"/><path d="M391.933,235.997l-1.22.174c-.156-.979-.733-1.398-1.984-1.22-1.647.234-1.718,1.102-1.575,2.099l.131.919c.256-.359.867-.948,1.912-1.097,1.552-.222,3.05.647,3.404,3.135.359,2.518-.883,3.778-2.388,3.992-1.125.16-1.984-.314-2.382-.727l.126.887-1.045.149-1.023-7.175c-.25-1.759.449-2.86,2.698-3.181,1.616-.23,3.05.082,3.346,2.044ZM387.418,238.903l.519,3.643c.489.367,1.098.555,1.794.455,1.362-.194,1.817-1.31,1.605-2.798-.212-1.489-.961-2.433-2.323-2.238-.697.1-1.229.45-1.595.938Z"/><path d="M370.845,251.033l-1.113.299-3.395-12.644,1.113-.299,3.395,12.644Z"/><path d="M350.787,255.235l2.818-1.14.426,1.053-6.896,2.789-.426-1.054,2.848-1.151-2.957-7.312,1.231-.498,2.957,7.312Z"/><path d="M341.662,252.476c.692,1.461-.424,2.433-1.64,3.008-.607.288-1.408.543-1.924.61l.26.55c.459.97.952,1.675,2.312,1.03,1.042-.493,1.364-1.195.953-2.062l1.1-.521c.856,1.809-.415,2.978-1.688,3.58-1.664.788-2.929.396-3.71-1.253l-1.356-2.864c-.117-.246-.245-.292-.505-.169-.203.097-.457.27-.661.438l-.384-.811c.184-.211.542-.539.99-.752.752-.356,1.146-.012,1.344.408l.055.116c.127-.592.583-1.463,1.841-2.059,1.215-.576,2.423-.493,3.013.751ZM337.249,254.301l.466.983c.388-.078,1.03-.293,1.667-.595.984-.466,1.481-.949,1.152-1.644-.267-.564-.788-.654-1.612-.264-.839.397-1.367.966-1.672,1.519Z"/><path d="M334.538,261.692l-.926.506-.429-.786c-.093.598-.463,1.455-1.488,2.015-1.306.712-3.038.51-4.301-1.807-1.218-2.232-.539-3.859.809-4.595.926-.506,1.811-.388,2.224-.23l-1.716-3.145,1.109-.605,4.718,8.647ZM328.517,261.007c.735,1.348,1.76,1.991,2.967,1.332.674-.367,1.026-.924,1.179-1.444l-1.808-3.313c-.521-.153-1.179-.158-1.853.21-1.208.658-1.221,1.868-.486,3.216Z"/><path d="M324.571,263.252c1.471,2.363.429,4.049-.943,4.902-1.331.828-3.341,1.081-4.82-1.296l-.135-.217,4.699-2.925c-.857-1.257-1.908-1.582-3.144-.813-.937.584-1.308,1.38-.979,2.211l-1.086.677c-.736-1.728.402-3.077,1.543-3.787,1.575-.98,3.479-.979,4.866,1.248ZM320.28,266.771c.804.988,1.829,1.122,2.807.514.978-.608,1.31-1.588.778-2.745l-3.585,2.231Z"/><path d="M309.146,282.153l-.898.722-8.2-10.198.897-.722,8.201,10.198Z"/><path d="M292.066,289.653c2.071,2.022,2.493,4.154.829,5.859-1.195,1.225-2.775,1.538-4.444.043l.894-.916c1.051.847,1.877.938,2.692.104,1.419-1.454.19-3.011-.943-4.116-1.304-1.273-2.741-2.206-4.047-.867-.581.596-.743,1.219-.757,1.875l1.43,1.396,1.475-1.511.79.771-2.368,2.427-3.479-3.396.726-.744.709.692c-.119-.519-.064-1.582.863-2.532,1.709-1.751,3.926-.749,5.631.915Z"/><path d="M282.222,294.985l-1.585,1.822,6.095,5.302,1.585-1.822.797.692-2.415,2.776-6.892-5.995-1.585,1.823-.809-.704,4-4.598.809.703Z"/><path d="M276.783,303.888l3.39,2.625-.773.999-3.175-2.459c-1.037-.803-1.779-1.073-2.523-.112-.578.746-.547,1.438-.467,1.804l4.225,3.272-.774.999-5.515-4.271.646-.835.734.568c-.187-.569-.224-1.489.541-2.476.715-.923,1.857-1.536,3.692-.115Z"/><path d="M271.664,311.924c2.294,1.577,2.013,3.539,1.097,4.87-.888,1.292-2.629,2.328-4.937.742l-.211-.146,3.136-4.562c-1.289-.808-2.382-.687-3.207.514-.625.909-.646,1.788-.012,2.418l-.725,1.055c-1.366-1.288-.863-2.98-.102-4.088,1.052-1.529,2.798-2.29,4.96-.804ZM269.139,316.867c1.132.584,2.126.296,2.778-.653.653-.949.565-1.979-.385-2.827l-2.393,3.48Z"/><path d="M265.093,335.409l-.533,1.021-11.595-6.054.533-1.021,11.596,6.054Z"/><path d="M250.596,348.618l-.456,1.212c-.995-.306-1.776.135-2.244,1.377-.428,1.138-.26,2.056.593,2.376.659.248,1.122-.073,1.678-.735l1.325-1.569c.742-.883,1.707-1.494,2.934-1.032,1.497.563,1.8,2.164,1.176,3.825-.642,1.707-1.91,2.58-3.652,1.941l.451-1.197c1.22.391,1.82-.341,2.135-1.179.411-1.093.137-1.862-.552-2.122-.569-.214-1.075.04-1.573.639l-1.325,1.569c-.991,1.182-1.812,1.591-2.964,1.157-1.721-.647-1.946-2.321-1.287-4.072.721-1.916,2.071-2.826,3.762-2.189Z"/><path d="M247.991,358.353c2.765.862,2.911,2.919,2.445,4.415-.4,1.283-1.41,2.694-3.433,2.198l.376-1.207c1.153.226,1.703-.357,1.994-1.289.424-1.359-.087-2.356-1.767-2.88-1.696-.528-2.667.007-3.09,1.366-.291.932-.169,1.724.908,2.193l-.376,1.207c-1.933-.736-1.962-2.522-1.577-3.76.49-1.573,1.786-3.097,4.52-2.244Z"/><path d="M242.659,367.74l-.612,2.452,4.687,1.17.612-2.452,1.04.26-.918,3.678-5.726-1.43-.558,2.234-1.04-.26,1.477-5.912,1.04.26ZM250.951,372.234l-.392,1.567-1.567-.392.392-1.567,1.567.392Z"/><path d="M241.468,377.658l-.219,1.163c-.842-.109-1.415.515-1.688,1.961-.181.959-.124,1.783.615,1.922.833.157,1.151-.841,1.744-2.259.507-1.223,1.122-2.327,2.426-2.082,1.367.258,1.688,1.669,1.379,3.304-.296,1.571-1.079,2.791-2.737,2.608l.219-1.163c.991.008,1.317-.858,1.474-1.691.201-1.068.059-1.697-.491-1.801-.817-.154-1.155,1.035-1.668,2.289-.538,1.299-1.15,2.307-2.471,2.058-1.509-.284-1.846-1.779-1.523-3.493.349-1.854,1.261-3.065,2.939-2.815Z"/><path d="M239.696,387.615l-.153,1.174c-.847-.062-1.384.595-1.574,2.055-.125.968-.022,1.788.724,1.886.841.108,1.102-.906,1.613-2.356.437-1.251.988-2.39,2.305-2.219,1.38.18,1.781,1.571,1.566,3.222-.206,1.587-.918,2.85-2.585,2.762l.153-1.174c.991-.049,1.267-.933,1.376-1.774.14-1.079-.038-1.699-.593-1.771-.825-.107-1.095,1.1-1.536,2.382-.463,1.328-1.018,2.369-2.351,2.196-1.523-.197-1.945-1.673-1.721-3.402.243-1.872,1.085-3.135,2.775-2.979Z"/><path d="M239.771,397.582c2.841.203,3.524,2.081,3.41,3.677-.115,1.597-1.054,3.294-3.848,3.094-2.857-.205-3.539-2.099-3.426-3.679.115-1.612,1.086-3.291,3.863-3.092ZM239.392,403.089c1.756.126,2.64-.564,2.738-1.938.099-1.372-.678-2.182-2.434-2.308-1.739-.125-2.639.564-2.738,1.938-.098,1.372.694,2.184,2.434,2.308Z"/><path d="M236.737,407.938l-.029,1.807,4.829.079.029-1.808,1.072.018-.047,2.862-1.583-.025c.699.299,1.728.987,1.704,2.459-.009.544-.161,1.037-.244,1.212l-1.295-.021c.099-.206.219-.668.227-1.18.02-1.216-.593-1.897-1.115-2.273l-3.598-.059-.049,3.022-1.071-.018.099-6.093,1.071.018Z"/><path d="M237.822,417.873l.049,1.184c-.846.083-1.264.82-1.204,2.292.04.976.281,1.767,1.032,1.735.848-.035.933-1.079,1.191-2.596.219-1.307.569-2.522,1.896-2.577,1.392-.057,2.021,1.247,2.09,2.91.065,1.599-.423,2.965-2.081,3.161l-.048-1.184c.968-.216,1.091-1.134,1.056-1.981-.045-1.088-.325-1.669-.885-1.646-.832.034-.893,1.27-1.11,2.608-.231,1.387-.602,2.507-1.945,2.562-1.535.062-2.201-1.319-2.272-3.062-.077-1.887.539-3.273,2.231-3.407Z"/><path d="M247.901,440.413l.185,1.137-12.918,2.097-.185-1.137,12.918-2.097Z"/><path d="M250.535,458.38l.371,1.274-4.072,1.186,5.118,2.41.447,1.537-4.583-2.233-3.994,5.062-.465-1.599,3.326-4.034-1.417-.688-3.027.881-.371-1.275,8.666-2.521Z"/><path d="M251.426,468.376l.353.995-.875.31c.58.151,1.372.617,1.789,1.793.39,1.101.287,2.393-1.898,3.167l-4.041,1.431-.422-1.19,3.784-1.341c1.236-.438,1.865-.915,1.458-2.061-.315-.89-.913-1.237-1.265-1.368l-5.036,1.784-.422-1.191,6.573-2.328Z"/><path d="M249.305,479.702l.981,2.331,4.456-1.875-.981-2.332.988-.416,1.472,3.497-5.445,2.292.895,2.125-.989.416-2.366-5.622.989-.416ZM258.643,478.325l.627,1.49-1.49.627-.627-1.49,1.49-.627Z"/><path d="M253.366,489.049l.874,1.781,4.336-2.129-.875-1.781.962-.472.874,1.78.029-.015c1.953-.958,3.648-.009,4.741,2.217l-.962.473c-.627-1.278-1.643-2.33-3.222-1.555l-.029.014,1.241,2.527-.962.473-1.241-2.527-4.336,2.129,1.241,2.527-.962.473-2.671-5.442.962-.473Z"/><path d="M259.874,496.658c2.424-1.367,4.062-.253,4.856,1.154.77,1.365.936,3.384-1.502,4.759l-.223.126-2.719-4.82c-1.292.802-1.663,1.838-.948,3.105.542.961,1.322,1.366,2.167,1.073l.628,1.114c-1.757.661-3.056-.534-3.716-1.705-.912-1.615-.828-3.518,1.458-4.807ZM263.204,501.097c1.022-.76,1.2-1.778.634-2.781s-1.53-1.378-2.709-.896l2.075,3.678Z"/><path d="M278.091,512.894l.683.929-10.547,7.751-.682-.929,10.547-7.751Z"/><path d="M288.599,527.687l4.076,4.337-.828.777-3.166-3.369-2.191,2.06,2.771,2.95-.828.777-2.772-2.949-2.728,2.563-.91-.968,6.575-6.179Z"/><path d="M291.123,538.349c1.961-2.064,3.845-1.399,5.004-.298s1.874,2.904-.054,4.934c-1.972,2.076-3.868,1.4-5.016.311-1.171-1.113-1.852-2.929.065-4.946ZM295.135,542.138c1.212-1.275,1.24-2.396.243-3.344-.998-.947-2.115-.862-3.327.413-1.201,1.265-1.24,2.396-.242,3.344.997.948,2.126.851,3.327-.413Z"/><path d="M297.188,547.258l1.843,1.562,5.224-6.164-1.843-1.562.683-.806,2.808,2.38-5.907,6.97,1.843,1.562-.693.818-4.651-3.942.693-.817Z"/><path d="M306.213,551.608c1.531-2.033,3.295-2.087,4.522-1.163.844.636,1.102,1.491,1.13,1.933l2.368-3.146,1.01.761-6.143,8.158-.844-.636.54-.716c-.583.162-1.518.18-2.452-.523-1.189-.896-1.72-2.558-.132-4.668ZM309.054,556.112l2.272-3.019c-.076-.537-.343-1.14-.957-1.603-1.1-.827-2.208-.34-3.133.888s-1.086,2.428.013,3.256c.614.462,1.267.553,1.805.478Z"/><path d="M313.234,559.777l2.103,1.403,2.682-4.019-2.102-1.402.595-.892,3.154,2.104-3.277,4.91,1.916,1.278-.595.892-5.069-3.384.595-.892ZM320.261,553.485l1.344.897-.897,1.344-1.344-.897.897-1.344Z"/><path d="M324.935,560.346l.911.534-.47.801c.541-.258,1.448-.412,2.524.221,1.007.591,1.76,1.646.585,3.646l-2.172,3.697-1.089-.641,2.034-3.462c.664-1.131.838-1.901-.21-2.517-.814-.479-1.496-.359-1.849-.232l-2.707,4.607-1.089-.641,3.532-6.014Z"/><path d="M329.65,571.709l1.096.562c-.438.89-.208,1.564.916,2.141,1.48.759,2.038.092,2.498-.806l.423-.825c-.416.146-1.254.273-2.194-.208-1.396-.715-2.117-2.288-.972-4.523,1.16-2.264,2.901-2.575,4.253-1.883,1.011.518,1.439,1.402,1.526,1.968l.408-.797.939.481-3.304,6.449c-.81,1.58-2.017,2.076-4.038,1.041-1.452-.744-2.443-1.827-1.553-3.6ZM335.013,571.94l1.677-3.274c-.188-.581-.576-1.086-1.202-1.407-1.225-.627-2.239.021-2.925,1.359-.686,1.338-.619,2.541.606,3.168.626.321,1.263.342,1.844.154Z"/><path d="M352.99,571.914l2.627.966c1.802.663,2.722,2.008,2.192,3.449-.32.87-.97,1.245-1.842,1.3.647.511,1.222,1.404.808,2.53-.542,1.472-2.201,1.951-4.003,1.289l-2.898-1.066,3.116-8.468ZM351.513,579.774l1.606.591c1.366.503,2.1.039,2.375-.711.31-.841-.114-1.543-1.42-2.023l-1.562-.574-1,2.718ZM352.906,575.99l1.231.453c1.276.47,2.03.321,2.345-.535.282-.766.006-1.498-1.346-1.995l-1.291-.475-.939,2.552Z"/><path d="M360.046,580.316c.826-2.728,2.809-2.979,4.341-2.516,1.532.464,2.98,1.755,2.169,4.437-.83,2.742-2.829,2.99-4.345,2.53-1.547-.468-2.971-1.786-2.165-4.451ZM365.336,581.901c.51-1.686.032-2.7-1.286-3.099-1.317-.399-2.278.18-2.789,1.864-.506,1.67-.032,2.7,1.286,3.099,1.318.399,2.284-.194,2.789-1.864Z"/><path d="M371.028,579.861l1.026.248-.218.901c.443-.403,1.266-.813,2.479-.521,1.135.274,2.162,1.065,1.618,3.319l-1.006,4.167-1.228-.296.942-3.903c.308-1.274.251-2.062-.931-2.347-.917-.222-1.536.09-1.836.313l-1.253,5.193-1.229-.297,1.637-6.779Z"/><path d="M379.463,585.398c.494-2.74,2.398-3.291,3.988-3.005,1.543.278,3.204,1.439,2.707,4.195l-.045.252-5.448-.982c-.207,1.508.354,2.454,1.787,2.712,1.087.196,1.896-.146,2.21-.983l1.26.228c-.613,1.775-2.363,2.013-3.686,1.774-1.827-.329-3.238-1.608-2.773-4.19ZM385.008,585.666c.067-1.272-.604-2.061-1.738-2.265s-2.037.3-2.419,1.515l4.157.75Z"/><path d="M403.572,581.734l1.15.067-.762,13.068-1.15-.067.761-13.068Z"/><path class="cls-1" d="M414.125,275.594c-76.215,0-138,61.785-138,138s61.785,138,138,138,138-61.785,138-138-61.785-138-138-138ZM414.125,482.594c-38.108,0-69-30.892-69-69s30.892-69,69-69,69,30.892,69,69-30.892,69-69,69Z"/><path d="M435.229,519.945l2.962-.688-1.613-6.938c-.356.679-1.097,1.2-2.305,1.481l-.448.104-.449-1.93.877-.204c1.228-.285,2.039-.946,2.27-1.985l1.618-.377,2.175,9.354,2.514-.585.417,1.793-7.599,1.768-.417-1.793Z"/><path d="M444.223,510.515l1.522-.553.431,1.184c.091-.629.366-1.687,1.55-2.117.978-.355,1.755.086,2.157.663.082-.477.381-1.586,1.547-2.01,1.297-.472,2.227.446,2.828,2.101l2.085,5.733-1.786.649-1.969-5.414c-.369-1.016-.707-1.36-1.233-1.169-.508.185-.747.697-.894,1.112l2.235,6.147-1.786.649-1.969-5.414c-.369-1.016-.708-1.36-1.234-1.169-.507.185-.766.704-.912,1.119l2.235,6.147-1.786.649-3.021-8.31Z"/><path d="M459.536,512.249l2.747-1.394-2.47-4.869-2.747,1.394-.769-1.517,4.655-2.361,3.24,6.386,2.515-1.275.76,1.498-7.17,3.638-.76-1.499ZM456.993,500.913l2.336-1.186,1.095,2.158-2.337,1.186-1.095-2.158Z"/><path d="M467.099,500.095l1.547-1.032.667.997c.027-.715.253-1.853,1.501-2.686,1.397-.934,3.028-1.156,4.616,1.222l3.033,4.541-1.78,1.188-2.799-4.191c-.8-1.197-1.482-1.68-2.563-.957-.798.533-1.037,1.148-1.119,1.709l3.588,5.372-1.779,1.188-4.91-7.352Z"/><path d="M497.436,463.821l.736-1.238,14.067,8.363-.736,1.237-14.067-8.362Z"/><path d="M522.788,426.978c-1.993-.173-3.107-1.213-3.953-2.812l-.846-1.6c-.569-1.073-1.149-2.026-2.126-2.111-.997-.086-1.68.618-1.782,1.794-.106,1.235.412,2.203,1.978,2.439l-.188,2.172c-2.64-.349-3.777-2.294-3.556-4.845.204-2.352,1.549-3.981,3.682-3.798,1.614.14,2.432,1.135,3.337,2.738l.938,1.688c.537.99.998,1.692,1.667,1.851l.521-6.018,1.833.158-.728,8.41-.777-.067Z"/><path d="M515.572,415.16l-.05-1.619,1.259-.039c-.569-.282-1.488-.874-1.527-2.134-.033-1.039.629-1.64,1.303-1.841-.427-.228-1.387-.857-1.426-2.097-.043-1.379,1.119-1.976,2.878-2.031l6.097-.19.059,1.898-5.757.181c-1.079.034-1.513.247-1.495.807.017.54.429.928.778,1.196l6.536-.204.06,1.898-5.757.181c-1.08.033-1.513.247-1.496.807.017.54.43.947.778,1.217l6.537-.205.06,1.899-8.835.276Z"/><path d="M510.441,400.032l-.392-2.591,2.393-.361.392,2.59-2.393.362ZM522.003,401.175l-.461-3.045-5.398.816.46,3.046-1.681.254-.781-5.161,7.08-1.071-.422-2.788,1.661-.251,1.203,7.949-1.661.251Z"/><path d="M512.832,390.186l-.497-1.792,1.156-.32c-.671-.25-1.68-.821-2.081-2.267-.449-1.619-.15-3.237,2.606-4.001l5.261-1.458.571,2.062-4.856,1.346c-1.388.385-2.059.882-1.712,2.135.256.925.767,1.344,1.273,1.598l6.225-1.725.572,2.062-8.519,2.36Z"/><path d="M487.786,350.075l-.949-1.083,12.307-10.785.949,1.084-12.307,10.784Z"/><path d="M460.208,317.371l-2.004-.857c.38-1.143.06-2.173-1.412-2.803-1.269-.543-2.313-.338-2.739.655-.449,1.048.231,1.948,1.519,2.5l.515.221-.693,1.617-.497-.212c-1.232-.527-2.148-.42-2.558.536-.386.901.043,1.781,1.165,2.261,1.066.457,2.188.328,2.87-1.012l2.022.866c-1.126,2.324-3.387,2.728-5.686,1.743-2.39-1.023-3.226-2.883-2.478-4.63.441-1.029,1.258-1.615,2.547-1.629-.998-.972-1.203-2.169-.715-3.31.819-1.912,3.028-2.293,5.381-1.285,2.537,1.086,3.623,3.074,2.762,5.338Z"/><path d="M447.233,317.655l-1.555-.453.353-1.209c-.445.453-1.292,1.144-2.501.79-.999-.291-1.365-1.105-1.347-1.809-.348.336-1.245,1.053-2.435.706-1.325-.387-1.532-1.676-1.039-3.365l1.708-5.854,1.823.532-1.613,5.528c-.302,1.036-.233,1.515.304,1.672.518.15,1.014-.121,1.378-.369l1.831-6.277,1.824.532-1.613,5.528c-.302,1.037-.234,1.515.304,1.672.519.151,1.034-.115,1.397-.363l1.831-6.276,1.824.531-2.475,8.484Z"/><path d="M435.913,307.201l-3.039-.503-.891,5.387,3.038.502-.277,1.678-5.149-.853,1.169-7.063-2.782-.46.274-1.657,7.932,1.312-.274,1.657ZM431.253,317.841l-2.584-.428.395-2.387,2.584.428-.395,2.387Z"/><path d="M422.609,312.521l-1.857-.084.054-1.198c-.445.56-1.301,1.342-2.799,1.274-1.678-.075-3.124-.861-2.995-3.718l.246-5.452,2.137.096-.227,5.033c-.065,1.438.2,2.231,1.498,2.289.959.044,1.516-.312,1.914-.714l.291-6.451,2.137.096-.398,8.829Z"/><path d="M376.692,323.791l-1.325.564-6.416-15.053,1.325-.565,6.416,15.054Z"/><path d="M332.815,343.294l3.894-4.434,1.037.91,1.505,9.441-1.254,1.428-5.23-4.593-1.254,1.428-1.337-1.175,1.254-1.428-2.029-1.782,1.386-1.578,2.029,1.782ZM334.153,344.468l3.006,2.64-.815-5.135-2.191,2.495Z"/><path d="M333.277,352.28l-.917,1.335-1.038-.713c.292.563.682,1.584-.031,2.622-.588.857-1.477.95-2.139.714.21.436.611,1.512-.091,2.533-.781,1.137-2.071.931-3.521-.066l-5.026-3.453,1.076-1.565,4.746,3.261c.89.611,1.366.695,1.683.234.306-.445.203-1.001.081-1.424l-5.389-3.703,1.076-1.565,4.746,3.261c.89.611,1.365.696,1.683.234.306-.444.214-1.018.092-1.44l-5.389-3.702,1.076-1.565,7.284,5.004Z"/><path d="M319.811,359.757l-1.429,2.729,4.836,2.532,1.429-2.729,1.506.789-2.421,4.624-6.342-3.321-1.308,2.497-1.488-.779,3.729-7.121,1.488.779ZM328.458,367.514l-1.215,2.32-2.144-1.123,1.215-2.32,2.144,1.123Z"/><path d="M320.713,374.034l-.66,1.739-1.122-.425c.394.599.87,1.656.337,3.06-.596,1.571-1.794,2.7-4.47,1.686l-5.107-1.938.759-2.002,4.714,1.788c1.347.512,2.183.508,2.644-.709.341-.897.177-1.537-.081-2.042l-6.042-2.292.759-2.001,8.269,3.136Z"/><path d="M317.152,421.215l.122,1.435-16.301,1.386-.122-1.436,16.301-1.385Z"/><path d="M320.044,464.247l1.109,1.876c-.896.646-1.166,1.643-.443,2.864.682,1.153,1.736,1.482,2.872.811,1.17-.692,1.315-1.823.592-3.045-.468-.792-1.321-1.448-2.311-1.63l-.354-1.463,5.878-2.71,3.705,6.266-1.618.957-2.769-4.682-2.483,1.143c.715.345,1.369.979,1.817,1.737,1.17,1.979.811,4.12-1.221,5.321-2.22,1.312-4.395.345-5.596-1.686-1.364-2.307-1.103-4.459.822-5.76Z"/><path d="M330.678,471.328l.985,1.285-1,.767c.627-.103,1.718-.158,2.484.842.632.825.445,1.699.015,2.255.479-.064,1.626-.112,2.38.871.839,1.096.244,2.257-1.153,3.327l-4.84,3.71-1.155-1.508,4.57-3.503c.857-.656,1.084-1.083.744-1.527-.329-.428-.889-.502-1.329-.518l-5.189,3.977-1.155-1.508,4.57-3.502c.857-.657,1.084-1.083.744-1.527-.329-.429-.901-.519-1.341-.534l-5.189,3.977-1.155-1.508,7.014-5.375Z"/><path d="M333.596,486.427l2.15,2.206,3.912-3.812-2.15-2.206,1.218-1.188,3.644,3.74-5.129,4.998,1.968,2.021-1.204,1.173-5.612-5.76,1.204-1.173ZM343.659,480.616l1.829,1.877-1.734,1.688-1.829-1.877,1.733-1.688Z"/><path d="M347.471,490.031l1.448,1.17-.754.934c.691-.188,1.845-.31,3.012.633,1.308,1.057,2.006,2.547.208,4.772l-3.433,4.249-1.665-1.345,3.168-3.923c.905-1.12,1.162-1.916.15-2.733-.747-.604-1.406-.647-1.966-.559l-4.062,5.026-1.665-1.345,5.557-6.88Z"/><path d="M391.138,508.132l1.402.329-3.732,15.927-1.402-.329,3.732-15.927Z"/></svg>