<?xml version="1.0" encoding="UTF-8"?><svg id="Layer_1" xmlns="http://www.w3.org/2000/svg" width="9.587in" height="9.587in" viewBox="0 0 690.25 690.25"><defs><style>.cls-1{fill:#ff0;opacity:.5;stroke:#231f20;stroke-miterlimit:10;stroke-width:.25px;}</style></defs><path class="cls-1" d="M345.125.125C154.587.125.125,154.587.125,345.125s154.462,345,345,345,345-154.462,345-345S535.663.125,345.125.125ZM345.125,621.125c-152.431,0-276-123.569-276-276S192.694,69.125,345.125,69.125s276,123.569,276,276-123.569,276-276,276Z"/><path d="M357.972,650.228l1.758-.093,1.18,2.95.712,1.949.487-2.012.864-3.058,1.71-.09.473,9.011-1.197.062-.277-5.271-.02-2.515-1.482,5.349-1.021.054-2.033-5.164.242,2.503.277,5.271-1.197.063-.475-9.011Z"/><path d="M368.944,657.483l2.201-.185-.567-6.729-2.2.186-.096-1.132,5.709-.481.096,1.133-2.186.184.566,6.729,2.186-.184.095,1.132-5.708.481-.096-1.133Z"/><path d="M378.109,648.73l2.319-.272c2.303-.27,3.828.518,4.037,2.297.169,1.445-.645,2.475-1.848,2.922l3.196,3.232-1.651.193-2.885-3.044-1.191.14.391,3.336-1.318.154-1.05-8.958ZM379.958,653.102l1.017-.119c1.685-.197,2.255-.957,2.136-1.974-.117-1-.85-1.623-2.534-1.426l-1.017.119.398,3.399Z"/><path d="M387.868,647.521l2.311-.346c2.295-.343,3.845.396,4.109,2.169.215,1.439-.565,2.494-1.754,2.979l3.299,3.131-1.646.246-2.98-2.952-1.188.178.497,3.323-1.313.196-1.334-8.925ZM389.857,651.834l1.012-.151c1.678-.251,2.225-1.028,2.073-2.041-.149-.997-.901-1.596-2.579-1.346l-1.013.151.507,3.387Z"/><path d="M397.708,650.613c-.527-2.879.279-4.864,2.67-5.303,2.376-.436,3.779,1.097,4.298,3.928.528,2.879-.282,4.849-2.673,5.287-2.376.436-3.779-1.096-4.295-3.912ZM403.331,649.534c-.273-1.495-.826-3.442-2.776-3.085s-1.776,2.374-1.503,3.869c.271,1.479.824,3.426,2.774,3.068,1.951-.357,1.776-2.374,1.505-3.853Z"/><path d="M407.254,644.162l2.284-.494c2.268-.491,3.862.146,4.242,1.897.309,1.423-.402,2.526-1.559,3.088l3.496,2.91-1.627.353-3.166-2.753-1.174.255.711,3.284-1.297.281-1.911-8.821ZM409.518,648.338l1.001-.217c1.658-.359,2.153-1.171,1.937-2.172-.214-.985-1.003-1.534-2.661-1.176l-1.002.217.726,3.348Z"/><path d="M440.23,634.136l1.093-.361,4.106,12.419-1.094.361-4.105-12.419Z"/><path d="M468.152,624.699l1.603-.727,2.176,2.316,1.373,1.556-.281-2.051-.309-3.162,1.559-.707,3.727,8.219-1.093.495-2.181-4.809-.936-2.334.571,5.521-.933.423-3.776-4.067,1.14,2.241,2.18,4.81-1.093.495-3.727-8.219Z"/><path d="M477.551,620.361l5.264-2.599.503,1.019-4.074,2.011,1.204,2.438,3.543-1.749.503,1.019-3.543,1.748,1.281,2.597,4.074-2.011.502,1.019-5.264,2.599-3.993-8.09Z"/><path d="M486.331,615.95l2.061-1.101c2.047-1.093,3.755-.917,4.6.664.686,1.284.305,2.54-.653,3.396l4.158,1.843-1.468.784-3.799-1.78-1.059.564,1.583,2.965-1.171.625-4.252-7.96ZM489.651,619.346l.902-.482c1.496-.799,1.751-1.715,1.269-2.618-.475-.889-1.386-1.201-2.882-.402l-.902.482,1.613,3.021Z"/><path d="M496.61,615.519c-1.446-2.507-1.275-4.675.789-5.866,1.482-.855,3.088-.729,4.291,1.162l-1.108.64c-.782-1.1-1.554-1.412-2.565-.828-1.76,1.016-.998,2.848-.206,4.22.911,1.579,2.042,2.866,3.663,1.931.721-.416,1.045-.973,1.237-1.601l-.999-1.732-1.83,1.056-.551-.956,2.938-1.695,2.43,4.212-.9.521-.496-.859c-.025.532-.365,1.541-1.516,2.205-2.119,1.224-3.984-.343-5.176-2.407Z"/><path d="M503.462,606.281l4.99-3.097.599.965-3.861,2.396,1.435,2.312,3.358-2.084.599.965-3.357,2.084,1.527,2.461,3.861-2.396.599.966-4.989,3.097-4.76-7.668Z"/><path d="M531.192,585.753l.909-.707,8.038,10.335-.91.707-8.037-10.335Z"/><path d="M554.347,567.554l1.27-1.22,2.823,1.459,1.813,1.009-.948-1.841-1.347-2.879,1.233-1.188,6.257,6.507-.865.832-3.66-3.807-1.662-1.89,2.381,5.016-.738.71-4.918-2.574,1.822,1.733,3.66,3.807-.865.832-6.256-6.507Z"/><path d="M563.249,558.805l1.006-1.031,8.686,4.019-1.006,1.032-2.038-.981-2.457,2.521,1.032,2.012-.982,1.009-4.24-8.58ZM566.884,563.375l1.988-2.04-1.299-.616-2.858-1.446,1.519,2.821.65,1.281Z"/><path d="M571.446,556.796c-2.138-1.955-2.629-4.074-1.02-5.834,1.156-1.264,2.727-1.629,4.445-.188l-.865.945c-1.078-.812-1.908-.878-2.697-.016-1.371,1.5-.092,3.018,1.078,4.087,1.346,1.231,2.812,2.118,4.076.736.562-.614.704-1.244.697-1.9l-1.477-1.351-1.426,1.559-.814-.745,2.29-2.504,3.591,3.284-.703.768-.731-.67c.136.516.116,1.581-.781,2.562-1.653,1.807-3.903.876-5.663-.733Z"/><path d="M575.183,545.927l1.156-1.348,7.711,2.884-2.061-1.579-3.899-3.346.781-.911,6.851,5.878-1.156,1.349-7.712-2.884,2.062,1.579,3.898,3.345-.781.911-6.85-5.878Z"/><path d="M587.673,543.37l1.385-1.723-5.268-4.23-1.384,1.723-.886-.712,3.588-4.469.887.712-1.373,1.71,5.268,4.23,1.373-1.71.886.712-3.589,4.468-.887-.711Z"/><path d="M587.64,530.715l3.576-4.757.907.683-2.778,3.695,2.404,1.807,2.432-3.234.908.683-2.432,3.234,2.992,2.25-.799,1.062-7.211-5.422Z"/><path d="M599.196,524.133l-6.463-.239.884-1.257,2.491.128,2.623.22-1.086-2.406-.965-2.301.855-1.218,2.424,5.986,2.945,2.07-.764,1.087-2.945-2.07Z"/><path d="M610.944,493.075l.559-1.007,11.446,6.353-.56,1.008-11.445-6.354Z"/><path d="M625.097,467.234l.688-1.621,3.17.229,2.064.214-1.597-1.319-2.372-2.116.668-1.577,8.313,3.52-.468,1.105-4.864-2.06-2.271-1.083,4.163,3.675-.399.943-5.536-.432,2.358.877,4.863,2.06-.468,1.105-8.313-3.521Z"/><path d="M629.845,455.695l.52-1.343,9.564.283-.52,1.343-2.26-.101-1.269,3.282,1.74,1.445-.507,1.312-7.27-6.223ZM634.982,458.469l1.027-2.656-1.437-.058-3.196-.206,2.504,1.997,1.102.923Z"/><path d="M632.558,448.468l.586-1.677,8.23-.124-2.494-.719-4.85-1.695.396-1.133,8.52,2.978-.586,1.677-8.23.124,2.494.72,4.85,1.694-.396,1.133-8.52-2.978Z"/><path d="M643.262,441.522l.659-2.107-6.445-2.016-.66,2.107-1.084-.339,1.71-5.468,1.085.339-.654,2.093,6.445,2.016.654-2.093,1.084.339-1.709,5.468-1.085-.339Z"/><path d="M638.61,429.761l.707-2.543c.6-2.157,1.882-3.361,3.746-2.843,1.865.519,2.345,2.196,1.74,4.37l-.352,1.264,3.205.892-.355,1.279-8.691-2.419ZM643.358,429.705l.355-1.279c.455-1.634-.032-2.45-1.019-2.725-.972-.27-1.825.174-2.279,1.807l-.356,1.279,3.299.918Z"/><path d="M646.796,421.864l-5.676-1.381.314-1.291,5.676,1.382c1.555.378,2.232.032,2.531-1.196s-.145-1.847-1.699-2.225l-5.675-1.381.313-1.291,5.676,1.381c2.27.553,3.016,1.755,2.52,3.792s-1.71,2.763-3.98,2.21Z"/><path d="M643.439,410.682l.271-1.299,7.718,1.609.943-4.524,1.112.232-1.215,5.823-8.829-1.842Z"/><path d="M645.744,398.953l.249-1.419,9.439-1.579-.249,1.419-2.236.34-.608,3.467,1.988,1.08-.242,1.387-8.341-4.694ZM651.323,400.677l.491-2.806-1.42.223-3.177.418,2.846,1.474,1.26.691Z"/><path d="M648.447,389.341l-.429,3.01-1.125-.16,1.05-7.365,1.124.16-.434,3.041,7.809,1.113-.188,1.315-7.808-1.114Z"/><path d="M648.336,381.586l.639-5.835,1.129.123-.494,4.516,2.703.296.43-3.927,1.128.123-.429,3.927,2.878.315.494-4.516,1.129.123-.639,5.836-8.968-.981Z"/><path d="M649.282,347.051l.02-1.151,13.08.212-.019,1.151-13.081-.212Z"/><path d="M649.222,317.114l-.179-1.767,7.403-3.591-2.563.402-5.108.515-.121-1.193,8.977-.904.178,1.767-7.403,3.591,2.563-.402,5.109-.515.119,1.193-8.975.904Z"/><path d="M648.179,307.354l-.773-5.818,1.125-.15.599,4.503,2.695-.358-.521-3.915,1.126-.15.521,3.916,2.869-.381-.598-4.503,1.125-.149.773,5.818-8.941,1.188Z"/><path d="M653.243,297.07l-.213-1.277c1.016-.234,1.471-1.007,1.253-2.316-.199-1.199-.804-1.909-1.703-1.76-.694.115-.935.626-1.084,1.478l-.36,2.021c-.201,1.136-.729,2.148-2.023,2.363-1.578.263-2.643-.971-2.934-2.722-.299-1.799.361-3.189,2.189-3.51l.209,1.262c-1.252.273-1.404,1.207-1.258,2.09.192,1.152.815,1.681,1.541,1.561.6-.101.91-.573,1.041-1.341l.361-2.022c.266-1.52.771-2.284,1.986-2.486,1.814-.302,2.848,1.034,3.154,2.88.336,2.02-.377,3.484-2.16,3.78Z"/><path d="M645.829,285.566l.595,2.98-1.114.222-1.454-7.294,1.114-.222.6,3.012,7.733-1.542.26,1.302-7.733,1.542Z"/><path d="M635.646,254.777l-.344-1.1,12.494-3.907.344,1.101-12.494,3.906Z"/><path d="M630.944,225.072c-2.688,1.167-4.805.831-5.774-1.4-.963-2.217.212-3.931,2.854-5.079,2.686-1.167,4.789-.824,5.758,1.406.963,2.217-.211,3.932-2.838,5.073ZM628.616,219.835c-1.395.606-3.168,1.586-2.377,3.406s2.717,1.192,4.111.587c1.381-.6,3.153-1.58,2.362-3.399-.79-1.82-2.717-1.193-4.097-.594Z"/><path d="M622.956,218.212l-.609-1.287,3.719-3.551,2.25-2.057-2.975.452-5.133.642-.596-1.258,9.516-1,.63,1.331-6.802,6.728Z"/><path d="M618.226,208.369l-2.683-5.226,1.011-.519,2.076,4.043,2.42-1.242-1.805-3.517,1.01-.519,1.806,3.517,2.577-1.323-2.076-4.043,1.011-.52,2.683,5.225-8.029,4.123Z"/><path d="M613.67,199.645l-1.134-2.043c-1.126-2.029-.979-3.74.59-4.61,1.273-.707,2.535-.346,3.406.598l1.775-4.188.808,1.456-1.72,3.827.583,1.05,2.938-1.631.645,1.161-7.892,4.381ZM617.013,196.27l-.496-.896c-.824-1.483-1.744-1.724-2.639-1.227-.883.489-1.18,1.405-.355,2.889l.496.896,2.994-1.662Z"/><path d="M608.847,191.085l-.682-1.14,6.771-4.047-2.372-3.969.975-.583,3.054,5.108-7.745,4.63Z"/><path d="M602.591,180.889l-.779-1.211,5.869-7.558.779,1.211-1.414,1.766,1.902,2.961,2.193-.555.762,1.185-9.312,2.201ZM607.86,178.376l-1.54-2.396-.894,1.126-2.051,2.46,3.09-.845,1.395-.346Z"/><path d="M598.361,174.426l-1.498-2.173c-1.271-1.843-1.374-3.599.22-4.697s3.188-.392,4.469,1.466l.744,1.079,2.738-1.888.754,1.093-7.427,5.12ZM601.36,170.747l-.753-1.094c-.962-1.396-1.901-1.545-2.743-.964-.83.572-1.037,1.512-.075,2.907l.754,1.093,2.817-1.942Z"/><path d="M576.54,147.717l-.748-.874,9.936-8.513.748.874-9.936,8.513Z"/><path d="M556.872,125.102l-1.918-1.813c-1.629-1.538-2.096-3.233-.766-4.64,1.329-1.407,3.037-1.048,4.676.501l.953.9,2.285-2.418.966.912-6.196,6.558ZM559.038,120.876l-.965-.912c-1.232-1.165-2.182-1.115-2.885-.371-.692.732-.699,1.694.533,2.859l.965.912,2.352-2.488Z"/><path d="M549.692,118.411l-4.396-3.892.754-.851,3.401,3.012,1.803-2.036-2.958-2.62.752-.851,2.959,2.62,1.92-2.168-3.402-3.012.753-.851,4.396,3.892-5.98,6.756Z"/><path d="M542.259,111.916l-1.367-1.135,2.759-7.757-1.546,2.087-3.281,3.952-.924-.767,5.767-6.945,1.366,1.135-2.758,7.758,1.545-2.087,3.282-3.953.923.767-5.766,6.945Z"/><path d="M534.667,105.698l-4.637-3.606.697-.896,3.589,2.79,1.671-2.147-3.121-2.427.697-.897,3.121,2.427,1.779-2.286-3.589-2.791.698-.897,4.637,3.606-5.543,7.126Z"/><path d="M525.773,97.512l2.459,1.789-.668.918-6.018-4.377.669-.919,2.484,1.808,4.642-6.379,1.074.781-4.643,6.379Z"/><path d="M518.87,93.972l-1.932-1.312c-1.918-1.303-2.557-2.896-1.55-4.379.817-1.203,2.106-1.449,3.31-1l-.303-4.536,1.376.935.189,4.189.992.674,1.888-2.778,1.098.746-5.068,7.462ZM520.333,89.456l-.847-.575c-1.401-.953-2.331-.752-2.906.095-.565.833-.419,1.783.983,2.736l.846.575,1.924-2.831Z"/><path d="M508.879,87.353l-1.217-.771,2.138-9.329,1.217.771-.539,2.197,2.975,1.883,1.756-1.426,1.189.753-7.519,5.922ZM512.6,82.852l-2.406-1.523-.336,1.397-.823,3.096,2.445-2.068,1.12-.901Z"/><path d="M501.033,81.197l2.618,1.543-.576.978-6.407-3.774.576-.979,2.646,1.559,4.002-6.793,1.145.674-4.003,6.793Z"/><path d="M493.825,78.35l-5.152-2.817.545-.996,3.987,2.18,1.305-2.387-3.468-1.896.545-.997,3.468,1.896,1.39-2.541-3.987-2.18.545-.996,5.151,2.816-4.328,7.918Z"/><path d="M462.32,64.353l-1.063-.441,5.018-12.082,1.063.441-5.018,12.082Z"/><path d="M434.559,53.07l-2.241-.661c-2.226-.657-3.32-1.981-2.812-3.701.412-1.396,1.565-2.024,2.85-1.962l-1.672-4.232,1.597.472,1.458,3.936,1.151.34.952-3.224,1.273.376-2.556,8.657ZM434.576,48.319l-.982-.29c-1.628-.48-2.452-.006-2.741.977-.285.967.145,1.828,1.771,2.309l.982.29.97-3.285Z"/><path d="M425.112,50.347l-5.684-1.478.286-1.1,4.398,1.144.685-2.633-3.825-.995.286-1.1,3.826.995.729-2.804-4.398-1.144.286-1.1,5.684,1.479-2.272,8.734Z"/><path d="M415.569,47.93l-5.807-1.312.25-1.108,4.512,1.019.662-2.935-3.949-.892.25-1.108,3.949.892.824-3.652,1.297.293-1.988,8.804Z"/><path d="M405.964,45.826l-1.304-.25,1.489-7.749-4.542-.873.214-1.115,5.848,1.124-1.705,8.863Z"/><path d="M396.275,44.031l-5.802-.924.18-1.122,4.488.715.429-2.688-3.905-.622.18-1.122,3.904.622.455-2.861-4.488-.715.178-1.123,5.802.924-1.42,8.916Z"/><path d="M387.816,38.126c-.381,3.031-1.906,4.516-4.318,4.212-1.539-.193-3.151-1.09-2.93-3.496l1.27.16c-.039,1.333.646,2.048,1.836,2.197,2.016.254,2.559-1.499,2.778-3.245.208-1.65.118-3.499-1.897-3.753-1.349-.17-2.043.355-2.305,1.66l-1.285-.162c.369-2.291,2.1-2.847,3.75-2.639,2.491.313,3.468,2.162,3.102,5.065Z"/><path d="M374.714,40.048l3.027.284-.107,1.131-7.406-.695.105-1.131,3.059.287.737-7.854,1.322.124-.737,7.854Z"/><path d="M342.321,40.965l-1.15.019-.213-13.08,1.151-.019.212,13.08Z"/><path d="M312.316,41.508l-2.321.27c-2.306.268-3.831-.521-4.038-2.303-.168-1.446.646-2.476,1.852-2.922l-3.195-3.238,1.653-.192,2.884,3.049,1.193-.138-.389-3.339,1.32-.153,1.041,8.967ZM310.47,37.13l-1.018.118c-1.686.195-2.258.955-2.14,1.973.116,1.002.849,1.626,2.534,1.43l1.018-.118-.395-3.402Z"/><path d="M302.587,38.092c.433,2.896-.439,4.854-2.845,5.213-2.39.357-3.741-1.22-4.167-4.068-.433-2.896.441-4.838,2.848-5.197,2.389-.357,3.74,1.22,4.164,4.053ZM296.929,38.986c.225,1.504.713,3.469,2.676,3.176,1.961-.294,1.854-2.315,1.629-3.819-.223-1.487-.711-3.452-2.673-3.159s-1.854,2.315-1.632,3.803Z"/><path d="M290.497,43.496l2.992-.545.203,1.118-7.322,1.334-.203-1.118,3.023-.551-1.414-7.763,1.307-.238,1.414,7.763Z"/><path d="M281.086,46.498l-1.407.304-5.015-8.15,1.407-.303,1.156,1.943,3.441-.741.252-2.248,1.375-.297-1.21,9.492ZM280.585,40.682l-2.784.601.74,1.231,1.583,2.784.294-3.189.167-1.427Z"/><path d="M271.189,47.612l2.947-.736.275,1.102-7.216,1.803-.274-1.103,2.979-.744-1.91-7.65,1.287-.321,1.912,7.65Z"/><path d="M264.04,50.638l-5.645,1.607-.311-1.092,4.367-1.244-.744-2.614-3.799,1.081-.311-1.092,3.799-1.082-.793-2.783-4.368,1.243-.312-1.092,5.646-1.607,2.47,8.675Z"/><path d="M231.763,62.785l-1.068.432-4.904-12.133,1.067-.432,4.905,12.133Z"/><path d="M201.499,68.304l-1.143.61c-.547-.887-1.426-1.071-2.597-.445-1.073.573-1.552,1.373-1.122,2.178.331.621.891.685,1.746.555l2.033-.306c1.141-.174,2.269.004,2.887,1.161.754,1.411-.074,2.815-1.641,3.651-1.609.859-3.139.679-4.027-.951l1.129-.603c.659,1.099,1.593.945,2.383.522,1.031-.55,1.332-1.31.986-1.959-.287-.536-.835-.679-1.605-.559l-2.031.306c-1.525.234-2.412,0-2.992-1.086-.867-1.624.068-3.03,1.72-3.912,1.807-.965,3.423-.758,4.274.837Z"/><path d="M195.429,78.911l-2.289,1.316c-1.941,1.117-3.7,1.077-4.666-.602s-.131-3.211,1.825-4.336l1.138-.655-1.66-2.885,1.15-.662,4.502,7.823ZM192.003,75.62l-1.151.662c-1.47.846-1.696,1.77-1.185,2.657.502.874,1.422,1.157,2.893.312l1.15-.663-1.707-2.968Z"/><path d="M186.932,83.875l-1.128.699-4.152-6.702-3.93,2.434-.598-.965,5.057-3.134,4.751,7.668Z"/><path d="M174.259,82.537l-1.839,1.224,3.741,5.621,1.838-1.224.63.946-4.769,3.174-.63-.946,1.825-1.214-3.741-5.622-1.825,1.215-.629-.946,4.769-3.174.63.946Z"/><path d="M168.016,94.958l2.476-1.763.658.926-6.059,4.313-.658-.925,2.502-1.781-4.574-6.425,1.082-.77,4.573,6.424Z"/><path d="M144.105,116.85l-.862.764-8.675-9.798.862-.764,8.675,9.798Z"/><path d="M117.396,132.148l-.875.955c-.811-.654-1.699-.536-2.596.442-.821.896-1.008,1.811-.335,2.427.519.475,1.067.349,1.831-.059l1.814-.962c1.018-.543,2.141-.751,3.107.135,1.18,1.081.865,2.68-.334,3.988-1.231,1.345-2.733,1.683-4.113.441l.865-.943c.986.816,1.815.361,2.42-.299.789-.861.821-1.678.279-2.175-.449-.41-1.013-.363-1.698.007l-1.814.962c-1.36.729-2.274.802-3.183-.029-1.356-1.243-.941-2.88.322-4.26,1.383-1.51,2.976-1.852,4.309-.631Z"/><path d="M115.196,144.178l-.865,1.009-5.988-5.139-3.012,3.511-.863-.74,3.877-4.519,6.852,5.878Z"/><path d="M102.707,146.72l-1.384,1.72,5.262,4.23,1.383-1.72.885.711-3.588,4.464-.886-.712,1.374-1.708-5.262-4.23-1.373,1.708-.885-.712,3.589-4.463.885.712Z"/><path d="M99.509,156.107c2.443,1.839,2.974,3.901,1.51,5.845-.934,1.241-2.514,2.195-4.492.805l.77-1.022c1.139.696,2.1.458,2.822-.501,1.223-1.623-.03-2.967-1.437-4.026-1.33-1.001-2.98-1.843-4.203-.22-.818,1.087-.708,1.952.296,2.828l-.78,1.035c-1.806-1.46-1.428-3.239-.427-4.569,1.512-2.007,3.602-1.936,5.941-.174Z"/><path d="M96.857,167.298l-3.377,4.806-.93-.653,2.613-3.719-2.226-1.563-2.272,3.233-.93-.653,2.273-3.233-2.37-1.666-2.613,3.719-.93-.653,3.377-4.805,7.384,5.188Z"/><path d="M79.38,197.027l-.561,1.006-11.434-6.365.561-1.007,11.434,6.366Z"/><path d="M61.094,220.901c2.694,1.146,3.908,2.912,2.957,5.15-.944,2.224-2.995,2.552-5.646,1.426-2.694-1.146-3.894-2.906-2.942-5.145.945-2.224,2.996-2.551,5.632-1.432ZM58.899,226.192c1.399.594,3.329,1.205,4.104-.62.776-1.826-1.004-2.791-2.402-3.386-1.385-.588-3.314-1.199-4.091.627-.776,1.825,1.005,2.79,2.389,3.379Z"/><path d="M55.425,229.608l-.467,1.209c-.993-.315-1.778.119-2.257,1.357-.438,1.134-.279,2.054.571,2.382.656.254,1.123-.063,1.686-.721l1.34-1.558c.75-.876,1.721-1.479,2.943-1.006,1.493.576,1.782,2.181,1.143,3.837-.658,1.701-1.935,2.563-3.672,1.909l.462-1.194c1.217.402,1.823-.324,2.146-1.16.421-1.089.153-1.861-.533-2.127-.567-.219-1.075.03-1.579.625l-1.34,1.558c-1.002,1.173-1.826,1.575-2.976,1.131-1.716-.663-1.926-2.339-1.251-4.085.738-1.91,2.098-2.809,3.783-2.157Z"/><path d="M53.702,239.434c2.885,1.009,4.018,2.812,3.215,5.107-.512,1.466-1.727,2.854-4.033,2.133l.422-1.208c1.296.317,2.139-.202,2.535-1.335.67-1.918-.932-2.817-2.594-3.397-1.57-.55-3.398-.85-4.068,1.069-.449,1.284-.081,2.074,1.141,2.603l-.428,1.224c-2.163-.841-2.345-2.65-1.795-4.222.828-2.371,2.841-2.939,5.605-1.974Z"/><path d="M47.053,248.53l-.661,2.107,6.445,2.022.661-2.108,1.085.341-1.716,5.468-1.085-.34.657-2.093-6.446-2.022-.656,2.093-1.084-.34,1.715-5.468,1.085.34Z"/><path d="M51.691,260.314l-.355,1.278-7.598-2.113-1.239,4.454-1.095-.305,1.596-5.733,8.691,2.419Z"/><path d="M49.118,269.825l-.314,1.29-7.666-1.865-1.094,4.494-1.104-.27,1.408-5.784,8.77,2.135Z"/><path d="M46.414,281.481l-.296,1.408-9.482,1.266.296-1.409,2.245-.265.723-3.444-1.951-1.145.289-1.377,8.177,4.966ZM40.898,279.573l-.584,2.787,1.426-.176,3.188-.312-2.793-1.565-1.236-.733Z"/><path d="M43.408,290.976l.528-2.994,1.119.196-1.292,7.33-1.119-.197.533-3.026-7.771-1.369.23-1.309,7.771,1.369Z"/><path d="M43.263,298.732l-.828,5.812-1.125-.16.642-4.498-2.692-.384-.559,3.912-1.124-.16.558-3.912-2.867-.409-.641,4.498-1.125-.16.829-5.812,8.933,1.273Z"/><path d="M41.19,333.159l-.043,1.151-13.081-.487.043-1.151,13.081.487Z"/><path d="M39.292,365.363l-.202-3.032,1.134-.075.496,7.421-1.133.076-.205-3.064-7.869.526-.089-1.324,7.868-.527Z"/><path d="M41.009,372.944l.232,2.323c.229,2.308-.584,3.819-2.367,3.997-1.447.145-2.463-.687-2.889-1.897l-3.287,3.141-.166-1.655,3.094-2.832-.119-1.193-3.342.333-.133-1.321,8.977-.895ZM36.605,374.716l.102,1.019c.168,1.688.918,2.271,1.937,2.17,1.003-.1,1.638-.822,1.47-2.509l-.102-1.019-3.406.339Z"/><path d="M42.335,384.834l.188,1.429-8.534,4.337-.188-1.429,2.033-.994-.461-3.491-2.221-.434-.184-1.396,9.367,1.979ZM36.493,384.862l.373,2.824,1.287-.638,2.906-1.352-3.156-.553-1.41-.282Z"/><path d="M43.415,392.474l.289,1.753-7.166,4.056,2.535-.564,5.069-.838.196,1.185-8.908,1.472-.289-1.753,7.166-4.056-2.535.564-5.069.838-.196-1.185,8.908-1.472Z"/><path d="M38.667,402.907l.252,1.271c-1.006.266-1.438,1.052-1.18,2.354.237,1.192.863,1.884,1.758,1.706.689-.137.914-.654,1.037-1.51l.298-2.032c.165-1.142.661-2.169,1.948-2.425,1.568-.312,2.67.889,3.016,2.63.355,1.788-.262,3.198-2.078,3.575l-.249-1.255c1.243-.312,1.366-1.249,1.192-2.128-.228-1.145-.867-1.654-1.588-1.511-.596.118-.893.601-1,1.372l-.297,2.032c-.219,1.527-.7,2.307-1.908,2.547-1.804.357-2.877-.945-3.242-2.78-.398-2.008.27-3.494,2.041-3.846Z"/><path d="M47.062,411.8l1.351,5.795-1.106.258-1.049-4.502-2.93.683.92,3.941-1.107.258-.918-3.941-3.646.85-.302-1.293,8.787-2.048Z"/><path d="M44.771,421.864c2.828-.757,4.873-.111,5.501,2.238.624,2.334-.79,3.855-3.573,4.6-2.828.757-4.857.107-5.486-2.242-.624-2.334.791-3.855,3.559-4.596ZM46.296,427.385c1.469-.393,3.367-1.1,2.854-3.016-.513-1.917-2.511-1.582-3.979-1.188-1.453.389-3.351,1.095-2.839,3.012.514,1.917,2.511,1.581,3.963,1.192Z"/><path d="M51.958,430.848l.676,2.236c.67,2.222.162,3.862-1.554,4.38-1.394.421-2.551-.199-3.202-1.307l-2.623,3.717-.48-1.594,2.491-3.376-.347-1.148-3.217.971-.385-1.271,8.641-2.607ZM47.976,433.437l.297.98c.489,1.624,1.338,2.054,2.318,1.758.965-.292,1.449-1.123.959-2.747l-.295-.98-3.279.989Z"/><path d="M54.702,439.764l.564,1.667-2.521,1.934-1.684,1.212,2.068-.075,3.177.006.549,1.621-8.546,2.892-.385-1.137,5-1.691,2.415-.699-5.549.021-.328-.97,4.421-3.354-2.343.911-5.001,1.691-.384-1.137,8.546-2.892Z"/><path d="M68.554,471.905l.482,1.046-11.883,5.479-.482-1.046,11.883-5.479Z"/><path d="M81.456,501.461l-1.56-2.609.976-.583,3.816,6.386-.975.583-1.576-2.637-6.771,4.047-.681-1.14,6.77-4.047Z"/><path d="M85.747,506.392l.7,1.091-3.852,3.117-2.289,1.792,4.759-1.438.673,1.05-3.298,3.713,2.591-1.321,4.431-2.216.69,1.077-8.195,3.929-.915-1.427,3.019-3.438-4.384,1.312-.915-1.427,6.985-5.813Z"/><path d="M85.272,520.119l1.251,1.819,5.563-3.825-1.251-1.819.936-.644,3.245,4.72-.937.644-1.241-1.807-5.563,3.825,1.242,1.807-.937.644-3.245-4.721.937-.643Z"/><path d="M91.931,527.129l.769,1.044c-.8.668-.854,1.563-.067,2.633.722.979,1.582,1.338,2.316.797.566-.418.549-.981.297-1.809l-.595-1.967c-.337-1.104-.323-2.245.732-3.023,1.288-.949,2.796-.332,3.85,1.098,1.082,1.468,1.124,3.008-.36,4.121l-.76-1.03c.992-.811.705-1.712.174-2.434-.692-.94-1.488-1.129-2.08-.692-.489.36-.552.923-.321,1.668l.595,1.966c.451,1.476.348,2.387-.644,3.117-1.481,1.092-3.008.369-4.118-1.138-1.215-1.648-1.242-3.277.213-4.351Z"/><path d="M103.754,534.016l-1.882-2.389.893-.703,4.605,5.847-.893.703-1.901-2.414-6.198,4.882-.822-1.043,6.198-4.883Z"/><path d="M126.782,556.882l.804.825-9.374,9.136-.804-.824,9.374-9.137Z"/><path d="M147.008,577.524l1.095.91-1.876,4.784-1.172,2.811,2.505-1.662,4.38-2.743,1.07.89-8.201,4.912-1.132-.94,3.331-8.961Z"/><path d="M150.585,590.661l1.742,1.356,4.146-5.325-1.741-1.356.698-.896,4.518,3.518-.698.896-1.729-1.346-4.146,5.325,1.729,1.346-.697.896-4.518-3.518.697-.896Z"/><path d="M163.243,590.432l2.264,1.647c1.553,1.13,2.072,2.675,1.168,3.917-.546.751-1.273.934-2.127.748.482.668.793,1.685.086,2.655-.922,1.268-2.65,1.277-4.203.147l-2.498-1.817,5.311-7.298ZM159.675,597.593l1.385,1.007c1.178.856,2.01.611,2.48-.036.527-.725.311-1.515-.814-2.334l-1.346-.979-1.705,2.343ZM162.048,594.332l1.061.771c1.101.801,1.866.863,2.402.125.48-.659.415-1.439-.75-2.287l-1.112-.81-1.601,2.2Z"/><path d="M171.243,596.178l1.932,1.314c1.918,1.306,2.557,2.9,1.548,4.382-.819,1.204-2.108,1.449-3.312.999l.299,4.538-1.377-.936-.186-4.192-.992-.675-1.891,2.778-1.099-.747,5.077-7.462ZM169.776,600.696l.846.576c1.402.954,2.332.755,2.908-.092.567-.834.422-1.785-.98-2.739l-.848-.576-1.926,2.831Z"/><path d="M181.206,602.787l1.216.772-2.146,9.331-1.217-.771.541-2.198-2.975-1.886-1.758,1.426-1.189-.755,7.527-5.919ZM177.48,607.287l2.406,1.526.337-1.397.827-3.098-2.449,2.068-1.121.9Z"/><path d="M189.047,608.95l-2.618-1.546.578-.978,6.406,3.781-.577.979-2.646-1.562-4.01,6.793-1.144-.675,4.01-6.793Z"/><path d="M196.269,611.812l5.152,2.817-.545.996-3.986-2.18-1.305,2.387,3.467,1.896-.545.997-3.467-1.896-1.39,2.541,3.987,2.18-.545.996-5.152-2.816,4.328-7.918Z"/><path d="M227.774,625.83l1.063.442-5.03,12.082-1.063-.442,5.03-12.082Z"/><path d="M255.524,637.136l1.273.377-2.242,7.561,4.432,1.313-.322,1.089-5.705-1.691,2.564-8.648Z"/><path d="M267.03,640.393l1.394.364.802,9.539-1.395-.363-.154-2.258-3.408-.89-1.238,1.894-1.363-.355,5.363-7.931ZM264.854,645.814l2.757.72-.105-1.434-.156-3.201-1.702,2.716-.793,1.199Z"/><path d="M275.45,648.055l-2.234-6.07,1.498.34.828,2.354.793,2.511,1.814-1.92,1.763-1.767,1.452.329-4.619,4.517-.797,3.513-1.295-.294.797-3.513Z"/><path d="M284.114,644.388l5.768,1.115-.215,1.115-4.464-.862-.517,2.672,3.883.75-.216,1.116-3.882-.75-.55,2.845,4.464.862-.216,1.115-5.769-1.114,1.713-8.864Z"/><path d="M293.79,646.196l2.307.367c2.289.365,3.544,1.537,3.262,3.306-.229,1.437-1.291,2.207-2.57,2.311l2.199,3.979-1.643-.262-1.95-3.712-1.185-.189-.529,3.317-1.311-.209,1.42-8.907ZM294.384,650.906l1.011.161c1.675.267,2.43-.31,2.591-1.32.158-.995-.378-1.793-2.053-2.06l-1.01-.161-.539,3.38Z"/><path d="M328.167,648.829l1.15.062-.699,13.068-1.149-.062.698-13.068Z"/></svg>