<?xml version="1.0" encoding="UTF-8"?><svg id="Layer_1" xmlns="http://www.w3.org/2000/svg" width="5.753in" height="5.753in" viewBox="0 0 414.25 414.25"><defs><style>.cls-1{fill:#ff0;opacity:.5;stroke:#231f20;stroke-miterlimit:10;stroke-width:.25px;}</style></defs><path class="cls-1" d="M207.125.125C92.802.125.125,92.802.125,207.125s92.677,207,207,207,207-92.677,207-207S321.448.125,207.125.125ZM207.125,345.125c-76.215,0-138-61.785-138-138s61.785-138,138-138,138,61.785,138,138-61.785,138-138,138Z"/><path d="M235.009,378.989c-.549-3.008.461-4.884,2.854-5.319,1.527-.278,3.336.092,3.848,2.455l-1.26.229c-.363-1.284-1.231-1.761-2.412-1.545-2,.364-1.99,2.2-1.676,3.933.299,1.638.941,3.376,2.941,3.012,1.338-.244,1.843-.954,1.699-2.278l1.275-.232c.338,2.298-1.146,3.349-2.785,3.647-2.472.45-3.959-1.02-4.484-3.901Z"/><path d="M245.603,379.679c-.381-1.57.909-2.294,2.215-2.611.653-.158,1.488-.245,2.008-.206l-.143-.591c-.253-1.042-.593-1.832-2.055-1.479-1.119.271-1.578.894-1.352,1.826l-1.182.286c-.471-1.943,1.01-2.829,2.378-3.161,1.788-.433,2.948.208,3.378,1.98l.746,3.078c.064.265.18.336.459.268.219-.053.502-.171.736-.293l.211.87c-.223.169-.64.419-1.121.535-.809.196-1.124-.222-1.233-.672l-.03-.125c-.244.554-.867,1.313-2.22,1.642-1.306.316-2.472-.011-2.796-1.348ZM250.292,378.79l-.256-1.058c-.396-.003-1.067.078-1.752.244-1.057.256-1.642.628-1.461,1.374.146.606.639.801,1.525.586.901-.219,1.533-.668,1.943-1.146Z"/><path d="M253.615,372.35l.948-.288.289.948c.076-.407.369-1.315,1.318-1.604.811-.246,1.362.138,1.693.622.094-.463.418-1.265,1.306-1.534.964-.293,1.743.289,2.167,1.682l1.424,4.684-1.148.349-1.33-4.377c-.289-.948-.588-1.326-1.107-1.168-.521.158-.755.598-.93,1.068l1.531,5.035-1.148.35-1.33-4.378c-.289-.948-.588-1.326-1.107-1.168-.521.158-.755.598-.93,1.068l1.531,5.036-1.148.349-2.028-6.673Z"/><path d="M264.542,372.584c-.964-2.612.398-4.053,1.914-4.612,1.472-.543,3.492-.384,4.461,2.244l.089.24-5.194,1.916c.586,1.404,1.549,1.936,2.916,1.432,1.035-.382,1.561-1.087,1.406-1.969l1.201-.442c.371,1.841-1.017,2.933-2.277,3.398-1.742.643-3.607.256-4.516-2.207ZM269.458,370.003c-.588-1.131-1.566-1.47-2.646-1.071-1.082.399-1.605,1.292-1.318,2.533l3.965-1.462Z"/><path d="M275.212,371.08l1.658-.723-1.932-4.429-1.656.723-.429-.982,2.624-1.145.633,1.452c-.017-.761.184-1.982,1.533-2.57.498-.218,1.01-.284,1.203-.28l.518,1.188c-.229-.005-.698.078-1.168.282-1.114.486-1.48,1.326-1.607,1.957l1.439,3.3,2.771-1.209.428.982-5.587,2.437-.429-.982Z"/><path d="M283.837,366.41c-.73-1.44.358-2.441,1.557-3.049.6-.304,1.392-.58,1.906-.661l-.275-.542c-.484-.956-.996-1.647-2.337-.968-1.027.521-1.331,1.231-.897,2.087l-1.084.55c-.904-1.783.334-2.984,1.59-3.621,1.641-.832,2.916-.475,3.74,1.152l1.432,2.825c.123.242.252.284.51.154.199-.102.449-.281.648-.454l.404.799c-.178.216-.525.554-.969.777-.741.377-1.144.043-1.354-.371l-.058-.114c-.111.595-.543,1.477-1.784,2.105-1.198.608-2.408.558-3.029-.67ZM288.196,364.468l-.491-.97c-.386.088-1.021.32-1.649.639-.97.492-1.453.988-1.106,1.673.282.557.805.632,1.618.22.827-.419,1.34-1.002,1.629-1.562Z"/><path d="M331.425,320.632l.773-.853,9.686,8.8-.773.853-9.686-8.8Z"/><path d="M369.935,274.019l.47-1.207c.992.317,1.778-.115,2.259-1.353.441-1.133.283-2.053-.566-2.383-.655-.255-1.121.062-1.686.717l-1.343,1.555c-.753.875-1.724,1.475-2.946,1-1.49-.58-1.776-2.185-1.133-3.839.661-1.7,1.939-2.559,3.674-1.901l-.463,1.193c-1.217-.404-1.824.32-2.148,1.155-.424,1.088-.158,1.86.527,2.127.566.221,1.075-.027,1.58-.621l1.344-1.554c1.004-1.172,1.829-1.571,2.977-1.125,1.715.667,1.921,2.343,1.242,4.087-.742,1.908-2.103,2.804-3.787,2.148Z"/><path d="M372.641,264.326c-2.757-.893-2.88-2.951-2.397-4.444.414-1.278,1.439-2.68,3.459-2.161l-.39,1.203c-1.151-.237-1.708.339-2.009,1.268-.438,1.355.061,2.358,1.736,2.9,1.69.548,2.668.022,3.106-1.333.301-.929.188-1.723-.885-2.204l.39-1.203c1.925.758,1.936,2.545,1.536,3.778-.508,1.568-1.821,3.078-4.547,2.196Z"/><path d="M377.272,255.166c-1.564-.408-1.592-1.888-1.252-3.188.169-.65.488-1.428.769-1.867l-.588-.153c-1.038-.271-1.896-.346-2.275,1.109-.291,1.115.039,1.813.969,2.057l-.308,1.177c-1.937-.505-2.015-2.229-1.659-3.593.465-1.781,1.578-2.499,3.344-2.038l3.067.8c.263.069.38,0,.453-.278.057-.217.087-.523.09-.787l.867.227c.044.276.065.762-.06,1.241-.211.806-.728.886-1.177.769l-.124-.032c.372.478.747,1.386.395,2.733-.34,1.301-1.18,2.174-2.511,1.825ZM378.708,250.611l-1.053-.274c-.189.348-.438.978-.615,1.659-.275,1.053-.224,1.745.52,1.938.604.158,1.008-.184,1.238-1.066.234-.898.138-1.668-.09-2.257Z"/><path d="M374.782,243.773l.207-1.035.91.183c-.421-.428-.863-1.233-.617-2.457.229-1.146.979-2.202,3.254-1.747l4.203.843-.248,1.239-3.938-.789c-1.285-.258-2.07-.17-2.309,1.022-.186.925.15,1.53.385,1.822l5.239,1.05-.249,1.239-6.838-1.37Z"/><path d="M376.595,234.112l.146-1.046.919.13c-.444-.402-.933-1.182-.759-2.417.163-1.156.851-2.255,3.147-1.932l4.245.597-.177,1.252-3.976-.56c-1.299-.183-2.076-.05-2.246,1.154-.131.935.238,1.52.49,1.797l5.291.744-.176,1.251-6.906-.971Z"/><path d="M381.297,225.17c-2.774-.23-3.505-2.074-3.37-3.685.13-1.562,1.128-3.326,3.918-3.094l.256.021-.46,5.518c1.521.062,2.409-.587,2.53-2.038.092-1.1-.326-1.873-1.189-2.105l.105-1.275c1.826.44,2.229,2.16,2.117,3.5-.154,1.85-1.293,3.376-3.907,3.158ZM381.036,219.625c-1.273.055-1.993.798-2.089,1.945-.096,1.148.491,2,1.738,2.265l.351-4.21Z"/><path d="M384.443,214.85l.046-1.807-4.829-.124-.046,1.807-1.072-.027.074-2.862,1.583.04c-.696-.306-1.718-1.004-1.681-2.476.014-.543.171-1.035.256-1.209l1.295.033c-.102.205-.225.666-.238,1.178-.031,1.216.574,1.903,1.094,2.285l3.598.092.078-3.021,1.07.027-.156,6.093-1.071-.028Z"/><path d="M366.067,151.576l-.385-1.086,12.346-4.356.383,1.087-12.344,4.355Z"/><path d="M338.017,99.376l-1.516-1.777c-1.504-1.766-1.697-3.472-.334-4.634,1.108-.944,2.416-.84,3.457-.088l.912-4.455,1.079,1.267-.929,4.091.779.913,2.557-2.179.861,1.011-6.867,5.852ZM340.625,95.408l-.664-.779c-1.1-1.29-2.049-1.344-2.828-.68-.767.654-.878,1.609.223,2.9l.664.779,2.605-2.221Z"/><path d="M336.005,88.609c-2.012,1.925-3.876,1.249-4.994.081-1.084-1.133-1.742-3.05.281-4.985l.186-.178,3.828,4.002c1.054-1.097,1.157-2.192.15-3.245-.764-.798-1.619-.998-2.365-.506l-.885-.925c1.54-1.075,3.096-.236,4.024.734,1.283,1.342,1.672,3.207-.226,5.021ZM331.679,85.128c-.803.99-.724,2.021.072,2.854.797.833,1.824.958,2.85.199l-2.922-3.054Z"/><path d="M328.989,81.428c-1.975,2.119-3.892,1.359-5.039.29-.982-.916-1.816-2.438-.492-4.047l.924.862c-.702.941-.416,1.69.299,2.355,1.041.971,2.161.943,3.361-.344,1.211-1.3,1.149-2.407.107-3.378-.714-.665-1.48-.898-2.371-.132l-.924-.862c1.501-1.422,3.123-.675,4.071.209,1.206,1.123,2.017,2.951.063,5.046Z"/><path d="M321.594,74.631c-1.819,2.188-3.743,1.65-4.974.628-1.229-1.022-2.061-2.773-.271-4.926,1.83-2.202,3.766-1.653,4.982-.642,1.242,1.033,2.041,2.799.263,4.939ZM317.341,71.116c-1.125,1.354-1.078,2.474-.021,3.353,1.059.879,2.168.72,3.293-.633,1.113-1.341,1.078-2.473.02-3.352-1.057-.88-2.177-.708-3.291.632Z"/><path d="M314.945,66.134l-1.454-1.074-2.871,3.885,1.454,1.074-.637.861-2.303-1.701.941-1.273c-.649.395-1.808.831-2.991-.043-.438-.323-.751-.733-.845-.902l.771-1.042c.109.2.416.566.828.87.977.723,1.889.62,2.498.414l2.139-2.894-2.432-1.797.637-.862,4.901,3.622-.637.862Z"/><path d="M305.666,62.393c-1.393,2.128-3.147,2.298-4.433,1.457-.883-.578-1.196-1.414-1.254-1.853l-2.154,3.292-1.057-.691,5.588-8.538.883.578-.49.749c.57-.2,1.502-.278,2.479.36,1.244.814,1.884,2.438.438,4.646ZM302.538,58.09l-2.067,3.158c.11.531.417,1.114,1.06,1.534,1.15.754,2.225.194,3.064-1.09.842-1.285.924-2.492-.227-3.246-.643-.42-1.299-.468-1.83-.356Z"/><path d="M297.23,56.969c-1.389,2.413-3.367,2.29-4.768,1.484-1.359-.782-2.531-2.435-1.135-4.862l.127-.222,4.8,2.761c.702-1.35.493-2.43-.769-3.156-.957-.55-1.835-.501-2.412.182l-1.109-.639c1.175-1.465,2.902-1.099,4.068-.428,1.608.925,2.506,2.605,1.197,4.88ZM292.099,54.848c-.491,1.176-.125,2.144.874,2.718s2.019.405,2.788-.611l-3.662-2.106Z"/><path d="M289.224,49.732l-1.618-.811-2.165,4.322,1.617.811-.48.959-2.562-1.283.71-1.417c-.573.501-1.641,1.13-2.957.47-.487-.244-.866-.595-.987-.745l.58-1.159c.144.179.508.487.967.717,1.088.545,1.969.288,2.534-.02l1.614-3.221-2.705-1.355.48-.959,5.453,2.732-.48.959Z"/><path d="M224.118,39.653l-1.147-.111,1.261-13.03,1.146.11-1.26,13.031Z"/><path d="M164.909,42.889l-5.738,1.573-.301-1.096,4.459-1.222-.795-2.9-3.903,1.069-.3-1.095,3.902-1.069-.988-3.61,1.28-.351,2.384,8.7Z"/><path d="M153.189,37.988l-2.395.811,1.549,4.575,2.394-.81.344,1.015-3.591,1.216-1.893-5.592-2.182.738-.344-1.015,5.773-1.954.344,1.016ZM153.888,47.393l-1.529.518-.519-1.53,1.53-.518.518,1.53Z"/><path d="M143.587,41.353l-2.24.903,3.021,7.49,2.239-.903.395.979-3.41,1.376-3.416-8.469-2.239.903-.401-.994,5.651-2.278.401.993Z"/><path d="M137.312,50.327l-.896.424-.424-.896c-.016.415-.173,1.355-1.07,1.779-.766.362-1.367.063-1.766-.368-.025.472-.23,1.312-1.068,1.708-.912.431-1.768-.031-2.39-1.348l-2.092-4.427,1.085-.513,1.955,4.137c.424.897.774,1.228,1.266.995.492-.232.66-.701.764-1.193l-2.248-4.759,1.084-.513,1.955,4.137c.424.897.775,1.227,1.267.994s.659-.7.764-1.192l-2.249-4.759,1.084-.513,2.98,6.307Z"/><path d="M86.007,90.24l-.797.832-9.449-9.062.797-.831,9.449,9.062Z"/><path d="M51.94,138.76l-1.024,2.433c-.869,2.063-2.293,3.095-4.077,2.344-1.784-.752-2.046-2.477-1.171-4.555l.51-1.209-3.066-1.292.516-1.224,8.313,3.503ZM47.224,138.213l-.516,1.224c-.658,1.562-.279,2.434.664,2.832.929.391,1.832.06,2.49-1.503l.516-1.224-3.154-1.329Z"/><path d="M40.854,144.906l-.604,1.703,4.553,1.617.604-1.703,1.011.358-.959,2.699-1.492-.53c.566.507,1.321,1.488.828,2.875-.182.513-.483.932-.617,1.07l-1.222-.434c.16-.164.421-.563.593-1.046.406-1.146.044-1.987-.33-2.511l-3.393-1.205-1.012,2.849-1.011-.358,2.04-5.744,1.011.359Z"/><path d="M39.964,154.877c2.734.796,3.01,2.775,2.562,4.312-.447,1.536-1.723,2.998-4.412,2.216-2.75-.8-3.02-2.795-2.577-4.316.452-1.552,1.753-2.99,4.427-2.212ZM38.437,160.182c1.69.492,2.699.002,3.084-1.319s-.204-2.276-1.895-2.768c-1.675-.487-2.699-.002-3.084,1.319s.22,2.28,1.895,2.768Z"/><path d="M31.814,164.192c-.359,1.575-.127,2.925,1.697,3.343l5.271,1.207.604-2.636,1.045.239-.886,3.868-6.44-1.475c-2.214-.508-2.897-2.256-2.319-4.782l1.029.235ZM43.016,169.531l-.36,1.575-1.575-.36.36-1.575,1.575.36Z"/><path d="M35.092,174.38c2.745.465,3.316,2.363,3.047,3.956-.262,1.547-1.405,3.22-4.166,2.752l-.253-.042.924-5.46c-1.51-.19-2.449.381-2.693,1.816-.184,1.089.167,1.895,1.008,2.199l-.213,1.263c-1.783-.594-2.039-2.342-1.814-3.667.31-1.83,1.573-3.255,4.161-2.817ZM34.883,179.928c1.273.053,2.054-.626,2.246-1.763.192-1.136-.321-2.034-1.541-2.402l-.705,4.165Z"/><path d="M33.528,184.273c2.877.318,3.414,2.309,3.242,3.866-.147,1.336-.869,2.914-2.949,2.813l.139-1.257c1.174,0,1.604-.676,1.71-1.646.156-1.415-.535-2.296-2.284-2.489-1.765-.194-2.615.517-2.771,1.932-.107.97.164,1.724,1.311,1.979l-.139,1.257c-2.037-.354-2.408-2.101-2.266-3.389.181-1.638,1.162-3.38,4.008-3.066Z"/><path d="M31.755,196.191l3.067.164.122-2.284,1.07.058-.122,2.284,3.228.173-.068,1.262-3.227-.173-.184,3.419-1.07-.057.184-3.419-3.02-.162c-1.422-.076-1.965.199-2.03,1.414-.038.703.076,1.27.213,1.709l-1.07-.057c-.101-.229-.272-.912-.22-1.887.09-1.677.762-2.57,3.127-2.444Z"/><path d="M32.011,204.312c2.848-.046,3.692,1.764,3.719,3.363.025,1.599-.762,3.371-3.561,3.417-2.861.046-3.707-1.779-3.732-3.363-.027-1.614.793-3.371,3.574-3.417ZM32.117,209.829c1.759-.028,2.578-.793,2.556-2.168-.021-1.376-.865-2.114-2.625-2.085-1.743.028-2.578.793-2.557,2.169.023,1.375.883,2.112,2.626,2.084Z"/><path d="M29.808,214.848l.108,1.805,4.825-.29-.109-1.806,1.07-.064.172,2.86-1.581.095c.72.245,1.8.854,1.888,2.323.033.544-.082,1.048-.15,1.229l-1.295.077c.084-.213.168-.684.137-1.194-.072-1.214-.736-1.848-1.285-2.184l-3.595.217.182,3.02-1.07.063-.366-6.086,1.07-.064Z"/><path d="M53.614,276.271l.479,1.048-11.908,5.43-.477-1.048,11.906-5.43Z"/><path d="M86.117,325.857l.946.933-5.537,5.619,3.295,3.245-.798.81-4.24-4.178,6.334-6.429Z"/><path d="M87.731,338.447l1.899,1.669,3.189-3.632-1.9-1.668.707-.806,2.85,2.503-3.896,4.437,1.731,1.521-.707.806-4.582-4.023.708-.806ZM95.526,333.133l1.215,1.067-1.066,1.214-1.215-1.066,1.066-1.215Z"/><path d="M94.261,346.201l.971.759c-.6.791-.502,1.497.494,2.276,1.311,1.024,1.984.475,2.605-.319l.572-.73c-.438.064-1.285.031-2.117-.619-1.234-.966-1.646-2.648-.098-4.627,1.567-2.004,3.337-1.981,4.534-1.045.896.7,1.147,1.649,1.126,2.222l.553-.705.832.65-4.466,5.709c-1.095,1.399-2.373,1.658-4.163.259-1.285-1.006-2.054-2.257-.844-3.829ZM99.484,347.442l2.267-2.898c-.074-.606-.359-1.176-.914-1.609-1.084-.848-2.203-.403-3.131.781-.926,1.186-1.088,2.379-.004,3.227.555.434,1.176.574,1.782.5Z"/><path d="M108.902,343.867l1.038.721-2.271,3.271c.424-.134,1.216-.266,2.201.419.973.675,1.656,1.793.333,3.698l-2.445,3.521-1.038-.721,2.291-3.298c.748-1.077.979-1.831-.02-2.524-.774-.539-1.463-.472-1.824-.372l-3.049,4.388-1.037-.721,5.821-8.382Z"/><path d="M114.253,356.308l1.605-2.619-1.95-1.196.56-.914,1.951,1.196,1.689-2.756,1.078.66-1.689,2.756,2.919,1.79-.56.913-2.92-1.789-1.58,2.578c-.744,1.214-.762,1.823.275,2.459.6.368,1.152.538,1.605.627l-.561.914c-.25-.021-.932-.195-1.764-.705-1.432-.879-1.896-1.896-.66-3.914Z"/><path d="M175.976,372.576l1.133.207-2.359,12.869-1.133-.208,2.359-12.868Z"/></svg>