<?xml version="1.0" encoding="UTF-8"?><svg id="Layer_1" xmlns="http://www.w3.org/2000/svg" width="11.503in" height="11.503in" viewBox="0 0 828.25 828.25"><defs><style>.cls-1{fill:#ff0;opacity:.5;stroke:#231f20;stroke-miterlimit:10;stroke-width:.25px;}</style></defs><path class="cls-1" d="M414.684,69.125c-190.538,0-345,154.462-345,345s154.462,345,345,345,345-154.462,345-345S605.222,69.125,414.684,69.125ZM414.684,690.125c-152.431,0-276-123.569-276-276s123.569-276,276-276,276,123.569,276,276-123.569,276-276,276Z"/><path d="M427.53,719.228l1.758-.093,1.18,2.95.712,1.949.487-2.012.864-3.058,1.71-.09.473,9.011-1.197.062-.277-5.271-.02-2.515-1.482,5.349-1.021.054-2.033-5.164.242,2.503.277,5.271-1.197.063-.475-9.011Z"/><path d="M438.503,726.483l2.201-.185-.567-6.729-2.2.186-.096-1.132,5.709-.481.096,1.133-2.186.184.566,6.729,2.186-.184.095,1.132-5.708.481-.096-1.133Z"/><path d="M447.668,717.73l2.319-.272c2.303-.27,3.828.518,4.037,2.297.169,1.445-.645,2.475-1.848,2.922l3.196,3.232-1.651.193-2.885-3.044-1.191.14.391,3.336-1.318.154-1.05-8.958ZM449.517,722.102l1.017-.119c1.685-.197,2.255-.957,2.136-1.974-.117-1-.85-1.623-2.534-1.426l-1.017.119.398,3.399Z"/><path d="M457.427,716.521l2.311-.346c2.295-.343,3.845.396,4.109,2.169.215,1.439-.565,2.494-1.754,2.979l3.299,3.131-1.646.246-2.98-2.952-1.188.178.497,3.323-1.313.196-1.334-8.925ZM459.415,720.834l1.012-.151c1.678-.251,2.225-1.028,2.073-2.041-.149-.997-.901-1.596-2.579-1.346l-1.013.151.507,3.387Z"/><path d="M467.267,719.613c-.527-2.879.279-4.864,2.67-5.303,2.376-.436,3.779,1.097,4.298,3.928.528,2.879-.282,4.849-2.673,5.287-2.376.436-3.779-1.096-4.295-3.912ZM472.89,718.534c-.273-1.495-.826-3.442-2.776-3.085s-1.776,2.374-1.503,3.869c.271,1.479.824,3.426,2.774,3.068,1.951-.357,1.776-2.374,1.505-3.853Z"/><path d="M476.813,713.162l2.284-.494c2.268-.491,3.862.146,4.242,1.897.309,1.423-.402,2.526-1.559,3.088l3.496,2.91-1.627.353-3.166-2.753-1.174.255.711,3.284-1.297.281-1.911-8.821ZM479.076,717.338l1.001-.217c1.658-.359,2.153-1.171,1.937-2.172-.214-.985-1.003-1.534-2.661-1.176l-1.002.217.726,3.348Z"/><path d="M509.788,703.136l1.093-.361,4.106,12.419-1.094.361-4.105-12.419Z"/><path d="M537.711,693.699l1.603-.727,2.176,2.316,1.373,1.556-.281-2.051-.309-3.162,1.559-.707,3.727,8.219-1.093.495-2.181-4.809-.936-2.334.571,5.521-.933.423-3.776-4.067,1.14,2.241,2.18,4.81-1.093.495-3.727-8.219Z"/><path d="M547.109,689.361l5.264-2.599.503,1.019-4.074,2.011,1.204,2.438,3.543-1.749.503,1.019-3.543,1.748,1.281,2.597,4.074-2.011.502,1.019-5.264,2.599-3.993-8.09Z"/><path d="M555.89,684.95l2.061-1.101c2.047-1.093,3.755-.917,4.6.664.686,1.284.305,2.54-.653,3.396l4.158,1.843-1.468.784-3.799-1.78-1.059.564,1.583,2.965-1.171.625-4.252-7.96ZM559.21,688.346l.902-.482c1.496-.799,1.751-1.715,1.269-2.618-.475-.889-1.386-1.201-2.882-.402l-.902.482,1.613,3.021Z"/><path d="M566.169,684.519c-1.446-2.507-1.275-4.675.789-5.866,1.482-.855,3.088-.729,4.291,1.162l-1.108.64c-.782-1.1-1.554-1.412-2.565-.828-1.76,1.016-.998,2.848-.206,4.22.911,1.579,2.042,2.866,3.663,1.931.721-.416,1.045-.973,1.237-1.601l-.999-1.732-1.83,1.056-.551-.956,2.938-1.695,2.43,4.212-.9.521-.496-.859c-.025.532-.365,1.541-1.516,2.205-2.119,1.224-3.984-.343-5.176-2.407Z"/><path d="M573.021,675.281l4.99-3.097.599.965-3.861,2.396,1.435,2.312,3.358-2.084.599.965-3.357,2.084,1.527,2.461,3.861-2.396.599.966-4.989,3.097-4.76-7.668Z"/><path d="M600.751,654.753l.909-.707,8.038,10.335-.91.707-8.037-10.335Z"/><path d="M623.905,636.554l1.27-1.22,2.823,1.459,1.813,1.009-.948-1.841-1.347-2.879,1.233-1.188,6.257,6.507-.865.832-3.66-3.807-1.662-1.89,2.381,5.016-.738.71-4.918-2.574,1.822,1.733,3.66,3.807-.865.832-6.256-6.507Z"/><path d="M632.808,627.805l1.006-1.031,8.686,4.019-1.006,1.032-2.038-.981-2.457,2.521,1.032,2.012-.982,1.009-4.24-8.58ZM636.442,632.375l1.988-2.04-1.299-.616-2.858-1.446,1.519,2.821.65,1.281Z"/><path d="M641.005,625.796c-2.138-1.955-2.629-4.074-1.02-5.834,1.156-1.264,2.727-1.629,4.445-.188l-.865.945c-1.078-.812-1.908-.878-2.697-.016-1.371,1.5-.092,3.018,1.078,4.087,1.346,1.231,2.812,2.118,4.076.736.562-.614.704-1.244.697-1.9l-1.477-1.351-1.426,1.559-.814-.745,2.29-2.504,3.591,3.284-.703.768-.731-.67c.136.516.116,1.581-.781,2.562-1.653,1.807-3.903.876-5.663-.733Z"/><path d="M644.741,614.927l1.156-1.348,7.711,2.884-2.061-1.579-3.899-3.346.781-.911,6.851,5.878-1.156,1.349-7.712-2.884,2.062,1.579,3.898,3.345-.781.911-6.85-5.878Z"/><path d="M657.232,612.37l1.385-1.723-5.268-4.23-1.384,1.723-.886-.712,3.588-4.469.887.712-1.373,1.71,5.268,4.23,1.373-1.71.886.712-3.589,4.468-.887-.711Z"/><path d="M657.198,599.715l3.576-4.757.907.683-2.778,3.695,2.404,1.807,2.432-3.234.908.683-2.432,3.234,2.992,2.25-.799,1.062-7.211-5.422Z"/><path d="M668.755,593.133l-6.463-.239.884-1.257,2.491.128,2.623.22-1.086-2.406-.965-2.301.855-1.218,2.424,5.986,2.945,2.07-.764,1.087-2.945-2.07Z"/><path d="M680.503,562.075l.559-1.007,11.446,6.353-.56,1.008-11.445-6.354Z"/><path d="M694.655,536.234l.688-1.621,3.17.229,2.064.214-1.597-1.319-2.372-2.116.668-1.577,8.313,3.52-.468,1.105-4.864-2.06-2.271-1.083,4.163,3.675-.399.943-5.536-.432,2.358.877,4.863,2.06-.468,1.105-8.313-3.521Z"/><path d="M699.403,524.695l.52-1.343,9.564.283-.52,1.343-2.26-.101-1.269,3.282,1.74,1.445-.507,1.312-7.27-6.223ZM704.54,527.469l1.027-2.656-1.437-.058-3.196-.206,2.504,1.997,1.102.923Z"/><path d="M702.116,517.468l.586-1.677,8.23-.124-2.494-.719-4.85-1.695.396-1.133,8.52,2.978-.586,1.677-8.23.124,2.494.72,4.85,1.694-.396,1.133-8.52-2.978Z"/><path d="M712.82,510.522l.659-2.107-6.445-2.016-.66,2.107-1.084-.339,1.71-5.468,1.085.339-.654,2.093,6.445,2.016.654-2.093,1.084.339-1.709,5.468-1.085-.339Z"/><path d="M708.169,498.761l.707-2.543c.6-2.157,1.882-3.361,3.746-2.843,1.865.519,2.345,2.196,1.74,4.37l-.352,1.264,3.205.892-.355,1.279-8.691-2.419ZM712.917,498.705l.355-1.279c.455-1.634-.032-2.45-1.019-2.725-.972-.27-1.825.174-2.279,1.807l-.356,1.279,3.299.918Z"/><path d="M716.355,490.864l-5.676-1.381.314-1.291,5.676,1.382c1.555.378,2.232.032,2.531-1.196s-.145-1.847-1.699-2.225l-5.675-1.381.313-1.291,5.676,1.381c2.27.553,3.016,1.755,2.52,3.792s-1.71,2.763-3.98,2.21Z"/><path d="M712.997,479.682l.271-1.299,7.718,1.609.943-4.524,1.112.232-1.215,5.823-8.829-1.842Z"/><path d="M715.303,467.953l.249-1.419,9.439-1.579-.249,1.419-2.236.34-.608,3.467,1.988,1.08-.242,1.387-8.341-4.694ZM720.882,469.677l.491-2.806-1.42.223-3.177.418,2.846,1.474,1.26.691Z"/><path d="M718.006,458.341l-.429,3.01-1.125-.16,1.05-7.365,1.124.16-.434,3.041,7.809,1.113-.188,1.315-7.808-1.114Z"/><path d="M717.895,450.586l.639-5.835,1.129.123-.494,4.516,2.703.296.43-3.927,1.128.123-.429,3.927,2.878.315.494-4.516,1.129.123-.639,5.836-8.968-.981Z"/><path d="M718.841,416.051l.02-1.151,13.08.212-.019,1.151-13.081-.212Z"/><path d="M718.78,386.114l-.179-1.767,7.403-3.591-2.563.402-5.108.515-.121-1.193,8.977-.904.178,1.767-7.403,3.591,2.563-.402,5.109-.515.119,1.193-8.975.904Z"/><path d="M717.737,376.354l-.773-5.818,1.125-.15.599,4.503,2.695-.358-.521-3.915,1.126-.15.521,3.916,2.869-.381-.598-4.503,1.125-.149.773,5.818-8.941,1.188Z"/><path d="M722.802,366.07l-.213-1.277c1.016-.234,1.471-1.007,1.253-2.316-.199-1.199-.804-1.909-1.703-1.76-.694.115-.935.626-1.084,1.478l-.36,2.021c-.201,1.136-.729,2.148-2.023,2.363-1.578.263-2.643-.971-2.934-2.722-.299-1.799.361-3.189,2.189-3.51l.209,1.262c-1.252.273-1.404,1.207-1.258,2.09.192,1.152.815,1.681,1.541,1.561.6-.101.91-.573,1.041-1.341l.361-2.022c.266-1.52.771-2.284,1.986-2.486,1.814-.302,2.848,1.034,3.154,2.88.336,2.02-.377,3.484-2.16,3.78Z"/><path d="M715.388,354.566l.595,2.98-1.114.222-1.454-7.294,1.114-.222.6,3.012,7.733-1.542.26,1.302-7.733,1.542Z"/><path d="M705.204,323.777l-.344-1.1,12.494-3.907.344,1.101-12.494,3.906Z"/><path d="M700.503,294.072c-2.688,1.167-4.805.831-5.774-1.4-.963-2.217.212-3.931,2.854-5.079,2.686-1.167,4.789-.824,5.758,1.406.963,2.217-.211,3.932-2.838,5.073ZM698.175,288.835c-1.395.606-3.168,1.586-2.377,3.406s2.717,1.192,4.111.587c1.381-.6,3.153-1.58,2.362-3.399-.79-1.82-2.717-1.193-4.097-.594Z"/><path d="M692.515,287.212l-.609-1.287,3.719-3.551,2.25-2.057-2.975.452-5.133.642-.596-1.258,9.516-1,.63,1.331-6.802,6.728Z"/><path d="M687.784,277.369l-2.683-5.226,1.011-.519,2.076,4.043,2.42-1.242-1.805-3.517,1.01-.519,1.806,3.517,2.577-1.323-2.076-4.043,1.011-.52,2.683,5.225-8.029,4.123Z"/><path d="M683.229,268.645l-1.134-2.043c-1.126-2.029-.979-3.74.59-4.61,1.273-.707,2.535-.346,3.406.598l1.775-4.188.808,1.456-1.72,3.827.583,1.05,2.938-1.631.645,1.161-7.892,4.381ZM686.571,265.27l-.496-.896c-.824-1.483-1.744-1.724-2.639-1.227-.883.489-1.18,1.405-.355,2.889l.496.896,2.994-1.662Z"/><path d="M678.405,260.085l-.682-1.14,6.771-4.047-2.372-3.969.975-.583,3.054,5.108-7.745,4.63Z"/><path d="M672.15,249.889l-.779-1.211,5.869-7.558.779,1.211-1.414,1.766,1.902,2.961,2.193-.555.762,1.185-9.312,2.201ZM677.419,247.376l-1.54-2.396-.894,1.126-2.051,2.46,3.09-.845,1.395-.346Z"/><path d="M667.92,243.426l-1.498-2.173c-1.271-1.843-1.374-3.599.22-4.697s3.188-.392,4.469,1.466l.744,1.079,2.738-1.888.754,1.093-7.427,5.12ZM670.919,239.747l-.753-1.094c-.962-1.396-1.901-1.545-2.743-.964-.83.572-1.037,1.512-.075,2.907l.754,1.093,2.817-1.942Z"/><path d="M646.099,216.717l-.748-.874,9.936-8.513.748.874-9.936,8.513Z"/><path d="M626.431,194.102l-1.918-1.813c-1.629-1.538-2.096-3.233-.766-4.64,1.329-1.407,3.037-1.048,4.676.501l.953.9,2.285-2.418.966.912-6.196,6.558ZM628.597,189.876l-.965-.912c-1.232-1.165-2.182-1.115-2.885-.371-.692.732-.699,1.694.533,2.859l.965.912,2.352-2.488Z"/><path d="M619.251,187.411l-4.396-3.892.754-.851,3.401,3.012,1.803-2.036-2.958-2.62.752-.851,2.959,2.62,1.92-2.168-3.402-3.012.753-.851,4.396,3.892-5.98,6.756Z"/><path d="M611.817,180.916l-1.367-1.135,2.759-7.757-1.546,2.087-3.281,3.952-.924-.767,5.767-6.945,1.366,1.135-2.758,7.758,1.545-2.087,3.282-3.953.923.767-5.766,6.945Z"/><path d="M604.226,174.698l-4.637-3.606.697-.896,3.589,2.79,1.671-2.147-3.121-2.427.697-.897,3.121,2.427,1.779-2.286-3.589-2.791.698-.897,4.637,3.606-5.543,7.126Z"/><path d="M595.331,166.512l2.459,1.789-.668.918-6.018-4.377.669-.919,2.484,1.808,4.642-6.379,1.074.781-4.643,6.379Z"/><path d="M588.429,162.972l-1.932-1.312c-1.918-1.303-2.557-2.896-1.55-4.379.817-1.203,2.106-1.449,3.31-1l-.303-4.536,1.376.935.189,4.189.992.674,1.888-2.778,1.098.746-5.068,7.462ZM589.892,158.456l-.847-.575c-1.401-.953-2.331-.752-2.906.095-.565.833-.419,1.783.983,2.736l.846.575,1.924-2.831Z"/><path d="M578.438,156.353l-1.217-.771,2.138-9.329,1.217.771-.539,2.197,2.975,1.883,1.756-1.426,1.189.753-7.519,5.922ZM582.158,151.852l-2.406-1.523-.336,1.397-.823,3.096,2.445-2.068,1.12-.901Z"/><path d="M570.592,150.197l2.618,1.543-.576.978-6.407-3.774.576-.979,2.646,1.559,4.002-6.793,1.145.674-4.003,6.793Z"/><path d="M563.384,147.35l-5.152-2.817.545-.996,3.987,2.18,1.305-2.387-3.468-1.896.545-.997,3.468,1.896,1.39-2.541-3.987-2.18.545-.996,5.151,2.816-4.328,7.918Z"/><path d="M531.879,133.353l-1.063-.441,5.018-12.082,1.063.441-5.018,12.082Z"/><path d="M504.117,122.07l-2.241-.661c-2.226-.657-3.32-1.981-2.812-3.701.412-1.396,1.565-2.024,2.85-1.962l-1.672-4.232,1.597.472,1.458,3.936,1.151.34.952-3.224,1.273.376-2.556,8.657ZM504.135,117.319l-.982-.29c-1.628-.48-2.452-.006-2.741.977-.285.967.145,1.828,1.771,2.309l.982.29.97-3.285Z"/><path d="M494.671,119.347l-5.684-1.478.286-1.1,4.398,1.144.685-2.633-3.825-.995.286-1.1,3.826.995.729-2.804-4.398-1.144.286-1.1,5.684,1.479-2.272,8.734Z"/><path d="M485.128,116.93l-5.807-1.312.25-1.108,4.512,1.019.662-2.935-3.949-.892.25-1.108,3.949.892.824-3.652,1.297.293-1.988,8.804Z"/><path d="M475.523,114.826l-1.304-.25,1.489-7.749-4.542-.873.214-1.115,5.848,1.124-1.705,8.863Z"/><path d="M465.834,113.031l-5.802-.924.18-1.122,4.488.715.429-2.688-3.905-.622.18-1.122,3.904.622.455-2.861-4.488-.715.178-1.123,5.802.924-1.42,8.916Z"/><path d="M457.374,107.126c-.381,3.031-1.906,4.516-4.318,4.212-1.539-.193-3.151-1.09-2.93-3.496l1.27.16c-.039,1.333.646,2.048,1.836,2.197,2.016.254,2.559-1.499,2.778-3.245.208-1.65.118-3.499-1.897-3.753-1.349-.17-2.043.355-2.305,1.66l-1.285-.162c.369-2.291,2.1-2.847,3.75-2.639,2.491.313,3.468,2.162,3.102,5.065Z"/><path d="M444.273,109.048l3.027.284-.107,1.131-7.406-.695.105-1.131,3.059.287.737-7.854,1.322.124-.737,7.854Z"/><path d="M411.88,109.965l-1.15.019-.213-13.08,1.151-.019.212,13.08Z"/><path d="M381.874,110.508l-2.321.27c-2.306.268-3.831-.521-4.038-2.303-.168-1.446.646-2.476,1.852-2.922l-3.195-3.238,1.653-.192,2.884,3.049,1.193-.138-.389-3.339,1.32-.153,1.041,8.967ZM380.028,106.13l-1.018.118c-1.686.195-2.258.955-2.14,1.973.116,1.002.849,1.626,2.534,1.43l1.018-.118-.395-3.402Z"/><path d="M372.146,107.092c.433,2.896-.439,4.854-2.845,5.213-2.39.357-3.741-1.22-4.167-4.068-.433-2.896.441-4.838,2.848-5.197,2.389-.357,3.74,1.22,4.164,4.053ZM366.487,107.986c.225,1.504.713,3.469,2.676,3.176,1.961-.294,1.854-2.315,1.629-3.819-.223-1.487-.711-3.452-2.673-3.159s-1.854,2.315-1.632,3.803Z"/><path d="M360.056,112.496l2.992-.545.203,1.118-7.322,1.334-.203-1.118,3.023-.551-1.414-7.763,1.307-.238,1.414,7.763Z"/><path d="M350.645,115.498l-1.407.304-5.015-8.15,1.407-.303,1.156,1.943,3.441-.741.252-2.248,1.375-.297-1.21,9.492ZM350.144,109.682l-2.784.601.74,1.231,1.583,2.784.294-3.189.167-1.427Z"/><path d="M340.747,116.612l2.947-.736.275,1.102-7.216,1.803-.274-1.103,2.979-.744-1.91-7.65,1.287-.321,1.912,7.65Z"/><path d="M333.599,119.638l-5.645,1.607-.311-1.092,4.367-1.244-.744-2.614-3.799,1.081-.311-1.092,3.799-1.082-.793-2.783-4.368,1.243-.312-1.092,5.646-1.607,2.47,8.675Z"/><path d="M301.321,131.785l-1.068.432-4.904-12.133,1.067-.432,4.905,12.133Z"/><path d="M271.058,137.304l-1.143.61c-.547-.887-1.426-1.071-2.597-.445-1.073.573-1.552,1.373-1.122,2.178.331.621.891.685,1.746.555l2.033-.306c1.141-.174,2.269.004,2.887,1.161.754,1.411-.074,2.815-1.641,3.651-1.609.859-3.139.679-4.027-.951l1.129-.603c.659,1.099,1.593.945,2.383.522,1.031-.55,1.332-1.31.986-1.959-.287-.536-.835-.679-1.605-.559l-2.031.306c-1.525.234-2.412,0-2.992-1.086-.867-1.624.068-3.03,1.72-3.912,1.807-.965,3.423-.758,4.274.837Z"/><path d="M264.987,147.911l-2.289,1.316c-1.941,1.117-3.7,1.077-4.666-.602s-.131-3.211,1.825-4.336l1.138-.655-1.66-2.885,1.15-.662,4.502,7.823ZM261.562,144.62l-1.151.662c-1.47.846-1.696,1.77-1.185,2.657.502.874,1.422,1.157,2.893.312l1.15-.663-1.707-2.968Z"/><path d="M256.49,152.875l-1.128.699-4.152-6.702-3.93,2.434-.598-.965,5.057-3.134,4.751,7.668Z"/><path d="M243.817,151.537l-1.839,1.224,3.741,5.621,1.838-1.224.63.946-4.769,3.174-.63-.946,1.825-1.214-3.741-5.622-1.825,1.215-.629-.946,4.769-3.174.63.946Z"/><path d="M237.574,163.958l2.476-1.763.658.926-6.059,4.313-.658-.925,2.502-1.781-4.574-6.425,1.082-.77,4.573,6.424Z"/><path d="M213.663,185.85l-.862.764-8.675-9.798.862-.764,8.675,9.798Z"/><path d="M186.954,201.148l-.875.955c-.811-.654-1.699-.536-2.596.442-.821.896-1.008,1.811-.335,2.427.519.475,1.067.349,1.831-.059l1.814-.962c1.018-.543,2.141-.751,3.107.135,1.18,1.081.865,2.68-.334,3.988-1.231,1.345-2.733,1.683-4.113.441l.865-.943c.986.816,1.815.361,2.42-.299.789-.861.821-1.678.279-2.175-.449-.41-1.013-.363-1.698.007l-1.814.962c-1.36.729-2.274.802-3.183-.029-1.356-1.243-.941-2.88.322-4.26,1.383-1.51,2.976-1.852,4.309-.631Z"/><path d="M184.755,213.178l-.865,1.009-5.988-5.139-3.012,3.511-.863-.74,3.877-4.519,6.852,5.878Z"/><path d="M172.266,215.72l-1.384,1.72,5.262,4.23,1.383-1.72.885.711-3.588,4.464-.886-.712,1.374-1.708-5.262-4.23-1.373,1.708-.885-.712,3.589-4.463.885.712Z"/><path d="M169.067,225.107c2.443,1.839,2.974,3.901,1.51,5.845-.934,1.241-2.514,2.195-4.492.805l.77-1.022c1.139.696,2.1.458,2.822-.501,1.223-1.623-.03-2.967-1.437-4.026-1.33-1.001-2.98-1.843-4.203-.22-.818,1.087-.708,1.952.296,2.828l-.78,1.035c-1.806-1.46-1.428-3.239-.427-4.569,1.512-2.007,3.602-1.936,5.941-.174Z"/><path d="M166.415,236.298l-3.377,4.806-.93-.653,2.613-3.719-2.226-1.563-2.272,3.233-.93-.653,2.273-3.233-2.37-1.666-2.613,3.719-.93-.653,3.377-4.805,7.384,5.188Z"/><path d="M148.939,266.027l-.561,1.006-11.434-6.365.561-1.007,11.434,6.366Z"/><path d="M130.652,289.901c2.694,1.146,3.908,2.912,2.957,5.15-.944,2.224-2.995,2.552-5.646,1.426-2.694-1.146-3.894-2.906-2.942-5.145.945-2.224,2.996-2.551,5.632-1.432ZM128.457,295.192c1.399.594,3.329,1.205,4.104-.62.776-1.826-1.004-2.791-2.402-3.386-1.385-.588-3.314-1.199-4.091.627-.776,1.825,1.005,2.79,2.389,3.379Z"/><path d="M124.983,298.608l-.467,1.209c-.993-.315-1.778.119-2.257,1.357-.438,1.134-.279,2.054.571,2.382.656.254,1.123-.063,1.686-.721l1.34-1.558c.75-.876,1.721-1.479,2.943-1.006,1.493.576,1.782,2.181,1.143,3.837-.658,1.701-1.935,2.563-3.672,1.909l.462-1.194c1.217.402,1.823-.324,2.146-1.16.421-1.089.153-1.861-.533-2.127-.567-.219-1.075.03-1.579.625l-1.34,1.558c-1.002,1.173-1.826,1.575-2.976,1.131-1.716-.663-1.926-2.339-1.251-4.085.738-1.91,2.098-2.809,3.783-2.157Z"/><path d="M123.261,308.434c2.885,1.009,4.018,2.812,3.215,5.107-.512,1.466-1.727,2.854-4.033,2.133l.422-1.208c1.296.317,2.139-.202,2.535-1.335.67-1.918-.932-2.817-2.594-3.397-1.57-.55-3.398-.85-4.068,1.069-.449,1.284-.081,2.074,1.141,2.603l-.428,1.224c-2.163-.841-2.345-2.65-1.795-4.222.828-2.371,2.841-2.939,5.605-1.974Z"/><path d="M116.611,317.53l-.661,2.107,6.445,2.022.661-2.108,1.085.341-1.716,5.468-1.085-.34.657-2.093-6.446-2.022-.656,2.093-1.084-.34,1.715-5.468,1.085.34Z"/><path d="M121.249,329.314l-.355,1.278-7.598-2.113-1.239,4.454-1.095-.305,1.596-5.733,8.691,2.419Z"/><path d="M118.677,338.825l-.314,1.29-7.666-1.865-1.094,4.494-1.104-.27,1.408-5.784,8.77,2.135Z"/><path d="M115.973,350.481l-.296,1.408-9.482,1.266.296-1.409,2.245-.265.723-3.444-1.951-1.145.289-1.377,8.177,4.966ZM110.456,348.573l-.584,2.787,1.426-.176,3.188-.312-2.793-1.565-1.236-.733Z"/><path d="M112.967,359.976l.528-2.994,1.119.196-1.292,7.33-1.119-.197.533-3.026-7.771-1.369.23-1.309,7.771,1.369Z"/><path d="M112.821,367.732l-.828,5.812-1.125-.16.642-4.498-2.692-.384-.559,3.912-1.124-.16.558-3.912-2.867-.409-.641,4.498-1.125-.16.829-5.812,8.933,1.273Z"/><path d="M110.748,402.159l-.043,1.151-13.081-.487.043-1.151,13.081.487Z"/><path d="M108.851,434.363l-.202-3.032,1.134-.075.496,7.421-1.133.076-.205-3.064-7.869.526-.089-1.324,7.868-.527Z"/><path d="M110.567,441.944l.232,2.323c.229,2.308-.584,3.819-2.367,3.997-1.447.145-2.463-.687-2.889-1.897l-3.287,3.141-.166-1.655,3.094-2.832-.119-1.193-3.342.333-.133-1.321,8.977-.895ZM106.163,443.716l.102,1.019c.168,1.688.918,2.271,1.937,2.17,1.003-.1,1.638-.822,1.47-2.509l-.102-1.019-3.406.339Z"/><path d="M111.894,453.834l.188,1.429-8.534,4.337-.188-1.429,2.033-.994-.461-3.491-2.221-.434-.184-1.396,9.367,1.979ZM106.052,453.862l.373,2.824,1.287-.638,2.906-1.352-3.156-.553-1.41-.282Z"/><path d="M112.974,461.474l.289,1.753-7.166,4.056,2.535-.564,5.069-.838.196,1.185-8.908,1.472-.289-1.753,7.166-4.056-2.535.564-5.069.838-.196-1.185,8.908-1.472Z"/><path d="M108.226,471.907l.252,1.271c-1.006.266-1.438,1.052-1.18,2.354.237,1.192.863,1.884,1.758,1.706.689-.137.914-.654,1.037-1.51l.298-2.032c.165-1.142.661-2.169,1.948-2.425,1.568-.312,2.67.889,3.016,2.63.355,1.788-.262,3.198-2.078,3.575l-.249-1.255c1.243-.312,1.366-1.249,1.192-2.128-.228-1.145-.867-1.654-1.588-1.511-.596.118-.893.601-1,1.372l-.297,2.032c-.219,1.527-.7,2.307-1.908,2.547-1.804.357-2.877-.945-3.242-2.78-.398-2.008.27-3.494,2.041-3.846Z"/><path d="M116.62,480.8l1.351,5.795-1.106.258-1.049-4.502-2.93.683.92,3.941-1.107.258-.918-3.941-3.646.85-.302-1.293,8.787-2.048Z"/><path d="M114.329,490.864c2.828-.757,4.873-.111,5.501,2.238.624,2.334-.79,3.855-3.573,4.6-2.828.757-4.857.107-5.486-2.242-.624-2.334.791-3.855,3.559-4.596ZM115.855,496.385c1.469-.393,3.367-1.1,2.854-3.016-.513-1.917-2.511-1.582-3.979-1.188-1.453.389-3.351,1.095-2.839,3.012.514,1.917,2.511,1.581,3.963,1.192Z"/><path d="M121.517,499.848l.676,2.236c.67,2.222.162,3.862-1.554,4.38-1.394.421-2.551-.199-3.202-1.307l-2.623,3.717-.48-1.594,2.491-3.376-.347-1.148-3.217.971-.385-1.271,8.641-2.607ZM117.534,502.437l.297.98c.489,1.624,1.338,2.054,2.318,1.758.965-.292,1.449-1.123.959-2.747l-.295-.98-3.279.989Z"/><path d="M124.261,508.764l.564,1.667-2.521,1.934-1.684,1.212,2.068-.075,3.177.006.549,1.621-8.546,2.892-.385-1.137,5-1.691,2.415-.699-5.549.021-.328-.97,4.421-3.354-2.343.911-5.001,1.691-.384-1.137,8.546-2.892Z"/><path d="M138.112,540.905l.482,1.046-11.883,5.479-.482-1.046,11.883-5.479Z"/><path d="M151.015,570.461l-1.56-2.609.976-.583,3.816,6.386-.975.583-1.576-2.637-6.771,4.047-.681-1.14,6.77-4.047Z"/><path d="M155.306,575.392l.7,1.091-3.852,3.117-2.289,1.792,4.759-1.438.673,1.05-3.298,3.713,2.591-1.321,4.431-2.216.69,1.077-8.195,3.929-.915-1.427,3.019-3.438-4.384,1.312-.915-1.427,6.985-5.813Z"/><path d="M154.83,589.119l1.251,1.819,5.563-3.825-1.251-1.819.936-.644,3.245,4.72-.937.644-1.241-1.807-5.563,3.825,1.242,1.807-.937.644-3.245-4.721.937-.643Z"/><path d="M161.489,596.129l.769,1.044c-.8.668-.854,1.563-.067,2.633.722.979,1.582,1.338,2.316.797.566-.418.549-.981.297-1.809l-.595-1.967c-.337-1.104-.323-2.245.732-3.023,1.288-.949,2.796-.332,3.85,1.098,1.082,1.468,1.124,3.008-.36,4.121l-.76-1.03c.992-.811.705-1.712.174-2.434-.692-.94-1.488-1.129-2.08-.692-.489.36-.552.923-.321,1.668l.595,1.966c.451,1.476.348,2.387-.644,3.117-1.481,1.092-3.008.369-4.118-1.138-1.215-1.648-1.242-3.277.213-4.351Z"/><path d="M173.313,603.016l-1.882-2.389.893-.703,4.605,5.847-.893.703-1.901-2.414-6.198,4.882-.822-1.043,6.198-4.883Z"/><path d="M196.341,625.882l.804.825-9.374,9.136-.804-.824,9.374-9.137Z"/><path d="M216.566,646.524l1.095.91-1.876,4.784-1.172,2.811,2.505-1.662,4.38-2.743,1.07.89-8.201,4.912-1.132-.94,3.331-8.961Z"/><path d="M220.144,659.661l1.742,1.356,4.146-5.325-1.741-1.356.698-.896,4.518,3.518-.698.896-1.729-1.346-4.146,5.325,1.729,1.346-.697.896-4.518-3.518.697-.896Z"/><path d="M232.802,659.432l2.264,1.647c1.553,1.13,2.072,2.675,1.168,3.917-.546.751-1.273.934-2.127.748.482.668.793,1.685.086,2.655-.922,1.268-2.65,1.277-4.203.147l-2.498-1.817,5.311-7.298ZM229.233,666.593l1.385,1.007c1.178.856,2.01.611,2.48-.036.527-.725.311-1.515-.814-2.334l-1.346-.979-1.705,2.343ZM231.607,663.332l1.061.771c1.101.801,1.866.863,2.402.125.48-.659.415-1.439-.75-2.287l-1.112-.81-1.601,2.2Z"/><path d="M240.802,665.178l1.932,1.314c1.918,1.306,2.557,2.9,1.548,4.382-.819,1.204-2.108,1.449-3.312.999l.299,4.538-1.377-.936-.186-4.192-.992-.675-1.891,2.778-1.099-.747,5.077-7.462ZM239.335,669.696l.846.576c1.402.954,2.332.755,2.908-.092.567-.834.422-1.785-.98-2.739l-.848-.576-1.926,2.831Z"/><path d="M250.765,671.787l1.216.772-2.146,9.331-1.217-.771.541-2.198-2.975-1.886-1.758,1.426-1.189-.755,7.527-5.919ZM247.038,676.287l2.406,1.526.337-1.397.827-3.098-2.449,2.068-1.121.9Z"/><path d="M258.606,677.95l-2.618-1.546.578-.978,6.406,3.781-.577.979-2.646-1.562-4.01,6.793-1.144-.675,4.01-6.793Z"/><path d="M265.827,680.812l5.152,2.817-.545.996-3.986-2.18-1.305,2.387,3.467,1.896-.545.997-3.467-1.896-1.39,2.541,3.987,2.18-.545.996-5.152-2.816,4.328-7.918Z"/><path d="M297.333,694.83l1.063.442-5.03,12.082-1.063-.442,5.03-12.082Z"/><path d="M325.083,706.136l1.273.377-2.242,7.561,4.432,1.313-.322,1.089-5.705-1.691,2.564-8.648Z"/><path d="M336.589,709.393l1.394.364.802,9.539-1.395-.363-.154-2.258-3.408-.89-1.238,1.894-1.363-.355,5.363-7.931ZM334.412,714.814l2.757.72-.105-1.434-.156-3.201-1.702,2.716-.793,1.199Z"/><path d="M345.009,717.055l-2.234-6.07,1.498.34.828,2.354.793,2.511,1.814-1.92,1.763-1.767,1.452.329-4.619,4.517-.797,3.513-1.295-.294.797-3.513Z"/><path d="M353.673,713.388l5.768,1.115-.215,1.115-4.464-.862-.517,2.672,3.883.75-.216,1.116-3.882-.75-.55,2.845,4.464.862-.216,1.115-5.769-1.114,1.713-8.864Z"/><path d="M363.349,715.196l2.307.367c2.289.365,3.544,1.537,3.262,3.306-.229,1.437-1.291,2.207-2.57,2.311l2.199,3.979-1.643-.262-1.95-3.712-1.185-.189-.529,3.317-1.311-.209,1.42-8.907ZM363.942,719.906l1.011.161c1.675.267,2.43-.31,2.591-1.32.158-.995-.378-1.793-2.053-2.06l-1.01-.161-.539,3.38Z"/><path d="M397.726,717.829l1.15.062-.699,13.068-1.149-.062.698-13.068Z"/><path class="cls-1" d="M414.684,138.125c-152.431,0-276,123.569-276,276s123.569,276,276,276,276-123.569,276-276-123.569-276-276-276ZM414.684,621.125c-114.323,0-207-92.677-207-207s92.677-207,207-207,207,92.677,207,207-92.677,207-207,207Z"/><path d="M454.016,657.91l2.738-.483-1.336-7.564-2.738.483-.327-1.852,7.684-1.357.326,1.852-2.738.484,1.336,7.564,2.738-.484.327,1.853-7.683,1.356-.327-1.852Z"/><path d="M465.278,653.255c-.816-3.547,1.342-5.049,3.484-5.542,1.93-.444,4.232-.154,5.017,2.538l-2.104.484c-.422-1.298-1.339-1.538-2.488-1.273-1.52.35-2.209,1.37-1.764,3.299.447,1.949,1.509,2.546,3.048,2.191,1.13-.26,1.854-.857,1.667-2.21l2.104-.484c.463,2.725-1.535,4.026-3.426,4.462-2.162.498-4.729.042-5.537-3.465Z"/><path d="M477.48,650.355c-.979-3.422,1.096-5.117,3.115-5.693,2.152-.615,4.663-.272,5.652,3.188.972,3.403-1.097,5.117-3.115,5.693-2.153.615-4.67.253-5.652-3.188ZM484.151,648.449c-.545-1.903-1.613-2.513-3.074-2.096-1.461.418-2.046,1.5-1.502,3.403.538,1.884,1.611,2.513,3.073,2.096,1.462-.418,2.04-1.519,1.503-3.403Z"/><path d="M488.745,642.422l1.76-.602.389,1.135c.209-.685.721-1.726,2.139-2.21,1.59-.544,3.223-.342,4.148,2.364l1.766,5.165-2.024.692-1.63-4.768c-.467-1.362-1.002-2.004-2.232-1.583-.908.311-1.296.845-1.52,1.365l2.09,6.111-2.025.692-2.859-8.363Z"/><path d="M560.664,599.332l1.503-1.195,10.322,12.979-1.503,1.195-10.322-12.979Z"/><path d="M622.133,548.06l1.472-2.358-6.516-4.066-1.472,2.358-1.595-.995,4.129-6.617,1.596.995-1.473,2.358,6.516,4.066,1.473-2.358,1.595.995-4.13,6.618-1.595-.996Z"/><path d="M622.663,533.853l.904-1.627,1.049.584c-.303-.649-.621-1.765.107-3.076.816-1.469,2.166-2.413,4.666-1.023l4.774,2.653-1.04,1.871-4.406-2.449c-1.26-.7-2.088-.816-2.719.32-.467.839-.396,1.496-.215,2.032l5.648,3.14-1.04,1.871-7.729-4.296Z"/><path d="M632.218,525.581c-2.928-1.436-3.365-3.633-2.52-5.356.615-1.257,1.65-1.73,2.168-1.878l-4.508-2.21.941-1.921,11.619,5.696-.818,1.67-1.041-.511c.354.687.596,1.874-.064,3.221-.863,1.76-2.85,2.724-5.777,1.289ZM636.858,520.795l-3.699-1.814c-.545.201-1.176.627-1.572,1.435-.67,1.365.072,2.442,1.6,3.19,1.525.748,2.832.676,3.5-.689.396-.809.346-1.568.172-2.121Z"/><path d="M637.701,514.277c-3.255-1.391-3.356-4-2.501-6.005.889-2.077,2.814-3.733,6.031-2.358l.441.188-2.719,6.362c1.439.55,2.603.221,3.278-1.36.464-1.085.345-2.027-.384-2.513l.865-2.022c1.931,1.282,1.783,3.459,1.029,5.224-1.006,2.354-2.99,3.789-6.042,2.484ZM639.431,507.536c-1.322-.369-2.248.322-2.703,1.389-.456,1.066-.316,2.214.863,2.914l1.84-4.303Z"/><path d="M643.562,499.55l-5.357,2.058.91-2.478,3.607-1.295-1.938-3.247.875-2.384,2.771,4.98,5.6-2.139-.91,2.478-3.805,1.371,2.019,3.49-.903,2.458-2.869-5.293Z"/><path d="M650.461,417.498l.03-1.921,16.584.266-.031,1.921-16.583-.266Z"/><path d="M648.175,338.545l-.702-2.042c1.103-.484,1.448-1.322.94-2.797-.461-1.343-1.213-1.993-2.082-1.693-.719.247-.852.905-.85,1.835l.038,2.692c.021,1.474-.518,2.8-2.067,3.333-2.023.695-3.711-.648-4.504-2.955-.741-2.155-.382-4.244,2.025-5.114l.709,2.061c-1.166.485-1.404,1.265-.988,2.475.461,1.343,1.217,1.759,1.91,1.5.599-.228.879-.641.857-1.627l-.032-2.737c-.007-1.435.295-2.892,2.034-3.49,2.193-.754,3.883.779,4.702,3.161.839,2.439.372,4.587-1.991,5.399Z"/><path d="M649.065,324.763c-.718-1.781-1.626-2.429-3.2-2.484l-6.681,6.919-.897-2.227,3.242-3.14,2.158-1.926-2.879.081-4.54-.025-.853-2.115,9.176.292c3.348.118,4.873.905,6.106,3.967l-1.633.658Z"/><path d="M634.434,317.59l-.683-1.47,1.144-.53c-.634-.037-1.712-.22-2.243-1.363-.438-.943-.064-1.756.477-2.205-.482-.041-1.613-.244-2.135-1.369-.582-1.252.253-2.257,1.85-2.998l5.533-2.568.801,1.724-5.226,2.426c-.979.454-1.294.821-1.059,1.329.228.49.759.685,1.185.795l5.934-2.754.8,1.724-5.226,2.426c-.979.454-1.295.821-1.059,1.329.228.49.768.702,1.193.813l5.934-2.754.799,1.723-8.019,3.724Z"/><path d="M634.667,300.385l1.025-.543.87,1.646-11.442,6.052-1.001-1.893,4.438-2.348c-.521-.132-1.57-.573-2.225-1.811-.916-1.733-.527-3.908,2.355-5.433s4.917-.587,5.814,1.111c.702,1.326.497,2.521.164,3.218ZM629.717,298.001c-1.503.795-2.212,1.895-1.501,3.238.421.796,1.065,1.201,1.615,1.386l3.644-1.927c.157-.559.185-1.319-.236-2.115-.711-1.345-2.019-1.377-3.521-.582Z"/><path d="M627.021,293.081c-3.059,1.823-5.229.252-6.303-1.552-1.146-1.925-1.459-4.439,1.635-6.282,3.041-1.812,5.229-.252,6.303,1.552,1.146,1.925,1.441,4.45-1.635,6.282ZM623.468,287.12c-1.701,1.014-2.016,2.203-1.238,3.509.778,1.306,1.975,1.595,3.676.581,1.684-1.004,2.016-2.203,1.238-3.509-.778-1.306-1.992-1.584-3.676-.581Z"/><path d="M622.501,280.386l-1.633-2.444-7.967,5.32,1.634,2.445-1.397.934-2.821-4.225,9.364-6.255-1.645-2.461,1.396-.934,4.467,6.687-1.398.933Z"/><path d="M556.462,225.679l-1.538-1.15,9.93-13.281,1.538,1.149-9.93,13.282Z"/><path d="M488.966,188.63l-2.639-.812-.055-3.492.055-2.621-1.393,2.209-2.01,2.855-2.562-.789,3.369-10.936,1.893.583-1.72,5.583-1.267,3.294,3.736-5.401,1.492.459.049,6.568.808-3.437,1.72-5.582,1.893.583-3.369,10.936Z"/><path d="M479.066,178.324c-.871,3.452-3.517,3.877-5.553,3.363-2.172-.549-4.172-2.106-3.291-5.597.867-3.433,3.518-3.878,5.554-3.363,2.172.548,4.167,2.125,3.29,5.597ZM472.336,176.623c-.485,1.92.134,2.984,1.607,3.356s2.523-.271,3.009-2.19c.479-1.9-.134-2.983-1.607-3.356-1.475-.372-2.529.29-3.009,2.19Z"/><path d="M464.593,174.214l-.656,3.316,2.766.548-.33,1.668-2.768-.549-.797,4.023-2.1-.417.797-4.022-4.258-.844.331-1.668,4.259.844.641-3.237c.324-1.629.123-2.261-1.33-2.548-.805-.16-1.585-.131-2.244.003l.335-1.688c.683-.149,1.554-.222,2.712.008,2.236.443,3.242,1.54,2.643,4.562Z"/><path d="M454.412,170.199l-3.048-.441-.783,5.403,3.048.441-.243,1.683-5.166-.749,1.027-7.085-2.791-.404.241-1.663,7.956,1.153-.241,1.662ZM449.967,180.931l-2.593-.376.348-2.395,2.592.376-.347,2.395Z"/><path d="M441.948,168.508l-2.669-.247-.491,5.297,2.668.247-.154,1.673-2.668-.248-.004.04c-.287,3.087-2.889,4.07-5.936,3.788l.158-1.692c1.633.151,3.451-.183,3.646-2.293l.004-.04-3.405-.315.155-1.673,3.404.315.492-5.297-3.406-.315.156-1.673,8.203.761-.154,1.673Z"/><path d="M357.739,185.237l-1.861.47-4.061-16.077,1.861-.47,4.061,16.077Z"/><path d="M281.991,207.717l-1.795,1.203c-.751-.941-1.65-1.062-2.946-.192-1.18.791-1.616,1.686-1.104,2.45.423.631,1.095.591,1.993.35l2.595-.728c1.419-.397,2.84-.219,3.753,1.145,1.192,1.777.326,3.755-1.701,5.114-1.895,1.27-4.008,1.458-5.467-.646l1.812-1.214c.769,1.002,1.584,1.033,2.647.32,1.18-.791,1.389-1.629.959-2.233-.373-.521-.844-.686-1.793-.411l-2.639.733c-1.387.375-2.873.457-3.898-1.072-1.291-1.927-.242-3.955,1.852-5.358,2.144-1.438,4.34-1.537,5.732.54Z"/><path d="M271.056,215.125l3.271,4.374-1.714,1.281-3.02-4.037c-.861-1.153-1.569-1.599-2.611-.82-.769.575-.974,1.203-1.026,1.767l3.868,5.175-1.714,1.282-5.294-7.082,1.49-1.113.719.961c-.012-.716.154-1.864,1.355-2.763,1.346-1.006,2.963-1.315,4.676.976Z"/><path d="M258.204,222.23l-.74-.894,1.432-1.188,8.264,9.962-1.648,1.366-3.205-3.864c-.021.537-.239,1.653-1.316,2.548-1.51,1.252-3.717,1.315-5.799-1.193-2.082-2.51-1.58-4.693-.102-5.92,1.154-.958,2.365-1.001,3.115-.817ZM256.884,227.562c1.086,1.309,2.307,1.777,3.477.807.692-.574.958-1.288,1.025-1.864l-2.631-3.172c-.578-.04-1.329.089-2.021.664-1.17.971-.936,2.257.15,3.565Z"/><path d="M247.428,227.192c-1.635,1.504-2.177,2.954-.51,4.766l4.093,4.446,2.518-2.316,1.151,1.251-4.093,3.768-5.38-5.846c-2.345-2.548-1.421-5.002,1.083-7.306l1.138,1.237ZM255.102,240.525l-1.929,1.775-1.64-1.781,1.929-1.775,1.64,1.781Z"/><path d="M243.425,239.749c2.527,2.479,1.675,4.949.148,6.506-1.584,1.613-3.98,2.457-6.479.006l-.343-.336,4.847-4.941c-1.142-1.036-2.345-1.151-3.55.077-.826.842-1.059,1.764-.557,2.48l-1.541,1.571c-1.334-1.896-.404-3.872.939-5.243,1.793-1.828,4.164-2.445,6.535-.12ZM239.362,245.405c1.098.824,2.213.517,3.025-.312.812-.828,1.098-1.948.253-3.029l-3.278,3.342Z"/><path d="M234.738,248.782c2.724,2.414,1.84,4.89.382,6.536-1.312,1.482-3.357,2.583-5.559.847l1.432-1.617c1.098.812,1.984.476,2.766-.408,1.035-1.167,1.003-2.397-.479-3.711-1.498-1.325-2.708-1.195-3.756-.013-.769.868-1.012,1.775-.072,2.767l-1.433,1.616c-1.96-1.949-1.089-4.17.198-5.621,1.471-1.662,3.826-2.782,6.521-.396Z"/><path d="M224.426,259.751l2.641,2.109,1.761-2.203,1.328,1.061-1.761,2.203,3.203,2.559-1.335,1.672-3.203-2.559-2.709,3.391-1.328-1.061,2.709-3.391-2.578-2.06c-1.297-1.036-1.95-1.147-2.873.009-.513.641-.846,1.347-1.029,1.993l-1.344-1.073c.18-.675.517-1.481,1.253-2.403,1.423-1.781,2.859-2.169,5.266-.247Z"/><path d="M191.95,336.468l-.624,1.815-15.673-5.389.624-1.815,15.673,5.389Z"/><path d="M175.49,415.475l-.061-3.78,1.88-.03.158,9.802-1.881.03-.061-3.78-9.562.152-.035-2.24,9.562-.153Z"/><path d="M170.533,424.654c3.553-.217,4.761,2.173,4.89,4.269.137,2.235-.74,4.613-4.333,4.833-3.532.216-4.761-2.173-4.889-4.269-.137-2.235.76-4.614,4.332-4.833ZM170.957,431.58c1.976-.121,2.802-1.033,2.708-2.55-.092-1.517-1.023-2.321-2.998-2.2-1.957.119-2.803,1.033-2.709,2.55.092,1.517,1.043,2.32,2.999,2.2Z"/><path d="M175.853,437.333l.207,1.85-1.154.129c.668.389,1.511,1.261,1.678,2.752.219,1.948-.939,3.829-4.181,4.192s-4.791-1.255-5.005-3.164c-.156-1.392.462-2.347.819-2.749l-4.533.508-.238-2.127,12.407-1.391ZM172.157,444.069c1.69-.188,2.732-.95,2.562-2.461-.1-.895-.531-1.511-.976-1.884l-4.116.461c-.35.462-.635,1.158-.534,2.054.169,1.511,1.354,2.022,3.063,1.83Z"/><path d="M170.255,450.602l.5,3.038,5.387-.888-.501-3.038,1.677-.276.849,5.149-7.063,1.164.459,2.781-1.658.273-1.307-7.932,1.658-.272ZM181.827,451.593l.426,2.584-2.388.394-.425-2.584,2.387-.394Z"/><path d="M174.995,461.98c3.557-.775,5.035,1.401,5.503,3.551.421,1.936.104,4.236-2.599,4.988l-.46-2.11c1.304-.407,1.555-1.321,1.304-2.475-.332-1.525-1.345-2.226-3.279-1.805-1.955.426-2.564,1.48-2.229,3.024.246,1.134.836,1.865,2.19,1.693l.46,2.11c-2.731.432-4.01-1.583-4.423-3.479-.472-2.169.014-4.732,3.532-5.498Z"/><path d="M214.04,538.085l1.016,1.629-14.066,8.778-1.016-1.629,14.066-8.778Z"/><path d="M263.985,597.492l2.207,1.755-3.241,9.281,2.038-2.979,3.535-4.446,1.535,1.221-7.123,8.954-2.207-1.755,3.241-9.281-2.038,2.979-3.535,4.446-1.535-1.22,7.123-8.955Z"/><path d="M268.968,610.37c2.061-2.88,4.632-2.417,6.404-1.147,1.838,1.315,3.041,3.554,1.004,6.4l-.279.391-5.629-4.028c-.848,1.287-.776,2.494.623,3.495.959.687,1.905.773,2.536.168l1.79,1.28c-1.67,1.609-3.764.996-5.326-.121-2.082-1.49-3.056-3.737-1.123-6.438ZM275.181,613.512c.645-1.211.169-2.265-.774-2.94-.943-.675-2.095-.785-3.032.216l3.807,2.725Z"/><path d="M280.989,613.43l1.701,1.09-3.076,6.51,3.964-3.852,1.887,1.208-1.808,5.233,4.609-5.529,1.651,1.058-6.065,6.615-2.105-1.349,1.679-4.958-3.802,3.599-2.105-1.349,3.471-8.276Z"/><path d="M289.133,625.732l1.823,1.039c-.396.856.239,1.679,1.402,2.342,1.06.604,1.982.924,2.389.212.436-.765-.658-1.55-2.046-2.709-1.345-1.111-2.538-2.368-1.618-3.982.902-1.58,2.92-1.327,4.812-.247,1.894,1.079,3.221,2.504,2.261,4.511l-1.823-1.04c.354-.903-.433-1.582-1.231-2.037-1.06-.604-1.769-.732-2.065-.212-.396.695.455,1.341,2.109,2.677,1.295,1.037,2.521,2.357,1.62,3.938-1.06,1.858-3.17,1.483-5.323.256-2.049-1.169-3.337-2.824-2.31-4.746Z"/><path d="M372.491,646.174l1.891.334-2.885,16.33-1.891-.334,2.885-16.33Z"/><path class="cls-1" d="M414.684,207.125c-114.323,0-207,92.677-207,207s92.677,207,207,207,207-92.677,207-207-92.677-207-207-207ZM414.684,552.125c-76.215,0-138-61.785-138-138s61.785-138,138-138,138,61.785,138,138-61.785,138-138,138Z"/><path d="M442.567,585.989c-.549-3.008.461-4.884,2.854-5.319,1.527-.278,3.336.092,3.848,2.455l-1.26.229c-.363-1.284-1.231-1.761-2.412-1.545-2,.364-1.99,2.2-1.676,3.933.299,1.638.941,3.376,2.941,3.012,1.338-.244,1.843-.954,1.699-2.278l1.275-.232c.338,2.298-1.146,3.349-2.785,3.647-2.472.45-3.959-1.02-4.484-3.901Z"/><path d="M453.161,586.679c-.381-1.57.909-2.294,2.215-2.611.653-.158,1.488-.245,2.008-.206l-.143-.591c-.253-1.042-.593-1.832-2.055-1.479-1.119.271-1.578.894-1.352,1.826l-1.182.286c-.471-1.943,1.01-2.829,2.378-3.161,1.788-.433,2.948.208,3.378,1.98l.746,3.078c.064.265.18.336.459.268.219-.053.502-.171.736-.293l.211.87c-.223.169-.64.419-1.121.535-.809.196-1.124-.222-1.233-.672l-.03-.125c-.244.554-.867,1.313-2.22,1.642-1.306.316-2.472-.011-2.796-1.348ZM457.851,585.79l-.256-1.058c-.396-.003-1.067.078-1.752.244-1.057.256-1.642.628-1.461,1.374.146.606.639.801,1.525.586.901-.219,1.533-.668,1.943-1.146Z"/><path d="M461.174,579.35l.948-.288.289.948c.076-.407.369-1.315,1.318-1.604.811-.246,1.362.138,1.693.622.094-.463.418-1.265,1.306-1.534.964-.293,1.743.289,2.167,1.682l1.424,4.684-1.148.349-1.33-4.377c-.289-.948-.588-1.326-1.107-1.168-.521.158-.755.598-.93,1.068l1.531,5.035-1.148.35-1.33-4.378c-.289-.948-.588-1.326-1.107-1.168-.521.158-.755.598-.93,1.068l1.531,5.036-1.148.349-2.028-6.673Z"/><path d="M472.101,579.583c-.964-2.612.398-4.053,1.914-4.612,1.472-.543,3.492-.384,4.461,2.244l.089.24-5.194,1.916c.586,1.404,1.549,1.936,2.916,1.432,1.035-.382,1.561-1.087,1.406-1.969l1.201-.442c.371,1.841-1.017,2.933-2.277,3.398-1.742.643-3.607.256-4.516-2.207ZM477.017,577.003c-.588-1.131-1.566-1.47-2.646-1.071-1.082.399-1.605,1.292-1.318,2.533l3.965-1.462Z"/><path d="M482.771,578.08l1.658-.723-1.932-4.429-1.656.723-.429-.982,2.624-1.145.633,1.452c-.017-.761.184-1.982,1.533-2.57.498-.218,1.01-.284,1.203-.28l.518,1.188c-.229-.005-.698.078-1.168.282-1.114.486-1.48,1.326-1.607,1.957l1.439,3.3,2.771-1.209.428.982-5.587,2.437-.429-.982Z"/><path d="M491.396,573.41c-.73-1.44.358-2.441,1.557-3.049.6-.304,1.392-.58,1.906-.661l-.275-.542c-.484-.956-.996-1.647-2.337-.968-1.027.521-1.331,1.231-.897,2.087l-1.084.55c-.904-1.783.334-2.984,1.59-3.621,1.641-.832,2.916-.475,3.74,1.152l1.432,2.825c.123.242.252.284.51.154.199-.102.449-.281.648-.454l.404.799c-.178.216-.525.554-.969.777-.741.377-1.144.043-1.354-.371l-.058-.114c-.111.595-.543,1.477-1.784,2.105-1.198.608-2.408.558-3.029-.67ZM495.755,571.468l-.491-.97c-.386.088-1.021.32-1.649.639-.97.492-1.453.988-1.106,1.673.282.557.805.632,1.618.22.827-.419,1.34-1.002,1.629-1.562Z"/><path d="M538.983,527.632l.773-.853,9.686,8.8-.773.853-9.686-8.8Z"/><path d="M577.493,481.019l.47-1.207c.992.317,1.778-.115,2.259-1.353.441-1.133.283-2.053-.566-2.383-.655-.255-1.121.062-1.686.717l-1.343,1.555c-.753.875-1.724,1.475-2.946,1-1.49-.58-1.776-2.185-1.133-3.839.661-1.7,1.939-2.559,3.674-1.901l-.463,1.193c-1.217-.404-1.824.32-2.148,1.155-.424,1.088-.158,1.86.527,2.127.566.221,1.075-.027,1.58-.621l1.344-1.554c1.004-1.172,1.829-1.571,2.977-1.125,1.715.667,1.921,2.343,1.242,4.087-.742,1.908-2.103,2.804-3.787,2.148Z"/><path d="M580.199,471.326c-2.757-.893-2.88-2.951-2.397-4.444.414-1.278,1.439-2.68,3.459-2.161l-.39,1.203c-1.151-.237-1.708.339-2.009,1.268-.438,1.355.061,2.358,1.736,2.9,1.69.548,2.668.022,3.106-1.333.301-.929.188-1.723-.885-2.204l.39-1.203c1.925.758,1.936,2.545,1.536,3.778-.508,1.568-1.821,3.078-4.547,2.196Z"/><path d="M584.83,462.165c-1.564-.408-1.592-1.888-1.252-3.188.169-.65.488-1.428.769-1.867l-.588-.153c-1.038-.271-1.896-.346-2.275,1.109-.291,1.115.039,1.813.969,2.057l-.308,1.177c-1.937-.505-2.015-2.229-1.659-3.593.465-1.781,1.578-2.499,3.344-2.038l3.067.8c.263.069.38,0,.453-.278.057-.217.087-.523.09-.787l.867.227c.044.276.065.762-.06,1.241-.211.806-.728.886-1.177.769l-.124-.032c.372.478.747,1.386.395,2.733-.34,1.301-1.18,2.174-2.511,1.825ZM586.267,457.611l-1.053-.274c-.189.348-.438.978-.615,1.659-.275,1.053-.224,1.745.52,1.938.604.158,1.008-.184,1.238-1.066.234-.898.138-1.668-.09-2.257Z"/><path d="M582.341,450.773l.207-1.035.91.183c-.421-.428-.863-1.233-.617-2.457.229-1.146.979-2.202,3.254-1.747l4.203.843-.248,1.239-3.938-.789c-1.285-.258-2.07-.17-2.309,1.022-.186.925.15,1.53.385,1.822l5.239,1.05-.249,1.239-6.838-1.37Z"/><path d="M584.153,441.112l.146-1.046.919.13c-.444-.402-.933-1.182-.759-2.417.163-1.156.851-2.255,3.147-1.932l4.245.597-.177,1.252-3.976-.56c-1.299-.183-2.076-.05-2.246,1.154-.131.935.238,1.52.49,1.797l5.291.744-.176,1.251-6.906-.971Z"/><path d="M588.856,432.169c-2.774-.23-3.505-2.074-3.37-3.685.13-1.562,1.128-3.326,3.918-3.094l.256.021-.46,5.518c1.521.062,2.409-.587,2.53-2.038.092-1.1-.326-1.873-1.189-2.105l.105-1.275c1.826.44,2.229,2.16,2.117,3.5-.154,1.85-1.293,3.376-3.907,3.158ZM588.595,426.624c-1.273.055-1.993.798-2.089,1.945-.096,1.148.491,2,1.738,2.265l.351-4.21Z"/><path d="M592.002,421.85l.046-1.807-4.829-.124-.046,1.807-1.072-.027.074-2.862,1.583.04c-.696-.306-1.718-1.004-1.681-2.476.014-.543.171-1.035.256-1.209l1.295.033c-.102.205-.225.666-.238,1.178-.031,1.216.574,1.903,1.094,2.285l3.598.092.078-3.021,1.07.027-.156,6.093-1.071-.028Z"/><path d="M573.626,358.576l-.385-1.086,12.346-4.356.383,1.087-12.344,4.355Z"/><path d="M545.575,306.375l-1.516-1.777c-1.504-1.766-1.697-3.472-.334-4.634,1.108-.944,2.416-.84,3.457-.088l.912-4.455,1.079,1.267-.929,4.091.779.913,2.557-2.179.861,1.011-6.867,5.852ZM548.184,302.408l-.664-.779c-1.1-1.29-2.049-1.344-2.828-.68-.767.654-.878,1.609.223,2.9l.664.779,2.605-2.221Z"/><path d="M543.564,295.609c-2.012,1.925-3.876,1.249-4.994.081-1.084-1.133-1.742-3.05.281-4.985l.186-.178,3.828,4.002c1.054-1.097,1.157-2.192.15-3.245-.764-.798-1.619-.998-2.365-.506l-.885-.925c1.54-1.075,3.096-.236,4.024.734,1.283,1.342,1.672,3.207-.226,5.021ZM539.237,292.127c-.803.99-.724,2.021.072,2.854.797.833,1.824.958,2.85.199l-2.922-3.054Z"/><path d="M536.548,288.428c-1.975,2.119-3.892,1.359-5.039.29-.982-.916-1.816-2.438-.492-4.047l.924.862c-.702.941-.416,1.69.299,2.355,1.041.971,2.161.943,3.361-.344,1.211-1.3,1.149-2.407.107-3.378-.714-.665-1.48-.898-2.371-.132l-.924-.862c1.501-1.422,3.123-.675,4.071.209,1.206,1.123,2.017,2.951.063,5.046Z"/><path d="M529.152,281.631c-1.819,2.188-3.743,1.65-4.974.628-1.229-1.022-2.061-2.773-.271-4.926,1.83-2.202,3.766-1.653,4.982-.642,1.242,1.033,2.041,2.799.263,4.939ZM524.9,278.116c-1.125,1.354-1.078,2.474-.021,3.353,1.059.879,2.168.72,3.293-.633,1.113-1.341,1.078-2.473.02-3.352-1.057-.88-2.177-.708-3.291.632Z"/><path d="M522.504,273.134l-1.454-1.074-2.871,3.885,1.454,1.074-.637.861-2.303-1.701.941-1.273c-.649.395-1.808.831-2.991-.043-.438-.323-.751-.733-.845-.902l.771-1.042c.109.2.416.566.828.87.977.723,1.889.62,2.498.414l2.139-2.894-2.432-1.797.637-.862,4.901,3.622-.637.862Z"/><path d="M513.225,269.393c-1.393,2.128-3.147,2.298-4.433,1.457-.883-.578-1.196-1.414-1.254-1.853l-2.154,3.292-1.057-.691,5.588-8.538.883.578-.49.749c.57-.2,1.502-.278,2.479.36,1.244.814,1.884,2.438.438,4.646ZM510.097,265.09l-2.067,3.158c.11.531.417,1.114,1.06,1.534,1.15.754,2.225.194,3.064-1.09.842-1.285.924-2.492-.227-3.246-.643-.42-1.299-.468-1.83-.356Z"/><path d="M504.788,263.969c-1.389,2.413-3.367,2.29-4.768,1.484-1.359-.782-2.531-2.435-1.135-4.862l.127-.222,4.8,2.761c.702-1.35.493-2.43-.769-3.156-.957-.55-1.835-.501-2.412.182l-1.109-.639c1.175-1.465,2.902-1.099,4.068-.428,1.608.925,2.506,2.605,1.197,4.88ZM499.657,261.848c-.491,1.176-.125,2.144.874,2.718s2.019.405,2.788-.611l-3.662-2.106Z"/><path d="M496.782,256.732l-1.618-.811-2.165,4.322,1.617.811-.48.959-2.562-1.283.71-1.417c-.573.501-1.641,1.13-2.957.47-.487-.244-.866-.595-.987-.745l.58-1.159c.144.179.508.487.967.717,1.088.545,1.969.288,2.534-.02l1.614-3.221-2.705-1.355.48-.959,5.453,2.732-.48.959Z"/><path d="M431.677,246.653l-1.147-.111,1.261-13.03,1.146.11-1.26,13.031Z"/><path d="M372.468,249.889l-5.738,1.573-.301-1.096,4.459-1.222-.795-2.9-3.903,1.069-.3-1.095,3.902-1.069-.988-3.61,1.28-.351,2.384,8.7Z"/><path d="M360.747,244.988l-2.395.811,1.549,4.575,2.394-.81.344,1.015-3.591,1.216-1.893-5.592-2.182.738-.344-1.015,5.773-1.954.344,1.016ZM361.446,254.393l-1.529.518-.519-1.53,1.53-.518.518,1.53Z"/><path d="M351.146,248.353l-2.24.903,3.021,7.49,2.239-.903.395.979-3.41,1.376-3.416-8.469-2.239.903-.401-.994,5.651-2.278.401.993Z"/><path d="M344.87,257.327l-.896.424-.424-.896c-.016.415-.173,1.355-1.07,1.779-.766.362-1.367.063-1.766-.368-.025.472-.23,1.312-1.068,1.708-.912.431-1.768-.031-2.39-1.348l-2.092-4.427,1.085-.513,1.955,4.137c.424.897.774,1.228,1.266.995.492-.232.66-.701.764-1.193l-2.248-4.759,1.084-.513,1.955,4.137c.424.897.775,1.227,1.267.994s.659-.7.764-1.192l-2.249-4.759,1.084-.513,2.98,6.307Z"/><path d="M293.566,297.24l-.797.832-9.449-9.062.797-.831,9.449,9.062Z"/><path d="M259.498,345.76l-1.024,2.433c-.869,2.063-2.293,3.095-4.077,2.344-1.784-.752-2.046-2.477-1.171-4.555l.51-1.209-3.066-1.292.516-1.224,8.313,3.503ZM254.782,345.213l-.516,1.224c-.658,1.562-.279,2.434.664,2.832.929.391,1.832.06,2.49-1.503l.516-1.224-3.154-1.329Z"/><path d="M248.412,351.906l-.604,1.703,4.553,1.617.604-1.703,1.011.358-.959,2.699-1.492-.53c.566.507,1.321,1.488.828,2.875-.182.513-.483.932-.617,1.07l-1.222-.434c.16-.164.421-.563.593-1.046.406-1.146.044-1.987-.33-2.511l-3.393-1.205-1.012,2.849-1.011-.358,2.04-5.744,1.011.359Z"/><path d="M247.523,361.876c2.734.796,3.01,2.775,2.562,4.312-.447,1.536-1.723,2.998-4.412,2.216-2.75-.8-3.02-2.795-2.577-4.316.452-1.552,1.753-2.99,4.427-2.212ZM245.995,367.182c1.69.492,2.699.002,3.084-1.319s-.204-2.276-1.895-2.768c-1.675-.487-2.699-.002-3.084,1.319s.22,2.28,1.895,2.768Z"/><path d="M239.372,371.192c-.359,1.575-.127,2.925,1.697,3.343l5.271,1.207.604-2.636,1.045.239-.886,3.868-6.44-1.475c-2.214-.508-2.897-2.256-2.319-4.782l1.029.235ZM250.574,376.531l-.36,1.575-1.575-.36.36-1.575,1.575.36Z"/><path d="M242.65,381.38c2.745.465,3.316,2.363,3.047,3.956-.262,1.547-1.405,3.22-4.166,2.752l-.253-.042.924-5.46c-1.51-.19-2.449.381-2.693,1.816-.184,1.089.167,1.895,1.008,2.199l-.213,1.263c-1.783-.594-2.039-2.342-1.814-3.667.31-1.83,1.573-3.255,4.161-2.817ZM242.441,386.928c1.273.053,2.054-.626,2.246-1.763.192-1.136-.321-2.034-1.541-2.402l-.705,4.165Z"/><path d="M241.087,391.273c2.877.318,3.414,2.309,3.242,3.866-.147,1.336-.869,2.914-2.949,2.813l.139-1.257c1.174,0,1.604-.676,1.71-1.646.156-1.415-.535-2.296-2.284-2.489-1.765-.194-2.615.517-2.771,1.932-.107.97.164,1.724,1.311,1.979l-.139,1.257c-2.037-.354-2.408-2.101-2.266-3.389.181-1.638,1.162-3.38,4.008-3.066Z"/><path d="M239.314,403.191l3.067.164.122-2.284,1.07.058-.122,2.284,3.228.173-.068,1.262-3.227-.173-.184,3.419-1.07-.057.184-3.419-3.02-.162c-1.422-.076-1.965.199-2.03,1.414-.038.703.076,1.27.213,1.709l-1.07-.057c-.101-.229-.272-.912-.22-1.887.09-1.677.762-2.57,3.127-2.444Z"/><path d="M239.569,411.312c2.848-.046,3.692,1.764,3.719,3.363.025,1.599-.762,3.371-3.561,3.417-2.861.046-3.707-1.779-3.732-3.363-.027-1.614.793-3.371,3.574-3.417ZM239.676,416.829c1.759-.028,2.578-.793,2.556-2.168-.021-1.376-.865-2.114-2.625-2.085-1.743.028-2.578.793-2.557,2.169.023,1.375.883,2.112,2.626,2.084Z"/><path d="M237.366,421.848l.108,1.805,4.825-.29-.109-1.806,1.07-.064.172,2.86-1.581.095c.72.245,1.8.854,1.888,2.323.033.544-.082,1.048-.15,1.229l-1.295.077c.084-.213.168-.684.137-1.194-.072-1.214-.736-1.848-1.285-2.184l-3.595.217.182,3.02-1.07.063-.366-6.086,1.07-.064Z"/><path d="M261.173,483.271l.479,1.048-11.908,5.43-.477-1.048,11.906-5.43Z"/><path d="M293.676,532.857l.946.933-5.537,5.619,3.295,3.245-.798.81-4.24-4.178,6.334-6.429Z"/><path d="M295.289,545.447l1.899,1.669,3.189-3.632-1.9-1.668.707-.806,2.85,2.503-3.896,4.437,1.731,1.521-.707.806-4.582-4.023.708-.806ZM303.085,540.133l1.215,1.067-1.066,1.214-1.215-1.066,1.066-1.215Z"/><path d="M301.819,553.201l.971.759c-.6.791-.502,1.497.494,2.276,1.311,1.024,1.984.475,2.605-.319l.572-.73c-.438.064-1.285.031-2.117-.619-1.234-.966-1.646-2.648-.098-4.627,1.567-2.004,3.337-1.981,4.534-1.045.896.7,1.147,1.649,1.126,2.222l.553-.705.832.65-4.466,5.709c-1.095,1.399-2.373,1.658-4.163.259-1.285-1.006-2.054-2.257-.844-3.829ZM307.043,554.442l2.267-2.898c-.074-.606-.359-1.176-.914-1.609-1.084-.848-2.203-.403-3.131.781-.926,1.186-1.088,2.379-.004,3.227.555.434,1.176.574,1.782.5Z"/><path d="M316.461,550.867l1.038.721-2.271,3.271c.424-.134,1.216-.266,2.201.419.973.675,1.656,1.793.333,3.698l-2.445,3.521-1.038-.721,2.291-3.298c.748-1.077.979-1.831-.02-2.524-.774-.539-1.463-.472-1.824-.372l-3.049,4.388-1.037-.721,5.821-8.382Z"/><path d="M321.812,563.308l1.605-2.619-1.95-1.196.56-.914,1.951,1.196,1.689-2.756,1.078.66-1.689,2.756,2.919,1.79-.56.913-2.92-1.789-1.58,2.578c-.744,1.214-.762,1.823.275,2.459.6.368,1.152.538,1.605.627l-.561.914c-.25-.021-.932-.195-1.764-.705-1.432-.879-1.896-1.896-.66-3.914Z"/><path d="M383.534,579.576l1.133.207-2.359,12.869-1.133-.208,2.359-12.868Z"/><path class="cls-1" d="M414.684,276.125c-76.215,0-138,61.785-138,138s61.785,138,138,138,138-61.785,138-138-61.785-138-138-138ZM414.684,483.125c-38.108,0-69-30.892-69-69s30.892-69,69-69,69,30.892,69,69-30.892,69-69,69Z"/><path d="M447.724,507.277l2.556-1.04,2.252,2.668,1.616,2.062-.32-2.591-.25-3.481,2.482-1.01,4.311,10.596-1.834.746-2.2-5.409-1.104-3.351.525,6.544-1.445.588-4.193-5.052,1.549,3.17,2.201,5.409-1.834.746-4.311-10.596Z"/><path d="M461.952,508.831c-1.729-3.112-.092-5.232,1.744-6.252,1.959-1.087,4.482-1.32,6.229,1.827,1.718,3.095.091,5.232-1.745,6.252-1.959,1.087-4.492,1.303-6.229-1.827ZM468.02,505.464c-.961-1.731-2.14-2.083-3.469-1.346s-1.653,1.924-.692,3.655c.95,1.714,2.139,2.083,3.469,1.346,1.328-.737,1.644-1.941.692-3.655Z"/><path d="M474.948,504.412l1.766-1.277-3.199-4.424-1.766,1.277-.996-1.377,3.273-2.367,1.172,1.62c-.267-1.017-.269-2.521,1.142-3.54.534-.387,1.114-.609,1.567-.665l1.266,1.75c-.509.047-1.153.316-1.623.656-1.135.82-1.405,1.879-1.422,2.607l2.32,3.208,3.014-2.18.984,1.361-6.514,4.711-.984-1.361Z"/><path d="M480.505,491.233l1.366-1.262.813.882c-.084-.711-.038-1.87,1.064-2.887,1.234-1.14,2.81-1.614,4.75.486l3.703,4.012-1.572,1.451-3.419-3.702c-.977-1.059-1.726-1.428-2.681-.546-.705.65-.845,1.296-.839,1.862l4.382,4.746-1.572,1.452-5.996-6.495Z"/><path d="M487.883,478.094l1.7-1.993,1.842,1.571-1.701,1.993-1.841-1.571ZM494.591,487.581l2-2.343-4.154-3.545-1.999,2.343-1.293-1.104,3.39-3.971,5.445,4.648,1.831-2.146,1.278,1.091-5.221,6.116-1.277-1.091Z"/><path d="M496.898,473.453l1.031-1.548.999.665c-.249-.671-.478-1.809.354-3.057.932-1.398,2.352-2.231,4.732-.645l4.545,3.028-1.188,1.781-4.194-2.796c-1.198-.799-2.015-.981-2.735.101-.533.799-.516,1.46-.377,2.009l5.377,3.583-1.188,1.781-7.357-4.903Z"/><path d="M511.511,467.931l.928-1.839c.956.415,1.762.284,2.447-1.072.829-1.643.054-2.281-1-2.812l-1.125-.568c.204.573.396,1.566-.217,2.781-.929,1.838-2.927,2.733-5.641,1.363-2.731-1.38-3.205-3.592-2.304-5.377.649-1.285,1.743-1.854,2.485-1.948l-1.018-.515.839-1.66,8.105,4.095c2.124,1.072,2.601,2.837,1.284,5.443-.885,1.75-2.277,3.31-4.785,2.109ZM511.458,460.981l-3.428-1.731c-.6.212-1.192.63-1.57,1.38-.695,1.374-.011,2.46,1.418,3.181,1.428.722,2.689.62,3.384-.755.379-.75.382-1.466.196-2.074Z"/><path d="M507.167,384.106l-.61-1.82,15.724-5.275.611,1.821-15.725,5.274Z"/><path d="M461.665,327.205l-2.53-1.243,1.185-9.755-1.354,3.345-2.505,5.096-1.759-.864,5.045-10.264,2.53,1.243-1.185,9.755,1.354-3.345,2.505-5.096,1.759.864-5.045,10.264Z"/><path d="M453.931,315.818c-1.176,3.36-3.848,3.548-5.83,2.854-2.113-.74-3.967-2.47-2.777-5.867,1.17-3.341,3.848-3.547,5.83-2.854,2.113.74,3.959,2.488,2.777,5.866ZM447.381,313.526c-.654,1.868-.134,2.983,1.302,3.485,1.434.502,2.536-.045,3.19-1.913.647-1.85.134-2.983-1.302-3.485-1.434-.502-2.543.063-3.19,1.913Z"/><path d="M441.933,311.842c-.764,3.477-3.393,3.984-5.443,3.534-2.188-.48-4.234-1.974-3.463-5.489.76-3.457,3.393-3.984,5.443-3.534,2.188.48,4.23,1.993,3.463,5.489ZM435.155,310.354c-.424,1.934.227,2.978,1.711,3.304s2.514-.35,2.938-2.283c.42-1.914-.227-2.977-1.711-3.303s-2.518.368-2.938,2.282Z"/><path d="M428.429,313.672l-1.852-.179.115-1.195c-.474.537-1.369,1.275-2.862,1.131-1.673-.161-3.077-1.021-2.802-3.868l.524-5.437,2.131.206-.485,5.019c-.138,1.434.086,2.238,1.381,2.363.955.093,1.529-.233,1.948-.615l.621-6.432,2.13.205-.85,8.802Z"/><path d="M353.311,338.735l-1.477,1.228-10.601-12.751,1.477-1.228,10.601,12.751Z"/><path d="M316.674,401.722l-.241,2.81-9.523,2.436,3.609.049,5.66.485-.168,1.953-11.398-.978.24-2.811,9.523-2.435-3.609-.049-5.659-.485.167-1.953,11.399.978Z"/><path d="M306.147,413.688l.101,3.078,5.457-.179-.101-3.078,1.698-.057.172,5.218-7.156.234.093,2.818-1.679.056-.264-8.036,1.679-.055ZM317.494,416.177l.086,2.618-2.419.079-.086-2.618,2.419-.079Z"/><path d="M304.62,426.559l.309,2.037c-1.019.215-1.6.789-1.371,2.292.277,1.819,1.279,1.89,2.445,1.712l1.246-.189c-.498-.349-1.23-1.047-1.436-2.392-.31-2.037.799-3.925,3.805-4.382,3.026-.46,4.695,1.066,4.995,3.044.217,1.424-.345,2.521-.896,3.029l1.128-.171.279,1.839-8.978,1.365c-2.354.357-3.764-.804-4.203-3.691-.295-1.938-.064-4.017,2.676-4.493ZM308.692,432.192l3.797-.577c.367-.521.606-1.205.48-2.036-.232-1.522-1.418-2.01-3-1.77-1.582.241-2.551,1.056-2.32,2.578.127.831.539,1.416,1.043,1.805Z"/><path d="M319.985,436.498l.573,2.062-4.896,1.36c.466.182,1.438.764,1.807,2.093.45,1.619.143,3.199-2.613,3.966l-5.262,1.462-.573-2.062,4.856-1.35c1.388-.386,2.059-.884,1.711-2.136-.258-.926-.768-1.344-1.274-1.598l-6.226,1.729-.572-2.062,12.469-3.466Z"/><path d="M315.511,452.773l3.123-1.289-1.075-2.605,1.571-.648,1.075,2.605,3.788-1.564.816,1.978-3.788,1.563,1.655,4.01-1.57.648-1.656-4.01-3.049,1.259c-1.533.634-1.947,1.15-1.383,2.518.312.758.77,1.392,1.246,1.865l-1.59.656c-.502-.484-1.045-1.169-1.494-2.26-.87-2.106-.515-3.551,2.33-4.726Z"/><path d="M376.97,503.749l1.776.729-6.286,15.344-1.777-.729,6.287-15.344Z"/><path class="cls-1" d="M414.684.125C186.038.125.684,185.479.684,414.125s185.354,414,414,414,414-185.354,414-414S643.33.125,414.684.125ZM414.684,759.125c-190.538,0-345-154.462-345-345S224.145,69.125,414.684,69.125s345,154.462,345,345-154.462,345-345,345Z"/><path d="M446.367,786.224l1.882-.162,3.99,8.846-1.897.163-.843-1.951-3.205.275-.48,2.065-1.865.161,2.419-9.397ZM446.571,791.957l2.361-.203-.385-.915-1.131-2.874-.623,3.025-.223.967Z"/><path d="M454.792,793.286l2.338-.265-.863-7.616-2.337.265-.151-1.336,4.039-.457,1.014,8.952,2.353-.267.151,1.335-6.392.724-.151-1.335Z"/><path d="M464.792,792.108l2.328-.325-1.061-7.586-2.328.325-.186-1.331,4.023-.562,1.245,8.917,2.345-.327.186,1.33-6.367.89-.186-1.331Z"/><path d="M474.652,789.302l-.72-4.308,1.688-.282.665,3.977c.19,1.136.53,1.711,1.556,1.54.757-.127,1.133-.498,1.377-.88l-.853-5.096,1.688-.282,1.166,6.974-1.467.245-.158-.946c-.255.513-.793,1.268-1.977,1.466-1.326.222-2.588-.151-2.966-2.407Z"/><path d="M484.194,788.157l1.648-.32c.206.726,1.021.894,2.072.688.959-.186,1.685-.474,1.56-1.117-.134-.69-1.208-.597-2.653-.576-1.396.027-2.776-.112-3.061-1.572-.277-1.429,1.08-2.328,2.791-2.661,1.711-.332,3.26-.161,3.725,1.558l-1.648.32c-.256-.732-1.088-.733-1.811-.593-.957.186-1.455.479-1.363.949.123.628.977.576,2.676.522,1.328-.046,2.761.115,3.038,1.544.327,1.681-1.149,2.554-3.097,2.933-1.853.359-3.498.027-3.877-1.675Z"/><path d="M494.571,786.987l2.406-.533-.945-4.266-2.406.533-.294-1.328,4.078-.904,1.239,5.594,2.203-.488.291,1.312-6.281,1.393-.291-1.312ZM494.857,777.695l2.047-.454.419,1.891-2.047.454-.419-1.891Z"/><path d="M503.422,782.74c-.69-2.762,1.014-4.061,2.644-4.468,1.737-.435,3.735-.093,4.433,2.701.687,2.746-1.013,4.062-2.643,4.468-1.738.435-3.739.077-4.434-2.701ZM508.807,781.395c-.384-1.536-1.222-2.052-2.401-1.758-1.179.295-1.676,1.145-1.292,2.681.38,1.521,1.222,2.053,2.401,1.758s1.672-1.159,1.292-2.681Z"/><path d="M512.72,776.718l1.434-.398.258.925c.199-.537.654-1.345,1.811-1.666,1.295-.36,2.59-.123,3.203,2.081l1.17,4.207-1.648.459-1.081-3.884c-.309-1.109-.707-1.646-1.709-1.368-.739.206-1.074.615-1.277,1.02l1.386,4.979-1.649.459-1.896-6.812Z"/><path d="M566.421,754.123l1.4-.63,5.439,12.094-1.4.629-5.439-12.093Z"/><path d="M615.866,728.782l1.586-1.022,7.66,5.947-1.601,1.031-1.657-1.33-2.701,1.742.541,2.05-1.573,1.014-2.255-9.432ZM618.727,733.75l1.989-1.282-.767-.629-2.343-2.011.864,2.964.256.958Z"/><path d="M622.862,726.713l1.07-.73.568.832c-.055-.505-.051-1.379.782-1.947.687-.469,1.377-.281,1.802.087-.03-.386-.018-1.305.801-1.863.912-.623,1.814-.096,2.607,1.067l2.751,4.03-1.255.856-2.598-3.806c-.486-.713-.817-.914-1.188-.661-.357.243-.441.688-.473,1.039l2.949,4.32-1.256.857-2.597-3.806c-.487-.714-.817-.914-1.188-.662-.356.244-.454.697-.485,1.048l2.949,4.321-1.256.856-3.986-5.84Z"/><path d="M631.646,720.659l1.207-.871.543.752c.008-.617.283-1.547,1.256-2.249,1.271-.919,3.037-.852,4.564,1.263s1.01,3.83-.236,4.729c-.907.655-1.814.601-2.236.51l2.137,2.957-1.389,1.003-5.846-8.094ZM637.788,720.583c-.796-1.103-1.735-1.529-2.721-.816-.584.421-.844.964-.928,1.42l1.938,2.685c.46.062,1.057-.013,1.64-.435.986-.712.877-1.738.07-2.854Z"/><path d="M643.052,719.433l1.871-1.427-4.648-6.096-1.871,1.427-.814-1.069,3.232-2.465,5.463,7.164,1.884-1.436.815,1.068-5.116,3.901-.815-1.068Z"/><path d="M647.187,704.826l1.633-1.312,1.213,1.508-1.633,1.313-1.213-1.509ZM651.048,713.278l1.92-1.544-2.737-3.403-1.92,1.544-.853-1.06,3.254-2.616,3.59,4.463,1.758-1.413.842,1.047-5.012,4.03-.842-1.048Z"/><path d="M658.782,706.992l1.635-1.389-2.757-3.242-1.634,1.388-.87-1.024,1.634-1.388-.021-.024c-1.605-1.89-.713-3.929,1.152-5.514l.881,1.036c-1,.85-1.826,2.076-.729,3.369l.021.024,2.084-1.772.871,1.024-2.085,1.771,2.756,3.243,2.085-1.771.87,1.024-5.022,4.269-.871-1.024Z"/><path d="M662.196,692.146l1.562-1.396,1.29,1.441-1.562,1.397-1.291-1.442ZM666.497,700.381l1.836-1.643-2.912-3.254-1.835,1.643-.907-1.013,3.111-2.784,3.818,4.267,1.68-1.504.896,1.001-4.791,4.288-.896-1.001Z"/><path d="M672.153,692.322c-2-2.119-1.117-4.029.164-5.238,1.152-1.087,2.86-1.819,4.492-.277l-1.258,1.187c-.816-.726-1.548-.521-2.234.128-.908.857-.971,1.84.117,2.993,1.098,1.164,2.072,1.147,2.992.279.676-.638.934-1.344.256-2.201l1.258-1.187c1.424,1.694.57,3.402-.56,4.468-1.292,1.22-3.25,1.944-5.228-.151Z"/><path d="M680.61,686.604c-1.15-1.156-.424-2.489.608-3.515.521-.519,1.167-.98,1.552-1.184l-.405-.408c-.644-.646-1.264-1.043-2.193-.119-.703.699-.829,1.389-.243,1.979l-1.145,1.139c-1.365-1.371-.705-2.953.508-4.159,1.305-1.297,2.73-1.609,4.129-.204l2.062,2.075c.191.192.328.193.531-.01.137-.136.307-.373.409-.542l.801.805c-.114.294-.387.791-.761,1.163-.635.631-1.144.483-1.516.108l-.09-.09c.066.588-.027,1.605-1.059,2.631-.976.97-2.197,1.328-3.189.331ZM684.147,683.29l-.632-.636c-.271.158-.781.575-1.212,1.004-.669.665-.987,1.229-.514,1.705.384.386.837.274,1.392-.278.635-.632.92-1.343.966-1.795Z"/><path d="M688.208,677.296l-1.958-1.867-1.558,1.633-.984-.939,1.558-1.633-2.374-2.265,1.182-1.239,2.375,2.265,2.396-2.513.984.938-2.396,2.514,1.91,1.822c.961.917,1.475,1.053,2.291.195.453-.475.77-1.015.961-1.517l.996.95c-.191.524-.516,1.144-1.168,1.827-1.26,1.32-2.432,1.529-4.215-.172Z"/><path d="M690.134,664.49l1.407-1.553,1.435,1.3-1.407,1.553-1.435-1.3ZM695.273,672.233l1.654-1.826-3.236-2.933-1.654,1.826-1.008-.913,2.804-3.095,4.244,3.846,1.515-1.671.996.902-4.318,4.766-.996-.902Z"/><path d="M700.054,663.628c-2.162-1.855-1.523-3.901-.43-5.177,1.167-1.36,2.996-2.237,5.182-.361,2.15,1.844,1.523,3.901.43,5.176-1.168,1.36-3.008,2.228-5.182.362ZM703.67,659.414c-1.202-1.031-2.185-.968-2.978-.045-.791.923-.705,1.904.497,2.936,1.19,1.021,2.185.969,2.978.045.791-.923.693-1.914-.497-2.936Z"/><path d="M704.137,653.371l.939-1.154.745.606c-.148-.554-.242-1.477.515-2.407.849-1.042,2.043-1.596,3.817-.151l3.387,2.758-1.082,1.327-3.125-2.546c-.895-.727-1.529-.935-2.186-.129-.484.596-.521,1.123-.453,1.57l4.006,3.263-1.08,1.327-5.483-4.464Z"/><path d="M734.973,603.884l.78-1.322,11.423,6.742-.78,1.322-11.423-6.742Z"/><path d="M760.762,554.674l.706-1.75,9.686.44-.712,1.765-2.12-.131-1.202,2.981,1.624,1.362-.7,1.735-7.281-6.403ZM765.964,557.082l.885-2.194-.988-.071-3.072-.291,2.414,1.923.762.634Z"/><path d="M765.55,548.235l.52-1.394.898.335c-.316-.477-.702-1.32-.283-2.443.469-1.259,1.422-2.167,3.564-1.368l4.091,1.524-.598,1.604-3.776-1.407c-1.078-.402-1.746-.396-2.109.579-.268.719-.135,1.229.074,1.632l4.84,1.804-.598,1.604-6.623-2.469Z"/><path d="M773.27,538.898l-2.558-.877-.732,2.134-1.286-.44.731-2.135-3.104-1.063.556-1.619,3.103,1.063,1.126-3.285,1.286.441-1.125,3.284,2.498.856c1.256.431,1.777.339,2.162-.781.213-.621.273-1.242.237-1.779l1.302.446c.046.557.01,1.255-.297,2.148-.592,1.726-1.568,2.405-3.899,1.606Z"/><path d="M769.649,526.482l.628-2.001,1.848.579-.627,2.001-1.849-.579ZM777.563,531.363l.737-2.352-4.17-1.309-.737,2.353-1.298-.407,1.25-3.986,5.469,1.715.675-2.153,1.283.402-1.927,6.141-1.282-.403Z"/><path d="M779.353,519.791l-2.603-.74-.617,2.171-1.31-.372.618-2.171-3.156-.898.469-1.647,3.156.898.95-3.341,1.309.372-.95,3.341,2.54.723c1.278.363,1.795.244,2.119-.896.18-.631.207-1.256.143-1.79l1.324.377c.075.554.076,1.253-.182,2.161-.5,1.756-1.439,2.486-3.811,1.812Z"/><path d="M774.544,509.672l.424-1.659,3.938,1.008c-.251-.312-.692-1.103-.419-2.172.334-1.303,1.178-2.275,3.395-1.708l4.232,1.083-.426,1.658-3.906-.999c-1.116-.286-1.78-.208-2.038.8-.19.744-.003,1.238.247,1.615l5.008,1.282-.425,1.658-10.03-2.566Z"/><path d="M783.489,502.2c-2.76-.629-3.213-2.669-2.826-4.368.402-1.763,1.681-3.341,4.41-2.719l.374.085-1.23,5.396c1.212.228,2.079-.198,2.386-1.539.209-.92-.02-1.645-.661-1.923l.392-1.715c1.703.732,1.897,2.467,1.557,3.964-.455,1.996-1.811,3.409-4.4,2.819ZM783.886,496.647c-1.092-.102-1.722.575-1.928,1.479-.207.904.068,1.787,1.096,2.169l.832-3.648Z"/><path d="M786.954,492.575l.33-1.647c.75.085,1.214-.605,1.425-1.656.191-.957.201-1.737-.442-1.866-.689-.139-1.01.891-1.541,2.236-.506,1.302-1.158,2.524-2.617,2.232-1.428-.286-1.744-1.883-1.401-3.593s1.09-3.077,2.856-2.854l-.33,1.646c-.775-.041-1.092.728-1.236,1.449-.192.957-.111,1.527.359,1.622.628.126.904-.684,1.501-2.277.462-1.245,1.155-2.51,2.583-2.224,1.678.337,1.926,2.034,1.535,3.979-.37,1.851-1.303,3.246-3.021,2.951Z"/><path d="M781.322,478.753l.356-2.064,1.906.329-.355,2.064-1.907-.329ZM789.808,482.537l.419-2.427-4.304-.741-.418,2.427-1.34-.23.709-4.114,5.643.973.383-2.223,1.324.229-1.092,6.336-1.324-.229Z"/><path d="M790.552,472.812l.241-1.663c.754.045,1.181-.669,1.335-1.73.141-.966.109-1.747-.54-1.842-.696-.102-.962.943-1.421,2.316-.436,1.327-1.023,2.585-2.496,2.37-1.441-.209-1.842-1.788-1.591-3.515s.925-3.133,2.701-3.003l-.242,1.662c-.776,0-1.052.785-1.158,1.514-.141.967-.028,1.532.446,1.602.634.093.867-.73,1.378-2.354.396-1.27,1.021-2.569,2.462-2.359,1.695.246,2.032,1.929,1.746,3.894-.271,1.868-1.129,3.312-2.861,3.109Z"/><path d="M786.923,413.46l-.025-1.535,13.257-.215.024,1.535-13.256.215Z"/><path d="M784.235,360.028l-.969-6.308,1.486-.228.699,4.553,2.213-.34-.6-3.904,1.486-.229.6,3.905,2.371-.364-.699-4.553,1.486-.229.968,6.308-9.042,1.388Z"/><path d="M790.388,349.003l-.42-2.314-7.543,1.366.42,2.315-1.322.239-.726-4,8.866-1.606-.423-2.33,1.323-.24,1.146,6.331-1.322.239Z"/><path d="M788.552,339.119l-.48-2.304-7.506,1.564.48,2.304-1.316.274-.83-3.98,8.822-1.839-.482-2.319,1.316-.273,1.312,6.299-1.316.274Z"/><path d="M777.159,329.099l-.48-2.038,1.883-.445.481,2.039-1.884.444ZM786.448,329.255l-.566-2.397-4.249,1.004.566,2.397-1.323.312-.959-4.062,5.571-1.316-.519-2.194,1.308-.31,1.478,6.257-1.307.31Z"/><path d="M778.521,320.836l-.38-1.438.897-.237c-.574-.229-1.343-.82-1.649-1.981-.401-1.516.296-3.14,2.817-3.807,2.522-.666,3.938.433,4.331,1.918.286,1.083-.091,1.911-.327,2.271l3.528-.933.438,1.655-9.655,2.552ZM780.656,315.075c-1.315.348-2.051,1.071-1.739,2.247.184.696.597,1.134.992,1.377l3.203-.847c.223-.406.367-.991.183-1.688-.311-1.176-1.308-1.441-2.639-1.09Z"/><path d="M780.708,310.296l-.473-1.612c.703-.272.795-1.1.492-2.128-.273-.937-.629-1.633-1.258-1.448-.676.198-.48,1.258-.326,2.696.157,1.388.146,2.774-1.281,3.193-1.396.409-2.418-.858-2.908-2.531-.491-1.673-.465-3.231,1.203-3.854l.473,1.611c-.705.324-.629,1.151-.422,1.857.274.937.611,1.404,1.072,1.27.613-.18.482-1.025.271-2.714-.17-1.316-.143-2.759,1.254-3.168,1.643-.481,2.65.906,3.208,2.81.531,1.812.354,3.48-1.306,4.018Z"/><path d="M769.315,300.71l-.644-1.995,1.842-.595.645,1.995-1.843.595ZM778.591,300.122l-.758-2.346-4.156,1.342.756,2.345-1.294.418-1.282-3.975,5.451-1.759-.692-2.147,1.279-.412,1.976,6.121-1.279.413Z"/><path d="M774.728,291.132l-.558-1.585c.688-.31.735-1.14.38-2.151-.324-.92-.715-1.597-1.334-1.379-.664.233-.414,1.281-.183,2.71.229,1.377.294,2.763-1.11,3.256-1.373.483-2.461-.728-3.039-2.373-.579-1.645-.635-3.202.998-3.912l.557,1.585c-.688.36-.566,1.183-.322,1.877.323.921.686,1.37,1.138,1.211.604-.213.428-1.05.127-2.725-.239-1.307-.288-2.748,1.085-3.23,1.615-.568,2.694.765,3.353,2.636.626,1.781.538,3.457-1.091,4.081Z"/><path d="M743.878,240.229l-.721-1.356,11.713-6.224.721,1.356-11.713,6.224Z"/><path d="M716.602,194.307l-1.059-1.426,3.007-2.231-1.584-2.133-3.006,2.231-1.059-1.426,7.35-5.455,1.059,1.426-3.148,2.337,1.583,2.133,3.147-2.337,1.059,1.426-7.349,5.455Z"/><path d="M719.495,180.252c-.947-1.209-1.789-1.504-3.012-1.196l-3.591,6.802-1.185-1.511,1.792-3.134,1.228-1.959-2.192.703-3.493.99-1.125-1.435,7.113-1.817c2.598-.655,3.944-.39,5.573,1.688l-1.108.869Z"/><path d="M706.185,177.375l-.949-1.146.716-.592c-.616.032-1.562-.182-2.327-1.106-.998-1.209-1.047-2.975.963-4.636s3.756-1.257,4.734-.073c.713.862.717,1.772.654,2.198l2.811-2.324,1.092,1.319-7.693,6.36ZM705.708,171.251c-1.048.866-1.412,1.832-.638,2.769.459.555,1.017.778,1.478.833l2.553-2.109c.032-.463-.082-1.054-.541-1.608-.774-.937-1.791-.761-2.852.116Z"/><path d="M702.843,167.795c-2.133,1.86-4.049,1.026-5.195-.287-1.188-1.362-1.711-3.325.398-5.165l.289-.252,3.638,4.171c.897-.846,1.063-1.798.159-2.835-.619-.711-1.34-.953-1.942-.598l-1.157-1.326c1.596-.945,3.112-.082,4.121,1.075,1.346,1.543,1.691,3.471-.311,5.217ZM698.587,164.206c-.725.823-.549,1.73.062,2.43s1.485.997,2.399.391l-2.461-2.82Z"/><path d="M697.534,158.499l-1.18-1.284-3.217,2.957,1.182,1.284-1.002.921-2.188-2.379,1.179-1.084c-.783.308-1.979.45-2.922-.575-.357-.389-.588-.828-.675-1.184l1.272-1.17c.085.4.359.888.674,1.229.758.825,1.625.94,2.205.886l2.332-2.146-2.015-2.19.989-.91,4.355,4.735-.99.91Z"/><path d="M689.888,149.7l.666-.646,1.036,1.069-7.435,7.206-1.191-1.229,2.884-2.796c-.431.016-1.334-.089-2.114-.894-1.091-1.126-1.279-2.883.594-4.698s3.646-1.551,4.715-.447c.836.861.945,1.825.846,2.435ZM685.553,148.976c-.977.947-1.274,1.949-.429,2.822.502.518,1.088.685,1.551.703l2.367-2.294c-.004-.465-.153-1.056-.654-1.572-.847-.873-1.858-.606-2.835.341Z"/><path d="M682.432,145.806c-1.993,2.034-3.993,1.262-5.193.086-1.28-1.254-2.034-3.137-.019-5.193,1.982-2.023,3.993-1.263,5.193-.087,1.279,1.255,2.023,3.148.019,5.194ZM678.466,141.919c-1.109,1.132-1.11,2.116-.242,2.967.869.852,1.854.83,2.962-.301,1.098-1.12,1.11-2.116.241-2.968-.868-.851-1.863-.818-2.961.302Z"/><path d="M676.425,136.924l-1.723-1.602-5.219,5.613,1.723,1.602-.916.984-2.977-2.768,6.135-6.598-1.734-1.612.914-.984,4.711,4.38-.914.984Z"/><path d="M667.894,131.998c-1.872,2.125-3.881,1.55-5.19.397-1.356-1.195-2.134-3.073-.283-5.175l.254-.288,4.155,3.659c.777-.957.818-1.923-.215-2.832-.708-.624-1.454-.77-2.005-.338l-1.321-1.163c1.458-1.146,3.076-.49,4.229.525,1.537,1.354,2.132,3.22.377,5.214ZM663.202,128.997c-.611.912-.318,1.789.379,2.402.696.613,1.604.794,2.431.072l-2.81-2.475Z"/><path d="M616.918,101.58l-1.29-.834,7.197-11.144,1.29.833-7.197,11.145Z"/><path d="M571.187,74.96l-2.014-.907.305-2.776.303-2.075-1.324,1.614-1.879,2.066-1.955-.881,3.762-8.345,1.443.651-1.92,4.26-1.332,2.488,3.502-3.915,1.139.514-.615,5.217.982-2.646,1.921-4.26,1.444.651-3.762,8.344Z"/><path d="M564.39,65.743c-1.094,2.611-3.182,2.709-4.789,2.035-1.668-.698-3.004-2.229-1.922-4.812l.147-.354,5.105,2.138c.432-1.154.161-2.083-1.107-2.614-.87-.364-1.624-.264-2.008.321l-1.623-.68c1.015-1.553,2.757-1.447,4.173-.854,1.889.791,3.049,2.37,2.023,4.819ZM558.985,64.399c-.287,1.059.271,1.796,1.127,2.154.856.358,1.773.239,2.326-.708l-3.453-1.446Z"/><path d="M553.507,60.745l-.979,2.522,2.104.815-.491,1.269-2.104-.815-1.186,3.059-1.597-.618,1.186-3.06-3.238-1.255.492-1.269,3.238,1.255.953-2.462c.48-1.239.41-1.765-.695-2.192-.611-.237-1.23-.322-1.768-.308l.496-1.283c.559-.024,1.256.04,2.136.381,1.701.659,2.343,1.663,1.452,3.961Z"/><path d="M546.323,56.759c-.549,1.536-2.065,1.452-3.436.962-.693-.247-1.389-.632-1.736-.893l-.193.542c-.308.858-.399,1.591.836,2.032.934.334,1.61.151,1.891-.632l1.521.544c-.651,1.822-2.363,1.906-3.976,1.33-1.731-.619-2.627-1.772-1.959-3.64l.986-2.756c.091-.256.033-.379-.238-.476-.181-.064-.468-.116-.665-.136l.383-1.069c.313-.023.88.009,1.377.187.843.302.929.824.751,1.321l-.043.121c.502-.313,1.461-.667,2.831-.177,1.296.464,2.146,1.413,1.671,2.738ZM541.809,54.992l-.302.843c.26.178.855.459,1.428.664.889.317,1.535.362,1.762-.271.183-.512-.113-.873-.852-1.137-.844-.302-1.607-.252-2.036-.1Z"/><path d="M534.735,58.205l-1.413-.464.289-.882c-.504.356-1.419.68-2.558.306-1.49-.489-2.473-1.957-1.659-4.435.813-2.477,2.505-3.066,3.964-2.587,1.064.349,1.553,1.115,1.727,1.51l1.138-3.466,1.626.534-3.113,9.483ZM531.066,53.279c-.424,1.292-.217,2.303.938,2.683.685.225,1.275.115,1.694-.084l1.033-3.146c-.22-.409-.632-.848-1.315-1.072-1.155-.379-1.921.312-2.351,1.619Z"/><path d="M524.344,58.305l-1.641-.49,1.163-3.895c-.322.238-1.129.648-2.188.332-1.288-.384-2.228-1.266-1.572-3.459l1.249-4.187,1.642.49-1.154,3.864c-.33,1.104-.277,1.771.719,2.068.736.22,1.237.052,1.625-.183l1.479-4.953,1.641.489-2.962,9.922Z"/><path d="M517.218,49.097c-.742,2.749-2.861,3.055-4.483,2.618-1.729-.467-3.308-1.737-2.558-4.518.736-2.733,2.861-3.055,4.482-2.617,1.729.467,3.305,1.753,2.559,4.517ZM511.859,47.652c-.413,1.529.068,2.388,1.241,2.704,1.174.316,2.021-.184,2.434-1.713.408-1.513-.068-2.387-1.242-2.703-1.173-.317-2.024.199-2.433,1.712Z"/><path d="M507.644,44.293l-1.695-.409-1.024,4.245,1.694.409-.318,1.321-3.141-.759.375-1.555c-.479.69-1.393,1.475-2.745,1.147-.513-.124-.95-.36-1.22-.606l.406-1.68c.293.285.791.537,1.242.646,1.088.263,1.873-.124,2.324-.492l.742-3.078-2.891-.698.314-1.307,6.25,1.509-.314,1.307Z"/><path d="M448.261,43.4l-1.531-.134,1.151-13.219,1.53.134-1.15,13.219Z"/><path d="M395.366,41.177l-2.205.133-1.022-2.6-.696-1.979-.422,2.046-.703,2.703-2.141.129-.55-9.138,1.581-.096.281,4.665-.022,2.823,1.28-5.096,1.246-.074,1.883,4.905-.361-2.801-.28-4.665,1.581-.095.551,9.138Z"/><path d="M385.083,36.177c.246,2.822-1.559,3.879-3.297,4.03-1.801.157-3.697-.578-3.939-3.368l-.033-.383,5.517-.48c-.155-1.224-.825-1.92-2.197-1.801-.94.082-1.562.521-1.629,1.218l-1.754.153c.177-1.847,1.769-2.564,3.3-2.697,2.041-.178,3.803.681,4.033,3.328ZM379.671,37.499c.238,1.072,1.076,1.465,2,1.385.926-.081,1.683-.612,1.731-1.71l-3.731.325Z"/><path d="M373.105,36.804l.305,2.688,2.241-.254.153,1.352-2.242.254.369,3.26-1.701.192-.369-3.26-3.45.391-.153-1.352,3.451-.391-.298-2.623c-.149-1.32-.456-1.752-1.632-1.619-.652.074-1.24.285-1.71.548l-.155-1.367c.484-.28,1.13-.547,2.068-.652,1.812-.206,2.846.386,3.123,2.834Z"/><path d="M365.179,38.271c.396,2.819-1.434,3.933-3.096,4.166-1.774.25-3.725-.3-4.127-3.15-.394-2.804,1.434-3.933,3.098-4.167,1.773-.249,3.727.315,4.125,3.151ZM359.683,39.043c.221,1.568,1,2.169,2.203,2,1.205-.169,1.787-.962,1.566-2.53-.218-1.552-.999-2.169-2.203-2-1.203.17-1.784.979-1.566,2.53Z"/><path d="M355.324,43.272l-1.468.245-.158-.946c-.254.513-.793,1.268-1.977,1.466-1.325.222-2.588-.151-2.965-2.407l-.721-4.308,1.688-.282.666,3.976c.189,1.137.529,1.712,1.555,1.541.758-.127,1.133-.498,1.378-.88l-.853-5.096,1.688-.282,1.167,6.974Z"/><path d="M344.457,36.352c-1.507.293-2.153.907-2.437,2.136l4.418,6.295-1.885.366-1.973-3.022-1.184-1.986-.373,2.272-.71,3.56-1.79.349,1.623-7.159c.602-2.61,1.451-3.688,4.041-4.191l.269,1.382Z"/><path d="M336.573,46.74l-1.266.281-.219-.984c-.137.49-.465,1.301-1.449,1.52-.812.182-1.384-.249-1.643-.749-.114.37-.467,1.219-1.436,1.435-1.078.24-1.721-.584-2.027-1.959l-1.061-4.766,1.484-.331,1.002,4.5c.188.844.42,1.153.857,1.056.422-.094.666-.476.825-.79l-1.138-5.109,1.484-.331,1.002,4.5c.188.844.42,1.153.857,1.056.422-.094.682-.479.841-.794l-1.138-5.109,1.484-.33,1.537,6.906Z"/><path d="M324.607,40.568c-1.49.373-2.103,1.021-2.319,2.264l4.75,6.05-1.862.467-2.133-2.912-1.289-1.92-.25,2.289-.518,3.594-1.77.443,1.236-7.237c.461-2.639,1.251-3.761,3.812-4.403l.343,1.366Z"/><path d="M271.851,70.288l-1.417.594-5.123-12.232,1.417-.593,5.123,12.231Z"/><path d="M223.587,93.222l-2.57,1.563c-1.887,1.147-3.811,1.249-4.908-.556-1.105-1.818-.137-3.457,1.764-4.612l1.053-.641-1.613-2.652,1.518-.923,4.758,7.82ZM219.698,90.248l-1.066.648c-1.217.74-1.459,1.543-.951,2.377s1.323.975,2.54.234l1.066-.648-1.589-2.611Z"/><path d="M211.673,91.968c.883,1.371-.105,2.522-1.329,3.312-.618.398-1.347.716-1.766.833l.312.484c.494.766,1.02,1.284,2.121.573.834-.537,1.102-1.186.65-1.884l1.357-.876c1.049,1.627.074,3.036-1.365,3.964-1.545.996-3.006,1.005-4.08-.662l-1.586-2.46c-.147-.229-.28-.257-.521-.102-.162.104-.378.301-.514.445l-.615-.955c.173-.263.543-.692.986-.979.754-.485,1.22-.234,1.506.21l.069.107c.058-.59.361-1.565,1.585-2.354,1.156-.746,2.426-.842,3.189.342ZM207.521,94.473l.486.753c.299-.098.885-.399,1.395-.729.793-.512,1.223-.997.858-1.562-.294-.457-.761-.441-1.419-.017-.754.485-1.18,1.122-1.32,1.555Z"/><path d="M202.614,97.257l-1.44.982,2.462,3.607,1.44-.982.767,1.123-2.67,1.821-.9-1.321c.189.819.158,2.021-.99,2.807-.437.298-.905.462-1.269.497l-.974-1.427c.407-.026.929-.228,1.312-.489.924-.631,1.164-1.473,1.193-2.054l-1.785-2.617-2.459,1.678-.757-1.11,5.312-3.625.758,1.11Z"/><path d="M194.952,103.157c.955,1.322.027,2.525-1.152,3.378-.597.431-1.307.786-1.719.926l.337.467c.534.739,1.085,1.229,2.149.461.803-.58,1.036-1.242.549-1.916l1.311-.946c1.133,1.569.233,3.028-1.154,4.03-1.492,1.078-2.949,1.164-4.111-.444l-1.715-2.374c-.158-.22-.293-.242-.526-.073-.155.112-.36.32-.489.472l-.664-.921c.158-.272.506-.721.934-1.03.727-.524,1.205-.298,1.515.13l.075.104c.026-.592.277-1.582,1.458-2.435,1.115-.806,2.38-.969,3.204.173ZM190.938,105.878l.524.727c.293-.113.863-.445,1.355-.802.766-.553,1.168-1.061.775-1.605-.319-.441-.784-.401-1.42.058-.727.524-1.119,1.184-1.235,1.623Z"/><path d="M187.885,110.375c1.582,2.075,1.108,3.804-.112,4.735-.891.68-1.801.648-2.224.568l2.437,3.194-1.362,1.038-6.278-8.233,1.184-.902.562.738c-.008-.618.244-1.555,1.197-2.282,1.248-.951,3.015-.931,4.597,1.144ZM182.851,112.141l2,2.622c.461.051,1.065-.028,1.639-.465.967-.737.82-1.773-.004-2.854-.825-1.082-1.785-1.497-2.753-.76-.573.438-.808.999-.882,1.457Z"/><path d="M179.934,116.489c1.787,2.22.786,4.115-.522,5.169-1.396,1.125-3.355,1.654-5.162-.59-1.777-2.207-.786-4.115.523-5.169,1.396-1.125,3.363-1.642,5.161.59ZM175.608,119.973c.993,1.234,1.971,1.351,2.918.588.948-.763,1.043-1.743.049-2.978-.984-1.222-1.973-1.351-2.92-.588s-1.031,1.756-.047,2.978Z"/><path d="M170.19,124.574l4.542.676-1.609,1.367-3.022-.518.072,3.025-1.548,1.315.029-4.561-4.743-.714,1.608-1.368,3.191.543-.033-3.226,1.598-1.357-.085,4.816Z"/><path d="M134.692,168.854l-1.01,1.157-9.994-8.729,1.012-1.157,9.992,8.729Z"/><path d="M101.478,210.69l-1.621,2.536c-1.189,1.861-2.873,2.8-4.653,1.661-1.794-1.146-1.644-3.046-.446-4.92l.664-1.039-2.616-1.673.956-1.497,7.717,4.932ZM96.676,209.73l-.673,1.052c-.768,1.201-.631,2.028.191,2.555.823.525,1.618.293,2.385-.907l.673-1.053-2.576-1.646Z"/><path d="M91.626,215.674c2.426,1.461,2.219,3.54,1.318,5.033-.933,1.549-2.641,2.648-5.039,1.204l-.328-.198,2.855-4.741c-1.08-.595-2.037-.462-2.748.717-.486.809-.496,1.568.027,2.032l-.908,1.508c-1.389-1.229-1.031-2.938-.239-4.253,1.057-1.754,2.786-2.673,5.062-1.302ZM89.513,220.825c1.006.438,1.816-.008,2.295-.802.479-.795.494-1.72-.363-2.404l-1.932,3.206Z"/><path d="M84.407,223.563l-.861,1.518,3.8,2.153.86-1.517,1.183.67-1.594,2.812-1.392-.789c.531.651,1.033,1.744.348,2.955-.261.459-.608.813-.92,1.005l-1.502-.852c.354-.204.733-.613.963-1.018.552-.974.396-1.834.166-2.369l-2.756-1.562-1.467,2.589-1.169-.663,3.171-5.594,1.17.662Z"/><path d="M80.419,232.458l-.789,1.481c-.693-.297-1.338.23-1.842,1.176-.459.861-.692,1.606-.113,1.914.621.331,1.224-.562,2.119-1.697.858-1.102,1.836-2.085,3.148-1.385,1.284.685,1.127,2.305.308,3.843-.819,1.539-1.929,2.633-3.556,1.911l.789-1.482c.73.263,1.256-.382,1.602-1.031.459-.861.545-1.431.122-1.657-.565-.301-1.062.395-2.093,1.749-.8,1.06-1.828,2.07-3.112,1.386-1.511-.805-1.259-2.501-.325-4.251.887-1.666,2.182-2.734,3.742-1.956Z"/><path d="M76.959,241.824c2.548,1.271,2.428,3.41,1.679,4.913-.801,1.604-2.359,2.899-4.936,1.614-2.533-1.265-2.428-3.41-1.678-4.913.8-1.604,2.373-2.893,4.935-1.614ZM74.482,246.79c1.416.707,2.354.406,2.896-.682s.22-2.018-1.197-2.725c-1.402-.7-2.354-.406-2.896.682s-.205,2.024,1.197,2.725Z"/><path d="M75.488,252.794l-.628,1.348-.87-.405c.278.501.596,1.372.089,2.459-.568,1.218-1.59,2.047-3.663,1.08l-3.958-1.845.724-1.551,3.653,1.703c1.043.486,1.711.533,2.15-.409.324-.696.23-1.216.055-1.634l-4.682-2.183.723-1.552,6.407,2.988Z"/><path d="M66.136,259.417l-.982,2.261,4.008,1.741.982-2.261,1.248.542-1.665,3.831-5.255-2.283-.899,2.069-1.233-.535,2.564-5.901,1.232.536ZM73.488,265.107l-.835,1.923-1.776-.771.835-1.923,1.776.771Z"/><path d="M62.192,268.614l-.802,1.989,3.949,1.591.802-1.989,1.247.502-.802,1.99.029.012c2.302.927,2.46,3.147,1.545,5.419l-1.262-.508c.49-1.218.65-2.688-.923-3.322l-.029-.013-1.022,2.539-1.248-.502,1.023-2.539-3.949-1.591-1.023,2.538-1.246-.502,2.463-6.117,1.248.503Z"/><path d="M58.441,278.049l-.859,2.31,4.094,1.525.86-2.311,1.274.475-1.457,3.915-5.369-1.999-.788,2.114-1.26-.469,2.245-6.029,1.26.469ZM66.087,283.338l-.732,1.965-1.814-.676.731-1.965,1.815.676Z"/><path d="M57.186,287.8c2.755.944,2.864,3.045,2.293,4.71-.514,1.499-1.685,2.941-3.845,2.336l.561-1.635c1.06.262,1.611-.26,1.916-1.152.405-1.181.003-2.08-1.496-2.594-1.514-.519-2.367-.05-2.777,1.146-.301.878-.201,1.623.797,2.066l-.56,1.635c-2.048-.837-2.087-2.745-1.583-4.214.575-1.68,1.97-3.231,4.694-2.298Z"/><path d="M52.368,296.797c1.559.487,1.536,2.006,1.102,3.396-.22.703-.576,1.413-.822,1.771l.55.173c.87.271,1.606.334,1.997-.919.297-.946.086-1.616-.708-1.864l.482-1.543c1.849.578,2.002,2.286,1.491,3.921-.55,1.756-1.666,2.698-3.561,2.106l-2.795-.874c-.26-.082-.379-.019-.465.256-.059.184-.098.473-.109.671l-1.084-.34c-.037-.312-.027-.88.131-1.384.268-.855.786-.961,1.291-.804l.121.038c-.332-.489-.725-1.434-.291-2.824.412-1.313,1.326-2.201,2.67-1.78ZM50.784,301.382l.855.268c.167-.267.424-.874.605-1.454.281-.901.3-1.55-.342-1.75-.52-.162-.867.147-1.102.896-.268.855-.188,1.618-.018,2.04Z"/><path d="M49.977,308.598l2.603.738.615-2.171,1.309.371-.615,2.17,3.156.896-.467,1.647-3.156-.896-.947,3.342-1.309-.371.947-3.341-2.541-.721c-1.277-.362-1.795-.242-2.117.897-.179.631-.206,1.255-.141,1.789l-1.324-.375c-.076-.554-.078-1.253.18-2.161.498-1.755,1.437-2.487,3.808-1.815Z"/><path d="M46.095,316.344l-.611,2.388,4.232,1.083.61-2.388,1.317.337-1.035,4.047-5.55-1.421-.56,2.187-1.303-.334,1.596-6.231,1.303.333ZM54.255,320.794l-.52,2.031-1.876-.48.52-2.03,1.876.479Z"/><path d="M45.878,326.185c2.775.63,3.167,2.735,2.795,4.373-.396,1.747-1.602,3.375-4.409,2.738-2.761-.627-3.167-2.736-2.795-4.374.396-1.746,1.618-3.371,4.409-2.737ZM44.65,331.596c1.544.351,2.383-.164,2.651-1.35.269-1.185-.265-2.012-1.809-2.362-1.528-.347-2.382.165-2.651,1.35-.27,1.186.281,2.016,1.809,2.362Z"/><path d="M47.052,337.192l-.291,1.459-.941-.188c.39.42.904,1.191.67,2.368-.263,1.317-1.059,2.365-3.303,1.918l-4.281-.854.334-1.679,3.953.788c1.129.226,1.788.112,1.992-.907.149-.753-.064-1.236-.334-1.6l-5.066-1.011.334-1.678,6.934,1.382Z"/><path d="M42.922,395.313l-.073,1.534-13.244-.633.073-1.534,13.244.633Z"/><path d="M36.412,448.888l.173,1.719c-.947.176-1.369.765-1.244,2.007.113,1.13.58,1.773,1.312,1.7.604-.061.828-.55.996-1.274l.464-2.104c.254-1.15.915-2.085,2.221-2.217,1.702-.171,2.771,1.185,2.968,3.126.182,1.814-.48,3.376-2.515,3.613l-.175-1.735c.996-.164,1.326-.729,1.223-1.747-.113-1.13-.627-1.593-1.213-1.518-.508.067-.803.339-.966,1.11l-.476,2.138c-.258,1.119-.76,2.198-2.225,2.346-1.846.187-2.881-1.317-3.083-3.322-.206-2.053.55-3.641,2.539-3.841Z"/><path d="M33.14,459.34c.193,1.523.764,2.209,1.971,2.572l6.572-3.995.242,1.904-3.146,1.771-2.059,1.051,2.242.522,3.506.941.23,1.809-7.038-2.09c-2.565-.771-3.585-1.689-3.917-4.308l1.396-.178Z"/><path d="M43.097,468.661l.227,1.47-.948.146c.51.262,1.259.81,1.44,1.995.205,1.328-.183,2.586-2.443,2.935l-4.315.667-.261-1.691,3.982-.615c1.139-.176,1.719-.509,1.561-1.536-.117-.759-.484-1.139-.862-1.389l-5.106.789-.261-1.691,6.987-1.079Z"/><path d="M41.05,478.564c2.787-.505,4.006,1.193,4.316,2.91.322,1.779-.234,3.734-2.99,4.233l-.377.068-.988-5.448c-1.203.267-1.835.999-1.59,2.354.168.93.664,1.507,1.363,1.51l.314,1.732c-1.855-.006-2.717-1.525-2.99-3.037-.365-2.016.327-3.849,2.941-4.322ZM42.866,483.83c1.045-.335,1.358-1.205,1.193-2.119-.166-.913-.766-1.617-1.861-1.565l.668,3.685Z"/><path d="M42.896,488.388c2.85-.594,4.016,1.156,4.375,2.878.322,1.55.053,3.387-2.113,3.97l-.353-1.691c1.045-.315,1.253-1.045,1.06-1.969-.254-1.221-1.059-1.788-2.609-1.465-1.564.326-2.061,1.165-1.803,2.401.189.908.656,1.497,1.74,1.369l.353,1.69c-2.187.325-3.194-1.294-3.511-2.812-.363-1.738.044-3.783,2.861-4.371Z"/><path d="M44.973,498.165c2.537-.599,3.923.536,4.276,2.03.257,1.09-.142,1.906-.387,2.261l3.906-.924.394,1.666-10.069,2.379-.342-1.447.902-.214c-.567-.243-1.32-.854-1.596-2.021-.36-1.525.378-3.13,2.915-3.729ZM44.535,503.478l3.206-.757c.234-.4.408-.984.243-1.685-.279-1.183-1.284-1.472-2.606-1.159-1.324.313-2.094,1.021-1.813,2.203.165.701.583,1.145.971,1.397Z"/><path d="M47.319,507.915c2.754-.728,4.076.959,4.506,2.583.458,1.733.144,3.736-2.642,4.473-2.739.724-4.077-.958-4.507-2.583-.457-1.732-.127-3.74,2.643-4.473ZM48.737,513.285c1.532-.404,2.037-1.25,1.727-2.426s-1.168-1.661-2.699-1.257c-1.517.401-2.037,1.25-1.727,2.427.312,1.176,1.184,1.656,2.699,1.256Z"/><path d="M49.916,517.584c2.794-.819,4.095.833,4.591,2.521.445,1.52.322,3.373-1.791,4.126l-.486-1.658c1.018-.397,1.166-1.142.9-2.047-.352-1.197-1.199-1.699-2.719-1.254-1.535.45-1.961,1.325-1.605,2.538.261.891.771,1.44,1.843,1.227l.486,1.658c-2.154.498-3.288-1.036-3.725-2.525-.499-1.704-.257-3.775,2.506-4.586Z"/><path d="M59.429,525.61l.525,1.629-3.868,1.248c.378.13,1.174.563,1.513,1.614.412,1.278.219,2.552-1.959,3.255l-4.158,1.341-.525-1.629,3.838-1.238c1.096-.354,1.616-.773,1.297-1.764-.236-.731-.658-1.049-1.07-1.235l-4.92,1.587-.525-1.629,9.854-3.179Z"/><path d="M55.863,536.738c2.671-.942,4.145.54,4.726,2.185.602,1.705.363,3.724-2.277,4.656l-.363.128-1.842-5.222c-1.146.455-1.653,1.279-1.195,2.576.314.891.895,1.382,1.586,1.273l.586,1.66c-1.832.29-2.924-1.072-3.436-2.521-.682-1.932-.289-3.852,2.216-4.735ZM58.495,541.647c.979-.498,1.149-1.407.84-2.282-.309-.876-1.012-1.476-2.086-1.249l1.246,3.531Z"/><path d="M85.56,588.141l.723,1.356-11.714,6.236-.722-1.356,11.713-6.236Z"/><path d="M108.745,636.208c2.364-1.755,4.595-1.757,6.148.338,1.27,1.708,1.383,3.418-.543,4.986l-1.077-1.452c.974-.862,1.087-1.703.4-2.629-1.068-1.438-2.432-.806-3.832.234-1.374,1.021-2.388,2.151-1.319,3.59.695.938,1.523,1.061,2.618.388l1.077,1.452c-2.041,1.356-3.709.721-4.949-.95-1.621-2.184-.913-4.184,1.477-5.957Z"/><path d="M112.715,646.051c1.284-1.007,2.522-.128,3.421,1.018.453.579.837,1.275.992,1.682l.453-.355c.719-.562,1.186-1.133.377-2.165-.613-.781-1.283-.987-1.938-.474l-.997-1.271c1.523-1.194,3.017-.354,4.073.994,1.135,1.447,1.279,2.9-.282,4.125l-2.304,1.807c-.214.167-.23.302-.053.528.119.151.334.349.49.47l-.894.701c-.278-.147-.74-.477-1.065-.893-.553-.705-.346-1.192.069-1.519l.101-.079c-.592-.003-1.592-.215-2.49-1.36-.85-1.083-1.062-2.339.046-3.208ZM115.593,649.955l.705-.553c-.125-.289-.479-.844-.854-1.322-.583-.743-1.106-1.125-1.634-.711-.429.336-.371.799.113,1.415.553.705,1.227,1.071,1.67,1.171Z"/><path d="M120.214,652.831c2.244-1.858,4.094-.854,5.217.502,1.01,1.221,1.629,2.973-.016,4.501l-1.102-1.332c.777-.768.619-1.511.018-2.237-.797-.962-1.773-1.088-2.994-.077-1.233,1.021-1.279,1.994-.473,2.968.592.715,1.279,1.019,2.18.398l1.102,1.331c-1.783,1.311-3.432.349-4.422-.848-1.133-1.368-1.729-3.369.49-5.206Z"/><path d="M126.632,660.529c2.146-1.874,4.079-.949,5.186.316,1.178,1.35,1.785,3.285-.385,5.181-2.134,1.863-4.08.949-5.186-.316-1.179-1.351-1.773-3.296.385-5.181ZM130.285,664.711c1.193-1.042,1.271-2.023.471-2.939s-1.783-.972-2.977.071c-1.182,1.031-1.271,2.023-.472,2.939.801.916,1.796.961,2.978-.071Z"/><path d="M136.198,666.038l1.007,1.096-.683.628c.613-.064,1.57.1,2.383.983,1.061,1.154,1.203,2.916-.717,4.682-1.921,1.767-3.686,1.454-4.727.323-.758-.824-.811-1.732-.77-2.161l-2.686,2.47-1.16-1.26,7.352-6.761ZM136.996,672.13c1.001-.92,1.314-1.904.491-2.799-.488-.53-1.057-.725-1.521-.755l-2.438,2.242c-.008.464.138,1.048.625,1.578.823.896,1.83.666,2.843-.267Z"/><path d="M145.31,671.023l1.191,1.229-2.918,2.829c.396-.05,1.301-.014,2.07.779.936.965,1.323,2.193-.32,3.786l-3.137,3.041-1.191-1.229,2.896-2.807c.827-.802,1.108-1.409.384-2.155-.534-.552-1.053-.65-1.506-.635l-3.711,3.598-1.192-1.229,7.435-7.207Z"/><path d="M147.034,682.542c1.99-2.037,3.991-1.269,5.193-.094,1.281,1.253,2.038,3.134.025,5.193-1.98,2.026-3.992,1.269-5.193.094-1.281-1.253-2.027-3.146-.025-5.193ZM151.005,686.423c1.107-1.133,1.107-2.117.238-2.968-.87-.85-1.854-.827-2.962.306-1.096,1.122-1.106,2.117-.237,2.968.869.85,1.865.815,2.961-.306Z"/><path d="M157.025,687.299l1.091,1.012-.653.704c.562-.111,1.489-.146,2.369.669.986.914,1.463,2.142-.094,3.819l-2.97,3.203-1.255-1.164,2.741-2.957c.783-.845,1.032-1.465.269-2.172-.562-.522-1.086-.594-1.537-.554l-3.515,3.79-1.256-1.164,4.81-5.187Z"/><path d="M158.171,700.126c1.152,1.015,2.034,1.151,3.18.625l2.289-7.344,1.44,1.269-1.189,3.408-.85,2.151,2.028-1.092,3.253-1.613,1.369,1.206-6.663,3.087c-2.434,1.119-3.807,1.104-5.789-.641l.932-1.057Z"/><path d="M212.559,726.747l1.29.832-7.185,11.145-1.29-.832,7.185-11.145Z"/><path d="M256.233,757.489c1.207-2.685,3.056-3.869,5.434-2.8,2.392,1.076,2.708,3.182,1.521,5.822-1.194,2.655-3.041,3.876-5.434,2.8-2.378-1.069-2.721-3.152-1.521-5.822ZM261.519,759.814c.662-1.474,1.135-3.032-.484-3.761s-2.471.66-3.134,2.133c-.649,1.444-1.136,3.032.483,3.761s2.484-.689,3.135-2.133Z"/><path d="M267.589,763.482l-1.453-4.354,1.947.815.906,2.929,2.664-1.434,1.874.785-4.079,2.038,1.51,4.552-1.947-.815-.961-3.091-2.861,1.49-1.932-.81,4.332-2.105Z"/><path d="M272.456,771.116c1.433.556,2.308.38,3.201-.51l-.386-7.685,1.79.694.061,3.61-.055,2.312,1.526-1.726,2.497-2.637,1.701.66-5.189,5.197c-1.898,1.89-3.193,2.35-5.655,1.396l.509-1.313Z"/><path d="M284.696,766.545l1.22.437-.339.949c.377-.341,1.086-.852,2.034-.513.783.28,1.037.948.989,1.509.294-.251,1.044-.781,1.979-.447,1.039.371,1.143,1.411.668,2.736l-1.643,4.593-1.431-.512,1.552-4.337c.291-.813.258-1.198-.164-1.35-.406-.146-.814.049-1.117.229l-1.762,4.925-1.431-.512,1.552-4.337c.291-.813.258-1.198-.163-1.35-.407-.146-.831.043-1.134.224l-1.761,4.925-1.431-.512,2.381-6.657Z"/><path d="M293.146,773.28c.885-2.705,3.018-2.898,4.613-2.376,1.703.557,3.212,1.909,2.316,4.645-.881,2.69-3.018,2.899-4.613,2.377-1.703-.558-3.207-1.925-2.316-4.646ZM298.419,775.006c.492-1.505.058-2.388-1.098-2.766-1.154-.378-2.027.077-2.52,1.582-.487,1.489-.058,2.387,1.098,2.765,1.154.378,2.031-.092,2.52-1.581Z"/><path d="M302.444,778.58l1.672.499,1.249-4.187-1.671-.499.389-1.304,3.098.925-.457,1.533c.516-.664,1.469-1.398,2.803-1,.506.151.93.411,1.186.672l-.494,1.656c-.277-.301-.762-.579-1.207-.712-1.073-.32-1.877.024-2.348.368l-.906,3.036,2.852.852-.384,1.288-6.165-1.84.385-1.288Z"/><path d="M312.275,779.189c.741-2.749,2.861-3.055,4.482-2.618,1.73.467,3.309,1.737,2.559,4.518-.737,2.733-2.861,3.055-4.482,2.617-1.73-.467-3.305-1.753-2.559-4.517ZM317.632,780.634c.413-1.529-.068-2.388-1.241-2.704-1.174-.316-2.021.184-2.433,1.713-.409,1.513.067,2.387,1.241,2.703,1.173.317,2.024-.199,2.433-1.712Z"/><path d="M323.319,778.454l1.447.349-.226.934c.435-.372,1.227-.855,2.393-.574,1.306.315,2.321,1.152,1.784,3.376l-1.023,4.245-1.664-.401.945-3.919c.271-1.119.184-1.782-.826-2.026-.747-.18-1.238.015-1.612.27l-1.212,5.022-1.664-.402,1.658-6.872Z"/><path d="M381.257,784.867l1.531.134-1.15,13.219-1.531-.134,1.15-13.219Z"/></svg>