<?xml version="1.0" encoding="UTF-8"?><svg id="Layer_1" xmlns="http://www.w3.org/2000/svg" width="11.503in" height="11.503in" viewBox="0 0 828.25 828.25"><defs><style>.cls-1{fill:#ff0;opacity:.5;stroke:#231f20;stroke-miterlimit:10;stroke-width:.25px;}</style></defs><path class="cls-1" d="M414.125.125C185.479.125.125,185.479.125,414.125s185.354,414,414,414,414-185.354,414-414S642.771.125,414.125.125ZM414.125,759.125c-190.538,0-345-154.462-345-345S223.587,69.125,414.125,69.125s345,154.462,345,345-154.462,345-345,345Z"/><path d="M445.809,786.224l1.882-.162,3.99,8.846-1.897.163-.843-1.951-3.205.275-.48,2.065-1.865.161,2.419-9.397ZM446.013,791.957l2.361-.203-.385-.915-1.131-2.874-.623,3.025-.223.967Z"/><path d="M454.233,793.286l2.338-.265-.863-7.616-2.337.265-.151-1.336,4.039-.457,1.014,8.952,2.353-.267.151,1.335-6.392.724-.151-1.335Z"/><path d="M464.233,792.108l2.328-.325-1.061-7.586-2.328.325-.186-1.331,4.023-.562,1.245,8.917,2.345-.327.186,1.33-6.367.89-.186-1.331Z"/><path d="M474.094,789.302l-.72-4.308,1.688-.282.665,3.977c.19,1.136.53,1.711,1.556,1.54.757-.127,1.133-.498,1.377-.88l-.853-5.096,1.688-.282,1.166,6.974-1.467.245-.158-.946c-.255.513-.793,1.268-1.977,1.466-1.326.222-2.588-.151-2.966-2.407Z"/><path d="M483.636,788.157l1.648-.32c.206.726,1.021.894,2.072.688.959-.186,1.685-.474,1.56-1.117-.134-.69-1.208-.597-2.653-.576-1.396.027-2.776-.112-3.061-1.572-.277-1.429,1.08-2.328,2.791-2.661,1.711-.332,3.26-.161,3.725,1.558l-1.648.32c-.256-.732-1.088-.733-1.811-.593-.957.186-1.455.479-1.363.949.123.628.977.576,2.676.522,1.328-.046,2.761.115,3.038,1.544.327,1.681-1.149,2.554-3.097,2.933-1.853.359-3.498.027-3.877-1.675Z"/><path d="M494.013,786.987l2.406-.533-.945-4.266-2.406.533-.294-1.328,4.078-.904,1.239,5.594,2.203-.488.291,1.312-6.281,1.393-.291-1.312ZM494.298,777.695l2.047-.454.419,1.891-2.047.454-.419-1.891Z"/><path d="M502.863,782.74c-.69-2.762,1.014-4.061,2.644-4.468,1.737-.435,3.735-.093,4.433,2.701.687,2.746-1.013,4.062-2.643,4.468-1.738.435-3.739.077-4.434-2.701ZM508.248,781.395c-.384-1.536-1.222-2.052-2.401-1.758-1.179.295-1.676,1.145-1.292,2.681.38,1.521,1.222,2.053,2.401,1.758s1.672-1.159,1.292-2.681Z"/><path d="M512.161,776.718l1.434-.398.258.925c.199-.537.654-1.345,1.811-1.666,1.295-.36,2.59-.123,3.203,2.081l1.17,4.207-1.648.459-1.081-3.884c-.309-1.109-.707-1.646-1.709-1.368-.739.206-1.074.615-1.277,1.02l1.386,4.979-1.649.459-1.896-6.812Z"/><path d="M565.862,754.123l1.4-.63,5.439,12.094-1.4.629-5.439-12.093Z"/><path d="M615.308,728.782l1.586-1.022,7.66,5.947-1.601,1.031-1.657-1.33-2.701,1.742.541,2.05-1.573,1.014-2.255-9.432ZM618.168,733.75l1.989-1.282-.767-.629-2.343-2.011.864,2.964.256.958Z"/><path d="M622.304,726.713l1.07-.73.568.832c-.055-.505-.051-1.379.782-1.947.687-.469,1.377-.281,1.802.087-.03-.386-.018-1.305.801-1.863.912-.623,1.814-.096,2.607,1.067l2.751,4.03-1.255.856-2.598-3.806c-.486-.713-.817-.914-1.188-.661-.357.243-.441.688-.473,1.039l2.949,4.32-1.256.857-2.597-3.806c-.487-.714-.817-.914-1.188-.662-.356.244-.454.697-.485,1.048l2.949,4.321-1.256.856-3.986-5.84Z"/><path d="M631.087,720.659l1.207-.871.543.752c.008-.617.283-1.547,1.256-2.249,1.271-.919,3.037-.852,4.564,1.263s1.01,3.83-.236,4.729c-.907.655-1.814.601-2.236.51l2.137,2.957-1.389,1.003-5.846-8.094ZM637.23,720.583c-.796-1.103-1.735-1.529-2.721-.816-.584.421-.844.964-.928,1.42l1.938,2.685c.46.062,1.057-.013,1.64-.435.986-.712.877-1.738.07-2.854Z"/><path d="M642.493,719.433l1.871-1.427-4.648-6.096-1.871,1.427-.814-1.069,3.232-2.465,5.463,7.164,1.884-1.436.815,1.068-5.116,3.901-.815-1.068Z"/><path d="M646.628,704.826l1.633-1.312,1.213,1.508-1.633,1.313-1.213-1.509ZM650.489,713.278l1.92-1.544-2.737-3.403-1.92,1.544-.853-1.06,3.254-2.616,3.59,4.463,1.758-1.413.842,1.047-5.012,4.03-.842-1.048Z"/><path d="M658.224,706.992l1.635-1.389-2.757-3.242-1.634,1.388-.87-1.024,1.634-1.388-.021-.024c-1.605-1.89-.713-3.929,1.152-5.514l.881,1.036c-1,.85-1.826,2.076-.729,3.369l.021.024,2.084-1.772.871,1.024-2.085,1.771,2.756,3.243,2.085-1.771.87,1.024-5.022,4.269-.871-1.024Z"/><path d="M661.638,692.146l1.562-1.396,1.29,1.441-1.562,1.397-1.291-1.442ZM665.939,700.381l1.836-1.643-2.912-3.254-1.835,1.643-.907-1.013,3.111-2.784,3.818,4.267,1.68-1.504.896,1.001-4.791,4.288-.896-1.001Z"/><path d="M671.595,692.322c-2-2.119-1.117-4.029.164-5.238,1.152-1.087,2.86-1.819,4.492-.277l-1.258,1.187c-.816-.726-1.548-.521-2.234.128-.908.857-.971,1.84.117,2.993,1.098,1.164,2.072,1.147,2.992.279.676-.638.934-1.344.256-2.201l1.258-1.187c1.424,1.694.57,3.402-.56,4.468-1.292,1.22-3.25,1.944-5.228-.151Z"/><path d="M680.052,686.604c-1.15-1.156-.424-2.489.608-3.515.521-.519,1.167-.98,1.552-1.184l-.405-.408c-.644-.646-1.264-1.043-2.193-.119-.703.699-.829,1.389-.243,1.979l-1.145,1.139c-1.365-1.371-.705-2.953.508-4.159,1.305-1.297,2.73-1.609,4.129-.204l2.062,2.075c.191.192.328.193.531-.01.137-.136.307-.373.409-.542l.801.805c-.114.294-.387.791-.761,1.163-.635.631-1.144.483-1.516.108l-.09-.09c.066.588-.027,1.605-1.059,2.631-.976.97-2.197,1.328-3.189.331ZM683.588,683.29l-.632-.636c-.271.158-.781.575-1.212,1.004-.669.665-.987,1.229-.514,1.705.384.386.837.274,1.392-.278.635-.632.92-1.343.966-1.795Z"/><path d="M687.649,677.296l-1.958-1.867-1.558,1.633-.984-.939,1.558-1.633-2.374-2.265,1.182-1.239,2.375,2.265,2.396-2.513.984.938-2.396,2.514,1.91,1.822c.961.917,1.475,1.053,2.291.195.453-.475.77-1.015.961-1.517l.996.95c-.191.524-.516,1.144-1.168,1.827-1.26,1.32-2.432,1.529-4.215-.172Z"/><path d="M689.575,664.49l1.407-1.553,1.435,1.3-1.407,1.553-1.435-1.3ZM694.714,672.233l1.654-1.826-3.236-2.933-1.654,1.826-1.008-.913,2.804-3.095,4.244,3.846,1.515-1.671.996.902-4.318,4.766-.996-.902Z"/><path d="M699.495,663.628c-2.162-1.855-1.523-3.901-.43-5.177,1.167-1.36,2.996-2.237,5.182-.361,2.15,1.844,1.523,3.901.43,5.176-1.168,1.36-3.008,2.228-5.182.362ZM703.111,659.414c-1.202-1.031-2.185-.968-2.978-.045-.791.923-.705,1.904.497,2.936,1.19,1.021,2.185.969,2.978.045.791-.923.693-1.914-.497-2.936Z"/><path d="M703.578,653.371l.939-1.154.745.606c-.148-.554-.242-1.477.515-2.407.849-1.042,2.043-1.596,3.817-.151l3.387,2.758-1.082,1.327-3.125-2.546c-.895-.727-1.529-.935-2.186-.129-.484.596-.521,1.123-.453,1.57l4.006,3.263-1.08,1.327-5.483-4.464Z"/><path d="M734.414,603.884l.78-1.322,11.423,6.742-.78,1.322-11.423-6.742Z"/><path d="M760.203,554.674l.706-1.75,9.686.44-.712,1.765-2.12-.131-1.202,2.981,1.624,1.362-.7,1.735-7.281-6.403ZM765.405,557.082l.885-2.194-.988-.071-3.072-.291,2.414,1.923.762.634Z"/><path d="M764.991,548.235l.52-1.394.898.335c-.316-.477-.702-1.32-.283-2.443.469-1.259,1.422-2.167,3.564-1.368l4.091,1.524-.598,1.604-3.776-1.407c-1.078-.402-1.746-.396-2.109.579-.268.719-.135,1.229.074,1.632l4.84,1.804-.598,1.604-6.623-2.469Z"/><path d="M772.711,538.898l-2.558-.877-.732,2.134-1.286-.44.731-2.135-3.104-1.063.556-1.619,3.103,1.063,1.126-3.285,1.286.441-1.125,3.284,2.498.856c1.256.431,1.777.339,2.162-.781.213-.621.273-1.242.237-1.779l1.302.446c.046.557.01,1.255-.297,2.148-.592,1.726-1.568,2.405-3.899,1.606Z"/><path d="M769.09,526.482l.628-2.001,1.848.579-.627,2.001-1.849-.579ZM777.004,531.363l.737-2.352-4.17-1.309-.737,2.353-1.298-.407,1.25-3.986,5.469,1.715.675-2.153,1.283.402-1.927,6.141-1.282-.403Z"/><path d="M778.794,519.791l-2.603-.74-.617,2.171-1.31-.372.618-2.171-3.156-.898.469-1.647,3.156.898.95-3.341,1.309.372-.95,3.341,2.54.723c1.278.363,1.795.244,2.119-.896.18-.631.207-1.256.143-1.79l1.324.377c.075.554.076,1.253-.182,2.161-.5,1.756-1.439,2.486-3.811,1.812Z"/><path d="M773.985,509.672l.424-1.659,3.938,1.008c-.251-.312-.692-1.103-.419-2.172.334-1.303,1.178-2.275,3.395-1.708l4.232,1.083-.426,1.658-3.906-.999c-1.116-.286-1.78-.208-2.038.8-.19.744-.003,1.238.247,1.615l5.008,1.282-.425,1.658-10.03-2.566Z"/><path d="M782.931,502.2c-2.76-.629-3.213-2.669-2.826-4.368.402-1.763,1.681-3.341,4.41-2.719l.374.085-1.23,5.396c1.212.228,2.079-.198,2.386-1.539.209-.92-.02-1.645-.661-1.923l.392-1.715c1.703.732,1.897,2.467,1.557,3.964-.455,1.996-1.811,3.409-4.4,2.819ZM783.327,496.647c-1.092-.102-1.722.575-1.928,1.479-.207.904.068,1.787,1.096,2.169l.832-3.648Z"/><path d="M786.396,492.575l.33-1.647c.75.085,1.214-.605,1.425-1.656.191-.957.201-1.737-.442-1.866-.689-.139-1.01.891-1.541,2.236-.506,1.302-1.158,2.524-2.617,2.232-1.428-.286-1.744-1.883-1.401-3.593s1.09-3.077,2.856-2.854l-.33,1.646c-.775-.041-1.092.728-1.236,1.449-.192.957-.111,1.527.359,1.622.628.126.904-.684,1.501-2.277.462-1.245,1.155-2.51,2.583-2.224,1.678.337,1.926,2.034,1.535,3.979-.37,1.851-1.303,3.246-3.021,2.951Z"/><path d="M780.764,478.753l.356-2.064,1.906.329-.355,2.064-1.907-.329ZM789.249,482.537l.419-2.427-4.304-.741-.418,2.427-1.34-.23.709-4.114,5.643.973.383-2.223,1.324.229-1.092,6.336-1.324-.229Z"/><path d="M789.993,472.812l.241-1.663c.754.045,1.181-.669,1.335-1.73.141-.966.109-1.747-.54-1.842-.696-.102-.962.943-1.421,2.316-.436,1.327-1.023,2.585-2.496,2.37-1.441-.209-1.842-1.788-1.591-3.515s.925-3.133,2.701-3.003l-.242,1.662c-.776,0-1.052.785-1.158,1.514-.141.967-.028,1.532.446,1.602.634.093.867-.73,1.378-2.354.396-1.27,1.021-2.569,2.462-2.359,1.695.246,2.032,1.929,1.746,3.894-.271,1.868-1.129,3.312-2.861,3.109Z"/><path d="M786.364,413.46l-.025-1.535,13.257-.215.024,1.535-13.256.215Z"/><path d="M783.677,360.028l-.969-6.308,1.486-.228.699,4.553,2.213-.34-.6-3.904,1.486-.229.6,3.905,2.371-.364-.699-4.553,1.486-.229.968,6.308-9.042,1.388Z"/><path d="M789.829,349.003l-.42-2.314-7.543,1.366.42,2.315-1.322.239-.726-4,8.866-1.606-.423-2.33,1.323-.24,1.146,6.331-1.322.239Z"/><path d="M787.993,339.119l-.48-2.304-7.506,1.564.48,2.304-1.316.274-.83-3.98,8.822-1.839-.482-2.319,1.316-.273,1.312,6.299-1.316.274Z"/><path d="M776.601,329.099l-.48-2.038,1.883-.445.481,2.039-1.884.444ZM785.89,329.255l-.566-2.397-4.249,1.004.566,2.397-1.323.312-.959-4.062,5.571-1.316-.519-2.194,1.308-.31,1.478,6.257-1.307.31Z"/><path d="M777.962,320.836l-.38-1.438.897-.237c-.574-.229-1.343-.82-1.649-1.981-.401-1.516.296-3.14,2.817-3.807,2.522-.666,3.938.433,4.331,1.918.286,1.083-.091,1.911-.327,2.271l3.528-.933.438,1.655-9.655,2.552ZM780.098,315.075c-1.315.348-2.051,1.071-1.739,2.247.184.696.597,1.134.992,1.377l3.203-.847c.223-.406.367-.991.183-1.688-.311-1.176-1.308-1.441-2.639-1.09Z"/><path d="M780.149,310.296l-.473-1.612c.703-.272.795-1.1.492-2.128-.273-.937-.629-1.633-1.258-1.448-.676.198-.48,1.258-.326,2.696.157,1.388.146,2.774-1.281,3.193-1.396.409-2.418-.858-2.908-2.531-.491-1.673-.465-3.231,1.203-3.854l.473,1.611c-.705.324-.629,1.151-.422,1.857.274.937.611,1.404,1.072,1.27.613-.18.482-1.025.271-2.714-.17-1.316-.143-2.759,1.254-3.168,1.643-.481,2.65.906,3.208,2.81.531,1.812.354,3.48-1.306,4.018Z"/><path d="M768.756,300.71l-.644-1.995,1.842-.595.645,1.995-1.843.595ZM778.032,300.122l-.758-2.346-4.156,1.342.756,2.345-1.294.418-1.282-3.975,5.451-1.759-.692-2.147,1.279-.412,1.976,6.121-1.279.413Z"/><path d="M774.169,291.132l-.558-1.585c.688-.31.735-1.14.38-2.151-.324-.92-.715-1.597-1.334-1.379-.664.233-.414,1.281-.183,2.71.229,1.377.294,2.763-1.11,3.256-1.373.483-2.461-.728-3.039-2.373-.579-1.645-.635-3.202.998-3.912l.557,1.585c-.688.36-.566,1.183-.322,1.877.323.921.686,1.37,1.138,1.211.604-.213.428-1.05.127-2.725-.239-1.307-.288-2.748,1.085-3.23,1.615-.568,2.694.765,3.353,2.636.626,1.781.538,3.457-1.091,4.081Z"/><path d="M743.319,240.229l-.721-1.356,11.713-6.224.721,1.356-11.713,6.224Z"/><path d="M716.043,194.307l-1.059-1.426,3.007-2.231-1.584-2.133-3.006,2.231-1.059-1.426,7.35-5.455,1.059,1.426-3.148,2.337,1.583,2.133,3.147-2.337,1.059,1.426-7.349,5.455Z"/><path d="M718.937,180.252c-.947-1.209-1.789-1.504-3.012-1.196l-3.591,6.802-1.185-1.511,1.792-3.134,1.228-1.959-2.192.703-3.493.99-1.125-1.435,7.113-1.817c2.598-.655,3.944-.39,5.573,1.688l-1.108.869Z"/><path d="M705.626,177.375l-.949-1.146.716-.592c-.616.032-1.562-.182-2.327-1.106-.998-1.209-1.047-2.975.963-4.636s3.756-1.257,4.734-.073c.713.862.717,1.772.654,2.198l2.811-2.324,1.092,1.319-7.693,6.36ZM705.149,171.251c-1.048.866-1.412,1.832-.638,2.769.459.555,1.017.778,1.478.833l2.553-2.109c.032-.463-.082-1.054-.541-1.608-.774-.937-1.791-.761-2.852.116Z"/><path d="M702.284,167.795c-2.133,1.86-4.049,1.026-5.195-.287-1.188-1.362-1.711-3.325.398-5.165l.289-.252,3.638,4.171c.897-.846,1.063-1.798.159-2.835-.619-.711-1.34-.953-1.942-.598l-1.157-1.326c1.596-.945,3.112-.082,4.121,1.075,1.346,1.543,1.691,3.471-.311,5.217ZM698.028,164.206c-.725.823-.549,1.73.062,2.43s1.485.997,2.399.391l-2.461-2.82Z"/><path d="M696.976,158.499l-1.18-1.284-3.217,2.957,1.182,1.284-1.002.921-2.188-2.379,1.179-1.084c-.783.308-1.979.45-2.922-.575-.357-.389-.588-.828-.675-1.184l1.272-1.17c.085.4.359.888.674,1.229.758.825,1.625.94,2.205.886l2.332-2.146-2.015-2.19.989-.91,4.355,4.735-.99.91Z"/><path d="M689.329,149.7l.666-.646,1.036,1.069-7.435,7.206-1.191-1.229,2.884-2.796c-.431.016-1.334-.089-2.114-.894-1.091-1.126-1.279-2.883.594-4.698s3.646-1.551,4.715-.447c.836.861.945,1.825.846,2.435ZM684.994,148.976c-.977.947-1.274,1.949-.429,2.822.502.518,1.088.685,1.551.703l2.367-2.294c-.004-.465-.153-1.056-.654-1.572-.847-.873-1.858-.606-2.835.341Z"/><path d="M681.873,145.806c-1.993,2.034-3.993,1.262-5.193.086-1.28-1.254-2.034-3.137-.019-5.193,1.982-2.023,3.993-1.263,5.193-.087,1.279,1.255,2.023,3.148.019,5.194ZM677.907,141.919c-1.109,1.132-1.11,2.116-.242,2.967.869.852,1.854.83,2.962-.301,1.098-1.12,1.11-2.116.241-2.968-.868-.851-1.863-.818-2.961.302Z"/><path d="M675.866,136.924l-1.723-1.602-5.219,5.613,1.723,1.602-.916.984-2.977-2.768,6.135-6.598-1.734-1.612.914-.984,4.711,4.38-.914.984Z"/><path d="M667.335,131.998c-1.872,2.125-3.881,1.55-5.19.397-1.356-1.195-2.134-3.073-.283-5.175l.254-.288,4.155,3.659c.777-.957.818-1.923-.215-2.832-.708-.624-1.454-.77-2.005-.338l-1.321-1.163c1.458-1.146,3.076-.49,4.229.525,1.537,1.354,2.132,3.22.377,5.214ZM662.644,128.997c-.611.912-.318,1.789.379,2.402.696.613,1.604.794,2.431.072l-2.81-2.475Z"/><path d="M616.359,101.58l-1.29-.834,7.197-11.144,1.29.833-7.197,11.145Z"/><path d="M570.628,74.96l-2.014-.907.305-2.776.303-2.075-1.324,1.614-1.879,2.066-1.955-.881,3.762-8.345,1.443.651-1.92,4.26-1.332,2.488,3.502-3.915,1.139.514-.615,5.217.982-2.646,1.921-4.26,1.444.651-3.762,8.344Z"/><path d="M563.831,65.743c-1.094,2.611-3.182,2.709-4.789,2.035-1.668-.698-3.004-2.229-1.922-4.812l.147-.354,5.105,2.138c.432-1.154.161-2.083-1.107-2.614-.87-.364-1.624-.264-2.008.321l-1.623-.68c1.015-1.553,2.757-1.447,4.173-.854,1.889.791,3.049,2.37,2.023,4.819ZM558.427,64.399c-.287,1.059.271,1.796,1.127,2.154.856.358,1.773.239,2.326-.708l-3.453-1.446Z"/><path d="M552.948,60.745l-.979,2.522,2.104.815-.491,1.269-2.104-.815-1.186,3.059-1.597-.618,1.186-3.06-3.238-1.255.492-1.269,3.238,1.255.953-2.462c.48-1.239.41-1.765-.695-2.192-.611-.237-1.23-.322-1.768-.308l.496-1.283c.559-.024,1.256.04,2.136.381,1.701.659,2.343,1.663,1.452,3.961Z"/><path d="M545.765,56.759c-.549,1.536-2.065,1.452-3.436.962-.693-.247-1.389-.632-1.736-.893l-.193.542c-.308.858-.399,1.591.836,2.032.934.334,1.61.151,1.891-.632l1.521.544c-.651,1.822-2.363,1.906-3.976,1.33-1.731-.619-2.627-1.772-1.959-3.64l.986-2.756c.091-.256.033-.379-.238-.476-.181-.064-.468-.116-.665-.136l.383-1.069c.313-.023.88.009,1.377.187.843.302.929.824.751,1.321l-.043.121c.502-.313,1.461-.667,2.831-.177,1.296.464,2.146,1.413,1.671,2.738ZM541.25,54.992l-.302.843c.26.178.855.459,1.428.664.889.317,1.535.362,1.762-.271.183-.512-.113-.873-.852-1.137-.844-.302-1.607-.252-2.036-.1Z"/><path d="M534.177,58.205l-1.413-.464.289-.882c-.504.356-1.419.68-2.558.306-1.49-.489-2.473-1.957-1.659-4.435.813-2.477,2.505-3.066,3.964-2.587,1.064.349,1.553,1.115,1.727,1.51l1.138-3.466,1.626.534-3.113,9.483ZM530.507,53.279c-.424,1.292-.217,2.303.938,2.683.685.225,1.275.115,1.694-.084l1.033-3.146c-.22-.409-.632-.848-1.315-1.072-1.155-.379-1.921.312-2.351,1.619Z"/><path d="M523.785,58.305l-1.641-.49,1.163-3.895c-.322.238-1.129.648-2.188.332-1.288-.384-2.228-1.266-1.572-3.459l1.249-4.187,1.642.49-1.154,3.864c-.33,1.104-.277,1.771.719,2.068.736.22,1.237.052,1.625-.183l1.479-4.953,1.641.489-2.962,9.922Z"/><path d="M516.659,49.097c-.742,2.749-2.861,3.055-4.483,2.618-1.729-.467-3.308-1.737-2.558-4.518.736-2.733,2.861-3.055,4.482-2.617,1.729.467,3.305,1.753,2.559,4.517ZM511.301,47.652c-.413,1.529.068,2.388,1.241,2.704,1.174.316,2.021-.184,2.434-1.713.408-1.513-.068-2.387-1.242-2.703-1.173-.317-2.024.199-2.433,1.712Z"/><path d="M507.085,44.293l-1.695-.409-1.024,4.245,1.694.409-.318,1.321-3.141-.759.375-1.555c-.479.69-1.393,1.475-2.745,1.147-.513-.124-.95-.36-1.22-.606l.406-1.68c.293.285.791.537,1.242.646,1.088.263,1.873-.124,2.324-.492l.742-3.078-2.891-.698.314-1.307,6.25,1.509-.314,1.307Z"/><path d="M447.702,43.4l-1.531-.134,1.151-13.219,1.53.134-1.15,13.219Z"/><path d="M394.808,41.177l-2.205.133-1.022-2.6-.696-1.979-.422,2.046-.703,2.703-2.141.129-.55-9.138,1.581-.096.281,4.665-.022,2.823,1.28-5.096,1.246-.074,1.883,4.905-.361-2.801-.28-4.665,1.581-.095.551,9.138Z"/><path d="M384.524,36.177c.246,2.822-1.559,3.879-3.297,4.03-1.801.157-3.697-.578-3.939-3.368l-.033-.383,5.517-.48c-.155-1.224-.825-1.92-2.197-1.801-.94.082-1.562.521-1.629,1.218l-1.754.153c.177-1.847,1.769-2.564,3.3-2.697,2.041-.178,3.803.681,4.033,3.328ZM379.112,37.499c.238,1.072,1.076,1.465,2,1.385.926-.081,1.683-.612,1.731-1.71l-3.731.325Z"/><path d="M372.546,36.804l.305,2.688,2.241-.254.153,1.352-2.242.254.369,3.26-1.701.192-.369-3.26-3.45.391-.153-1.352,3.451-.391-.298-2.623c-.149-1.32-.456-1.752-1.632-1.619-.652.074-1.24.285-1.71.548l-.155-1.367c.484-.28,1.13-.547,2.068-.652,1.812-.206,2.846.386,3.123,2.834Z"/><path d="M364.62,38.271c.396,2.819-1.434,3.933-3.096,4.166-1.774.25-3.725-.3-4.127-3.15-.394-2.804,1.434-3.933,3.098-4.167,1.773-.249,3.727.315,4.125,3.151ZM359.124,39.043c.221,1.568,1,2.169,2.203,2,1.205-.169,1.787-.962,1.566-2.53-.218-1.552-.999-2.169-2.203-2-1.203.17-1.784.979-1.566,2.53Z"/><path d="M354.766,43.272l-1.468.245-.158-.946c-.254.513-.793,1.268-1.977,1.466-1.325.222-2.588-.151-2.965-2.407l-.721-4.308,1.688-.282.666,3.976c.189,1.137.529,1.712,1.555,1.541.758-.127,1.133-.498,1.378-.88l-.853-5.096,1.688-.282,1.167,6.974Z"/><path d="M343.899,36.352c-1.507.293-2.153.907-2.437,2.136l4.418,6.295-1.885.366-1.973-3.022-1.184-1.986-.373,2.272-.71,3.56-1.79.349,1.623-7.159c.602-2.61,1.451-3.688,4.041-4.191l.269,1.382Z"/><path d="M336.015,46.74l-1.266.281-.219-.984c-.137.49-.465,1.301-1.449,1.52-.812.182-1.384-.249-1.643-.749-.114.37-.467,1.219-1.436,1.435-1.078.24-1.721-.584-2.027-1.959l-1.061-4.766,1.484-.331,1.002,4.5c.188.844.42,1.153.857,1.056.422-.094.666-.476.825-.79l-1.138-5.109,1.484-.331,1.002,4.5c.188.844.42,1.153.857,1.056.422-.094.682-.479.841-.794l-1.138-5.109,1.484-.33,1.537,6.906Z"/><path d="M324.048,40.568c-1.49.373-2.103,1.021-2.319,2.264l4.75,6.05-1.862.467-2.133-2.912-1.289-1.92-.25,2.289-.518,3.594-1.77.443,1.236-7.237c.461-2.639,1.251-3.761,3.812-4.403l.343,1.366Z"/><path d="M271.292,70.288l-1.417.594-5.123-12.232,1.417-.593,5.123,12.231Z"/><path d="M223.028,93.222l-2.57,1.563c-1.887,1.147-3.811,1.249-4.908-.556-1.105-1.818-.137-3.457,1.764-4.612l1.053-.641-1.613-2.652,1.518-.923,4.758,7.82ZM219.14,90.248l-1.066.648c-1.217.74-1.459,1.543-.951,2.377s1.323.975,2.54.234l1.066-.648-1.589-2.611Z"/><path d="M211.114,91.968c.883,1.371-.105,2.522-1.329,3.312-.618.398-1.347.716-1.766.833l.312.484c.494.766,1.02,1.284,2.121.573.834-.537,1.102-1.186.65-1.884l1.357-.876c1.049,1.627.074,3.036-1.365,3.964-1.545.996-3.006,1.005-4.08-.662l-1.586-2.46c-.147-.229-.28-.257-.521-.102-.162.104-.378.301-.514.445l-.615-.955c.173-.263.543-.692.986-.979.754-.485,1.22-.234,1.506.21l.069.107c.058-.59.361-1.565,1.585-2.354,1.156-.746,2.426-.842,3.189.342ZM206.962,94.473l.486.753c.299-.098.885-.399,1.395-.729.793-.512,1.223-.997.858-1.562-.294-.457-.761-.441-1.419-.017-.754.485-1.18,1.122-1.32,1.555Z"/><path d="M202.056,97.257l-1.44.982,2.462,3.607,1.44-.982.767,1.123-2.67,1.821-.9-1.321c.189.819.158,2.021-.99,2.807-.437.298-.905.462-1.269.497l-.974-1.427c.407-.026.929-.228,1.312-.489.924-.631,1.164-1.473,1.193-2.054l-1.785-2.617-2.459,1.678-.757-1.11,5.312-3.625.758,1.11Z"/><path d="M194.394,103.157c.955,1.322.027,2.525-1.152,3.378-.597.431-1.307.786-1.719.926l.337.467c.534.739,1.085,1.229,2.149.461.803-.58,1.036-1.242.549-1.916l1.311-.946c1.133,1.569.233,3.028-1.154,4.03-1.492,1.078-2.949,1.164-4.111-.444l-1.715-2.374c-.158-.22-.293-.242-.526-.073-.155.112-.36.32-.489.472l-.664-.921c.158-.272.506-.721.934-1.03.727-.524,1.205-.298,1.515.13l.075.104c.026-.592.277-1.582,1.458-2.435,1.115-.806,2.38-.969,3.204.173ZM190.379,105.878l.524.727c.293-.113.863-.445,1.355-.802.766-.553,1.168-1.061.775-1.605-.319-.441-.784-.401-1.42.058-.727.524-1.119,1.184-1.235,1.623Z"/><path d="M187.326,110.375c1.582,2.075,1.108,3.804-.112,4.735-.891.68-1.801.648-2.224.568l2.437,3.194-1.362,1.038-6.278-8.233,1.184-.902.562.738c-.008-.618.244-1.555,1.197-2.282,1.248-.951,3.015-.931,4.597,1.144ZM182.292,112.141l2,2.622c.461.051,1.065-.028,1.639-.465.967-.737.82-1.773-.004-2.854-.825-1.082-1.785-1.497-2.753-.76-.573.438-.808.999-.882,1.457Z"/><path d="M179.375,116.489c1.787,2.22.786,4.115-.522,5.169-1.396,1.125-3.355,1.654-5.162-.59-1.777-2.207-.786-4.115.523-5.169,1.396-1.125,3.363-1.642,5.161.59ZM175.05,119.973c.993,1.234,1.971,1.351,2.918.588.948-.763,1.043-1.743.049-2.978-.984-1.222-1.973-1.351-2.92-.588s-1.031,1.756-.047,2.978Z"/><path d="M169.631,124.574l4.542.676-1.609,1.367-3.022-.518.072,3.025-1.548,1.315.029-4.561-4.743-.714,1.608-1.368,3.191.543-.033-3.226,1.598-1.357-.085,4.816Z"/><path d="M134.134,168.854l-1.01,1.157-9.994-8.729,1.012-1.157,9.992,8.729Z"/><path d="M100.919,210.69l-1.621,2.536c-1.189,1.861-2.873,2.8-4.653,1.661-1.794-1.146-1.644-3.046-.446-4.92l.664-1.039-2.616-1.673.956-1.497,7.717,4.932ZM96.117,209.73l-.673,1.052c-.768,1.201-.631,2.028.191,2.555.823.525,1.618.293,2.385-.907l.673-1.053-2.576-1.646Z"/><path d="M91.067,215.674c2.426,1.461,2.219,3.54,1.318,5.033-.933,1.549-2.641,2.648-5.039,1.204l-.328-.198,2.855-4.741c-1.08-.595-2.037-.462-2.748.717-.486.809-.496,1.568.027,2.032l-.908,1.508c-1.389-1.229-1.031-2.938-.239-4.253,1.057-1.754,2.786-2.673,5.062-1.302ZM88.954,220.825c1.006.438,1.816-.008,2.295-.802.479-.795.494-1.72-.363-2.404l-1.932,3.206Z"/><path d="M83.849,223.563l-.861,1.518,3.8,2.153.86-1.517,1.183.67-1.594,2.812-1.392-.789c.531.651,1.033,1.744.348,2.955-.261.459-.608.813-.92,1.005l-1.502-.852c.354-.204.733-.613.963-1.018.552-.974.396-1.834.166-2.369l-2.756-1.562-1.467,2.589-1.169-.663,3.171-5.594,1.17.662Z"/><path d="M79.86,232.458l-.789,1.481c-.693-.297-1.338.23-1.842,1.176-.459.861-.692,1.606-.113,1.914.621.331,1.224-.562,2.119-1.697.858-1.102,1.836-2.085,3.148-1.385,1.284.685,1.127,2.305.308,3.843-.819,1.539-1.929,2.633-3.556,1.911l.789-1.482c.73.263,1.256-.382,1.602-1.031.459-.861.545-1.431.122-1.657-.565-.301-1.062.395-2.093,1.749-.8,1.06-1.828,2.07-3.112,1.386-1.511-.805-1.259-2.501-.325-4.251.887-1.666,2.182-2.734,3.742-1.956Z"/><path d="M76.4,241.824c2.548,1.271,2.428,3.41,1.679,4.913-.801,1.604-2.359,2.899-4.936,1.614-2.533-1.265-2.428-3.41-1.678-4.913.8-1.604,2.373-2.893,4.935-1.614ZM73.923,246.79c1.416.707,2.354.406,2.896-.682s.22-2.018-1.197-2.725c-1.402-.7-2.354-.406-2.896.682s-.205,2.024,1.197,2.725Z"/><path d="M74.93,252.794l-.628,1.348-.87-.405c.278.501.596,1.372.089,2.459-.568,1.218-1.59,2.047-3.663,1.08l-3.958-1.845.724-1.551,3.653,1.703c1.043.486,1.711.533,2.15-.409.324-.696.23-1.216.055-1.634l-4.682-2.183.723-1.552,6.407,2.988Z"/><path d="M65.577,259.417l-.982,2.261,4.008,1.741.982-2.261,1.248.542-1.665,3.831-5.255-2.283-.899,2.069-1.233-.535,2.564-5.901,1.232.536ZM72.93,265.107l-.835,1.923-1.776-.771.835-1.923,1.776.771Z"/><path d="M61.634,268.614l-.802,1.989,3.949,1.591.802-1.989,1.247.502-.802,1.99.029.012c2.302.927,2.46,3.147,1.545,5.419l-1.262-.508c.49-1.218.65-2.688-.923-3.322l-.029-.013-1.022,2.539-1.248-.502,1.023-2.539-3.949-1.591-1.023,2.538-1.246-.502,2.463-6.117,1.248.503Z"/><path d="M57.882,278.049l-.859,2.31,4.094,1.525.86-2.311,1.274.475-1.457,3.915-5.369-1.999-.788,2.114-1.26-.469,2.245-6.029,1.26.469ZM65.528,283.338l-.732,1.965-1.814-.676.731-1.965,1.815.676Z"/><path d="M56.627,287.8c2.755.944,2.864,3.045,2.293,4.71-.514,1.499-1.685,2.941-3.845,2.336l.561-1.635c1.06.262,1.611-.26,1.916-1.152.405-1.181.003-2.08-1.496-2.594-1.514-.519-2.367-.05-2.777,1.146-.301.878-.201,1.623.797,2.066l-.56,1.635c-2.048-.837-2.087-2.745-1.583-4.214.575-1.68,1.97-3.231,4.694-2.298Z"/><path d="M51.81,296.797c1.559.487,1.536,2.006,1.102,3.396-.22.703-.576,1.413-.822,1.771l.55.173c.87.271,1.606.334,1.997-.919.297-.946.086-1.616-.708-1.864l.482-1.543c1.849.578,2.002,2.286,1.491,3.921-.55,1.756-1.666,2.698-3.561,2.106l-2.795-.874c-.26-.082-.379-.019-.465.256-.059.184-.098.473-.109.671l-1.084-.34c-.037-.312-.027-.88.131-1.384.268-.855.786-.961,1.291-.804l.121.038c-.332-.489-.725-1.434-.291-2.824.412-1.313,1.326-2.201,2.67-1.78ZM50.226,301.382l.855.268c.167-.267.424-.874.605-1.454.281-.901.3-1.55-.342-1.75-.52-.162-.867.147-1.102.896-.268.855-.188,1.618-.018,2.04Z"/><path d="M49.418,308.598l2.603.738.615-2.171,1.309.371-.615,2.17,3.156.896-.467,1.647-3.156-.896-.947,3.342-1.309-.371.947-3.341-2.541-.721c-1.277-.362-1.795-.242-2.117.897-.179.631-.206,1.255-.141,1.789l-1.324-.375c-.076-.554-.078-1.253.18-2.161.498-1.755,1.437-2.487,3.808-1.815Z"/><path d="M45.536,316.344l-.611,2.388,4.232,1.083.61-2.388,1.317.337-1.035,4.047-5.55-1.421-.56,2.187-1.303-.334,1.596-6.231,1.303.333ZM53.696,320.794l-.52,2.031-1.876-.48.52-2.03,1.876.479Z"/><path d="M45.319,326.185c2.775.63,3.167,2.735,2.795,4.373-.396,1.747-1.602,3.375-4.409,2.738-2.761-.627-3.167-2.736-2.795-4.374.396-1.746,1.618-3.371,4.409-2.737ZM44.091,331.596c1.544.351,2.383-.164,2.651-1.35.269-1.185-.265-2.012-1.809-2.362-1.528-.347-2.382.165-2.651,1.35-.27,1.186.281,2.016,1.809,2.362Z"/><path d="M46.493,337.192l-.291,1.459-.941-.188c.39.42.904,1.191.67,2.368-.263,1.317-1.059,2.365-3.303,1.918l-4.281-.854.334-1.679,3.953.788c1.129.226,1.788.112,1.992-.907.149-.753-.064-1.236-.334-1.6l-5.066-1.011.334-1.678,6.934,1.382Z"/><path d="M42.363,395.313l-.073,1.534-13.244-.633.073-1.534,13.244.633Z"/><path d="M35.854,448.888l.173,1.719c-.947.176-1.369.765-1.244,2.007.113,1.13.58,1.773,1.312,1.7.604-.061.828-.55.996-1.274l.464-2.104c.254-1.15.915-2.085,2.221-2.217,1.702-.171,2.771,1.185,2.968,3.126.182,1.814-.48,3.376-2.515,3.613l-.175-1.735c.996-.164,1.326-.729,1.223-1.747-.113-1.13-.627-1.593-1.213-1.518-.508.067-.803.339-.966,1.11l-.476,2.138c-.258,1.119-.76,2.198-2.225,2.346-1.846.187-2.881-1.317-3.083-3.322-.206-2.053.55-3.641,2.539-3.841Z"/><path d="M32.581,459.34c.193,1.523.764,2.209,1.971,2.572l6.572-3.995.242,1.904-3.146,1.771-2.059,1.051,2.242.522,3.506.941.23,1.809-7.038-2.09c-2.565-.771-3.585-1.689-3.917-4.308l1.396-.178Z"/><path d="M42.538,468.661l.227,1.47-.948.146c.51.262,1.259.81,1.44,1.995.205,1.328-.183,2.586-2.443,2.935l-4.315.667-.261-1.691,3.982-.615c1.139-.176,1.719-.509,1.561-1.536-.117-.759-.484-1.139-.862-1.389l-5.106.789-.261-1.691,6.987-1.079Z"/><path d="M40.491,478.564c2.787-.505,4.006,1.193,4.316,2.91.322,1.779-.234,3.734-2.99,4.233l-.377.068-.988-5.448c-1.203.267-1.835.999-1.59,2.354.168.93.664,1.507,1.363,1.51l.314,1.732c-1.855-.006-2.717-1.525-2.99-3.037-.365-2.016.327-3.849,2.941-4.322ZM42.308,483.83c1.045-.335,1.358-1.205,1.193-2.119-.166-.913-.766-1.617-1.861-1.565l.668,3.685Z"/><path d="M42.337,488.388c2.85-.594,4.016,1.156,4.375,2.878.322,1.55.053,3.387-2.113,3.97l-.353-1.691c1.045-.315,1.253-1.045,1.06-1.969-.254-1.221-1.059-1.788-2.609-1.465-1.564.326-2.061,1.165-1.803,2.401.189.908.656,1.497,1.74,1.369l.353,1.69c-2.187.325-3.194-1.294-3.511-2.812-.363-1.738.044-3.783,2.861-4.371Z"/><path d="M44.414,498.165c2.537-.599,3.923.536,4.276,2.03.257,1.09-.142,1.906-.387,2.261l3.906-.924.394,1.666-10.069,2.379-.342-1.447.902-.214c-.567-.243-1.32-.854-1.596-2.021-.36-1.525.378-3.13,2.915-3.729ZM43.977,503.478l3.206-.757c.234-.4.408-.984.243-1.685-.279-1.183-1.284-1.472-2.606-1.159-1.324.313-2.094,1.021-1.813,2.203.165.701.583,1.145.971,1.397Z"/><path d="M46.761,507.915c2.754-.728,4.076.959,4.506,2.583.458,1.733.144,3.736-2.642,4.473-2.739.724-4.077-.958-4.507-2.583-.457-1.732-.127-3.74,2.643-4.473ZM48.179,513.285c1.532-.404,2.037-1.25,1.727-2.426s-1.168-1.661-2.699-1.257c-1.517.401-2.037,1.25-1.727,2.427.312,1.176,1.184,1.656,2.699,1.256Z"/><path d="M49.357,517.584c2.794-.819,4.095.833,4.591,2.521.445,1.52.322,3.373-1.791,4.126l-.486-1.658c1.018-.397,1.166-1.142.9-2.047-.352-1.197-1.199-1.699-2.719-1.254-1.535.45-1.961,1.325-1.605,2.538.261.891.771,1.44,1.843,1.227l.486,1.658c-2.154.498-3.288-1.036-3.725-2.525-.499-1.704-.257-3.775,2.506-4.586Z"/><path d="M58.87,525.61l.525,1.629-3.868,1.248c.378.13,1.174.563,1.513,1.614.412,1.278.219,2.552-1.959,3.255l-4.158,1.341-.525-1.629,3.838-1.238c1.096-.354,1.616-.773,1.297-1.764-.236-.731-.658-1.049-1.07-1.235l-4.92,1.587-.525-1.629,9.854-3.179Z"/><path d="M55.305,536.738c2.671-.942,4.145.54,4.726,2.185.602,1.705.363,3.724-2.277,4.656l-.363.128-1.842-5.222c-1.146.455-1.653,1.279-1.195,2.576.314.891.895,1.382,1.586,1.273l.586,1.66c-1.832.29-2.924-1.072-3.436-2.521-.682-1.932-.289-3.852,2.216-4.735ZM57.937,541.647c.979-.498,1.149-1.407.84-2.282-.309-.876-1.012-1.476-2.086-1.249l1.246,3.531Z"/><path d="M85.001,588.141l.723,1.356-11.714,6.236-.722-1.356,11.713-6.236Z"/><path d="M108.187,636.208c2.364-1.755,4.595-1.757,6.148.338,1.27,1.708,1.383,3.418-.543,4.986l-1.077-1.452c.974-.862,1.087-1.703.4-2.629-1.068-1.438-2.432-.806-3.832.234-1.374,1.021-2.388,2.151-1.319,3.59.695.938,1.523,1.061,2.618.388l1.077,1.452c-2.041,1.356-3.709.721-4.949-.95-1.621-2.184-.913-4.184,1.477-5.957Z"/><path d="M112.156,646.051c1.284-1.007,2.522-.128,3.421,1.018.453.579.837,1.275.992,1.682l.453-.355c.719-.562,1.186-1.133.377-2.165-.613-.781-1.283-.987-1.938-.474l-.997-1.271c1.523-1.194,3.017-.354,4.073.994,1.135,1.447,1.279,2.9-.282,4.125l-2.304,1.807c-.214.167-.23.302-.053.528.119.151.334.349.49.47l-.894.701c-.278-.147-.74-.477-1.065-.893-.553-.705-.346-1.192.069-1.519l.101-.079c-.592-.003-1.592-.215-2.49-1.36-.85-1.083-1.062-2.339.046-3.208ZM115.034,649.955l.705-.553c-.125-.289-.479-.844-.854-1.322-.583-.743-1.106-1.125-1.634-.711-.429.336-.371.799.113,1.415.553.705,1.227,1.071,1.67,1.171Z"/><path d="M119.655,652.831c2.244-1.858,4.094-.854,5.217.502,1.01,1.221,1.629,2.973-.016,4.501l-1.102-1.332c.777-.768.619-1.511.018-2.237-.797-.962-1.773-1.088-2.994-.077-1.233,1.021-1.279,1.994-.473,2.968.592.715,1.279,1.019,2.18.398l1.102,1.331c-1.783,1.311-3.432.349-4.422-.848-1.133-1.368-1.729-3.369.49-5.206Z"/><path d="M126.073,660.529c2.146-1.874,4.079-.949,5.186.316,1.178,1.35,1.785,3.285-.385,5.181-2.134,1.863-4.08.949-5.186-.316-1.179-1.351-1.773-3.296.385-5.181ZM129.727,664.711c1.193-1.042,1.271-2.023.471-2.939s-1.783-.972-2.977.071c-1.182,1.031-1.271,2.023-.472,2.939.801.916,1.796.961,2.978-.071Z"/><path d="M135.64,666.038l1.007,1.096-.683.628c.613-.064,1.57.1,2.383.983,1.061,1.154,1.203,2.916-.717,4.682-1.921,1.767-3.686,1.454-4.727.323-.758-.824-.811-1.732-.77-2.161l-2.686,2.47-1.16-1.26,7.352-6.761ZM136.438,672.13c1.001-.92,1.314-1.904.491-2.799-.488-.53-1.057-.725-1.521-.755l-2.438,2.242c-.008.464.138,1.048.625,1.578.823.896,1.83.666,2.843-.267Z"/><path d="M144.751,671.023l1.191,1.229-2.918,2.829c.396-.05,1.301-.014,2.07.779.936.965,1.323,2.193-.32,3.786l-3.137,3.041-1.191-1.229,2.896-2.807c.827-.802,1.108-1.409.384-2.155-.534-.552-1.053-.65-1.506-.635l-3.711,3.598-1.192-1.229,7.435-7.207Z"/><path d="M146.476,682.542c1.99-2.037,3.991-1.269,5.193-.094,1.281,1.253,2.038,3.134.025,5.193-1.98,2.026-3.992,1.269-5.193.094-1.281-1.253-2.027-3.146-.025-5.193ZM150.446,686.423c1.107-1.133,1.107-2.117.238-2.968-.87-.85-1.854-.827-2.962.306-1.096,1.122-1.106,2.117-.237,2.968.869.85,1.865.815,2.961-.306Z"/><path d="M156.466,687.299l1.091,1.012-.653.704c.562-.111,1.489-.146,2.369.669.986.914,1.463,2.142-.094,3.819l-2.97,3.203-1.255-1.164,2.741-2.957c.783-.845,1.032-1.465.269-2.172-.562-.522-1.086-.594-1.537-.554l-3.515,3.79-1.256-1.164,4.81-5.187Z"/><path d="M157.612,700.126c1.152,1.015,2.034,1.151,3.18.625l2.289-7.344,1.44,1.269-1.189,3.408-.85,2.151,2.028-1.092,3.253-1.613,1.369,1.206-6.663,3.087c-2.434,1.119-3.807,1.104-5.789-.641l.932-1.057Z"/><path d="M212,726.747l1.29.832-7.185,11.145-1.29-.832,7.185-11.145Z"/><path d="M255.674,757.489c1.207-2.685,3.056-3.869,5.434-2.8,2.392,1.076,2.708,3.182,1.521,5.822-1.194,2.655-3.041,3.876-5.434,2.8-2.378-1.069-2.721-3.152-1.521-5.822ZM260.96,759.814c.662-1.474,1.135-3.032-.484-3.761s-2.471.66-3.134,2.133c-.649,1.444-1.136,3.032.483,3.761s2.484-.689,3.135-2.133Z"/><path d="M267.03,763.482l-1.453-4.354,1.947.815.906,2.929,2.664-1.434,1.874.785-4.079,2.038,1.51,4.552-1.947-.815-.961-3.091-2.861,1.49-1.932-.81,4.332-2.105Z"/><path d="M271.898,771.116c1.433.556,2.308.38,3.201-.51l-.386-7.685,1.79.694.061,3.61-.055,2.312,1.526-1.726,2.497-2.637,1.701.66-5.189,5.197c-1.898,1.89-3.193,2.35-5.655,1.396l.509-1.313Z"/><path d="M284.138,766.545l1.22.437-.339.949c.377-.341,1.086-.852,2.034-.513.783.28,1.037.948.989,1.509.294-.251,1.044-.781,1.979-.447,1.039.371,1.143,1.411.668,2.736l-1.643,4.593-1.431-.512,1.552-4.337c.291-.813.258-1.198-.164-1.35-.406-.146-.814.049-1.117.229l-1.762,4.925-1.431-.512,1.552-4.337c.291-.813.258-1.198-.163-1.35-.407-.146-.831.043-1.134.224l-1.761,4.925-1.431-.512,2.381-6.657Z"/><path d="M292.587,773.28c.885-2.705,3.018-2.898,4.613-2.376,1.703.557,3.212,1.909,2.316,4.645-.881,2.69-3.018,2.899-4.613,2.377-1.703-.558-3.207-1.925-2.316-4.646ZM297.86,775.006c.492-1.505.058-2.388-1.098-2.766-1.154-.378-2.027.077-2.52,1.582-.487,1.489-.058,2.387,1.098,2.765,1.154.378,2.031-.092,2.52-1.581Z"/><path d="M301.886,778.58l1.672.499,1.249-4.187-1.671-.499.389-1.304,3.098.925-.457,1.533c.516-.664,1.469-1.398,2.803-1,.506.151.93.411,1.186.672l-.494,1.656c-.277-.301-.762-.579-1.207-.712-1.073-.32-1.877.024-2.348.368l-.906,3.036,2.852.852-.384,1.288-6.165-1.84.385-1.288Z"/><path d="M311.716,779.189c.741-2.749,2.861-3.055,4.482-2.618,1.73.467,3.309,1.737,2.559,4.518-.737,2.733-2.861,3.055-4.482,2.617-1.73-.467-3.305-1.753-2.559-4.517ZM317.073,780.634c.413-1.529-.068-2.388-1.241-2.704-1.174-.316-2.021.184-2.433,1.713-.409,1.513.067,2.387,1.241,2.703,1.173.317,2.024-.199,2.433-1.712Z"/><path d="M322.761,778.454l1.447.349-.226.934c.435-.372,1.227-.855,2.393-.574,1.306.315,2.321,1.152,1.784,3.376l-1.023,4.245-1.664-.401.945-3.919c.271-1.119.184-1.782-.826-2.026-.747-.18-1.238.015-1.612.27l-1.212,5.022-1.664-.402,1.658-6.872Z"/><path d="M380.698,784.867l1.531.134-1.15,13.219-1.531-.134,1.15-13.219Z"/></svg>