<?xml version="1.0" encoding="UTF-8"?><svg id="Layer_1" xmlns="http://www.w3.org/2000/svg" width="3.837in" height="3.837in" viewBox="0 0 276.25 276.25"><defs><style>.cls-1{fill:#ff0;opacity:.5;stroke:#231f20;stroke-miterlimit:10;stroke-width:.25px;}</style></defs><path class="cls-1" d="M137.423.125C61.208.125-.577,61.91-.577,138.125s61.785,138,138,138,138-61.785,138-138S213.639.125,137.423.125ZM137.423,207.125c-38.108,0-69-30.892-69-69s30.892-69,69-69,69,30.892,69,69-30.892,69-69,69Z"/><path d="M170.463,231.277l2.556-1.04,2.252,2.668,1.616,2.062-.32-2.591-.25-3.481,2.482-1.01,4.311,10.596-1.834.746-2.2-5.409-1.104-3.351.525,6.544-1.445.588-4.193-5.052,1.549,3.17,2.201,5.409-1.834.746-4.311-10.596Z"/><path d="M184.692,232.832c-1.729-3.112-.092-5.232,1.744-6.252,1.959-1.087,4.482-1.32,6.229,1.827,1.718,3.095.091,5.232-1.745,6.252-1.959,1.087-4.492,1.303-6.229-1.827ZM190.759,229.464c-.961-1.731-2.14-2.083-3.469-1.346s-1.653,1.924-.692,3.655c.95,1.714,2.139,2.083,3.469,1.346,1.328-.737,1.644-1.941.692-3.655Z"/><path d="M197.688,228.412l1.766-1.277-3.199-4.424-1.766,1.277-.996-1.377,3.273-2.367,1.172,1.62c-.267-1.017-.269-2.521,1.142-3.54.534-.387,1.114-.609,1.567-.665l1.266,1.75c-.509.047-1.153.316-1.623.656-1.135.82-1.405,1.879-1.422,2.607l2.32,3.208,3.014-2.18.984,1.361-6.514,4.711-.984-1.361Z"/><path d="M203.245,215.233l1.366-1.262.813.882c-.084-.711-.038-1.87,1.064-2.887,1.234-1.14,2.81-1.614,4.75.486l3.703,4.012-1.572,1.451-3.419-3.702c-.977-1.059-1.726-1.428-2.681-.546-.705.65-.845,1.296-.839,1.862l4.382,4.746-1.572,1.452-5.996-6.495Z"/><path d="M210.623,202.094l1.7-1.993,1.842,1.571-1.701,1.993-1.841-1.571ZM217.331,211.581l2-2.343-4.154-3.545-1.999,2.343-1.293-1.104,3.39-3.971,5.445,4.648,1.831-2.146,1.278,1.091-5.221,6.116-1.277-1.091Z"/><path d="M219.637,197.453l1.031-1.548.999.665c-.249-.671-.478-1.809.354-3.057.932-1.398,2.352-2.231,4.732-.645l4.545,3.028-1.188,1.781-4.194-2.796c-1.198-.799-2.015-.981-2.735.101-.533.799-.516,1.46-.377,2.009l5.377,3.583-1.188,1.781-7.357-4.903Z"/><path d="M234.25,191.931l.928-1.839c.956.415,1.762.284,2.447-1.072.829-1.643.054-2.281-1-2.812l-1.125-.568c.204.573.396,1.566-.217,2.781-.929,1.838-2.927,2.733-5.641,1.363-2.731-1.38-3.205-3.592-2.304-5.377.649-1.285,1.743-1.854,2.485-1.948l-1.018-.515.839-1.66,8.105,4.095c2.124,1.072,2.601,2.837,1.284,5.443-.885,1.75-2.277,3.31-4.785,2.109ZM234.198,184.981l-3.428-1.731c-.6.212-1.192.63-1.57,1.38-.695,1.374-.011,2.46,1.418,3.181,1.428.722,2.689.62,3.384-.755.379-.75.382-1.466.196-2.074Z"/><path d="M229.907,108.106l-.61-1.82,15.724-5.275.611,1.821-15.725,5.274Z"/><path d="M184.405,51.205l-2.53-1.243,1.185-9.755-1.354,3.345-2.505,5.096-1.759-.864,5.045-10.264,2.53,1.243-1.185,9.755,1.354-3.345,2.505-5.096,1.759.864-5.045,10.264Z"/><path d="M176.67,39.818c-1.176,3.36-3.848,3.548-5.83,2.854-2.113-.74-3.967-2.47-2.777-5.867,1.17-3.341,3.848-3.547,5.83-2.854,2.113.74,3.959,2.488,2.777,5.866ZM170.121,37.526c-.654,1.868-.134,2.983,1.302,3.485,1.434.502,2.536-.045,3.19-1.913.647-1.85.134-2.983-1.302-3.485-1.434-.502-2.543.063-3.19,1.913Z"/><path d="M164.672,35.842c-.764,3.477-3.393,3.984-5.443,3.534-2.188-.48-4.234-1.974-3.463-5.489.76-3.457,3.393-3.984,5.443-3.534,2.188.48,4.23,1.993,3.463,5.489ZM157.895,34.354c-.424,1.934.227,2.978,1.711,3.304s2.514-.35,2.938-2.283c.42-1.914-.227-2.977-1.711-3.303s-2.518.368-2.938,2.282Z"/><path d="M151.168,37.672l-1.852-.179.115-1.195c-.474.537-1.369,1.275-2.862,1.131-1.673-.161-3.077-1.021-2.802-3.868l.524-5.437,2.131.206-.485,5.019c-.138,1.434.086,2.238,1.381,2.363.955.093,1.529-.233,1.948-.615l.621-6.432,2.13.205-.85,8.802Z"/><path d="M76.05,62.735l-1.477,1.228-10.601-12.751,1.477-1.228,10.601,12.751Z"/><path d="M39.414,125.722l-.241,2.81-9.523,2.436,3.609.049,5.66.485-.168,1.953-11.398-.978.24-2.811,9.523-2.435-3.609-.049-5.659-.485.167-1.953,11.399.978Z"/><path d="M28.886,137.688l.101,3.078,5.457-.179-.101-3.078,1.698-.057.172,5.218-7.156.234.093,2.818-1.679.056-.264-8.036,1.679-.055ZM40.234,140.177l.086,2.618-2.419.079-.086-2.618,2.419-.079Z"/><path d="M27.36,150.559l.309,2.037c-1.019.215-1.6.789-1.371,2.292.277,1.819,1.279,1.89,2.445,1.712l1.246-.189c-.498-.349-1.23-1.047-1.436-2.392-.31-2.037.799-3.925,3.805-4.382,3.026-.46,4.695,1.066,4.995,3.044.217,1.424-.345,2.521-.896,3.029l1.128-.171.279,1.839-8.978,1.365c-2.354.357-3.764-.804-4.203-3.691-.295-1.938-.064-4.017,2.676-4.493ZM31.432,156.192l3.797-.577c.367-.521.606-1.205.48-2.036-.232-1.522-1.418-2.01-3-1.77-1.582.241-2.551,1.056-2.32,2.578.127.831.539,1.416,1.043,1.805Z"/><path d="M42.725,160.499l.573,2.062-4.896,1.36c.466.182,1.438.764,1.807,2.093.45,1.619.143,3.199-2.613,3.966l-5.262,1.462-.573-2.062,4.856-1.35c1.388-.386,2.059-.884,1.711-2.136-.258-.926-.768-1.344-1.274-1.598l-6.226,1.729-.572-2.062,12.469-3.466Z"/><path d="M38.25,176.773l3.123-1.289-1.075-2.605,1.571-.648,1.075,2.605,3.788-1.564.816,1.978-3.788,1.563,1.655,4.01-1.57.648-1.656-4.01-3.049,1.259c-1.533.634-1.947,1.15-1.383,2.518.312.758.77,1.392,1.246,1.865l-1.59.656c-.502-.484-1.045-1.169-1.494-2.26-.87-2.106-.515-3.551,2.33-4.726Z"/><path d="M99.709,227.75l1.776.729-6.286,15.344-1.777-.729,6.287-15.344Z"/></svg>