<?xml version="1.0" encoding="UTF-8"?><svg id="Layer_1" xmlns="http://www.w3.org/2000/svg" width="7.67in" height="7.67in" viewBox="0 0 552.25 552.25"><defs><style>.cls-1{fill:#ff0;opacity:.5;stroke:#231f20;stroke-miterlimit:10;stroke-width:.25px;}</style></defs><path class="cls-1" d="M275.795.125C123.364.125-.205,123.694-.205,276.125s123.569,276,276,276,276-123.569,276-276S428.226.125,275.795.125ZM275.795,483.125c-114.323,0-207-92.677-207-207s92.677-207,207-207,207,92.677,207,207-92.677,207-207,207Z"/><path d="M315.127,519.91l2.738-.483-1.336-7.564-2.738.483-.327-1.852,7.684-1.357.326,1.852-2.738.484,1.336,7.564,2.738-.484.327,1.853-7.683,1.356-.327-1.852Z"/><path d="M326.39,515.255c-.816-3.547,1.342-5.049,3.484-5.542,1.93-.444,4.232-.154,5.017,2.538l-2.104.484c-.422-1.298-1.339-1.538-2.488-1.273-1.52.35-2.209,1.37-1.764,3.299.447,1.949,1.509,2.546,3.048,2.191,1.13-.26,1.854-.857,1.667-2.21l2.104-.484c.463,2.725-1.535,4.026-3.426,4.462-2.162.498-4.729.042-5.537-3.465Z"/><path d="M338.591,512.355c-.979-3.422,1.096-5.117,3.115-5.693,2.152-.615,4.663-.272,5.652,3.188.972,3.403-1.097,5.117-3.115,5.693-2.153.615-4.67.253-5.652-3.188ZM345.263,510.449c-.545-1.903-1.613-2.513-3.074-2.096-1.461.418-2.046,1.5-1.502,3.403.538,1.884,1.611,2.513,3.073,2.096,1.462-.418,2.04-1.519,1.503-3.403Z"/><path d="M349.857,504.422l1.76-.602.389,1.135c.209-.685.721-1.726,2.139-2.21,1.59-.544,3.223-.342,4.148,2.364l1.766,5.165-2.024.692-1.63-4.768c-.467-1.362-1.002-2.004-2.232-1.583-.908.311-1.296.845-1.52,1.365l2.09,6.111-2.025.692-2.859-8.363Z"/><path d="M421.775,461.333l1.503-1.195,10.322,12.979-1.503,1.195-10.322-12.979Z"/><path d="M483.244,410.06l1.472-2.358-6.516-4.066-1.472,2.358-1.595-.995,4.129-6.617,1.596.995-1.473,2.358,6.516,4.066,1.473-2.358,1.595.995-4.13,6.618-1.595-.996Z"/><path d="M483.775,395.853l.904-1.627,1.049.584c-.303-.649-.621-1.765.107-3.076.816-1.469,2.166-2.413,4.666-1.023l4.774,2.653-1.04,1.871-4.406-2.449c-1.26-.7-2.088-.816-2.719.32-.467.839-.396,1.496-.215,2.032l5.648,3.14-1.04,1.871-7.729-4.296Z"/><path d="M493.329,387.582c-2.928-1.436-3.365-3.633-2.52-5.356.615-1.257,1.65-1.73,2.168-1.878l-4.508-2.21.941-1.921,11.619,5.696-.818,1.67-1.041-.511c.354.687.596,1.874-.064,3.221-.863,1.76-2.85,2.724-5.777,1.289ZM497.97,382.795l-3.699-1.814c-.545.201-1.176.627-1.572,1.435-.67,1.365.072,2.442,1.6,3.19,1.525.748,2.832.676,3.5-.689.396-.809.346-1.568.172-2.121Z"/><path d="M498.813,376.277c-3.255-1.391-3.356-4-2.501-6.005.889-2.077,2.814-3.733,6.031-2.358l.441.188-2.719,6.362c1.439.55,2.603.221,3.278-1.36.464-1.085.345-2.027-.384-2.513l.865-2.022c1.931,1.282,1.783,3.459,1.029,5.224-1.006,2.354-2.99,3.789-6.042,2.484ZM500.542,369.536c-1.322-.369-2.248.322-2.703,1.389-.456,1.066-.316,2.214.863,2.914l1.84-4.303Z"/><path d="M504.673,361.55l-5.357,2.058.91-2.478,3.607-1.295-1.938-3.247.875-2.384,2.771,4.98,5.6-2.139-.91,2.478-3.805,1.371,2.019,3.49-.903,2.458-2.869-5.293Z"/><path d="M511.572,279.498l.03-1.921,16.584.266-.031,1.921-16.583-.266Z"/><path d="M509.286,200.545l-.702-2.042c1.103-.484,1.448-1.322.94-2.797-.461-1.343-1.213-1.993-2.082-1.693-.719.247-.852.905-.85,1.835l.038,2.692c.021,1.474-.518,2.8-2.067,3.333-2.023.695-3.711-.648-4.504-2.955-.741-2.155-.382-4.244,2.025-5.114l.709,2.061c-1.166.485-1.404,1.265-.988,2.475.461,1.343,1.217,1.759,1.91,1.5.599-.228.879-.641.857-1.627l-.032-2.737c-.007-1.435.295-2.892,2.034-3.49,2.193-.754,3.883.779,4.702,3.161.839,2.439.372,4.587-1.991,5.399Z"/><path d="M510.176,186.763c-.718-1.781-1.626-2.429-3.2-2.484l-6.681,6.919-.897-2.227,3.242-3.14,2.158-1.926-2.879.081-4.54-.025-.853-2.115,9.176.292c3.348.118,4.873.905,6.106,3.967l-1.633.658Z"/><path d="M495.545,179.59l-.683-1.47,1.144-.53c-.634-.037-1.712-.22-2.243-1.363-.438-.943-.064-1.756.477-2.205-.482-.041-1.613-.244-2.135-1.369-.582-1.252.253-2.257,1.85-2.998l5.533-2.568.801,1.724-5.226,2.426c-.979.454-1.294.821-1.059,1.329.228.49.759.685,1.185.795l5.934-2.754.8,1.724-5.226,2.426c-.979.454-1.295.821-1.059,1.329.228.49.768.702,1.193.813l5.934-2.754.799,1.723-8.019,3.724Z"/><path d="M495.778,162.385l1.025-.543.87,1.646-11.442,6.052-1.001-1.893,4.438-2.348c-.521-.132-1.57-.573-2.225-1.811-.916-1.733-.527-3.908,2.355-5.433s4.917-.587,5.814,1.111c.702,1.326.497,2.521.164,3.218ZM490.828,160.002c-1.503.795-2.212,1.895-1.501,3.238.421.796,1.065,1.201,1.615,1.386l3.644-1.927c.157-.559.185-1.319-.236-2.115-.711-1.345-2.019-1.377-3.521-.582Z"/><path d="M488.132,155.082c-3.059,1.823-5.229.252-6.303-1.552-1.146-1.925-1.459-4.439,1.635-6.282,3.041-1.812,5.229-.252,6.303,1.552,1.146,1.925,1.441,4.45-1.635,6.282ZM484.579,149.12c-1.701,1.014-2.016,2.203-1.238,3.509.778,1.306,1.975,1.595,3.676.581,1.684-1.004,2.016-2.203,1.238-3.509-.778-1.306-1.992-1.584-3.676-.581Z"/><path d="M483.612,142.386l-1.633-2.444-7.967,5.32,1.634,2.445-1.397.934-2.821-4.225,9.364-6.255-1.645-2.461,1.396-.934,4.467,6.687-1.398.933Z"/><path d="M417.573,87.679l-1.538-1.15,9.93-13.281,1.538,1.149-9.93,13.282Z"/><path d="M350.077,50.63l-2.639-.812-.055-3.492.055-2.621-1.393,2.209-2.01,2.855-2.562-.789,3.369-10.936,1.893.583-1.72,5.583-1.267,3.294,3.736-5.401,1.492.459.049,6.568.808-3.437,1.72-5.582,1.893.583-3.369,10.936Z"/><path d="M340.177,40.324c-.871,3.452-3.517,3.877-5.553,3.363-2.172-.549-4.172-2.106-3.291-5.597.867-3.433,3.518-3.878,5.554-3.363,2.172.548,4.167,2.125,3.29,5.597ZM333.447,38.624c-.485,1.92.134,2.984,1.607,3.356s2.523-.271,3.009-2.19c.479-1.9-.134-2.983-1.607-3.356-1.475-.372-2.529.29-3.009,2.19Z"/><path d="M325.704,36.214l-.656,3.316,2.766.548-.33,1.668-2.768-.549-.797,4.023-2.1-.417.797-4.022-4.258-.844.331-1.668,4.259.844.641-3.237c.324-1.629.123-2.261-1.33-2.548-.805-.16-1.585-.131-2.244.003l.335-1.688c.683-.149,1.554-.222,2.712.008,2.236.443,3.242,1.54,2.643,4.562Z"/><path d="M315.524,32.199l-3.048-.441-.783,5.403,3.048.441-.243,1.683-5.166-.749,1.027-7.085-2.791-.404.241-1.663,7.956,1.153-.241,1.662ZM311.078,42.931l-2.593-.376.348-2.395,2.592.376-.347,2.395Z"/><path d="M303.06,30.508l-2.669-.247-.491,5.297,2.668.247-.154,1.673-2.668-.248-.004.04c-.287,3.087-2.889,4.07-5.936,3.788l.158-1.692c1.633.151,3.451-.183,3.646-2.293l.004-.04-3.405-.315.155-1.673,3.404.315.492-5.297-3.406-.315.156-1.673,8.203.761-.154,1.673Z"/><path d="M218.851,47.237l-1.861.47-4.061-16.077,1.861-.47,4.061,16.077Z"/><path d="M143.103,69.717l-1.795,1.203c-.751-.941-1.65-1.062-2.946-.192-1.18.791-1.616,1.686-1.104,2.45.423.631,1.095.591,1.993.35l2.595-.728c1.419-.397,2.84-.219,3.753,1.145,1.192,1.777.326,3.755-1.701,5.114-1.895,1.27-4.008,1.458-5.467-.646l1.812-1.214c.769,1.002,1.584,1.033,2.647.32,1.18-.791,1.389-1.629.959-2.233-.373-.521-.844-.686-1.793-.411l-2.639.733c-1.387.375-2.873.457-3.898-1.072-1.291-1.927-.242-3.955,1.852-5.358,2.144-1.438,4.34-1.537,5.732.54Z"/><path d="M132.167,77.126l3.271,4.374-1.714,1.281-3.02-4.037c-.861-1.153-1.569-1.599-2.611-.82-.769.575-.974,1.203-1.026,1.767l3.868,5.175-1.714,1.282-5.294-7.082,1.49-1.113.719.961c-.012-.716.154-1.864,1.355-2.763,1.346-1.006,2.963-1.315,4.676.976Z"/><path d="M119.316,84.23l-.74-.894,1.432-1.188,8.264,9.962-1.648,1.366-3.205-3.864c-.021.537-.239,1.653-1.316,2.548-1.51,1.252-3.717,1.315-5.799-1.193-2.082-2.51-1.58-4.693-.102-5.92,1.154-.958,2.365-1.001,3.115-.817ZM117.995,89.562c1.086,1.309,2.307,1.777,3.477.807.692-.574.958-1.288,1.025-1.864l-2.631-3.172c-.578-.04-1.329.089-2.021.664-1.17.971-.936,2.257.15,3.565Z"/><path d="M108.539,89.192c-1.635,1.504-2.177,2.954-.51,4.766l4.093,4.446,2.518-2.316,1.151,1.251-4.093,3.768-5.38-5.846c-2.345-2.548-1.421-5.002,1.083-7.306l1.138,1.237ZM116.213,102.525l-1.929,1.775-1.64-1.781,1.929-1.775,1.64,1.781Z"/><path d="M104.536,101.75c2.527,2.479,1.675,4.949.148,6.506-1.584,1.613-3.98,2.457-6.479.006l-.343-.336,4.847-4.941c-1.142-1.036-2.345-1.151-3.55.077-.826.842-1.059,1.764-.557,2.48l-1.541,1.571c-1.334-1.896-.404-3.872.939-5.243,1.793-1.828,4.164-2.445,6.535-.12ZM100.474,107.405c1.098.824,2.213.517,3.025-.312.812-.828,1.098-1.948.253-3.029l-3.278,3.342Z"/><path d="M95.85,110.782c2.724,2.414,1.84,4.89.382,6.536-1.312,1.482-3.357,2.583-5.559.847l1.432-1.617c1.098.812,1.984.476,2.766-.408,1.035-1.167,1.003-2.397-.479-3.711-1.498-1.325-2.708-1.195-3.756-.013-.769.868-1.012,1.775-.072,2.767l-1.433,1.616c-1.96-1.949-1.089-4.17.198-5.621,1.471-1.662,3.826-2.782,6.521-.396Z"/><path d="M85.537,121.752l2.641,2.109,1.761-2.203,1.328,1.061-1.761,2.203,3.203,2.559-1.335,1.672-3.203-2.559-2.709,3.391-1.328-1.061,2.709-3.391-2.578-2.06c-1.297-1.036-1.95-1.147-2.873.009-.513.641-.846,1.347-1.029,1.993l-1.344-1.073c.18-.675.517-1.481,1.253-2.403,1.423-1.781,2.859-2.169,5.266-.247Z"/><path d="M53.062,198.468l-.624,1.815-15.673-5.389.624-1.815,15.673,5.389Z"/><path d="M36.602,277.475l-.061-3.78,1.88-.03.158,9.802-1.881.03-.061-3.78-9.562.152-.035-2.24,9.562-.153Z"/><path d="M31.645,286.654c3.553-.217,4.761,2.173,4.89,4.269.137,2.235-.74,4.613-4.333,4.833-3.532.216-4.761-2.173-4.889-4.269-.137-2.235.76-4.614,4.332-4.833ZM32.068,293.58c1.976-.121,2.802-1.033,2.708-2.55-.092-1.517-1.023-2.321-2.998-2.2-1.957.119-2.803,1.033-2.709,2.55.092,1.517,1.043,2.32,2.999,2.2Z"/><path d="M36.964,299.334l.207,1.85-1.154.129c.668.389,1.511,1.261,1.678,2.752.219,1.948-.939,3.829-4.181,4.192s-4.791-1.255-5.005-3.164c-.156-1.392.462-2.347.819-2.749l-4.533.508-.238-2.127,12.407-1.391ZM33.269,306.069c1.69-.188,2.732-.95,2.562-2.461-.1-.895-.531-1.511-.976-1.884l-4.116.461c-.35.462-.635,1.158-.534,2.054.169,1.511,1.354,2.022,3.063,1.83Z"/><path d="M31.366,312.602l.5,3.038,5.387-.888-.501-3.038,1.677-.276.849,5.149-7.063,1.164.459,2.781-1.658.273-1.307-7.932,1.658-.272ZM42.939,313.593l.426,2.584-2.388.394-.425-2.584,2.387-.394Z"/><path d="M36.107,323.98c3.557-.775,5.035,1.401,5.503,3.551.421,1.936.104,4.236-2.599,4.988l-.46-2.11c1.304-.407,1.555-1.321,1.304-2.475-.332-1.525-1.345-2.226-3.279-1.805-1.955.426-2.564,1.48-2.229,3.024.246,1.134.836,1.865,2.19,1.693l.46,2.11c-2.731.432-4.01-1.583-4.423-3.479-.472-2.169.014-4.732,3.532-5.498Z"/><path d="M75.151,400.086l1.016,1.629-14.066,8.778-1.016-1.629,14.066-8.778Z"/><path d="M125.097,459.492l2.207,1.755-3.241,9.281,2.038-2.979,3.535-4.446,1.535,1.221-7.123,8.954-2.207-1.755,3.241-9.281-2.038,2.979-3.535,4.446-1.535-1.22,7.123-8.955Z"/><path d="M130.079,472.37c2.061-2.88,4.632-2.417,6.404-1.147,1.838,1.315,3.041,3.554,1.004,6.4l-.279.391-5.629-4.028c-.848,1.287-.776,2.494.623,3.495.959.687,1.905.773,2.536.168l1.79,1.28c-1.67,1.609-3.764.996-5.326-.121-2.082-1.49-3.056-3.737-1.123-6.438ZM136.292,475.512c.645-1.211.169-2.265-.774-2.94-.943-.675-2.095-.785-3.032.216l3.807,2.725Z"/><path d="M142.101,475.43l1.701,1.09-3.076,6.51,3.964-3.852,1.887,1.208-1.808,5.233,4.609-5.529,1.651,1.058-6.065,6.615-2.105-1.349,1.679-4.958-3.802,3.599-2.105-1.349,3.471-8.276Z"/><path d="M150.244,487.732l1.823,1.039c-.396.856.239,1.679,1.402,2.342,1.06.604,1.982.924,2.389.212.436-.765-.658-1.55-2.046-2.709-1.345-1.111-2.538-2.368-1.618-3.982.902-1.58,2.92-1.327,4.812-.247,1.894,1.079,3.221,2.504,2.261,4.511l-1.823-1.04c.354-.903-.433-1.582-1.231-2.037-1.06-.604-1.769-.732-2.065-.212-.396.695.455,1.341,2.109,2.677,1.295,1.037,2.521,2.357,1.62,3.938-1.06,1.858-3.17,1.483-5.323.256-2.049-1.169-3.337-2.824-2.31-4.746Z"/><path d="M233.603,508.174l1.891.334-2.885,16.33-1.891-.334,2.885-16.33Z"/></svg>