<?xml version="1.0" encoding="UTF-8"?><svg id="Layer_1" xmlns="http://www.w3.org/2000/svg" width="5.753in" height="5.753in" viewBox="0 0 414.25 414.25"><defs><style>.cls-1{fill:#40e0d0;opacity:.5;stroke:#231f20;stroke-miterlimit:10;stroke-width:.25px;}</style></defs><path class="cls-1" d="M208.145.125C93.822.125,1.145,92.802,1.145,207.125s92.677,207,207,207,207-92.677,207-207S322.468.125,208.145.125ZM208.145,345.125c-76.215,0-138-61.785-138-138s61.785-138,138-138,138,61.785,138,138-61.785,138-138,138Z"/><path d="M240.14,378.121l1.27-.258c.27,1.006,1.059,1.433,2.359,1.168,1.191-.242,1.879-.872,1.697-1.765-.141-.689-.658-.911-1.516-1.03l-2.033-.288c-1.143-.159-2.172-.651-2.434-1.937-.319-1.566.875-2.675,2.615-3.028,1.785-.364,3.199.246,3.585,2.061l-1.254.255c-.317-1.24-1.256-1.359-2.134-1.181-1.144.232-1.649.874-1.503,1.595.121.596.604.889,1.377.993l2.033.287c1.528.212,2.312.688,2.557,1.896.366,1.802-.931,2.882-2.765,3.256-2.006.408-3.495-.252-3.855-2.023Z"/><path d="M249.761,375.166c-.729-2.754.828-4.009,2.375-4.418s3.457-.069,4.174,2.638c.731,2.77-.84,4.029-2.371,4.435-1.562.412-3.467.038-4.178-2.654ZM255.095,373.74c-.449-1.702-1.39-2.314-2.721-1.963-1.33.352-1.845,1.349-1.395,3.051.445,1.687,1.389,2.314,2.72,1.963,1.331-.353,1.841-1.364,1.396-3.051Z"/><path d="M260.541,374.673l1.887-.617-1.502-4.594-1.887.616-.334-1.019,1.887-.617-.01-.03c-.677-2.069.502-3.616,2.859-4.388l.334,1.02c-1.354.442-2.539,1.302-1.992,2.975l.01.031,2.678-.876.334,1.02-2.678.875,1.502,4.595,2.678-.876.334,1.02-5.767,1.886-.333-1.02Z"/><path d="M271.011,369.174l-1.121-2.859-2.131.836-.391-.998,2.129-.836-1.18-3.008,1.176-.462,1.181,3.009,3.187-1.251.393.998-3.188,1.25,1.104,2.815c.521,1.325.996,1.705,2.128,1.261.655-.257,1.124-.596,1.467-.902l.393.998c-.168.187-.717.625-1.626.981-1.563.614-2.655.372-3.521-1.832Z"/><path d="M276.283,362.594l1.104-.51,3.257,4.999-.743-4.555,1.234-.569,2.995,3.517-1.688-5.723,1.075-.495,1.816,6.843-1.409.649-2.893-3.369.685,4.388-1.409.649-4.024-5.824Z"/><path d="M288.154,362.704c-.76-1.426.309-2.448,1.494-3.08.592-.315,1.379-.608,1.893-.7l-.287-.536c-.504-.946-1.029-1.626-2.355-.919-1.017.541-1.306,1.258-.854,2.104l-1.073.571c-.939-1.764.273-2.99,1.516-3.652,1.623-.865,2.905-.534,3.763,1.075l1.489,2.795c.129.239.258.279.512.144.197-.105.443-.29.639-.467l.422.79c-.174.219-.515.564-.952.798-.733.391-1.144.065-1.361-.344l-.06-.113c-.1.597-.513,1.487-1.74,2.142-1.186.632-2.396.606-3.043-.607ZM292.472,360.673l-.512-.96c-.383.097-1.014.342-1.635.673-.959.512-1.434,1.018-1.072,1.694.293.551.818.616,1.622.188.819-.437,1.318-1.029,1.597-1.595Z"/><path d="M297.742,358.293l1.545-.941-2.517-4.129-1.545.941-.558-.916,2.447-1.492.824,1.354c-.121-.751-.088-1.989,1.17-2.756.465-.283.964-.419,1.156-.442l.674,1.107c-.227.026-.682.173-1.119.439-1.039.633-1.289,1.516-1.328,2.159l1.875,3.076,2.584-1.575.558.916-5.209,3.175-.558-.916Z"/><path d="M304.726,351.117c-1.582-2.291-.621-4.024.709-4.943,1.291-.891,3.287-1.239,4.879,1.065l.146.211-4.556,3.146c.916,1.215,1.981,1.49,3.18.662.908-.627,1.242-1.44.873-2.256l1.053-.728c.818,1.691-.255,3.094-1.361,3.858-1.527,1.055-3.43,1.144-4.922-1.017ZM308.847,347.396c-.85-.949-1.881-1.034-2.83-.38-.947.655-1.233,1.649-.646,2.781l3.477-2.401Z"/><path d="M343.066,305.711l.687-.925,10.51,7.801-.687.926-10.51-7.802Z"/><path d="M368.859,259.164l.709-2.226c.703-2.21,2.049-3.275,3.757-2.732,1.388.442,1.989,1.607,1.901,2.889l4.264-1.581-.505,1.586-3.963,1.374-.364,1.144,3.201,1.019-.402,1.266-8.598-2.737ZM373.606,259.282l.311-.976c.515-1.616.058-2.449-.917-2.76-.961-.306-1.83.105-2.346,1.721l-.311.976,3.263,1.039Z"/><path d="M376.937,251.76c-2.698-.688-3.112-2.626-2.713-4.191.387-1.52,1.663-3.093,4.377-2.401l.248.063-1.368,5.363c1.489.313,2.473-.179,2.833-1.589.271-1.07-.012-1.901-.824-2.274l.316-1.24c1.727.738,1.839,2.5,1.507,3.803-.458,1.798-1.835,3.115-4.376,2.467ZM377.598,246.25c-1.265-.157-2.098.456-2.382,1.572-.285,1.116.153,2.053,1.338,2.521l1.044-4.093Z"/><path d="M380.6,242.089l.226-1.162c.842.115,1.418-.506,1.699-1.951.186-.957.135-1.782-.604-1.926-.832-.161-1.156.835-1.757,2.25-.515,1.22-1.136,2.321-2.438,2.067-1.366-.266-1.678-1.679-1.361-3.312.306-1.57,1.096-2.785,2.754-2.594l-.227,1.162c-.991-.014-1.322.852-1.484,1.684-.207,1.067-.068,1.697.48,1.804.816.159,1.162-1.028,1.682-2.28.545-1.295,1.164-2.299,2.482-2.043,1.508.293,1.836,1.791,1.504,3.502-.361,1.854-1.279,3.06-2.956,2.799Z"/><path d="M381.156,232.125c-2.822-.383-3.385-2.3-3.17-3.885.215-1.586,1.26-3.22,4.035-2.844,2.838.386,3.398,2.318,3.186,3.888-.217,1.602-1.292,3.216-4.051,2.841ZM381.882,226.653c-1.744-.236-2.67.396-2.854,1.761-.185,1.363.538,2.22,2.282,2.457,1.729.234,2.67-.397,2.854-1.761s-.554-2.223-2.282-2.457Z"/><path d="M383.234,221.68l-4.273-.331.098-1.26,4.002.311c1.309.102,2.076-.08,2.17-1.292.073-.94-.332-1.501-.602-1.763l-5.325-.413.098-1.26,6.952.539-.082,1.053-.924-.072c.468.374,1.004,1.121.906,2.364-.09,1.164-.707,2.304-3.02,2.124Z"/><path d="M385.501,211.848l.037-1.808-4.828-.101-.039,1.807-1.07-.022.06-2.862,1.583.033c-.697-.303-1.723-.996-1.691-2.468.011-.543.165-1.036.248-1.21l1.296.026c-.101.206-.222.668-.232,1.18-.026,1.215.584,1.899,1.104,2.278l3.598.076.062-3.022,1.072.022-.128,6.093-1.071-.022Z"/><path d="M383.195,202.095c-2.895.103-3.714-1.79-3.77-3.357-.047-1.343.438-3.01,2.513-3.211l.045,1.264c-1.163.169-1.489.901-1.455,1.876.05,1.424.862,2.195,2.621,2.134,1.774-.063,2.515-.89,2.464-2.312-.034-.976-.411-1.683-1.583-1.77l-.045-1.264c2.067.056,2.687,1.73,2.733,3.025.058,1.647-.661,3.515-3.523,3.615Z"/><path d="M382.759,192.051c-2.771.258-3.812-1.429-3.961-3.038-.146-1.561.528-3.472,3.316-3.73l.255-.023.513,5.512c1.507-.204,2.269-.998,2.134-2.448-.103-1.099-.647-1.787-1.539-1.865l-.118-1.274c1.875.115,2.571,1.737,2.695,3.076.172,1.848-.682,3.55-3.295,3.792ZM381.534,186.638c-1.243.276-1.823,1.134-1.716,2.28.105,1.147.833,1.883,2.106,1.926l-.391-4.206Z"/><path d="M361.888,136.421l-.473-1.05,11.932-5.38.475,1.05-11.934,5.38Z"/><path d="M333.775,91.218l-1.805-1.926c-2.023-2.159-1.205-4.023.674-5.784,1.938-1.816,3.918-2.511,5.91-.387l1.805,1.927-6.584,6.17ZM338.623,84.856l-.897-.957c-1.51-1.611-3.042-.416-4.093.569-1.062.995-2.343,2.437-.833,4.048l.897.957,4.926-4.617Z"/><path d="M331.261,80.559c-1.919,2.018-3.812,1.431-4.984.316-1.137-1.081-1.885-2.964.045-4.994l.177-.186,4.013,3.817c1.002-1.146,1.053-2.245-.002-3.249-.801-.761-1.664-.921-2.387-.394l-.928-.883c1.488-1.146,3.08-.382,4.055.545,1.346,1.279,1.822,3.124.012,5.026ZM326.776,77.286c-.755,1.026-.628,2.054.207,2.848.835.795,1.867.871,2.854.064l-3.062-2.912Z"/><path d="M321.914,76.594l-1.049-.89,1.263-3.816.778-2.256-2.076,1.114-3.604,1.875-1-.848,6.805-3.378,1.1.932-2.217,7.267Z"/><path d="M310.003,71.037l-1.289-.974.973-1.29,1.291.974-.975,1.29ZM317.388,65.162l-2.019-1.523-2.913,3.856,2.019,1.524-.646.855-3.027-2.286,3.559-4.712-1.84-1.389.646-.856,4.866,3.675-.646.855Z"/><path d="M308.121,61.314c-1.609,2.408-3.625,1.966-4.928,1.094-1.118-.747-2.186-2.115-1.137-3.917l1.052.703c-.543,1.043-.14,1.735.672,2.278,1.185.792,2.285.585,3.264-.879.987-1.478.749-2.561-.435-3.353-.812-.542-1.606-.65-2.362.25l-1.052-.703c1.254-1.645,2.977-1.168,4.055-.447,1.369.917,2.464,2.592.871,4.974Z"/><path d="M299.746,55.806c-1.412,2.399-3.391,2.258-4.783,1.438-1.352-.796-2.508-2.46-1.088-4.874l.131-.221,4.771,2.809c.717-1.343.518-2.426-.737-3.164-.952-.561-1.83-.52-2.415.157l-1.104-.648c1.191-1.454,2.915-1.071,4.074-.39,1.6.942,2.481,2.631,1.15,4.894ZM294.634,53.634c-.503,1.171-.146,2.143.848,2.727.992.584,2.016.425,2.795-.584l-3.643-2.143Z"/><path d="M242.392,40.217l-1.129-.229,2.609-12.832,1.129.23-2.609,12.831Z"/><path d="M188.775,30.736l.74,5.792-1.316.169-.741-5.792c-.203-1.587-.769-2.096-2.021-1.936-1.254.16-1.673.795-1.47,2.382l.74,5.792-1.316.169-.74-5.793c-.297-2.316.559-3.442,2.638-3.708s3.19.608,3.487,2.925Z"/><path d="M179.287,35.891l-1.039.193-.17-.913c-.239.55-.822,1.261-2.05,1.489-1.148.214-2.409-.089-2.835-2.37l-.785-4.216,1.244-.231.734,3.948c.24,1.29.614,1.986,1.811,1.764.928-.173,1.365-.71,1.548-1.037l-.979-5.255,1.243-.231,1.277,6.859Z"/><path d="M169.302,34.3c.697,2.812-.986,4.003-2.509,4.38-1.306.323-3.036.191-3.659-1.798l1.227-.304c.404,1.104,1.188,1.272,2.137,1.037,1.382-.342,1.971-1.295,1.547-3.004-.427-1.725-1.388-2.277-2.771-1.936-.947.234-1.562.75-1.405,1.914l-1.227.304c-.373-2.034,1.14-2.985,2.398-3.297,1.6-.396,3.574-.077,4.262,2.703Z"/><path d="M159.586,36.784c.842,2.721-.659,4.04-2.188,4.513-1.529.474-3.452.214-4.28-2.462-.847-2.736.671-4.061,2.185-4.528,1.544-.478,3.461-.184,4.284,2.478ZM154.316,38.43c.521,1.683,1.485,2.255,2.801,1.849,1.314-.407,1.787-1.425,1.267-3.106-.516-1.667-1.485-2.255-2.8-1.848-1.314.406-1.783,1.439-1.268,3.105Z"/><path d="M150.718,43.317l-.989.37-.325-.869c-.141.582-.593,1.383-1.762,1.819-1.094.409-2.387.329-3.199-1.844l-1.501-4.016,1.185-.442,1.404,3.761c.46,1.229.947,1.85,2.086,1.424.885-.331,1.223-.935,1.346-1.289l-1.869-5.004,1.184-.442,2.441,6.532Z"/><path d="M142.352,46.519l-1.259.555-2.879-2.803-1.688-1.686.094,2.354.112,4.059-1.2.529-.062-7.594,1.316-.581,5.565,5.167Z"/><path d="M131.5,47.585c1.269,2.477.09,4.069-1.349,4.806-1.396.715-3.419.8-4.695-1.691l-.116-.229,4.926-2.523c-.75-1.323-1.77-1.735-3.065-1.071-.982.503-1.419,1.266-1.159,2.121l-1.14.584c-.59-1.783.657-3.032,1.853-3.646,1.652-.846,3.549-.686,4.746,1.649ZM126.929,50.734c.719,1.052,1.73,1.271,2.755.745,1.024-.524,1.438-1.473,1.004-2.671l-3.759,1.926Z"/><path d="M123.898,55.546l-.91.534-.471-.8c-.037.598-.345,1.465-1.421,2.097-1.007.592-2.295.736-3.47-1.265l-2.172-3.696,1.09-.641,2.033,3.463c.665,1.131,1.253,1.657,2.301,1.042.814-.479,1.043-1.132,1.104-1.502l-2.706-4.606,1.089-.641,3.533,6.015Z"/><path d="M111.988,57.972l1.705,2.555,1.902-1.27.596.892-1.903,1.27,1.794,2.688-1.051.702-1.795-2.688-2.847,1.9-.595-.892,2.848-1.9-1.68-2.515c-.789-1.185-1.336-1.455-2.347-.78-.585.391-.972.821-1.241,1.194l-.596-.892c.125-.218.568-.764,1.379-1.305,1.397-.933,2.516-.929,3.83,1.04Z"/><path d="M103.943,61.363l-2.021,1.521,2.907,3.861,2.021-1.521.645.856-3.031,2.282-3.553-4.719-1.841,1.387-.646-.856,4.872-3.668.646.856ZM107.56,70.08l-1.291.972-.973-1.291,1.292-.973.972,1.292Z"/><path d="M97.691,69.186c1.84,2.173.975,3.974-.246,5.007-1.221,1.032-3.09,1.547-4.898-.59-1.85-2.186-.973-3.995.236-5.019,1.232-1.043,3.111-1.522,4.908.602ZM93.49,72.762c1.137,1.343,2.248,1.492,3.297.604,1.051-.888,1.087-2.008-.049-3.351-1.127-1.331-2.248-1.492-3.297-.604-1.051.889-1.076,2.021.049,3.352Z"/><path d="M92.106,78.661l-.766.727-.639-.672c.098.591-.005,1.504-.909,2.363-.847.805-2.068,1.237-3.666-.444l-2.953-3.108.917-.87,2.765,2.911c.904.951,1.596,1.331,2.477.493.685-.649.759-1.338.734-1.712l-3.68-3.873.916-.871,4.804,5.057Z"/><path d="M81.656,81.589c1.178,1.106.494,2.418-.426,3.397-.461.489-1.111,1.02-1.568,1.271l.443.417c.781.733,1.498,1.21,2.527.113.789-.839.832-1.61.133-2.268l.833-.886c1.457,1.369.702,2.921-.263,3.947-1.26,1.34-2.58,1.438-3.91.188l-2.308-2.169c-.198-.187-.334-.182-.531.027-.153.164-.327.418-.455.648l-.653-.613c.094-.264.307-.7.646-1.062.57-.606,1.062-.429,1.4-.111l.093.088c-.098-.597.008-1.573.961-2.588.921-.979,2.075-1.344,3.077-.401ZM78.216,84.899l.793.745c.332-.214.852-.648,1.333-1.162.745-.792,1.031-1.424.472-1.949-.455-.428-.973-.321-1.597.344-.636.676-.919,1.397-1.001,2.022Z"/><path d="M73.994,88.84l-1.551,1.853,6.195,5.187,1.551-1.853.81.678-2.362,2.821-7.004-5.863-1.551,1.853-.822-.688,3.912-4.674.822.688Z"/><path d="M49.072,143.164l1.094-2.839,1.061.409-2.676,6.946-1.061-.409,1.105-2.868-7.365-2.836.478-1.239,7.364,2.836Z"/><path d="M42.406,148.448c2.714.866,2.937,2.853,2.449,4.377-.486,1.524-1.799,2.953-4.467,2.102-2.729-.872-2.946-2.873-2.465-4.382.492-1.54,1.83-2.943,4.482-2.097ZM40.742,153.711c1.678.536,2.699.072,3.117-1.238.419-1.312-.145-2.28-1.822-2.816-1.661-.53-2.697-.071-3.116,1.239s.16,2.285,1.821,2.815Z"/><path d="M39.441,158.034c2.76.709,3.096,2.68,2.697,4.229-.397,1.551-1.627,3.053-4.34,2.355-2.774-.713-3.107-2.698-2.713-4.233.402-1.565,1.658-3.045,4.355-2.352ZM38.083,163.386c1.705.438,2.698-.084,3.041-1.417s-.276-2.269-1.981-2.707c-1.689-.434-2.699.084-3.041,1.417-.343,1.333.291,2.272,1.981,2.707Z"/><path d="M34.607,167.664l-.466,2.371,7.929,1.557.466-2.371,1.036.203-.709,3.611-8.965-1.76-.466,2.371-1.052-.207,1.174-5.981,1.053.206Z"/><path d="M41.246,227.08l.152,1.142-12.969,1.735-.152-1.142,12.969-1.735Z"/><path d="M56.216,280.315l.646,1.287-6.637,6.89-.646-1.286,1.594-1.604-1.578-3.146-2.238.317-.631-1.258,9.49-1.2ZM50.71,282.253l1.277,2.545,1.008-1.023,2.3-2.228-3.161.512-1.424.194Z"/><path d="M57.963,288.089l.526.915-.776.447c.6.079,1.466.431,2.049,1.442.742,1.29.579,3.027-1.71,4.345-2.205,1.269-3.85.626-4.615-.705-.526-.916-.428-1.803-.28-2.221l-3.106,1.788-.631-1.096,8.544-4.916ZM57.414,294.128c1.332-.766,1.951-1.806,1.266-2.999-.383-.665-.947-1.005-1.473-1.146l-3.273,1.884c-.141.524-.131,1.183.252,1.849.687,1.193,1.896,1.18,3.229.413Z"/><path d="M62.968,296.54l.58.883-.75.491c.604.045,1.488.345,2.129,1.321.816,1.244.754,2.988-1.453,4.436-2.129,1.396-3.807.85-4.648-.435-.579-.884-.533-1.775-.409-2.2l-2.997,1.966-.693-1.058,8.242-5.404ZM62.771,302.6c1.285-.842,1.844-1.916,1.09-3.067-.422-.643-1.006-.948-1.537-1.059l-3.158,2.07c-.11.531-.062,1.188.359,1.831.754,1.151,1.962,1.067,3.246.225Z"/><path d="M63.599,308.064l1.438,1.942,6.496-4.809-1.438-1.942.848-.629,2.19,2.959-7.345,5.437,1.438,1.942-.861.638-3.628-4.9.862-.638Z"/><path d="M69.755,316.186l1.617,1.943,3.715-3.093-1.618-1.942.823-.687,2.428,2.915-4.539,3.778,1.475,1.771-.824.687-3.9-4.687.824-.686ZM78.283,312.148l1.033,1.242-1.242,1.033-1.033-1.242,1.242-1.033Z"/><path d="M77.882,322.027c2.116-1.978,3.977-1.088,5.047.058.918.981,1.646,2.557.214,4.07l-.862-.923c.766-.891.531-1.657-.136-2.37-.972-1.041-2.091-1.09-3.377.112-1.298,1.213-1.312,2.321-.34,3.361.667.713,1.415.999,2.356.295l.862.923c-1.595,1.316-3.162.46-4.048-.487-1.125-1.203-1.809-3.083.283-5.039Z"/><path d="M83.644,330.517c1.115-1.168,2.421-.474,3.393.454.486.464,1.01,1.119,1.258,1.577l.42-.439c.74-.774,1.222-1.487.135-2.525-.833-.796-1.604-.846-2.267-.151l-.879-.84c1.381-1.446,2.926-.679,3.943.294,1.331,1.271,1.417,2.592.157,3.91l-2.188,2.291c-.188.196-.184.332.024.53.161.155.415.33.644.461l-.618.647c-.263-.096-.697-.312-1.056-.654-.602-.574-.421-1.065-.1-1.4l.088-.093c-.598.093-1.573-.021-2.58-.981-.971-.928-1.326-2.085-.375-3.08ZM86.925,333.983l.75-.786c-.211-.335-.641-.856-1.15-1.343-.786-.751-1.415-1.042-1.945-.487-.432.451-.328.97.33,1.599.672.641,1.391.93,2.016,1.018Z"/><path d="M93.191,337.938l1.992-2.338-1.74-1.483.695-.816,1.74,1.484,2.096-2.46.963.82-2.096,2.459,2.605,2.221-.695.815-2.605-2.22-1.961,2.301c-.924,1.084-1.035,1.683-.109,2.472.535.456,1.055.71,1.488.868l-.695.816c-.244-.061-.891-.338-1.633-.971-1.278-1.09-1.58-2.166-.045-3.969Z"/><path d="M98.666,344.755l2.016,1.525,2.917-3.852-2.016-1.526.647-.854,3.023,2.289-3.564,4.707,1.837,1.391-.647.854-4.859-3.68.646-.854ZM106.056,338.891l1.288.976-.976,1.288-1.288-.976.976-1.288Z"/><path d="M107.888,348.613c1.586-2.366,3.555-2.028,4.885-1.137,1.328.891,2.336,2.549.776,4.875-1.595,2.379-3.578,2.032-4.894,1.149-1.342-.899-2.318-2.575-.768-4.888ZM112.482,351.673c.98-1.462.818-2.571-.324-3.338s-2.23-.494-3.211.968c-.972,1.448-.819,2.572.324,3.338,1.143.767,2.239.481,3.211-.968Z"/><path d="M118.539,351.399l.91.537-.473.799c.542-.256,1.449-.408,2.523.227,1.006.594,1.758,1.65.578,3.648l-2.18,3.692-1.088-.643,2.041-3.459c.667-1.129.842-1.899-.205-2.518-.812-.479-1.495-.362-1.848-.236l-2.717,4.603-1.088-.643,3.545-6.008Z"/><path d="M173.591,369.828l1.127.232-2.633,12.818-1.129-.231,2.635-12.819Z"/></svg>