<?xml version="1.0" encoding="UTF-8"?><svg id="Layer_1" xmlns="http://www.w3.org/2000/svg" width="11.503in" height="11.503in" viewBox="0 0 828.25 828.25"><defs><style>.cls-1{fill:#40e0d0;opacity:.5;stroke:#231f20;stroke-miterlimit:10;stroke-width:.25px;}</style></defs><path class="cls-1" d="M414.125.125C185.479.125.125,185.479.125,414.125s185.354,414,414,414,414-185.354,414-414S642.771.125,414.125.125ZM414.125,759.125c-190.538,0-345-154.462-345-345S223.587,69.125,414.125,69.125s345,154.462,345,345-154.462,345-345,345Z"/><path d="M456.493,783.112l2.24-.271,3.465,7.059-.553-2.834-.545-4.512,1.557-.188,1.1,9.085-2.24.271-3.465-7.059.553,2.834.545,4.511-1.557.188-1.1-9.086Z"/><path d="M466.824,789.17c-.239-1.613,1.137-2.255,2.577-2.469.728-.107,1.521-.097,1.951-.031l-.084-.569c-.134-.902-.398-1.591-1.695-1.397-.981.146-1.492.626-1.37,1.448l-1.599.237c-.283-1.914,1.187-2.796,2.879-3.047,1.82-.271,3.154.324,3.445,2.286l.43,2.896c.04.269.149.35.434.308.19-.028.469-.118.65-.193l.168,1.123c-.267.169-.781.407-1.303.484-.887.132-1.208-.29-1.285-.812l-.02-.127c-.295.513-.975,1.277-2.414,1.491-1.361.202-2.559-.235-2.765-1.628ZM471.64,788.601l-.131-.886c-.312-.035-.971-.002-1.572.088-.934.139-1.525.404-1.426,1.068.079.538.51.717,1.285.602.887-.132,1.538-.535,1.844-.872Z"/><path d="M477.246,788.094l1.718-.301-.754-4.303-1.718.301-.235-1.34,3.185-.558.276,1.576c.164-.825.689-1.908,2.061-2.148.52-.091,1.015-.048,1.36.07l.298,1.702c-.383-.145-.94-.177-1.397-.096-1.103.192-1.669.86-1.935,1.378l.546,3.121,2.933-.514.231,1.324-6.337,1.11-.231-1.324Z"/><path d="M487.148,786.311l1.71-.346-.866-4.282-1.71.346-.271-1.333,3.17-.642.316,1.568c.143-.828.639-1.925,2.004-2.201.518-.104,1.014-.074,1.362.034l.343,1.694c-.387-.134-.945-.151-1.4-.06-1.098.223-1.645.904-1.898,1.43l.629,3.105,2.918-.591.266,1.318-6.306,1.275-.267-1.317Z"/><path d="M496.508,783.85c-.367-1.591.954-2.34,2.374-2.667.717-.166,1.51-.218,1.944-.187l-.13-.562c-.205-.889-.523-1.555-1.802-1.259-.968.223-1.438.742-1.251,1.554l-1.575.363c-.437-1.887.96-2.883,2.629-3.269,1.794-.414,3.171.073,3.617,2.007l.659,2.854c.061.266.176.337.457.272.188-.043.457-.155.633-.245l.256,1.107c-.252.189-.746.468-1.26.587-.874.202-1.229-.193-1.347-.708l-.028-.124c-.255.535-.871,1.351-2.291,1.679-1.34.31-2.568-.031-2.886-1.403ZM501.265,782.899l-.201-.873c-.314-.01-.968.075-1.561.213-.92.212-1.488.524-1.338,1.179.123.53.566.675,1.331.498.873-.202,1.491-.656,1.769-1.017Z"/><path d="M507.89,779.953l-.679-2.617-2.184.565-.341-1.316,2.184-.565-.822-3.175,1.656-.43.822,3.175,3.361-.871.342,1.316-3.361.871.662,2.556c.333,1.285.697,1.67,1.844,1.373.635-.164,1.188-.456,1.615-.782l.345,1.332c-.439.346-1.042.7-1.956.937-1.766.458-2.871.017-3.488-2.368Z"/><path d="M516.565,779.374l2.368-.681-1.207-4.199-2.369.682-.376-1.308,4.015-1.155,1.584,5.507,2.168-.624.373,1.292-6.184,1.778-.372-1.292ZM516.273,770.082l2.016-.579.535,1.86-2.016.58-.535-1.861Z"/><path d="M523.702,771.337l1.832-.579,2.289,2.784,1.419,1.834.112-2.301.299-3.619,1.74-.55-.845,7.685-1.739.55-5.107-5.804Z"/><path d="M534.71,771.558c-.926-2.677.564-4.142,2.213-4.712,1.709-.591,3.727-.341,4.643,2.306l.125.362-5.232,1.812c.449,1.148,1.27,1.66,2.57,1.21.892-.309,1.387-.887,1.281-1.578l1.664-.576c.279,1.834-1.09,2.917-2.541,3.42-1.936.67-3.854.267-4.723-2.243ZM539.634,768.956c-.491-.98-1.398-1.157-2.276-.854-.877.304-1.481,1.004-1.261,2.079l3.537-1.225Z"/><path d="M605.306,731.498l1.314-.793,6.844,11.359-1.314.793-6.844-11.359Z"/><path d="M665.458,688.27l1.463-1.364,4.254,2.356,2.307,1.372-1.196-2.386-2.075-4.408,1.404-1.31,3.83,8.942-1.335,1.243-8.651-4.446Z"/><path d="M674.164,678.389l1.495-1.468,1.355,1.382-1.495,1.467-1.355-1.381ZM678.837,686.416l1.758-1.725-3.057-3.116-1.758,1.725-.952-.97,2.979-2.924,4.009,4.087,1.609-1.58.94.959-4.588,4.503-.941-.959Z"/><path d="M685.14,678.942l1.168-1.208c.586.477,1.35.146,2.095-.624.679-.702,1.108-1.354.638-1.811-.506-.489-1.332.204-2.506,1.05-1.13.822-2.341,1.5-3.41.465-1.047-1.012-.451-2.527.762-3.781s2.58-2.002,3.947-.859l-1.168,1.209c-.631-.454-1.312.021-1.824.551-.679.702-.919,1.227-.574,1.561.461.444,1.131-.087,2.494-1.106,1.062-.799,2.329-1.487,3.376-.476,1.231,1.19.522,2.753-.857,4.18-1.313,1.357-2.853,2.028-4.14.851Z"/><path d="M692.038,671.044l-3.221-2.954,1.158-1.262,2.973,2.727c.849.778,1.471,1.023,2.174.257.52-.566.588-1.09.545-1.542l-3.81-3.494,1.157-1.262,5.214,4.781-1.006,1.098-.708-.649c.115.562.155,1.488-.656,2.373-.908.991-2.135,1.475-3.82-.072Z"/><path d="M699.093,664.553c-1.231-1.07-.602-2.452.354-3.551.482-.555,1.094-1.062,1.463-1.292l-.434-.378c-.688-.599-1.336-.95-2.197.039-.65.749-.727,1.445-.1,1.991l-1.061,1.22c-1.46-1.271-.916-2.896.207-4.188,1.208-1.388,2.607-1.803,4.104-.501l2.209,1.921c.205.179.342.169.53-.048.126-.146.278-.394.368-.57l.857.745c-.093.302-.329.817-.676,1.215-.588.677-1.105.565-1.504.219l-.097-.084c.108.582.089,1.604-.866,2.702-.902,1.038-2.096,1.483-3.158.56ZM702.382,660.991l-.676-.588c-.26.177-.738.63-1.137,1.089-.62.712-.896,1.298-.39,1.739.41.356.854.212,1.368-.379.588-.676.82-1.406.834-1.861Z"/><path d="M706.299,656.977l1.496-1.814-5.913-4.875-1.496,1.814-1.037-.854,2.586-3.136,6.949,5.729,1.506-1.826,1.037.854-4.091,4.963-1.037-.855Z"/><path d="M743.819,587.592l1.245-2.382c1.061-2.027,2.59-3.051,4.475-2.064,1.163.608,1.592,1.825,1.413,2.96l4.335-.693-1.009,1.928-3.851.459-.512.978,2.835,1.483-.823,1.573-8.108-4.241ZM748.64,588.11l.422-.808c.66-1.262.496-2.088-.368-2.54-.864-.453-1.637-.116-2.297,1.146l-.423.808,2.666,1.395Z"/><path d="M747.262,578.304l.753-1.538,3.65,1.787c-.182-.356-.453-1.22.031-2.212.592-1.207,1.615-1.989,3.67-.983l3.925,1.921-.753,1.538-3.622-1.772c-1.035-.507-1.701-.565-2.158.369-.338.689-.255,1.211-.087,1.632l4.644,2.272-.753,1.538-9.3-4.552Z"/><path d="M757.544,572.798c-2.576-1.178-2.607-3.268-1.882-4.854.752-1.646,2.325-2.932,4.873-1.768l.349.159-2.301,5.037c1.141.469,2.077.229,2.649-1.023.393-.859.315-1.616-.257-2.019l.732-1.601c1.52,1.063,1.357,2.803.719,4.2-.852,1.863-2.467,2.973-4.883,1.868ZM759.062,567.438c-1.051-.321-1.805.214-2.191,1.058-.386.845-.296,1.766.634,2.349l1.558-3.406Z"/><path d="M762.898,562.071l-2.488-1.06-.885,2.076-1.252-.533.885-2.076-3.02-1.285.672-1.576,3.019,1.286,1.36-3.195,1.252.533-1.361,3.195,2.43,1.034c1.223.521,1.75.467,2.214-.622.257-.604.362-1.22.366-1.758l1.266.539c.006.559-.08,1.253-.451,2.121-.715,1.679-1.738,2.286-4.006,1.32Z"/><path d="M765.531,554.446c-2.648-1.046-2.715-3.188-2.098-4.749.658-1.667,2.099-3.093,4.776-2.035,2.634,1.04,2.714,3.187,2.097,4.749-.657,1.666-2.112,3.086-4.775,2.035ZM767.57,549.283c-1.474-.581-2.381-.2-2.827.931s-.044,2.029,1.429,2.61c1.457.576,2.379.2,2.826-.931.446-1.13.029-2.034-1.428-2.61Z"/><path d="M771.374,545.468l.597-1.638-4.103-1.496-.598,1.639-1.277-.466,1.106-3.036,1.503.548c-.633-.554-1.309-1.55-.832-2.857.182-.496.466-.902.74-1.143l1.623.591c-.315.26-.622.727-.781,1.163-.383,1.052-.087,1.875.229,2.364l2.976,1.085,1.019-2.796,1.264.46-2.203,6.042-1.262-.46Z"/><path d="M766.948,530.964l.663-1.988,1.837.612-.664,1.989-1.836-.613ZM774.771,535.988l.781-2.338-4.146-1.383-.78,2.338-1.29-.431,1.322-3.963,5.435,1.813.715-2.141,1.275.426-2.037,6.104-1.275-.426Z"/><path d="M775.694,526.201c-2.786-.85-2.966-2.945-2.452-4.629.462-1.516,1.583-2.997,3.764-2.466l-.505,1.653c-1.069-.226-1.602.314-1.877,1.217-.364,1.194.068,2.079,1.583,2.541,1.531.467,2.369-.03,2.738-1.239.27-.888.145-1.629-.867-2.038l.504-1.652c2.074.767,2.179,2.672,1.727,4.156-.52,1.699-1.859,3.298-4.614,2.457Z"/><path d="M784.863,445.515l.134-1.53,13.219,1.151-.134,1.53-13.219-1.151Z"/><path d="M791.674,370.076l-.204-1.715c.943-.193,1.355-.79,1.208-2.029-.134-1.128-.612-1.764-1.344-1.677-.604.072-.818.565-.974,1.292l-.425,2.113c-.233,1.155-.878,2.102-2.18,2.257-1.7.203-2.794-1.133-3.024-3.071-.215-1.811.419-3.384,2.448-3.658l.206,1.731c-.993.183-1.312.752-1.191,1.769.135,1.128.656,1.582,1.242,1.496.506-.077.795-.353.945-1.128l.437-2.146c.237-1.123.72-2.212,2.181-2.386,1.843-.22,2.905,1.265,3.145,3.266.243,2.05-.484,3.65-2.47,3.887Z"/><path d="M789.703,360.253c-2.804.411-3.964-1.328-4.217-3.055-.263-1.79.36-3.726,3.132-4.131l.381-.056.803,5.479c1.213-.226,1.869-.937,1.669-2.299-.137-.935-.612-1.528-1.312-1.555l-.256-1.743c1.855.068,2.664,1.616,2.887,3.137.297,2.027-.457,3.837-3.087,4.222ZM788.066,354.928c-1.056.3-1.398,1.159-1.264,2.078.134.918.709,1.644,1.807,1.628l-.543-3.706Z"/><path d="M790.087,344.915c.363.229,1.051.824,1.242,1.928.268,1.545-.566,3.102-3.135,3.547-2.57.445-3.885-.771-4.146-2.285-.205-1.182.246-2.04.672-2.487l-.914.159-.254-1.466,9.836-1.705.293,1.687-3.594.623ZM788.968,345.109l-3.264.565c-.258.386-.451.954-.328,1.664.207,1.198,1.178,1.549,2.518,1.317,1.355-.235,2.15-.893,1.943-2.091-.123-.709-.497-1.18-.869-1.456Z"/><path d="M787.148,339.808l-4.281.862-.338-1.679,3.952-.796c1.13-.228,1.694-.586,1.489-1.605-.152-.753-.535-1.116-.925-1.348l-5.067,1.02-.338-1.678,6.934-1.396.294,1.459-.94.189c.521.238,1.293.751,1.529,1.928.266,1.317-.064,2.592-2.309,3.044Z"/><path d="M784.466,330.702c-2.761.632-4.055-1.008-4.445-2.708-.402-1.762.063-3.74,2.793-4.365l.374-.085,1.235,5.396c1.189-.322,1.787-1.082,1.48-2.423-.211-.921-.731-1.475-1.431-1.445l-.394-1.716c1.854-.079,2.783,1.398,3.125,2.896.457,1.996-.15,3.858-2.738,4.451ZM782.411,325.527c-1.029.383-1.303,1.266-1.096,2.171.207.904.838,1.58,1.931,1.478l-.835-3.648Z"/><path d="M778.605,321.317l-.371-1.442.93-.238c-.533-.21-1.332-.683-1.631-1.846-.334-1.302-.07-2.593,2.146-3.162l4.232-1.087.426,1.658-3.906,1.004c-1.116.287-1.661.675-1.402,1.683.191.744.594,1.087.994,1.298l5.008-1.286.426,1.658-6.852,1.761Z"/><path d="M779.638,311.265c-2.799.801-4.088-.861-4.572-2.553-.435-1.522-.299-3.375,1.82-4.113l.475,1.661c-1.02.392-1.174,1.134-.914,2.041.342,1.2,1.186,1.708,2.709,1.272,1.537-.439,1.971-1.312,1.623-2.527-.254-.892-.762-1.445-1.834-1.238l-.475-1.662c2.158-.482,3.28,1.06,3.707,2.552.487,1.707.23,3.776-2.539,4.567Z"/><path d="M776.881,301.627c-2.701.851-4.122-.681-4.646-2.344-.543-1.724-.237-3.732,2.434-4.574l.366-.115,1.663,5.279c1.161-.415,1.694-1.221,1.282-2.533-.284-.9-.848-1.411-1.542-1.326l-.528-1.679c1.84-.228,2.885,1.172,3.346,2.637.615,1.953.158,3.857-2.374,4.655ZM774.419,296.633c-.994.464-1.197,1.366-.918,2.252.279.885.961,1.508,2.043,1.318l-1.125-3.57Z"/><path d="M738.831,229.937l-.756-1.337,11.549-6.527.756,1.338-11.549,6.526Z"/><path d="M701.716,163.907l-1.143-1.297c.668-.694.668-1.42-.156-2.356-.751-.853-1.506-1.104-2.059-.618-.456.401-.354.93-.068,1.616l.85,1.981c.463,1.084.471,2.229-.515,3.097-1.285,1.132-2.944.652-4.233-.813-1.206-1.369-1.576-3.024-.061-4.402l1.152,1.309c-.715.715-.653,1.364.023,2.133.75.853,1.438.931,1.871.527.373-.351.455-.742.139-1.465l-.859-2.016c-.442-1.061-.662-2.23.442-3.203,1.393-1.227,3.11-.607,4.442.905,1.365,1.55,1.674,3.281.174,4.603Z"/><path d="M694.523,156.928c-2.077,1.926-4.018,1.15-5.203-.129-1.23-1.326-1.813-3.273.24-5.177l.281-.262,3.765,4.061c.87-.873,1.009-1.83.073-2.84-.643-.691-1.369-.912-1.961-.538l-1.197-1.291c1.566-.993,3.109-.177,4.154.95,1.393,1.502,1.795,3.419-.152,5.226ZM690.157,153.468c-.699.845-.496,1.747.135,2.428s1.516.952,2.412.317l-2.547-2.745Z"/><path d="M688.935,147.8l-1.219-1.247-3.125,3.053,1.219,1.248-.973.95-2.259-2.312,1.145-1.118c-.773.33-1.964.509-2.937-.486-.369-.378-.613-.811-.711-1.163l1.236-1.208c.097.397.385.876.71,1.208.782.801,1.653.891,2.231.817l2.266-2.214-2.08-2.129.961-.939,4.496,4.601-.961.939Z"/><path d="M673.941,145.509l-1.505-1.459,1.348-1.391,1.505,1.459-1.348,1.391ZM681.855,140.633l-1.77-1.715-3.04,3.137,1.769,1.715-.946.977-2.999-2.907,3.988-4.113-1.62-1.57.936-.966,4.618,4.479-.936.965Z"/><path d="M673.433,135.524c-1.917,2.085-3.914,1.466-5.197.285-1.332-1.224-2.068-3.119-.172-5.181l.26-.282,4.076,3.748c.799-.939.86-1.904-.152-2.836-.695-.64-1.438-.801-1.998-.381l-1.297-1.192c1.482-1.115,3.086-.423,4.217.617,1.508,1.387,2.062,3.266.264,5.222ZM668.807,132.421c-.631.898-.356,1.781.327,2.41.684.628,1.586.828,2.43.125l-2.757-2.535Z"/><path d="M666.831,127.758l-1.266-1.105c.446-.608.078-1.355-.729-2.061-.735-.643-1.409-1.039-1.841-.545-.463.53.271,1.32,1.176,2.45.879,1.086,1.615,2.262.637,3.383-.958,1.097-2.502.577-3.816-.57-1.313-1.147-2.129-2.477-1.057-3.898l1.266,1.105c-.421.652.088,1.31.643,1.794.736.642,1.271.855,1.588.494.421-.482-.145-1.125-1.23-2.436-.852-1.02-1.604-2.251-.646-3.348,1.127-1.29,2.723-.66,4.218.646,1.423,1.242,2.171,2.745,1.06,4.091Z"/><path d="M596.247,87.346l-1.34-.75,6.477-11.574,1.34.75-6.477,11.574Z"/><path d="M530.196,50.273l-1.651-.512c.209-.941-.169-1.562-1.361-1.932-1.086-.337-1.861-.159-2.08.545-.181.581.182.979.783,1.416l1.758,1.25c.961.684,1.564,1.658,1.175,2.912-.507,1.636-2.175,2.091-4.04,1.512-1.742-.541-2.922-1.762-2.346-3.729l1.667.518c-.237.982.153,1.506,1.132,1.81,1.085.337,1.712.045,1.872-.525.137-.494.002-.871-.646-1.323l-1.783-1.274c-.931-.674-1.729-1.559-1.292-2.966.55-1.773,2.341-2.14,4.267-1.542,1.973.612,3.139,1.93,2.546,3.841Z"/><path d="M521.851,43.184c-1.478-.416-2.331-.158-3.136.812l1.115,7.607-1.848-.52-.403-3.586-.164-2.307-1.355,1.862-2.234,2.86-1.755-.494,4.669-5.665c1.709-2.061,2.953-2.642,5.493-1.926l-.382,1.354Z"/><path d="M511.003,44.132l-1.629-.412c.121-.745-.545-1.244-1.584-1.507-.947-.239-1.727-.287-1.889.349-.172.683.84,1.055,2.158,1.651,1.276.57,2.467,1.284,2.102,2.727-.357,1.412-1.969,1.649-3.66,1.222s-3.021-1.242-2.709-2.996l1.629.412c-.08.772.672,1.127,1.387,1.308.946.239,1.521.187,1.639-.279.156-.621-.639-.938-2.201-1.612-1.221-.523-2.45-1.28-2.094-2.692.42-1.66,2.129-1.822,4.053-1.337,1.831.463,3.18,1.464,2.799,3.168Z"/><path d="M499.257,42.063l-.594,2.639,2.201.494-.299,1.327-2.201-.495-.719,3.2-1.67-.375.719-3.2-3.387-.762.298-1.327,3.388.762.578-2.575c.292-1.296.145-1.805-1.012-2.064-.639-.144-1.264-.137-1.793-.043l.301-1.342c.549-.106,1.246-.146,2.168.061,1.779.4,2.562,1.298,2.021,3.701Z"/><path d="M491.28,40.82c-.546,2.779-2.571,3.294-4.282,2.958-1.774-.348-3.392-1.578-2.852-4.326l.073-.377,5.433,1.066c.19-1.218-.262-2.073-1.611-2.338-.927-.183-1.645.068-1.902.719l-1.728-.339c.681-1.726,2.409-1.974,3.917-1.678,2.01.395,3.464,1.708,2.952,4.314ZM485.715,40.591c-.068,1.096.628,1.705,1.538,1.884s1.785-.122,2.136-1.162l-3.674-.722Z"/><path d="M481.089,42.481l-1.279-.216.169-.994c-.312.402-.921,1.029-1.915.861-.82-.14-1.188-.753-1.238-1.313-.245.299-.892.952-1.869.787-1.09-.185-1.373-1.19-1.139-2.578l.814-4.812,1.499.254-.769,4.544c-.145.852-.045,1.226.396,1.301.426.071.795-.19,1.061-.421l.873-5.16,1.5.254-.77,4.544c-.145.853-.045,1.226.396,1.301.426.072.811-.188,1.077-.418l.873-5.159,1.499.253-1.18,6.974Z"/><path d="M400.271,40.08l-1.535.059-.506-13.257,1.535-.059.506,13.257Z"/><path d="M323.792,41.738l-2.158.543,1.5,5.959,2.158-.543.367,1.458-6.053,1.523-.367-1.458,2.157-.543-1.5-5.959-2.157.543-.367-1.459,6.053-1.523.367,1.459Z"/><path d="M315.532,49.612l-1.434.401-.26-.925c-.197.538-.652,1.347-1.809,1.671-1.295.362-2.59.127-3.208-2.076l-1.179-4.208,1.648-.462,1.089,3.884c.312,1.109.71,1.646,1.712,1.365.74-.207,1.074-.616,1.276-1.022l-1.396-4.978,1.649-.462,1.909,6.812Z"/><path d="M304.975,47.577l-1.605.496c-.284-.699-1.112-.778-2.136-.461-.934.288-1.625.653-1.431,1.28.208.673,1.266.463,2.702.286,1.386-.178,2.773-.188,3.213,1.234.431,1.391-.822,2.432-2.488,2.947-1.667.516-3.227.513-3.873-1.146l1.605-.497c.334.701,1.16.612,1.863.395.934-.288,1.396-.633,1.254-1.091-.188-.612-1.032-.468-2.718-.231-1.315.189-2.758.183-3.188-1.208-.506-1.636.868-2.664,2.764-3.251,1.805-.559,3.477-.405,4.038,1.247Z"/><path d="M293.874,51.921l.866,2.561,2.137-.723.436,1.287-2.136.724,1.051,3.105-1.621.549-1.051-3.106-3.289,1.113-.436-1.288,3.288-1.112-.846-2.5c-.426-1.258-.817-1.615-1.938-1.236-.621.211-1.15.542-1.554.897l-.44-1.303c.412-.376.988-.773,1.881-1.076,1.729-.584,2.863-.226,3.652,2.108Z"/><path d="M285.277,53.129l-1.637.604,1.512,4.1,1.637-.604.471,1.276-3.033,1.119-.554-1.502c-.015.842-.337,2.001-1.644,2.483-.495.183-.99.229-1.352.174l-.598-1.621c.402.073.957.005,1.393-.156,1.051-.388,1.488-1.146,1.658-1.703l-1.098-2.973-2.793,1.03-.465-1.261,6.036-2.227.466,1.261Z"/><path d="M276.238,57.966l1.621,4.058-1.591.635-1.495-3.745c-.428-1.07-.883-1.561-1.849-1.175-.714.285-1.002.728-1.159,1.152l1.917,4.801-1.591.635-2.623-6.568,1.383-.553.355.892c.141-.556.506-1.408,1.621-1.854,1.248-.498,2.562-.402,3.41,1.723Z"/><path d="M267.779,62.275c1.15,2.675-.332,4.165-1.949,4.86-1.455.625-3.309.726-4.311-1.28l1.586-.683c.519.961,1.274,1.02,2.142.646,1.146-.493,1.542-1.395.917-2.849-.633-1.47-1.553-1.788-2.713-1.289-.853.366-1.337.94-.996,1.978l-1.586.683c-.755-2.079.632-3.389,2.057-4.001,1.632-.701,3.717-.71,4.854,1.935Z"/><path d="M256.593,66.614l1.135,2.455,2.047-.946.571,1.234-2.048.946,1.376,2.979-1.554.718-1.377-2.978-3.152,1.457-.57-1.235,3.152-1.456-1.107-2.397c-.559-1.205-.984-1.52-2.061-1.022-.596.275-1.086.661-1.449,1.058l-.578-1.249c.371-.418.9-.874,1.758-1.271,1.656-.766,2.822-.529,3.857,1.708Z"/><path d="M248.156,68.732l-2.209,1.093,1.938,3.916,2.209-1.093.604,1.219-3.744,1.852-2.54-5.135-2.022,1.001-.596-1.205,5.766-2.853.596,1.205ZM250.099,77.822l-1.879.93-.857-1.735,1.879-.93.857,1.735Z"/><path d="M240.562,74.975c1.332,2.519-.012,4.188-1.497,4.973-1.585.837-3.606.983-4.952-1.562-1.324-2.504.013-4.188,1.498-4.973,1.584-.837,3.613-.969,4.951,1.562ZM235.654,77.57c.74,1.4,1.678,1.701,2.753,1.133s1.354-1.512.614-2.912c-.732-1.387-1.678-1.701-2.752-1.133-1.076.568-1.348,1.526-.615,2.912Z"/><path d="M233.002,83.023l-1.297.729-.471-.837c-.065.568-.315,1.462-1.362,2.051-1.171.658-2.485.736-3.607-1.258l-2.141-3.808,1.492-.839,1.977,3.515c.564,1.004,1.08,1.431,1.986.921.67-.377.896-.854.997-1.295l-2.533-4.505,1.492-.84,3.467,6.165Z"/><path d="M169.345,131.619l-1.154,1.012-8.741-9.968,1.154-1.012,8.741,9.968Z"/><path d="M117.087,185.694l-1.805,2.407c-1.324,1.767-3.072,2.576-4.762,1.31-1.703-1.276-1.412-3.158-.078-4.938l.739-.986-2.483-1.861,1.064-1.421,7.324,5.489ZM112.372,184.379l-.748.999c-.854,1.14-.781,1.975,0,2.56.781.586,1.591.413,2.445-.727l.748-.998-2.445-1.834Z"/><path d="M104.905,188.999l-1.009,1.422,3.561,2.529,1.01-1.422,1.109.787-1.871,2.635-1.305-.926c.463.701.852,1.841.046,2.976-.306.431-.688.748-1.017.907l-1.409-1.001c.374-.166.793-.536,1.062-.914.648-.913.58-1.785.406-2.341l-2.584-1.834-1.723,2.427-1.096-.778,3.724-5.244,1.096.777Z"/><path d="M101.177,198.101c2.365,1.587,1.974,3.693,1.038,5.089-.998,1.489-2.71,2.576-5.103.972-2.352-1.577-1.973-3.692-1.037-5.088.998-1.489,2.723-2.567,5.102-.973ZM98.085,202.713c1.314.882,2.283.703,2.961-.308.677-1.01.475-1.974-.841-2.855-1.302-.873-2.284-.703-2.961.308-.677,1.01-.462,1.982.841,2.855Z"/><path d="M92.232,204.411l-.882,1.393c-.729-.405-1.38-.363-2.03.664-.788,1.244-.22,1.812.578,2.317l.852.539c-.117-.472-.194-1.278.388-2.197.882-1.393,2.542-1.951,4.597-.65,2.068,1.311,2.275,3.107,1.42,4.46-.617.973-1.531,1.341-2.131,1.359l.771.488-.797,1.257-6.137-3.887c-1.609-1.019-1.852-2.46-.602-4.434.838-1.325,2.068-2.459,3.973-1.31ZM91.736,209.949l2.596,1.644c.495-.122.998-.409,1.358-.978.659-1.041.198-1.958-.884-2.643s-2.094-.701-2.753.34c-.36.568-.417,1.138-.317,1.637Z"/><path d="M88.198,214.159l-.894,1.497,3.75,2.236.893-1.496,1.168.696-1.656,2.773-1.373-.819c.518.663.994,1.767.281,2.962-.27.453-.625.8-.94.984l-1.483-.886c.359-.195.748-.597.984-.995.574-.961.438-1.824.22-2.364l-2.72-1.623-1.523,2.555-1.153-.688,3.294-5.521,1.153.688Z"/><path d="M83.72,222.732c1.422.798,1.086,2.278.374,3.548-.36.642-.855,1.262-1.171,1.562l.502.281c.795.446,1.502.659,2.144-.484.485-.865.419-1.562-.308-1.97l.791-1.408c1.688.947,1.484,2.648.646,4.141-.899,1.604-2.186,2.294-3.915,1.323l-2.552-1.432c-.238-.134-.368-.097-.51.154-.094.167-.192.442-.244.633l-.99-.556c.029-.313.156-.866.414-1.326.438-.781.968-.777,1.428-.52l.111.062c-.224-.547-.412-1.552.301-2.82.673-1.2,1.75-1.879,2.979-1.189ZM81.222,226.887l.781.438c.219-.227.596-.767.893-1.297.462-.822.613-1.453.027-1.781-.474-.267-.879-.035-1.262.648-.438.781-.518,1.543-.439,1.991Z"/><path d="M83.567,233.706l-.604,1.146-.891-.47c.283.421.689,1.195.219,2.087-.389.735-1.086.892-1.633.766.207.326.625,1.144.163,2.021-.515.977-1.559.932-2.804.275l-4.313-2.275.708-1.344,4.074,2.148c.764.403,1.15.426,1.359.029.201-.382.066-.813-.068-1.139l-4.626-2.439.709-1.344,4.073,2.148c.764.403,1.15.426,1.359.029.201-.382.074-.828-.061-1.152l-4.626-2.44.709-1.344,6.252,3.298Z"/><path d="M56.134,309.748l-.417,1.479-12.763-3.605.417-1.479,12.763,3.605Z"/><path d="M41.615,385.689l-.125,1.884-9.345,2.597.127-1.898,2.056-.536.215-3.208-1.967-.789.125-1.867,8.914,3.818ZM35.92,385.02l-.157,2.362.961-.24,3.012-.681-2.895-1.075-.921-.366Z"/><path d="M33.35,392.958l-.097,2.351,7.66.314.096-2.352,1.344.056-.166,4.062-9.004-.369-.097,2.366-1.343-.055.264-6.429,1.343.056Z"/><path d="M31.235,402.673l-.026,1.646c-.833.035-1.367.41-1.387,1.625-.023,1.472.757,1.66,1.701,1.676l1.007.016c-.347-.341-.831-.989-.813-2.076.025-1.647,1.151-2.988,3.582-2.949,2.447.04,3.56,1.466,3.533,3.064-.019,1.151-.607,1.941-1.108,2.27l.911.015-.023,1.487-7.26-.118c-1.903-.03-2.861-1.134-2.823-3.469.025-1.566.483-3.175,2.707-3.187ZM33.697,407.656l3.07.05c.357-.362.639-.869.648-1.541.021-1.231-.85-1.773-2.129-1.794-1.279-.021-2.152.492-2.172,1.724-.012.672.236,1.188.582,1.562Z"/><path d="M35.048,412.619c2.846-.046,3.726,1.907,3.752,3.586.029,1.791-.756,3.659-3.635,3.706-2.83.046-3.725-1.906-3.752-3.586-.029-1.791.771-3.659,3.635-3.706ZM35.138,418.167c1.583-.025,2.275-.725,2.256-1.939-.02-1.216-.734-1.892-2.318-1.866-1.566.025-2.275.725-2.256,1.94.02,1.215.751,1.891,2.318,1.865Z"/><path d="M33.039,423.152l.065,1.743,4.365-.163-.065-1.742,1.359-.051.12,3.23-1.6.059c.795.275,1.797.942,1.85,2.334.02.527-.092,1.012-.255,1.338l-1.728.064c.195-.359.303-.908.285-1.371-.041-1.12-.626-1.771-1.104-2.105l-3.166.118.111,2.975-1.344.05-.238-6.429,1.343-.05Z"/><path d="M33.456,433.206l.155,2.458,4.356-.274-.154-2.458,1.356-.086.263,4.166-5.714.36.142,2.251-1.34.084-.405-6.416,1.341-.085ZM42.586,434.922l.132,2.091-1.932.122-.131-2.091,1.931-.122Z"/><path d="M35.931,444.636l2.691-.24-.199-2.246,1.354-.12.2,2.246,3.266-.291.151,1.704-3.266.291.309,3.457-1.354.12-.308-3.456-2.629.233c-1.322.118-1.762.414-1.656,1.593.059.653.256,1.246.507,1.722l-1.37.122c-.269-.49-.52-1.143-.604-2.082-.161-1.816.455-2.834,2.908-3.053Z"/><path d="M44.047,452.337l.197,1.701-4.038.469c.346.201,1.041.781,1.168,1.879.156,1.335-.283,2.546-2.557,2.811l-4.342.504-.197-1.701,4.007-.466c1.146-.133,1.737-.443,1.617-1.477-.089-.763-.44-1.157-.81-1.421l-5.136.597-.197-1.701,10.287-1.194Z"/><path d="M41.868,461.817l.184,1.282-.998.143c.477.174,1.26.563,1.402,1.562.117.823-.355,1.359-.874,1.579.36.143,1.179.56,1.319,1.541.155,1.093-.716,1.67-2.109,1.868l-4.831.689-.215-1.505,4.562-.65c.855-.122,1.182-.33,1.118-.773-.062-.428-.423-.699-.724-.883l-5.18.738-.215-1.505,4.562-.65c.855-.122,1.181-.33,1.117-.773-.061-.428-.425-.715-.726-.898l-5.179.738-.215-1.504,7-.998Z"/><path d="M64.279,539.479l.529,1.441-12.447,4.566-.529-1.441,12.447-4.566Z"/><path d="M95.954,607.665l.943,1.504-6.477,4.062,2.49,3.97-1.273.799-3.434-5.474,7.75-4.861Z"/><path d="M96.251,618.628c2.371-1.578,4.168-.409,5.099.989.993,1.492,1.342,3.489-1.056,5.085-2.357,1.569-4.168.409-5.099-.989-.993-1.492-1.329-3.498,1.056-5.085ZM99.327,623.25c1.318-.878,1.523-1.841.85-2.853-.674-1.013-1.641-1.195-2.959-.317-1.306.868-1.523,1.84-.85,2.853s1.654,1.187,2.959.317Z"/><path d="M101.828,626.952c2.331-1.638,4.156-.515,5.122.859,1.031,1.467,1.43,3.454-.926,5.11-2.318,1.629-4.156.516-5.123-.859-1.029-1.466-1.416-3.463.927-5.11ZM105.021,631.495c1.297-.911,1.477-1.879.777-2.874s-1.67-1.152-2.967-.242c-1.283.902-1.477,1.879-.777,2.874s1.684,1.144,2.967.242Z"/><path d="M110.765,633.422l.889,1.194-.744.554c.617,0,1.551.262,2.268,1.224.936,1.258.895,3.023-1.197,4.581-2.092,1.557-3.814,1.064-4.732-.168-.668-.898-.627-1.807-.542-2.229l-2.926,2.178-1.022-1.373,8.008-5.961ZM110.929,639.563c1.09-.812,1.504-1.757.777-2.732-.43-.577-.977-.829-1.434-.907l-2.656,1.977c-.057.461.028,1.057.458,1.634.726.976,1.751.851,2.854.029Z"/><path d="M167.045,690.454l1.149,1.018-8.791,9.93-1.15-1.018,8.792-9.93Z"/><path d="M227.27,735.448l2.491,1.415c2.645,1.502,2.689,3.496,1.273,5.987-1.352,2.38-3.192,3.45-5.795,1.973l-2.49-1.415,4.521-7.96ZM225.036,742.977l.946.537c1.685.957,2.64-.176,3.438-1.581.806-1.419,1.281-2.806-.403-3.763l-.946-.537-3.035,5.344Z"/><path d="M231.98,746.474c.768-1.44,2.256-1.135,3.541-.449.648.347,1.28.829,1.587,1.138l.271-.508c.43-.805.628-1.516-.53-2.133-.875-.468-1.571-.387-1.963.348l-1.426-.762c.912-1.707,2.618-1.54,4.129-.733,1.623.867,2.34,2.139,1.406,3.889l-1.38,2.583c-.128.24-.089.37.165.506.17.091.446.184.639.232l-.535,1.002c-.314-.023-.87-.139-1.336-.387-.791-.423-.798-.952-.549-1.418l.061-.113c-.543.236-1.544.445-2.828-.24-1.215-.648-1.916-1.712-1.252-2.954ZM236.188,748.884l.423-.79c-.23-.214-.779-.579-1.316-.865-.832-.445-1.466-.584-1.782.009-.257.48-.017.88.675,1.25.791.422,1.555.485,2.001.396Z"/><path d="M243.125,751.014l1.21-2.419-2.019-1.01.608-1.216,2.018,1.009,1.468-2.935,1.531.767-1.468,2.934,3.106,1.553-.608,1.217-3.105-1.553-1.182,2.361c-.594,1.188-.572,1.718.487,2.247.587.294,1.195.437,1.731.473l-.615,1.23c-.559-.028-1.245-.157-2.09-.579-1.631-.816-2.176-1.875-1.073-4.079Z"/><path d="M249.866,755.63c.691-1.479,2.193-1.253,3.513-.637.667.312,1.323.76,1.646,1.052l.244-.521c.387-.826.546-1.547-.643-2.102-.898-.421-1.59-.302-1.942.452l-1.464-.685c.82-1.754,2.533-1.678,4.084-.953,1.666.779,2.451,2.012,1.611,3.809l-1.24,2.653c-.115.246-.068.374.191.496.174.081.455.159.65.197l-.481,1.029c-.315-.006-.876-.092-1.354-.315-.812-.379-.847-.908-.623-1.386l.055-.116c-.531.265-1.519.526-2.838-.09-1.246-.583-2.004-1.607-1.408-2.884ZM254.198,757.814l.379-.812c-.241-.201-.809-.537-1.359-.795-.855-.399-1.495-.504-1.779.104-.23.493.03.88.74,1.212.812.38,1.578.402,2.02.29Z"/><path d="M260.452,761.5l-.37.851-1.364-.593,4.127-9.487,1.569.683-1.601,3.68c.391-.178,1.266-.425,2.293.021,1.437.625,2.279,2.177,1.238,4.567-1.039,2.39-2.777,2.819-4.186,2.207-1.1-.479-1.567-1.327-1.707-1.929ZM264.733,760.52c.542-1.246.437-2.286-.679-2.771-.659-.287-1.264-.22-1.699-.06l-1.314,3.021c.18.427.543.916,1.203,1.203,1.114.484,1.947-.147,2.489-1.394Z"/><path d="M268.24,763.837c.611-1.513,2.123-1.368,3.473-.822.683.276,1.361.688,1.699.963l.216-.534c.342-.845.464-1.572-.753-2.064-.92-.371-1.604-.217-1.915.555l-1.498-.605c.726-1.795,2.44-1.81,4.026-1.168,1.706.689,2.555,1.878,1.811,3.718l-1.098,2.714c-.102.252-.049.377.219.485.178.071.463.135.658.163l-.426,1.053c-.314.011-.879-.045-1.368-.243-.831-.336-.894-.861-.696-1.351l.048-.119c-.515.292-1.487.606-2.837.061-1.275-.516-2.086-1.499-1.559-2.804ZM272.679,765.788l.336-.831c-.252-.188-.836-.493-1.398-.721-.875-.354-1.52-.425-1.771.198-.204.505.076.877.803,1.171.831.336,1.598.317,2.031.183Z"/><path d="M277.785,767.255l1.573.588c-.203.727.404,1.296,1.408,1.671.914.342,1.684.476,1.913-.139.247-.659-.718-1.14-1.962-1.878-1.205-.706-2.309-1.546-1.787-2.939.509-1.363,2.136-1.421,3.77-.811,1.633.61,2.864,1.565,2.362,3.273l-1.573-.588c.164-.759-.545-1.194-1.234-1.451-.913-.342-1.49-.353-1.658.097-.224.6.531,1.001,2.01,1.844,1.155.654,2.293,1.54,1.783,2.904-.6,1.603-2.314,1.577-4.172.883-1.769-.661-2.998-1.804-2.433-3.454Z"/><path d="M287.532,769.487c.92-2.679,2.998-2.912,4.648-2.346,1.71.589,3.145,2.029,2.233,4.678l-.125.363-5.237-1.8c-.355,1.181-.024,2.09,1.277,2.538.893.307,1.639.156,1.983-.452l1.665.572c-.911,1.616-2.658,1.625-4.111,1.125-1.938-.666-3.198-2.166-2.334-4.679ZM293.015,770.475c.217-1.076-.389-1.775-1.267-2.077s-1.786-.123-2.276.859l3.543,1.218Z"/><path d="M367.806,781.421l1.525.187-1.607,13.168-1.524-.187,1.606-13.168Z"/></svg>