<?xml version="1.0" encoding="UTF-8"?><svg id="Layer_1" xmlns="http://www.w3.org/2000/svg" width="11.503in" height="11.503in" viewBox="0 0 828.25 828.25"><defs><style>.cls-1{fill:#40e0d0;opacity:.5;stroke:#231f20;stroke-miterlimit:10;stroke-width:.25px;}</style></defs><path class="cls-1" d="M414.684.125C186.038.125.684,185.479.684,414.125s185.354,414,414,414,414-185.354,414-414S643.33.125,414.684.125ZM414.684,759.125c-190.538,0-345-154.462-345-345S224.145,69.125,414.684,69.125s345,154.462,345,345-154.462,345-345,345Z"/><path d="M457.052,783.112l2.24-.271,3.465,7.059-.553-2.834-.545-4.512,1.557-.188,1.1,9.085-2.24.271-3.465-7.059.553,2.834.545,4.511-1.557.188-1.1-9.086Z"/><path d="M467.383,789.17c-.239-1.613,1.137-2.255,2.577-2.469.728-.107,1.521-.097,1.951-.031l-.084-.569c-.134-.902-.398-1.591-1.695-1.397-.981.146-1.492.626-1.37,1.448l-1.599.237c-.283-1.914,1.187-2.796,2.879-3.047,1.82-.271,3.154.324,3.445,2.286l.43,2.896c.04.269.149.35.434.308.19-.028.469-.118.65-.193l.168,1.123c-.267.169-.781.407-1.303.484-.887.132-1.208-.29-1.285-.812l-.02-.127c-.295.513-.975,1.277-2.414,1.491-1.361.202-2.559-.235-2.765-1.628ZM472.199,788.601l-.131-.886c-.312-.035-.971-.002-1.572.088-.934.139-1.525.404-1.426,1.068.079.538.51.717,1.285.602.887-.132,1.538-.535,1.844-.872Z"/><path d="M477.805,788.094l1.718-.301-.754-4.303-1.718.301-.235-1.34,3.185-.558.276,1.576c.164-.825.689-1.908,2.061-2.148.52-.091,1.015-.048,1.36.07l.298,1.702c-.383-.145-.94-.177-1.397-.096-1.103.192-1.669.86-1.935,1.378l.546,3.121,2.933-.514.231,1.324-6.337,1.11-.231-1.324Z"/><path d="M487.706,786.311l1.71-.346-.866-4.282-1.71.346-.271-1.333,3.17-.642.316,1.568c.143-.828.639-1.925,2.004-2.201.518-.104,1.014-.074,1.362.034l.343,1.694c-.387-.134-.945-.151-1.4-.06-1.098.223-1.645.904-1.898,1.43l.629,3.105,2.918-.591.266,1.318-6.306,1.275-.267-1.317Z"/><path d="M497.067,783.85c-.367-1.591.954-2.34,2.374-2.667.717-.166,1.51-.218,1.944-.187l-.13-.562c-.205-.889-.523-1.555-1.802-1.259-.968.223-1.438.742-1.251,1.554l-1.575.363c-.437-1.887.96-2.883,2.629-3.269,1.794-.414,3.171.073,3.617,2.007l.659,2.854c.061.266.176.337.457.272.188-.043.457-.155.633-.245l.256,1.107c-.252.189-.746.468-1.26.587-.874.202-1.229-.193-1.347-.708l-.028-.124c-.255.535-.871,1.351-2.291,1.679-1.34.31-2.568-.031-2.886-1.403ZM501.824,782.899l-.201-.873c-.314-.01-.968.075-1.561.213-.92.212-1.488.524-1.338,1.179.123.53.566.675,1.331.498.873-.202,1.491-.656,1.769-1.017Z"/><path d="M508.449,779.953l-.679-2.617-2.184.565-.341-1.316,2.184-.565-.822-3.175,1.656-.43.822,3.175,3.361-.871.342,1.316-3.361.871.662,2.556c.333,1.285.697,1.67,1.844,1.373.635-.164,1.188-.456,1.615-.782l.345,1.332c-.439.346-1.042.7-1.956.937-1.766.458-2.871.017-3.488-2.368Z"/><path d="M517.123,779.374l2.368-.681-1.207-4.199-2.369.682-.376-1.308,4.015-1.155,1.584,5.507,2.168-.624.373,1.292-6.184,1.778-.372-1.292ZM516.831,770.082l2.016-.579.535,1.86-2.016.58-.535-1.861Z"/><path d="M524.261,771.337l1.832-.579,2.289,2.784,1.419,1.834.112-2.301.299-3.619,1.74-.55-.845,7.685-1.739.55-5.107-5.804Z"/><path d="M535.269,771.558c-.926-2.677.564-4.142,2.213-4.712,1.709-.591,3.727-.341,4.643,2.306l.125.362-5.232,1.812c.449,1.148,1.27,1.66,2.57,1.21.892-.309,1.387-.887,1.281-1.578l1.664-.576c.279,1.834-1.09,2.917-2.541,3.42-1.936.67-3.854.267-4.723-2.243ZM540.193,768.956c-.491-.98-1.398-1.157-2.276-.854-.877.304-1.481,1.004-1.261,2.079l3.537-1.225Z"/><path d="M605.865,731.498l1.314-.793,6.844,11.359-1.314.793-6.844-11.359Z"/><path d="M666.017,688.27l1.463-1.364,4.254,2.356,2.307,1.372-1.196-2.386-2.075-4.408,1.404-1.31,3.83,8.942-1.335,1.243-8.651-4.446Z"/><path d="M674.723,678.389l1.495-1.468,1.355,1.382-1.495,1.467-1.355-1.381ZM679.396,686.416l1.758-1.725-3.057-3.116-1.758,1.725-.952-.97,2.979-2.924,4.009,4.087,1.609-1.58.94.959-4.588,4.503-.941-.959Z"/><path d="M685.699,678.942l1.168-1.208c.586.477,1.35.146,2.095-.624.679-.702,1.108-1.354.638-1.811-.506-.489-1.332.204-2.506,1.05-1.13.822-2.341,1.5-3.41.465-1.047-1.012-.451-2.527.762-3.781s2.58-2.002,3.947-.859l-1.168,1.209c-.631-.454-1.312.021-1.824.551-.679.702-.919,1.227-.574,1.561.461.444,1.131-.087,2.494-1.106,1.062-.799,2.329-1.487,3.376-.476,1.231,1.19.522,2.753-.857,4.18-1.313,1.357-2.853,2.028-4.14.851Z"/><path d="M692.597,671.044l-3.221-2.954,1.158-1.262,2.973,2.727c.849.778,1.471,1.023,2.174.257.52-.566.588-1.09.545-1.542l-3.81-3.494,1.157-1.262,5.214,4.781-1.006,1.098-.708-.649c.115.562.155,1.488-.656,2.373-.908.991-2.135,1.475-3.82-.072Z"/><path d="M699.652,664.553c-1.231-1.07-.602-2.452.354-3.551.482-.555,1.094-1.062,1.463-1.292l-.434-.378c-.688-.599-1.336-.95-2.197.039-.65.749-.727,1.445-.1,1.991l-1.061,1.22c-1.46-1.271-.916-2.896.207-4.188,1.208-1.388,2.607-1.803,4.104-.501l2.209,1.921c.205.179.342.169.53-.048.126-.146.278-.394.368-.57l.857.745c-.093.302-.329.817-.676,1.215-.588.677-1.105.565-1.504.219l-.097-.084c.108.582.089,1.604-.866,2.702-.902,1.038-2.096,1.483-3.158.56ZM702.941,660.991l-.676-.588c-.26.177-.738.63-1.137,1.089-.62.712-.896,1.298-.39,1.739.41.356.854.212,1.368-.379.588-.676.82-1.406.834-1.861Z"/><path d="M706.858,656.977l1.496-1.814-5.913-4.875-1.496,1.814-1.037-.854,2.586-3.136,6.949,5.729,1.506-1.826,1.037.854-4.091,4.963-1.037-.855Z"/><path d="M744.377,587.592l1.245-2.382c1.061-2.027,2.59-3.051,4.475-2.064,1.163.608,1.592,1.825,1.413,2.96l4.335-.693-1.009,1.928-3.851.459-.512.978,2.835,1.483-.823,1.573-8.108-4.241ZM749.199,588.11l.422-.808c.66-1.262.496-2.088-.368-2.54-.864-.453-1.637-.116-2.297,1.146l-.423.808,2.666,1.395Z"/><path d="M747.821,578.304l.753-1.538,3.65,1.787c-.182-.356-.453-1.22.031-2.212.592-1.207,1.615-1.989,3.67-.983l3.925,1.921-.753,1.538-3.622-1.772c-1.035-.507-1.701-.565-2.158.369-.338.689-.255,1.211-.087,1.632l4.644,2.272-.753,1.538-9.3-4.552Z"/><path d="M758.103,572.798c-2.576-1.178-2.607-3.268-1.882-4.854.752-1.646,2.325-2.932,4.873-1.768l.349.159-2.301,5.037c1.141.469,2.077.229,2.649-1.023.393-.859.315-1.616-.257-2.019l.732-1.601c1.52,1.063,1.357,2.803.719,4.2-.852,1.863-2.467,2.973-4.883,1.868ZM759.62,567.438c-1.051-.321-1.805.214-2.191,1.058-.386.845-.296,1.766.634,2.349l1.558-3.406Z"/><path d="M763.456,562.071l-2.488-1.06-.885,2.076-1.252-.533.885-2.076-3.02-1.285.672-1.576,3.019,1.286,1.36-3.195,1.252.533-1.361,3.195,2.43,1.034c1.223.521,1.75.467,2.214-.622.257-.604.362-1.22.366-1.758l1.266.539c.006.559-.08,1.253-.451,2.121-.715,1.679-1.738,2.286-4.006,1.32Z"/><path d="M766.089,554.446c-2.648-1.046-2.715-3.188-2.098-4.749.658-1.667,2.099-3.093,4.776-2.035,2.634,1.04,2.714,3.187,2.097,4.749-.657,1.666-2.112,3.086-4.775,2.035ZM768.128,549.283c-1.474-.581-2.381-.2-2.827.931s-.044,2.029,1.429,2.61c1.457.576,2.379.2,2.826-.931.446-1.13.029-2.034-1.428-2.61Z"/><path d="M771.933,545.468l.597-1.638-4.103-1.496-.598,1.639-1.277-.466,1.106-3.036,1.503.548c-.633-.554-1.309-1.55-.832-2.857.182-.496.466-.902.74-1.143l1.623.591c-.315.26-.622.727-.781,1.163-.383,1.052-.087,1.875.229,2.364l2.976,1.085,1.019-2.796,1.264.46-2.203,6.042-1.262-.46Z"/><path d="M767.507,530.964l.663-1.988,1.837.612-.664,1.989-1.836-.613ZM775.329,535.988l.781-2.338-4.146-1.383-.78,2.338-1.29-.431,1.322-3.963,5.435,1.813.715-2.141,1.275.426-2.037,6.104-1.275-.426Z"/><path d="M776.252,526.201c-2.786-.85-2.966-2.945-2.452-4.629.462-1.516,1.583-2.997,3.764-2.466l-.505,1.653c-1.069-.226-1.602.314-1.877,1.217-.364,1.194.068,2.079,1.583,2.541,1.531.467,2.369-.03,2.738-1.239.27-.888.145-1.629-.867-2.038l.504-1.652c2.074.767,2.179,2.672,1.727,4.156-.52,1.699-1.859,3.298-4.614,2.457Z"/><path d="M785.421,445.515l.134-1.53,13.219,1.151-.134,1.53-13.219-1.151Z"/><path d="M792.233,370.076l-.204-1.715c.943-.193,1.355-.79,1.208-2.029-.134-1.128-.612-1.764-1.344-1.677-.604.072-.818.565-.974,1.292l-.425,2.113c-.233,1.155-.878,2.102-2.18,2.257-1.7.203-2.794-1.133-3.024-3.071-.215-1.811.419-3.384,2.448-3.658l.206,1.731c-.993.183-1.312.752-1.191,1.769.135,1.128.656,1.582,1.242,1.496.506-.077.795-.353.945-1.128l.437-2.146c.237-1.123.72-2.212,2.181-2.386,1.843-.22,2.905,1.265,3.145,3.266.243,2.05-.484,3.65-2.47,3.887Z"/><path d="M790.262,360.253c-2.804.411-3.964-1.328-4.217-3.055-.263-1.79.36-3.726,3.132-4.131l.381-.056.803,5.479c1.213-.226,1.869-.937,1.669-2.299-.137-.935-.612-1.528-1.312-1.555l-.256-1.743c1.855.068,2.664,1.616,2.887,3.137.297,2.027-.457,3.837-3.087,4.222ZM788.624,354.928c-1.056.3-1.398,1.159-1.264,2.078.134.918.709,1.644,1.807,1.628l-.543-3.706Z"/><path d="M790.646,344.915c.363.229,1.051.824,1.242,1.928.268,1.545-.566,3.102-3.135,3.547-2.57.445-3.885-.771-4.146-2.285-.205-1.182.246-2.04.672-2.487l-.914.159-.254-1.466,9.836-1.705.293,1.687-3.594.623ZM789.527,345.109l-3.264.565c-.258.386-.451.954-.328,1.664.207,1.198,1.178,1.549,2.518,1.317,1.355-.235,2.15-.893,1.943-2.091-.123-.709-.497-1.18-.869-1.456Z"/><path d="M787.706,339.808l-4.281.862-.338-1.679,3.952-.796c1.13-.228,1.694-.586,1.489-1.605-.152-.753-.535-1.116-.925-1.348l-5.067,1.02-.338-1.678,6.934-1.396.294,1.459-.94.189c.521.238,1.293.751,1.529,1.928.266,1.317-.064,2.592-2.309,3.044Z"/><path d="M785.025,330.702c-2.761.632-4.055-1.008-4.445-2.708-.402-1.762.063-3.74,2.793-4.365l.374-.085,1.235,5.396c1.189-.322,1.787-1.082,1.48-2.423-.211-.921-.731-1.475-1.431-1.445l-.394-1.716c1.854-.079,2.783,1.398,3.125,2.896.457,1.996-.15,3.858-2.738,4.451ZM782.97,325.527c-1.029.383-1.303,1.266-1.096,2.171.207.904.838,1.58,1.931,1.478l-.835-3.648Z"/><path d="M779.163,321.317l-.371-1.442.93-.238c-.533-.21-1.332-.683-1.631-1.846-.334-1.302-.07-2.593,2.146-3.162l4.232-1.087.426,1.658-3.906,1.004c-1.116.287-1.661.675-1.402,1.683.191.744.594,1.087.994,1.298l5.008-1.286.426,1.658-6.852,1.761Z"/><path d="M780.197,311.265c-2.799.801-4.088-.861-4.572-2.553-.435-1.522-.299-3.375,1.82-4.113l.475,1.661c-1.02.392-1.174,1.134-.914,2.041.342,1.2,1.186,1.708,2.709,1.272,1.537-.439,1.971-1.312,1.623-2.527-.254-.892-.762-1.445-1.834-1.238l-.475-1.662c2.158-.482,3.28,1.06,3.707,2.552.487,1.707.23,3.776-2.539,4.567Z"/><path d="M777.44,301.627c-2.701.851-4.122-.681-4.646-2.344-.543-1.724-.237-3.732,2.434-4.574l.366-.115,1.663,5.279c1.161-.415,1.694-1.221,1.282-2.533-.284-.9-.848-1.411-1.542-1.326l-.528-1.679c1.84-.228,2.885,1.172,3.346,2.637.615,1.953.158,3.857-2.374,4.655ZM774.978,296.633c-.994.464-1.197,1.366-.918,2.252.279.885.961,1.508,2.043,1.318l-1.125-3.57Z"/><path d="M739.39,229.937l-.756-1.337,11.549-6.527.756,1.338-11.549,6.526Z"/><path d="M702.275,163.907l-1.143-1.297c.668-.694.668-1.42-.156-2.356-.751-.853-1.506-1.104-2.059-.618-.456.401-.354.93-.068,1.616l.85,1.981c.463,1.084.471,2.229-.515,3.097-1.285,1.132-2.944.652-4.233-.813-1.206-1.369-1.576-3.024-.061-4.402l1.152,1.309c-.715.715-.653,1.364.023,2.133.75.853,1.438.931,1.871.527.373-.351.455-.742.139-1.465l-.859-2.016c-.442-1.061-.662-2.23.442-3.203,1.393-1.227,3.11-.607,4.442.905,1.365,1.55,1.674,3.281.174,4.603Z"/><path d="M695.081,156.928c-2.077,1.926-4.018,1.15-5.203-.129-1.23-1.326-1.813-3.273.24-5.177l.281-.262,3.765,4.061c.87-.873,1.009-1.83.073-2.84-.643-.691-1.369-.912-1.961-.538l-1.197-1.291c1.566-.993,3.109-.177,4.154.95,1.393,1.502,1.795,3.419-.152,5.226ZM690.716,153.468c-.699.845-.496,1.747.135,2.428s1.516.952,2.412.317l-2.547-2.745Z"/><path d="M689.493,147.8l-1.219-1.247-3.125,3.053,1.219,1.248-.973.95-2.259-2.312,1.145-1.118c-.773.33-1.964.509-2.937-.486-.369-.378-.613-.811-.711-1.163l1.236-1.208c.097.397.385.876.71,1.208.782.801,1.653.891,2.231.817l2.266-2.214-2.08-2.129.961-.939,4.496,4.601-.961.939Z"/><path d="M674.499,145.509l-1.505-1.459,1.348-1.391,1.505,1.459-1.348,1.391ZM682.413,140.633l-1.77-1.715-3.04,3.137,1.769,1.715-.946.977-2.999-2.907,3.988-4.113-1.62-1.57.936-.966,4.618,4.479-.936.965Z"/><path d="M673.991,135.524c-1.917,2.085-3.914,1.466-5.197.285-1.332-1.224-2.068-3.119-.172-5.181l.26-.282,4.076,3.748c.799-.939.86-1.904-.152-2.836-.695-.64-1.438-.801-1.998-.381l-1.297-1.192c1.482-1.115,3.086-.423,4.217.617,1.508,1.387,2.062,3.266.264,5.222ZM669.366,132.421c-.631.898-.356,1.781.327,2.41.684.628,1.586.828,2.43.125l-2.757-2.535Z"/><path d="M667.39,127.758l-1.266-1.105c.446-.608.078-1.355-.729-2.061-.735-.643-1.409-1.039-1.841-.545-.463.53.271,1.32,1.176,2.45.879,1.086,1.615,2.262.637,3.383-.958,1.097-2.502.577-3.816-.57-1.313-1.147-2.129-2.477-1.057-3.898l1.266,1.105c-.421.652.088,1.31.643,1.794.736.642,1.271.855,1.588.494.421-.482-.145-1.125-1.23-2.436-.852-1.02-1.604-2.251-.646-3.348,1.127-1.29,2.723-.66,4.218.646,1.423,1.242,2.171,2.745,1.06,4.091Z"/><path d="M596.806,87.346l-1.34-.75,6.477-11.574,1.34.75-6.477,11.574Z"/><path d="M530.754,50.273l-1.651-.512c.209-.941-.169-1.562-1.361-1.932-1.086-.337-1.861-.159-2.08.545-.181.581.182.979.783,1.416l1.758,1.25c.961.684,1.564,1.658,1.175,2.912-.507,1.636-2.175,2.091-4.04,1.512-1.742-.541-2.922-1.762-2.346-3.729l1.667.518c-.237.982.153,1.506,1.132,1.81,1.085.337,1.712.045,1.872-.525.137-.494.002-.871-.646-1.323l-1.783-1.274c-.931-.674-1.729-1.559-1.292-2.966.55-1.773,2.341-2.14,4.267-1.542,1.973.612,3.139,1.93,2.546,3.841Z"/><path d="M522.409,43.184c-1.478-.416-2.331-.158-3.136.812l1.115,7.607-1.848-.52-.403-3.586-.164-2.307-1.355,1.862-2.234,2.86-1.755-.494,4.669-5.665c1.709-2.061,2.953-2.642,5.493-1.926l-.382,1.354Z"/><path d="M511.562,44.132l-1.629-.412c.121-.745-.545-1.244-1.584-1.507-.947-.239-1.727-.287-1.889.349-.172.683.84,1.055,2.158,1.651,1.276.57,2.467,1.284,2.102,2.727-.357,1.412-1.969,1.649-3.66,1.222s-3.021-1.242-2.709-2.996l1.629.412c-.08.772.672,1.127,1.387,1.308.946.239,1.521.187,1.639-.279.156-.621-.639-.938-2.201-1.612-1.221-.523-2.45-1.28-2.094-2.692.42-1.66,2.129-1.822,4.053-1.337,1.831.463,3.18,1.464,2.799,3.168Z"/><path d="M499.816,42.063l-.594,2.639,2.201.494-.299,1.327-2.201-.495-.719,3.2-1.67-.375.719-3.2-3.387-.762.298-1.327,3.388.762.578-2.575c.292-1.296.145-1.805-1.012-2.064-.639-.144-1.264-.137-1.793-.043l.301-1.342c.549-.106,1.246-.146,2.168.061,1.779.4,2.562,1.298,2.021,3.701Z"/><path d="M491.838,40.82c-.546,2.779-2.571,3.294-4.282,2.958-1.774-.348-3.392-1.578-2.852-4.326l.073-.377,5.433,1.066c.19-1.218-.262-2.073-1.611-2.338-.927-.183-1.645.068-1.902.719l-1.728-.339c.681-1.726,2.409-1.974,3.917-1.678,2.01.395,3.464,1.708,2.952,4.314ZM486.274,40.591c-.068,1.096.628,1.705,1.538,1.884s1.785-.122,2.136-1.162l-3.674-.722Z"/><path d="M481.648,42.481l-1.279-.216.169-.994c-.312.402-.921,1.029-1.915.861-.82-.14-1.188-.753-1.238-1.313-.245.299-.892.952-1.869.787-1.09-.185-1.373-1.19-1.139-2.578l.814-4.812,1.499.254-.769,4.544c-.145.852-.045,1.226.396,1.301.426.071.795-.19,1.061-.421l.873-5.16,1.5.254-.77,4.544c-.145.853-.045,1.226.396,1.301.426.072.811-.188,1.077-.418l.873-5.159,1.499.253-1.18,6.974Z"/><path d="M400.829,40.08l-1.535.059-.506-13.257,1.535-.059.506,13.257Z"/><path d="M324.351,41.738l-2.158.543,1.5,5.959,2.158-.543.367,1.458-6.053,1.523-.367-1.458,2.157-.543-1.5-5.959-2.157.543-.367-1.459,6.053-1.523.367,1.459Z"/><path d="M316.091,49.612l-1.434.401-.26-.925c-.197.538-.652,1.347-1.809,1.671-1.295.362-2.59.127-3.208-2.076l-1.179-4.208,1.648-.462,1.089,3.884c.312,1.109.71,1.646,1.712,1.365.74-.207,1.074-.616,1.276-1.022l-1.396-4.978,1.649-.462,1.909,6.812Z"/><path d="M305.533,47.577l-1.605.496c-.284-.699-1.112-.778-2.136-.461-.934.288-1.625.653-1.431,1.28.208.673,1.266.463,2.702.286,1.386-.178,2.773-.188,3.213,1.234.431,1.391-.822,2.432-2.488,2.947-1.667.516-3.227.513-3.873-1.146l1.605-.497c.334.701,1.16.612,1.863.395.934-.288,1.396-.633,1.254-1.091-.188-.612-1.032-.468-2.718-.231-1.315.189-2.758.183-3.188-1.208-.506-1.636.868-2.664,2.764-3.251,1.805-.559,3.477-.405,4.038,1.247Z"/><path d="M294.433,51.921l.866,2.561,2.137-.723.436,1.287-2.136.724,1.051,3.105-1.621.549-1.051-3.106-3.289,1.113-.436-1.288,3.288-1.112-.846-2.5c-.426-1.258-.817-1.615-1.938-1.236-.621.211-1.15.542-1.554.897l-.44-1.303c.412-.376.988-.773,1.881-1.076,1.729-.584,2.863-.226,3.652,2.108Z"/><path d="M285.835,53.129l-1.637.604,1.512,4.1,1.637-.604.471,1.276-3.033,1.119-.554-1.502c-.015.842-.337,2.001-1.644,2.483-.495.183-.99.229-1.352.174l-.598-1.621c.402.073.957.005,1.393-.156,1.051-.388,1.488-1.146,1.658-1.703l-1.098-2.973-2.793,1.03-.465-1.261,6.036-2.227.466,1.261Z"/><path d="M276.796,57.966l1.621,4.058-1.591.635-1.495-3.745c-.428-1.07-.883-1.561-1.849-1.175-.714.285-1.002.728-1.159,1.152l1.917,4.801-1.591.635-2.623-6.568,1.383-.553.355.892c.141-.556.506-1.408,1.621-1.854,1.248-.498,2.562-.402,3.41,1.723Z"/><path d="M268.337,62.275c1.15,2.675-.332,4.165-1.949,4.86-1.455.625-3.309.726-4.311-1.28l1.586-.683c.519.961,1.274,1.02,2.142.646,1.146-.493,1.542-1.395.917-2.849-.633-1.47-1.553-1.788-2.713-1.289-.853.366-1.337.94-.996,1.978l-1.586.683c-.755-2.079.632-3.389,2.057-4.001,1.632-.701,3.717-.71,4.854,1.935Z"/><path d="M257.152,66.614l1.135,2.455,2.047-.946.571,1.234-2.048.946,1.376,2.979-1.554.718-1.377-2.978-3.152,1.457-.57-1.235,3.152-1.456-1.107-2.397c-.559-1.205-.984-1.52-2.061-1.022-.596.275-1.086.661-1.449,1.058l-.578-1.249c.371-.418.9-.874,1.758-1.271,1.656-.766,2.822-.529,3.857,1.708Z"/><path d="M248.714,68.732l-2.209,1.093,1.938,3.916,2.209-1.093.604,1.219-3.744,1.852-2.54-5.135-2.022,1.001-.596-1.205,5.766-2.853.596,1.205ZM250.657,77.822l-1.879.93-.857-1.735,1.879-.93.857,1.735Z"/><path d="M241.12,74.975c1.332,2.519-.012,4.188-1.497,4.973-1.585.837-3.606.983-4.952-1.562-1.324-2.504.013-4.188,1.498-4.973,1.584-.837,3.613-.969,4.951,1.562ZM236.212,77.57c.74,1.4,1.678,1.701,2.753,1.133s1.354-1.512.614-2.912c-.732-1.387-1.678-1.701-2.752-1.133-1.076.568-1.348,1.526-.615,2.912Z"/><path d="M233.561,83.023l-1.297.729-.471-.837c-.065.568-.315,1.462-1.362,2.051-1.171.658-2.485.736-3.607-1.258l-2.141-3.808,1.492-.839,1.977,3.515c.564,1.004,1.08,1.431,1.986.921.67-.377.896-.854.997-1.295l-2.533-4.505,1.492-.84,3.467,6.165Z"/><path d="M169.904,131.619l-1.154,1.012-8.741-9.968,1.154-1.012,8.741,9.968Z"/><path d="M117.646,185.694l-1.805,2.407c-1.324,1.767-3.072,2.576-4.762,1.31-1.703-1.276-1.412-3.158-.078-4.938l.739-.986-2.483-1.861,1.064-1.421,7.324,5.489ZM112.931,184.379l-.748.999c-.854,1.14-.781,1.975,0,2.56.781.586,1.591.413,2.445-.727l.748-.998-2.445-1.834Z"/><path d="M105.463,188.999l-1.009,1.422,3.561,2.529,1.01-1.422,1.109.787-1.871,2.635-1.305-.926c.463.701.852,1.841.046,2.976-.306.431-.688.748-1.017.907l-1.409-1.001c.374-.166.793-.536,1.062-.914.648-.913.58-1.785.406-2.341l-2.584-1.834-1.723,2.427-1.096-.778,3.724-5.244,1.096.777Z"/><path d="M101.736,198.101c2.365,1.587,1.974,3.693,1.038,5.089-.998,1.489-2.71,2.576-5.103.972-2.352-1.577-1.973-3.692-1.037-5.088.998-1.489,2.723-2.567,5.102-.973ZM98.644,202.713c1.314.882,2.283.703,2.961-.308.677-1.01.475-1.974-.841-2.855-1.302-.873-2.284-.703-2.961.308-.677,1.01-.462,1.982.841,2.855Z"/><path d="M92.79,204.411l-.882,1.393c-.729-.405-1.38-.363-2.03.664-.788,1.244-.22,1.812.578,2.317l.852.539c-.117-.472-.194-1.278.388-2.197.882-1.393,2.542-1.951,4.597-.65,2.068,1.311,2.275,3.107,1.42,4.46-.617.973-1.531,1.341-2.131,1.359l.771.488-.797,1.257-6.137-3.887c-1.609-1.019-1.852-2.46-.602-4.434.838-1.325,2.068-2.459,3.973-1.31ZM92.294,209.949l2.596,1.644c.495-.122.998-.409,1.358-.978.659-1.041.198-1.958-.884-2.643s-2.094-.701-2.753.34c-.36.568-.417,1.138-.317,1.637Z"/><path d="M88.756,214.159l-.894,1.497,3.75,2.236.893-1.496,1.168.696-1.656,2.773-1.373-.819c.518.663.994,1.767.281,2.962-.27.453-.625.8-.94.984l-1.483-.886c.359-.195.748-.597.984-.995.574-.961.438-1.824.22-2.364l-2.72-1.623-1.523,2.555-1.153-.688,3.294-5.521,1.153.688Z"/><path d="M84.279,222.732c1.422.798,1.086,2.278.374,3.548-.36.642-.855,1.262-1.171,1.562l.502.281c.795.446,1.502.659,2.144-.484.485-.865.419-1.562-.308-1.97l.791-1.408c1.688.947,1.484,2.648.646,4.141-.899,1.604-2.186,2.294-3.915,1.323l-2.552-1.432c-.238-.134-.368-.097-.51.154-.094.167-.192.442-.244.633l-.99-.556c.029-.313.156-.866.414-1.326.438-.781.968-.777,1.428-.52l.111.062c-.224-.547-.412-1.552.301-2.82.673-1.2,1.75-1.879,2.979-1.189ZM81.781,226.887l.781.438c.219-.227.596-.767.893-1.297.462-.822.613-1.453.027-1.781-.474-.267-.879-.035-1.262.648-.438.781-.518,1.543-.439,1.991Z"/><path d="M84.125,233.706l-.604,1.146-.891-.47c.283.421.689,1.195.219,2.087-.389.735-1.086.892-1.633.766.207.326.625,1.144.163,2.021-.515.977-1.559.932-2.804.275l-4.313-2.275.708-1.344,4.074,2.148c.764.403,1.15.426,1.359.029.201-.382.066-.813-.068-1.139l-4.626-2.439.709-1.344,4.073,2.148c.764.403,1.15.426,1.359.029.201-.382.074-.828-.061-1.152l-4.626-2.44.709-1.344,6.252,3.298Z"/><path d="M56.693,309.748l-.417,1.479-12.763-3.605.417-1.479,12.763,3.605Z"/><path d="M42.173,385.689l-.125,1.884-9.345,2.597.127-1.898,2.056-.536.215-3.208-1.967-.789.125-1.867,8.914,3.818ZM36.479,385.02l-.157,2.362.961-.24,3.012-.681-2.895-1.075-.921-.366Z"/><path d="M33.908,392.958l-.097,2.351,7.66.314.096-2.352,1.344.056-.166,4.062-9.004-.369-.097,2.366-1.343-.055.264-6.429,1.343.056Z"/><path d="M31.793,402.673l-.026,1.646c-.833.035-1.367.41-1.387,1.625-.023,1.472.757,1.66,1.701,1.676l1.007.016c-.347-.341-.831-.989-.813-2.076.025-1.647,1.151-2.988,3.582-2.949,2.447.04,3.56,1.466,3.533,3.064-.019,1.151-.607,1.941-1.108,2.27l.911.015-.023,1.487-7.26-.118c-1.903-.03-2.861-1.134-2.823-3.469.025-1.566.483-3.175,2.707-3.187ZM34.255,407.656l3.07.05c.357-.362.639-.869.648-1.541.021-1.231-.85-1.773-2.129-1.794-1.279-.021-2.152.492-2.172,1.724-.012.672.236,1.188.582,1.562Z"/><path d="M35.607,412.619c2.846-.046,3.726,1.907,3.752,3.586.029,1.791-.756,3.659-3.635,3.706-2.83.046-3.725-1.906-3.752-3.586-.029-1.791.771-3.659,3.635-3.706ZM35.697,418.167c1.583-.025,2.275-.725,2.256-1.939-.02-1.216-.734-1.892-2.318-1.866-1.566.025-2.275.725-2.256,1.94.02,1.215.751,1.891,2.318,1.865Z"/><path d="M33.598,423.152l.065,1.743,4.365-.163-.065-1.742,1.359-.051.12,3.23-1.6.059c.795.275,1.797.942,1.85,2.334.02.527-.092,1.012-.255,1.338l-1.728.064c.195-.359.303-.908.285-1.371-.041-1.12-.626-1.771-1.104-2.105l-3.166.118.111,2.975-1.344.05-.238-6.429,1.343-.05Z"/><path d="M34.015,433.206l.155,2.458,4.356-.274-.154-2.458,1.356-.086.263,4.166-5.714.36.142,2.251-1.34.084-.405-6.416,1.341-.085ZM43.145,434.922l.132,2.091-1.932.122-.131-2.091,1.931-.122Z"/><path d="M36.49,444.636l2.691-.24-.199-2.246,1.354-.12.2,2.246,3.266-.291.151,1.704-3.266.291.309,3.457-1.354.12-.308-3.456-2.629.233c-1.322.118-1.762.414-1.656,1.593.059.653.256,1.246.507,1.722l-1.37.122c-.269-.49-.52-1.143-.604-2.082-.161-1.816.455-2.834,2.908-3.053Z"/><path d="M44.606,452.337l.197,1.701-4.038.469c.346.201,1.041.781,1.168,1.879.156,1.335-.283,2.546-2.557,2.811l-4.342.504-.197-1.701,4.007-.466c1.146-.133,1.737-.443,1.617-1.477-.089-.763-.44-1.157-.81-1.421l-5.136.597-.197-1.701,10.287-1.194Z"/><path d="M42.427,461.817l.184,1.282-.998.143c.477.174,1.26.563,1.402,1.562.117.823-.355,1.359-.874,1.579.36.143,1.179.56,1.319,1.541.155,1.093-.716,1.67-2.109,1.868l-4.831.689-.215-1.505,4.562-.65c.855-.122,1.182-.33,1.118-.773-.062-.428-.423-.699-.724-.883l-5.18.738-.215-1.505,4.562-.65c.855-.122,1.181-.33,1.117-.773-.061-.428-.425-.715-.726-.898l-5.179.738-.215-1.504,7-.998Z"/><path d="M64.837,539.479l.529,1.441-12.447,4.566-.529-1.441,12.447-4.566Z"/><path d="M96.513,607.665l.943,1.504-6.477,4.062,2.49,3.97-1.273.799-3.434-5.474,7.75-4.861Z"/><path d="M96.81,618.628c2.371-1.578,4.168-.409,5.099.989.993,1.492,1.342,3.489-1.056,5.085-2.357,1.569-4.168.409-5.099-.989-.993-1.492-1.329-3.498,1.056-5.085ZM99.886,623.25c1.318-.878,1.523-1.841.85-2.853-.674-1.013-1.641-1.195-2.959-.317-1.306.868-1.523,1.84-.85,2.853s1.654,1.187,2.959.317Z"/><path d="M102.387,626.952c2.331-1.638,4.156-.515,5.122.859,1.031,1.467,1.43,3.454-.926,5.11-2.318,1.629-4.156.516-5.123-.859-1.029-1.466-1.416-3.463.927-5.11ZM105.579,631.495c1.297-.911,1.477-1.879.777-2.874s-1.67-1.152-2.967-.242c-1.283.902-1.477,1.879-.777,2.874s1.684,1.144,2.967.242Z"/><path d="M111.324,633.422l.889,1.194-.744.554c.617,0,1.551.262,2.268,1.224.936,1.258.895,3.023-1.197,4.581-2.092,1.557-3.814,1.064-4.732-.168-.668-.898-.627-1.807-.542-2.229l-2.926,2.178-1.022-1.373,8.008-5.961ZM111.488,639.563c1.09-.812,1.504-1.757.777-2.732-.43-.577-.977-.829-1.434-.907l-2.656,1.977c-.057.461.028,1.057.458,1.634.726.976,1.751.851,2.854.029Z"/><path d="M167.604,690.454l1.149,1.018-8.791,9.93-1.15-1.018,8.792-9.93Z"/><path d="M227.828,735.448l2.491,1.415c2.645,1.502,2.689,3.496,1.273,5.987-1.352,2.38-3.192,3.45-5.795,1.973l-2.49-1.415,4.521-7.96ZM225.595,742.977l.946.537c1.685.957,2.64-.176,3.438-1.581.806-1.419,1.281-2.806-.403-3.763l-.946-.537-3.035,5.344Z"/><path d="M232.538,746.474c.768-1.44,2.256-1.135,3.541-.449.648.347,1.28.829,1.587,1.138l.271-.508c.43-.805.628-1.516-.53-2.133-.875-.468-1.571-.387-1.963.348l-1.426-.762c.912-1.707,2.618-1.54,4.129-.733,1.623.867,2.34,2.139,1.406,3.889l-1.38,2.583c-.128.24-.089.37.165.506.17.091.446.184.639.232l-.535,1.002c-.314-.023-.87-.139-1.336-.387-.791-.423-.798-.952-.549-1.418l.061-.113c-.543.236-1.544.445-2.828-.24-1.215-.648-1.916-1.712-1.252-2.954ZM236.746,748.884l.423-.79c-.23-.214-.779-.579-1.316-.865-.832-.445-1.466-.584-1.782.009-.257.48-.017.88.675,1.25.791.422,1.555.485,2.001.396Z"/><path d="M243.684,751.014l1.21-2.419-2.019-1.01.608-1.216,2.018,1.009,1.468-2.935,1.531.767-1.468,2.934,3.106,1.553-.608,1.217-3.105-1.553-1.182,2.361c-.594,1.188-.572,1.718.487,2.247.587.294,1.195.437,1.731.473l-.615,1.23c-.559-.028-1.245-.157-2.09-.579-1.631-.816-2.176-1.875-1.073-4.079Z"/><path d="M250.425,755.63c.691-1.479,2.193-1.253,3.513-.637.667.312,1.323.76,1.646,1.052l.244-.521c.387-.826.546-1.547-.643-2.102-.898-.421-1.59-.302-1.942.452l-1.464-.685c.82-1.754,2.533-1.678,4.084-.953,1.666.779,2.451,2.012,1.611,3.809l-1.24,2.653c-.115.246-.068.374.191.496.174.081.455.159.65.197l-.481,1.029c-.315-.006-.876-.092-1.354-.315-.812-.379-.847-.908-.623-1.386l.055-.116c-.531.265-1.519.526-2.838-.09-1.246-.583-2.004-1.607-1.408-2.884ZM254.757,757.814l.379-.812c-.241-.201-.809-.537-1.359-.795-.855-.399-1.495-.504-1.779.104-.23.493.03.88.74,1.212.812.38,1.578.402,2.02.29Z"/><path d="M261.011,761.5l-.37.851-1.364-.593,4.127-9.487,1.569.683-1.601,3.68c.391-.178,1.266-.425,2.293.021,1.437.625,2.279,2.177,1.238,4.567-1.039,2.39-2.777,2.819-4.186,2.207-1.1-.479-1.567-1.327-1.707-1.929ZM265.291,760.52c.542-1.246.437-2.286-.679-2.771-.659-.287-1.264-.22-1.699-.06l-1.314,3.021c.18.427.543.916,1.203,1.203,1.114.484,1.947-.147,2.489-1.394Z"/><path d="M268.798,763.837c.611-1.513,2.123-1.368,3.473-.822.683.276,1.361.688,1.699.963l.216-.534c.342-.845.464-1.572-.753-2.064-.92-.371-1.604-.217-1.915.555l-1.498-.605c.726-1.795,2.44-1.81,4.026-1.168,1.706.689,2.555,1.878,1.811,3.718l-1.098,2.714c-.102.252-.049.377.219.485.178.071.463.135.658.163l-.426,1.053c-.314.011-.879-.045-1.368-.243-.831-.336-.894-.861-.696-1.351l.048-.119c-.515.292-1.487.606-2.837.061-1.275-.516-2.086-1.499-1.559-2.804ZM273.238,765.788l.336-.831c-.252-.188-.836-.493-1.398-.721-.875-.354-1.52-.425-1.771.198-.204.505.076.877.803,1.171.831.336,1.598.317,2.031.183Z"/><path d="M278.344,767.255l1.573.588c-.203.727.404,1.296,1.408,1.671.914.342,1.684.476,1.913-.139.247-.659-.718-1.14-1.962-1.878-1.205-.706-2.309-1.546-1.787-2.939.509-1.363,2.136-1.421,3.77-.811,1.633.61,2.864,1.565,2.362,3.273l-1.573-.588c.164-.759-.545-1.194-1.234-1.451-.913-.342-1.49-.353-1.658.097-.224.6.531,1.001,2.01,1.844,1.155.654,2.293,1.54,1.783,2.904-.6,1.603-2.314,1.577-4.172.883-1.769-.661-2.998-1.804-2.433-3.454Z"/><path d="M288.091,769.487c.92-2.679,2.998-2.912,4.648-2.346,1.71.589,3.145,2.029,2.233,4.678l-.125.363-5.237-1.8c-.355,1.181-.024,2.09,1.277,2.538.893.307,1.639.156,1.983-.452l1.665.572c-.911,1.616-2.658,1.625-4.111,1.125-1.938-.666-3.198-2.166-2.334-4.679ZM293.574,770.475c.217-1.076-.389-1.775-1.267-2.077s-1.786-.123-2.276.859l3.543,1.218Z"/><path d="M368.365,781.421l1.525.187-1.607,13.168-1.524-.187,1.606-13.168Z"/><path class="cls-1" d="M414.684,69.125c-190.538,0-345,154.462-345,345s154.462,345,345,345,345-154.462,345-345S605.222,69.125,414.684,69.125ZM414.684,690.125c-152.431,0-276-123.569-276-276s123.569-276,276-276,276,123.569,276,276-123.569,276-276,276Z"/><path d="M447.853,714.51l3.473-.417c2.383-.285,4.171.688,4.399,2.594.138,1.151-.372,1.938-1.312,2.493,1.01.201,2.158.869,2.336,2.357.234,1.946-1.342,3.424-3.723,3.709l-3.832.46-1.342-11.196ZM450.074,719.096l1.628-.195c1.687-.202,2.442-.796,2.306-1.928-.121-1.012-.844-1.67-2.631-1.456l-1.707.205.404,3.374ZM450.673,724.099l2.125-.255c1.806-.217,2.358-1.148,2.24-2.142-.134-1.111-1.004-1.651-2.731-1.444l-2.064.248.431,3.593Z"/><path d="M460.048,718.706c-.583-3.613.479-6.074,3.479-6.559,2.981-.481,4.694,1.471,5.269,5.024.584,3.613-.48,6.055-3.482,6.539-2.98.481-4.694-1.471-5.266-5.005ZM467.108,717.505c-.304-1.876-.942-4.326-3.39-3.931-2.449.396-2.284,2.922-1.98,4.798.299,1.855.938,4.306,3.387,3.91,2.448-.396,2.283-2.922,1.983-4.777Z"/><path d="M472.348,716.651c-.729-3.585.231-6.086,3.21-6.691,2.959-.601,4.748,1.279,5.465,4.806.729,3.586-.235,6.066-3.213,6.672-2.959.602-4.749-1.278-5.462-4.786ZM479.35,715.166c-.378-1.861-1.115-4.282-3.544-3.788-2.43.494-2.163,3.011-1.785,4.872.375,1.841,1.111,4.262,3.541,3.769,2.43-.494,2.162-3.011,1.788-4.853Z"/><path d="M487.043,709.075l-3.69.907-.34-1.379,9.033-2.221.339,1.379-3.729.917,2.354,9.576-1.612.396-2.354-9.576Z"/><path d="M495.931,705.326l1.596-.461,2.738,9.471,5.551-1.604.395,1.363-7.146,2.066-3.133-10.835Z"/><path d="M507.663,701.827l6.96-2.324.45,1.347-5.387,1.799,1.076,3.224,4.685-1.563.45,1.347-4.686,1.563,1.146,3.434,5.387-1.799.449,1.347-6.961,2.324-3.57-10.697Z"/><path d="M520.428,703.436c-1.284-3.384-.64-6.023,2.146-7.081,2-.759,3.956-.282,5.062,2.292l-1.495.567c-.746-1.513-1.635-2.053-3-1.534-2.373.9-1.8,3.313-1.098,5.164.809,2.131,1.947,3.944,4.134,3.114.972-.369,1.484-.991,1.847-1.728l-.887-2.336-2.468.937-.489-1.29,3.963-1.504,2.156,5.682-1.215.462-.439-1.159c-.139.651-.761,1.828-2.312,2.417-2.859,1.086-4.846-1.218-5.903-4.003Z"/><path d="M574.058,669.494l1.222-.763,8.663,13.88-1.223.763-8.662-13.88Z"/><path d="M626.388,644.088l2.018-1.885-5.764-6.169-2.017,1.885-.97-1.037,5.233-4.89.97,1.038-2.003,1.871,5.763,6.169,2.003-1.871.97,1.037-5.233,4.89-.97-1.038Z"/><path d="M631.488,627.493l-2.67,2.702-1.01-.998,6.534-6.612,1.01.998-2.698,2.73,7.011,6.928-1.166,1.181-7.011-6.929Z"/><path d="M637.093,619.656l4.945-5.421,1.049.957-3.826,4.195,2.511,2.29,3.328-3.648,1.048.957-3.327,3.648,2.673,2.438,3.827-4.195,1.048.957-4.944,5.421-8.331-7.6Z"/><path d="M645.282,610.52l1.88-2.234c1.867-2.219,3.932-2.809,5.646-1.366,1.393,1.172,1.533,2.807.82,4.245l5.682.207-1.34,1.591-5.235-.301-.966,1.147,3.214,2.704-1.069,1.271-8.631-7.264ZM650.712,612.92l.824-.979c1.365-1.622,1.235-2.804.256-3.628-.964-.812-2.166-.75-3.531.872l-.824.979,3.275,2.756Z"/><path d="M654.716,598.984l1.104-1.423,11.354,3.765-1.102,1.423-2.67-.931-2.696,3.478,1.567,2.354-1.078,1.392-6.479-10.057ZM659.876,604.146l2.181-2.813-1.699-.583-3.755-1.392,2.285,3.288.988,1.5Z"/><path d="M663.253,589.945l-2.206,3.093-1.156-.824,5.399-7.57,1.156.824-2.229,3.126,8.026,5.725-.963,1.352-8.027-5.725Z"/><path d="M667.538,581.308l4.015-6.143,1.188.776-3.107,4.754,2.846,1.86,2.703-4.135,1.188.776-2.702,4.135,3.03,1.98,3.107-4.754,1.188.776-4.015,6.144-9.44-6.171Z"/><path d="M695.196,526.14l.539-1.334,15.165,6.128-.539,1.335-15.165-6.129Z"/><path d="M722.521,474.778l.519-2.71-8.288-1.584-.518,2.71-1.395-.267,1.344-7.03,1.395.267-.514,2.69,8.287,1.584.514-2.69,1.395.267-1.344,7.03-1.395-.267Z"/><path d="M714.939,461.505l.326-2.176,3.906-.709,2.564-.384-2.342-1.099-3.529-1.822.317-2.116,11.153,1.669-.223,1.483-6.525-.977-3.084-.604,6.181,3.149-.189,1.266-6.832,1.201,3.126.326,6.525.978-.222,1.483-11.153-1.67Z"/><path d="M716.738,448.74l.354-3.281c.302-2.783,1.637-4.529,4.042-4.27,2.406.261,3.34,2.232,3.036,5.036l-.177,1.63,4.136.447-.179,1.65-11.213-1.213ZM722.582,447.703l.179-1.65c.229-2.107-.539-3.016-1.812-3.153-1.253-.136-2.216.585-2.443,2.692l-.179,1.65,4.255.461Z"/><path d="M717.952,436.536l.198-2.914c.196-2.894,1.515-4.589,3.751-4.437,1.816.124,2.895,1.36,3.168,2.942l4.709-3.188-.143,2.076-4.404,2.848-.102,1.497,4.191.285-.113,1.657-11.256-.767ZM723.753,435.266l.087-1.277c.144-2.115-.659-2.992-1.937-3.079-1.257-.085-2.19.673-2.334,2.789l-.088,1.277,4.271.29Z"/><path d="M724.357,425.361c-3.658-.104-5.877-1.606-5.791-4.645.086-3.019,2.324-4.336,5.922-4.233,3.658.103,5.855,1.605,5.77,4.644-.085,3.019-2.322,4.336-5.9,4.234ZM724.499,418.204c-1.899-.054-4.425.114-4.495,2.594-.069,2.479,2.442,2.789,4.341,2.843,1.879.053,4.404-.115,4.475-2.594.07-2.479-2.441-2.79-4.32-2.843Z"/><path d="M718.96,413.389l-.029-1.78,6.07-2.118,3.622-1.179-3.618-1.022-6.174-1.922-.027-1.74,11.346,3.779.029,1.841-11.219,4.142Z"/><path d="M728.531,399.31l-.141-2.756-8.429.432.142,2.756-1.418.073-.367-7.151,1.418-.072.141,2.736,8.43-.432-.141-2.736,1.418-.072.366,7.15-1.419.072Z"/><path d="M726.021,387.481l-.146-1.613c1.287-.197,1.926-1.119,1.775-2.771-.139-1.514-.826-2.455-1.962-2.352-.876.08-1.222.694-1.487,1.742l-.637,2.487c-.354,1.398-1.107,2.611-2.74,2.76-1.99.182-3.204-1.454-3.406-3.665-.207-2.27.745-3.942,3.053-4.173l.146,1.593c-1.586.225-1.863,1.374-1.762,2.489.133,1.454.861,2.171,1.777,2.087.756-.069,1.188-.63,1.422-1.575l.637-2.487c.472-1.87,1.172-2.777,2.705-2.917,2.29-.209,3.455,1.552,3.667,3.882.232,2.549-.792,4.309-3.042,4.514Z"/><path d="M716.741,375.375l-.963-7.274,1.407-.187.745,5.629,3.37-.446-.648-4.896,1.407-.187.647,4.896,3.588-.475-.745-5.629,1.407-.187.963,7.274-11.179,1.48Z"/><path d="M701.716,315.53l-.463-1.363,15.49-5.255.462,1.363-15.489,5.255Z"/><path d="M680.366,263.685l-1.644-2.86c-1.844-3.206-.314-5.239,2.477-6.843,2.878-1.654,5.486-1.932,7.299,1.224l1.645,2.86-9.776,5.619ZM688.084,257.334l-.817-1.422c-1.375-2.392-3.582-1.377-5.142-.48-1.577.907-3.548,2.293-2.173,4.686l.816,1.421,7.315-4.204Z"/><path d="M674.168,253.129l-3.915-6.211,1.202-.757,3.028,4.806,2.877-1.813-2.634-4.18,1.201-.757,2.635,4.18,3.062-1.931-3.028-4.806,1.201-.757,3.914,6.21-9.544,6.016Z"/><path d="M672.73,240.323c-3.147,2.166-5.803,1.978-7.525-.527-1.1-1.599-1.604-3.85.827-5.645l.907,1.318c-1.277,1.073-1.376,2.307-.525,3.542,1.439,2.094,3.529,1.142,5.342-.105,1.713-1.179,3.365-2.801,1.926-4.894-.964-1.401-2.032-1.613-3.469-.771l-.918-1.335c2.446-1.562,4.405-.408,5.584,1.306,1.78,2.587.867,5.036-2.148,7.11Z"/><path d="M668.424,226.876l-1.653-2.209-6.754,5.055,1.652,2.209-1.137.851-4.287-5.73,1.136-.851,1.642,2.192,6.754-5.055-1.641-2.192,1.137-.851,4.288,5.73-1.137.851Z"/><path d="M653.093,223.024l-2.082-2.561c-1.766-2.172-2.068-4.351-.189-5.877,1.877-1.527,3.936-.803,5.715,1.385l1.035,1.272,3.227-2.625,1.048,1.288-8.753,7.117ZM656.469,218.14l-1.048-1.288c-1.337-1.646-2.521-1.739-3.516-.932-.977.796-1.143,1.987.195,3.632l1.047,1.288,3.321-2.7Z"/><path d="M645.293,213.593l-1.099-1.245,3.615-3.188-2.514-2.85-3.614,3.188-1.099-1.244,8.46-7.462,1.099,1.245-3.795,3.347,2.514,2.851,3.795-3.348,1.098,1.245-8.46,7.462Z"/><path d="M637.099,204.464l-5.072-5.309,1.026-.981,3.927,4.107,2.459-2.35-3.415-3.573,1.026-.981,3.415,3.573,2.618-2.502-3.926-4.108,1.027-.981,5.073,5.309-8.159,7.797Z"/><path d="M628.554,195.671l-2.102-2.03c-2.086-2.016-2.533-4.116-.976-5.728,1.265-1.31,2.905-1.338,4.292-.526l.596-5.656,1.496,1.446-.66,5.204,1.08,1.042,2.919-3.021,1.194,1.153-7.84,8.116ZM631.322,190.416l-.922-.89c-1.525-1.474-2.713-1.425-3.602-.504-.876.906-.898,2.109.627,3.583l.922.89,2.975-3.079Z"/><path d="M579.611,158.131l-1.207-.782,8.887-13.73,1.208.782-8.888,13.73Z"/><path d="M530.698,130.705l-2.711-1.082c-2.692-1.075-3.9-2.85-3.069-4.93.674-1.689,2.182-2.337,3.771-2.111l-1.59-5.457,1.932.771,1.358,5.063,1.393.557,1.558-3.9,1.541.616-4.183,10.473ZM531.27,124.797l-1.188-.475c-1.969-.786-3.049-.292-3.523.896-.467,1.17-.031,2.291,1.937,3.077l1.188.475,1.587-3.974Z"/><path d="M519.277,126.262l-6.922-2.441.473-1.339,5.355,1.889,1.131-3.206-4.658-1.643.473-1.339,4.658,1.643,1.205-3.413-5.357-1.89.473-1.339,6.922,2.441-3.752,10.637Z"/><path d="M510.187,117.155c-1.066,3.46-3.198,5.148-6.047,4.271-2.046-.63-3.297-2.209-2.588-4.921l1.53.471c-.342,1.653.028,2.626,1.425,3.056,2.428.748,3.458-1.509,4.041-3.402.672-2.18.889-4.311-1.349-5-.994-.306-1.781-.13-2.52.229l-.736,2.391,2.523.777-.406,1.319-4.054-1.249,1.791-5.812,1.242.383-.365,1.186c.51-.429,1.725-.976,3.312-.487,2.925.901,3.077,3.941,2.2,6.791Z"/><path d="M498.105,111.799l-1.859,7.057-1.605-.423,1.861-7.057c.51-1.934.094-2.787-1.434-3.189-1.527-.403-2.311.135-2.82,2.068l-1.859,7.057-1.605-.423,1.86-7.057c.744-2.823,2.264-3.725,4.796-3.058,2.533.668,3.41,2.202,2.666,5.024Z"/><path d="M484.074,115.758l-2.852-.631c-2.832-.626-4.311-2.183-3.828-4.37.394-1.777,1.777-2.659,3.383-2.693l-2.451-5.131,2.031.449,2.16,4.779,1.465.324.906-4.102,1.621.358-2.436,11.016ZM483.683,109.833l-1.25-.276c-2.07-.458-3.057.204-3.333,1.454-.272,1.23.339,2.268,2.409,2.726l1.25.276.924-4.18Z"/><path d="M473.964,107.821c-.639,3.562-2.549,5.495-5.482,4.971-2.105-.378-3.539-1.792-3.163-4.569l1.575.282c-.139,1.682.346,2.602,1.783,2.859,2.5.447,3.248-1.918,3.598-3.866.401-2.244.358-4.385-1.945-4.797-1.023-.184-1.783.087-2.472.532l-.44,2.46,2.598.466-.242,1.358-4.174-.748,1.072-5.983,1.279.229-.219,1.22c.453-.487,1.592-1.178,3.227-.885,3.012.539,3.531,3.537,3.006,6.471Z"/><path d="M461.384,101.4l-2.734-.375-1.146,8.364,2.735.375-.192,1.407-7.097-.973.192-1.407,2.717.372,1.146-8.364-2.716-.372.193-1.407,7.096.972-.193,1.408Z"/><path d="M445.298,107.926l3.784.365-.137,1.413-9.259-.894.136-1.414,3.823.369.948-9.816,1.652.159-.948,9.817Z"/><path d="M433.001,108.373l-1.799-.102-3.338-11.49,1.799.102.746,2.728,4.395.248,1.051-2.625,1.758.099-4.611,11.041ZM434.327,101.195l-3.555-.201.483,1.73.983,3.883,1.414-3.747.674-1.665Z"/><path d="M420.704,106.47l3.801.063-.023,1.421-9.303-.156.024-1.42,3.841.064.166-9.862,1.66.027-.166,9.862Z"/><path d="M411.155,107.827l-7.336.168-.032-1.42,5.677-.13-.077-3.398-4.938.113-.033-1.419,4.938-.113-.083-3.618-5.677.131-.032-1.42,7.336-.168.258,11.274Z"/><path d="M350.023,116.229l-1.406.31-3.52-15.977,1.406-.31,3.52,15.977Z"/><path d="M296.154,131.761l-2.676,1.169c-2.656,1.162-4.769.775-5.666-1.277-.729-1.668-.131-3.195,1.146-4.168l-5.001-2.703,1.905-.833,4.561,2.591,1.373-.602-1.682-3.848,1.521-.665,4.518,10.336ZM292.349,127.203l-1.172.513c-1.943.85-2.35,1.966-1.837,3.139.505,1.154,1.608,1.633,3.551.783l1.173-.513-1.715-3.922Z"/><path d="M284.952,136.774l-6.602,3.209-.621-1.277,5.109-2.483-1.486-3.058-4.443,2.159-.621-1.277,4.443-2.159-1.582-3.257-5.109,2.483-.621-1.277,6.603-3.209,4.931,10.146Z"/><path d="M272.089,136.799c1.811,3.366,1.332,5.985-1.346,7.426-1.71.919-4.003,1.175-5.521-1.438l1.409-.758c.928,1.387,2.144,1.619,3.465.908,2.238-1.203,1.521-3.384.478-5.323-.985-1.832-2.418-3.652-4.656-2.448-1.498.805-1.825,1.845-1.145,3.364l-1.428.768c-1.285-2.604.074-4.425,1.908-5.411,2.767-1.487,5.102-.312,6.836,2.913Z"/><path d="M261.111,142.761c1.862,3.152,1.771,5.832-.847,7.379-2.601,1.536-4.909.344-6.741-2.757-1.863-3.152-1.762-5.815.856-7.362,2.601-1.536,4.909-.344,6.731,2.74ZM254.974,146.456c.967,1.636,2.455,3.685,4.592,2.423,2.137-1.263,1.061-3.555.094-5.191-.957-1.619-2.445-3.668-4.582-2.406-2.137,1.263-1.061,3.555-.104,5.175Z"/><path d="M252.745,154.438l-1.865,1.204-8.213-6.194,1.908,2.624,3.482,5.394-1.26.813-6.119-9.476,1.865-1.204,8.213,6.194-1.908-2.624-3.482-5.393,1.26-.814,6.119,9.476Z"/><path d="M238.404,154.235l-1.323.933c-.813-1.016-1.932-1.108-3.288-.152-1.242.875-1.713,1.941-1.057,2.873.507.719,1.211.712,2.252.418l2.473-.69c1.388-.392,2.814-.346,3.76.994,1.152,1.635.34,3.503-1.474,4.782-1.862,1.312-3.788,1.324-5.14-.56l1.307-.922c.987,1.261,2.121.927,3.036.281,1.193-.841,1.45-1.829.921-2.581-.438-.621-1.14-.714-2.076-.445l-2.473.691c-1.855.525-2.991.372-3.879-.887-1.324-1.879-.381-3.768,1.531-5.115,2.092-1.475,4.129-1.467,5.43.38Z"/><path d="M229.552,168.831l3.015-2.311.863,1.127-7.379,5.655-.864-1.127,3.047-2.335-5.994-7.823,1.316-1.01,5.996,7.823Z"/><path d="M222.902,175.856l-2.242,1.868c-2.229,1.856-4.364,2.074-5.799.354-1.164-1.398-1.016-3.032-.061-4.322l-5.557-1.202,1.598-1.331,5.102,1.217,1.152-.96-2.688-3.228,1.275-1.062,7.22,8.667ZM217.978,172.539l-.982.819c-1.629,1.357-1.709,2.543-.89,3.526.807.968,2,1.119,3.629-.238l.983-.819-2.74-3.288Z"/><path d="M208.889,178.145l4.89,5.419-1.232,1.112-4.89-5.419c-1.34-1.484-2.282-1.604-3.455-.546-1.173,1.059-1.151,2.009.188,3.493l4.891,5.419-1.232,1.112-4.891-5.419c-1.955-2.168-1.879-3.934.066-5.688,1.944-1.756,3.709-1.65,5.665.517Z"/><path d="M201.18,187.382c2.669,2.73,2.937,5.378.763,7.502-1.387,1.355-3.518,2.236-5.699.147l1.145-1.118c1.273,1.075,2.506.962,3.578-.087,1.815-1.774.521-3.67-1.016-5.242-1.453-1.487-3.333-2.838-5.148-1.062-1.216,1.188-1.242,2.276-.168,3.547l-1.158,1.132c-1.955-2.143-1.153-4.269.334-5.723,2.244-2.194,4.812-1.712,7.37.904Z"/><path d="M192.949,201.691l2.609-2.764,1.031.976-6.385,6.762-1.033-.975,2.637-2.792-7.169-6.771,1.14-1.207,7.17,6.771Z"/><path d="M158.848,250.104l-.769,1.217-13.83-8.737.77-1.217,13.829,8.737Z"/><path d="M132.009,299.32l-1.188,3.079c-1.009,2.612-2.75,3.956-5.008,3.085-2.258-.872-2.652-3.018-1.637-5.649l.592-1.53-3.883-1.498.598-1.549,10.525,4.062ZM126.093,298.816l-.598,1.549c-.764,1.979-.256,3.053.938,3.514,1.176.454,2.293.006,3.057-1.973l.598-1.549-3.994-1.541Z"/><path d="M126.845,313.296l-.58,1.705-11.961.137.58-1.705,2.826.011,1.417-4.166-2.247-1.715.566-1.666,9.398,7.399ZM120.286,310.095l-1.146,3.37,1.797-.002,4.003.094-3.23-2.366-1.423-1.096Z"/><path d="M123.855,322.424l-.826,2.8c-.822,2.781-2.477,4.148-4.625,3.515-1.744-.516-2.529-1.956-2.451-3.56l-5.287,2.089.588-1.995,4.917-1.822.425-1.438-4.028-1.189.47-1.592,10.818,3.193ZM117.918,322.403l-.362,1.228c-.6,2.033-.008,3.062,1.221,3.425,1.207.356,2.283-.181,2.884-2.214l.362-1.228-4.104-1.211Z"/><path d="M112.853,331.61l-.396,1.571c-1.279-.24-2.188.418-2.593,2.028-.371,1.474-.034,2.59,1.071,2.868.854.215,1.383-.25,1.981-1.151l1.425-2.137c.797-1.201,1.91-2.097,3.5-1.696,1.939.488,2.543,2.435,2,4.587-.557,2.211-2.008,3.475-4.264,2.928l.391-1.552c1.572.312,2.214-.681,2.487-1.767.356-1.415-.093-2.333-.985-2.558-.737-.186-1.33.201-1.864,1.016l-1.425,2.137c-1.064,1.608-2.026,2.232-3.52,1.856-2.23-.562-2.746-2.609-2.175-4.878.625-2.482,2.175-3.805,4.366-3.253Z"/><path d="M117.609,346.091l-1.5,7.186-1.391-.291,1.162-5.56-3.328-.695-1.01,4.836-1.391-.291,1.01-4.835-3.543-.74-1.162,5.56-1.389-.29,1.5-7.185,11.041,2.306Z"/><path d="M111.982,407.596l-.022,1.44-16.364-.262.023-1.44,16.363.262Z"/><path d="M106.761,464.392l.292,1.594c-1.265.312-1.817,1.288-1.519,2.92.273,1.495,1.044,2.37,2.165,2.165.865-.158,1.154-.801,1.325-1.868l.41-2.535c.227-1.424.867-2.7,2.48-2.995,1.967-.36,3.322,1.16,3.722,3.344.411,2.242-.387,3.994-2.665,4.432l-.287-1.574c1.559-.366,1.73-1.536,1.529-2.638-.264-1.436-1.053-2.084-1.957-1.918-.748.137-1.127.734-1.275,1.696l-.41,2.535c-.302,1.905-.918,2.871-2.432,3.148-2.262.414-3.58-1.234-4.002-3.536-.461-2.518.4-4.362,2.623-4.77Z"/><path d="M111.07,479.752l5.652-5.778.421,1.874-2.212,2.197-2.408,2.242,3.139,1.018,2.939,1.042.408,1.814-7.576-2.789-4.391.985-.363-1.62,4.391-.985Z"/><path d="M119.884,487.566l.574,2.144-8.415,5.918,3.083-1.012,6.201-1.66.387,1.448-10.895,2.918-.574-2.145,8.415-5.918-3.083,1.012-6.201,1.661-.388-1.449,10.896-2.917Z"/><path d="M122.601,502.364l-1.131-3.627,1.355-.423,2.767,8.877-1.355.422-1.143-3.665-9.411,2.934-.494-1.584,9.412-2.934Z"/><path d="M126.89,510.998l.559,1.562-4.537,1.622,1.277,3.577,4.539-1.621.559,1.562-10.621,3.795-.558-1.562,4.764-1.702-1.278-3.578-4.764,1.703-.559-1.563,10.619-3.795Z"/><path d="M131.115,522.511l2.744,6.81-1.317.53-2.124-5.27-3.154,1.271,1.848,4.583-1.318.531-1.846-4.583-3.359,1.353,2.124,5.27-1.317.531-2.744-6.81,10.465-4.217Z"/><path d="M128.195,536.542l.666,1.478c-1.152.607-1.455,1.688-.771,3.2.625,1.387,1.583,2.051,2.622,1.582.802-.361.929-1.055.837-2.133l-.211-2.56c-.121-1.438.193-2.831,1.689-3.505,1.823-.822,3.505.328,4.418,2.352.938,2.079.584,3.972-1.522,4.944l-.658-1.459c1.426-.73,1.312-1.908.851-2.93-.6-1.331-1.521-1.771-2.361-1.393-.692.312-.916.984-.83,1.955l.211,2.56c.166,1.923-.2,3.009-1.604,3.643-2.097.945-3.773-.339-4.735-2.473-1.053-2.334-.66-4.332,1.4-5.262Z"/><path d="M132.099,549.347l1.236,2.468,7.547-3.78-1.236-2.468,1.27-.636,3.207,6.402-1.27.636-1.228-2.45-7.547,3.78,1.228,2.449-1.27.637-3.207-6.402,1.27-.636Z"/><path d="M137.456,560.24l10.465,1.116-2.873-5.198,1.242-.687,3.859,6.983-1.084.6-10.465-1.116,2.969,5.373-1.242.688-3.957-7.158,1.086-.601Z"/><path d="M152.525,566.529l3.809,6.278-1.215.736-2.946-4.857-2.908,1.764,2.563,4.225-1.215.737-2.562-4.226-3.097,1.878,2.946,4.858-1.214.736-3.808-6.277,9.646-5.853Z"/><path d="M190.314,615.3l.971,1.064-12.095,11.021-.97-1.064,12.094-11.021Z"/><path d="M231.949,657.078l-3.05-2.268.848-1.14,7.464,5.549-.847,1.14-3.082-2.291-5.883,7.914-1.332-.991,5.882-7.913Z"/><path d="M240.521,661.541l2.413,1.646c2.396,1.635,3.19,3.63,1.927,5.48-1.025,1.504-2.639,1.809-4.141,1.243l.365,5.675-1.719-1.173-.227-5.24-1.238-.846-2.369,3.47-1.371-.936,6.359-9.32ZM238.679,667.187l1.058.722c1.752,1.195,2.914.947,3.636-.11.711-1.041.529-2.23-1.223-3.426l-1.058-.722-2.413,3.536Z"/><path d="M252.951,669.766l1.526.953-2.596,11.677-1.527-.953.656-2.75-3.732-2.33-2.184,1.797-1.492-.932,9.349-7.462ZM248.337,675.421l3.021,1.885.408-1.75,1.005-3.876-3.041,2.605-1.393,1.136Z"/><path d="M261.156,674.769l1.929,1.099-1.707,10.147,1.448-2.904,3.178-5.579,1.305.743-5.586,9.802-1.93-1.1,1.707-10.146-1.447,2.904-3.179,5.579-1.304-.743,5.586-9.802Z"/><path d="M267.562,687.582l1.438.745c-.527,1.191-.095,2.227,1.38,2.99,1.35.699,2.514.626,3.038-.387.405-.781.073-1.403-.667-2.192l-1.753-1.877c-.987-1.052-1.604-2.34-.849-3.797.92-1.775,2.953-1.917,4.924-.896,2.025,1.049,2.922,2.753,1.873,4.822l-1.422-.736c.666-1.457-.154-2.31-1.148-2.825-1.297-.672-2.293-.444-2.717.373-.35.675-.108,1.34.561,2.048l1.754,1.877c1.322,1.405,1.709,2.484,1,3.853-1.058,2.042-3.17,2.074-5.248.998-2.273-1.178-3.204-2.989-2.164-4.996Z"/><path d="M282.745,686.279l1.504.702-4.175,8.93,5.234,2.447-.602,1.286-6.737-3.15,4.775-10.215Z"/><path d="M296.349,692.401l1.66.696-.691,11.943-1.66-.695.207-2.82-4.059-1.702-1.867,2.124-1.623-.681,8.033-8.865ZM292.7,698.723l3.283,1.377.123-1.793.371-3.987-2.585,3.06-1.192,1.344Z"/><path d="M307.297,698.3l-3.56-1.325.494-1.33,8.713,3.242-.494,1.331-3.598-1.339-3.438,9.237-1.556-.579,3.438-9.237Z"/><path d="M316.742,700.185l6.978,2.279-.441,1.351-5.398-1.764-1.057,3.231,4.696,1.534-.44,1.35-4.697-1.533-1.123,3.44,5.398,1.764-.44,1.351-6.978-2.279,3.503-10.724Z"/><path d="M377.203,712.497l1.43.173-1.96,16.238-1.43-.172,1.96-16.239Z"/><path class="cls-1" d="M414.684,138.125c-152.431,0-276,123.569-276,276s123.569,276,276,276,276-123.569,276-276-123.569-276-276-276ZM414.684,621.125c-114.323,0-207-92.677-207-207s92.677-207,207-207,207,92.677,207,207-92.677,207-207,207Z"/><path d="M470.753,648.673c-.916-3.562.135-6.145,3.291-6.955,2.574-.661,4.605.014,5.513,2.98l-2.188.562c-.538-1.534-1.458-2.062-2.852-1.703-2.17.557-2.08,2.433-1.537,4.544.532,2.071,1.363,3.777,3.531,3.221,1.414-.363,1.945-1.264,1.684-2.848l2.188-.562c.606,3.003-.915,4.632-3.432,5.279-3.293.846-5.272-.917-6.197-4.519Z"/><path d="M483.405,646.671c-1.062-3.397.97-5.144,2.974-5.77,2.139-.668,4.657-.387,5.73,3.049,1.057,3.379-.969,5.144-2.974,5.771-2.138.668-4.662.367-5.73-3.05ZM490.029,644.601c-.591-1.89-1.674-2.473-3.125-2.02s-2.009,1.55-1.418,3.439c.584,1.871,1.674,2.474,3.125,2.021,1.45-.454,2.002-1.569,1.418-3.44Z"/><path d="M495.331,642.845c-1.135-3.057.062-4.951,1.861-5.619,1.312-.487,2.389-.118,2.865.132l-1.746-4.707,2.006-.744,4.502,12.133-1.744.647-.402-1.088c-.217.741-.859,1.77-2.266,2.291-1.838.682-3.942.012-5.076-3.045ZM501.992,642.572l-1.433-3.863c-.533-.229-1.285-.355-2.129-.043-1.425.529-1.629,1.82-1.037,3.414.592,1.595,1.588,2.44,3.014,1.912.844-.313,1.33-.899,1.585-1.42Z"/><path d="M507.124,638.419c-1.402-3.252.322-5.215,2.324-6.078,2.076-.895,4.614-.769,6,2.446l.189.44-6.355,2.74c.664,1.391,1.734,1.953,3.314,1.272,1.084-.467,1.647-1.232,1.453-2.086l2.021-.871c.518,2.261-1.09,3.737-2.854,4.498-2.352,1.014-4.779.688-6.094-2.362ZM513.024,634.721c-.704-1.178-1.853-1.314-2.917-.855-1.066.46-1.755,1.389-1.382,2.709l4.299-1.854Z"/><path d="M589.574,570.326l.963-1.07,12.157,10.946-.964,1.07-12.156-10.946Z"/><path d="M649.439,488.881l.823-2.655-7.336-2.273-.823,2.655-1.795-.557,2.309-7.45,1.795.557-.822,2.655,7.336,2.273.822-2.655,1.797.557-2.31,7.45-1.796-.557Z"/><path d="M646.087,475.951l.398-1.569,1.221.31c-.469-.429-1.189-1.25-.879-2.471.255-1.008,1.057-1.403,1.76-1.41-.349-.336-1.098-1.206-.793-2.408.34-1.337,1.621-1.59,3.326-1.157l5.91,1.499-.467,1.841-5.581-1.415c-1.046-.266-1.522-.18-1.659.363-.133.522.156,1.009.417,1.363l6.337,1.606-.467,1.842-5.581-1.415c-1.046-.266-1.522-.18-1.659.362-.133.523.151,1.028.412,1.384l6.337,1.606-.467,1.841-8.565-2.172Z"/><path d="M655.511,464.929c-2-.398-2.174-2.288-1.818-4.072.18-.902.527-1.831.785-2.31l-.705-.141c-1.117-.223-2.039-.203-2.359,1.405-.242,1.216.107,2.019,1.127,2.222l-.395,1.98c-2.373-.473-2.79-2.573-2.372-4.672.449-2.255,1.711-3.573,4.142-3.089l3.589.715c.333.066.475-.027.545-.381.047-.235.058-.6.046-.847l1.393.277c.086.384.15,1.09.021,1.737-.219,1.098-.851,1.298-1.498,1.169l-.156-.031c.479.564,1.092,1.686.736,3.47-.336,1.687-1.355,2.91-3.08,2.566ZM656.87,459.024l-1.098-.219c-.172.353-.411,1.141-.56,1.886-.23,1.157-.167,1.965.656,2.129.667.133,1.059-.299,1.25-1.26.219-1.098.019-2.035-.249-2.536Z"/><path d="M660.713,452.833l.298-2.038c1.039.091,1.762-.288,1.981-1.792.267-1.821-.671-2.181-1.839-2.352l-1.246-.183c.374.479.871,1.36.674,2.706-.298,2.039-1.91,3.521-4.918,3.08-3.028-.443-4.178-2.391-3.889-4.37.209-1.425,1.066-2.31,1.74-2.636l-1.127-.165.27-1.841,8.984,1.316c2.355.345,3.365,1.868,2.941,4.757-.283,1.939-1.11,3.86-3.87,3.517ZM658.462,446.257l-3.8-.557c-.502.392-.931.976-1.054,1.807-.223,1.524.771,2.337,2.354,2.568,1.584.232,2.748-.265,2.971-1.788.122-.831-.102-1.511-.471-2.03Z"/><path d="M657.577,439.801c-3.523-.333-4.418-2.787-4.213-4.958.212-2.25,1.541-4.415,5.025-4.087l.479.046-.649,6.89c1.538.085,2.546-.584,2.708-2.297.11-1.175-.291-2.036-1.132-2.276l.206-2.19c2.23.633,2.754,2.751,2.574,4.663-.24,2.549-1.691,4.521-4.998,4.21ZM657.168,432.851c-1.37.052-2.042.993-2.151,2.148-.108,1.154.375,2.205,1.713,2.512l.438-4.66Z"/><path d="M637.668,335.006l-.634-1.812,15.646-5.478.635,1.812-15.647,5.478Z"/><path d="M594.068,244.866l-1.515-1.567c.793-.905.896-1.979-.216-3.129-.959-.991-2.002-1.207-2.779-.456-.818.792-.54,1.886.434,2.892l.389.402-1.266,1.224-.375-.388c-.932-.963-1.817-1.219-2.564-.496-.705.682-.65,1.658.197,2.535.807.833,1.891,1.148,3.037.178l1.529,1.581c-1.938,1.707-4.178,1.203-5.915-.594-1.808-1.868-1.858-3.905-.492-5.227.805-.778,1.784-1.002,2.978-.516-.543-1.282-.27-2.465.622-3.327,1.495-1.445,3.679-.942,5.458.897,1.918,1.983,2.148,4.236.479,5.99Z"/><path d="M579.435,241.146l-2.615-2.441c-2.778-2.592-2.254-5.029.188-7.646,2.333-2.5,4.881-3.267,7.615-.716l2.616,2.441-7.804,8.361ZM584.333,232.645l-.994-.928c-1.769-1.65-3.258-.553-4.637.924-1.391,1.491-2.37,3.039-.602,4.689l.994.928,5.238-5.613Z"/><path d="M489.298,188.226l-1.367-.452,5.129-15.539,1.369.451-5.131,15.54Z"/><path d="M392.317,175.704l-2.743.31-1.447-3.18-.998-2.424-.393,2.581-.701,3.422-2.665.3-1.282-11.372,1.968-.223.655,5.806.156,3.526,1.266-6.445,1.551-.175,2.67,6.001-.633-3.472-.654-5.806,1.968-.223,1.283,11.373Z"/><path d="M379.13,170.205c.579,3.512-1.676,4.957-3.747,5.298-2.21.364-4.664-.265-5.249-3.816-.576-3.492,1.676-4.957,3.748-5.299,2.209-.363,4.666.285,5.248,3.817ZM372.284,171.331c.322,1.953,1.312,2.682,2.812,2.435s2.205-1.255,1.883-3.208c-.318-1.934-1.312-2.682-2.812-2.435s-2.201,1.274-1.883,3.208Z"/><path d="M364.208,172.219l.722,3.304,2.756-.603.363,1.661-2.757.603.877,4.007-2.092.457-.876-4.007-4.241.928-.363-1.662,4.241-.927-.704-3.226c-.355-1.622-.792-2.12-2.238-1.805-.802.176-1.506.514-2.057.9l-.367-1.681c.566-.411,1.336-.825,2.488-1.077,2.229-.487,3.59.117,4.248,3.127Z"/><path d="M353.256,172.604l-2.97.813,1.441,5.266,2.97-.813.448,1.64-5.033,1.378-1.891-6.905-2.719.745-.443-1.62,7.752-2.123.444,1.62ZM353.47,184.218l-2.526.691-.639-2.334,2.526-.691.639,2.334Z"/><path d="M342.415,178.5c1.117,3.381-.887,5.159-2.883,5.817-2.127.703-4.65.461-5.779-2.958-1.109-3.362.889-5.16,2.883-5.818,2.127-.702,4.657-.442,5.779,2.959ZM335.824,180.676c.621,1.881,1.714,2.447,3.158,1.97,1.443-.477,1.984-1.582,1.363-3.463-.614-1.861-1.713-2.446-3.157-1.97s-1.979,1.601-1.364,3.463Z"/><path d="M331.509,186.873l-1.734.673-.434-1.118c-.182.692-.65,1.753-2.049,2.296-1.566.607-3.206.472-4.24-2.195l-1.975-5.09,1.995-.774,1.823,4.699c.521,1.343,1.082,1.961,2.294,1.491.896-.348,1.261-.897,1.464-1.426l-2.336-6.022,1.994-.774,3.197,8.241Z"/><path d="M245.656,247.534l-1,1.035-11.758-11.371,1-1.034,11.758,11.37Z"/><path d="M184.538,326.713l-.714,2.039c-1.165-.303-1.956.142-2.472,1.613-.469,1.341-.281,2.317.586,2.621.718.251,1.23-.184,1.805-.915l1.639-2.139c.896-1.17,2.141-1.878,3.688-1.337,2.02.707,2.514,2.809,1.707,5.111-.753,2.151-2.33,3.57-4.76,2.762l.721-2.058c1.215.341,1.887-.123,2.31-1.331.469-1.34.133-2.136-.571-2.361-.611-.192-1.088-.042-1.682.746l-1.67,2.17c-.884,1.132-2.023,2.089-3.761,1.48-2.189-.767-2.567-3.018-1.734-5.396.853-2.435,2.55-3.832,4.909-3.007Z"/><path d="M181.427,338.833c3.417,1.003,3.742,3.662,3.15,5.678-.631,2.149-2.262,4.09-5.717,3.076-3.398-.997-3.742-3.662-3.15-5.678.63-2.149,2.281-4.084,5.717-3.076ZM179.474,345.495c1.9.558,2.986-.021,3.414-1.479.429-1.459-.174-2.532-2.074-3.09-1.881-.552-2.987.021-3.415,1.479-.428,1.458.194,2.537,2.075,3.089Z"/><path d="M176.813,351.327l5.312,1.262-.495,2.082-4.903-1.165c-1.4-.333-2.229-.222-2.529,1.043-.221.934.023,1.547.344,2.014l6.285,1.493-.496,2.082-8.599-2.044.431-1.809,1.167.277c-.468-.543-1.075-1.53-.729-2.989.388-1.634,1.431-2.907,4.213-2.246Z"/><path d="M179.39,364.606l-.336,1.829-1.18-.217c.494.518,1.152,1.473.881,2.947-.305,1.652-1.279,2.978-4.092,2.46l-5.37-.987.388-2.104,4.956.912c1.416.26,2.237.106,2.472-1.173.174-.943-.102-1.543-.446-1.993l-6.353-1.168.387-2.104,8.693,1.599Z"/><path d="M172.99,375.481c3.234.423,4.352,2.365,4.104,4.27-.182,1.388-1.011,2.168-1.454,2.473l4.979.651-.277,2.122-12.835-1.678.241-1.845,1.15.15c-.555-.537-1.164-1.585-.97-3.073.254-1.943,1.829-3.493,5.062-3.07ZM170.124,381.502l4.086.534c.451-.365.914-.97,1.031-1.862.197-1.508-.851-2.291-2.537-2.511-1.686-.221-2.899.266-3.097,1.773-.116.893.175,1.597.517,2.065Z"/><path d="M189.111,481.201l.426,1.375-15.627,4.843-.426-1.375,15.627-4.843Z"/><path d="M236.068,571.204l-2.529-2.809,1.398-1.258,6.557,7.282-1.396,1.258-2.529-2.809-7.104,6.396-1.499-1.665,7.104-6.396Z"/><path d="M238.394,581.402c2.507-2.498,4.965-1.617,6.504-.074,1.595,1.601,2.411,4.005-.066,6.475l-.34.339-4.885-4.899c-1.047,1.13-1.177,2.331.037,3.549.833.835,1.752,1.077,2.473.584l1.553,1.558c-1.91,1.312-3.874.361-5.229-.998-1.807-1.812-2.396-4.189-.047-6.532ZM244,585.525c.836-1.087.54-2.204-.278-3.025s-1.935-1.12-3.024-.288l3.303,3.313Z"/><path d="M249.865,592.338l.097-5.741,1.958,1.772-.15,3.832,3.74-.583,1.883,1.706-5.658.706-.113,5.997-1.958-1.772.153-4.045-3.994.566-1.943-1.759,5.986-.68Z"/><path d="M258.189,600.618l2.138-2.617-2.185-1.783,1.076-1.316,2.184,1.783,2.594-3.175,1.656,1.354-2.593,3.175,3.36,2.745-1.074,1.316-3.361-2.745-2.088,2.556c-1.049,1.285-1.168,1.937-.022,2.873.636.519,1.337.859,1.981,1.051l-1.088,1.332c-.672-.188-1.475-.533-2.389-1.28-1.766-1.441-2.138-2.882-.189-5.268Z"/><path d="M355.095,640.336l1.395.358-4.068,15.84-1.395-.358,4.068-15.84Z"/><path class="cls-1" d="M414.684,207.125c-114.323,0-207,92.677-207,207s92.677,207,207,207,207-92.677,207-207-92.677-207-207-207ZM414.684,552.125c-76.215,0-138-61.785-138-138s61.785-138,138-138,138,61.785,138,138-61.785,138-138,138Z"/><path d="M446.679,585.121l1.27-.258c.27,1.006,1.059,1.433,2.359,1.168,1.191-.242,1.879-.872,1.697-1.765-.141-.689-.658-.911-1.516-1.03l-2.033-.288c-1.143-.159-2.172-.651-2.434-1.937-.319-1.566.875-2.675,2.615-3.028,1.785-.364,3.199.246,3.585,2.061l-1.254.255c-.317-1.24-1.256-1.359-2.134-1.181-1.144.232-1.649.874-1.503,1.595.121.596.604.889,1.377.993l2.033.287c1.528.212,2.312.688,2.557,1.896.366,1.802-.931,2.882-2.765,3.256-2.006.408-3.495-.252-3.855-2.023Z"/><path d="M456.3,582.165c-.729-2.754.828-4.009,2.375-4.418s3.457-.069,4.174,2.638c.731,2.77-.84,4.029-2.371,4.435-1.562.412-3.467.038-4.178-2.654ZM461.634,580.74c-.449-1.702-1.39-2.314-2.721-1.963-1.33.352-1.845,1.349-1.395,3.051.445,1.687,1.389,2.314,2.72,1.963,1.331-.353,1.841-1.364,1.396-3.051Z"/><path d="M467.079,581.673l1.887-.617-1.502-4.594-1.887.616-.334-1.019,1.887-.617-.01-.03c-.677-2.069.502-3.616,2.859-4.388l.334,1.02c-1.354.442-2.539,1.302-1.992,2.975l.01.031,2.678-.876.334,1.02-2.678.875,1.502,4.595,2.678-.876.334,1.02-5.767,1.886-.333-1.02Z"/><path d="M477.55,576.174l-1.121-2.859-2.131.836-.391-.998,2.129-.836-1.18-3.008,1.176-.462,1.181,3.009,3.187-1.251.393.998-3.188,1.25,1.104,2.815c.521,1.325.996,1.705,2.128,1.261.655-.257,1.124-.596,1.467-.902l.393.998c-.168.187-.717.625-1.626.981-1.563.614-2.655.372-3.521-1.832Z"/><path d="M482.822,569.594l1.104-.51,3.257,4.999-.743-4.555,1.234-.569,2.995,3.517-1.688-5.723,1.075-.495,1.816,6.843-1.409.649-2.893-3.369.685,4.388-1.409.649-4.024-5.824Z"/><path d="M494.693,569.704c-.76-1.426.309-2.448,1.494-3.08.592-.315,1.379-.608,1.893-.7l-.287-.536c-.504-.946-1.029-1.626-2.355-.919-1.017.541-1.306,1.258-.854,2.104l-1.073.571c-.939-1.764.273-2.99,1.516-3.652,1.623-.865,2.905-.534,3.763,1.075l1.489,2.795c.129.239.258.279.512.144.197-.105.443-.29.639-.467l.422.79c-.174.219-.515.564-.952.798-.733.391-1.144.065-1.361-.344l-.06-.113c-.1.597-.513,1.487-1.74,2.142-1.186.632-2.396.606-3.043-.607ZM499.011,567.673l-.512-.96c-.383.097-1.014.342-1.635.673-.959.512-1.434,1.018-1.072,1.694.293.551.818.616,1.622.188.819-.437,1.318-1.029,1.597-1.595Z"/><path d="M504.281,565.292l1.545-.941-2.517-4.129-1.545.941-.558-.916,2.447-1.492.824,1.354c-.121-.751-.088-1.989,1.17-2.756.465-.283.964-.419,1.156-.442l.674,1.107c-.227.026-.682.173-1.119.439-1.039.633-1.289,1.516-1.328,2.159l1.875,3.076,2.584-1.575.558.916-5.209,3.175-.558-.916Z"/><path d="M511.265,558.117c-1.582-2.291-.621-4.024.709-4.943,1.291-.891,3.287-1.239,4.879,1.065l.146.211-4.556,3.146c.916,1.215,1.981,1.49,3.18.662.908-.627,1.242-1.44.873-2.256l1.053-.728c.818,1.691-.255,3.094-1.361,3.858-1.527,1.055-3.43,1.144-4.922-1.017ZM515.386,554.396c-.85-.949-1.881-1.034-2.83-.38-.947.655-1.233,1.649-.646,2.781l3.477-2.401Z"/><path d="M549.605,512.711l.687-.925,10.51,7.801-.687.926-10.51-7.802Z"/><path d="M575.398,466.164l.709-2.226c.703-2.21,2.049-3.275,3.757-2.732,1.388.442,1.989,1.607,1.901,2.889l4.264-1.581-.505,1.586-3.963,1.374-.364,1.144,3.201,1.019-.402,1.266-8.598-2.737ZM580.145,466.282l.311-.976c.515-1.616.058-2.449-.917-2.76-.961-.306-1.83.105-2.346,1.721l-.311.976,3.263,1.039Z"/><path d="M583.476,458.76c-2.698-.688-3.112-2.626-2.713-4.191.387-1.52,1.663-3.093,4.377-2.401l.248.063-1.368,5.363c1.489.313,2.473-.179,2.833-1.589.271-1.07-.012-1.901-.824-2.274l.316-1.24c1.727.738,1.839,2.5,1.507,3.803-.458,1.798-1.835,3.115-4.376,2.467ZM584.137,453.249c-1.265-.157-2.098.456-2.382,1.572-.285,1.116.153,2.053,1.338,2.521l1.044-4.093Z"/><path d="M587.139,449.089l.226-1.162c.842.115,1.418-.506,1.699-1.951.186-.957.135-1.782-.604-1.926-.832-.161-1.156.835-1.757,2.25-.515,1.22-1.136,2.321-2.438,2.067-1.366-.266-1.678-1.679-1.361-3.312.306-1.57,1.096-2.785,2.754-2.594l-.227,1.162c-.991-.014-1.322.852-1.484,1.684-.207,1.067-.068,1.697.48,1.804.816.159,1.162-1.028,1.682-2.28.545-1.295,1.164-2.299,2.482-2.043,1.508.293,1.836,1.791,1.504,3.502-.361,1.854-1.279,3.06-2.956,2.799Z"/><path d="M587.695,439.124c-2.822-.383-3.385-2.3-3.17-3.885.215-1.586,1.26-3.22,4.035-2.844,2.838.386,3.398,2.318,3.186,3.888-.217,1.602-1.292,3.216-4.051,2.841ZM588.421,433.653c-1.744-.236-2.67.396-2.854,1.761-.185,1.363.538,2.22,2.282,2.457,1.729.234,2.67-.397,2.854-1.761s-.554-2.223-2.282-2.457Z"/><path d="M589.773,428.68l-4.273-.331.098-1.26,4.002.311c1.309.102,2.076-.08,2.17-1.292.073-.94-.332-1.501-.602-1.763l-5.325-.413.098-1.26,6.952.539-.082,1.053-.924-.072c.468.374,1.004,1.121.906,2.364-.09,1.164-.707,2.304-3.02,2.124Z"/><path d="M592.04,418.848l.037-1.808-4.828-.101-.039,1.807-1.07-.022.06-2.862,1.583.033c-.697-.303-1.723-.996-1.691-2.468.011-.543.165-1.036.248-1.21l1.296.026c-.101.206-.222.668-.232,1.18-.026,1.215.584,1.899,1.104,2.278l3.598.076.062-3.022,1.072.022-.128,6.093-1.071-.022Z"/><path d="M589.734,409.095c-2.895.103-3.714-1.79-3.77-3.357-.047-1.343.438-3.01,2.513-3.211l.045,1.264c-1.163.169-1.489.901-1.455,1.876.05,1.424.862,2.195,2.621,2.134,1.774-.063,2.515-.89,2.464-2.312-.034-.976-.411-1.683-1.583-1.77l-.045-1.264c2.067.056,2.687,1.73,2.733,3.025.058,1.647-.661,3.515-3.523,3.615Z"/><path d="M589.298,399.051c-2.771.258-3.812-1.429-3.961-3.038-.146-1.561.528-3.472,3.316-3.73l.255-.023.513,5.512c1.507-.204,2.269-.998,2.134-2.448-.103-1.099-.647-1.787-1.539-1.865l-.118-1.274c1.875.115,2.571,1.737,2.695,3.076.172,1.848-.682,3.55-3.295,3.792ZM588.073,393.638c-1.243.276-1.823,1.134-1.716,2.28.105,1.147.833,1.883,2.106,1.926l-.391-4.206Z"/><path d="M568.427,343.421l-.473-1.05,11.932-5.38.475,1.05-11.934,5.38Z"/><path d="M540.314,298.218l-1.805-1.926c-2.023-2.159-1.205-4.023.674-5.784,1.938-1.816,3.918-2.511,5.91-.387l1.805,1.927-6.584,6.17ZM545.161,291.856l-.897-.957c-1.51-1.611-3.042-.416-4.093.569-1.062.995-2.343,2.437-.833,4.048l.897.957,4.926-4.617Z"/><path d="M537.8,287.559c-1.919,2.018-3.812,1.431-4.984.316-1.137-1.081-1.885-2.964.045-4.994l.177-.186,4.013,3.817c1.002-1.146,1.053-2.245-.002-3.249-.801-.761-1.664-.921-2.387-.394l-.928-.883c1.488-1.146,3.08-.382,4.055.545,1.346,1.279,1.822,3.124.012,5.026ZM533.315,284.286c-.755,1.026-.628,2.054.207,2.848.835.795,1.867.871,2.854.064l-3.062-2.912Z"/><path d="M528.452,283.594l-1.049-.89,1.263-3.816.778-2.256-2.076,1.114-3.604,1.875-1-.848,6.805-3.378,1.1.932-2.217,7.267Z"/><path d="M516.542,278.037l-1.289-.974.973-1.29,1.291.974-.975,1.29ZM523.927,272.162l-2.019-1.523-2.913,3.856,2.019,1.524-.646.855-3.027-2.286,3.559-4.712-1.84-1.389.646-.856,4.866,3.675-.646.855Z"/><path d="M514.659,268.314c-1.609,2.408-3.625,1.966-4.928,1.094-1.118-.747-2.186-2.115-1.137-3.917l1.052.703c-.543,1.043-.14,1.735.672,2.278,1.185.792,2.285.585,3.264-.879.987-1.478.749-2.561-.435-3.353-.812-.542-1.606-.65-2.362.25l-1.052-.703c1.254-1.645,2.977-1.168,4.055-.447,1.369.917,2.464,2.592.871,4.974Z"/><path d="M506.284,262.806c-1.412,2.399-3.391,2.258-4.783,1.438-1.352-.796-2.508-2.46-1.088-4.874l.131-.221,4.771,2.809c.717-1.343.518-2.426-.737-3.164-.952-.561-1.83-.52-2.415.157l-1.104-.648c1.191-1.454,2.915-1.071,4.074-.39,1.6.942,2.481,2.631,1.15,4.894ZM501.173,260.634c-.503,1.171-.146,2.143.848,2.727.992.584,2.016.425,2.795-.584l-3.643-2.143Z"/><path d="M448.931,247.217l-1.129-.229,2.609-12.832,1.129.23-2.609,12.831Z"/><path d="M395.314,237.736l.74,5.792-1.316.169-.741-5.792c-.203-1.587-.769-2.096-2.021-1.936-1.254.16-1.673.795-1.47,2.382l.74,5.792-1.316.169-.74-5.793c-.297-2.316.559-3.442,2.638-3.708s3.19.608,3.487,2.925Z"/><path d="M385.825,242.891l-1.039.193-.17-.913c-.239.55-.822,1.261-2.05,1.489-1.148.214-2.409-.089-2.835-2.37l-.785-4.216,1.244-.231.734,3.948c.24,1.29.614,1.986,1.811,1.764.928-.173,1.365-.71,1.548-1.037l-.979-5.255,1.243-.231,1.277,6.859Z"/><path d="M375.841,241.3c.697,2.812-.986,4.003-2.509,4.38-1.306.323-3.036.191-3.659-1.798l1.227-.304c.404,1.104,1.188,1.272,2.137,1.037,1.382-.342,1.971-1.295,1.547-3.004-.427-1.725-1.388-2.277-2.771-1.936-.947.234-1.562.75-1.405,1.914l-1.227.304c-.373-2.034,1.14-2.985,2.398-3.297,1.6-.396,3.574-.077,4.262,2.703Z"/><path d="M366.125,243.784c.842,2.721-.659,4.04-2.188,4.513-1.529.474-3.452.214-4.28-2.462-.847-2.736.671-4.061,2.185-4.528,1.544-.478,3.461-.184,4.284,2.478ZM360.855,245.43c.521,1.683,1.485,2.255,2.801,1.849,1.314-.407,1.787-1.425,1.267-3.106-.516-1.667-1.485-2.255-2.8-1.848-1.314.406-1.783,1.439-1.268,3.105Z"/><path d="M357.257,250.317l-.989.37-.325-.869c-.141.582-.593,1.383-1.762,1.819-1.094.409-2.387.329-3.199-1.844l-1.501-4.016,1.185-.442,1.404,3.761c.46,1.229.947,1.85,2.086,1.424.885-.331,1.223-.935,1.346-1.289l-1.869-5.004,1.184-.442,2.441,6.532Z"/><path d="M348.891,253.519l-1.259.555-2.879-2.803-1.688-1.686.094,2.354.112,4.059-1.2.529-.062-7.594,1.316-.581,5.565,5.167Z"/><path d="M338.038,254.584c1.269,2.477.09,4.069-1.349,4.806-1.396.715-3.419.8-4.695-1.691l-.116-.229,4.926-2.523c-.75-1.323-1.77-1.735-3.065-1.071-.982.503-1.419,1.266-1.159,2.121l-1.14.584c-.59-1.783.657-3.032,1.853-3.646,1.652-.846,3.549-.686,4.746,1.649ZM333.468,257.734c.719,1.052,1.73,1.271,2.755.745,1.024-.524,1.438-1.473,1.004-2.671l-3.759,1.926Z"/><path d="M330.437,262.546l-.91.534-.471-.8c-.037.598-.345,1.465-1.421,2.097-1.007.592-2.295.736-3.47-1.265l-2.172-3.696,1.09-.641,2.033,3.463c.665,1.131,1.253,1.657,2.301,1.042.814-.479,1.043-1.132,1.104-1.502l-2.706-4.606,1.089-.641,3.533,6.015Z"/><path d="M318.527,264.972l1.705,2.555,1.902-1.27.596.892-1.903,1.27,1.794,2.688-1.051.702-1.795-2.688-2.847,1.9-.595-.892,2.848-1.9-1.68-2.515c-.789-1.185-1.336-1.455-2.347-.78-.585.391-.972.821-1.241,1.194l-.596-.892c.125-.218.568-.764,1.379-1.305,1.397-.933,2.516-.929,3.83,1.04Z"/><path d="M310.482,268.363l-2.021,1.521,2.907,3.861,2.021-1.521.645.856-3.031,2.282-3.553-4.719-1.841,1.387-.646-.856,4.872-3.668.646.856ZM314.099,277.08l-1.291.972-.973-1.291,1.292-.973.972,1.292Z"/><path d="M304.23,276.186c1.84,2.173.975,3.974-.246,5.007-1.221,1.032-3.09,1.547-4.898-.59-1.85-2.186-.973-3.995.236-5.019,1.232-1.043,3.111-1.522,4.908.602ZM300.029,279.762c1.137,1.343,2.248,1.492,3.297.604,1.051-.888,1.087-2.008-.049-3.351-1.127-1.331-2.248-1.492-3.297-.604-1.051.889-1.076,2.021.049,3.352Z"/><path d="M298.645,285.661l-.766.727-.639-.672c.098.591-.005,1.504-.909,2.363-.847.805-2.068,1.237-3.666-.444l-2.953-3.108.917-.87,2.765,2.911c.904.951,1.596,1.331,2.477.493.685-.649.759-1.338.734-1.712l-3.68-3.873.916-.871,4.804,5.057Z"/><path d="M288.195,288.589c1.178,1.106.494,2.418-.426,3.397-.461.489-1.111,1.02-1.568,1.271l.443.417c.781.733,1.498,1.21,2.527.113.789-.839.832-1.61.133-2.268l.833-.886c1.457,1.369.702,2.921-.263,3.947-1.26,1.34-2.58,1.438-3.91.188l-2.308-2.169c-.198-.187-.334-.182-.531.027-.153.164-.327.418-.455.648l-.653-.613c.094-.264.307-.7.646-1.062.57-.606,1.062-.429,1.4-.111l.093.088c-.098-.597.008-1.573.961-2.588.921-.979,2.075-1.344,3.077-.401ZM284.755,291.899l.793.745c.332-.214.852-.648,1.333-1.162.745-.792,1.031-1.424.472-1.949-.455-.428-.973-.321-1.597.344-.636.676-.919,1.397-1.001,2.022Z"/><path d="M280.532,295.84l-1.551,1.853,6.195,5.187,1.551-1.853.81.678-2.362,2.821-7.004-5.863-1.551,1.853-.822-.688,3.912-4.674.822.688Z"/><path d="M255.611,350.164l1.094-2.839,1.061.409-2.676,6.946-1.061-.409,1.105-2.868-7.365-2.836.478-1.239,7.364,2.836Z"/><path d="M248.945,355.448c2.714.866,2.937,2.853,2.449,4.377-.486,1.524-1.799,2.953-4.467,2.102-2.729-.872-2.946-2.873-2.465-4.382.492-1.54,1.83-2.943,4.482-2.097ZM247.281,360.711c1.678.536,2.699.072,3.117-1.238.419-1.312-.145-2.28-1.822-2.816-1.661-.53-2.697-.071-3.116,1.239s.16,2.285,1.821,2.815Z"/><path d="M245.98,365.034c2.76.709,3.096,2.68,2.697,4.229-.397,1.551-1.627,3.053-4.34,2.355-2.774-.713-3.107-2.698-2.713-4.233.402-1.565,1.658-3.045,4.355-2.352ZM244.621,370.386c1.705.438,2.698-.084,3.041-1.417s-.276-2.269-1.981-2.707c-1.689-.434-2.699.084-3.041,1.417-.343,1.333.291,2.272,1.981,2.707Z"/><path d="M241.146,374.664l-.466,2.371,7.929,1.557.466-2.371,1.036.203-.709,3.611-8.965-1.76-.466,2.371-1.052-.207,1.174-5.981,1.053.206Z"/><path d="M247.784,434.08l.152,1.142-12.969,1.735-.152-1.142,12.969-1.735Z"/><path d="M262.755,487.315l.646,1.287-6.637,6.89-.646-1.286,1.594-1.604-1.578-3.146-2.238.317-.631-1.258,9.49-1.2ZM257.249,489.253l1.277,2.545,1.008-1.023,2.3-2.228-3.161.512-1.424.194Z"/><path d="M264.502,495.089l.526.915-.776.447c.6.079,1.466.431,2.049,1.442.742,1.29.579,3.027-1.71,4.345-2.205,1.269-3.85.626-4.615-.705-.526-.916-.428-1.803-.28-2.221l-3.106,1.788-.631-1.096,8.544-4.916ZM263.952,501.128c1.332-.766,1.951-1.806,1.266-2.999-.383-.665-.947-1.005-1.473-1.146l-3.273,1.884c-.141.524-.131,1.183.252,1.849.687,1.193,1.896,1.18,3.229.413Z"/><path d="M269.507,503.54l.58.883-.75.491c.604.045,1.488.345,2.129,1.321.816,1.244.754,2.988-1.453,4.436-2.129,1.396-3.807.85-4.648-.435-.579-.884-.533-1.775-.409-2.2l-2.997,1.966-.693-1.058,8.242-5.404ZM269.31,509.6c1.285-.842,1.844-1.916,1.09-3.067-.422-.643-1.006-.948-1.537-1.059l-3.158,2.07c-.11.531-.062,1.188.359,1.831.754,1.151,1.962,1.067,3.246.225Z"/><path d="M270.138,515.064l1.438,1.942,6.496-4.809-1.438-1.942.848-.629,2.19,2.959-7.345,5.437,1.438,1.942-.861.638-3.628-4.9.862-.638Z"/><path d="M276.294,523.186l1.617,1.943,3.715-3.093-1.618-1.942.823-.687,2.428,2.915-4.539,3.778,1.475,1.771-.824.687-3.9-4.687.824-.686ZM284.822,519.148l1.033,1.242-1.242,1.033-1.033-1.242,1.242-1.033Z"/><path d="M284.421,529.027c2.116-1.978,3.977-1.088,5.047.058.918.981,1.646,2.557.214,4.07l-.862-.923c.766-.891.531-1.657-.136-2.37-.972-1.041-2.091-1.09-3.377.112-1.298,1.213-1.312,2.321-.34,3.361.667.713,1.415.999,2.356.295l.862.923c-1.595,1.316-3.162.46-4.048-.487-1.125-1.203-1.809-3.083.283-5.039Z"/><path d="M290.183,537.517c1.115-1.168,2.421-.474,3.393.454.486.464,1.01,1.119,1.258,1.577l.42-.439c.74-.774,1.222-1.487.135-2.525-.833-.796-1.604-.846-2.267-.151l-.879-.84c1.381-1.446,2.926-.679,3.943.294,1.331,1.271,1.417,2.592.157,3.91l-2.188,2.291c-.188.196-.184.332.024.53.161.155.415.33.644.461l-.618.647c-.263-.096-.697-.312-1.056-.654-.602-.574-.421-1.065-.1-1.4l.088-.093c-.598.093-1.573-.021-2.58-.981-.971-.928-1.326-2.085-.375-3.08ZM293.464,540.983l.75-.786c-.211-.335-.641-.856-1.15-1.343-.786-.751-1.415-1.042-1.945-.487-.432.451-.328.97.33,1.599.672.641,1.391.93,2.016,1.018Z"/><path d="M299.73,544.938l1.992-2.338-1.74-1.483.695-.816,1.74,1.484,2.096-2.46.963.82-2.096,2.459,2.605,2.221-.695.815-2.605-2.22-1.961,2.301c-.924,1.084-1.035,1.683-.109,2.472.535.456,1.055.71,1.488.868l-.695.816c-.244-.061-.891-.338-1.633-.971-1.278-1.09-1.58-2.166-.045-3.969Z"/><path d="M305.204,551.755l2.016,1.525,2.917-3.852-2.016-1.526.647-.854,3.023,2.289-3.564,4.707,1.837,1.391-.647.854-4.859-3.68.646-.854ZM312.595,545.891l1.288.976-.976,1.288-1.288-.976.976-1.288Z"/><path d="M314.427,555.613c1.586-2.366,3.555-2.028,4.885-1.137,1.328.891,2.336,2.549.776,4.875-1.595,2.379-3.578,2.032-4.894,1.149-1.342-.899-2.318-2.575-.768-4.888ZM319.021,558.673c.98-1.462.818-2.571-.324-3.338s-2.23-.494-3.211.968c-.972,1.448-.819,2.572.324,3.338,1.143.767,2.239.481,3.211-.968Z"/><path d="M325.077,558.399l.91.537-.473.799c.542-.256,1.449-.408,2.523.227,1.006.594,1.758,1.65.578,3.648l-2.18,3.692-1.088-.643,2.041-3.459c.667-1.129.842-1.899-.205-2.518-.812-.479-1.495-.362-1.848-.236l-2.717,4.603-1.088-.643,3.545-6.008Z"/><path d="M380.13,576.828l1.127.232-2.633,12.818-1.129-.231,2.635-12.819Z"/><path class="cls-1" d="M414.684,276.125c-76.215,0-138,61.785-138,138s61.785,138,138,138,138-61.785,138-138-61.785-138-138-138ZM414.684,483.125c-38.108,0-69-30.892-69-69s30.892-69,69-69,69,30.892,69,69-30.892,69-69,69Z"/><path d="M451.745,515.048c-.742-1.856-.316-3.32.731-4.795l1.048-1.475c.701-.992,1.291-1.939.928-2.849-.371-.929-1.308-1.223-2.403-.784-1.151.461-1.782,1.36-1.288,2.864l-2.024.81c-.877-2.514.349-4.404,2.726-5.355,2.191-.877,4.252-.409,5.047,1.577.603,1.505.082,2.682-.942,4.212l-1.084,1.598c-.643.925-1.062,1.653-.902,2.321l5.608-2.244.684,1.709-7.837,3.136-.29-.725Z"/><path d="M462.164,507.727l1.913-1.048c.616.917,1.604,1.221,2.85.538,1.176-.645,1.539-1.688.904-2.846-.653-1.193-1.779-1.375-3.025-.692-.807.442-1.492,1.273-1.706,2.258l-1.475.307-2.517-5.968,6.388-3.499.903,1.649-4.773,2.614,1.062,2.521c.367-.703,1.023-1.337,1.797-1.76,2.018-1.105,4.146-.675,5.281,1.396,1.24,2.264.201,4.407-1.869,5.541-2.352,1.288-4.496.957-5.733-1.012Z"/><path d="M469.591,497.34l1.316-.941.732,1.024c-.081-.63-.1-1.722.925-2.454.847-.604,1.713-.389,2.255.06-.049-.481-.059-1.63.949-2.351,1.123-.802,2.264-.168,3.287,1.264l3.547,4.961-1.545,1.104-3.35-4.685c-.627-.879-1.046-1.12-1.502-.795-.438.314-.531.872-.562,1.312l3.802,5.319-1.545,1.104-3.349-4.685c-.628-.879-1.046-1.12-1.502-.795-.438.314-.548.884-.578,1.323l3.802,5.318-1.545,1.104-5.139-7.189Z"/><path d="M479.322,484.668l1.936-1.765,1.63,1.787-1.935,1.765-1.631-1.787ZM484.795,494.912l2.274-2.075-3.678-4.032-2.275,2.074-1.145-1.255,3.855-3.517,4.822,5.288,2.083-1.9,1.132,1.241-5.938,5.416-1.132-1.24Z"/><path d="M488.85,481.165l1.216-1.407.908.784c-.164-.697-.248-1.854.732-2.989,1.098-1.271,2.611-1.921,4.775-.051l4.133,3.57-1.4,1.62-3.814-3.296c-1.09-.941-1.875-1.225-2.726-.24-.628.727-.693,1.384-.624,1.945l4.889,4.224-1.398,1.62-6.69-5.78Z"/><path d="M511.897,412.111l-.03-1.92,16.583-.266.03,1.92-16.583.266Z"/><path d="M490.74,349.014l-2.514-2.797c-1.844-2.053-2.413-4.392-.449-6.156,1.979-1.777,4.215-.964,6.073,1.104l1.029,1.146,2.886-2.594,1.484,1.651-8.51,7.646ZM493.495,343.553l-1.043-1.16c-1.189-1.324-2.231-1.437-3.139-.621-.908.815-.893,1.851.297,3.174l1.043,1.161,2.842-2.554Z"/><path d="M487.823,335.571c-2.35,2.676-4.897,1.849-6.476.463-1.684-1.479-2.754-3.776-.378-6.481,2.336-2.66,4.897-1.849,6.476-.463,1.684,1.479,2.74,3.791.378,6.481ZM482.607,330.991c-1.307,1.488-1.24,2.717-.099,3.72,1.143,1.004,2.37.91,3.677-.578,1.293-1.473,1.24-2.717.098-3.72-1.142-1.003-2.382-.895-3.676.578Z"/><path d="M475.915,331.192l-1.336-.916.712-1.039c-.563.292-1.584.685-2.623-.028-.858-.588-.952-1.477-.716-2.139-.436.21-1.512.612-2.533-.089-1.139-.78-.934-2.069.062-3.521l3.448-5.03,1.567,1.074-3.257,4.75c-.61.891-.693,1.367-.232,1.684.445.305,1.002.201,1.425.079l3.697-5.394,1.567,1.074-3.257,4.75c-.61.891-.694,1.367-.232,1.684.445.305,1.019.213,1.44.091l3.697-5.394,1.568,1.073-4.998,7.291Z"/><path d="M467.639,320.413c-1.648,3.155-4.32,2.956-6.183,1.983-1.985-1.037-3.569-3.016-1.902-6.207,1.639-3.139,4.32-2.957,6.182-1.984,1.986,1.037,3.562,3.034,1.903,6.208ZM461.487,317.199c-.917,1.755-.562,2.934.786,3.638,1.347.703,2.517.321,3.434-1.434.908-1.737.562-2.934-.785-3.638s-2.527-.305-3.435,1.434Z"/><path d="M456.379,314.757c-1.153,3.049-3.3,3.691-5.097,3.012-1.309-.496-1.877-1.48-2.072-1.982l-1.777,4.695-2.002-.758,4.581-12.104,1.739.658-.41,1.086c.65-.418,1.811-.77,3.213-.239,1.834.694,2.979,2.582,1.825,5.632ZM451.179,310.585l-1.459,3.854c.251.522.734,1.111,1.576,1.43,1.422.538,2.424-.301,3.025-1.892.602-1.59.406-2.883-1.016-3.421-.842-.318-1.594-.196-2.127.028Z"/><path d="M444.462,310.476c-.85,3.457-3.492,3.899-5.531,3.397-2.176-.534-4.186-2.079-3.326-5.575.846-3.438,3.492-3.9,5.532-3.398,2.176.535,4.181,2.099,3.325,5.576ZM437.722,308.819c-.473,1.923.152,2.982,1.629,3.346s2.521-.286,2.994-2.209c.469-1.904-.152-2.983-1.628-3.347-1.477-.362-2.526.306-2.995,2.21Z"/><path d="M431.932,304.873l-2.164-.265-.662,5.419,2.163.265-.205,1.688-4.011-.49.243-1.985c-.496.927-1.518,2.031-3.245,1.82-.655-.08-1.231-.312-1.602-.579l.263-2.144c.404.312,1.061.553,1.636.623,1.39.17,2.309-.423,2.815-.945l.48-3.931-3.692-.451.204-1.668,7.98.976-.204,1.668Z"/><path d="M419.581,306.401c-.058,3.562-2.535,4.582-4.635,4.548-2.241-.035-4.545-1.093-4.488-4.693.058-3.541,2.535-4.582,4.636-4.548,2.24.035,4.544,1.113,4.487,4.693ZM412.64,306.29c-.032,1.98.814,2.874,2.334,2.898,1.521.024,2.395-.842,2.427-2.822.031-1.961-.814-2.875-2.335-2.899-1.52-.024-2.395.862-2.426,2.823Z"/><path d="M351.407,338.248l-1.445,1.264-10.916-12.472,1.444-1.265,10.917,12.473Z"/><path d="M311.747,393.747c3.65.474,5.658,2.409,5.238,5.643-.344,2.639-1.727,4.274-4.818,4.014l.291-2.242c1.625.07,2.457-.588,2.643-2.017.289-2.222-1.487-2.836-3.649-3.116-2.122-.276-4.017-.14-4.306,2.082-.188,1.448.451,2.277,2.02,2.623l-.291,2.241c-3.015-.553-3.963-2.572-3.627-5.151.438-3.372,2.811-4.557,6.5-4.076Z"/><path d="M307.99,406.996l5.461.087-.035,2.141-5.041-.08c-1.439-.023-2.225.264-2.246,1.564-.015.96.356,1.506.771,1.894l6.462.103-.035,2.141-8.842-.142.03-1.86,1.2.02c-.573-.43-1.381-1.263-1.356-2.763.026-1.681.771-3.149,3.632-3.104Z"/><path d="M307.468,419.286l.224,2.088c-.926.18-1.222,1.177-1.078,2.509.13,1.213.412,2.148,1.228,2.061.875-.094.871-1.44.998-3.244.115-1.742.435-3.446,2.283-3.645,1.81-.194,2.786,1.591,3.02,3.758.232,2.168-.146,4.078-2.336,4.475l-.225-2.088c.939-.241,1.029-1.276.932-2.191-.131-1.213-.441-1.863-1.038-1.799-.796.085-.821,1.154-.935,3.278-.084,1.658-.437,3.426-2.246,3.62-2.127.229-3.059-1.703-3.324-4.168-.252-2.347.336-4.36,2.498-4.653Z"/><path d="M310.558,434.07l3.293-.761-.635-2.747,1.656-.383.635,2.748,3.994-.923.482,2.085-3.994.922.977,4.229-1.656.383-.977-4.229-3.216.743c-1.617.373-2.11.815-1.777,2.258.185.799.531,1.499.924,2.044l-1.676.388c-.417-.561-.839-1.325-1.104-2.475-.514-2.222.073-3.589,3.074-4.282Z"/><path d="M313.695,443.774c3.347-1.212,5.18.74,5.895,2.714.762,2.105.594,4.634-2.791,5.858-3.327,1.204-5.18-.74-5.895-2.714-.762-2.105-.574-4.641,2.791-5.858ZM316.056,450.297c1.861-.674,2.396-1.782,1.879-3.211s-1.637-1.938-3.498-1.264c-1.842.667-2.396,1.781-1.879,3.21.518,1.429,1.656,1.932,3.498,1.265Z"/><path d="M322.017,453.334l.73,1.446-1.125.567c.636.016,1.719.163,2.287,1.288.469.928.123,1.753-.402,2.22.482.025,1.619.19,2.179,1.297.622,1.232-.179,2.264-1.749,3.058l-5.445,2.75-.857-1.695,5.143-2.598c.963-.486,1.266-.863,1.014-1.363-.244-.482-.781-.659-1.211-.756l-5.838,2.949-.856-1.696,5.142-2.597c.964-.487,1.267-.864,1.014-1.364-.243-.481-.789-.677-1.219-.773l-5.838,2.949-.857-1.696,7.891-3.985Z"/><path d="M377.531,501.911l1.781.717-6.186,15.382-1.781-.717,6.186-15.382Z"/></svg>