<?xml version="1.0" encoding="UTF-8"?><svg id="Layer_1" xmlns="http://www.w3.org/2000/svg" width="3.837in" height="3.837in" viewBox="0 0 276.25 276.25"><defs><style>.cls-1{fill:#40e0d0;opacity:.5;stroke:#231f20;stroke-miterlimit:10;stroke-width:.25px;}</style></defs><path class="cls-1" d="M138.103.125C61.887.125.103,61.91.103,138.125s61.785,138,138,138,138-61.785,138-138S214.318.125,138.103.125ZM138.103,207.125c-38.108,0-69-30.892-69-69s30.892-69,69-69,69,30.892,69,69-30.892,69-69,69Z"/><path d="M175.164,239.048c-.742-1.856-.316-3.32.731-4.795l1.048-1.475c.701-.992,1.291-1.939.928-2.849-.371-.929-1.308-1.223-2.403-.784-1.151.461-1.782,1.36-1.288,2.864l-2.024.81c-.877-2.514.349-4.404,2.726-5.355,2.191-.877,4.252-.409,5.047,1.577.603,1.505.082,2.682-.942,4.212l-1.084,1.598c-.643.925-1.062,1.653-.902,2.321l5.608-2.244.684,1.709-7.837,3.136-.29-.725Z"/><path d="M185.583,231.727l1.913-1.048c.616.917,1.604,1.221,2.85.538,1.176-.645,1.539-1.688.904-2.846-.653-1.193-1.779-1.375-3.025-.692-.807.442-1.492,1.273-1.706,2.258l-1.475.307-2.517-5.968,6.388-3.499.903,1.649-4.773,2.614,1.062,2.521c.367-.703,1.023-1.337,1.797-1.76,2.018-1.105,4.146-.675,5.281,1.396,1.24,2.264.201,4.407-1.869,5.541-2.352,1.288-4.496.957-5.733-1.012Z"/><path d="M193.01,221.34l1.316-.941.732,1.024c-.081-.63-.1-1.722.925-2.454.847-.604,1.713-.389,2.255.06-.049-.481-.059-1.63.949-2.351,1.123-.802,2.264-.168,3.287,1.264l3.547,4.961-1.545,1.104-3.35-4.685c-.627-.879-1.046-1.12-1.502-.795-.438.314-.531.872-.562,1.312l3.802,5.319-1.545,1.104-3.349-4.685c-.628-.879-1.046-1.12-1.502-.795-.438.314-.548.884-.578,1.323l3.802,5.318-1.545,1.104-5.139-7.189Z"/><path d="M202.741,208.669l1.936-1.765,1.63,1.787-1.935,1.765-1.631-1.787ZM208.214,218.912l2.274-2.075-3.678-4.032-2.275,2.074-1.145-1.255,3.855-3.517,4.822,5.288,2.083-1.9,1.132,1.241-5.938,5.416-1.132-1.24Z"/><path d="M212.269,205.166l1.216-1.407.908.784c-.164-.697-.248-1.854.732-2.989,1.098-1.271,2.611-1.921,4.775-.051l4.133,3.57-1.4,1.62-3.814-3.296c-1.09-.941-1.875-1.225-2.726-.24-.628.727-.693,1.384-.624,1.945l4.889,4.224-1.398,1.62-6.69-5.78Z"/><path d="M235.316,136.111l-.03-1.92,16.583-.266.03,1.92-16.583.266Z"/><path d="M214.159,73.014l-2.514-2.797c-1.844-2.053-2.413-4.392-.449-6.156,1.979-1.777,4.215-.964,6.073,1.104l1.029,1.146,2.886-2.594,1.484,1.651-8.51,7.646ZM216.914,67.553l-1.043-1.16c-1.189-1.324-2.231-1.437-3.139-.621-.908.815-.893,1.851.297,3.174l1.043,1.161,2.842-2.554Z"/><path d="M211.242,59.571c-2.35,2.676-4.897,1.849-6.476.463-1.684-1.479-2.754-3.776-.378-6.481,2.336-2.66,4.897-1.849,6.476-.463,1.684,1.479,2.74,3.791.378,6.481ZM206.026,54.991c-1.307,1.488-1.24,2.717-.099,3.72,1.143,1.004,2.37.91,3.677-.578,1.293-1.473,1.24-2.717.098-3.72-1.142-1.003-2.382-.895-3.676.578Z"/><path d="M199.334,55.192l-1.336-.916.712-1.039c-.563.292-1.584.685-2.623-.028-.858-.588-.952-1.477-.716-2.139-.436.21-1.512.612-2.533-.089-1.139-.78-.934-2.069.062-3.521l3.448-5.03,1.567,1.074-3.257,4.75c-.61.891-.693,1.367-.232,1.684.445.305,1.002.201,1.425.079l3.697-5.394,1.567,1.074-3.257,4.75c-.61.891-.694,1.367-.232,1.684.445.305,1.019.213,1.44.091l3.697-5.394,1.568,1.073-4.998,7.291Z"/><path d="M191.058,44.413c-1.648,3.155-4.32,2.956-6.183,1.983-1.985-1.037-3.569-3.016-1.902-6.207,1.639-3.139,4.32-2.957,6.182-1.984,1.986,1.037,3.562,3.034,1.903,6.208ZM184.906,41.199c-.917,1.755-.562,2.934.786,3.638,1.347.703,2.517.321,3.434-1.434.908-1.737.562-2.934-.785-3.638s-2.527-.305-3.435,1.434Z"/><path d="M179.798,38.757c-1.153,3.049-3.3,3.691-5.097,3.012-1.309-.496-1.877-1.48-2.072-1.982l-1.777,4.695-2.002-.758,4.581-12.104,1.739.658-.41,1.086c.65-.418,1.811-.77,3.213-.239,1.834.694,2.979,2.582,1.825,5.632ZM174.598,34.586l-1.459,3.854c.251.522.734,1.111,1.576,1.43,1.422.538,2.424-.301,3.025-1.892.602-1.59.406-2.883-1.016-3.421-.842-.318-1.594-.196-2.127.028Z"/><path d="M167.881,34.476c-.85,3.457-3.492,3.899-5.531,3.397-2.176-.534-4.186-2.079-3.326-5.575.846-3.438,3.492-3.9,5.532-3.398,2.176.535,4.181,2.099,3.325,5.576ZM161.141,32.819c-.473,1.923.152,2.982,1.629,3.346s2.521-.286,2.994-2.209c.469-1.904-.152-2.983-1.628-3.347-1.477-.362-2.526.306-2.995,2.21Z"/><path d="M155.351,28.874l-2.164-.265-.662,5.419,2.163.265-.205,1.688-4.011-.49.243-1.985c-.496.927-1.518,2.031-3.245,1.82-.655-.08-1.231-.312-1.602-.579l.263-2.144c.404.312,1.061.553,1.636.623,1.39.17,2.309-.423,2.815-.945l.48-3.931-3.692-.451.204-1.668,7.98.976-.204,1.668Z"/><path d="M143,30.401c-.058,3.562-2.535,4.582-4.635,4.548-2.241-.035-4.545-1.093-4.488-4.693.058-3.541,2.535-4.582,4.636-4.548,2.24.035,4.544,1.113,4.487,4.693ZM136.059,30.291c-.032,1.98.814,2.874,2.334,2.898,1.521.024,2.395-.842,2.427-2.822.031-1.961-.814-2.875-2.335-2.899-1.52-.024-2.395.862-2.426,2.823Z"/><path d="M74.827,62.248l-1.445,1.264-10.916-12.472,1.444-1.265,10.917,12.473Z"/><path d="M35.166,117.747c3.65.474,5.658,2.409,5.238,5.643-.344,2.639-1.727,4.274-4.818,4.014l.291-2.242c1.625.07,2.457-.588,2.643-2.017.289-2.222-1.487-2.836-3.649-3.116-2.122-.276-4.017-.14-4.306,2.082-.188,1.448.451,2.277,2.02,2.623l-.291,2.241c-3.015-.553-3.963-2.572-3.627-5.151.438-3.372,2.811-4.557,6.5-4.076Z"/><path d="M31.409,130.996l5.461.087-.035,2.141-5.041-.08c-1.439-.023-2.225.264-2.246,1.564-.015.96.356,1.506.771,1.894l6.462.103-.035,2.141-8.842-.142.03-1.86,1.2.02c-.573-.43-1.381-1.263-1.356-2.763.026-1.681.771-3.149,3.632-3.104Z"/><path d="M30.887,143.286l.224,2.088c-.926.18-1.222,1.177-1.078,2.509.13,1.213.412,2.148,1.228,2.061.875-.094.871-1.44.998-3.244.115-1.742.435-3.446,2.283-3.645,1.81-.194,2.786,1.591,3.02,3.758.232,2.168-.146,4.078-2.336,4.475l-.225-2.088c.939-.241,1.029-1.276.932-2.191-.131-1.213-.441-1.863-1.038-1.799-.796.085-.821,1.154-.935,3.278-.084,1.658-.437,3.426-2.246,3.62-2.127.229-3.059-1.703-3.324-4.168-.252-2.347.336-4.36,2.498-4.653Z"/><path d="M33.977,158.07l3.293-.761-.635-2.747,1.656-.383.635,2.748,3.994-.923.482,2.085-3.994.922.977,4.229-1.656.383-.977-4.229-3.216.743c-1.617.373-2.11.815-1.777,2.258.185.799.531,1.499.924,2.044l-1.676.388c-.417-.561-.839-1.325-1.104-2.475-.514-2.222.073-3.589,3.074-4.282Z"/><path d="M37.114,167.774c3.347-1.212,5.18.74,5.895,2.714.762,2.105.594,4.634-2.791,5.858-3.327,1.204-5.18-.74-5.895-2.714-.762-2.105-.574-4.641,2.791-5.858ZM39.475,174.297c1.861-.674,2.396-1.782,1.879-3.211s-1.637-1.938-3.498-1.264c-1.842.667-2.396,1.781-1.879,3.21.518,1.429,1.656,1.932,3.498,1.265Z"/><path d="M45.436,177.335l.73,1.446-1.125.567c.636.016,1.719.163,2.287,1.288.469.928.123,1.753-.402,2.22.482.025,1.619.19,2.179,1.297.622,1.232-.179,2.264-1.749,3.058l-5.445,2.75-.857-1.695,5.143-2.598c.963-.486,1.266-.863,1.014-1.363-.244-.482-.781-.659-1.211-.756l-5.838,2.949-.856-1.696,5.142-2.597c.964-.487,1.267-.864,1.014-1.364-.243-.481-.789-.677-1.219-.773l-5.838,2.949-.857-1.696,7.891-3.985Z"/><path d="M100.95,225.911l1.781.717-6.186,15.382-1.781-.717,6.186-15.382Z"/></svg>