<?xml version="1.0" encoding="UTF-8"?><svg id="Layer_1" xmlns="http://www.w3.org/2000/svg" width="9.587in" height="9.587in" viewBox="0 0 690.25 690.25"><defs><style>.cls-1{fill:#40e0d0;opacity:.5;stroke:#231f20;stroke-miterlimit:10;stroke-width:.25px;}</style></defs><path class="cls-1" d="M346.136.125C155.598.125,1.136,154.587,1.136,345.125s154.462,345,345,345,345-154.462,345-345S536.674.125,346.136.125ZM346.136,621.125c-152.431,0-276-123.569-276-276S193.705,69.125,346.136,69.125s276,123.569,276,276-123.569,276-276,276Z"/><path d="M379.305,645.51l3.473-.417c2.383-.285,4.171.688,4.399,2.594.138,1.151-.372,1.938-1.312,2.493,1.01.201,2.158.869,2.336,2.357.234,1.946-1.342,3.424-3.723,3.709l-3.832.46-1.342-11.196ZM381.526,650.096l1.628-.195c1.687-.202,2.442-.796,2.306-1.928-.121-1.012-.844-1.67-2.631-1.456l-1.707.205.404,3.374ZM382.126,655.099l2.125-.255c1.806-.217,2.358-1.148,2.24-2.142-.134-1.111-1.004-1.651-2.731-1.444l-2.064.248.431,3.593Z"/><path d="M391.501,649.706c-.583-3.613.479-6.074,3.479-6.559,2.981-.481,4.694,1.471,5.269,5.024.584,3.613-.48,6.055-3.482,6.539-2.98.481-4.694-1.471-5.266-5.005ZM398.56,648.505c-.304-1.876-.942-4.326-3.39-3.931-2.449.396-2.284,2.922-1.98,4.798.299,1.855.938,4.306,3.387,3.91,2.448-.396,2.283-2.922,1.983-4.777Z"/><path d="M403.8,647.651c-.729-3.585.231-6.086,3.21-6.691,2.959-.601,4.748,1.279,5.465,4.806.729,3.586-.235,6.066-3.213,6.672-2.959.602-4.749-1.278-5.462-4.786ZM410.802,646.166c-.378-1.861-1.115-4.282-3.544-3.788-2.43.494-2.163,3.011-1.785,4.872.375,1.841,1.111,4.262,3.541,3.769,2.43-.494,2.162-3.011,1.788-4.853Z"/><path d="M418.496,640.075l-3.69.907-.34-1.379,9.033-2.221.339,1.379-3.729.917,2.354,9.576-1.612.396-2.354-9.576Z"/><path d="M427.383,636.326l1.596-.461,2.738,9.471,5.551-1.604.395,1.363-7.146,2.066-3.133-10.835Z"/><path d="M439.116,632.827l6.96-2.324.45,1.347-5.387,1.799,1.076,3.224,4.685-1.563.45,1.347-4.686,1.563,1.146,3.434,5.387-1.799.449,1.347-6.961,2.324-3.57-10.697Z"/><path d="M451.88,634.436c-1.284-3.384-.64-6.023,2.146-7.081,2-.759,3.956-.282,5.062,2.292l-1.495.567c-.746-1.513-1.635-2.053-3-1.534-2.373.9-1.8,3.313-1.098,5.164.809,2.131,1.947,3.944,4.134,3.114.972-.369,1.484-.991,1.847-1.728l-.887-2.336-2.468.937-.489-1.29,3.963-1.504,2.156,5.682-1.215.462-.439-1.159c-.139.651-.761,1.828-2.312,2.417-2.859,1.086-4.846-1.218-5.903-4.003Z"/><path d="M505.51,600.494l1.222-.763,8.663,13.88-1.223.763-8.662-13.88Z"/><path d="M557.84,575.088l2.018-1.885-5.764-6.169-2.017,1.885-.97-1.037,5.233-4.89.97,1.038-2.003,1.871,5.763,6.169,2.003-1.871.97,1.037-5.233,4.89-.97-1.038Z"/><path d="M562.94,558.493l-2.67,2.702-1.01-.998,6.534-6.612,1.01.998-2.698,2.73,7.011,6.928-1.166,1.181-7.011-6.929Z"/><path d="M568.545,550.656l4.945-5.421,1.049.957-3.826,4.195,2.511,2.29,3.328-3.648,1.048.957-3.327,3.648,2.673,2.438,3.827-4.195,1.048.957-4.944,5.421-8.331-7.6Z"/><path d="M576.735,541.52l1.88-2.234c1.867-2.219,3.932-2.809,5.646-1.366,1.393,1.172,1.533,2.807.82,4.245l5.682.207-1.34,1.591-5.235-.301-.966,1.147,3.214,2.704-1.069,1.271-8.631-7.264ZM582.165,543.92l.824-.979c1.365-1.622,1.235-2.804.256-3.628-.964-.812-2.166-.75-3.531.872l-.824.979,3.275,2.756Z"/><path d="M586.169,529.984l1.104-1.423,11.354,3.765-1.102,1.423-2.67-.931-2.696,3.478,1.567,2.354-1.078,1.392-6.479-10.057ZM591.329,535.146l2.181-2.813-1.699-.583-3.755-1.392,2.285,3.288.988,1.5Z"/><path d="M594.706,520.945l-2.206,3.093-1.156-.824,5.399-7.57,1.156.824-2.229,3.126,8.026,5.725-.963,1.352-8.027-5.725Z"/><path d="M598.991,512.308l4.015-6.143,1.188.776-3.107,4.754,2.846,1.86,2.703-4.135,1.188.776-2.702,4.135,3.03,1.98,3.107-4.754,1.188.776-4.015,6.144-9.44-6.171Z"/><path d="M626.648,457.14l.539-1.334,15.165,6.128-.539,1.335-15.165-6.129Z"/><path d="M653.973,405.778l.519-2.71-8.288-1.584-.518,2.71-1.395-.267,1.344-7.03,1.395.267-.514,2.69,8.287,1.584.514-2.69,1.395.267-1.344,7.03-1.395-.267Z"/><path d="M646.391,392.505l.326-2.176,3.906-.709,2.564-.384-2.342-1.099-3.529-1.822.317-2.116,11.153,1.669-.223,1.483-6.525-.977-3.084-.604,6.181,3.149-.189,1.266-6.832,1.201,3.126.326,6.525.978-.222,1.483-11.153-1.67Z"/><path d="M648.19,379.74l.354-3.281c.302-2.783,1.637-4.529,4.042-4.27,2.406.261,3.34,2.232,3.036,5.036l-.177,1.63,4.136.447-.179,1.65-11.213-1.213ZM654.035,378.703l.179-1.65c.229-2.107-.539-3.016-1.812-3.153-1.253-.136-2.216.585-2.443,2.692l-.179,1.65,4.255.461Z"/><path d="M649.405,367.536l.198-2.914c.196-2.894,1.515-4.589,3.751-4.437,1.816.124,2.895,1.36,3.168,2.942l4.709-3.188-.143,2.076-4.404,2.848-.102,1.497,4.191.285-.113,1.657-11.256-.767ZM655.206,366.266l.087-1.277c.144-2.115-.659-2.992-1.937-3.079-1.257-.085-2.19.673-2.334,2.789l-.088,1.277,4.271.29Z"/><path d="M655.809,356.361c-3.658-.104-5.877-1.606-5.791-4.645.086-3.019,2.324-4.336,5.922-4.233,3.658.103,5.855,1.605,5.77,4.644-.085,3.019-2.322,4.336-5.9,4.234ZM655.952,349.204c-1.899-.054-4.425.114-4.495,2.594-.069,2.479,2.442,2.789,4.341,2.843,1.879.053,4.404-.115,4.475-2.594.07-2.479-2.441-2.79-4.32-2.843Z"/><path d="M650.413,344.389l-.029-1.78,6.07-2.118,3.622-1.179-3.618-1.022-6.174-1.922-.027-1.74,11.346,3.779.029,1.841-11.219,4.142Z"/><path d="M659.983,330.31l-.141-2.756-8.429.432.142,2.756-1.418.073-.367-7.151,1.418-.072.141,2.736,8.43-.432-.141-2.736,1.418-.072.366,7.15-1.419.072Z"/><path d="M657.473,318.481l-.146-1.613c1.287-.197,1.926-1.119,1.775-2.771-.139-1.514-.826-2.455-1.962-2.352-.876.08-1.222.694-1.487,1.742l-.637,2.487c-.354,1.398-1.107,2.611-2.74,2.76-1.99.182-3.204-1.454-3.406-3.665-.207-2.27.745-3.942,3.053-4.173l.146,1.593c-1.586.225-1.863,1.374-1.762,2.489.133,1.454.861,2.171,1.777,2.087.756-.069,1.188-.63,1.422-1.575l.637-2.487c.472-1.87,1.172-2.777,2.705-2.917,2.29-.209,3.455,1.552,3.667,3.882.232,2.549-.792,4.309-3.042,4.514Z"/><path d="M648.193,306.375l-.963-7.274,1.407-.187.745,5.629,3.37-.446-.648-4.896,1.407-.187.647,4.896,3.588-.475-.745-5.629,1.407-.187.963,7.274-11.179,1.48Z"/><path d="M633.169,246.53l-.463-1.363,15.49-5.255.462,1.363-15.489,5.255Z"/><path d="M611.818,194.685l-1.644-2.86c-1.844-3.206-.314-5.239,2.477-6.843,2.878-1.654,5.486-1.932,7.299,1.224l1.645,2.86-9.776,5.619ZM619.537,188.334l-.817-1.422c-1.375-2.392-3.582-1.377-5.142-.48-1.577.907-3.548,2.293-2.173,4.686l.816,1.421,7.315-4.204Z"/><path d="M605.621,184.129l-3.915-6.211,1.202-.757,3.028,4.806,2.877-1.813-2.634-4.18,1.201-.757,2.635,4.18,3.062-1.931-3.028-4.806,1.201-.757,3.914,6.21-9.544,6.016Z"/><path d="M604.182,171.323c-3.147,2.166-5.803,1.978-7.525-.527-1.1-1.599-1.604-3.85.827-5.645l.907,1.318c-1.277,1.073-1.376,2.307-.525,3.542,1.439,2.094,3.529,1.142,5.342-.105,1.713-1.179,3.365-2.801,1.926-4.894-.964-1.401-2.032-1.613-3.469-.771l-.918-1.335c2.446-1.562,4.405-.408,5.584,1.306,1.78,2.587.867,5.036-2.148,7.11Z"/><path d="M599.877,157.876l-1.653-2.209-6.754,5.055,1.652,2.209-1.137.851-4.287-5.73,1.136-.851,1.642,2.192,6.754-5.055-1.641-2.192,1.137-.851,4.288,5.73-1.137.851Z"/><path d="M584.545,154.024l-2.082-2.561c-1.766-2.172-2.068-4.351-.189-5.877,1.877-1.527,3.936-.803,5.715,1.385l1.035,1.272,3.227-2.625,1.048,1.288-8.753,7.117ZM587.921,149.14l-1.048-1.288c-1.337-1.646-2.521-1.739-3.516-.932-.977.796-1.143,1.987.195,3.632l1.047,1.288,3.321-2.7Z"/><path d="M576.746,144.593l-1.099-1.245,3.615-3.188-2.514-2.85-3.614,3.188-1.099-1.244,8.46-7.462,1.099,1.245-3.795,3.347,2.514,2.851,3.795-3.348,1.098,1.245-8.46,7.462Z"/><path d="M568.551,135.464l-5.072-5.309,1.026-.981,3.927,4.107,2.459-2.35-3.415-3.573,1.026-.981,3.415,3.573,2.618-2.502-3.926-4.108,1.027-.981,5.073,5.309-8.159,7.797Z"/><path d="M560.006,126.671l-2.102-2.03c-2.086-2.016-2.533-4.116-.976-5.728,1.265-1.31,2.905-1.338,4.292-.526l.596-5.656,1.496,1.446-.66,5.204,1.08,1.042,2.919-3.021,1.194,1.153-7.84,8.116ZM562.774,121.416l-.922-.89c-1.525-1.474-2.713-1.425-3.602-.504-.876.906-.898,2.109.627,3.583l.922.89,2.975-3.079Z"/><path d="M511.063,89.131l-1.207-.782,8.887-13.73,1.208.782-8.888,13.73Z"/><path d="M462.15,61.705l-2.711-1.082c-2.692-1.075-3.9-2.85-3.069-4.93.674-1.689,2.182-2.337,3.771-2.111l-1.59-5.457,1.932.771,1.358,5.063,1.393.557,1.558-3.9,1.541.616-4.183,10.473ZM462.722,55.797l-1.188-.475c-1.969-.786-3.049-.292-3.523.896-.467,1.17-.031,2.291,1.937,3.077l1.188.475,1.587-3.974Z"/><path d="M450.729,57.262l-6.922-2.441.473-1.339,5.355,1.889,1.131-3.206-4.658-1.643.473-1.339,4.658,1.643,1.205-3.413-5.357-1.89.473-1.339,6.922,2.441-3.752,10.637Z"/><path d="M441.639,48.155c-1.066,3.46-3.198,5.148-6.047,4.271-2.046-.63-3.297-2.209-2.588-4.921l1.53.471c-.342,1.653.028,2.626,1.425,3.056,2.428.748,3.458-1.509,4.041-3.402.672-2.18.889-4.311-1.349-5-.994-.306-1.781-.13-2.52.229l-.736,2.391,2.523.777-.406,1.319-4.054-1.249,1.791-5.812,1.242.383-.365,1.186c.51-.429,1.725-.976,3.312-.487,2.925.901,3.077,3.941,2.2,6.791Z"/><path d="M429.557,42.799l-1.859,7.057-1.605-.423,1.861-7.057c.51-1.934.094-2.787-1.434-3.189-1.527-.403-2.311.135-2.82,2.068l-1.859,7.057-1.605-.423,1.86-7.057c.744-2.823,2.264-3.725,4.796-3.058,2.533.668,3.41,2.202,2.666,5.024Z"/><path d="M415.526,46.758l-2.852-.631c-2.832-.626-4.311-2.183-3.828-4.37.394-1.777,1.777-2.659,3.383-2.693l-2.451-5.131,2.031.449,2.16,4.779,1.465.324.906-4.102,1.621.358-2.436,11.016ZM415.135,40.833l-1.25-.276c-2.07-.458-3.057.204-3.333,1.454-.272,1.23.339,2.268,2.409,2.726l1.25.276.924-4.18Z"/><path d="M405.417,38.821c-.639,3.562-2.549,5.495-5.482,4.971-2.105-.378-3.539-1.792-3.163-4.569l1.575.282c-.139,1.682.346,2.602,1.783,2.859,2.5.447,3.248-1.918,3.598-3.866.401-2.244.358-4.385-1.945-4.797-1.023-.184-1.783.087-2.472.532l-.44,2.46,2.598.466-.242,1.358-4.174-.748,1.072-5.983,1.279.229-.219,1.22c.453-.487,1.592-1.178,3.227-.885,3.012.539,3.531,3.537,3.006,6.471Z"/><path d="M392.836,32.4l-2.734-.375-1.146,8.364,2.735.375-.192,1.407-7.097-.973.192-1.407,2.717.372,1.146-8.364-2.716-.372.193-1.407,7.096.972-.193,1.408Z"/><path d="M376.751,38.926l3.784.365-.137,1.413-9.259-.894.136-1.414,3.823.369.948-9.816,1.652.159-.948,9.817Z"/><path d="M364.454,39.373l-1.799-.102-3.338-11.49,1.799.102.746,2.728,4.395.248,1.051-2.625,1.758.099-4.611,11.041ZM365.78,32.195l-3.555-.201.483,1.73.983,3.883,1.414-3.747.674-1.665Z"/><path d="M352.157,37.47l3.801.063-.023,1.421-9.303-.156.024-1.42,3.841.064.166-9.862,1.66.027-.166,9.862Z"/><path d="M342.607,38.827l-7.336.168-.032-1.42,5.677-.13-.077-3.398-4.938.113-.033-1.419,4.938-.113-.083-3.618-5.677.131-.032-1.42,7.336-.168.258,11.274Z"/><path d="M281.475,47.229l-1.406.31-3.52-15.977,1.406-.31,3.52,15.977Z"/><path d="M227.606,62.761l-2.676,1.169c-2.656,1.162-4.769.775-5.666-1.277-.729-1.668-.131-3.195,1.146-4.168l-5.001-2.703,1.905-.833,4.561,2.591,1.373-.602-1.682-3.848,1.521-.665,4.518,10.336ZM223.801,58.203l-1.172.513c-1.943.85-2.35,1.966-1.837,3.139.505,1.154,1.608,1.633,3.551.783l1.173-.513-1.715-3.922Z"/><path d="M216.405,67.774l-6.602,3.209-.621-1.277,5.109-2.483-1.486-3.058-4.443,2.159-.621-1.277,4.443-2.159-1.582-3.257-5.109,2.483-.621-1.277,6.603-3.209,4.931,10.146Z"/><path d="M203.542,67.799c1.811,3.366,1.332,5.985-1.346,7.426-1.71.919-4.003,1.175-5.521-1.438l1.409-.758c.928,1.387,2.144,1.619,3.465.908,2.238-1.203,1.521-3.384.478-5.323-.985-1.832-2.418-3.652-4.656-2.448-1.498.805-1.825,1.845-1.145,3.364l-1.428.768c-1.285-2.604.074-4.425,1.908-5.411,2.767-1.487,5.102-.312,6.836,2.913Z"/><path d="M192.563,73.761c1.862,3.152,1.771,5.832-.847,7.379-2.601,1.536-4.909.344-6.741-2.757-1.863-3.152-1.762-5.815.856-7.362,2.601-1.536,4.909-.344,6.731,2.74ZM186.426,77.456c.967,1.636,2.455,3.685,4.592,2.423,2.137-1.263,1.061-3.555.094-5.191-.957-1.619-2.445-3.668-4.582-2.406-2.137,1.263-1.061,3.555-.104,5.175Z"/><path d="M184.198,85.438l-1.865,1.204-8.213-6.194,1.908,2.624,3.482,5.394-1.26.813-6.119-9.476,1.865-1.204,8.213,6.194-1.908-2.624-3.482-5.393,1.26-.814,6.119,9.476Z"/><path d="M169.856,85.235l-1.323.933c-.813-1.016-1.932-1.108-3.288-.152-1.242.875-1.713,1.941-1.057,2.873.507.719,1.211.712,2.252.418l2.473-.69c1.388-.392,2.814-.346,3.76.994,1.152,1.635.34,3.503-1.474,4.782-1.862,1.312-3.788,1.324-5.14-.56l1.307-.922c.987,1.261,2.121.927,3.036.281,1.193-.841,1.45-1.829.921-2.581-.438-.621-1.14-.714-2.076-.445l-2.473.691c-1.855.525-2.991.372-3.879-.887-1.324-1.879-.381-3.768,1.531-5.115,2.092-1.475,4.129-1.467,5.43.38Z"/><path d="M161.004,99.831l3.015-2.311.863,1.127-7.379,5.655-.864-1.127,3.047-2.335-5.994-7.823,1.316-1.01,5.996,7.823Z"/><path d="M154.354,106.856l-2.242,1.868c-2.229,1.856-4.364,2.074-5.799.354-1.164-1.398-1.016-3.032-.061-4.322l-5.557-1.202,1.598-1.331,5.102,1.217,1.152-.96-2.688-3.228,1.275-1.062,7.22,8.667ZM149.43,103.539l-.982.819c-1.629,1.357-1.709,2.543-.89,3.526.807.968,2,1.119,3.629-.238l.983-.819-2.74-3.288Z"/><path d="M140.341,109.145l4.89,5.419-1.232,1.112-4.89-5.419c-1.34-1.484-2.282-1.604-3.455-.546-1.173,1.059-1.151,2.009.188,3.493l4.891,5.419-1.232,1.112-4.891-5.419c-1.955-2.168-1.879-3.934.066-5.688,1.944-1.756,3.709-1.65,5.665.517Z"/><path d="M132.632,118.382c2.669,2.73,2.937,5.378.763,7.502-1.387,1.355-3.518,2.236-5.699.147l1.145-1.118c1.273,1.075,2.506.962,3.578-.087,1.815-1.774.521-3.67-1.016-5.242-1.453-1.487-3.333-2.838-5.148-1.062-1.216,1.188-1.242,2.276-.168,3.547l-1.158,1.132c-1.955-2.143-1.153-4.269.334-5.723,2.244-2.194,4.812-1.712,7.37.904Z"/><path d="M124.401,132.691l2.609-2.764,1.031.976-6.385,6.762-1.033-.975,2.637-2.792-7.169-6.771,1.14-1.207,7.17,6.771Z"/><path d="M90.3,181.104l-.769,1.217-13.83-8.737.77-1.217,13.829,8.737Z"/><path d="M63.461,230.32l-1.188,3.079c-1.009,2.612-2.75,3.956-5.008,3.085-2.258-.872-2.652-3.018-1.637-5.649l.592-1.53-3.883-1.498.598-1.549,10.525,4.062ZM57.545,229.816l-.598,1.549c-.764,1.979-.256,3.053.938,3.514,1.176.454,2.293.006,3.057-1.973l.598-1.549-3.994-1.541Z"/><path d="M58.297,244.296l-.58,1.705-11.961.137.58-1.705,2.826.011,1.417-4.166-2.247-1.715.566-1.666,9.398,7.399ZM51.739,241.095l-1.146,3.37,1.797-.002,4.003.094-3.23-2.366-1.423-1.096Z"/><path d="M55.307,253.424l-.826,2.8c-.822,2.781-2.477,4.148-4.625,3.515-1.744-.516-2.529-1.956-2.451-3.56l-5.287,2.089.588-1.995,4.917-1.822.425-1.438-4.028-1.189.47-1.592,10.818,3.193ZM49.371,253.403l-.362,1.228c-.6,2.033-.008,3.062,1.221,3.425,1.207.356,2.283-.181,2.884-2.214l.362-1.228-4.104-1.211Z"/><path d="M44.305,262.61l-.396,1.571c-1.279-.24-2.188.418-2.593,2.028-.371,1.474-.034,2.59,1.071,2.868.854.215,1.383-.25,1.981-1.151l1.425-2.137c.797-1.201,1.91-2.097,3.5-1.696,1.939.488,2.543,2.435,2,4.587-.557,2.211-2.008,3.475-4.264,2.928l.391-1.552c1.572.312,2.214-.681,2.487-1.767.356-1.415-.093-2.333-.985-2.558-.737-.186-1.33.201-1.864,1.016l-1.425,2.137c-1.064,1.608-2.026,2.232-3.52,1.856-2.23-.562-2.746-2.609-2.175-4.878.625-2.482,2.175-3.805,4.366-3.253Z"/><path d="M49.061,277.091l-1.5,7.186-1.391-.291,1.162-5.56-3.328-.695-1.01,4.836-1.391-.291,1.01-4.835-3.543-.74-1.162,5.56-1.389-.29,1.5-7.185,11.041,2.306Z"/><path d="M43.434,338.596l-.022,1.44-16.364-.262.023-1.44,16.363.262Z"/><path d="M38.213,395.392l.292,1.594c-1.265.312-1.817,1.288-1.519,2.92.273,1.495,1.044,2.37,2.165,2.165.865-.158,1.154-.801,1.325-1.868l.41-2.535c.227-1.424.867-2.7,2.48-2.995,1.967-.36,3.322,1.16,3.722,3.344.411,2.242-.387,3.994-2.665,4.432l-.287-1.574c1.559-.366,1.73-1.536,1.529-2.638-.264-1.436-1.053-2.084-1.957-1.918-.748.137-1.127.734-1.275,1.696l-.41,2.535c-.302,1.905-.918,2.871-2.432,3.148-2.262.414-3.58-1.234-4.002-3.536-.461-2.518.4-4.362,2.623-4.77Z"/><path d="M42.522,410.752l5.652-5.778.421,1.874-2.212,2.197-2.408,2.242,3.139,1.018,2.939,1.042.408,1.814-7.576-2.789-4.391.985-.363-1.62,4.391-.985Z"/><path d="M51.336,418.566l.574,2.144-8.415,5.918,3.083-1.012,6.201-1.66.387,1.448-10.895,2.918-.574-2.145,8.415-5.918-3.083,1.012-6.201,1.661-.388-1.449,10.896-2.917Z"/><path d="M54.053,433.364l-1.131-3.627,1.355-.423,2.767,8.877-1.355.422-1.143-3.665-9.411,2.934-.494-1.584,9.412-2.934Z"/><path d="M58.342,441.998l.559,1.562-4.537,1.622,1.277,3.577,4.539-1.621.559,1.562-10.621,3.795-.558-1.562,4.764-1.702-1.278-3.578-4.764,1.703-.559-1.563,10.619-3.795Z"/><path d="M62.567,453.511l2.744,6.81-1.317.53-2.124-5.27-3.154,1.271,1.848,4.583-1.318.531-1.846-4.583-3.359,1.353,2.124,5.27-1.317.531-2.744-6.81,10.465-4.217Z"/><path d="M59.647,467.542l.666,1.478c-1.152.607-1.455,1.688-.771,3.2.625,1.387,1.583,2.051,2.622,1.582.802-.361.929-1.055.837-2.133l-.211-2.56c-.121-1.438.193-2.831,1.689-3.505,1.823-.822,3.505.328,4.418,2.352.938,2.079.584,3.972-1.522,4.944l-.658-1.459c1.426-.73,1.312-1.908.851-2.93-.6-1.331-1.521-1.771-2.361-1.393-.692.312-.916.984-.83,1.955l.211,2.56c.166,1.923-.2,3.009-1.604,3.643-2.097.945-3.773-.339-4.735-2.473-1.053-2.334-.66-4.332,1.4-5.262Z"/><path d="M63.551,480.347l1.236,2.468,7.547-3.78-1.236-2.468,1.27-.636,3.207,6.402-1.27.636-1.228-2.45-7.547,3.78,1.228,2.449-1.27.637-3.207-6.402,1.27-.636Z"/><path d="M68.909,491.24l10.465,1.116-2.873-5.198,1.242-.687,3.859,6.983-1.084.6-10.465-1.116,2.969,5.373-1.242.688-3.957-7.158,1.086-.601Z"/><path d="M83.977,497.529l3.809,6.278-1.215.736-2.946-4.857-2.908,1.764,2.563,4.225-1.215.737-2.562-4.226-3.097,1.878,2.946,4.858-1.214.736-3.808-6.277,9.646-5.853Z"/><path d="M121.766,546.3l.971,1.064-12.095,11.021-.97-1.064,12.094-11.021Z"/><path d="M163.402,588.078l-3.05-2.268.848-1.14,7.464,5.549-.847,1.14-3.082-2.291-5.883,7.914-1.332-.991,5.882-7.913Z"/><path d="M171.973,592.541l2.413,1.646c2.396,1.635,3.19,3.63,1.927,5.48-1.025,1.504-2.639,1.809-4.141,1.243l.365,5.675-1.719-1.173-.227-5.24-1.238-.846-2.369,3.47-1.371-.936,6.359-9.32ZM170.131,598.187l1.058.722c1.752,1.195,2.914.947,3.636-.11.711-1.041.529-2.23-1.223-3.426l-1.058-.722-2.413,3.536Z"/><path d="M184.404,600.766l1.526.953-2.596,11.677-1.527-.953.656-2.75-3.732-2.33-2.184,1.797-1.492-.932,9.349-7.462ZM179.79,606.421l3.021,1.885.408-1.75,1.005-3.876-3.041,2.605-1.393,1.136Z"/><path d="M192.608,605.769l1.929,1.099-1.707,10.147,1.448-2.904,3.178-5.579,1.305.743-5.586,9.802-1.93-1.1,1.707-10.146-1.447,2.904-3.179,5.579-1.304-.743,5.586-9.802Z"/><path d="M199.014,618.582l1.438.745c-.527,1.191-.095,2.227,1.38,2.99,1.35.699,2.514.626,3.038-.387.405-.781.073-1.403-.667-2.192l-1.753-1.877c-.987-1.052-1.604-2.34-.849-3.797.92-1.775,2.953-1.917,4.924-.896,2.025,1.049,2.922,2.753,1.873,4.822l-1.422-.736c.666-1.457-.154-2.31-1.148-2.825-1.297-.672-2.293-.444-2.717.373-.35.675-.108,1.34.561,2.048l1.754,1.877c1.322,1.405,1.709,2.484,1,3.853-1.058,2.042-3.17,2.074-5.248.998-2.273-1.178-3.204-2.989-2.164-4.996Z"/><path d="M214.198,617.279l1.504.702-4.175,8.93,5.234,2.447-.602,1.286-6.737-3.15,4.775-10.215Z"/><path d="M227.801,623.401l1.66.696-.691,11.943-1.66-.695.207-2.82-4.059-1.702-1.867,2.124-1.623-.681,8.033-8.865ZM224.153,629.723l3.283,1.377.123-1.793.371-3.987-2.585,3.06-1.192,1.344Z"/><path d="M238.75,629.3l-3.56-1.325.494-1.33,8.713,3.242-.494,1.331-3.598-1.339-3.438,9.237-1.556-.579,3.438-9.237Z"/><path d="M248.195,631.185l6.978,2.279-.441,1.351-5.398-1.764-1.057,3.231,4.696,1.534-.44,1.35-4.697-1.533-1.123,3.44,5.398,1.764-.44,1.351-6.978-2.279,3.503-10.724Z"/><path d="M308.656,643.497l1.43.173-1.96,16.238-1.43-.172,1.96-16.239Z"/></svg>