<?xml version="1.0" encoding="UTF-8"?><svg id="Layer_1" xmlns="http://www.w3.org/2000/svg" width="7.67in" height="7.67in" viewBox="0 0 552.25 552.25"><defs><style>.cls-1{fill:#40e0d0;opacity:.5;stroke:#231f20;stroke-miterlimit:10;stroke-width:.25px;}</style></defs><path class="cls-1" d="M276.125.125C123.694.125.125,123.694.125,276.125s123.569,276,276,276,276-123.569,276-276S428.556.125,276.125.125ZM276.125,483.125c-114.323,0-207-92.677-207-207s92.677-207,207-207,207,92.677,207,207-92.677,207-207,207Z"/><path d="M332.195,510.673c-.916-3.562.135-6.145,3.291-6.955,2.574-.661,4.605.014,5.513,2.98l-2.188.562c-.538-1.534-1.458-2.062-2.852-1.703-2.17.557-2.08,2.433-1.537,4.544.532,2.071,1.363,3.777,3.531,3.221,1.414-.363,1.945-1.264,1.684-2.848l2.188-.562c.606,3.003-.915,4.632-3.432,5.279-3.293.846-5.272-.917-6.197-4.519Z"/><path d="M344.846,508.671c-1.062-3.397.97-5.144,2.974-5.77,2.139-.668,4.657-.387,5.73,3.049,1.057,3.379-.969,5.144-2.974,5.771-2.138.668-4.662.367-5.73-3.05ZM351.47,506.601c-.591-1.89-1.674-2.473-3.125-2.02s-2.009,1.55-1.418,3.439c.584,1.871,1.674,2.474,3.125,2.021,1.45-.454,2.002-1.569,1.418-3.44Z"/><path d="M356.773,504.845c-1.135-3.057.062-4.951,1.861-5.619,1.312-.487,2.389-.118,2.865.132l-1.746-4.707,2.006-.744,4.502,12.133-1.744.647-.402-1.088c-.217.741-.859,1.77-2.266,2.291-1.838.682-3.942.012-5.076-3.045ZM363.434,504.572l-1.433-3.863c-.533-.229-1.285-.355-2.129-.043-1.425.529-1.629,1.82-1.037,3.414.592,1.595,1.588,2.44,3.014,1.912.844-.313,1.33-.899,1.585-1.42Z"/><path d="M368.566,500.42c-1.402-3.252.322-5.215,2.324-6.078,2.076-.895,4.614-.769,6,2.446l.189.44-6.355,2.74c.664,1.391,1.734,1.953,3.314,1.272,1.084-.467,1.647-1.232,1.453-2.086l2.021-.871c.518,2.261-1.09,3.737-2.854,4.498-2.352,1.014-4.779.688-6.094-2.362ZM374.465,496.721c-.704-1.178-1.853-1.314-2.917-.855-1.066.46-1.755,1.389-1.382,2.709l4.299-1.854Z"/><path d="M451.015,432.326l.963-1.07,12.157,10.946-.964,1.07-12.156-10.946Z"/><path d="M510.88,350.881l.823-2.655-7.336-2.273-.823,2.655-1.795-.557,2.309-7.45,1.795.557-.822,2.655,7.336,2.273.822-2.655,1.797.557-2.31,7.45-1.796-.557Z"/><path d="M507.529,337.951l.398-1.569,1.221.31c-.469-.429-1.189-1.25-.879-2.471.255-1.008,1.057-1.403,1.76-1.41-.349-.336-1.098-1.206-.793-2.408.34-1.337,1.621-1.59,3.326-1.157l5.91,1.499-.467,1.841-5.581-1.415c-1.046-.266-1.522-.18-1.659.363-.133.522.156,1.009.417,1.363l6.337,1.606-.467,1.842-5.581-1.415c-1.046-.266-1.522-.18-1.659.362-.133.523.151,1.028.412,1.384l6.337,1.606-.467,1.841-8.565-2.172Z"/><path d="M516.952,326.929c-2-.398-2.174-2.288-1.818-4.072.18-.902.527-1.831.785-2.31l-.705-.141c-1.117-.223-2.039-.203-2.359,1.405-.242,1.216.107,2.019,1.127,2.222l-.395,1.98c-2.373-.473-2.79-2.573-2.372-4.672.449-2.255,1.711-3.573,4.142-3.089l3.589.715c.333.066.475-.027.545-.381.047-.235.058-.6.046-.847l1.393.277c.086.384.15,1.09.021,1.737-.219,1.098-.851,1.298-1.498,1.169l-.156-.031c.479.564,1.092,1.686.736,3.47-.336,1.687-1.355,2.91-3.08,2.566ZM518.312,321.024l-1.098-.219c-.172.353-.411,1.141-.56,1.886-.23,1.157-.167,1.965.656,2.129.667.133,1.059-.299,1.25-1.26.219-1.098.019-2.035-.249-2.536Z"/><path d="M522.155,314.834l.298-2.038c1.039.091,1.762-.288,1.981-1.792.267-1.821-.671-2.181-1.839-2.352l-1.246-.183c.374.479.871,1.36.674,2.706-.298,2.039-1.91,3.521-4.918,3.08-3.028-.443-4.178-2.391-3.889-4.37.209-1.425,1.066-2.31,1.74-2.636l-1.127-.165.27-1.841,8.984,1.316c2.355.345,3.365,1.868,2.941,4.757-.283,1.939-1.11,3.86-3.87,3.517ZM519.904,308.257l-3.8-.557c-.502.392-.931.976-1.054,1.807-.223,1.524.771,2.337,2.354,2.568,1.584.232,2.748-.265,2.971-1.788.122-.831-.102-1.511-.471-2.03Z"/><path d="M519.019,301.801c-3.523-.333-4.418-2.787-4.213-4.958.212-2.25,1.541-4.415,5.025-4.087l.479.046-.649,6.89c1.538.085,2.546-.584,2.708-2.297.11-1.175-.291-2.036-1.132-2.276l.206-2.19c2.23.633,2.754,2.751,2.574,4.663-.24,2.549-1.691,4.521-4.998,4.21ZM518.61,294.851c-1.37.052-2.042.993-2.151,2.148-.108,1.154.375,2.205,1.713,2.512l.438-4.66Z"/><path d="M499.11,197.006l-.634-1.812,15.646-5.478.635,1.812-15.647,5.478Z"/><path d="M455.509,106.866l-1.515-1.567c.793-.905.896-1.979-.216-3.129-.959-.991-2.002-1.207-2.779-.456-.818.792-.54,1.886.434,2.892l.389.402-1.266,1.224-.375-.388c-.932-.963-1.817-1.219-2.564-.496-.705.682-.65,1.658.197,2.535.807.833,1.891,1.148,3.037.178l1.529,1.581c-1.938,1.707-4.178,1.203-5.915-.594-1.808-1.868-1.858-3.905-.492-5.227.805-.778,1.784-1.002,2.978-.516-.543-1.282-.27-2.465.622-3.327,1.495-1.445,3.679-.942,5.458.897,1.918,1.983,2.148,4.236.479,5.99Z"/><path d="M440.876,103.146l-2.615-2.441c-2.778-2.592-2.254-5.029.188-7.646,2.333-2.5,4.881-3.267,7.615-.716l2.616,2.441-7.804,8.361ZM445.775,94.645l-.994-.928c-1.769-1.65-3.258-.553-4.637.924-1.391,1.491-2.37,3.039-.602,4.689l.994.928,5.238-5.613Z"/><path d="M350.74,50.226l-1.367-.452,5.129-15.539,1.369.451-5.131,15.54Z"/><path d="M253.758,37.704l-2.743.31-1.447-3.18-.998-2.424-.393,2.581-.701,3.422-2.665.3-1.282-11.372,1.968-.223.655,5.806.156,3.526,1.266-6.445,1.551-.175,2.67,6.001-.633-3.472-.654-5.806,1.968-.223,1.283,11.373Z"/><path d="M240.572,32.205c.579,3.512-1.676,4.957-3.747,5.298-2.21.364-4.664-.265-5.249-3.816-.576-3.492,1.676-4.957,3.748-5.299,2.209-.363,4.666.285,5.248,3.817ZM233.726,33.332c.322,1.953,1.312,2.682,2.812,2.435s2.205-1.255,1.883-3.208c-.318-1.934-1.312-2.682-2.812-2.435s-2.201,1.274-1.883,3.208Z"/><path d="M225.65,34.219l.722,3.304,2.756-.603.363,1.661-2.757.603.877,4.007-2.092.457-.876-4.007-4.241.928-.363-1.662,4.241-.927-.704-3.226c-.355-1.622-.792-2.12-2.238-1.805-.802.176-1.506.514-2.057.9l-.367-1.681c.566-.411,1.336-.825,2.488-1.077,2.229-.487,3.59.117,4.248,3.127Z"/><path d="M214.698,34.604l-2.97.813,1.441,5.266,2.97-.813.448,1.64-5.033,1.378-1.891-6.905-2.719.745-.443-1.62,7.752-2.123.444,1.62ZM214.911,46.218l-2.526.691-.639-2.334,2.526-.691.639,2.334Z"/><path d="M203.857,40.501c1.117,3.381-.887,5.159-2.883,5.817-2.127.703-4.65.461-5.779-2.958-1.109-3.362.889-5.16,2.883-5.818,2.127-.702,4.657-.442,5.779,2.959ZM197.265,42.676c.621,1.881,1.714,2.447,3.158,1.97,1.443-.477,1.984-1.582,1.363-3.463-.614-1.861-1.713-2.446-3.157-1.97s-1.979,1.601-1.364,3.463Z"/><path d="M192.95,48.873l-1.734.673-.434-1.118c-.182.692-.65,1.753-2.049,2.296-1.566.607-3.206.472-4.24-2.195l-1.975-5.09,1.995-.774,1.823,4.699c.521,1.343,1.082,1.961,2.294,1.491.896-.348,1.261-.897,1.464-1.426l-2.336-6.022,1.994-.774,3.197,8.241Z"/><path d="M107.097,109.534l-1,1.035-11.758-11.371,1-1.034,11.758,11.37Z"/><path d="M45.98,188.713l-.714,2.039c-1.165-.303-1.956.142-2.472,1.613-.469,1.341-.281,2.317.586,2.621.718.251,1.23-.184,1.805-.915l1.639-2.139c.896-1.17,2.141-1.878,3.688-1.337,2.02.707,2.514,2.809,1.707,5.111-.753,2.151-2.33,3.57-4.76,2.762l.721-2.058c1.215.341,1.887-.123,2.31-1.331.469-1.34.133-2.136-.571-2.361-.611-.192-1.088-.042-1.682.746l-1.67,2.17c-.884,1.132-2.023,2.089-3.761,1.48-2.189-.767-2.567-3.018-1.734-5.396.853-2.435,2.55-3.832,4.909-3.007Z"/><path d="M42.868,200.834c3.417,1.003,3.742,3.662,3.15,5.678-.631,2.149-2.262,4.09-5.717,3.076-3.398-.997-3.742-3.662-3.15-5.678.63-2.149,2.281-4.084,5.717-3.076ZM40.915,207.495c1.9.558,2.986-.021,3.414-1.479.429-1.459-.174-2.532-2.074-3.09-1.881-.552-2.987.021-3.415,1.479-.428,1.458.194,2.537,2.075,3.089Z"/><path d="M38.254,213.327l5.312,1.262-.495,2.082-4.903-1.165c-1.4-.333-2.229-.222-2.529,1.043-.221.934.023,1.547.344,2.014l6.285,1.493-.496,2.082-8.599-2.044.431-1.809,1.167.277c-.468-.543-1.075-1.53-.729-2.989.388-1.634,1.431-2.907,4.213-2.246Z"/><path d="M40.831,226.606l-.336,1.829-1.18-.217c.494.518,1.152,1.473.881,2.947-.305,1.652-1.279,2.978-4.092,2.46l-5.37-.987.388-2.104,4.956.912c1.416.26,2.237.106,2.472-1.173.174-.943-.102-1.543-.446-1.993l-6.353-1.168.387-2.104,8.693,1.599Z"/><path d="M34.431,237.481c3.234.423,4.352,2.365,4.104,4.27-.182,1.388-1.011,2.168-1.454,2.473l4.979.651-.277,2.122-12.835-1.678.241-1.845,1.15.15c-.555-.537-1.164-1.585-.97-3.073.254-1.943,1.829-3.493,5.062-3.07ZM31.566,243.503l4.086.534c.451-.365.914-.97,1.031-1.862.197-1.508-.851-2.291-2.537-2.511-1.686-.221-2.899.266-3.097,1.773-.116.893.175,1.597.517,2.065Z"/><path d="M50.552,343.201l.426,1.375-15.627,4.843-.426-1.375,15.627-4.843Z"/><path d="M97.509,433.204l-2.529-2.809,1.398-1.258,6.557,7.282-1.396,1.258-2.529-2.809-7.104,6.396-1.499-1.665,7.104-6.396Z"/><path d="M99.835,443.402c2.507-2.498,4.965-1.617,6.504-.074,1.595,1.601,2.411,4.005-.066,6.475l-.34.339-4.885-4.899c-1.047,1.13-1.177,2.331.037,3.549.833.835,1.752,1.077,2.473.584l1.553,1.558c-1.91,1.312-3.874.361-5.229-.998-1.807-1.812-2.396-4.189-.047-6.532ZM105.442,447.525c.836-1.087.54-2.204-.278-3.025s-1.935-1.12-3.024-.288l3.303,3.313Z"/><path d="M111.306,454.338l.097-5.741,1.958,1.772-.15,3.832,3.74-.583,1.883,1.706-5.658.706-.113,5.997-1.958-1.772.153-4.045-3.994.566-1.943-1.759,5.986-.68Z"/><path d="M119.63,462.618l2.138-2.617-2.185-1.783,1.076-1.316,2.184,1.783,2.594-3.175,1.656,1.354-2.593,3.175,3.36,2.745-1.074,1.316-3.361-2.745-2.088,2.556c-1.049,1.285-1.168,1.937-.022,2.873.636.519,1.337.859,1.981,1.051l-1.088,1.332c-.672-.188-1.475-.533-2.389-1.28-1.766-1.441-2.138-2.882-.189-5.268Z"/><path d="M216.536,502.336l1.395.358-4.068,15.84-1.395-.358,4.068-15.84Z"/></svg>