<?xml version="1.0" encoding="UTF-8"?><svg id="Layer_1" xmlns="http://www.w3.org/2000/svg" width="5.753in" height="5.753in" viewBox="0 0 414.25 414.25"><defs><style>.cls-1{fill:#7fff00;opacity:.5;stroke:#231f20;stroke-miterlimit:10;stroke-width:.25px;}</style></defs><path class="cls-1" d="M207.125.125C92.802.125.125,92.802.125,207.125s92.677,207,207,207,207-92.677,207-207S321.448.125,207.125.125ZM207.125,345.125c-76.215,0-138-61.785-138-138s61.785-138,138-138,138,61.785,138,138-61.785,138-138,138Z"/><path d="M234.436,383.226l2.177-.372-1.14-6.658-2.178.372-.191-1.12,5.648-.967.191,1.12-2.161.37,1.14,6.658,2.162-.37.191,1.12-5.648.967-.191-1.12Z"/><path d="M243.163,375.686l1.029-.238.209.905c.216-.56.769-1.295,1.984-1.576,1.139-.263,2.412-.015,2.934,2.247l.965,4.179-1.231.285-.903-3.914c-.296-1.279-.699-1.958-1.885-1.685-.92.213-1.333.768-1.502,1.103l1.202,5.209-1.231.284-1.57-6.799Z"/><path d="M251.813,370.253l1.213-.355,1.76,6.002,2.541-3.896,1.612-.473-2.233,3.356,4.35,3.292-1.489.437-3.517-2.786-.898,1.313.746,2.549-1.213.355-2.871-9.794Z"/><path d="M265.423,378.726c1.521-.544,2.535-1.467,1.905-3.231l-1.821-5.095-2.547.91-.361-1.011,3.738-1.336,2.225,6.227c.766,2.141-.342,3.658-2.783,4.531l-.355-.995ZM263.892,366.404l1.522-.545.545,1.523-1.523.544-.544-1.522Z"/><path d="M272.204,370.495c-1.086-2.564.207-4.068,1.695-4.698,1.445-.611,3.471-.548,4.562,2.031l.1.236-5.1,2.159c.652,1.375,1.641,1.86,2.981,1.293,1.017-.431,1.508-1.16,1.312-2.033l1.18-.499c.459,1.822-.877,2.979-2.115,3.503-1.71.724-3.592.426-4.615-1.992ZM276.993,367.685c-.64-1.103-1.633-1.395-2.693-.945-1.062.449-1.543,1.366-1.197,2.593l3.891-1.647Z"/><path d="M283.471,366.194l-1.359-2.754-2.051,1.013-.475-.962,2.052-1.012-1.431-2.897,1.133-.56,1.431,2.897,3.069-1.515.475.961-3.069,1.515,1.338,2.711c.63,1.276,1.137,1.615,2.227,1.077.631-.312,1.069-.688,1.386-1.022l.475.961c-.151.199-.662.683-1.537,1.115-1.506.743-2.613.595-3.662-1.528Z"/><path d="M317.943,334.601l.864-.762,8.65,9.823-.865.762-8.649-9.823Z"/><path d="M346.964,303.772l1.29-1.946c1.28-1.934,2.868-2.591,4.361-1.602,1.214.804,1.475,2.09,1.038,3.298l4.534-.354-.919,1.387-4.188.238-.662,1.001,2.8,1.854-.733,1.107-7.521-4.983ZM351.498,305.183l.565-.854c.937-1.413.725-2.34-.129-2.905-.84-.557-1.789-.398-2.725,1.015l-.566.854,2.854,1.891Z"/><path d="M359.034,299.601l1.111-1.907-5.834-3.4-1.111,1.908-.981-.572,2.884-4.949.982.572-1.104,1.894,5.834,3.4,1.104-1.895.981.572-2.885,4.949-.981-.572Z"/><path d="M362.533,290.518l.587-1.156c.956.414,1.781.062,2.383-1.122.551-1.084.485-2.016-.328-2.429-.627-.318-1.123-.05-1.75.548l-1.49,1.414c-.835.796-1.861,1.298-3.031.703-1.427-.725-1.553-2.35-.748-3.934.826-1.626,2.184-2.354,3.846-1.528l-.58,1.142c-1.17-.522-1.847.139-2.252.938-.529,1.041-.342,1.837.314,2.17.543.275,1.073.079,1.635-.462l1.49-1.414c1.116-1.066,1.977-1.383,3.076-.825,1.641.834,1.68,2.522.832,4.192-.928,1.826-2.371,2.582-3.983,1.764Z"/><path d="M365.234,280.886c-2.684-1.173-3.879-2.953-2.905-5.182.969-2.215,3.023-2.521,5.662-1.367,2.684,1.172,3.865,2.946,2.891,5.175-.967,2.214-3.022,2.521-5.647,1.374ZM367.485,275.618c-1.394-.609-3.318-1.241-4.113.577s.977,2.802,2.369,3.411c1.379.603,3.303,1.233,4.098-.585.795-1.817-.976-2.802-2.354-3.403Z"/><path d="M373.553,233.263l.168-1.139,12.943,1.909-.168,1.14-12.943-1.91Z"/><path d="M382.104,190.858l-.149-1.288c1.197-.235,1.718-1.021,1.567-2.325-.143-1.225-.76-1.958-1.777-1.84-1.081.125-1.532,1.096-1.391,2.32l.033.286-1.049.122-.031-.271c-.139-1.192-.639-1.892-1.609-1.779-.938.109-1.411.89-1.281,2.002.114.986.664,1.841,2.059,1.775l.152,1.304c-2.097.131-3.116-1.298-3.316-3.015-.225-1.94.704-3.24,2.183-3.412.906-.105,1.608.248,2.101,1.158.251-1.028.992-1.727,2.057-1.851,1.543-.179,2.724.973,2.962,3.024.224,1.924-.532,3.462-2.509,3.788Z"/><path d="M374.581,181.318l-.455-2.601c-.511-2.916,1.195-4.027,3.732-4.473,2.617-.458,4.654.046,5.158,2.915l.455,2.601-8.891,1.558ZM382.123,178.648l-.226-1.293c-.382-2.175-2.319-2.014-3.738-1.766-1.434.252-3.295.757-2.914,2.932l.227,1.292,6.651-1.165Z"/><path d="M361.834,138.472l-1.123-2.389c-.952-2.027-.767-3.776.985-4.601,1.752-.823,3.21.136,4.17,2.178l.558,1.188,3.013-1.416.564,1.202-8.167,3.838ZM365.395,135.332l-.564-1.202c-.721-1.535-1.623-1.836-2.55-1.4-.912.429-1.271,1.321-.55,2.856l.565,1.202,3.099-1.456Z"/><path d="M364.675,126.101l-.861-1.59-4.249,2.304.862,1.59-.943.512-1.365-2.519,1.393-.756c-.756.083-1.991-.012-2.693-1.307-.259-.479-.369-.983-.383-1.176l1.141-.618c.014.229.137.69.381,1.141.58,1.069,1.449,1.362,2.089,1.435l3.165-1.717-1.441-2.659.942-.511,2.907,5.359-.943.512Z"/><path d="M350.71,120.018l-.851-1.375,1.375-.851.851,1.375-1.375.851ZM359.719,117.21l-1.33-2.15-4.111,2.543,1.332,2.15-.912.564-1.996-3.226,5.021-3.107-1.213-1.96.912-.564,3.209,5.186-.912.564Z"/><path d="M349.319,111.845l-.605-.864.759-.533c-.599.01-1.487-.227-2.204-1.247-.67-.956-.918-2.228.98-3.56l3.509-2.462.726,1.034-3.286,2.306c-1.073.753-1.552,1.381-.853,2.376.541.772,1.211.947,1.584.979l4.373-3.068.727,1.034-5.709,4.006Z"/><path d="M345.934,100.165l-2.411,1.904,1.419,1.796-.842.665-1.418-1.796-2.537,2.003-.783-.992,2.536-2.003-2.122-2.688.842-.665,2.121,2.688,2.374-1.874c1.118-.883,1.344-1.449.59-2.403-.437-.553-.896-.902-1.29-1.143l.842-.665c.227.106.807.505,1.412,1.271,1.041,1.318,1.127,2.434-.732,3.901Z"/><path d="M307.866,73.042l-.926-.688,7.801-10.509.926.687-7.801,10.51Z"/><path d="M271.659,51.084l-1.236-.485,2.881-7.342-4.305-1.689.416-1.057,5.539,2.174-3.295,8.399Z"/><path d="M265.324,40.952c-.503,1.536-1.98,1.475-3.259,1.057-.639-.209-1.395-.574-1.816-.881l-.189.578c-.334,1.02-.46,1.87.971,2.338,1.095.358,1.812.07,2.11-.842l1.156.378c-.622,1.901-2.349,1.876-3.687,1.438-1.75-.572-2.399-1.728-1.832-3.462l.984-3.013c.085-.258.023-.379-.25-.469-.213-.069-.518-.118-.781-.138l.279-.852c.278-.027.764-.02,1.236.135.791.259.839.779.695,1.221l-.041.122c.5-.342,1.43-.661,2.753-.229,1.278.418,2.098,1.309,1.67,2.617ZM260.865,39.241l-.338,1.035c.335.211.949.495,1.618.714,1.035.339,1.729.33,1.967-.4.194-.594-.122-1.017-.989-1.301-.882-.288-1.656-.238-2.258-.048Z"/><path d="M255.401,38.238l-1.145-.303c.17-.832-.412-1.449-1.836-1.825-.943-.25-1.77-.253-1.963.474-.217.82.757,1.21,2.129,1.904,1.185.594,2.242,1.287,1.903,2.571-.356,1.347-1.788,1.564-3.396,1.139-1.548-.409-2.708-1.278-2.406-2.92l1.146.302c-.08.989.762,1.377,1.581,1.594,1.052.278,1.69.182,1.833-.359.213-.805-.949-1.229-2.164-1.83-1.258-.631-2.219-1.315-1.875-2.614.393-1.486,1.909-1.714,3.596-1.269,1.826.483,2.969,1.48,2.598,3.137Z"/><path d="M245.493,37.028c-.555,2.729-2.471,3.238-4.055,2.916-1.538-.312-3.173-1.511-2.615-4.256l.052-.251,5.427,1.104c.24-1.503-.299-2.462-1.727-2.752-1.082-.22-1.9.104-2.232.935l-1.254-.255c.651-1.763,2.407-1.961,3.725-1.693,1.82.37,3.203,1.681,2.68,4.253ZM239.954,36.637c-.096,1.271.559,2.073,1.688,2.303,1.13.229,2.045-.254,2.453-1.461l-4.141-.842Z"/><path d="M235.638,32.696l-1.79-.258-.687,4.784,1.79.257-.152,1.061-2.836-.406.226-1.568c-.385.656-1.198,1.59-2.655,1.381-.538-.077-1.009-.29-1.172-.395l.184-1.283c.193.125.637.302,1.143.374,1.205.173,1.959-.35,2.397-.819l.512-3.563-2.993-.43.152-1.062,6.034.866-.152,1.062Z"/><path d="M225.669,33.797c-.248,2.886-2.227,3.471-3.789,3.336-1.34-.115-2.936-.799-2.885-2.883l1.26.108c.027,1.175.715,1.588,1.688,1.672,1.42.122,2.284-.591,2.436-2.345.152-1.771-.58-2.604-1.998-2.727-.973-.084-1.721.205-1.949,1.358l-1.26-.108c.305-2.046,2.043-2.459,3.335-2.348,1.643.142,3.409,1.081,3.163,3.936Z"/><path d="M215.147,32.215l-.123,4.285-1.264-.036.115-4.014c.037-1.312-.181-2.069-1.396-2.104-.943-.027-1.484.406-1.732.687l-.152,5.341-1.264-.036.2-6.972,1.056.03-.027.928c.35-.486,1.07-1.058,2.318-1.022,1.167.033,2.336.595,2.27,2.914Z"/><path d="M203.678,32.231l.086,3.07,2.286-.063.03,1.071-2.287.063.09,3.229-1.264.035-.09-3.23-3.422.095-.029-1.071,3.422-.095-.084-3.022c-.039-1.423-.357-1.942-1.572-1.908-.704.02-1.26.179-1.688.351l-.029-1.071c.221-.118.887-.345,1.861-.372,1.68-.046,2.625.552,2.689,2.919Z"/><path d="M159.138,46.514l-1.103.332-3.77-12.531,1.103-.332,3.77,12.531Z"/><path d="M116.966,56.752l-1.101.687c-.604-.85-1.493-.974-2.621-.271-1.032.644-1.457,1.474-.974,2.248.372.598.936.624,1.78.437l2.007-.441c1.127-.25,2.266-.148,2.96.965.847,1.358.114,2.814-1.394,3.755-1.548.966-3.086.888-4.082-.68l1.086-.677c.732,1.052,1.653.836,2.414.361.991-.618,1.241-1.396.852-2.021-.322-.517-.878-.622-1.639-.45l-2.007.441c-1.507.336-2.407.162-3.06-.884-.974-1.562-.135-3.028,1.455-4.02,1.738-1.084,3.365-.985,4.322.549Z"/><path d="M108.995,62.89c1.671,2.364.537,4.085-.742,4.99-1.098.775-2.757,1.282-4.062-.342l1.032-.729c.777.88,1.568.752,2.365.188,1.162-.821,1.363-1.923.348-3.36-1.024-1.449-2.121-1.615-3.283-.793-.797.562-1.182,1.266-.611,2.293l-1.032.729c-1.087-1.759-.024-3.194,1.032-3.942,1.346-.951,3.301-1.373,4.953.966Z"/><path d="M99.08,67.082l-1.413,1.126,3.009,3.778,1.413-1.126.668.839-2.239,1.783-.987-1.238c.214.729.336,1.961-.814,2.878-.426.339-.904.535-1.092.582l-.807-1.014c.223-.055.655-.256,1.056-.574.951-.758,1.088-1.664,1.047-2.306l-2.242-2.815-2.364,1.883-.668-.838,4.768-3.797.667.839Z"/><path d="M93.048,75.072c1.855,2.076,1.117,3.916-.088,4.993-1.17,1.045-3.107,1.64-4.974-.448l-.171-.191,4.129-3.69c-1.061-1.091-2.152-1.231-3.238-.261-.823.736-1.053,1.585-.585,2.348l-.954.854c-1.023-1.576-.133-3.103.869-3.998,1.385-1.237,3.262-1.562,5.012.395ZM89.423,79.278c.961.836,1.996.791,2.854.023.859-.768,1.019-1.79.296-2.84l-3.15,2.816Z"/><path d="M85.62,81.832c1.971,1.967,1.338,3.846.196,4.989-1.108,1.109-3.009,1.812-4.989-.166l-.182-.182,3.912-3.917c-1.121-1.029-2.219-1.107-3.248-.077-.779.781-.96,1.642-.45,2.376l-.905.906c-1.109-1.516-.307-3.089.643-4.04,1.312-1.313,3.167-1.744,5.023.11ZM82.241,86.235c1.007.78,2.036.678,2.851-.138.813-.815.915-1.845.134-2.852l-2.984,2.989Z"/><path d="M80.847,91.738l-.702.788-.693-.616c.147.58.121,1.5-.708,2.432-.776.872-1.958,1.405-3.69-.137l-3.201-2.851.84-.943,2.999,2.669c.979.872,1.7,1.192,2.509.285.628-.705.645-1.397.589-1.768l-3.991-3.553.841-.943,5.209,4.637Z"/><path d="M74.391,99.17l-.656.828-.701-.557c.146.586.142,1.521-.584,2.437-.924,1.167-2.598,1.657-4.667.018-1.994-1.579-2.005-3.343-1.052-4.547.655-.828,1.517-1.064,1.959-1.082l-2.811-2.225.785-.991,7.727,6.119ZM68.577,100.893c1.205.953,2.4,1.146,3.254.066.478-.602.584-1.252.521-1.792l-2.96-2.344c-.54.062-1.147.315-1.625.917-.854,1.079-.394,2.198.81,3.152Z"/><path d="M63.639,103.42l-1.04,1.479,3.954,2.778,1.039-1.479.877.617-1.646,2.343-1.296-.91c.411.64.875,1.788.028,2.992-.312.445-.716.769-.883.866l-1.061-.745c.199-.115.557-.43.852-.849.699-.995.575-1.904.354-2.509l-2.945-2.07-1.739,2.475-.877-.617,3.506-4.987.877.616Z"/><path d="M57.893,111.787l-1.333,2.148,4.106,2.548,1.332-2.147.912.565-2,3.222-5.018-3.113-1.215,1.958-.91-.565,3.215-5.181.91.565ZM64.417,118.604l-.853,1.373-1.374-.853.854-1.373,1.373.853Z"/><path d="M57.708,123.498l-.505.927-.815-.443c.275.532.459,1.434-.137,2.53-.559,1.025-1.588,1.813-3.625.705l-3.768-2.049.604-1.11,3.527,1.919c1.152.627,1.928.775,2.509-.293.451-.829.31-1.507.172-1.855l-4.694-2.553.604-1.11,6.127,3.333Z"/><path d="M48.752,131.715l2.777,1.31.976-2.068.969.457-.975,2.068,2.922,1.378-.539,1.143-2.922-1.378-1.46,3.096-.97-.457,1.461-3.096-2.734-1.289c-1.287-.607-1.895-.558-2.413.542-.3.637-.409,1.204-.448,1.663l-.969-.457c-.006-.25.092-.946.508-1.829.717-1.519,1.677-2.092,3.817-1.082Z"/><path d="M41.473,177.886l-.2,1.136-12.894-2.272.2-1.135,12.894,2.271Z"/><path d="M38.032,220.088l.23,2.631c.197,2.232-.58,3.812-2.51,3.981-1.929.17-2.969-1.233-3.166-3.481l-.115-1.308-3.316.292-.117-1.323,8.994-.792ZM33.603,221.812l.116,1.323c.149,1.69.893,2.284,1.913,2.194,1.005-.089,1.648-.804,1.5-2.494l-.116-1.323-3.413.3Z"/><path d="M31.097,230.743l.261,1.79,4.783-.696-.261-1.79,1.062-.154.412,2.836-1.568.228c.738.184,1.865.699,2.077,2.156.079.539.007,1.051-.046,1.236l-1.283.187c.064-.22.109-.695.035-1.202-.176-1.204-.89-1.779-1.465-2.067l-3.564.519.436,2.993-1.061.154-.879-6.034,1.062-.154Z"/><path d="M34.963,239.957c2.727-.561,3.946,1.002,4.271,2.585.316,1.535-.145,3.508-2.887,4.071l-.25.052-1.115-5.422c-1.475.368-2.146,1.241-1.853,2.667.222,1.081.841,1.706,1.735,1.686l.257,1.253c-1.876.092-2.747-1.444-3.017-2.761-.374-1.817.288-3.604,2.858-4.131ZM36.775,245.202c1.206-.41,1.688-1.326,1.456-2.454-.232-1.129-1.035-1.78-2.307-1.683l.851,4.137Z"/><path d="M35.893,250.257l.305,1.144c-.807.265-1.054,1.076-.675,2.498.251.942.658,1.662,1.385,1.469.819-.219.675-1.256.597-2.792-.07-1.321.007-2.584,1.289-2.926,1.346-.358,2.244.776,2.672,2.384.412,1.546.232,2.984-1.342,3.536l-.305-1.144c.897-.422.817-1.344.599-2.163-.28-1.051-.68-1.558-1.221-1.413-.804.214-.595,1.434-.516,2.786.076,1.403-.042,2.577-1.34,2.924-1.483.396-2.434-.809-2.883-2.493-.486-1.824-.187-3.312,1.435-3.81Z"/><path d="M38.598,260.003l.369,1.125c-.79.311-.99,1.135-.529,2.532.305.928.753,1.622,1.467,1.387.806-.265.602-1.293.436-2.821-.146-1.316-.143-2.581,1.119-2.997,1.322-.435,2.284.646,2.805,2.227.501,1.52.404,2.967-1.137,3.608l-.369-1.124c.871-.473.738-1.389.473-2.194-.34-1.033-.769-1.516-1.301-1.341-.79.261-.511,1.466-.354,2.812.156,1.396.106,2.575-1.17,2.996-1.459.48-2.477-.667-3.022-2.323-.591-1.794-.378-3.296,1.214-3.887Z"/><path d="M66.245,300.049l.635.962-10.921,7.214-.635-.961,10.921-7.215Z"/><path d="M89.223,336.003c1.938-2.194,3.998-2.787,5.82-1.178,1.811,1.6,1.474,3.649-.432,5.808-1.938,2.195-3.988,2.776-5.811,1.166-1.812-1.599-1.475-3.648.422-5.796ZM93.548,339.758c1.006-1.14,2.197-2.778.71-4.091-1.487-1.313-2.966.07-3.972,1.21-.995,1.127-2.186,2.766-.699,4.079,1.488,1.312,2.966-.071,3.961-1.198Z"/><path d="M95.083,345.555l1.559,1.228,2.991-3.797-1.56-1.228.664-.843,1.559,1.229.02-.025c1.348-1.71,3.288-1.588,5.236-.053l-.663.843c-1.118-.882-2.489-1.391-3.579-.008l-.02.025,2.213,1.742-.664.843-2.213-1.743-2.99,3.798,2.213,1.742-.664.843-4.766-3.753.664-.843Z"/><path d="M103.143,351.747l1.627,1.136,2.765-3.963-1.627-1.136.613-.879,1.628,1.135.018-.025c1.245-1.785,3.189-1.775,5.223-.356l-.613.88c-1.168-.815-2.565-1.244-3.572.199l-.019.026,2.31,1.611-.613.879-2.31-1.611-2.765,3.963,2.309,1.611-.613.88-4.973-3.47.613-.88Z"/><path d="M111.979,356.408l1.008.621c-.403.747-.025,1.506,1.229,2.278.831.512,1.621.754,2.016.114.445-.723-.373-1.377-1.486-2.438-.961-.911-1.773-1.882-1.077-3.013.73-1.186,2.163-.979,3.581-.106,1.362.839,2.221,2.008,1.457,3.492l-1.008-.621c.362-.924-.33-1.538-1.053-1.983-.927-.57-1.564-.663-1.859-.187-.436.709.555,1.45,1.543,2.379,1.021.967,1.742,1.9,1.037,3.045-.805,1.308-2.323,1.087-3.809.173-1.607-.99-2.414-2.276-1.578-3.754Z"/><path d="M121.104,360.436c1.322-2.45,3.303-2.382,4.726-1.614,1.38.745,2.597,2.365,1.267,4.83l-.121.226-4.873-2.63c-.666,1.368-.427,2.443.855,3.135.971.524,1.848.451,2.406-.248l1.127.608c-1.136,1.497-2.873,1.178-4.056.539-1.634-.881-2.577-2.536-1.331-4.846ZM126.291,362.417c.46-1.188.067-2.146-.947-2.693s-2.03-.35-2.771.688l3.718,2.006Z"/><path d="M131.484,366.532l1.301-2.783-2.073-.97.455-.971,2.072.969,1.369-2.928,1.145.535-1.369,2.928,3.103,1.45-.454.971-3.102-1.449-1.281,2.739c-.603,1.29-.551,1.897.551,2.412.639.298,1.207.405,1.666.442l-.454.972c-.251.007-.947-.09-1.831-.503-1.522-.711-2.1-1.67-1.097-3.814Z"/><path d="M177.699,373.664l1.135.196-2.233,12.894-1.136-.196,2.234-12.894Z"/></svg>