<?xml version="1.0" encoding="UTF-8"?><svg id="Layer_1" xmlns="http://www.w3.org/2000/svg" width="9.587in" height="9.587in" viewBox="0 0 690.25 690.25"><defs><style>.cls-1{fill:#7fff00;opacity:.5;stroke:#231f20;stroke-miterlimit:10;stroke-width:.25px;}</style></defs><path class="cls-1" d="M345.773.125C155.235.125.773,154.587.773,345.125s154.462,345,345,345,345-154.462,345-345S536.312.125,345.773.125ZM345.773,621.125c-152.431,0-276-123.569-276-276S193.343,69.125,345.773,69.125s276,123.569,276,276-123.569,276-276,276Z"/><path d="M360.528,650.902l1.438-.071,3.627,8.853-1.438.071-.826-2.104-3.514.174-.613,2.177-1.406.07,2.732-9.169ZM360.081,656.722l2.844-.142-.531-1.335-1.11-3.004-.807,3.099-.396,1.382Z"/><path d="M367.884,655.003c-.237-2.887.843-4.773,3.22-4.969,1.705-.141,3.104.659,3.383,2.884l-1.275.105c-.237-1.329-.801-1.941-1.965-1.846-2.025.167-2.119,2.149-1.99,3.728.15,1.818.623,3.465,2.488,3.312.83-.068,1.361-.434,1.803-.919l-.164-1.993-2.104.173-.091-1.1,3.381-.278.398,4.847-1.036.086-.081-.989c-.25.471-.99,1.237-2.313,1.347-2.44.201-3.456-2.011-3.652-4.387Z"/><path d="M378.893,657.419l2.193-.251-.766-6.709-2.194.25-.129-1.129,5.692-.649.129,1.129-2.179.248.767,6.71,2.178-.249.129,1.129-5.691.65-.129-1.129Z"/><path d="M390.087,649.206l-3.006.443-.166-1.123,7.357-1.086.166,1.124-3.038.448,1.151,7.801-1.313.193-1.151-7.801Z"/><path d="M399.592,646.522l1.418-.255,4.734,8.316-1.418.256-1.089-1.982-3.464.624-.328,2.238-1.387.249,1.533-9.446ZM399.895,652.353l2.804-.505-.698-1.256-1.486-2.838-.403,3.178-.216,1.421Z"/><path d="M409.544,645.747l-2.972.636-.237-1.11,7.273-1.555.236,1.11-3.002.642,1.646,7.711-1.298.277-1.647-7.711Z"/><path d="M416.781,642.963l5.7-1.411.273,1.104-4.412,1.092.654,2.641,3.837-.949.272,1.103-3.836.949.695,2.812,4.412-1.092.272,1.104-5.7,1.411-2.169-8.762Z"/><path d="M448.919,632.133l1.082-.392,4.457,12.307-1.084.392-4.455-12.307Z"/><path d="M478.391,621.028l1.295-.629,6.806,6.725-1.295.629-1.584-1.613-3.165,1.537.288,2.242-1.267.615-1.078-9.506ZM480.26,626.558l2.561-1.244-1.012-1.021-2.197-2.329.471,3.168.178,1.426Z"/><path d="M484.837,617.84l1.558-.819,2.306,2.186,1.462,1.473-.399-2.031-.494-3.139,1.516-.797,4.199,7.986-1.062.559-2.457-4.673-1.07-2.275.893,5.479-.906.477-4.008-3.84,1.269,2.171,2.457,4.673-1.062.559-4.199-7.986Z"/><path d="M493.96,612.958l2.297-1.305c1.948-1.106,3.707-1.057,4.663.628.956,1.684.112,3.212-1.85,4.326l-1.141.648,1.644,2.895-1.154.656-4.459-7.849ZM497.368,616.268l1.155-.656c1.476-.838,1.706-1.76,1.2-2.65-.498-.877-1.416-1.165-2.892-.327l-1.155.656,1.691,2.978Z"/><path d="M502.488,608.04l1.132-.692,4.115,6.725,3.941-2.412.594.969-5.075,3.104-4.707-7.693Z"/><path d="M515.155,609.449l1.846-1.213-3.709-5.641-1.846,1.213-.623-.949,4.785-3.146.624.949-1.831,1.204,3.709,5.641,1.831-1.204.624.949-4.785,3.146-.625-.949Z"/><path d="M519.005,597.403l4.864-3.428.654.928-3.779,2.664,1.732,2.458,3.309-2.332.654.929-3.309,2.332,2.157,3.06-1.085.766-5.198-7.376Z"/><path d="M532.032,594.695l-6.077-2.216,1.228-.925,2.332.889,2.429,1.017-.293-2.624-.21-2.487,1.189-.896.463,6.443,2.167,2.877-1.062.799-2.166-2.877Z"/><path d="M552.36,569.146l.844-.784,8.912,9.586-.844.784-8.912-9.586Z"/><path d="M573.774,549.032l1.846-2.107c1.266-1.444,2.851-1.821,4.006-.81.699.611.816,1.353.554,2.187.71-.422,1.749-.638,2.653.153,1.18,1.033,1.032,2.755-.232,4.2l-2.035,2.323-6.791-5.946ZM577.551,550.573l.864-.987c.896-1.022,1.028-1.78.341-2.381-.613-.538-1.396-.543-2.346.541l-.906,1.035,2.047,1.792ZM580.585,553.23l1.129-1.288c.959-1.096.789-1.946.188-2.474-.674-.59-1.48-.446-2.398.602l-1.097,1.252,2.179,1.908Z"/><path d="M580.21,541.577l1.481-1.807c1.472-1.795,3.116-2.287,4.503-1.15,1.126.923,1.255,2.229.699,3.388l4.547.107-1.055,1.286-4.191-.188-.762.928,2.599,2.131-.843,1.027-6.979-5.723ZM584.579,543.441l.648-.792c1.076-1.312.96-2.255.168-2.904-.779-.64-1.74-.579-2.815.733l-.649.792,2.648,2.171Z"/><path d="M586.389,533.932l3.578-4.659.902.692-2.77,3.605,2.158,1.657,2.408-3.136.901.692-2.408,3.136,2.298,1.765,2.77-3.605.9.692-3.578,4.659-7.16-5.499Z"/><path d="M593.569,524.36l.84-1.17,9.191,2.68-.841,1.17-2.163-.666-2.054,2.86,1.321,1.836-.821,1.144-5.474-7.854ZM597.845,528.338l1.662-2.314-1.376-.416-3.043-1.004,1.922,2.563.835,1.171Z"/><path d="M598.016,518.054l.74-1.103,3.521,2.361-1.437-5.472.892-1.329,1.229,4.947,6.444-.188-.927,1.383-5.228.039.381,1.527,2.619,1.756-.74,1.104-7.496-5.026Z"/><path d="M614.534,488.451l.539-1.018,11.57,6.115-.539,1.019-11.57-6.116Z"/><path d="M628.127,462.4l1.044-2.599c.716-1.781,2.087-2.662,3.512-2.089.861.346,1.217,1.006,1.246,1.88.529-.633,1.439-1.181,2.553-.733,1.455.585,1.887,2.259,1.17,4.04l-1.15,2.865-8.374-3.364ZM632.2,462.605l.489-1.218c.507-1.262.38-2.02-.466-2.359-.758-.305-1.498-.05-2.035,1.286l-.512,1.276,2.523,1.015ZM635.941,464.109l.638-1.589c.543-1.352.102-2.098-.641-2.396-.831-.334-1.545.069-2.064,1.361l-.62,1.544,2.688,1.08Z"/><path d="M631.739,453.24l.455-1.248,7.409,2.701,1.583-4.344,1.067.389-2.038,5.591-8.477-3.089Z"/><path d="M635.044,443.99l1.832-5.578,1.078.354-1.416,4.316,2.583.848,1.232-3.754,1.079.354-1.232,3.754,2.751.903,1.417-4.316,1.079.354-1.831,5.577-8.572-2.813Z"/><path d="M638.053,434.614l.499-1.704,8.211-.543-2.526-.591-4.928-1.445.338-1.151,8.656,2.539-.499,1.704-8.211.543,2.527.591,4.927,1.445-.337,1.151-8.657-2.539Z"/><path d="M640.757,425.142l.659-2.556c.74-2.865,2.752-3.172,5.246-2.527,2.57.663,4.217,1.964,3.49,4.782l-.66,2.556-8.735-2.255ZM648.725,425.828l.328-1.27c.551-2.138-1.279-2.792-2.673-3.151-1.409-.364-3.312-.673-3.864,1.464l-.327,1.271,6.536,1.687Z"/><path d="M646.511,391.733l.17-1.139,12.944,1.935-.171,1.139-12.943-1.935Z"/><path d="M655.19,363.567c-3.055-.137-4.658-1.539-4.55-3.97.069-1.551.834-3.231,3.253-3.203l-.059,1.279c-1.332.069-1.99.809-2.044,2.008-.091,2.031,1.701,2.432,3.46,2.511,1.664.074,3.501-.164,3.592-2.194.061-1.359-.519-2.011-1.842-2.166l.059-1.295c2.314.184,3.009,1.865,2.934,3.528-.112,2.511-1.877,3.634-4.803,3.502Z"/><path d="M651.053,352.804l.038-2.334c.038-2.319,1.021-3.727,2.812-3.697,1.455.023,2.367.966,2.65,2.218l3.628-2.74-.026,1.663-3.399,2.456-.02,1.199,3.358.055-.021,1.327-9.02-.146ZM655.633,351.551l.016-1.023c.027-1.695-.649-2.362-1.673-2.379-1.007-.016-1.722.628-1.749,2.323l-.017,1.023,3.423.056Z"/><path d="M655.696,343.603c-2.926.053-4.754-1.066-4.799-3.497-.043-2.414,1.695-3.55,4.574-3.602,2.927-.053,4.738,1.065,4.783,3.496.043,2.415-1.695,3.55-4.559,3.603ZM655.545,337.878c-1.52.027-3.53.256-3.495,2.239.036,1.982,2.055,2.138,3.574,2.11,1.503-.027,3.514-.256,3.479-2.238-.036-1.983-2.055-2.139-3.558-2.111Z"/><path d="M650.876,333.153l-.133-2.636c-.113-2.236.721-3.784,2.654-3.883,1.934-.098,2.919,1.342,3.033,3.595l.066,1.311,3.322-.169.067,1.326-9.011.456ZM655.362,331.596l-.067-1.325c-.085-1.694-.806-2.314-1.828-2.263-1.007.051-1.677.742-1.591,2.436l.067,1.326,3.419-.174Z"/><path d="M646.434,299.547l-.176-1.139,12.932-1.997.176,1.138-12.932,1.998Z"/><path d="M641.765,270.545l-.716-2.708c-.49-1.856.083-3.382,1.568-3.774.897-.237,1.577.08,2.122.764.048-.824.449-1.808,1.61-2.114,1.516-.4,2.861.684,3.353,2.54l.789,2.986-8.727,2.307ZM645.155,268.276l-.336-1.27c-.348-1.314-.901-1.847-1.783-1.614-.789.209-1.23.855-.863,2.248l.352,1.33,2.631-.694ZM649.053,267.245l-.438-1.655c-.371-1.408-1.172-1.743-1.945-1.538-.867.229-1.198.979-.842,2.325l.425,1.608,2.8-.74Z"/><path d="M639.184,261.022l-1.68-5.628,1.089-.325,1.3,4.355,2.607-.778-1.131-3.788,1.089-.325,1.131,3.788,2.775-.828-1.3-4.355,1.089-.325,1.68,5.628-8.649,2.582Z"/><path d="M636.307,251.623l-.563-1.684,6.427-5.139-2.412.96-4.869,1.631-.381-1.138,8.555-2.865.564,1.684-6.427,5.139,2.411-.96,4.869-1.631.381,1.138-8.555,2.865Z"/><path d="M633.122,242.322l-.918-2.476c-1.031-2.774.445-4.176,2.86-5.072,2.49-.925,4.585-.799,5.599,1.932l.919,2.475-8.46,3.142ZM640.055,238.331l-.457-1.229c-.77-2.07-2.645-1.562-3.995-1.06-1.364.507-3.104,1.34-2.335,3.41l.457,1.229,6.33-2.351Z"/><path d="M618.772,211.62l-.512-1.033,11.733-5.804.511,1.033-11.732,5.804Z"/><path d="M609.796,183.519c-2.582,1.632-4.697,1.398-5.996-.656-.829-1.312-1.162-3.125.836-4.483l.684,1.082c-1.053.817-1.17,1.8-.529,2.813,1.085,1.717,2.783,1.021,4.271.082,1.406-.889,2.776-2.134,1.691-3.851-.727-1.149-1.573-1.352-2.747-.724l-.691-1.095c2.002-1.172,3.531-.189,4.42,1.217,1.342,2.122.536,4.051-1.938,5.614Z"/><path d="M604.436,175.11c-2.424,1.645-4.567,1.706-5.934-.307-1.357-2-.52-3.902,1.863-5.521,2.424-1.645,4.555-1.697,5.921.315,1.357,2,.521,3.902-1.851,5.512ZM601.179,170.395c-1.259.854-2.819,2.146-1.705,3.787,1.114,1.643,2.892.669,4.149-.185,1.245-.845,2.807-2.136,1.691-3.778-1.114-1.643-2.891-.669-4.136.176Z"/><path d="M594.682,168.961l-1.043-1.437,4.586-6.83-2.012,1.639-4.153,3.018-.704-.971,7.297-5.301,1.044,1.437-4.587,6.83,2.012-1.64,4.154-3.017.705.97-7.299,5.302Z"/><path d="M588.848,161.043l-1.09-1.402,4.366-6.976-1.958,1.704-4.057,3.149-.735-.948,7.126-5.533,1.089,1.402-4.366,6.975,1.959-1.703,4.055-3.149.736.948-7.125,5.533Z"/><path d="M582.78,153.332l-3.747-4.519.874-.726,2.899,3.497,2.094-1.735-2.521-3.041.874-.725,2.521,3.041,2.229-1.848-2.898-3.497.874-.725,3.746,4.52-6.944,5.757Z"/><path d="M580.309,143.31c-2.287,2.025-4.414,2.134-6.025.313-1.029-1.162-1.648-2.899.107-4.561l.848.958c-.908.976-.867,1.965-.072,2.863,1.348,1.521,2.913.562,4.23-.604,1.246-1.103,2.399-2.552,1.053-4.072-.902-1.019-1.771-1.083-2.828-.274l-.859-.97c1.79-1.479,3.457-.754,4.561.492,1.664,1.881,1.178,3.914-1.014,5.854Z"/><path d="M569.193,136.101l2.087,2.213-.826.779-5.108-5.413.827-.78,2.109,2.235,5.739-5.416.911.966-5.739,5.416Z"/><path d="M544.675,115.773l-.872-.753,8.55-9.91.872.752-8.55,9.911Z"/><path d="M522.311,96.713l-2.168-1.509c-2.43-1.69-2.018-3.685-.547-5.8,1.518-2.181,3.311-3.273,5.702-1.609l2.167,1.508-5.154,7.41ZM525.727,89.477l-1.078-.749c-1.812-1.262-3.062.228-3.886,1.41-.831,1.195-1.784,2.873.029,4.134l1.077.75,3.857-5.545Z"/><path d="M518.522,84.546l-1.852-1.203-3.676,5.66,1.85,1.202-.618.953-4.802-3.119.619-.953,1.838,1.194,3.676-5.66-1.837-1.193.618-.953,4.802,3.119-.618.953Z"/><path d="M509.668,80.598l-1.108-.67c.482-.923.191-1.771-.944-2.457-1.04-.629-1.973-.632-2.444.148-.363.603-.132,1.116.418,1.784l1.3,1.589c.732.892,1.157,1.951.479,3.073-.827,1.369-2.456,1.375-3.976.457-1.561-.943-2.187-2.349-1.24-3.945l1.094.662c-.606,1.128.003,1.851.77,2.314.999.604,1.807.475,2.187-.155.313-.521.157-1.063-.341-1.663l-1.301-1.589c-.98-1.191-1.232-2.072-.596-3.126.951-1.574,2.637-1.489,4.238-.521,1.752,1.059,2.4,2.553,1.466,4.099Z"/><path d="M497.463,80.814l-2.301-1.292c-1.953-1.096-2.817-2.627-1.87-4.314s2.69-1.754,4.657-.65l1.143.642,1.629-2.9,1.157.649-4.415,7.866ZM498.538,76.189l-1.158-.649c-1.479-.83-2.387-.551-2.888.342-.493.878-.266,1.812,1.213,2.643l1.157.649,1.676-2.984Z"/><path d="M488.851,76.065l-1.179-.612,3.633-7.003-4.105-2.13.523-1.009,5.285,2.741-4.157,8.013Z"/><path d="M478.174,70.672l-1.299-.622,1.025-9.517,1.3.622-.276,2.245,3.176,1.521,1.575-1.623,1.271.608-6.771,6.766ZM481.34,65.764l-2.568-1.229-.17,1.427-.453,3.172,2.186-2.342,1.006-1.027Z"/><path d="M473.654,63.517c-1.229,2.798-3.116,3.786-5.343,2.808-1.42-.624-2.711-1.943-1.812-4.188l1.172.516c-.417,1.267.034,2.147,1.134,2.63,1.859.818,2.881-.708,3.589-2.319.669-1.523,1.11-3.322-.75-4.141-1.245-.547-2.062-.241-2.683.936l-1.188-.521c1.008-2.092,2.825-2.132,4.349-1.462,2.3,1.011,2.71,3.062,1.531,5.742Z"/><path d="M462.163,63.5l-5.449-2.189.424-1.054,4.217,1.694,1.014-2.524-3.667-1.474.423-1.054,3.668,1.474,1.08-2.688-4.217-1.694.424-1.054,5.448,2.189-3.364,8.373Z"/><path d="M429.767,53.484l-1.108-.315,3.582-12.595,1.108.315-3.582,12.595Z"/><path d="M401.463,45.603l-5.785-1.008.195-1.119,4.477.78.467-2.68-3.893-.679.194-1.119,3.894.679.497-2.854-4.477-.779.194-1.119,5.785,1.008-1.549,8.89Z"/><path d="M390.32,39.328l2.345,4.775-1.521-.216-1.017-2.18-.7-1.553-1.12,1.295-1.582,1.812-1.488-.21,3.574-3.905-2.468-5.051,1.521.216,1.166,2.491.691,1.504,1.066-1.255,1.844-2.065,1.473.209-3.784,4.133Z"/><path d="M379.988,41.3l3.021.328-.122,1.129-7.394-.802.123-1.129,3.053.331.85-7.839,1.32.143-.851,7.839Z"/><path d="M372.231,41.67l-2.33-.178c-2.314-.177-3.661-1.243-3.524-3.031.11-1.452,1.107-2.307,2.376-2.516l-2.52-3.788,1.66.127,2.249,3.543,1.196.092.257-3.352,1.325.101-.689,9.002ZM371.255,37.021l-1.021-.078c-1.691-.13-2.398.507-2.477,1.528-.077,1.005.523,1.758,2.216,1.887l1.021.078.261-3.415Z"/><path d="M360.282,40.891l-1.439-.064-2.777-9.162,1.438.065.624,2.175,3.518.157.816-2.11,1.406.063-3.586,8.876ZM361.277,35.135l-2.847-.127.402,1.38.822,3.097,1.098-3.011.524-1.339Z"/><path d="M353.331,36.087c-.049,3.055-1.403,4.696-3.834,4.656-1.551-.024-3.251-.74-3.292-3.156l1.279.021c.106,1.33.864,1.966,2.063,1.985,2.031.033,2.38-1.769,2.408-3.528.027-1.663-.264-3.491-2.294-3.523-1.359-.022-1.993.575-2.11,1.9l-1.295-.021c.117-2.317,1.777-3.059,3.439-3.031,2.512.041,3.683,1.771,3.635,4.697Z"/><path d="M340.541,39.456l3.038-.059.021,1.136-7.436.142-.021-1.136,3.07-.059-.15-7.883,1.327-.025.15,7.884Z"/><path d="M308.993,43.935l-1.145.14-1.585-12.993,1.144-.14,1.586,12.993Z"/><path d="M279.846,47.672l-5.724,1.316-.255-1.107,4.43-1.019-.609-2.65-3.853.886-.255-1.107,3.852-.886-.648-2.822-4.429,1.018-.255-1.106,5.724-1.316,2.022,8.795Z"/><path d="M267.119,46.224l4.019,3.49-1.486.393-1.783-1.614-1.25-1.159-.529,1.63-.754,2.285-1.454.384,1.776-4.988-4.238-3.697,1.486-.393,2.043,1.844,1.223,1.117.494-1.571.896-2.62,1.439-.381-1.882,5.281Z"/><path d="M260.788,52.523l-2.53.758c-2.147.644-3.851.201-4.406-1.654s.608-3.157,2.771-3.805l1.258-.377-.955-3.189,1.272-.381,2.591,8.648ZM258.206,48.534l-1.273.382c-1.625.486-2.057,1.334-1.762,2.315.289.967,1.119,1.453,2.745.966l1.272-.381-.982-3.282Z"/><path d="M251.369,55.405l-1.259.422-2.505-7.478-4.384,1.469-.36-1.077,5.642-1.89,2.866,8.554Z"/><path d="M241.155,54.071c1.02,2.745.569,4.841-1.711,5.688-2.265.841-3.912-.425-4.914-3.125-1.02-2.744-.563-4.825,1.717-5.672,2.264-.841,3.912.425,4.908,3.109ZM235.802,56.11c.529,1.425,1.411,3.248,3.271,2.558,1.86-.69,1.338-2.647.81-4.072-.523-1.41-1.405-3.233-3.265-2.543-1.861.69-1.339,2.647-.815,4.058Z"/><path d="M232.881,62.086l-2.445.999c-2.74,1.121-4.189-.31-5.165-2.695-1.006-2.459-.947-4.559,1.749-5.661l2.445-.999,3.416,8.356ZM228.665,55.285l-1.215.497c-2.044.836-1.475,2.695-.929,4.028.552,1.349,1.44,3.06,3.485,2.224l1.215-.497-2.557-6.252Z"/><path d="M223.796,65.869l-5.359,2.397-.464-1.037,4.147-1.854-1.111-2.482-3.606,1.613-.464-1.037,3.607-1.613-1.182-2.643-4.148,1.854-.463-1.037,5.359-2.396,3.684,8.235Z"/><path d="M194.078,82.195l-.996.577-6.554-11.321.997-.576,6.553,11.32Z"/><path d="M168.751,97.048l-4.812,3.497-.668-.919,3.74-2.717-1.768-2.433-3.273,2.379-.668-.919,3.273-2.378-2.199-3.028,1.074-.78,5.301,7.298Z"/><path d="M160.812,102.904l-1.845,1.433c-1.832,1.423-3.545,1.538-4.644.123-.894-1.149-.729-2.451.069-3.457l-4.408-1.113,1.314-1.021,4.043,1.113.947-.736-2.06-2.652,1.048-.814,5.534,7.125ZM156.967,100.118l-.809.628c-1.34,1.04-1.436,1.985-.808,2.794.618.796,1.567.95,2.907-.09l.809-.628-2.1-2.704Z"/><path d="M151.462,110.347l-1.107.92-8.217-4.91,1.108-.92,1.924,1.189,2.709-2.249-.815-2.109,1.084-.9,3.314,8.979ZM148.328,105.419l-2.192,1.819,1.227.751,2.691,1.738-1.214-2.966-.512-1.343Z"/><path d="M143.073,111.459c2.025,2.288,2.135,4.414.313,6.026-1.162,1.028-2.899,1.648-4.561-.107l.958-.849c.977.909,1.965.867,2.863.072,1.521-1.347.562-2.912-.604-4.23-1.103-1.245-2.552-2.398-4.073-1.052-1.018.901-1.082,1.77-.273,2.828l-.971.858c-1.477-1.79-.752-3.457.493-4.56,1.881-1.665,3.913-1.179,5.854,1.013Z"/><path d="M135.892,122.551l2.209-2.087.78.825-5.406,5.108-.781-.825,2.232-2.109-5.416-5.732.965-.912,5.417,5.732Z"/><path d="M127.165,124.41l4.145,4.115-.937.942-4.144-4.115c-1.135-1.128-1.894-1.182-2.784-.285-.892.896-.832,1.654.304,2.782l4.144,4.116-.937.942-4.143-4.116c-1.658-1.646-1.674-3.061-.197-4.548,1.478-1.487,2.892-1.48,4.549.166Z"/><path d="M124.245,135.728l-1.593,1.709c-1.582,1.696-3.255,2.084-4.565.862-1.065-.993-1.111-2.305-.482-3.425l-4.531-.396,1.135-1.218,4.17.454.818-.878-2.457-2.291.905-.972,6.601,6.153ZM120.005,133.59l-.699.749c-1.156,1.24-1.1,2.189-.352,2.888.738.688,1.7.688,2.856-.553l.698-.749-2.504-2.335Z"/><path d="M117.585,142.98l-3.863,4.424-.855-.748,2.99-3.423-2.05-1.79-2.601,2.978-.855-.748,2.6-2.978-2.182-1.905-2.99,3.424-.855-.748,3.863-4.424,6.799,5.938Z"/><path d="M97.428,170.247l-.665.941-10.696-7.551.664-.941,10.697,7.551Z"/><path d="M80.621,194.339l-2.912,5.193-.991-.556,2.262-4.034-2.624-1.472-1.98,3.532-.991-.556,1.98-3.532-3.268-1.832.65-1.159,7.874,4.415Z"/><path d="M75.868,202.953l-1.076,2.074c-1.068,2.06-2.576,2.882-4.168,2.057-1.293-.671-1.689-1.922-1.384-3.17l-4.472.835.766-1.478,4.141-.683.553-1.065-2.982-1.548.611-1.179,8.012,4.156ZM71.208,202.032l-.472.909c-.781,1.506-.473,2.405.437,2.877.895.464,1.822.206,2.604-1.3l.472-.909-3.04-1.577Z"/><path d="M70.479,213.631l-.622,1.3-9.517-1.026.622-1.299,2.245.276,1.521-3.176-1.624-1.575.608-1.271,6.766,6.771ZM65.572,210.465l-1.23,2.569,1.428.169,3.171.454-2.342-2.187-1.026-1.006Z"/><path d="M67.424,220.133l-.708,1.611-3.166-.273-2.062-.241,1.578,1.34,2.342,2.148-.689,1.567-8.262-3.632.483-1.099,4.834,2.125,2.255,1.113-4.111-3.729.412-.938,5.527.507-2.344-.908-4.834-2.125.482-1.099,8.262,3.632Z"/><path d="M63.317,229.64l-2.184,5.448-1.054-.422,1.69-4.217-2.524-1.012-1.47,3.667-1.055-.423,1.471-3.667-2.688-1.077-1.69,4.217-1.054-.423,2.184-5.448,8.373,3.356Z"/><path d="M53.322,262.022l-.315,1.108-12.594-3.582.315-1.108,12.594,3.582Z"/><path d="M37.686,288.961l-.379,2.175,6.651,1.159.379-2.175,1.119.194-.983,5.644-1.119-.195.377-2.159-6.652-1.159-.376,2.159-1.119-.195.983-5.643,1.119.195Z"/><path d="M43.827,300.056l-.248,1.758-8.044,1.728,2.586.218,5.085.716-.168,1.188-8.933-1.257.247-1.758,8.045-1.728-2.586-.218-5.084-.716.166-1.188,8.934,1.257Z"/><path d="M41.155,311.839l.327-3.021,1.129.122-.802,7.394-1.129-.123.331-3.053-7.839-.85.144-1.319,7.839.85Z"/><path d="M41.534,319.588l-.443,5.857-1.133-.085.342-4.533-2.713-.205-.298,3.942-1.134-.086.299-3.941-2.889-.219-.343,4.533-1.134-.086.443-5.857,9.002.68Z"/><path d="M40.854,329.382l-.102,2.335c-.103,2.318-1.125,3.699-2.916,3.621-1.455-.063-2.342-1.032-2.59-2.293l-3.705,2.642.072-1.663,3.469-2.363.053-1.199-3.358-.147.059-1.327,9.019.396ZM36.239,330.509l-.045,1.023c-.074,1.695.584,2.381,1.607,2.426,1.008.045,1.74-.58,1.814-2.275l.045-1.023-3.422-.15Z"/><path d="M40.489,339.247l-.021,1.327-7.883-.128-.075,4.621-1.136-.019.097-5.948,9.019.146Z"/><path d="M35.852,348.447c2.927-.056,4.756,1.062,4.803,3.492.045,2.414-1.692,3.551-4.57,3.606-2.927.056-4.74-1.062-4.786-3.492-.046-2.415,1.692-3.552,4.554-3.606ZM36.01,354.17c1.519-.028,3.529-.259,3.492-2.242-.038-1.982-2.057-2.136-3.576-2.107-1.503.029-3.514.26-3.477,2.242.038,1.983,2.057,2.137,3.561,2.107Z"/><path d="M36.107,358.425c3.052-.154,4.78,1.088,4.903,3.516.078,1.55-.521,3.294-2.931,3.496l-.064-1.278c1.319-.194,1.903-.993,1.843-2.191-.103-2.028-1.924-2.257-3.682-2.168-1.661.084-3.467.496-3.363,2.524.068,1.358.707,1.951,2.038,1.979l.065,1.294c-2.32.037-3.171-1.569-3.255-3.23-.127-2.509,1.522-3.793,4.445-3.941Z"/><path d="M41.253,368.738l.109,1.324-4.225.352,4.536,3.379.133,1.595-4.048-3.099-4.919,4.166-.138-1.658,4.061-3.292-1.252-.956-3.141.262-.11-1.323,8.993-.749Z"/><path d="M46.797,402.158l.215,1.132-12.856,2.434-.214-1.132,12.855-2.434Z"/><path d="M44.864,433.249l.634,2.114,6.465-1.938-.634-2.113,1.088-.326,1.645,5.484-1.088.326-.629-2.1-6.465,1.938.629,2.099-1.088.326-1.645-5.484,1.088-.326Z"/><path d="M55.323,440.426l.566,1.684-6.424,5.146,2.41-.963,4.869-1.636.383,1.138-8.555,2.874-.566-1.684,6.424-5.146-2.41.962-4.869,1.636-.383-1.138,8.555-2.874Z"/><path d="M58.212,452.16l-1.062-2.85,1.065-.396,2.597,6.975-1.065.396-1.072-2.88-7.395,2.754-.463-1.245,7.395-2.754Z"/><path d="M62.006,458.93l2.223,5.432-1.051.43-1.721-4.203-2.516,1.029,1.496,3.656-1.051.43-1.496-3.655-2.68,1.097,1.721,4.203-1.051.43-2.223-5.432,8.348-3.416Z"/><path d="M65.793,467.98l.956,2.132c.949,2.117.655,3.81-.98,4.543-1.328.596-2.555.128-3.344-.887l-2.125,4.022-.681-1.519,2.038-3.668-.49-1.095-3.066,1.374-.543-1.212,8.235-3.691ZM62.174,471.057l.418.935c.694,1.548,1.591,1.865,2.525,1.446.92-.412,1.294-1.299.6-2.847l-.418-.935-3.125,1.4Z"/><path d="M63.873,479.301l.567,1.166c-.907.513-1.124,1.384-.543,2.578.532,1.093,1.314,1.603,2.135,1.203.633-.308.717-.865.619-1.726l-.229-2.042c-.131-1.146.088-2.268,1.269-2.842,1.438-.701,2.811.18,3.588,1.777.799,1.64.561,3.162-1.102,3.989l-.561-1.151c1.123-.618,1.005-1.557.612-2.362-.512-1.051-1.26-1.381-1.922-1.059-.546.267-.709.809-.617,1.582l.229,2.043c.177,1.533-.09,2.41-1.198,2.95-1.655.805-3.025-.183-3.845-1.866-.896-1.842-.629-3.449.997-4.241Z"/><path d="M74.242,485.742l2.743,5.191-1.004.53-2.123-4.017-2.404,1.271,1.846,3.494-1.004.531-1.847-3.494-2.56,1.354,2.123,4.017-1.004.531-2.744-5.191,7.978-4.217Z"/><path d="M74.596,496.051c2.656-1.513,4.759-1.183,5.963.93.768,1.349,1.018,3.177-1.042,4.442l-.634-1.112c1.09-.769,1.252-1.745.658-2.787-1.006-1.766-2.734-1.148-4.264-.277-1.445.823-2.872,2.004-1.866,3.77.673,1.182,1.511,1.423,2.712.849l.641,1.126c-2.055,1.079-3.537.027-4.361-1.418-1.243-2.183-.35-4.072,2.193-5.521Z"/><path d="M83.999,505.386l-1.589-2.592.968-.594,3.889,6.343-.969.594-1.605-2.619-6.725,4.122-.694-1.132,6.726-4.122Z"/><path d="M103.852,530.292l.701.914-10.385,7.963-.701-.914,10.385-7.963Z"/><path d="M116.114,558.933l1.516,1.604,4.906-4.637-1.516-1.604.826-.779,3.933,4.162-.825.78-1.506-1.593-4.906,4.636,1.505,1.593-.825.78-3.934-4.162.826-.78Z"/><path d="M128.682,560.65l1.26,1.251-3.437,7.479,1.725-1.94,3.62-3.645.852.846-6.36,6.403-1.26-1.252,3.437-7.479-1.725,1.941-3.619,3.644-.852-.846,6.359-6.402Z"/><path d="M136.497,569.821l-2.224-2.07.773-.831,5.442,5.066-.773.831-2.248-2.092-5.371,5.77-.971-.904,5.371-5.77Z"/><path d="M142.932,574.165l4.424,3.858-.746.855-3.424-2.986-1.787,2.05,2.978,2.597-.746.855-2.978-2.597-1.902,2.183,3.423,2.985-.747.855-4.424-3.858,5.93-6.798Z"/><path d="M150.405,580.591l1.81,1.479c1.796,1.469,2.291,3.114,1.156,4.502-.922,1.127-2.228,1.258-3.388.703l-.101,4.549-1.288-1.054.182-4.192-.93-.76-2.127,2.602-1.028-.841,5.714-6.988ZM148.546,584.963l.793.648c1.314,1.074,2.258.957,2.906.164.639-.781.576-1.741-.737-2.815l-.793-.648-2.169,2.651Z"/><path d="M157.212,586.119l1.131.864-1.681,4.858-1.058,2.858,2.437-1.764,4.268-2.92,1.106.846-7.999,5.244-1.169-.895,2.965-9.093Z"/><path d="M165.901,592.687l4.777,3.416-.661.924-3.696-2.644-1.582,2.213,3.215,2.299-.662.924-3.215-2.299-1.684,2.356,3.695,2.643-.66.925-4.777-3.416,5.25-7.341Z"/><path d="M173.965,598.376l1.477.987-1.941,8.001,1.321-2.235,2.855-4.271.998.668-5.018,7.504-1.477-.987,1.941-8.001-1.321,2.235-2.855,4.271-.998-.668,5.018-7.504Z"/><path d="M182.155,603.775l4.984,3.103-.602.964-3.855-2.4-1.438,2.309,3.354,2.088-.6.964-3.354-2.088-1.53,2.458,3.857,2.401-.601.964-4.983-3.103,4.768-7.659Z"/><path d="M212.302,619.291l1.036.504-5.729,11.771-1.037-.504,5.729-11.771Z"/><path d="M236.085,639.407l2.076.754,2.305-6.35-2.076-.753.389-1.068,5.386,1.955-.388,1.068-2.062-.748-2.306,6.349,2.062.749-.388,1.067-5.387-1.955.389-1.068Z"/><path d="M245.561,641.244l1.232.402c-.262,1.009.213,1.771,1.475,2.184,1.156.378,2.066.17,2.35-.697.22-.669-.122-1.117-.809-1.645l-1.627-1.257c-.915-.703-1.568-1.641-1.16-2.889.498-1.521,2.084-1.895,3.773-1.342,1.734.566,2.662,1.797,2.101,3.566l-1.218-.398c.338-1.236-.42-1.805-1.271-2.083-1.111-.363-1.868-.055-2.098.645-.188.578.088,1.073.708,1.545l1.627,1.256c1.226.939,1.67,1.742,1.287,2.913-.572,1.75-2.235,2.048-4.016,1.466-1.947-.637-2.917-1.947-2.354-3.666Z"/><path d="M255.484,642.469c.818-2.812,2.43-4.227,4.765-3.547,2.32.676,2.889,2.674,2.084,5.439-.817,2.812-2.425,4.211-4.76,3.532-2.32-.676-2.889-2.674-2.089-5.425ZM260.999,644.024c.424-1.46.803-3.449-1.102-4.004-1.906-.555-2.653,1.328-3.078,2.788-.42,1.444-.799,3.434,1.105,3.988,1.906.555,2.654-1.328,3.074-2.772Z"/><path d="M266.905,640.977l1.287.331-1.964,7.643,4.48,1.15-.283,1.102-5.767-1.481,2.246-8.744Z"/><path d="M278.511,643.814l1.406.313,1.147,9.505-1.406-.313-.236-2.25-3.438-.766-1.17,1.938-1.375-.307,5.071-8.12ZM276.534,649.311l2.781.619-.158-1.43-.272-3.192-1.603,2.775-.748,1.228Z"/><path d="M287.967,646.946l-2.985-.562.21-1.116,7.309,1.377-.211,1.115-3.018-.568-1.459,7.749-1.305-.246,1.459-7.748Z"/><path d="M295.743,647.185l5.801.901-.174,1.123-4.49-.698-.417,2.688,3.905.606-.176,1.123-3.904-.607-.444,2.861,4.489.698-.174,1.122-5.802-.901,1.386-8.916Z"/><path d="M329.54,649.641l1.15.059-.662,13.068-1.149-.059.661-13.068Z"/></svg>