<?xml version="1.0" encoding="UTF-8"?><svg id="Layer_1" xmlns="http://www.w3.org/2000/svg" width="7.67in" height="7.67in" viewBox="0 0 552.25 552.25"><defs><style>.cls-1{fill:#7fff00;opacity:.5;stroke:#231f20;stroke-miterlimit:10;stroke-width:.25px;}</style></defs><path class="cls-1" d="M276.314.125C123.884.125.314,123.694.314,276.125s123.569,276,276,276,276-123.569,276-276S428.745.125,276.314.125ZM276.314,483.125c-114.323,0-207-92.677-207-207s92.677-207,207-207,207,92.677,207,207-92.677,207-207,207Z"/><path d="M296.659,513.422l3.74-.379c2.746-.277,4.971.643,5.236,3.27.268,2.646-1.709,3.972-4.475,4.252l-1.532.155.392,3.859-2.209.224-1.152-11.381ZM299.442,518.87l1.551-.157c1.771-.18,2.477-.954,2.354-2.168-.122-1.214-.967-1.812-2.737-1.633l-1.552.157.385,3.801Z"/><path d="M309.162,519.122c-.541-3.521,1.73-4.941,3.807-5.261,2.215-.34,4.664.316,5.211,3.876.537,3.5-1.731,4.941-3.809,5.261-2.215.34-4.666-.336-5.209-3.876ZM316.024,518.068c-.301-1.958-1.285-2.697-2.787-2.467-1.504.231-2.22,1.231-1.92,3.189.299,1.938,1.285,2.697,2.788,2.467,1.503-.231,2.217-1.252,1.919-3.189Z"/><path d="M322.033,518.709l2.058-.425c.268.905,1.289,1.103,2.602.832,1.195-.247,2.1-.617,1.934-1.421-.178-.861-1.52-.728-3.327-.682-1.745.054-3.474-.101-3.849-1.922-.368-1.783,1.315-2.928,3.451-3.368s4.075-.249,4.681,1.894l-2.058.425c-.331-.912-1.371-.902-2.271-.716-1.195.247-1.812.619-1.691,1.207.161.783,1.229.706,3.354.615,1.66-.077,3.453.104,3.822,1.887.432,2.097-1.401,3.21-3.83,3.712-2.312.477-4.375.086-4.874-2.038Z"/><path d="M336.366,514.528l-.854-3.271-2.728.713-.429-1.645,2.728-.713-1.036-3.966,2.07-.541,1.036,3.967,4.198-1.096.43,1.645-4.199,1.096.834,3.192c.419,1.606.875,2.086,2.307,1.713.793-.207,1.483-.573,2.018-.981l.434,1.664c-.548.433-1.3.877-2.441,1.175-2.205.575-3.589.027-4.367-2.952Z"/><path d="M345.965,511.289c-1.068-3.373.842-5.153,2.919-5.812,2.153-.684,4.665-.305,5.722,3.03l.146.458-6.595,2.09c.523,1.45,1.531,2.116,3.17,1.597,1.125-.356,1.761-1.062,1.653-1.93l2.097-.665c.289,2.3-1.457,3.608-3.287,4.188-2.439.773-4.82.207-5.824-2.957ZM352.201,508.201c-.582-1.242-1.711-1.492-2.816-1.143-1.105.351-1.883,1.206-1.643,2.556l4.459-1.413Z"/><path d="M359.354,509.746l2.04-.765-1.916-5.111-2.041.765-.597-1.592,3.782-1.417.702,1.872c.012-1.051.407-2.502,2.036-3.112.618-.231,1.235-.293,1.687-.228l.759,2.022c-.503-.089-1.196,0-1.739.203-1.311.491-1.852,1.441-2.059,2.139l1.389,3.707,3.482-1.305.59,1.572-7.526,2.821-.589-1.572Z"/><path d="M396.629,479.821l1.236-.739,8.399,14.042-1.235.739-8.4-14.042Z"/><path d="M431.51,456.495l1.777-1.553,10.551,5.971-1.793,1.565-2.289-1.345-3.027,2.644,1.039,2.437-1.762,1.539-4.496-11.258ZM435.948,462.123l2.229-1.946-1.062-.639-3.262-2.062,1.604,3.509.49,1.139Z"/><path d="M442.961,455.69c-2.269-2.343-1.936-4.559-.556-5.895,1.007-.974,2.14-1.068,2.677-1.032l-3.493-3.607,1.538-1.489,9.004,9.3-1.337,1.294-.808-.833c.102.766-.074,1.965-1.152,3.009-1.408,1.364-3.605,1.598-5.873-.746ZM448.951,452.759l-2.867-2.961c-.58.005-1.318.191-1.966.817-1.093,1.058-.759,2.322.424,3.544s2.437,1.596,3.528.538c.646-.626.857-1.358.881-1.938Z"/><path d="M446.172,440.579l1.459-1.564,3.713,3.465c-.087-.492-.098-1.623.844-2.632,1.146-1.229,2.654-1.79,4.744.161l3.99,3.724-1.459,1.564-3.684-3.438c-1.053-.982-1.828-1.295-2.714-.345-.655.701-.745,1.355-.698,1.92l4.723,4.406-1.461,1.563-9.457-8.825Z"/><path d="M460.461,437.672c-2.709-2.279-2.046-4.807-.643-6.475,1.456-1.729,3.781-2.753,6.459-.5l.367.31-4.455,5.295c1.217.946,2.426.97,3.533-.347.76-.902.92-1.839.365-2.516l1.416-1.684c1.475,1.79.699,3.83-.537,5.299-1.648,1.959-3.965,2.755-6.506.617ZM464.08,431.725c-1.156-.738-2.244-.347-2.99.541-.748.888-.947,2.026-.023,3.04l3.014-3.581Z"/><path d="M469.834,428.87l1.27-1.674c.798.504,1.697-.02,2.506-1.088.738-.973,1.174-1.848.521-2.343-.702-.531-1.623.452-2.954,1.678-1.277,1.19-2.68,2.212-4.162,1.088-1.451-1.1-.938-3.07.38-4.809,1.317-1.737,2.903-2.87,4.771-1.656l-1.27,1.674c-.85-.468-1.625.225-2.182.958-.736.973-.957,1.659-.479,2.022.639.483,1.391-.277,2.93-1.746,1.199-1.15,2.669-2.195,4.119-1.096,1.707,1.293,1.061,3.339-.438,5.315-1.426,1.882-3.235,2.945-5.011,1.676Z"/><path d="M470.811,410.345l1.474-2.167,2.001,1.36-1.473,2.167-2.002-1.36ZM478.516,419.042l1.73-2.547-4.515-3.07-1.731,2.547-1.406-.956,2.935-4.316,5.922,4.025,1.585-2.332,1.391.944-4.521,6.649-1.389-.944Z"/><path d="M478.912,405.626l1.246-2.051,4.445.736,2.844.559-1.787-2.258-2.695-3.651,1.184-1.948,5.527,7.926-1.184,1.947-9.58-1.26Z"/><path d="M489.42,396.747c-3.117-1.68-2.982-4.289-1.948-6.208,1.072-1.99,3.141-3.466,6.222-1.805l.423.228-3.284,6.093c1.385.678,2.573.455,3.389-1.06.561-1.039.527-1.988-.154-2.538l1.044-1.937c1.808,1.452,1.465,3.607.554,5.298-1.215,2.254-3.32,3.505-6.244,1.929ZM491.752,390.186c-1.283-.486-2.268.119-2.818,1.14-.551,1.021-.515,2.178.598,2.981l2.221-4.121Z"/><path d="M500.463,350.531l.445-1.37,15.564,5.055-.445,1.37-15.564-5.055Z"/><path d="M511.02,312.67l.523-3.885c.353-2.616,1.803-4.096,3.746-3.834,1.268.171,1.809.95,2.078,1.794.415-.832,1.33-1.778,2.855-1.573,1.963.265,3.053,2.207,2.706,4.784l-.571,4.242-11.338-1.528ZM516.014,311.103l.192-1.428c.222-1.645-.196-2.286-1.089-2.406-.812-.11-1.527.258-1.758,1.963l-.2,1.486,2.854.385ZM520.83,311.752l.256-1.902c.23-1.705-.479-2.285-1.271-2.392-.872-.117-1.584.372-1.806,2.017l-.251,1.863,3.072.414Z"/><path d="M519.471,301.842c-3.547-.294-4.4-2.832-4.229-4.925.186-2.231,1.393-4.459,4.979-4.162,3.527.291,4.401,2.831,4.228,4.924-.184,2.231-1.412,4.458-4.979,4.163ZM520.043,294.927c-1.974-.163-2.922.621-3.047,2.136s.682,2.443,2.654,2.607c1.953.161,2.92-.622,3.045-2.137.126-1.514-.7-2.445-2.652-2.606Z"/><path d="M520.415,289.336c-3.558-.111-4.54-2.604-4.475-4.702.069-2.239,1.162-4.525,4.76-4.413,3.538.11,4.54,2.604,4.476,4.702-.07,2.238-1.183,4.524-4.761,4.413ZM520.633,282.4c-1.979-.062-2.886.771-2.934,2.289-.047,1.52.805,2.406,2.784,2.469,1.959.061,2.886-.771,2.933-2.29.048-1.519-.824-2.406-2.783-2.468Z"/><path d="M512.2,276.259l-.041-2.139,7.436-.142-3.412-3.774-.054-2.839,3.312,3.756,5.52-4.145.049,2.579-4.36,3.062,1.104,1.318,3.339-.063.04,2.139-12.932.247Z"/><path d="M523.1,263.496l-.205-2.934-9.56.665.204,2.934-1.677.117-.353-5.069,11.236-.782-.205-2.954,1.676-.116.559,8.023-1.676.116Z"/><path d="M519.483,251.692c-3.514.427-4.91-1.781-5.174-3.945-.271-2.243.564-4.641,4.039-5.062l.477-.059.834,6.869c1.521-.245,2.363-1.113,2.155-2.82-.142-1.171-.718-1.927-1.591-1.982l-.265-2.184c2.313.142,3.276,2.1,3.509,4.006.309,2.541-.689,4.777-3.984,5.178ZM517.601,244.991c-1.329.342-1.784,1.404-1.644,2.557.14,1.151.836,2.073,2.207,2.088l-.563-4.645Z"/><path d="M518.078,236.728l-3.329.578.481,2.777-1.674.291-.482-2.778-4.037.701-.366-2.107,4.038-.701-.742-4.274,1.675-.291.741,4.275,3.251-.564c1.636-.283,2.151-.698,1.898-2.155-.14-.808-.447-1.525-.81-2.092l1.694-.294c.386.582.765,1.368.967,2.531.39,2.245-.272,3.577-3.306,4.104Z"/><path d="M497.983,196.096l-.498-1.352,15.352-5.654.498,1.352-15.352,5.654Z"/><path d="M491.631,155.276l-9.842-.975,2.916,4.943-1.619.956-4.369-7.408,1.361-.803,9.851.993-3.049-5.169,1.62-.955,4.491,7.614-1.36.803Z"/><path d="M473.826,147.944l-1.445-2.185,2.018-1.335,1.445,2.185-2.018,1.335ZM484.793,144.118l-1.699-2.568-4.553,3.012,1.699,2.568-1.418.938-2.879-4.353,5.971-3.949-1.557-2.352,1.402-.927,4.434,6.704-1.4.927Z"/><path d="M471.838,137.724l-1.104-1.497.966-.713c-.716.007-1.862-.167-2.753-1.374-.998-1.353-1.297-2.971,1.006-4.669l4.395-3.24,1.27,1.723-4.057,2.991c-1.158.854-1.608,1.56-.837,2.605.569.772,1.196.981,1.761,1.038l5.199-3.834,1.27,1.723-7.115,5.247Z"/><path d="M468.313,125.582c-2.738,2.244-5.102,1.129-6.482-.558-1.434-1.749-2.013-4.223.695-6.441l.371-.305,4.387,5.354c1.154-1.022,1.399-2.206.309-3.537-.748-.913-1.639-1.243-2.406-.821l-1.395-1.702c2.03-1.121,3.893.017,5.11,1.502,1.623,1.98,1.979,4.404-.589,6.509ZM463.131,120.931c-.938,1.001-.753,2.143-.018,3.04.736.897,1.818,1.304,2.984.58l-2.967-3.62Z"/><path d="M429.76,97.762l-1.098-.935,10.609-12.456,1.098.934-10.609,12.457Z"/><path d="M402.451,69.025c-1.851,3.181-4.411,4.282-7.229,2.644-2.299-1.338-3.271-3.245-1.834-5.995l1.953,1.136c-.693,1.471-.408,2.493.836,3.217,1.937,1.126,3.19-.273,4.286-2.157,1.076-1.851,1.683-3.649-.253-4.775-1.263-.734-2.274-.467-3.199.847l-1.954-1.137c1.677-2.564,3.905-2.656,6.153-1.35,2.938,1.71,3.111,4.355,1.241,7.571Z"/><path d="M392.956,59.676c-.935,1.813-2.799,1.46-4.417.627-.816-.421-1.615-1.012-2.004-1.393l-.33.64c-.521,1.014-.756,1.905.702,2.656,1.103.567,1.972.452,2.447-.472l1.796.925c-1.108,2.15-3.244,1.973-5.146.993-2.043-1.053-2.964-2.629-1.828-4.833l1.675-3.253c.155-.302.104-.464-.216-.629-.213-.109-.561-.221-.802-.277l.65-1.263c.394.022,1.089.156,1.676.459.995.513,1.015,1.174.712,1.761l-.073.143c.675-.305,1.921-.585,3.538.248,1.529.787,2.426,2.104,1.62,3.668ZM387.653,56.742l-.513.996c.292.263.983.709,1.659,1.057,1.049.54,1.844.702,2.228-.045.312-.604.005-1.1-.866-1.548-.996-.513-1.952-.578-2.508-.46Z"/><path d="M381.483,53.187l-1.988-.896-2.245,4.978,1.987.896-.699,1.55-3.683-1.661.822-1.823c-.749.737-2.054,1.487-3.64.771-.602-.271-1.083-.664-1.357-1.028l.889-1.97c.294.418.848.844,1.377,1.082,1.276.576,2.33.283,2.97-.064l1.628-3.61-3.391-1.53.69-1.531,7.33,3.306-.69,1.532Z"/><path d="M369.385,50.831c-1.184,3.037-3.336,3.657-5.125,2.96-1.304-.508-1.862-1.498-2.053-2.002l-1.822,4.677-1.994-.777,4.699-12.055,1.732.676-.421,1.081c.653-.411,1.817-.752,3.214-.207,1.826.712,2.953,2.61,1.77,5.647ZM364.227,46.609l-1.496,3.839c.246.524.723,1.118,1.561,1.445,1.416.552,2.427-.277,3.044-1.861.618-1.584.436-2.878-.98-3.43-.839-.327-1.591-.213-2.128.007Z"/><path d="M322.133,45.477l-1.414-.273,3.107-16.064,1.414.273-3.107,16.064Z"/><path d="M280.514,37.711l3.78.061-.03,1.881-9.802-.157.03-1.88,3.78.061.153-9.562,2.24.036-.152,9.562Z"/><path d="M270.856,29.815l-3.078.115.203,5.457,3.079-.115.063,1.699-5.217.195-.268-7.156-2.818.105-.063-1.679,8.036-.301.062,1.679ZM268.418,41.176l-2.619.098-.09-2.419,2.619-.098.09,2.419Z"/><path d="M258.958,33.094c.321,3.627-2.022,4.819-4.215,5.015-1.973.175-4.216-.43-4.623-3.205l2.152-.191c.24,1.345,1.116,1.709,2.292,1.604,1.555-.139,2.377-1.055,2.201-3.027-.177-1.993-1.146-2.73-2.721-2.591-1.156.103-1.955.596-1.955,1.961l-2.152.191c-.084-2.764,2.075-3.779,4.008-3.951,2.213-.196,4.693.607,5.013,4.194Z"/><path d="M246.983,42.824l-2.119.299-1.039-7.368-3.336,3.844-2.812.396,3.33-3.741-4.783-4.981,2.556-.36,3.567,3.961,1.177-1.257-.466-3.308,2.119-.299,1.807,12.814Z"/><path d="M234.036,36.091c.673,3.476-1.433,5.024-3.572,5.438-2.22.429-4.671-.237-5.336-3.674l-.091-.472,6.795-1.314c-.352-1.501-1.277-2.279-2.965-1.953-1.159.225-1.873.852-1.867,1.727l-2.16.418c-.021-2.318,1.865-3.417,3.75-3.782,2.514-.486,4.815.353,5.446,3.612ZM227.483,38.439c.435,1.302,1.527,1.681,2.666,1.461,1.139-.221,2.011-.98,1.929-2.35l-4.595.889Z"/><path d="M219.207,38.548l.812,3.28,2.737-.678.408,1.65-2.736.678.985,3.979-2.077.515-.985-3.979-4.211,1.043-.409-1.649,4.212-1.043-.793-3.203c-.399-1.61-.85-2.097-2.285-1.741-.796.197-1.49.555-2.029.956l-.414-1.669c.555-.426,1.312-.86,2.457-1.145,2.213-.548,3.588.019,4.328,3.007Z"/><path d="M180.088,61.485l-1.313.592-6.728-14.915,1.312-.593,6.729,14.916Z"/><path d="M141.647,79.143l3.111-2.146,1.066,1.548-8.066,5.562-1.067-1.548,3.112-2.146-5.428-7.869,1.845-1.271,5.427,7.869Z"/><path d="M131.229,80.14c2.155,2.809.965,5.135-.766,6.462-1.793,1.376-4.283,1.875-6.414-.902l-.293-.381,5.49-4.213c-.984-1.186-2.16-1.469-3.525-.421-.936.718-1.294,1.599-.897,2.378l-1.745,1.34c-1.055-2.065.141-3.891,1.664-5.06,2.031-1.559,4.465-1.838,6.486.797ZM126.415,85.17c.971.97,2.117.821,3.038.115.92-.706,1.36-1.775.675-2.964l-3.713,2.849Z"/><path d="M118.91,90.094l5.68.838-2.01,1.712-3.779-.643.094,3.781-1.934,1.647.031-5.701-5.932-.887,2.01-1.712,3.99.674-.046-4.033,1.995-1.699-.1,6.022Z"/><path d="M109.633,97.283l2.321,2.457,2.05-1.937,1.168,1.236-2.051,1.937,2.816,2.98-1.557,1.47-2.815-2.98-3.155,2.979-1.168-1.236,3.156-2.979-2.266-2.399c-1.141-1.207-1.771-1.409-2.848-.393-.596.562-1.025,1.216-1.297,1.83l-1.182-1.25c.273-.644.719-1.395,1.577-2.205,1.658-1.565,3.135-1.75,5.249.49Z"/><path d="M100.456,103.252l-2.129,2.226,3.944,3.773,2.129-2.225,1.229,1.175-3.607,3.771-5.174-4.949-1.949,2.037-1.214-1.161,5.558-5.809,1.214,1.161ZM106.616,113.101l-1.812,1.893-1.749-1.673,1.812-1.893,1.749,1.673Z"/><path d="M91.772,112.507l-1.92,2.226,7.25,6.256,1.92-2.225,1.271,1.097-3.317,3.845-8.522-7.354-1.933,2.24-1.271-1.098,5.251-6.084,1.271,1.097Z"/><path d="M86.031,123.431c2.796,2.171,2.232,4.722.896,6.443-1.387,1.784-3.67,2.897-6.434.751l-.379-.295,4.244-5.464c-1.252-.897-2.461-.874-3.516.484-.725.932-.848,1.874-.268,2.527l-1.35,1.737c-1.542-1.73-.848-3.799.33-5.314,1.57-2.021,3.854-2.907,6.476-.87ZM82.647,129.514c1.186.691,2.256.258,2.968-.658s.867-2.062-.097-3.038l-2.871,3.696Z"/><path d="M67.463,167.182l-.667,1.277-14.504-7.577.667-1.276,14.504,7.576Z"/><path d="M50.744,202.747l-1.115,3.592c-.819,2.637-2.537,4.323-5.059,3.54-2.541-.79-2.988-3.128-2.163-5.783l.457-1.472-3.706-1.151.658-2.12,10.928,3.395ZM44.641,203.175l-.463,1.49c-.527,1.7-.091,2.653,1.074,3.016,1.166.362,2.047-.182,2.575-1.882l.463-1.49-3.649-1.134Z"/><path d="M38.559,211.548c1.977.503,2.051,2.399,1.603,4.162-.227.892-.623,1.802-.906,2.267l.698.178c1.104.28,2.025.309,2.43-1.28.305-1.202-.002-2.022-1.01-2.279l.498-1.957c2.345.597,2.651,2.717,2.124,4.791-.566,2.229-1.896,3.479-4.299,2.867l-3.546-.901c-.33-.084-.476.003-.564.352-.059.232-.09.596-.09.844l-1.377-.351c-.066-.388-.092-1.096.07-1.735.276-1.085.917-1.253,1.557-1.09l.154.039c-.447-.588-1.001-1.74-.553-3.503.424-1.667,1.506-2.836,3.211-2.402ZM36.891,217.376l1.086.276c.189-.344.47-1.118.656-1.855.291-1.143.271-1.953-.543-2.16-.66-.167-1.073.243-1.314,1.192-.276,1.086-.125,2.032.115,2.547Z"/><path d="M37.596,224.207c3.568.714,4.051,3.298,3.619,5.455-.389,1.941-1.6,3.921-4.377,3.529l.424-2.118c1.357.149,1.953-.588,2.185-1.745.306-1.529-.341-2.576-2.282-2.964-1.961-.393-2.941.329-3.251,1.878-.228,1.138.02,2.043,1.329,2.428l-.424,2.117c-2.674-.698-3.039-3.055-2.658-4.956.436-2.177,1.906-4.33,5.436-3.624Z"/><path d="M43.553,238.443l-.312,2.117-7.361-1.084,2.744,4.287-.413,2.81-2.649-4.252-6.131,3.182.377-2.553,4.808-2.305-.874-1.483-3.305-.486.312-2.118,12.805,1.886Z"/><path d="M31.387,248.808c2.031.192,2.396,2.056,2.224,3.868-.087.916-.339,1.876-.548,2.379l.717.068c1.136.107,2.051-.007,2.205-1.64.118-1.234-.312-1.998-1.348-2.097l.191-2.012c2.41.229,3.039,2.278,2.836,4.409-.217,2.29-1.339,3.73-3.809,3.496l-3.644-.347c-.339-.032-.47.076-.503.435-.023.239.003.603.039.848l-1.413-.135c-.125-.373-.261-1.069-.198-1.727.106-1.115.715-1.379,1.371-1.316l.16.016c-.535-.513-1.258-1.566-1.086-3.379.162-1.712,1.052-3.034,2.805-2.867ZM30.634,254.825l1.114.105c.137-.369.293-1.178.365-1.935.111-1.175-.033-1.972-.869-2.052-.678-.064-1.023.405-1.116,1.381-.106,1.115.188,2.027.506,2.5Z"/><path d="M27.442,261.378l-.09,2.057c-1.041.015-1.722.466-1.787,1.983-.08,1.838.889,2.101,2.066,2.151l1.259.055c-.421-.438-1.005-1.265-.946-2.622.09-2.058,1.541-3.695,4.578-3.563,3.056.134,4.396,1.953,4.311,3.95-.062,1.438-.826,2.405-1.463,2.798l1.139.05-.081,1.857-9.068-.395c-2.376-.104-3.536-1.516-3.409-4.432.086-1.957.713-3.951,3.492-3.89ZM30.348,267.688l3.835.167c.46-.44.827-1.064.864-1.903.066-1.538-1.004-2.245-2.602-2.314s-2.705.543-2.771,2.08c-.037.84.254,1.492.674,1.971Z"/><path d="M29.145,274.593l.049,3.081,5.462-.088-.05-3.08,1.701-.027.083,5.221-7.161.115.045,2.82-1.68.027-.129-8.042,1.68-.027ZM40.453,277.274l.042,2.62-2.421.039-.042-2.62,2.421-.039Z"/><path d="M36.543,286.957l.105,1.857-1.197.069c.603.386,1.469,1.158,1.555,2.656.096,1.678-.539,3.196-3.395,3.36l-5.453.312-.123-2.138,5.033-.288c1.439-.082,2.201-.427,2.126-1.725-.055-.959-.465-1.477-.906-1.832l-6.452.37-.122-2.138,8.829-.506Z"/><path d="M27.999,299.754l.224,2.048c-1.027.173-1.632.721-1.467,2.232.199,1.829,1.197,1.941,2.37,1.813l1.253-.137c-.483-.369-1.187-1.098-1.334-2.449-.223-2.048.965-3.888,3.986-4.217,3.043-.332,4.645,1.264,4.861,3.252.156,1.432-.451,2.504-1.021,2.988l1.133-.123.201,1.849-9.026.984c-2.366.258-3.726-.963-4.042-3.865-.213-1.948.105-4.015,2.862-4.376ZM31.83,305.553l3.816-.416c.389-.505.656-1.178.566-2.013-.168-1.531-1.332-2.068-2.923-1.895-1.591.173-2.593.946-2.426,2.478.091.835.478,1.437.966,1.846Z"/><path d="M49.957,343.425l.41,1.381-15.689,4.655-.41-1.381,15.689-4.655Z"/><path d="M55.297,383.652l.979,1.927c-1.025.632-1.253,1.51-.547,2.901.643,1.267,1.477,1.808,2.297,1.391.678-.344.719-1.015.589-1.936l-.409-2.663c-.223-1.457.127-2.845,1.59-3.587,1.908-.969,3.766.13,4.87,2.307,1.031,2.033.963,4.153-1.302,5.348l-.986-1.944c1.088-.642,1.217-1.447.638-2.589-.643-1.267-1.449-1.575-2.101-1.223-.562.308-.782.756-.625,1.73l.41,2.708c.205,1.421.105,2.906-1.535,3.738-2.069,1.05-3.955-.236-5.096-2.483-1.167-2.301-1-4.494,1.229-5.625Z"/><path d="M66.055,392.675l.926,1.613-1.007.577c.767.09,1.886.555,2.632,1.856.976,1.7.661,3.886-2.166,5.508-2.828,1.621-4.894.754-5.849-.912-.696-1.214-.51-2.336-.342-2.847l-3.956,2.268-1.064-1.855,10.826-6.208ZM65.345,400.321c1.475-.846,2.128-1.958,1.372-3.276-.448-.78-1.089-1.174-1.645-1.339l-3.592,2.059c-.138.563-.121,1.315.326,2.096.756,1.318,2.046,1.316,3.538.461Z"/><path d="M66.211,407.104l1.18,1.833,4.59-2.953-1.179-1.833,1.429-.92,2.186,3.396-1.682,1.082c1.029-.211,2.531-.131,3.473,1.332.357.556.547,1.146.578,1.602l-1.815,1.168c-.02-.51-.253-1.168-.566-1.656-.757-1.177-1.8-1.505-2.526-1.561l-3.329,2.142,2.013,3.128-1.413.909-4.349-6.76,1.412-.909Z"/><path d="M75.069,415.71c2.873-2.066,5.16-.804,6.432.966,1.319,1.834,1.741,4.339-1.1,6.382l-.391.28-4.039-5.618c-1.215.948-1.534,2.113-.53,3.51.688.958,1.558,1.344,2.349.972l1.284,1.785c-2.097.99-3.883-.262-5.003-1.82-1.494-2.078-1.697-4.519.998-6.456ZM79.944,420.675c1-.939.887-2.09.209-3.031-.676-.941-1.73-1.415-2.939-.768l2.73,3.799Z"/><path d="M80.857,427.133c1.594-1.272,3.151-.188,4.287,1.234.574.719,1.061,1.584,1.261,2.09l.562-.449c.891-.712,1.469-1.43.445-2.711-.774-.969-1.614-1.219-2.427-.57l-1.261-1.578c1.891-1.51,3.768-.475,5.103,1.197,1.436,1.797,1.631,3.611-.307,5.159l-2.859,2.284c-.266.212-.284.381-.06.662.149.188.422.432.617.581l-1.109.887c-.35-.182-.93-.588-1.342-1.104-.699-.875-.445-1.487.07-1.899l.125-.1c-.74.003-1.992-.251-3.129-1.673-1.072-1.344-1.353-2.912.022-4.011ZM84.498,431.98l.875-.698c-.16-.359-.609-1.05-1.083-1.644-.736-.922-1.396-1.395-2.052-.87-.531.425-.453,1.002.158,1.768.699.875,1.545,1.325,2.102,1.444Z"/><path d="M90.369,435.531c2.44-2.164,4.641-1.734,5.914-.297.93,1.048.975,2.184.914,2.719l3.758-3.332,1.42,1.602-9.685,8.589-1.235-1.392.869-.771c-.77.067-1.961-.159-2.957-1.282-1.301-1.467-1.438-3.672,1.002-5.836ZM93.036,441.643l3.083-2.734c.021-.58-.133-1.326-.73-2-1.008-1.138-2.286-.859-3.559.269-1.272,1.129-1.701,2.364-.691,3.502.597.674,1.319.915,1.897.964Z"/><path d="M129.957,461.882l1.131.891-10.122,12.856-1.132-.892,10.123-12.855Z"/><path d="M160.589,484.244l2.209,1.172-1.047,5.986-.678,3.285,2.329-2.387,4.36-4.253,2.12,1.125-8.998,8.177-2.015-1.068,1.719-12.037Z"/><path d="M168.395,499.297l2.791,1.302,2.309-4.949-2.792-1.302.719-1.541,4.731,2.207-3.027,6.489,2.557,1.192-.71,1.522-7.288-3.398.711-1.522ZM175.746,490.3l2.375,1.107-1.023,2.193-2.375-1.107,1.023-2.193Z"/><path d="M182.761,497.963l1.725.698-.45,1.112c.606-.38,1.674-.832,3.064-.27,1.558.631,2.66,1.854,1.586,4.505l-2.049,5.062-1.984-.804,1.892-4.672c.54-1.335.556-2.171-.649-2.658-.891-.36-1.533-.211-2.043.035l-2.426,5.988-1.982-.803,3.317-8.194Z"/><path d="M189.975,512.454c1.814.627,2.899.367,3.975-.785l-.838-9.58,2.269.784.241,4.506.039,2.892,1.826-2.226,2.998-3.409,2.155.745-6.241,6.731c-2.284,2.449-3.879,3.083-6.998,2.006l.574-1.664Z"/><path d="M203.797,513.232l2.823.814,2.653-9.202-2.824-.814.465-1.613,4.881,1.406-3.119,10.816,2.844.819-.466,1.614-7.723-2.227.466-1.614Z"/><path d="M251.541,511.486l1.434.146-1.648,16.275-1.433-.145,1.647-16.276Z"/></svg>