<?xml version="1.0" encoding="UTF-8"?><svg id="Layer_1" xmlns="http://www.w3.org/2000/svg" width="11.503in" height="11.503in" viewBox="0 0 828.25 828.25"><defs><style>.cls-1{fill:#7fff00;opacity:.5;stroke:#231f20;stroke-miterlimit:10;stroke-width:.25px;}</style></defs><path class="cls-1" d="M413.566.125C184.921.125-.434,185.479-.434,414.125s185.354,414,414,414,414-185.354,414-414S642.212.125,413.566.125ZM413.566,759.125c-190.538,0-345-154.462-345-345S223.028,69.125,413.566,69.125s345,154.462,345,345-154.462,345-345,345Z"/><path d="M428.794,794.442l1.726-.084c.127.955.693,1.408,1.939,1.347,1.134-.055,1.802-.487,1.767-1.223-.03-.607-.507-.856-1.221-1.062l-2.078-.571c-1.137-.312-2.035-1.021-2.1-2.332-.083-1.709,1.326-2.707,3.274-2.802,1.821-.089,3.347.654,3.479,2.697l-1.741.085c-.113-1.004-.659-1.361-1.682-1.312-1.135.056-1.623.544-1.578,1.134.041.511.297.818,1.059,1.021l2.11.586c1.104.314,2.156.872,2.228,2.342.091,1.853-1.464,2.81-3.477,2.907-2.062.101-3.607-.737-3.705-2.734Z"/><path d="M439.032,798.248c1.531-.114,2.246-.649,2.671-1.836l-3.65-6.773,1.915-.144,1.605,3.235.943,2.112.638-2.215,1.123-3.454,1.819-.136-2.453,6.924c-.902,2.523-1.873,3.494-4.508,3.69l-.104-1.404Z"/><path d="M448.11,788.858l1.289-.131.102,1.002c.193-.47.614-1.236,1.617-1.338.827-.084,1.344.41,1.542.937.157-.354.606-1.155,1.593-1.255,1.098-.111,1.639.782,1.781,2.183l.494,4.854-1.513.154-.466-4.584c-.087-.859-.281-1.193-.728-1.147-.43.043-.716.394-.911.688l.529,5.204-1.512.153-.467-4.584c-.087-.859-.281-1.193-.727-1.147-.43.044-.732.396-.928.689l.529,5.204-1.512.153-.715-7.034Z"/><path d="M457.961,787.829l1.285-.164.128.999c.182-.475.582-1.251,1.582-1.379.824-.105,1.354.375,1.566.896.147-.358.576-1.171,1.56-1.297,1.095-.14,1.659.739,1.837,2.136l.619,4.841-1.507.192-.585-4.57c-.109-.856-.312-1.186-.757-1.129-.429.055-.706.413-.894.711l.664,5.189-1.508.192-.584-4.57c-.109-.856-.312-1.186-.758-1.129-.428.055-.721.415-.908.713l.663,5.189-1.507.192-.897-7.014Z"/><path d="M468.587,790.025c-.436-2.798,1.293-3.973,3.016-4.24,1.787-.278,3.727.327,4.156,3.094l.059.379-5.469.851c.236,1.21.952,1.859,2.312,1.648.933-.146,1.522-.626,1.543-1.325l1.739-.27c-.053,1.854-1.592,2.676-3.109,2.911-2.023.314-3.838-.424-4.246-3.048ZM473.894,788.342c-.31-1.053-1.171-1.389-2.088-1.246s-1.636.724-1.611,1.821l3.699-.575Z"/><path d="M480.491,788.59l-.484-2.661-2.221.404-.244-1.339,2.221-.404-.588-3.229,1.685-.307.589,3.229,3.416-.623.244,1.339-3.417.622.474,2.599c.238,1.307.573,1.718,1.738,1.505.646-.117,1.219-.368,1.669-.661l.247,1.354c-.464.312-1.091.622-2.02.791-1.796.327-2.867-.193-3.309-2.618Z"/><path d="M489.171,788.648l1.707-.359-.9-4.273-1.706.359-.28-1.331,3.162-.666.33,1.565c.137-.829.624-1.93,1.986-2.216.516-.109,1.012-.083,1.361.023l.356,1.691c-.388-.132-.946-.145-1.399-.049-1.097.23-1.639.917-1.888,1.443l.653,3.1,2.911-.613.276,1.315-6.293,1.325-.277-1.315Z"/><path d="M499.225,789.492c1.494-.356,2.113-.997,2.346-2.236l-4.679-6.106,1.868-.444,2.098,2.938,1.267,1.935.277-2.286.56-3.587,1.775-.423-1.322,7.223c-.492,2.634-1.295,3.746-3.863,4.357l-.326-1.369Z"/><path d="M512.257,773.913l1.531-.408-4.639,14.961-1.514.403,4.621-14.956Z"/><path d="M518.483,773.381l1.811-.534,5.678,7.869-1.826.539-1.217-1.743-3.085.911-.058,2.119-1.797.53.494-9.691ZM519.829,778.958l2.271-.67-.559-.82-1.684-2.59-.006,3.089-.023.991Z"/><path d="M527.588,777.884l1.598-.518c.292.695,1.121.763,2.141.433.928-.301,1.614-.674,1.411-1.298-.217-.669-1.27-.445-2.703-.25-1.383.195-2.768.225-3.227-1.19-.448-1.385.789-2.441,2.447-2.979s3.217-.555,3.885,1.095l-1.598.518c-.342-.695-1.168-.597-1.867-.37-.928.301-1.387.651-1.238,1.107.197.608,1.038.454,2.719.195,1.312-.207,2.754-.22,3.201,1.165.527,1.628-.831,2.673-2.718,3.284-1.795.581-3.468.451-4.051-1.192Z"/><path d="M538.247,778.393c1.448-.513,1.998-1.217,2.096-2.475l-5.303-5.578,1.812-.641,2.399,2.7,1.465,1.79.034-2.304.177-3.629,1.72-.608-.549,7.326c-.209,2.672-.892,3.864-3.381,4.745l-.47-1.327Z"/><path d="M544.535,766.954l1.21-.465.361.941c.063-.505.269-1.354,1.209-1.716.777-.299,1.406.043,1.735.499.059-.382.282-1.273,1.208-1.63,1.031-.396,1.787.325,2.293,1.64l1.75,4.557-1.42.545-1.652-4.303c-.31-.807-.586-1.077-1.004-.917-.402.155-.587.568-.699.902l1.877,4.886-1.42.545-1.652-4.303c-.309-.807-.585-1.078-1.003-.917-.403.154-.603.574-.714.908l1.876,4.885-1.419.545-2.536-6.603Z"/><path d="M553.778,763.372l1.197-.497.387.932c.051-.507.232-1.362,1.164-1.748.77-.319,1.406.006,1.748.453.049-.384.248-1.281,1.165-1.662,1.021-.423,1.796.277,2.336,1.579l1.87,4.51-1.404.582-1.766-4.258c-.332-.799-.615-1.062-1.029-.891-.398.165-.572.584-.674.921l2.006,4.835-1.405.583-1.767-4.259c-.331-.798-.613-1.062-1.027-.891-.4.166-.588.591-.69.928l2.006,4.835-1.405.583-2.711-6.535Z"/><path d="M564.612,762.703c-1.154-2.588.207-4.175,1.8-4.885,1.651-.736,3.683-.661,4.823,1.897l.156.351-5.058,2.255c.546,1.105,1.407,1.545,2.665.984.861-.384,1.305-1.002,1.142-1.683l1.608-.717c.436,1.804-.836,3.001-2.239,3.626-1.871.834-3.816.598-4.897-1.829ZM569.295,759.686c-.574-.936-1.494-1.033-2.343-.655-.848.378-1.389,1.128-1.078,2.181l3.421-1.525Z"/><path d="M575.702,758.197l-1.168-2.439-2.035.975-.588-1.228,2.035-.975-1.417-2.959,1.544-.739,1.418,2.959,3.132-1.5.587,1.228-3.132,1.5,1.141,2.381c.573,1.198,1.005,1.507,2.073.995.592-.283,1.078-.676,1.436-1.078l.595,1.241c-.365.424-.889.887-1.74,1.295-1.646.788-2.815.567-3.88-1.655Z"/><path d="M584.102,755.969l1.553-.795-1.991-3.891-1.554.795-.619-1.212,2.879-1.474.729,1.426c-.086-.837.096-2.027,1.336-2.662.471-.24.956-.346,1.321-.334l.788,1.539c-.408-.025-.951.109-1.365.32-.997.511-1.34,1.315-1.442,1.89l1.444,2.821,2.65-1.356.613,1.197-5.729,2.933-.612-1.197Z"/><path d="M594.014,754.148c1.349-.735,1.779-1.517,1.678-2.773l-6.117-4.668,1.686-.919,2.796,2.286,1.73,1.535-.331-2.28-.4-3.609,1.602-.873.618,7.319c.216,2.671-.269,3.956-2.587,5.22l-.674-1.237Z"/><path d="M615.188,727.837l1.289-.836,7.224,11.132-1.289.836-7.224-11.132Z"/><path d="M638.921,712.682l1.502-1.145,8.108,5.328-1.515,1.155-1.757-1.196-2.558,1.95.701,2.002-1.489,1.136-2.993-9.23ZM642.166,717.413l1.884-1.436-.814-.567-2.496-1.82,1.096,2.889.331.935Z"/><path d="M648.135,712.682c-1.824-2.27-.795-4.104.576-5.206,1.234-.992,2.994-1.586,4.498.079l-1.347,1.082c-.757-.787-1.501-.641-2.235-.049-.973.782-1.113,1.757-.121,2.99,1.003,1.247,1.975,1.307,2.96.515.724-.581,1.036-1.264.429-2.172l1.347-1.083c1.284,1.801.299,3.435-.911,4.407-1.383,1.113-3.391,1.68-5.195-.563Z"/><path d="M657.743,705.52l-1.749-2.062-1.722,1.458-.879-1.037,1.721-1.459-2.12-2.502,1.306-1.107,2.121,2.503,2.648-2.245.88,1.037-2.649,2.245,1.707,2.015c.859,1.013,1.354,1.201,2.258.436.5-.424.871-.927,1.115-1.406l.89,1.05c-.245.502-.634,1.083-1.354,1.693-1.392,1.18-2.579,1.263-4.172-.617Z"/><path d="M660.999,692.99l1.562-1.396,1.29,1.441-1.561,1.397-1.291-1.442ZM665.3,701.225l1.836-1.643-2.912-3.254-1.836,1.643-.906-1.013,3.11-2.784,3.818,4.267,1.681-1.504.896,1.001-4.791,4.288-.896-1.001Z"/><path d="M668.25,690.861l1.397-1.318,3.273,1.51,2.076,1.034-.9-2.121-1.306-3.39,1.327-1.252,2.586,7.288-1.328,1.252-7.126-3.003Z"/><path d="M678.257,686.281c-1.996-2.009-1.287-3.976-.05-5.205,1.282-1.273,3.208-1.924,5.182.063l.271.272-3.928,3.901c.902.84,1.863.945,2.84-.024.67-.665.865-1.4.471-1.979l1.248-1.24c1.048,1.531.284,3.101-.806,4.184-1.453,1.443-3.355,1.912-5.228.027ZM681.565,681.8c-.869-.671-1.764-.436-2.423.218-.658.654-.899,1.547-.234,2.421l2.657-2.639Z"/><path d="M684.77,669.857l1.094-1.146,3.846,15.192-1.083,1.135-3.856-15.181Z"/><path d="M692.782,672.426l1.16-1.28c.765.586,1.486.505,2.324-.42.762-.842.928-1.62.383-2.114-.451-.408-.964-.247-1.615.113l-1.873,1.066c-1.023.583-2.161.718-3.133-.163-1.27-1.149-.979-2.851.331-4.297,1.225-1.353,2.829-1.907,4.368-.556l-1.172,1.292c-.789-.629-1.429-.495-2.116.264-.763.842-.763,1.532-.313,1.918.391.332.789.369,1.472-.027l1.906-1.079c1.003-.56,2.142-.91,3.231.078,1.375,1.246.953,3.022-.4,4.517-1.385,1.529-3.07,2.031-4.553.688Z"/><path d="M700.548,663.332l-2.053-1.761-1.469,1.713-1.033-.887,1.47-1.712-2.489-2.137,1.115-1.3,2.489,2.137,2.262-2.636,1.032.886-2.262,2.636,2.004,1.72c1.008.865,1.527.973,2.299.074.428-.498.714-1.054.879-1.565l1.045.896c-.164.534-.455,1.169-1.07,1.886-1.188,1.385-2.348,1.655-4.219.05Z"/><path d="M706.683,657.904c-1.266-1.03-.681-2.432.237-3.561.465-.571,1.06-1.098,1.422-1.34l-.447-.363c-.707-.576-1.366-.906-2.194.11-.626.77-.68,1.469-.034,1.994l-1.021,1.253c-1.5-1.223-1.009-2.864.072-4.192,1.161-1.427,2.547-1.887,4.085-.634l2.271,1.849c.211.172.346.157.527-.065.121-.149.266-.402.35-.582l.881.718c-.082.304-.302.826-.635,1.235-.566.695-1.088.601-1.496.268l-.1-.081c.127.578.141,1.601-.778,2.729-.868,1.066-2.047,1.551-3.139.662ZM709.856,654.236l-.695-.565c-.254.186-.718.653-1.102,1.125-.596.731-.854,1.326-.332,1.751.422.344.859.185,1.355-.423.564-.695.773-1.433.773-1.888Z"/><path d="M713.274,647.846l-2.141-1.65-1.377,1.786-1.076-.83,1.377-1.786-2.598-2.002,1.045-1.355,2.598,2.002,2.119-2.748,1.076.83-2.119,2.748,2.09,1.611c1.051.811,1.574.892,2.297-.046.4-.519.658-1.088.795-1.607l1.09.84c-.135.542-.394,1.19-.97,1.938-1.113,1.443-2.257,1.773-4.206.27Z"/><path d="M713.831,634.927l1.234-1.693,1.564,1.141-1.235,1.693-1.563-1.141ZM719.758,642.084l1.452-1.99-3.528-2.575-1.452,1.991-1.099-.802,2.461-3.373,4.627,3.376,1.33-1.823,1.086.793-3.791,5.195-1.086-.792Z"/><path d="M723.607,633.034c-2.396-1.655-1.933-3.707-.933-5.156.9-1.303,2.419-2.375,4.335-1.207l-.981,1.422c-.951-.539-1.622-.186-2.158.591-.71,1.027-.566,2.002.738,2.902,1.316.909,2.266.689,2.984-.351.527-.764.633-1.508-.209-2.205l.982-1.423c1.744,1.36,1.266,3.208.384,4.485-1.009,1.462-2.772,2.578-5.143.941Z"/><path d="M734.856,602.958l.774-1.327,11.46,6.691-.774,1.327-11.46-6.691Z"/><path d="M752.097,583.301c-2.647-1.286-3.679-3.263-2.54-5.608.93-1.914,2.393-2.804,4.672-1.821l-.789,1.626c-1.215-.465-2.013-.177-2.516.859-.783,1.611.408,2.527,1.977,3.289,1.539.748,3.011,1.125,3.793-.487.511-1.05.236-1.841-.865-2.501l.789-1.626c2.146,1.185,2.353,2.956,1.443,4.827-1.188,2.446-3.287,2.742-5.964,1.442Z"/><path d="M759.612,575.117l.972-2.142-6.979-3.165-.972,2.143-1.224-.556,1.678-3.701,8.204,3.72.978-2.156,1.225.555-2.656,5.858-1.225-.556Z"/><path d="M763.102,566.092c-1.503-.636-1.334-2.145-.768-3.486.286-.678.709-1.351.988-1.684l-.53-.225c-.841-.354-1.565-.487-2.076.722-.386.913-.241,1.6.524,1.924l-.629,1.488c-1.783-.753-1.771-2.468-1.105-4.045.717-1.695,1.918-2.524,3.746-1.753l2.697,1.14c.25.105.377.055.488-.211.074-.177.143-.461.174-.656l1.046.441c.006.315-.059.879-.264,1.365-.349.825-.876.881-1.362.676l-.118-.05c.284.52.584,1.497.017,2.838-.535,1.268-1.531,2.063-2.828,1.516ZM765.122,561.682l-.826-.349c-.191.248-.506.828-.742,1.388-.367.87-.447,1.514.171,1.774.501.212.878-.063,1.183-.785.35-.825.344-1.593.215-2.028Z"/><path d="M767.594,556.633l.636-1.625-4.069-1.591-.636,1.625-1.267-.495,1.177-3.012,1.491.583c-.62-.569-1.273-1.581-.766-2.878.192-.491.486-.893.768-1.126l1.609.629c-.322.253-.64.713-.809,1.146-.408,1.043-.131,1.873.173,2.37l2.952,1.154,1.084-2.772,1.252.489-2.343,5.993-1.253-.49Z"/><path d="M763.529,542.015l.712-1.971,1.82.657-.712,1.971-1.82-.657ZM771.222,547.225l.837-2.317-4.107-1.483-.837,2.317-1.278-.462,1.418-3.927,5.386,1.944.766-2.121,1.265.456-2.185,6.049-1.264-.456Z"/><path d="M773.493,535.748l-2.568-.849-.708,2.143-1.292-.427.708-2.143-3.116-1.029.537-1.626,3.116,1.029,1.089-3.298,1.292.427-1.089,3.298,2.508.828c1.261.417,1.781.319,2.153-.806.206-.623.26-1.245.218-1.782l1.307.432c.053.557.024,1.256-.271,2.152-.572,1.732-1.543,2.424-3.883,1.65Z"/><path d="M780.372,529.46c.443-1.471.201-2.329-.754-3.152l-7.631.973.555-1.838,3.595-.336,2.31-.122-1.836-1.39-2.82-2.289.527-1.746,5.579,4.776c2.029,1.749,2.587,3.003,1.823,5.531l-1.348-.407Z"/><path d="M773.446,510.36l.416-1.529,10.607,11.536-.412,1.514-10.611-11.521Z"/><path d="M776.116,504.727l.447-1.834,9.658-.952-.452,1.85-2.119.175-.764,3.125,1.804,1.116-.445,1.819-8.129-5.299ZM781.614,506.368l.562-2.302-.989.071-3.086.152,2.668,1.559.846.52Z"/><path d="M779.774,498.399l.273-1.267.985.213c-.387-.329-.985-.967-.772-1.952.176-.813.807-1.151,1.369-1.177-.289-.259-.912-.935-.701-1.904.233-1.079,1.251-1.317,2.627-1.019l4.771,1.033-.321,1.485-4.505-.976c-.845-.183-1.223-.101-1.317.337-.092.422.154.803.372,1.079l5.114,1.108-.322,1.485-4.504-.976c-.845-.183-1.223-.101-1.317.337-.091.422.15.818.368,1.095l5.115,1.108-.322,1.485-6.912-1.497Z"/><path d="M788.292,487.651l.911.171-.274,1.462-10.17-1.915.317-1.682,3.944.743c-.261-.343-.696-1.141-.488-2.24.289-1.541,1.615-2.707,4.178-2.225,2.562.483,3.367,2.083,3.082,3.592-.221,1.179-.945,1.823-1.5,2.094ZM786.383,483.695c-1.336-.252-2.326.082-2.551,1.276-.133.708.067,1.282.319,1.672l3.237.609c.377-.271.773-.732.906-1.44.225-1.194-.576-1.866-1.912-2.117Z"/><path d="M780.881,475.537l.333-2.068,1.912.308-.334,2.069-1.911-.309ZM789.407,479.23l.393-2.433-4.311-.695-.393,2.432-1.343-.216.665-4.122,5.654.912.359-2.227,1.326.214-1.024,6.349-1.327-.214Z"/><path d="M792.663,469.832l.219-1.633c.831.062,1.405-.248,1.566-1.453.195-1.458-.559-1.736-1.494-1.861l-.998-.134c.304.379.711,1.079.566,2.157-.219,1.633-1.492,2.834-3.902,2.512-2.426-.324-3.365-1.87-3.152-3.455.152-1.142.829-1.858,1.365-2.125l-.904-.121.197-1.475,7.198.963c1.887.252,2.71,1.46,2.399,3.774-.207,1.554-.85,3.098-3.061,2.851ZM790.798,464.596l-3.043-.407c-.398.318-.735.789-.824,1.455-.164,1.221.639,1.86,1.906,2.03,1.269.17,2.195-.238,2.358-1.46.089-.665-.097-1.207-.397-1.618Z"/><path d="M790.915,459.03l-4.345-.467.183-1.703,4.011.431c1.146.123,1.792-.049,1.903-1.083.082-.764-.174-1.227-.477-1.564l-5.141-.552.184-1.703,7.034.755-.159,1.48-.955-.103c.426.384,1.008,1.106.881,2.3-.145,1.337-.844,2.453-3.119,2.209Z"/><path d="M784.491,446.274l.17-2.089,1.93.157-.17,2.089-1.93-.157ZM793.283,449.285l.2-2.456-4.354-.354-.199,2.455-1.355-.11.338-4.161,5.709.464.183-2.248,1.339.109-.521,6.41-1.339-.109Z"/><path d="M792.468,437.623l-2.7-.146-.122,2.253-1.358-.074.123-2.253-3.275-.178.094-1.71,3.274.179.188-3.467,1.358.074-.188,3.467,2.636.143c1.326.072,1.804-.158,1.868-1.34.035-.655-.076-1.271-.256-1.776l1.373.074c.196.523.352,1.205.3,2.147-.099,1.821-.854,2.742-3.314,2.607Z"/><path d="M797.463,429.743c.044-1.535-.414-2.301-1.551-2.846l-7.11,2.934.055-1.919,3.381-1.264,2.197-.722-2.135-.861-3.319-1.471.052-1.823,6.633,3.15c2.415,1.157,3.281,2.223,3.205,4.861l-1.407-.04Z"/><path d="M785.429,398.199l-.07-1.534,13.244-.607.07,1.534-13.244.607Z"/><path d="M784.589,372.203l-.215-1.764,3.717-.453-.322-2.637-3.717.453-.215-1.763,9.086-1.108.215,1.763-3.891.475.321,2.638,3.892-.476.215,1.764-9.086,1.108Z"/><path d="M790.633,361.831c-1.613.241-2.256-1.135-2.471-2.575-.109-.728-.098-1.521-.033-1.952l-.57.085c-.901.135-1.59.399-1.396,1.697.147.981.628,1.491,1.451,1.368l.238,1.599c-1.914.286-2.797-1.184-3.051-2.877-.271-1.819.322-3.153,2.283-3.447l2.896-.433c.27-.04.35-.149.307-.434-.027-.19-.118-.468-.193-.65l1.123-.168c.169.266.408.78.486,1.302.132.887-.289,1.208-.812,1.286l-.126.019c.513.296,1.277.975,1.492,2.414.204,1.361-.232,2.559-1.625,2.767ZM790.059,357.015l-.885.132c-.035.312,0,.971.089,1.572.14.934.405,1.524,1.07,1.425.538-.08.716-.511.601-1.286-.133-.887-.537-1.538-.875-1.843Z"/><path d="M789.551,351.429l-.303-1.718-4.303.758.303,1.718-1.34.236-.561-3.184,1.576-.278c-.825-.163-1.908-.688-2.15-2.059-.092-.521-.049-1.016.068-1.361l1.703-.3c-.145.383-.176.941-.096,1.398.195,1.104.863,1.668,1.381,1.935l3.121-.55-.516-2.933,1.324-.232,1.115,6.336-1.324.233Z"/><path d="M782.277,343.298l-.259-1.27.988-.201c-.487-.146-1.291-.488-1.492-1.476-.166-.814.274-1.377.778-1.627-.367-.121-1.209-.488-1.407-1.46-.219-1.081.615-1.708,1.994-1.988l4.78-.973.304,1.488-4.514.919c-.847.172-1.159.398-1.07.838.086.423.463.672.774.838l5.124-1.043.304,1.488-4.513.919c-.847.172-1.16.398-1.07.838.086.423.467.688.777.854l5.125-1.043.303,1.488-6.927,1.41Z"/><path d="M783.655,332.569c-2.775.644-4.047-1.083-4.427-2.721-.405-1.746-.028-3.74,2.778-4.391,2.76-.641,4.047,1.083,4.427,2.72.405,1.747.013,3.744-2.778,4.392ZM782.401,327.157c-1.545.358-2.075,1.188-1.801,2.373.275,1.186,1.117,1.697,2.66,1.339,1.529-.354,2.075-1.188,1.801-2.373-.275-1.185-1.133-1.692-2.66-1.339Z"/><path d="M777.801,323.18l-.375-1.44.93-.241c-.534-.209-1.334-.679-1.637-1.84-.338-1.301-.079-2.593,2.136-3.168l4.229-1.101.431,1.657-3.902,1.016c-1.115.29-1.659.68-1.397,1.687.193.743.597,1.085.999,1.294l5.002-1.301.431,1.657-6.845,1.78Z"/><path d="M783.738,311.756c-.427-1.475-1.097-2.063-2.345-2.236l-5.875,4.961-.533-1.844,2.834-2.233,1.873-1.357-2.297-.169-3.608-.389-.507-1.752,7.275.979c2.652.365,3.803,1.115,4.535,3.65l-1.353.391Z"/><path d="M767.572,299.491l-.479-1.509,15.158,3.932.473,1.494-15.151-3.917Z"/><path d="M772.002,294.488c-2.782.966-4.911.299-5.767-2.166-.699-2.011-.294-3.677,2.014-4.596l.593,1.709c-1.188.53-1.548,1.3-1.171,2.388.588,1.694,2.08,1.498,3.728.927,1.618-.562,2.925-1.338,2.337-3.031-.383-1.104-1.137-1.469-2.383-1.155l-.594-1.708c2.355-.683,3.756.424,4.438,2.39.893,2.57-.382,4.267-3.195,5.243Z"/><path d="M769.62,284.558c-2.664,1.005-4.152-.537-4.744-2.108-.633-1.677-.524-3.701,2.17-4.718,2.649-.999,4.152.537,4.745,2.109.632,1.677.509,3.706-2.171,4.717ZM767.661,279.364c-1.482.56-1.897,1.451-1.469,2.589.43,1.138,1.33,1.533,2.812.974,1.467-.553,1.898-1.451,1.469-2.588-.43-1.138-1.346-1.527-2.812-.975Z"/><path d="M762.571,276.035l-.562-1.378.89-.363c-.557-.136-1.412-.495-1.865-1.606-.508-1.244-.422-2.559,1.697-3.423l4.045-1.649.646,1.585-3.734,1.523c-1.066.435-1.553.893-1.16,1.855.289.712.734.997,1.16,1.151l4.785-1.952.646,1.586-6.549,2.671Z"/><path d="M761.923,263.92l-2.476,1.088.908,2.065-1.245.547-.908-2.065-3.003,1.32-.688-1.567,3.002-1.32-1.396-3.179,1.245-.547,1.397,3.179,2.416-1.062c1.217-.534,1.538-.956,1.062-2.04-.264-.6-.64-1.099-1.03-1.469l1.26-.555c.411.379.857.917,1.237,1.781.733,1.67.476,2.832-1.78,3.824Z"/><path d="M759.975,255.463l-.744-1.576-3.949,1.861.744,1.577-1.23.58-1.377-2.922,1.446-.683c-.839.06-2.021-.161-2.614-1.42-.225-.477-.314-.966-.291-1.33l1.562-.736c-.039.407.078.953.275,1.373.478,1.013,1.27,1.381,1.84,1.502l2.863-1.351-1.268-2.69,1.215-.573,2.742,5.815-1.215.572Z"/><path d="M755.356,246.956c-1.457.734-2.498-.37-3.152-1.67-.332-.657-.57-1.414-.644-1.844l-.515.26c-.813.41-1.385.877-.794,2.049.446.885,1.063,1.219,1.806.845l.728,1.442c-1.728.871-3.026-.247-3.798-1.775-.828-1.643-.683-3.095,1.088-3.988l2.614-1.318c.243-.122.285-.251.155-.508-.086-.172-.259-.407-.388-.557l1.014-.512c.244.199.632.613.87,1.085.402.8.104,1.237-.367,1.475l-.115.058c.58.119,1.52.524,2.174,1.824.62,1.228.581,2.501-.676,3.135ZM753.302,242.563l-.8.404c.065.307.304.921.578,1.464.424.843.862,1.32,1.462,1.019.485-.245.521-.711.167-1.41-.403-.8-.991-1.291-1.407-1.477Z"/><path d="M750.438,238.107l-.797-1.479c.632-.413.55-1.24.041-2.185-.462-.858-.953-1.467-1.53-1.155-.62.333-.21,1.33.239,2.705.441,1.324.719,2.684-.592,3.389-1.281.69-2.543-.338-3.369-1.873-.827-1.535-1.124-3.065.379-4.02l.796,1.479c-.623.463-.377,1.257-.028,1.905.463.858.89,1.246,1.312,1.019.562-.303.26-1.103-.297-2.71-.439-1.254-.711-2.67.57-3.359,1.508-.812,2.78.338,3.721,2.084.895,1.662,1.066,3.331-.445,4.2Z"/><path d="M744.036,228.045l-2.347,1.344,1.121,1.957-1.181.676-1.121-1.957-2.846,1.629-.852-1.485,2.848-1.63-1.726-3.013,1.181-.676,1.725,3.013,2.291-1.312c1.152-.66,1.428-1.112.84-2.14-.326-.569-.753-1.026-1.18-1.353l1.193-.685c.449.333.949.821,1.419,1.641.906,1.583.772,2.766-1.366,3.99Z"/><path d="M722.302,206.899l-.861-1.271,10.979-7.438.861,1.271-10.979,7.438Z"/><path d="M707.995,185.159l-1.78-2.242c-1.891-2.38-1.187-4.246,1.056-6.027,2.143-1.701,4.25-2.006,6.109.337l1.781,2.242-7.166,5.69ZM712.88,179.013l-.678-.852c-1.203-1.517-2.512-.824-3.777.181-1.277,1.015-2.236,2.123-1.033,3.64l.678.852,4.811-3.82Z"/><path d="M706.501,174.262c-2.168,1.82-4.068.951-5.189-.385-1.162-1.385-1.648-3.357.496-5.157l.295-.247,3.558,4.24c.913-.829,1.098-1.778.214-2.832-.607-.723-1.323-.979-1.932-.634l-1.132-1.348c1.612-.915,3.113-.023,4.101,1.152,1.316,1.568,1.624,3.503-.41,5.21ZM702.313,170.592c-.74.811-.581,1.721.016,2.432.596.711,1.466,1.025,2.392.436l-2.407-2.867Z"/><path d="M697.011,168.576l-.986-1.114.719-.637c-.569.057-1.496,0-2.292-.898-.891-1.006-1.244-2.274.469-3.791l3.271-2.895,1.135,1.281-3.019,2.673c-.862.764-1.17,1.356-.481,2.135.509.575,1.023.697,1.476.702l3.869-3.426,1.135,1.282-5.294,4.688Z"/><path d="M694.237,158.178l-1.146-1.229c.507-.56.217-1.34-.515-2.124-.665-.714-1.294-1.178-1.773-.73-.516.48.134,1.341.918,2.557.762,1.171,1.375,2.415.287,3.43-1.065.992-2.547.318-3.736-.958-1.189-1.275-1.865-2.681-.652-3.985l1.145,1.229c-.484.605-.045,1.312.457,1.85.665.714,1.176.981,1.527.653.469-.436-.028-1.133-.975-2.547-.742-1.102-1.365-2.402-.3-3.396,1.252-1.167,2.775-.378,4.128,1.073,1.287,1.381,1.878,2.952.635,4.177Z"/><path d="M679.726,154.689l-1.47-1.495,1.381-1.357,1.47,1.495-1.381,1.357ZM687.757,150.007l-1.729-1.758-3.115,3.062,1.727,1.758-.97.953-2.927-2.979,4.086-4.016-1.582-1.609.959-.941,4.509,4.588-.958.942Z"/><path d="M678.415,142.998l-1.877,1.944,1.621,1.566-.943.978-1.623-1.566-2.277,2.358-1.23-1.188,2.277-2.358-2.496-2.41.943-.979,2.496,2.411,1.834-1.898c.922-.955,1.06-1.467.208-2.288-.472-.456-1.009-.774-1.51-.97l.956-.989c.523.194,1.14.523,1.818,1.179,1.312,1.267,1.514,2.438-.197,4.211Z"/><path d="M675.737,134.081c-1.133-1.037-2.012-1.191-3.167-.688l-2.431,7.296-1.415-1.297,1.255-3.384.892-2.133-2.048,1.052-3.283,1.548-1.345-1.231,6.72-2.955c2.455-1.07,3.826-1.028,5.772.754l-.95,1.038Z"/><path d="M655.518,132.008l-1.195-1.039,14.99-4.537,1.184,1.029-14.979,4.547Z"/><path d="M657.702,123.895l-1.334-1.1c.549-.792.435-1.508-.528-2.302-.876-.723-1.661-.852-2.13-.284-.387.47-.201.975.189,1.607l1.152,1.821c.63.996.818,2.126-.017,3.139-1.089,1.32-2.803,1.11-4.309-.132-1.407-1.16-2.036-2.736-.759-4.336l1.346,1.109c-.592.818-.428,1.45.361,2.102.877.723,1.566.69,1.932.224.312-.405.332-.805-.096-1.469l-1.168-1.854c-.605-.977-1.008-2.097-.072-3.232,1.182-1.432,2.975-1.093,4.531.189,1.592,1.312,2.172,2.973.9,4.517Z"/><path d="M646.913,120.668l-1.173-.915.571-.731c-.596.164-1.566.159-2.512-.579-1.237-.965-1.666-2.679-.062-4.736,1.604-2.057,3.396-2.039,4.608-1.094.883.688,1.084,1.576,1.114,2.006l2.244-2.877,1.351,1.053-6.143,7.874ZM645.126,114.79c-.836,1.072-.983,2.094-.024,2.842.567.443,1.161.541,1.623.495l2.038-2.612c-.068-.459-.309-1.011-.876-1.453-.959-.748-1.914-.356-2.761.729Z"/><path d="M642.56,110.698c-.97,1.312-2.397.794-3.567-.071-.592-.438-1.146-1.006-1.404-1.356l-.342.464c-.543.732-.842,1.407.213,2.187.798.589,1.498.609,1.993-.059l1.299.96c-1.149,1.556-2.813,1.143-4.189.125-1.479-1.093-2.004-2.455-.825-4.05l1.74-2.354c.161-.219.141-.353-.091-.524-.154-.113-.415-.246-.597-.321l.674-.914c.309.068.841.264,1.266.577.72.532.65,1.058.336,1.481l-.076.104c.572-.154,1.592-.216,2.763.648,1.106.818,1.646,1.972.809,3.104ZM638.749,107.702l-.533.72c.197.245.687.687,1.176,1.048.759.561,1.365.79,1.764.25.324-.438.145-.868-.485-1.334-.721-.532-1.468-.706-1.921-.684Z"/><path d="M634.405,104.091l-1.428-1-2.504,3.578,1.429,1-.78,1.114-2.646-1.853.916-1.311c-.697.468-1.834.864-2.975.066-.433-.303-.752-.683-.914-1.011l.991-1.415c.169.372.541.788.921,1.055.918.642,1.789.568,2.344.39l1.816-2.596-2.438-1.705.771-1.102,5.269,3.687-.771,1.102Z"/><path d="M625.303,100.447c-1.604,2.431-3.666,2.009-5.135,1.038-1.321-.873-2.424-2.368-1.296-4.309l1.442.953c-.52.961-.153,1.625.635,2.146,1.041.688,2.012.523,2.886-.798.882-1.335.643-2.279-.412-2.977-.774-.512-1.521-.602-2.2.254l-1.441-.953c1.323-1.771,3.18-1.331,4.475-.476,1.482.979,2.635,2.718,1.047,5.121Z"/><path d="M611.003,99.295l-1.779-1.109,1.024-1.644,1.779,1.109-1.024,1.644ZM617.712,92.861l-2.091-1.305-2.312,3.708,2.091,1.304-.72,1.154-3.545-2.21,3.032-4.862-1.915-1.193.711-1.142,5.46,3.404-.712,1.142Z"/><path d="M606.983,88.236l-1.369,2.331,1.945,1.143-.689,1.172-1.945-1.143-1.66,2.828-1.477-.867,1.661-2.827-2.993-1.759.688-1.172,2.993,1.758,1.337-2.276c.673-1.145.687-1.674-.334-2.273-.565-.333-1.163-.517-1.695-.588l.696-1.187c.555.066,1.232.241,2.046.719,1.572.924,2.044,2.017.796,4.142Z"/><path d="M602.274,80.186c-1.345-.742-2.235-.686-3.24.075l-.65,7.666-1.682-.929.426-3.585.367-2.284-1.746,1.504-2.828,2.276-1.598-.882,5.841-4.452c2.136-1.617,3.479-1.898,5.791-.622l-.681,1.232Z"/><path d="M568.712,76.451l-1.396-.639,5.515-12.068,1.397.639-5.516,12.068Z"/><path d="M547.425,59.952l-1.999,5.451-1.667-.612,2-5.45c.507-1.381.222-1.997-.784-2.366-1.007-.368-1.622-.083-2.129,1.298l-1.999,5.45-1.667-.611,1.999-5.45c.805-2.192,2.197-2.925,4.33-2.143,2.162.793,2.721,2.242,1.916,4.434Z"/><path d="M536.602,60.004l-1.41-.476.307-.91c-.467.333-1.299.745-2.436.361-1.274-.429-2.213-1.354-1.482-3.522l1.396-4.141,1.623.547-1.289,3.822c-.367,1.092-.34,1.761.646,2.093.729.245,1.234.095,1.63-.126l1.651-4.899,1.623.547-2.26,6.704Z"/><path d="M524.132,59.367l-2.002-.617.57-1.851,2.002.618-.57,1.85ZM528.973,51.433l-2.355-.726-1.287,4.174,2.355.726-.401,1.3-3.991-1.23,1.688-5.474-2.155-.665.396-1.284,6.146,1.896-.396,1.284Z"/><path d="M517.405,49.706l-.729,2.604,2.174.606-.366,1.31-2.173-.606-.882,3.159-1.649-.46.883-3.159-3.345-.935.366-1.31,3.344.934.71-2.543c.357-1.279.235-1.795-.905-2.113-.632-.176-1.256-.201-1.789-.134l.369-1.325c.554-.078,1.252-.083,2.162.171,1.757.491,2.492,1.427,1.83,3.801Z"/><path d="M510.797,43.134c-1.489-.374-2.336-.091-3.112.901l1.333,7.575-1.862-.467-.506-3.574-.23-2.301-1.302,1.9-2.151,2.925-1.77-.444,4.506-5.798c1.65-2.109,2.877-2.726,5.438-2.083l-.343,1.365Z"/><path d="M492.037,50.954l-1.547-.345,11.024-11.141,1.531.341-11.009,11.145Z"/><path d="M488.402,48.959l-6.343-1.232.287-1.476,4.6.894.504-2.591-3.988-.774.287-1.477,3.988.775.668-3.438,1.742.339-1.745,8.98Z"/><path d="M480.104,39.442l-1.719-.288-.721,4.308,1.719.287-.224,1.341-3.188-.533.265-1.577c-.43.723-1.285,1.569-2.658,1.34-.52-.088-.973-.293-1.259-.52l.285-1.704c.313.264.828.479,1.286.556,1.104.186,1.859-.256,2.283-.655l.521-3.124-2.934-.491.221-1.325,6.344,1.061-.223,1.326Z"/><path d="M470.499,38.39c-.227,1.615-1.729,1.84-3.17,1.638-.729-.103-1.486-.339-1.881-.523l-.08.57c-.127.902-.068,1.638,1.23,1.82.982.139,1.607-.178,1.724-1.001l1.6.225c-.27,1.917-1.929,2.346-3.624,2.107-1.82-.257-2.932-1.204-2.655-3.168l.407-2.898c.039-.27-.043-.378-.328-.418-.19-.026-.482-.02-.679.002l.158-1.125c.303-.087.864-.169,1.386-.096.888.125,1.076.62,1.003,1.143l-.019.127c.43-.408,1.297-.948,2.738-.746,1.362.191,2.387.949,2.189,2.344ZM465.72,37.572l-.125.888c.29.121.931.275,1.532.36.935.132,1.576.044,1.67-.621.076-.538-.286-.832-1.062-.94-.887-.125-1.626.078-2.015.313Z"/><path d="M460.714,34.765l-1.638-.186c.046-.832-.276-1.4-1.485-1.537-1.463-.165-1.726.594-1.832,1.532l-.113,1.002c.373-.312,1.065-.733,2.146-.611,1.638.186,2.865,1.436,2.592,3.853-.275,2.433-1.803,3.403-3.393,3.224-1.145-.13-1.875-.792-2.153-1.323l-.103.906-1.479-.167.817-7.219c.214-1.893,1.405-2.739,3.727-2.477,1.558.177,3.115.787,2.913,3.003ZM455.514,36.737l-.346,3.053c.326.392.804.719,1.472.795,1.224.139,1.849-.677,1.992-1.948.144-1.272-.284-2.19-1.508-2.329-.668-.075-1.206.121-1.61.43Z"/><path d="M450.333,41.156l-1.291-.113.087-1.004c-.278.426-.835,1.1-1.839,1.013-.83-.072-1.245-.655-1.342-1.21-.22.318-.812,1.022-1.8.937-1.101-.097-1.465-1.076-1.343-2.479l.424-4.863,1.515.132-.399,4.593c-.076.861.053,1.226.5,1.265.43.037.777-.254,1.023-.506l.455-5.214,1.514.132-.399,4.593c-.075.86.054,1.226.501,1.265.43.037.793-.253,1.039-.504l.455-5.215,1.514.133-.613,7.048Z"/><path d="M440.441,36.75c-.17,2.827-2.108,3.608-3.851,3.504-1.805-.108-3.572-1.112-3.404-3.908l.023-.384,5.527.333c.026-1.233-.535-2.021-1.91-2.104-.942-.057-1.62.287-1.789.967l-1.758-.105c.445-1.802,2.125-2.277,3.659-2.186,2.045.123,3.661,1.23,3.502,3.883ZM434.895,37.266c.078,1.096.849,1.606,1.775,1.662s1.754-.359,1.963-1.437l-3.738-.226Z"/><path d="M429.793,39.728l-1.487-.051.033-.96c-.352.452-1.029,1.086-2.229,1.045-1.343-.047-2.507-.663-2.429-2.949l.15-4.366,1.711.059-.139,4.03c-.039,1.151.18,1.783,1.219,1.818.768.026,1.21-.262,1.525-.588l.178-5.165,1.711.059-.243,7.068Z"/><path d="M418.481,35.373l-.044,2.702,2.255.037-.021,1.358-2.256-.036-.053,3.278-1.711-.028.053-3.277-3.47-.057.022-1.359,3.47.057.043-2.639c.021-1.327-.228-1.795-1.41-1.814-.655-.011-1.267.123-1.765.323l.021-1.375c.516-.216,1.19-.396,2.135-.382,1.822.03,2.771.749,2.73,3.212Z"/><path d="M410.383,34.174c.028,1.632-1.42,2.088-2.875,2.113-.735.013-1.521-.102-1.939-.223l.01.575c.016.912.188,1.629,1.499,1.606.992-.018,1.561-.427,1.547-1.259l1.615-.027c.033,1.935-1.539,2.618-3.25,2.647-1.84.031-3.084-.731-3.118-2.714l-.05-2.927c-.006-.271-.103-.366-.391-.361-.191.004-.479.057-.67.107l-.02-1.135c.285-.133.826-.303,1.354-.312.896-.016,1.159.444,1.168.972l.003.128c.359-.47,1.132-1.139,2.587-1.164,1.375-.023,2.505.564,2.529,1.972ZM405.534,34.114l.016.896c.306.075.963.128,1.57.117.943-.017,1.564-.203,1.553-.874-.01-.544-.414-.777-1.197-.764-.896.016-1.594.331-1.941.625Z"/><path d="M398.445,35.626l.118,2.702,2.256-.099.059,1.359-2.254.099.144,3.278-1.711.075-.144-3.278-3.471.152-.06-1.359,3.47-.152-.115-2.639c-.059-1.327-.335-1.779-1.518-1.728-.656.028-1.258.199-1.744.429l-.061-1.375c.502-.246,1.166-.468,2.109-.51,1.822-.079,2.812.582,2.921,3.045Z"/><path d="M389.831,34.381l-2.457.171.303,4.357,2.459-.171.094,1.356-4.165.291-.399-5.714-2.25.156-.094-1.341,6.416-.447.094,1.341ZM388.176,43.526l-2.092.146-.135-1.932,2.092-.146.135,1.931Z"/><path d="M380.423,37.273c.271,2.835-1.607,3.867-3.279,4.027-1.785.171-3.711-.465-3.984-3.332-.271-2.819,1.606-3.867,3.279-4.027,1.783-.171,3.711.48,3.984,3.332ZM374.895,37.802c.15,1.577.902,2.212,2.113,2.097,1.211-.116,1.828-.883,1.678-2.46-.15-1.562-.903-2.213-2.114-2.097-1.21.116-1.827.898-1.677,2.46Z"/><path d="M370.362,41.843l-1.479.182-.117-.953c-.276.502-.848,1.233-2.039,1.38-1.334.164-2.58-.264-2.859-2.534l-.533-4.337,1.699-.209.492,4.003c.141,1.144.455,1.733,1.488,1.606.762-.094,1.154-.448,1.415-.818l-.631-5.131,1.7-.209.863,7.021Z"/><path d="M340.544,49.836l-1.506.303-2.619-13.004,1.506-.303,2.619,13.004Z"/><path d="M314.983,54.612l-2.895.817c-2.124.601-4.004.184-4.578-1.849-.578-2.048.795-3.366,2.936-3.971l1.186-.335-.844-2.987,1.709-.482,2.486,8.807ZM312.036,50.706l-1.201.339c-1.371.388-1.818,1.096-1.554,2.035.266.939,1.014,1.293,2.384.906l1.201-.34-.83-2.94Z"/><path d="M303.569,51.182l1.295,4.17-1.635.508-1.195-3.849c-.342-1.1-.756-1.624-1.749-1.316-.733.229-1.056.646-1.245,1.058l1.532,4.934-1.634.508-2.098-6.751,1.42-.441.285.916c.183-.543.614-1.363,1.76-1.72,1.283-.398,2.584-.199,3.264,1.984Z"/><path d="M294.269,53.617l-1.591.541c-.303-.691-1.134-.747-2.148-.401-.925.314-1.605.699-1.395,1.32.228.666,1.279.427,2.709.21,1.381-.216,2.768-.265,3.247,1.144.47,1.379-.753,2.455-2.405,3.018-1.651.562-3.21.602-3.904-1.039l1.592-.541c.354.691,1.178.58,1.875.343.924-.315,1.377-.672,1.223-1.127-.207-.605-1.046-.438-2.725-.154-1.309.226-2.752.26-3.221-1.119-.553-1.621.793-2.688,2.672-3.327,1.787-.608,3.463-.502,4.071,1.134Z"/><path d="M287.19,64.659l-1.604.595-1.412-3.81c-.113.383-.512,1.195-1.547,1.579-1.26.467-2.539.326-3.334-1.818l-1.516-4.095,1.604-.595,1.399,3.78c.4,1.08.842,1.581,1.816,1.221.721-.267,1.02-.702,1.188-1.122l-1.793-4.846,1.604-.594,3.593,9.704Z"/><path d="M272.534,70.305l-1.47.589,2.802-15.408,1.455-.583-2.787,15.402Z"/><path d="M268.385,70.738l-2.764,1.193c-2.027.876-3.946.711-4.784-1.229-.845-1.954.343-3.443,2.386-4.326l1.131-.488-1.23-2.851,1.631-.705,3.631,8.405ZM264.945,67.254l-1.146.495c-1.308.564-1.659,1.327-1.271,2.223.388.896,1.177,1.148,2.483.584l1.146-.495-1.212-2.807Z"/><path d="M256.639,68.84l1.838,3.961-1.553.721-1.696-3.657c-.484-1.045-.964-1.51-1.907-1.072-.697.323-.961.78-1.096,1.213l2.174,4.688-1.553.72-2.975-6.414,1.35-.626.404.871c.109-.562.429-1.434,1.517-1.938,1.22-.565,2.535-.541,3.497,1.534Z"/><path d="M247.077,71.831l-2.106,1.046,3.405,6.862,2.107-1.045.597,1.204-3.64,1.806-4.003-8.066-2.12,1.052-.598-1.203,5.76-2.858.598,1.203Z"/><path d="M238.069,76.361l-2.076,1.102,3.588,6.768,2.078-1.102.629,1.188-3.59,1.902-4.217-7.954-2.092,1.108-.629-1.187,5.68-3.012.629,1.187Z"/><path d="M215.634,99.6l-1.298.82-7.084-11.208,1.299-.82,7.083,11.208Z"/><path d="M190.784,113.308l2.426-1.806.897,1.206-6.288,4.681-.897-1.206,2.425-1.806-4.565-6.134,1.437-1.069,4.566,6.134Z"/><path d="M180.84,112.907l-1.938,1.522,2.699,3.438,1.938-1.523.841,1.07-3.286,2.581-3.54-4.507-1.774,1.394-.831-1.057,5.061-3.976.831,1.058ZM184.606,121.408l-1.649,1.296-1.196-1.523,1.648-1.295,1.197,1.522Z"/><path d="M172.074,117.602l-1.269,1.052c-.567-.61-1.199-.771-2.136.005-1.133.938-.769,1.654-.166,2.381l.644.775c.033-.485.21-1.275,1.047-1.969,1.269-1.052,3.02-1.07,4.571.802,1.562,1.884,1.203,3.656-.028,4.678-.887.734-1.869.802-2.445.635l.582.702-1.145.949-4.635-5.591c-1.215-1.466-1-2.911.798-4.401,1.206-1,2.726-1.698,4.182-.018ZM169.892,122.714l1.96,2.364c.508.036,1.075-.081,1.592-.51.949-.786.793-1.801-.023-2.785-.816-.985-1.773-1.313-2.723-.527-.517.429-.747.952-.806,1.458Z"/><path d="M171.074,132.48l-1.29,1.127-2.674-3.062c.029.398-.055,1.301-.886,2.026-1.013.885-2.26,1.209-3.765-.515l-2.875-3.291,1.29-1.127,2.653,3.038c.758.868,1.35,1.18,2.133.496.578-.506.704-1.019.712-1.473l-3.4-3.894,1.29-1.126,6.812,7.799Z"/><path d="M157.675,134.553l1.834,1.988,1.658-1.529.922,1-1.658,1.529,2.224,2.412-1.259,1.16-2.225-2.411-2.553,2.354-.922-.999,2.553-2.354-1.789-1.941c-.9-.977-1.404-1.144-2.274-.341-.482.444-.832.963-1.056,1.452l-.934-1.012c.225-.513.59-1.109,1.283-1.749,1.342-1.237,2.524-1.37,4.195.441Z"/><path d="M152.102,140.41c1.975,2.031,1.245,3.99-.006,5.206-1.297,1.26-3.229,1.889-5.182-.119l-.268-.275,3.971-3.859c-.894-.85-1.854-.966-2.84-.006-.678.658-.881,1.391-.492,1.973l-1.263,1.228c-1.03-1.542-.25-3.104.852-4.175,1.469-1.428,3.376-1.876,5.228.028ZM148.747,144.855c.861.68,1.758.455,2.424-.192.666-.646.916-1.537.261-2.418l-2.685,2.61Z"/><path d="M147.133,150.275l-1.04,1.064-.687-.671c.097.564.107,1.492-.731,2.351-.939.962-2.179,1.406-3.815-.193l-3.125-3.054,1.197-1.225,2.885,2.818c.823.806,1.438,1.07,2.164.326.537-.549.621-1.07.594-1.523l-3.696-3.612,1.196-1.225,5.059,4.943Z"/><path d="M138.657,163.932l-1.076,1.162-4.06-15.133,1.066-1.149,4.069,15.12Z"/><path d="M135.091,166.077l-1.172,1.333-5.74-5.047-3.094,3.519-1.129-.993,4.266-4.852,6.869,6.04Z"/><path d="M124.642,169.513c2.187,1.822,1.578,3.876.503,5.165-1.146,1.376-2.961,2.278-5.172.436-2.174-1.812-1.578-3.876-.503-5.165,1.146-1.376,2.974-2.269,5.172-.436ZM121.09,173.775c1.216,1.014,2.196.937,2.975.003s.679-1.912-.538-2.926c-1.203-1.004-2.197-.937-2.975-.003-.778.934-.666,1.923.538,2.926Z"/><path d="M118.272,177.211c2.235,1.766,1.682,3.836.64,5.154-1.11,1.407-2.901,2.357-5.162.572-2.223-1.755-1.681-3.836-.64-5.154,1.111-1.406,2.914-2.348,5.162-.572ZM114.831,181.57c1.243.981,2.223.878,2.977-.076.754-.955.627-1.931-.616-2.913-1.23-.972-2.222-.878-2.976.076s-.615,1.94.615,2.913Z"/><path d="M110.962,184.411l-1.006,1.346c-.641-.399-1.356.024-1.998.883-.585.782-.93,1.483-.404,1.877.564.421,1.296-.37,2.354-1.357,1.017-.959,2.133-1.783,3.324-.893,1.166.872.766,2.451-.279,3.848-1.044,1.397-2.307,2.312-3.807,1.351l1.006-1.346c.683.37,1.3-.188,1.74-.777.585-.782.757-1.333.372-1.62-.513-.383-1.11.229-2.334,1.412-.952.926-2.122,1.77-3.289.897-1.372-1.025-.865-2.665.323-4.254,1.131-1.513,2.572-2.372,3.998-1.366Z"/><path d="M106.079,193.135c2.312,1.637,1.951,3.695.943,5.119-1.045,1.477-2.83,2.447-5.115.829l-.314-.222,3.199-4.52c-1.033-.673-1.998-.611-2.793.513-.546.771-.611,1.527-.124,2.03l-1.017,1.437c-1.295-1.328-.812-3.007.074-4.261,1.184-1.672,2.978-2.461,5.146-.926ZM103.59,198.119c.972.511,1.812.126,2.349-.632.537-.757.62-1.679-.186-2.425l-2.163,3.057Z"/><path d="M102.989,203.749l-.828,1.236-.797-.534c.199.537.379,1.446-.289,2.443-.746,1.116-1.883,1.78-3.783.508l-3.629-2.429.951-1.422,3.35,2.241c.957.641,1.609.788,2.188-.075.427-.638.414-1.166.305-1.605l-4.293-2.873.951-1.422,5.875,3.932Z"/><path d="M89.553,231.547l-.754,1.338-11.549-6.515.754-1.338,11.549,6.515Z"/><path d="M75.545,255.989l-.8,1.71-9.652-.962.806-1.725,2.111.245,1.361-2.914-1.548-1.448.792-1.695,6.93,6.789ZM70.477,253.302l-1.003,2.146.984.124,3.054.456-2.309-2.051-.727-.675Z"/><path d="M67.399,260.226c2.39,1.042,2.818,2.782,2.204,4.189-.447,1.026-1.257,1.441-1.665,1.578l3.681,1.604-.685,1.569-9.486-4.137.594-1.364.851.371c-.308-.535-.543-1.476-.063-2.575.627-1.438,2.18-2.278,4.57-1.236ZM63.862,264.216l3.021,1.316c.427-.18.917-.542,1.204-1.202.486-1.114-.145-1.948-1.391-2.491-1.247-.544-2.287-.438-2.773.676-.287.659-.22,1.265-.061,1.701Z"/><path d="M63.425,269.431c2.417.978,2.893,2.706,2.316,4.13-.419,1.038-1.218,1.475-1.622,1.621l3.723,1.506-.642,1.587-9.596-3.88.558-1.38.86.349c-.321-.527-.583-1.461-.134-2.573.588-1.454,2.119-2.337,4.536-1.359ZM59.997,273.515l3.055,1.235c.424-.191.902-.566,1.173-1.234.456-1.127-.198-1.943-1.458-2.453-1.262-.51-2.299-.377-2.754.75-.27.668-.186,1.271-.016,1.702Z"/><path d="M63.835,287.139l-.555,1.483-9.504-12.449.549-1.469,9.51,12.435Z"/><path d="M55.471,287.919l-.562,1.635c-.934-.236-1.565.122-1.971,1.303-.369,1.074-.215,1.855.48,2.095.576.198.984-.152,1.439-.74l1.303-1.72c.712-.939,1.705-1.513,2.945-1.086,1.62.557,2.024,2.236,1.39,4.083-.593,1.726-1.849,2.868-3.797,2.232l.567-1.65c.975.268,1.509-.107,1.842-1.076.369-1.074.098-1.71-.469-1.887-.488-.151-.869-.028-1.342.604l-1.326,1.744c-.703.909-1.611,1.681-3.004,1.202-1.756-.604-2.067-2.403-1.412-4.311.672-1.953,2.023-3.079,3.916-2.429Z"/><path d="M52.051,297.864l4.166,1.312-.515,1.633-3.845-1.212c-1.1-.346-1.767-.305-2.078.688-.231.732-.071,1.235.158,1.627l4.928,1.552-.514,1.633-6.744-2.124.447-1.419.915.288c-.342-.46-.771-1.282-.409-2.427.403-1.282,1.309-2.238,3.49-1.551Z"/><path d="M46.975,308.391l-.893-.254.408-1.431,9.952,2.843-.471,1.646-3.86-1.104c.229.365.589,1.199.281,2.276-.431,1.507-1.859,2.547-4.366,1.83-2.507-.716-3.161-2.384-2.739-3.86.329-1.153,1.109-1.729,1.688-1.947ZM48.51,312.507c1.308.373,2.325.132,2.659-1.037.197-.692.05-1.283-.165-1.694l-3.168-.905c-.4.235-.838.659-1.035,1.352-.334,1.169.402,1.911,1.709,2.285Z"/><path d="M46.326,318.576l2.62.674.561-2.187,1.318.339-.562,2.186,3.179.816-.427,1.659-3.179-.816-.863,3.364-1.318-.339.865-3.364-2.559-.657c-1.287-.33-1.801-.197-2.095.949-.163.636-.175,1.261-.097,1.793l-1.334-.342c-.09-.553-.107-1.251.127-2.166.454-1.768,1.375-2.522,3.763-1.909Z"/><path d="M42.639,326.428l-.389,1.7,4.258.975.389-1.7,1.325.304-.722,3.15-1.559-.357c.696.472,1.49,1.375,1.18,2.732-.118.515-.35.953-.593,1.226l-1.685-.385c.281-.297.527-.799.631-1.251.25-1.092-.146-1.871-.52-2.318l-3.088-.707-.664,2.9-1.31-.3,1.436-6.269,1.31.3Z"/><path d="M41.022,335.972c1.6.32,1.736,1.833,1.451,3.261-.145.721-.424,1.465-.631,1.848l.564.113c.894.179,1.631.163,1.889-1.123.195-.973-.084-1.615-.9-1.779l.318-1.584c1.898.38,2.23,2.062,1.894,3.74-.362,1.804-1.372,2.857-3.317,2.468l-2.871-.575c-.266-.053-.379.022-.436.305-.037.188-.047.479-.038.678l-1.114-.224c-.068-.308-.118-.872-.015-1.39.177-.879.681-1.038,1.199-.935l.126.025c-.383-.452-.873-1.35-.586-2.777.27-1.349,1.086-2.327,2.467-2.051ZM39.928,340.697l.878.176c.138-.282.33-.913.449-1.509.186-.926.136-1.571-.522-1.704-.534-.106-.848.238-1.002,1.007-.176.879-.016,1.629.197,2.03Z"/><path d="M40.739,346.088c2.869.497,3.308,2.554,3.008,4.288-.271,1.561-1.199,3.169-3.428,2.913l.295-1.702c1.088.091,1.55-.511,1.711-1.441.213-1.229-.326-2.053-1.887-2.323-1.576-.273-2.346.324-2.561,1.569-.159.914.057,1.634,1.113,1.914l-.295,1.702c-2.154-.503-2.494-2.381-2.229-3.909.304-1.75,1.435-3.502,4.272-3.011Z"/><path d="M38.258,357.831l2.677.393.327-2.233,1.347.197-.328,2.232,3.248.476-.248,1.695-3.248-.476-.503,3.437-1.347-.197.504-3.437-2.613-.383c-1.314-.192-1.812-.006-1.982,1.166-.096.649-.041,1.271.093,1.793l-1.362-.199c-.147-.539-.24-1.232-.104-2.167.265-1.806,1.102-2.654,3.54-2.297Z"/><path d="M42.305,387.892l-.107,1.532-13.23-.924.106-1.532,13.231.924Z"/><path d="M40.086,413.289l.036,2.207-2.641.906-2.006.608,2.023.512,2.669.82.034,2.143-9.146.148-.025-1.583,4.669-.076,2.817.146-5.031-1.502-.02-1.247,4.979-1.665-2.812.238-4.67.075-.025-1.583,9.147-.148Z"/><path d="M33.787,423.89l4.366-.138.053,1.711-4.029.127c-1.151.036-1.768.296-1.734,1.335.023.768.342,1.189.687,1.483l5.165-.163.055,1.711-7.068.223-.047-1.487.959-.03c-.475-.32-1.15-.956-1.188-2.155-.043-1.343.496-2.545,2.782-2.616Z"/><path d="M32.786,433.892l.135,2.349,7.652-.438-.135-2.349,1.342-.077.232,4.058-8.994.516.136,2.364-1.343.077-.367-6.422,1.342-.077Z"/><path d="M35.198,445.323l2.695-.227-.189-2.248,1.355-.114.189,2.248,3.269-.275.144,1.706-3.269.275.291,3.461-1.354.113-.292-3.46-2.631.222c-1.323.111-1.765.405-1.665,1.586.055.653.25,1.247.498,1.724l-1.371.116c-.266-.492-.514-1.146-.594-2.086-.152-1.818.469-2.834,2.924-3.041Z"/><path d="M34.3,453.978l.27,2.448,4.342-.479-.271-2.449,1.351-.148.459,4.149-5.692.628.247,2.242-1.336.147-.705-6.392,1.336-.147ZM43.503,455.263l.229,2.083-1.924.213-.229-2.083,1.924-.213Z"/><path d="M41.14,463.306l.202,1.475-.92.125c.541.298,1.232.979,1.395,2.168.212,1.554-.678,3.08-3.262,3.434-2.584.353-3.855-.911-4.063-2.433-.152-1.11.323-1.886.602-2.214l-3.615.493-.231-1.696,9.893-1.352ZM38.317,468.763c1.348-.185,2.166-.812,2.002-2.018-.098-.714-.455-1.198-.817-1.487l-3.282.448c-.271.376-.485.938-.388,1.652.165,1.204,1.122,1.591,2.485,1.404Z"/><path d="M36.868,473.952l.381,2.321,7.564-1.242-.381-2.321,1.326-.219.66,4.012-8.893,1.461.385,2.337-1.326.218-1.043-6.349,1.326-.218Z"/><path d="M35.578,483.949c.288,1.509.901,2.157,2.13,2.444l6.31-4.4.36,1.886-3.029,1.965-1.99,1.179,2.272.38,3.56.721.342,1.791-7.156-1.645c-2.609-.609-3.685-1.462-4.181-4.056l1.383-.265Z"/><path d="M50.567,497.665l.34,1.547-14.741-5.294-.337-1.531,14.738,5.278Z"/><path d="M50.299,501.816l.688,2.78c.73,2.951-.686,4.357-3.467,5.045-2.656.658-4.699.06-5.419-2.846l-.688-2.78,8.886-2.199ZM43.3,505.378l.262,1.056c.466,1.88,1.944,1.794,3.514,1.405,1.584-.392,2.917-1.002,2.451-2.882l-.262-1.056-5.965,1.477Z"/><path d="M45.151,513.333l.656,2.375,4.211-1.162-.656-2.375,1.312-.362,1.11,4.026-5.522,1.524.6,2.175-1.295.357-1.712-6.201,1.296-.357ZM54.445,513.142l.558,2.021-1.867.515-.557-2.021,1.866-.516Z"/><path d="M53.122,520.6l.561,1.837-2.807,2.261-1.848,1.4,2.299.135,3.615.336.533,1.745-7.676-.921-.531-1.745,5.854-5.048Z"/><path d="M50.859,532.667l.78,2.339,4.145-1.384-.779-2.338,1.29-.431,1.321,3.963-5.435,1.813.714,2.141-1.275.426-2.036-6.104,1.275-.426ZM60.132,531.987l.664,1.989-1.838.612-.664-1.988,1.838-.613Z"/><path d="M56,541.037c2.45-.891,3.958.075,4.482,1.519.382,1.052.081,1.91-.12,2.289l3.771-1.371.585,1.608-9.724,3.534-.509-1.397.872-.316c-.592-.177-1.41-.696-1.82-1.823-.535-1.473.012-3.152,2.462-4.042ZM56.183,546.364l3.097-1.126c.186-.425.291-1.024.045-1.701-.415-1.142-1.447-1.312-2.725-.848-1.277.465-1.959,1.257-1.544,2.399.245.677.712,1.068,1.127,1.275Z"/><path d="M59.431,550.452c2.636-1.037,4.161.393,4.8,2.016.662,1.683.496,3.709-2.109,4.734l-.357.141-2.027-5.153c-1.129.496-1.606,1.337-1.103,2.618.346.879.943,1.349,1.63,1.216l.645,1.638c-1.82.355-2.96-.967-3.522-2.396-.75-1.906-.427-3.84,2.045-4.812ZM62.237,555.264c.959-.532,1.099-1.447.759-2.311s-1.065-1.438-2.13-1.174l1.371,3.484Z"/><path d="M78.168,576.53l.671,1.381-11.929,5.794-.671-1.382,11.929-5.793Z"/><path d="M83.42,602.869l.87,1.493c-.789.552-.93,1.264-.301,2.342.571.981,1.264,1.375,1.899,1.004.525-.306.526-.844.38-1.572l-.451-2.108c-.246-1.153-.031-2.278,1.103-2.938,1.479-.862,3.015-.071,3.997,1.615.918,1.576.963,3.272-.791,4.331l-.878-1.507c.839-.562.905-1.212.39-2.097-.572-.982-1.231-1.19-1.734-.879-.435.271-.59.641-.419,1.411l.452,2.144c.23,1.125.221,2.316-1.051,3.058-1.604.935-3.17-.005-4.186-1.747-1.039-1.783-1.008-3.542.72-4.549Z"/><path d="M92.431,609.643l.783,1.266-.789.489c.615.052,1.523.394,2.155,1.414.825,1.334.633,3.091-1.586,4.464s-3.895.734-4.703-.572c-.589-.953-.47-1.855-.35-2.269l-3.103,1.921-.901-1.457,8.493-5.256ZM92.068,615.779c1.157-.716,1.649-1.623,1.01-2.658-.38-.612-.902-.91-1.352-1.027l-2.817,1.744c-.096.454-.062,1.055.316,1.667.641,1.034,1.672.998,2.843.274Z"/><path d="M94.436,619.594c2.369-1.553,4.153-.466,5.109.993.992,1.512,1.242,3.529-1.1,5.064l-.32.211-3.037-4.631c-1.004.716-1.299,1.637-.545,2.788.518.789,1.199,1.127,1.845.857l.965,1.472c-1.71.719-3.095-.343-3.938-1.628-1.123-1.713-1.201-3.671,1.021-5.127ZM98.163,623.732c.832-.717.781-1.641.272-2.416-.509-.776-1.336-1.191-2.325-.715l2.053,3.131Z"/><path d="M99.962,627.949c2.326-1.615,4.139-.576,5.133.856,1.031,1.484,1.336,3.493-.963,5.09l-.316.219-3.156-4.546c-.984.742-1.256,1.671-.471,2.8.538.775,1.228,1.096,1.865.808l1.004,1.445c-1.689.765-3.102-.26-3.979-1.521-1.168-1.682-1.298-3.636.883-5.15ZM103.798,631.984c.811-.738.736-1.66.207-2.422s-1.367-1.154-2.343-.652l2.136,3.074Z"/><path d="M105.71,636.102c2.102-1.545,3.822-1.041,4.732.196.662.902.615,1.812.528,2.232l3.235-2.378,1.015,1.38-8.343,6.131-.881-1.199.748-.55c-.617-.003-1.55-.271-2.26-1.238-.93-1.264-.877-3.029,1.225-4.574ZM107.385,641.165l2.656-1.952c.059-.46-.009-1.065-.436-1.646-.72-.979-1.758-.852-2.854-.047-1.096.806-1.527,1.759-.808,2.738.427.58.983.826,1.44.907Z"/><path d="M113.827,644.014l2.983,3.841-1.188.923-2.983-3.841,1.188-.923Z"/><path d="M117.544,653.004l3.379-2.767,1.084,1.324-3.119,2.554c-.891.729-1.221,1.311-.562,2.114.486.594.995.735,1.447.758l3.997-3.272,1.084,1.324-5.47,4.479-.941-1.151.742-.607c-.572.034-1.494-.058-2.254-.986-.852-1.039-1.156-2.32.613-3.769Z"/><path d="M127.223,657.854l.973,1.127-.703.605c.616-.045,1.566.149,2.35,1.059,1.025,1.188,1.11,2.952-.865,4.656-1.975,1.703-3.729,1.336-4.731.173-.731-.849-.755-1.758-.701-2.185l-2.763,2.383-1.118-1.296,7.56-6.522ZM127.829,663.968c1.029-.889,1.373-1.861.578-2.782-.47-.545-1.033-.757-1.494-.803l-2.508,2.164c-.023.463.104,1.052.574,1.597.794.921,1.807.723,2.85-.176Z"/><path d="M140.133,667.477l1.066,1.17-15.416,2.77-1.055-1.158,15.404-2.781Z"/><path d="M137.016,675.285l1.195,1.246c-.637.722-.605,1.446.259,2.347.786.818,1.551,1.038,2.081.528.439-.421.314-.944,0-1.618l-.934-1.941c-.511-1.062-.566-2.206.379-3.114,1.234-1.186,2.912-.778,4.264.629,1.263,1.315,1.705,2.953.25,4.395l-1.207-1.258c.682-.744.594-1.391-.115-2.129-.787-.819-1.477-.867-1.892-.445-.358.366-.423.761-.075,1.469l.944,1.977c.487,1.039.759,2.198-.303,3.217-1.339,1.285-3.081.741-4.476-.712-1.43-1.488-1.813-3.204-.371-4.589Z"/><path d="M143.28,683.772l1.673,1.653,5.386-5.453-1.672-1.652.943-.957,2.893,2.856-6.332,6.409,1.685,1.664-.944.956-4.576-4.521.945-.956Z"/><path d="M151.635,688.902c1.947-2.078,3.963-1.351,5.188-.202,1.308,1.226,2.104,3.09.134,5.191-1.936,2.065-3.963,1.351-5.188.201-1.309-1.225-2.094-3.101-.135-5.19ZM155.686,692.698c1.083-1.155,1.062-2.14.176-2.971-.888-.831-1.871-.788-2.954.367-1.072,1.145-1.062,2.14-.175,2.972.887.831,1.881.776,2.953-.368Z"/><path d="M160.877,692.7l1.206,1.074-3.246,4.754,3.613-2.544,1.338,1.191-2.084,3.905,4.334-3.787,1.171,1.043-5.62,4.462-1.494-1.33,1.949-3.704-3.455,2.364-1.493-1.329,3.781-6.1Z"/><path d="M168.563,701.785l3.715,3.136-.969,1.148-3.716-3.136.97-1.148Z"/><path d="M174.128,708.774c1.629-2.037,3.42-1.998,4.62-1.038.874.699,1.065,1.589,1.09,2.019l2.509-3.137,1.337,1.069-6.466,8.086-1.162-.93.579-.725c-.597.157-1.567.141-2.505-.609-1.225-.979-1.632-2.699-.002-4.735ZM177.059,713.229l2.059-2.574c-.062-.46-.285-1.027-.848-1.478-.949-.759-1.919-.366-2.769.695-.85,1.062-1.02,2.095-.069,2.854.562.449,1.164.542,1.627.502Z"/><path d="M181.995,715.021c1.72-2.271,3.801-1.759,5.141-.744,1.428,1.082,2.415,2.853.677,5.148-1.71,2.259-3.8,1.759-5.14.745-1.429-1.082-2.406-2.865-.678-5.149ZM186.422,718.373c.956-1.263.833-2.239-.137-2.974-.97-.733-1.942-.588-2.899.675-.946,1.251-.832,2.24.137,2.974.97.734,1.953.575,2.899-.675Z"/><path d="M191.571,717.817l1.312.941-2.73,5.07,3.327-2.91,1.456,1.045-1.662,4.103,3.912-4.222,1.275.914-5.123,5.028-1.625-1.165,1.549-3.89-3.187,2.715-1.625-1.166,3.12-6.464Z"/><path d="M200.581,724.216l1.232.835-.539.794c.539-.195,1.449-.37,2.443.303,1.112.753,1.77,1.895.486,3.788l-2.449,3.616-1.418-.96,2.262-3.338c.646-.954.797-1.604-.063-2.188-.636-.431-1.164-.421-1.604-.313l-2.897,4.278-1.417-.96,3.965-5.854Z"/><path d="M228.315,737.827l1.332.763-6.59,11.512-1.333-.764,6.591-11.511Z"/><path d="M252.675,751.985l1.705.81-1.023,9.646-1.72-.816.259-2.109-2.905-1.38-1.458,1.539-1.689-.804,6.832-6.885ZM249.956,757.034l2.139,1.017.131-.983.475-3.051-2.064,2.296-.68.722Z"/><path d="M256.873,760.156c1.181-2.664,3.283-2.59,4.894-1.876,1.448.642,2.783,1.934,1.992,4.034l-1.58-.7c.354-1.034-.119-1.628-.982-2.011-1.141-.506-2.072-.183-2.714,1.266-.648,1.463-.256,2.355.9,2.867.849.376,1.6.342,2.128-.614l1.58.7c-1.012,1.967-2.916,1.841-4.336,1.212-1.624-.72-3.049-2.244-1.882-4.878Z"/><path d="M267.67,765.417l1.028-2.501-2.086-.858.518-1.258,2.086.858,1.248-3.034,1.584.651-1.248,3.034,3.212,1.321-.517,1.258-3.213-1.321-1.004,2.442c-.506,1.229-.445,1.755.65,2.205.606.25,1.224.348,1.762.345l-.523,1.272c-.559.013-1.254-.065-2.127-.425-1.688-.694-2.308-1.711-1.37-3.99Z"/><path d="M274.944,770.159l2.303.876,1.554-4.082-2.303-.877.483-1.271,3.903,1.485-2.038,5.354,2.109.803-.479,1.256-6.012-2.288.479-1.256ZM280.287,762.553l1.959.746-.688,1.81-1.959-.746.688-1.81Z"/><path d="M285.486,768.014l1.812.636.163,3.602.035,2.319,1.47-1.774,2.411-2.717,1.722.604-5.286,5.645-1.722-.604-.605-7.71Z"/><path d="M294.155,774.8c.864-2.695,2.935-2.972,4.594-2.439,1.721.552,3.184,1.961,2.33,4.626l-.117.365-5.27-1.689c-.33,1.188.02,2.089,1.328,2.509.898.288,1.641.122,1.973-.493l1.675.537c-.876,1.634-2.621,1.679-4.083,1.21-1.949-.625-3.24-2.097-2.43-4.625ZM299.652,775.672c.195-1.079-.425-1.765-1.308-2.048-.884-.283-1.787-.086-2.256.905l3.563,1.143Z"/><path d="M311.758,773.039l1.521.443-11.725,10.401-1.506-.439,11.709-10.405Z"/><path d="M313.138,781.323l1.671.439c-.167.949.236,1.552,1.443,1.869,1.099.29,1.865.078,2.053-.634.155-.588-.225-.969-.844-1.381l-1.809-1.171c-.99-.641-1.635-1.588-1.3-2.857.436-1.655,2.08-2.182,3.968-1.685,1.764.464,2.994,1.632,2.504,3.621l-1.686-.444c.194-.991-.219-1.497-1.209-1.758-1.098-.289-1.711.029-1.847.605-.115.5.036.87.702,1.294l1.836,1.194c.958.634,1.793,1.482,1.419,2.905-.473,1.795-2.244,2.238-4.194,1.726-1.995-.526-3.217-1.791-2.708-3.725Z"/><path d="M324.78,784.03l.618-2.633-2.196-.517.311-1.324,2.197.517.75-3.193,1.668.392-.751,3.193,3.38.795-.311,1.324-3.381-.795-.604,2.571c-.305,1.293-.162,1.803.991,2.074.639.15,1.264.148,1.794.06l-.314,1.34c-.55.102-1.248.135-2.168-.082-1.775-.417-2.549-1.322-1.984-3.722Z"/><path d="M332.43,786.973c.332-1.599,1.846-1.726,3.271-1.43.721.149,1.463.434,1.844.644l.117-.564c.186-.893.175-1.631-1.109-1.897-.973-.201-1.617.073-1.787.889l-1.582-.328c.393-1.896,2.078-2.217,3.754-1.869,1.803.373,2.85,1.392,2.447,3.335l-.596,2.867c-.055.267.02.38.303.438.188.039.479.051.677.043l-.23,1.112c-.308.067-.874.113-1.391.006-.878-.182-1.034-.688-.927-1.205l.025-.126c-.454.38-1.355.863-2.781.567-1.348-.279-2.321-1.103-2.035-2.481ZM337.149,788.099l.182-.878c-.281-.14-.91-.336-1.506-.46-.925-.191-1.571-.146-1.708.513-.11.532.232.849,1.001,1.008.877.183,1.629.027,2.031-.183Z"/><path d="M344.395,788.182l.477-2.661-2.221-.398.24-1.338,2.221.397.578-3.228,1.686.302-.578,3.229,3.416.612-.239,1.339-3.417-.613-.466,2.599c-.234,1.307-.064,1.809,1.101,2.018.646.116,1.27.081,1.795-.036l-.243,1.354c-.544.13-1.239.2-2.168.034-1.795-.322-2.616-1.185-2.181-3.609Z"/><path d="M352.519,791.283l2.437.372.658-4.32-2.437-.371.205-1.345,4.13.629-.863,5.665,2.23.34-.201,1.329-6.361-.97.202-1.329ZM356.139,782.719l2.072.315-.291,1.915-2.073-.315.292-1.915Z"/><path d="M362.319,790.524c.36-2.889,2.394-3.424,4.139-3.205,1.572.196,3.223,1.047,3.071,3.284l-1.714-.214c.039-1.091-.583-1.523-1.52-1.641-1.238-.154-2.035.423-2.231,1.993-.198,1.587.435,2.327,1.688,2.484.92.114,1.628-.136,1.858-1.202l1.714.214c-.4,2.174-2.26,2.603-3.799,2.41-1.762-.22-3.564-1.268-3.207-4.124Z"/><path d="M394.202,786.635l1.533.076-.658,13.244-1.533-.076.658-13.244Z"/></svg>