<?xml version="1.0" encoding="UTF-8"?><svg id="Layer_1" xmlns="http://www.w3.org/2000/svg" width="1.924in" height="1.927in" viewBox="0 0 138.5 138.746"><defs><style>.cls-1{fill:#d1d3d4;}.cls-2{opacity:.5;}</style></defs><path d="M69.25,138.746C31.065,138.746,0,107.681,0,69.496S31.065.246,69.25.246s69.25,31.065,69.25,69.25-31.065,69.25-69.25,69.25ZM69.25.746C31.341.746.5,31.587.5,69.496s30.841,68.75,68.75,68.75,68.75-30.841,68.75-68.75S107.159.746,69.25.746Z"/><g class="cls-2"><polygon class="cls-1" points="128.99 104 110.99 72.823 87.25 58.967 87.25 31.677 69.25 .5 51.25 31.677 51.25 58.956 27.51 72.823 9.51 104 45.51 104 69.24 90.138 92.99 104 128.99 104"/><path d="M129.423,104.25h-36.5l-23.683-13.822-23.663,13.822H9.077l18.25-31.609.058-.033,23.616-13.795v-27.203L69.25,0l18.25,31.609v27.214l23.674,13.817,18.249,31.609ZM93.058,103.75h35.5l-17.751-30.744-23.807-13.896v-27.366L69.25,1l-17.75,30.744v27.355l-23.807,13.906-17.75,30.744h35.5l23.798-13.9.126.073,23.691,13.827Z"/></g><circle cx="69.25" cy="69.496" r="9.142"/></svg>