<?xml version="1.0" encoding="UTF-8"?><svg id="Layer_1" xmlns="http://www.w3.org/2000/svg" width="1.924in" height="1.924in" viewBox="0 0 138.5 138.5"><defs><style>.cls-1{fill:#d1d3d4;}.cls-2{opacity:.5;}</style></defs><path d="M69.25,138.601C31.065,138.601,0,107.535,0,69.351S31.065.101,69.25.101s69.25,31.065,69.25,69.25-31.065,69.25-69.25,69.25ZM69.25.601C31.341.601.5,31.442.5,69.351s30.841,68.75,68.75,68.75,68.75-30.841,68.75-68.75S107.159.601,69.25.601Z"/><g class="cls-2"><polygon class="cls-1" points="69.25 .99 51.25 28.334 51.25 137.711 87.25 137.711 87.25 28.334 69.25 .99"/><path d="M87.5,137.961h-36.5V28.259l.041-.063L69.25.535l18.25,27.724v109.702ZM51.5,137.461h35.5V28.409L69.25,1.444l-17.75,26.964v109.052Z"/></g><circle cx="69.25" cy="69.35" r="9.142"/></svg>