<?xml version="1.0" encoding="UTF-8"?><svg id="Layer_1" xmlns="http://www.w3.org/2000/svg" width="1.924in" height="1.931in" viewBox="0 0 138.5 139"><defs><style>.cls-1{fill:#d1d3d4;}.cls-2{opacity:.5;}</style></defs><path d="M69.25,138.75C31.065,138.75,0,107.685,0,69.5S31.065.25,69.25.25s69.25,31.065,69.25,69.25-31.065,69.25-69.25,69.25ZM69.25.75C31.341.75.5,31.591.5,69.5s30.841,68.75,68.75,68.75,68.75-30.841,68.75-68.75S107.159.75,69.25.75Z"/><g class="cls-2"><polygon class="cls-1" points="87.25 31.677 69.25 .5 51.25 31.677 51.25 107.323 69.25 138.5 87.25 107.323 87.25 31.677"/><path d="M69.25,139l-18.25-31.61V31.61l.033-.058L69.25,0l18.25,31.61v75.78l-.033.058-18.217,31.552ZM51.5,107.256l17.75,30.744,17.75-30.744V31.744L69.25,1l-17.75,30.744v75.512Z"/></g><circle cx="69.25" cy="69.5" r="9.142"/></svg>