<?xml version="1.0" encoding="UTF-8"?><svg id="Layer_1" xmlns="http://www.w3.org/2000/svg" width="11.503in" height="11.503in" viewBox="0 0 828.25 828.25"><defs><style>.cls-1{fill:#ff8c00;opacity:.5;stroke:#231f20;stroke-miterlimit:10;stroke-width:.25px;}</style></defs><path class="cls-1" d="M413.517.125C184.871.125-.483,185.479-.483,414.125s185.354,414,414,414,414-185.354,414-414S642.163.125,413.517.125ZM413.517,759.125c-190.538,0-345-154.462-345-345S222.978,69.125,413.517,69.125s345,154.462,345,345-154.462,345-345,345Z"/><path d="M458.259,787.833l-3.002.363-.181-1.493,7.783-.942.181,1.493-3.002.363.919,7.593-1.779.216-.919-7.593Z"/><path d="M466.642,796.078c1.519-.226,2.192-.811,2.53-2.025l-4.133-6.485,1.899-.282,1.836,3.107,1.095,2.037.474-2.254.867-3.525,1.804-.268-1.94,7.08c-.716,2.581-1.613,3.62-4.224,4.008l-.207-1.393Z"/><path d="M475.743,785.928l1.466-.257.16.914c.277-.552.931-1.268,2.113-1.475,1.545-.271,3.104.561,3.554,3.13s-.765,3.887-2.278,4.152c-1.103.193-1.896-.253-2.235-.519l.63,3.594-1.687.296-1.724-9.836ZM481.304,788.544c-.235-1.34-.894-2.134-2.092-1.924-.709.124-1.18.499-1.456.872l.572,3.263c.386.257.956.45,1.666.325,1.198-.21,1.547-1.181,1.31-2.536Z"/><path d="M485.703,787.769c-.562-2.776,1.111-4.029,2.821-4.375,1.773-.358,3.739.157,4.294,2.902l.076.377-5.427,1.098c.292,1.198,1.037,1.815,2.386,1.542.925-.187,1.493-.693,1.481-1.394l1.726-.349c.032,1.854-1.469,2.746-2.975,3.051-2.008.406-3.854-.249-4.381-2.853ZM490.931,785.846c-.357-1.038-1.233-1.335-2.143-1.15-.91.184-1.602.798-1.527,1.893l3.67-.742Z"/><path d="M498.416,785.792l-2.682.62-.335-1.451,2.682-.619-.626-2.713,1.606-.371.626,2.713,2.683-.619.335,1.45-2.683.619.63,2.729-1.606.371-.63-2.729Z"/><path d="M506.264,785.263l2.153-.558-1.541-5.947-2.153.558-.377-1.456,6.041-1.565.377,1.456-2.153.558,1.541,5.947,2.153-.558.377,1.456-6.041,1.565-.377-1.456Z"/><path d="M513.742,777.543l1.246-.358.279.969c.107-.497.384-1.326,1.354-1.605.8-.229,1.396.165,1.685.647.092-.376.391-1.244,1.345-1.519,1.062-.306,1.753.478,2.143,1.831l1.35,4.691-1.461.421-1.274-4.43c-.239-.831-.49-1.125-.92-1.001-.416.119-.634.516-.774.839l1.447,5.029-1.461.421-1.274-4.43c-.239-.831-.49-1.125-.921-1.001-.416.119-.65.52-.79.843l1.447,5.03-1.461.42-1.956-6.798Z"/><path d="M525.063,779.679c-.492-1.557.767-2.407,2.155-2.846.702-.222,1.488-.336,1.923-.34l-.174-.549c-.275-.87-.644-1.508-1.896-1.113-.946.3-1.375.854-1.124,1.647l-1.541.487c-.583-1.847.729-2.949,2.362-3.465,1.755-.555,3.166-.179,3.764,1.714l.882,2.792c.082.26.203.322.477.235.183-.058.443-.19.612-.294l.343,1.083c-.236.209-.707.525-1.21.685-.854.271-1.238-.095-1.397-.599l-.039-.122c-.211.554-.761,1.415-2.15,1.854-1.312.414-2.563.172-2.988-1.171ZM529.73,778.356l-.27-.854c-.314.015-.959.151-1.539.335-.9.284-1.442.641-1.24,1.281.164.519.618.627,1.365.391.854-.27,1.435-.771,1.684-1.152Z"/><path d="M535.475,778.724l1.558-.539c.317.771.853,1.145,2.002.746,1.391-.481,1.301-1.279.992-2.172l-.33-.952c-.203.442-.645,1.12-1.673,1.477-1.558.539-3.204-.06-4-2.358-.801-2.313.158-3.848,1.67-4.371,1.089-.377,2.033-.094,2.513.265l-.298-.862,1.406-.486,2.376,6.865c.623,1.8-.086,3.078-2.294,3.842-1.482.513-3.15.633-3.923-1.453ZM539.315,774.703l-1.005-2.903c-.463-.212-1.036-.302-1.671-.082-1.164.403-1.375,1.407-.957,2.617.418,1.21,1.2,1.854,2.365,1.45.635-.22,1.035-.629,1.268-1.082Z"/><path d="M543.545,771.748c-.997-2.649.454-4.152,2.086-4.766,1.691-.637,3.713-.439,4.698,2.18l.135.359-5.179,1.948c.479,1.136,1.312,1.625,2.599,1.141.883-.332,1.362-.922,1.24-1.61l1.646-.62c.328,1.825-1.012,2.943-2.449,3.484-1.916.721-3.842.369-4.777-2.116ZM548.395,769.017c-.518-.967-1.429-1.119-2.297-.793-.868.327-1.454,1.042-1.205,2.111l3.502-1.318Z"/><path d="M632.796,725.737l1.401-1.012c.627.731,1.349.802,2.36.071.921-.665,1.245-1.393.813-1.989-.356-.493-.891-.441-1.603-.224l-2.054.654c-1.124.357-2.264.254-3.032-.81-1.002-1.388-.366-2.993,1.217-4.136,1.479-1.068,3.163-1.278,4.388.363l-1.414,1.021c-.642-.779-1.295-.782-2.125-.183-.921.666-1.064,1.342-.705,1.812.313.405.695.524,1.445.278l2.089-.66c1.097-.339,2.283-.445,3.146.748,1.086,1.504.305,3.154-1.33,4.335-1.673,1.208-3.426,1.35-4.597-.271Z"/><path d="M637.412,714.445l5.078-3.872.912,1.196-3.665,2.795,1.359,1.781,3.143-2.397.913,1.196-3.144,2.397,1.456,1.909,3.665-2.795.913,1.196-5.078,3.872-5.551-7.279Z"/><path d="M645.235,708.417l2.341-1.888c1.718-1.385,3.61-1.74,4.936-.097,1.335,1.656.59,3.408-1.141,4.804l-.959.772,1.948,2.416-1.382,1.114-5.743-7.122ZM649.479,710.852l.971-.783c1.108-.894,1.242-1.721.63-2.48s-1.439-.791-2.547.103l-.971.782,1.917,2.379Z"/><path d="M654.518,700.801l1.439-1.223,8.377,4.892-1.451,1.232-1.817-1.101-2.451,2.082.806,1.961-1.426,1.213-3.476-9.057ZM658.008,705.352l1.805-1.533-.843-.522-2.587-1.686,1.246,2.825.379.916Z"/><path d="M660.363,695.766l2.002-1.794c1.704-1.527,3.495-1.951,4.916-.366.876.978.851,2.269.286,3.269l4.304.87-1.621,1.452-3.769-.92-.822.737,2.136,2.384-1.323,1.186-6.109-6.817ZM664.697,697.942l.68-.609c1.061-.95,1.196-1.781.545-2.509-.651-.727-1.493-.682-2.553.269l-.679.608,2.008,2.241Z"/><path d="M669.253,687.662l1.372-1.296,8.621,4.442-1.384,1.308-1.873-1.004-2.337,2.208.908,1.916-1.36,1.285-3.947-8.859ZM672.976,692.022l1.721-1.626-.869-.477-2.672-1.547,1.393,2.755.427.895Z"/><path d="M677.449,681.835l-2.143,2.135-1.061-1.065,5.555-5.533,1.061,1.065-2.143,2.134,5.397,5.42-1.27,1.265-5.397-5.42Z"/><path d="M687.296,680.631l1.533-1.61-4.447-4.236-1.533,1.61-1.089-1.037,4.303-4.517,1.088,1.037-1.533,1.609,4.447,4.236,1.533-1.609,1.089,1.037-4.303,4.517-1.088-1.037Z"/><path d="M691.501,671.788c-2.185-1.975-2.745-4.098-.997-6.033,1.759-1.947,3.861-1.601,6.01.342,2.161,1.952,2.756,4.086.997,6.032-1.749,1.936-3.837,1.622-6.01-.341ZM695.338,667.469c-1.199-1.083-2.537-2.013-3.728-.694-1.19,1.317-.131,2.556,1.068,3.639,1.175,1.062,2.538,2.013,3.728.694,1.191-1.317.107-2.576-1.068-3.639Z"/><path d="M695.119,660.823l1.467-1.712,7.321,2.86-2.321-1.715-3.45-2.956,1.02-1.19,6.947,5.953-1.467,1.713-7.321-2.861,2.321,1.715,3.45,2.956-1.02,1.19-6.947-5.953Z"/><path d="M749.562,575.829l.659-1.388,11.979,5.692-.659,1.388-11.979-5.692Z"/><path d="M782.442,482.748l-.53,2.977-1.48-.264,1.376-7.717,1.48.265-.531,2.976,7.527,1.343-.314,1.764-7.527-1.343Z"/><path d="M792.783,477.137c.23-1.52-.132-2.335-1.195-3.014l-7.416,2.05.288-1.898,3.511-.845,2.269-.449-2.016-1.115-3.117-1.863.273-1.804,6.203,3.933c2.258,1.443,2.988,2.605,2.593,5.217l-1.392-.211Z"/><path d="M785.744,465.443l.183-1.478.921.114c-.447-.426-.94-1.262-.792-2.452.193-1.557,1.444-2.806,4.033-2.484,2.589.321,3.494,1.868,3.305,3.394-.138,1.111-.796,1.739-1.149,1.986l3.622.449-.21,1.699-9.912-1.229ZM789.873,460.89c-1.35-.167-2.303.231-2.453,1.438-.088.715.133,1.274.409,1.647l3.288.407c.359-.294.71-.783.799-1.498.149-1.207-.677-1.825-2.043-1.995Z"/><path d="M790.423,456.458c-2.82-.275-3.528-2.242-3.358-3.979.176-1.8,1.245-3.529,4.033-3.257l.382.037-.539,5.512c1.231.072,2.039-.46,2.173-1.83.092-.939-.227-1.63-.899-1.824l.171-1.752c1.783.512,2.197,2.208,2.047,3.737-.199,2.039-1.366,3.614-4.011,3.355ZM790.114,450.896c-1.097.038-1.637.789-1.727,1.713-.09.924.294,1.766,1.363,2.015l.364-3.728Z"/><path d="M792.262,443.73l-.194,2.745-1.484-.104.194-2.745-2.777-.197.116-1.644,2.777.196.194-2.745,1.484.105-.194,2.745,2.793.197-.116,1.644-2.793-.197Z"/><path d="M794.056,436.079l.1-2.224-6.141-.275-.1,2.224-1.503-.067.28-6.237,1.503.067-.1,2.223,6.141.275.1-2.223,1.503.067-.28,6.237-1.503-.067Z"/><path d="M788.882,426.653l.024-1.295,1.008.019c-.443-.248-1.153-.758-1.134-1.765.016-.832.568-1.285,1.115-1.419-.332-.198-1.074-.74-1.055-1.731.021-1.104.973-1.533,2.38-1.507l4.877.094-.029,1.519-4.605-.088c-.863-.016-1.218.137-1.227.585-.008.432.305.758.573.986l5.229.101-.029,1.519-4.605-.088c-.863-.017-1.218.137-1.227.585-.008.432.305.773.573,1.002l5.229.101-.029,1.519-7.068-.135Z"/><path d="M794.287,416.443c-1.631.026-2.086-1.422-2.11-2.877-.012-.735.104-1.521.225-1.939l-.576.01c-.912.015-1.628.187-1.607,1.498.016.991.425,1.561,1.257,1.547l.026,1.615c-1.935.031-2.616-1.541-2.644-3.252-.03-1.84.734-3.083,2.717-3.115l2.926-.048c.272-.005.366-.102.361-.39-.003-.192-.056-.479-.106-.67l1.135-.019c.132.285.301.827.31,1.354.015.896-.445,1.159-.973,1.167l-.128.003c.47.359,1.138,1.133,1.162,2.588.022,1.375-.567,2.505-1.974,2.527ZM794.352,411.595l-.896.015c-.075.305-.128.962-.118,1.569.015.943.201,1.564.873,1.554.543-.009.777-.413.764-1.196-.015-.896-.33-1.594-.624-1.941Z"/><path d="M796.415,406.254l-.054-1.647c.83-.075,1.345-.476,1.306-1.691-.047-1.471-.837-1.621-1.78-1.591l-1.007.032c.363.325.879.948.915,2.036.053,1.646-1.006,3.042-3.437,3.121-2.447.079-3.628-1.291-3.68-2.891-.038-1.151.512-1.97.997-2.321l-.912.029-.048-1.487,7.26-.235c1.903-.062,2.914.994,2.989,3.329.051,1.566-.328,3.196-2.549,3.316ZM793.712,401.395l-3.07.1c-.34.379-.595.9-.573,1.571.04,1.231.937,1.73,2.216,1.689,1.279-.042,2.125-.598,2.086-1.829-.022-.671-.294-1.175-.658-1.531Z"/><path d="M792.134,396.469c-2.828.167-3.834-1.665-3.937-3.406-.107-1.806.68-3.68,3.476-3.845l.383-.023.328,5.528c1.227-.121,1.942-.772,1.861-2.146-.056-.942-.478-1.575-1.173-1.662l-.104-1.757c1.841.228,2.514,1.839,2.604,3.372.121,2.045-.786,3.782-3.438,3.939ZM790.962,391.024c-1.078.208-1.494,1.034-1.439,1.961.055.926.565,1.697,1.66,1.777l-.221-3.738Z"/><path d="M768.458,299.159l-2.065-6.128,1.426-.48,1.498,4.444,2.503-.844-1.298-3.853,1.426-.48,1.298,3.853,3.321-1.119.567,1.684-8.675,2.924Z"/><path d="M770.797,288.038l-5.45,2-.611-1.667,5.45-1.999c1.381-.507,1.667-1.123,1.297-2.129-.369-1.006-.984-1.291-2.366-.784l-5.451,2-.611-1.667,5.45-2c2.192-.804,3.652-.215,4.434,1.917.793,2.162.05,3.525-2.143,4.329Z"/><path d="M767.952,278.674l-.638-1.605c.862-.429,1.107-1.111.646-2.271-.419-1.055-1.045-1.547-1.729-1.274-.564.224-.646.756-.609,1.498l.132,2.15c.072,1.176-.308,2.256-1.527,2.74-1.59.632-2.989-.378-3.71-2.191-.673-1.694-.464-3.377,1.426-4.163l.644,1.62c-.913.432-1.075,1.063-.697,2.015.419,1.056,1.04,1.359,1.583,1.126.47-.203.678-.545.624-1.332l-.128-2.186c-.06-1.146.127-2.322,1.494-2.865,1.724-.686,3.132.477,3.876,2.349.762,1.918.47,3.651-1.388,4.39Z"/><path d="M765.174,268.446l-.876-2.045-5.648,2.42.876,2.045-1.383.593-2.458-5.737,1.383-.592.876,2.044,5.648-2.42-.876-2.044,1.382-.593,2.458,5.736-1.383.593Z"/><path d="M758.696,261.088c-2.676,1.229-4.85.907-5.939-1.463-1.096-2.385.052-4.181,2.684-5.39,2.646-1.217,4.843-.923,5.938,1.462,1.089,2.37-.022,4.167-2.683,5.391ZM756.239,255.859c-1.469.675-2.851,1.539-2.108,3.153.742,1.613,2.297,1.128,3.766.453,1.439-.662,2.85-1.539,2.108-3.153s-2.327-1.115-3.766-.453Z"/><path d="M750.03,253.45l-.999-2.024,5.516-5.611-2.493,1.462-4.078,2.011-.694-1.407,8.213-4.05.998,2.024-5.515,5.611,2.493-1.461,4.078-2.011.694,1.406-8.213,4.05Z"/><path d="M693.28,170.012l-1.017-1.151,9.942-8.778,1.017,1.151-9.942,8.778Z"/><path d="M620.721,103.027l2.523,1.666-.829,1.256-6.542-4.322.829-1.255,2.523,1.667,4.216-6.382,1.495.987-4.216,6.383Z"/><path d="M619.649,91.293c-1.304-.813-2.196-.804-3.24-.097l-1.056,7.621-1.629-1.016.615-3.559.486-2.262-1.822,1.41-2.946,2.123-1.548-.965,6.069-4.138c2.219-1.502,3.576-1.712,5.817-.314l-.745,1.195Z"/><path d="M606.147,93.131l-1.283-.754.47-.8c-.569.241-1.531.363-2.565-.245-1.352-.794-2.001-2.437-.68-4.685,1.32-2.249,3.099-2.466,4.423-1.688.965.566,1.281,1.42,1.367,1.842l1.847-3.146,1.476.867-5.056,8.607ZM603.607,87.539c-.688,1.173-.701,2.204.347,2.82.621.364,1.222.384,1.674.278l1.677-2.855c-.128-.446-.437-.962-1.058-1.326-1.048-.616-1.943-.104-2.64,1.083Z"/><path d="M599.74,85.272c-1.369,2.479-3.456,2.351-4.982,1.508-1.583-.874-2.746-2.541-1.393-4.992l.186-.336,4.847,2.677c.554-1.102.385-2.055-.819-2.72-.827-.456-1.586-.438-2.031.104l-1.541-.852c1.176-1.435,2.897-1.142,4.242-.399,1.793.99,2.776,2.686,1.492,5.011ZM594.512,83.353c-.4,1.022.076,1.815.888,2.264.812.449,1.737.43,2.39-.453l-3.278-1.811Z"/><path d="M588.795,78.547l2.443,1.268-.685,1.32-2.443-1.268-1.283,2.473-1.463-.76,1.282-2.472-2.443-1.268.685-1.321,2.444,1.268,1.29-2.486,1.463.76-1.29,2.486Z"/><path d="M582.478,73.87l-2-.972-2.684,5.525,2,.972-.657,1.353-5.612-2.726.657-1.353,2,.971,2.684-5.525-2-.971.657-1.353,5.612,2.726-.657,1.353Z"/><path d="M571.768,74.893l-1.18-.535.416-.918c-.403.309-1.152.76-2.07.344-.758-.344-.956-1.031-.862-1.586-.313.227-1.105.693-2.009.284-1.005-.456-1.023-1.501-.442-2.783l2.015-4.444,1.384.628-1.903,4.196c-.357.787-.356,1.174.052,1.358.393.179.817.02,1.133-.136l2.16-4.765,1.385.627-1.903,4.197c-.357.787-.356,1.174.051,1.358.394.179.832.025,1.148-.13l2.161-4.765,1.384.628-2.92,6.44Z"/><path d="M564.51,65.921c-.634,1.504-2.143,1.337-3.484.771-.678-.286-1.351-.708-1.684-.987l-.224.53c-.354.841-.486,1.566.723,2.075.914.385,1.6.24,1.923-.526l1.488.627c-.751,1.784-2.465,1.773-4.042,1.108-1.695-.714-2.525-1.914-1.755-3.742l1.136-2.697c.105-.251.055-.376-.211-.488-.177-.074-.46-.142-.656-.172l.441-1.047c.315-.006.878.058,1.365.263.826.348.881.875.676,1.361l-.05.117c.519-.284,1.496-.584,2.837-.02,1.268.534,2.063,1.529,1.517,2.826ZM560.099,63.908l-.348.825c.249.191.829.505,1.389.741.87.366,1.513.446,1.774-.173.211-.501-.064-.877-.787-1.182-.826-.348-1.592-.341-2.028-.212Z"/><path d="M555.987,59.913l-1.536-.599c.257-.793.092-1.425-1.042-1.866-1.372-.535-1.82.132-2.163,1.011l-.367.939c.441-.206,1.218-.436,2.231-.04,1.536.599,2.401,2.122,1.518,4.388-.89,2.281-2.614,2.828-4.105,2.246-1.073-.418-1.609-1.246-1.742-1.83l-.332.85-1.387-.54,2.64-6.769c.692-1.774,2.06-2.288,4.237-1.439,1.461.57,2.81,1.56,2.046,3.649ZM550.455,60.487l-1.116,2.862c.215.461.593.9,1.22,1.145,1.147.448,1.959-.18,2.424-1.373.465-1.192.287-2.189-.861-2.637-.626-.244-1.196-.191-1.667.003Z"/><path d="M545.313,59.995c-.959,2.666-3.04,2.87-4.681,2.28-1.702-.612-3.115-2.073-2.167-4.709l.13-.361,5.211,1.874c.372-1.176.054-2.09-1.241-2.556-.889-.319-1.636-.18-1.989.425l-1.657-.597c.934-1.603,2.68-1.587,4.126-1.067,1.928.693,3.167,2.211,2.269,4.711ZM539.845,58.93c-.233,1.072.363,1.78,1.236,2.095.874.313,1.784.147,2.288-.827l-3.524-1.268Z"/><path d="M446.531,43.543l-6.442-.512.119-1.499,4.672.371.209-2.631-4.05-.321.119-1.499,4.05.321.277-3.491,1.77.141-.724,9.12Z"/><path d="M436.699,42.815l-2.684-.141c-2.285-.12-3.852-1.083-3.74-3.208.069-1.311.997-2.207,2.103-2.517l-2.436-3.652,2.173.113,2.021,3.311,1.102.058.168-3.194,1.773.093-.48,9.138ZM435.162,38.217l-.911-.048c-1.422-.075-2.105.418-2.156,1.393-.051.975.576,1.536,1.998,1.61l.91.048.158-3.003Z"/><path d="M424.666,42.281l-1.887-.051-2.97-9.232,1.903.051.618,2.033,3.214.086.709-1.998,1.871.05-3.458,9.062ZM425.106,36.564l-2.366-.063.278.951.801,2.982.958-2.936.329-.935Z"/><path d="M417.669,37.605c-.047,2.878-1.276,4.714-3.883,4.672-2.191-.036-3.357-1.11-3.418-3.239l1.791.029c.094,1.073.549,1.673,1.652,1.69,1.791.029,1.994-1.631,2.019-3.183.03-1.839-.22-3.202-1.995-3.231-.768-.013-1.317.314-1.642.613l-.026,1.615,1.919.031-.022,1.375-3.662-.06.081-5.005,1.503.024-.016.976c.359-.458,1.106-1.118,2.417-1.097,2.511.041,3.323,2.213,3.282,4.788Z"/><path d="M407.586,42.147l-2.207.055-.929-2.633-.626-2.001-.494,2.028-.797,2.676-2.143.054-.227-9.147,1.583-.039.116,4.67-.122,2.818,1.459-5.044,1.247-.031,1.708,4.966-.262-2.81-.116-4.669,1.583-.04.227,9.147Z"/><path d="M397.243,42.454l-6.375.323-.076-1.502,4.601-.233-.113-2.236-3.946.2-.076-1.502,3.946-.2-.121-2.396-4.601.233-.076-1.502,6.375-.322.462,9.138Z"/><path d="M387.395,43.003l-2.248.174-3.157-7.198.43,2.854.351,4.528-1.562.121-.707-9.121,2.248-.174,3.157,7.198-.43-2.854-.351-4.528,1.562-.121.707,9.121Z"/><path d="M375.219,42.547l3.008-.312.155,1.496-7.798.808-.155-1.496,3.008-.312-.788-7.607,1.782-.185.788,7.607Z"/><path d="M365.61,45.165l-1.872.245-4.377-8.66,1.889-.247.928,1.912,3.189-.417.39-2.084,1.856-.243-2.003,9.494ZM365.153,39.447l-2.349.308.424.896,1.257,2.822.489-3.051.179-.976Z"/><path d="M355.553,45.069l2.988-.47.234,1.485-7.746,1.219-.234-1.485,2.988-.471-1.189-7.556,1.771-.279,1.189,7.557Z"/><path d="M346.863,40.271l-2.187.404,1.119,6.041,2.187-.404.274,1.479-6.135,1.137-.274-1.479,2.187-.405-1.119-6.041-2.187.405-.274-1.479,6.135-1.137.274,1.479Z"/><path d="M338.264,44.968c.612,2.881-.18,4.931-2.731,5.473-2.567.546-4.067-.968-4.669-3.802-.605-2.85.164-4.927,2.731-5.473,2.552-.542,4.061.938,4.669,3.802ZM332.622,46.216c.336,1.581.875,3.119,2.613,2.75s1.605-1.993,1.269-3.575c-.329-1.55-.875-3.119-2.613-2.75-1.737.37-1.599,2.025-1.269,3.575Z"/><path d="M328.92,51.733l-2.195.527-4.256-6.616.875,2.753,1.062,4.42-1.525.366-2.138-8.902,2.194-.527,4.256,6.616-.875-2.753-1.062-4.42,1.525-.366,2.139,8.902Z"/><path d="M235.068,88.801l-1.346.739-6.388-11.624,1.346-.74,6.388,11.625Z"/><path d="M153.911,145.034l2.177-2.099,1.044,1.082-5.645,5.443-1.044-1.083,2.177-2.1-5.31-5.506,1.29-1.244,5.31,5.506Z"/><path d="M142.235,143.517c-1.077,1.096-1.261,1.969-.798,3.142l7.208,2.687-1.346,1.37-3.339-1.374-2.102-.966.98,2.084,1.432,3.337-1.278,1.302-2.719-6.822c-.984-2.492-.894-3.862.957-5.745l1.004.986Z"/><path d="M141.08,157.105l-1.015,1.089-.679-.633c.112.607.021,1.572-.797,2.45-1.069,1.147-2.814,1.424-4.722-.354s-1.732-3.562-.685-4.686c.764-.819,1.665-.941,2.096-.934l-2.668-2.488,1.167-1.252,7.303,6.808ZM135.068,158.369c.995.928,2,1.164,2.829.274.491-.526.64-1.109.635-1.573l-2.423-2.258c-.463.027-1.034.217-1.524.744-.829.89-.523,1.875.483,2.812Z"/><path d="M132.007,161.649c2.12,1.877,1.54,3.884.384,5.189-1.199,1.354-3.078,2.125-5.174.27l-.288-.255,3.669-4.145c-.955-.78-1.92-.823-2.833.207-.625.706-.773,1.452-.343,2.004l-1.167,1.317c-1.143-1.461-.481-3.076.537-4.226,1.357-1.533,3.226-2.123,5.214-.362ZM128.993,166.331c.91.613,1.788.321,2.402-.373.615-.695.798-1.602.079-2.431l-2.481,2.804Z"/><path d="M123.063,170.854l1.769-2.107,1.139.956-1.769,2.108,2.132,1.789-1.06,1.262-2.132-1.789-1.769,2.107-1.139-.956,1.769-2.108-2.144-1.799,1.059-1.263,2.145,1.8Z"/><path d="M117.109,176.01l-1.385,1.741,4.811,3.826,1.385-1.741,1.178.937-3.886,4.886-1.177-.937,1.385-1.741-4.811-3.826-1.385,1.741-1.178-.937,3.886-4.886,1.178.937Z"/><path d="M115.786,186.655l-.78,1.035-.805-.606c.213.461.49,1.29-.117,2.095-.5.664-1.214.707-1.735.494.153.355.435,1.229-.162,2.021-.665.882-1.688.671-2.812-.177l-3.896-2.937.915-1.213,3.678,2.772c.689.521,1.067.604,1.336.247.26-.345.197-.793.115-1.136l-4.176-3.148.915-1.213,3.678,2.772c.69.521,1.067.604,1.336.247.26-.345.207-.806.125-1.148l-4.176-3.148.915-1.213,5.645,4.255Z"/><path d="M105.44,191.783c1.33.948.835,2.385-.01,3.57-.427.6-.987,1.164-1.333,1.429l.469.334c.743.53,1.422.817,2.184-.251.576-.808.585-1.509-.092-1.992l.938-1.316c1.577,1.124,1.191,2.796.197,4.189-1.069,1.499-2.423,2.047-4.039.895l-2.385-1.7c-.222-.158-.355-.136-.523.099-.111.156-.24.419-.312.604l-.925-.66c.063-.309.249-.845.556-1.274.52-.73,1.047-.669,1.477-.362l.104.074c-.164-.569-.243-1.589.603-2.774.799-1.121,1.945-1.68,3.091-.862ZM102.507,195.648l.729.521c.242-.201.675-.698,1.028-1.193.548-.77.767-1.38.22-1.77-.443-.316-.871-.13-1.326.509-.521.729-.682,1.479-.651,1.934Z"/><path d="M97.702,198.788l-.921,1.365c-.716-.425-1.369-.402-2.048.605-.823,1.221-.271,1.805.511,2.332l.835.563c-.104-.476-.157-1.283.451-2.185.921-1.366,2.596-1.876,4.611-.517,2.029,1.368,2.184,3.17,1.29,4.495-.644.955-1.568,1.296-2.167,1.298l.755.509-.832,1.233-6.02-4.06c-1.578-1.063-1.778-2.511-.473-4.447.876-1.299,2.138-2.396,4.007-1.193ZM97.048,204.306l2.546,1.717c.497-.108,1.009-.381,1.384-.938.688-1.021.254-1.95-.807-2.666-1.061-.715-2.072-.76-2.76.261-.375.557-.45,1.124-.363,1.626Z"/><path d="M95.444,209.217c2.391,1.521,2.133,3.595,1.196,5.067-.971,1.525-2.706,2.584-5.069,1.081l-.324-.207,2.973-4.672c-1.065-.621-2.027-.512-2.766.649-.507.797-.535,1.557-.023,2.034l-.945,1.485c-1.359-1.263-.96-2.963-.136-4.26,1.1-1.729,2.852-2.604,5.094-1.179ZM93.205,214.318c.996.463,1.817.037,2.315-.747.498-.783.536-1.707-.305-2.413l-2.01,3.16Z"/><path d="M50.36,299.701l-.657,2.125,5.871,1.816.657-2.125,1.438.445-1.845,5.962-1.437-.444.658-2.125-5.871-1.816-.658,2.125-1.437-.444,1.845-5.963,1.437.444Z"/><path d="M54.799,311.394l-.609,2.173-7.85.493,2.83.577,4.377,1.227-.423,1.51-8.815-2.47.609-2.173,7.851-.493-2.83-.577-4.377-1.227.423-1.51,8.815,2.47Z"/><path d="M52.444,319.847l-.488,1.939-4.852.33-2.682.101,2.299,1.354,4.137,2.576-.469,1.861-8.072-5.431.445-1.77,9.681-.962Z"/><path d="M49.806,330.49l-1.395,6.229-1.467-.329,1.006-4.495-2.185-.489-.863,3.855-1.467-.328.863-3.855-2.341-.524-1.006,4.495-1.467-.328,1.394-6.229,8.929,1.999Z"/><path d="M47.7,340.124l-.518,2.638c-.441,2.245-1.616,3.661-3.704,3.251-1.288-.252-2.044-1.298-2.196-2.437l-3.96,1.897.419-2.136,3.562-1.534.212-1.084-3.14-.616.342-1.743,8.981,1.764ZM42.929,340.998l-.175.896c-.274,1.397.117,2.143,1.075,2.331.958.188,1.602-.354,1.876-1.752l.176-.895-2.952-.58Z"/><path d="M39.617,348.257l-.289,1.704c-.96-.081-1.524.375-1.732,1.605-.189,1.12.09,1.865.816,1.988.6.102.945-.311,1.299-.965l1.004-1.907c.55-1.043,1.436-1.77,2.729-1.551,1.688.286,2.36,1.877,2.034,3.802-.304,1.798-1.357,3.129-3.382,2.819l.291-1.72c1.005.104,1.472-.352,1.643-1.361.189-1.12-.183-1.703-.769-1.786-.507-.069-.863.114-1.225.815l-1.026,1.937c-.544,1.012-1.315,1.92-2.766,1.674-1.831-.31-2.431-2.034-2.095-4.022.345-2.035,1.495-3.366,3.467-3.032Z"/><path d="M36.679,358.461l-.312,2.201,6.082.861.312-2.201,1.489.211-.875,6.177-1.489-.211.312-2.201-6.082-.861-.312,2.201-1.489-.211.875-6.177,1.489.211Z"/><path d="M38.398,368.109c2.925.337,4.617,1.74,4.318,4.332-.3,2.607-2.213,3.547-5.091,3.216-2.894-.333-4.619-1.725-4.318-4.332.298-2.592,2.181-3.551,5.091-3.216ZM37.785,373.854c1.606.186,3.235.164,3.438-1.602.204-1.765-1.378-2.156-2.984-2.341-1.574-.182-3.235-.163-3.439,1.602-.203,1.765,1.411,2.16,2.985,2.341Z"/><path d="M41.838,379.127l-.198,2.248-7.626,1.932,2.889.046,4.528.398-.138,1.562-9.121-.803.198-2.248,7.626-1.932-2.888-.046-4.529-.398.138-1.562,9.121.803Z"/><path d="M46.846,479.956l.267,1.513-13.067,2.302-.267-1.513,13.067-2.302Z"/><path d="M74.012,574.844l-1.292-2.733,1.36-.643,3.35,7.088-1.36.643-1.292-2.734-6.915,3.268-.766-1.62,6.915-3.268Z"/><path d="M68.844,585.422c.693,1.371,1.46,1.825,2.72,1.763l4.855-5.968.866,1.714-2.372,2.723-1.589,1.682,2.289-.261,3.62-.287.823,1.628-7.334.39c-2.676.133-3.945-.392-5.136-2.748l1.257-.635Z"/><path d="M81.346,590.847l.707,1.31-.817.441c.611.088,1.498.482,2.067,1.539.745,1.38.448,3.122-1.848,4.361-2.296,1.238-3.93.501-4.659-.851-.532-.986-.359-1.879-.214-2.284l-3.211,1.732-.813-1.508,8.788-4.741ZM80.62,596.949c1.197-.646,1.743-1.522,1.165-2.593-.342-.634-.846-.961-1.287-1.105l-2.916,1.573c-.122.448-.125,1.05.217,1.683.577,1.071,1.609,1.096,2.82.442Z"/><path d="M82.752,600.895c2.455-1.41,4.171-.22,5.04,1.292.9,1.567,1.032,3.595-1.396,4.989l-.333.19-2.756-4.799c-1.044.655-1.394,1.557-.708,2.749.47.818,1.129,1.196,1.79.965l.876,1.525c-1.749.617-3.068-.525-3.833-1.856-1.02-1.775-.982-3.733,1.32-5.056ZM86.227,605.244c.872-.666.875-1.591.414-2.396s-1.263-1.267-2.277-.85l1.864,3.245Z"/><path d="M141.813,682.259c1.153-1.155,2.489-.432,3.519.598.521.52.985,1.164,1.189,1.549l.407-.407c.645-.646,1.04-1.269.112-2.195-.702-.701-1.393-.825-1.98-.236l-1.144-1.142c1.368-1.37,2.953-.715,4.164.494,1.302,1.301,1.62,2.727.218,4.13l-2.069,2.072c-.192.192-.192.328.012.531.136.136.374.306.543.407l-.803.804c-.294-.112-.792-.384-1.166-.757-.634-.634-.487-1.143-.114-1.517l.09-.09c-.588.068-1.606-.021-2.637-1.051-.974-.973-1.337-2.194-.342-3.19ZM145.141,685.787l.633-.634c-.159-.271-.578-.78-1.008-1.21-.668-.667-1.234-.983-1.708-.508-.385.385-.271.838.284,1.392.634.633,1.347.915,1.799.96Z"/><path d="M149.255,689.123l1.219,1.157c-.471.59-.134,1.351.644,2.089.708.672,1.365,1.097,1.816.62.485-.511-.216-1.33-1.073-2.496-.833-1.122-1.521-2.326-.497-3.406,1.002-1.057,2.524-.475,3.79.727s2.026,2.562.896,3.939l-1.219-1.157c.448-.634-.035-1.312-.569-1.819-.708-.672-1.235-.907-1.565-.559-.441.465.098,1.13,1.129,2.483.809,1.055,1.51,2.315.508,3.372-1.179,1.243-2.749.548-4.188-.818-1.37-1.3-2.056-2.833-.89-4.132Z"/><path d="M230.22,749.733l1.958,1.057,2.918-5.408-1.958-1.057.714-1.323,5.493,2.963-.714,1.324-1.958-1.057-2.918,5.408,1.958,1.057-.714,1.324-5.493-2.964.714-1.324Z"/><path d="M240.952,749.158l1.157.585-.455.899c.416-.291,1.184-.71,2.083-.256.743.376.912,1.07.794,1.621.323-.213,1.134-.646,2.019-.199.986.498.96,1.543.325,2.8l-2.201,4.356-1.357-.686,2.079-4.113c.39-.771.406-1.158.006-1.36-.386-.194-.816-.054-1.139.089l-2.36,4.67-1.357-.686,2.079-4.113c.39-.771.406-1.158.006-1.36-.386-.194-.83-.061-1.152.081l-2.36,4.671-1.357-.686,3.19-6.313Z"/><path d="M247.811,758.427c.697-1.476,2.198-1.244,3.515-.622.666.314,1.319.765,1.641,1.059l.246-.521c.39-.825.552-1.544-.634-2.104-.897-.424-1.588-.309-1.944.443l-1.461-.69c.827-1.75,2.54-1.666,4.087-.935,1.663.786,2.442,2.021,1.595,3.814l-1.251,2.647c-.116.246-.071.374.189.497.174.082.455.161.649.2l-.485,1.026c-.315-.007-.875-.095-1.353-.32-.81-.383-.843-.911-.618-1.389l.055-.116c-.531.263-1.52.521-2.836-.102-1.244-.588-1.997-1.616-1.396-2.889ZM252.133,760.628l.383-.81c-.241-.203-.807-.541-1.356-.801-.854-.403-1.493-.511-1.78.097-.232.492.027.88.735,1.215.81.383,1.577.409,2.018.299Z"/><path d="M256.086,764.805l1.509.665c-.292.781-.153,1.419.96,1.91,1.348.594,1.825-.054,2.206-.918l.407-.923c-.45.188-1.235.383-2.231-.056-1.509-.665-2.309-2.225-1.328-4.451.987-2.241,2.735-2.713,4.2-2.067,1.055.465,1.555,1.314,1.662,1.904l.368-.835,1.362.601-2.931,6.65c-.768,1.743-2.158,2.197-4.296,1.255-1.436-.632-2.741-1.68-1.888-3.735ZM261.638,764.47l1.239-2.812c-.195-.471-.554-.926-1.169-1.197-1.128-.497-1.966.096-2.483,1.268-.516,1.172-.381,2.176.747,2.673.615.271,1.187.243,1.666.069Z"/><path d="M266.735,765.168c1.072-2.622,3.16-2.737,4.775-2.077,1.674.685,3.024,2.205,1.964,4.798l-.146.355-5.126-2.096c-.422,1.159-.144,2.086,1.131,2.606.874.357,1.627.25,2.006-.339l1.63.667c-1.002,1.562-2.746,1.471-4.168.89-1.896-.775-3.07-2.345-2.065-4.805ZM272.153,766.467c.278-1.062-.287-1.795-1.146-2.146-.859-.352-1.776-.225-2.321.728l3.467,1.418Z"/><path d="M367.198,784.915l1.525.187-1.606,13.168-1.525-.187,1.606-13.168Z"/></svg>