<?xml version="1.0" encoding="UTF-8"?><svg id="Layer_1" xmlns="http://www.w3.org/2000/svg" width="5.753in" height="5.753in" viewBox="0 0 414.25 414.25"><defs><style>.cls-1{fill:#ff8c00;opacity:.5;stroke:#231f20;stroke-miterlimit:10;stroke-width:.25px;}</style></defs><path class="cls-1" d="M208.002.125C93.679.125,1.002,92.802,1.002,207.125s92.677,207,207,207,207-92.677,207-207S322.325.125,208.002.125ZM208.002,345.125c-76.215,0-138-61.785-138-138s61.785-138,138-138,138,61.785,138,138-61.785,138-138,138Z"/><path d="M238.987,375.247l5.835-1.181.225,1.114-4.533.917.597,2.949,3.969-.804.225,1.114-3.968.803.743,3.671-1.302.264-1.79-8.848Z"/><path d="M249.386,378.715c-.725-2.754.831-4.008,2.378-4.415,1.547-.407,3.457-.066,4.17,2.641.729,2.77-.842,4.027-2.374,4.431-1.562.412-3.465.036-4.174-2.656ZM254.72,377.295c-.448-1.702-1.387-2.315-2.718-1.965-1.331.351-1.846,1.347-1.398,3.048.444,1.687,1.387,2.315,2.718,1.965s1.842-1.361,1.398-3.048Z"/><path d="M258.507,372.568l1.004-.327.288.883c.166-.576.652-1.357,1.838-1.744,1.11-.361,2.4-.227,3.119,1.979l1.329,4.077-1.202.392-1.245-3.818c-.407-1.248-.868-1.889-2.024-1.512-.897.293-1.261.883-1.4,1.23l1.656,5.081-1.202.392-2.162-6.633Z"/><path d="M270.651,372.75l-1.119-2.862-2.132.833-.391-.999,2.132-.833-1.178-3.012,1.178-.46,1.178,3.011,3.19-1.247.391.999-3.19,1.247,1.102,2.817c.519,1.327.994,1.708,2.127,1.266.656-.257,1.125-.595,1.469-.901l.391.999c-.168.186-.718.624-1.627.979-1.565.612-2.658.369-3.52-1.837Z"/><path d="M319.814,334.375l.858-.768,8.725,9.748-.858.768-8.725-9.748Z"/><path d="M358.801,288.485l-1.415,2.69-1.005-.528,3.462-6.585,1.005.528-1.43,2.719,6.981,3.672-.618,1.175-6.98-3.671Z"/><path d="M370.887,286.299c.609-1.341.446-2.259-.473-3.292l-7.706-.144.569-1.254,4.018.174,2.397.14-1.653-1.7-2.789-2.955.543-1.195,5.026,5.537c1.65,1.822,1.963,3.107,1.043,5.133l-.977-.443Z"/><path d="M367.034,273.071l.381-.985.835.323c-.315-.517-.587-1.41-.166-2.5.537-1.388,1.99-2.353,4.452-1.401,2.373.918,2.907,2.599,2.353,4.031-.381.985-1.133,1.467-1.55,1.614l3.343,1.292-.456,1.179-9.192-3.553ZM372.075,269.702c-1.433-.554-2.631-.382-3.127.901-.277.716-.186,1.368.034,1.865l3.522,1.361c.497-.22,1.003-.642,1.28-1.358.496-1.283-.276-2.216-1.708-2.77Z"/><path d="M373.644,265.433c-2.65-.852-2.943-2.812-2.449-4.35.48-1.492,1.85-2.984,4.515-2.127l.244.078-1.695,5.27c1.466.404,2.479-.026,2.924-1.412.338-1.051.106-1.898-.682-2.32l.392-1.218c1.678.842,1.682,2.607,1.27,3.887-.568,1.767-2.022,2.996-4.52,2.192ZM374.643,259.974c-1.252-.234-2.121.326-2.474,1.423s.027,2.059,1.181,2.598l1.293-4.021Z"/><path d="M379.047,256.084l.498-1.92-4.677-1.212-.498,1.92-1.038-.269.498-1.921-.031-.008c-2.106-.546-2.774-2.371-2.152-4.771l1.038.269c-.357,1.378-.272,2.838,1.431,3.279l.031.008.707-2.726,1.038.27-.707,2.726,4.678,1.212.706-2.726,1.038.269-1.521,5.87-1.038-.27Z"/><path d="M380.687,246.421c-1.585-.314-1.701-1.79-1.439-3.108.13-.659.402-1.454.656-1.91l-.597-.118c-1.052-.208-1.912-.232-2.205,1.244-.224,1.13.147,1.808,1.089,1.994l-.236,1.193c-1.963-.389-2.145-2.105-1.871-3.487.358-1.806,1.427-2.589,3.217-2.234l3.109.616c.267.053.38-.022.436-.306.043-.22.056-.527.042-.791l.879.175c.06.272.111.756.015,1.243-.162.816-.673.927-1.129.837l-.125-.025c.399.455.828,1.339.557,2.705-.262,1.319-1.048,2.24-2.398,1.973ZM381.85,241.789l-1.067-.211c-.169.357-.378,1.002-.515,1.692-.212,1.068-.12,1.755.634,1.904.612.122.995-.243,1.172-1.138.181-.911.038-1.674-.224-2.248Z"/><path d="M380.901,236.212c-2.87-.397-3.351-2.403-3.136-3.957.185-1.332.95-2.891,3.028-2.731l-.173,1.253c-1.175-.034-1.623.631-1.757,1.599-.195,1.41.472,2.311,2.215,2.553,1.76.244,2.631-.443,2.826-1.854.134-.967-.116-1.729-1.255-2.016l.173-1.253c2.028.41,2.35,2.168,2.172,3.452-.227,1.633-1.256,3.349-4.094,2.955Z"/><path d="M382.208,226.259c-2.774-.226-3.507-2.067-3.376-3.678.127-1.562,1.122-3.327,3.912-3.101l.255.021-.449,5.518c1.52.06,2.408-.591,2.525-2.042.09-1.1-.329-1.872-1.193-2.104l.104-1.275c1.826.438,2.232,2.156,2.124,3.495-.15,1.85-1.286,3.379-3.901,3.166ZM381.937,220.715c-1.273.058-1.992.802-2.085,1.949-.093,1.148.496,1.999,1.742,2.261l.343-4.21Z"/><path d="M370.184,163.334l-.313-1.108,12.594-3.558.313,1.108-12.594,3.558Z"/><path d="M346.413,110.631l-.786-1.07,6.356-4.672-2.739-3.726.916-.673,3.525,4.796-7.272,5.345Z"/><path d="M345.184,99.73c-2.146,1.773-3.955.966-4.984-.279-.999-1.209-1.518-3.167.64-4.95l.197-.163,3.526,4.266c1.131-1.018,1.313-2.103.386-3.225-.704-.851-1.542-1.112-2.322-.675l-.815-.986c1.614-.96,3.103-.012,3.959,1.023,1.182,1.43,1.435,3.317-.587,4.989ZM341.123,95.948c-.872.928-.868,1.963-.134,2.851s1.749,1.086,2.825.404l-2.69-3.255Z"/><path d="M337.854,90.179l-2.253,2.089,1.556,1.678-.786.729-1.556-1.678-2.37,2.197-.859-.927,2.37-2.197-2.328-2.512.786-.729,2.328,2.511,2.218-2.056c1.044-.969,1.225-1.551.398-2.442-.479-.517-.965-.829-1.376-1.037l.786-.729c.234.088.844.439,1.507,1.155,1.143,1.231,1.316,2.337-.421,3.947Z"/><path d="M330.854,82.932l-2.13,2.215,1.649,1.587-.743.772-1.65-1.586-2.241,2.33-.911-.876,2.241-2.331-2.469-2.374.743-.772,2.469,2.374,2.097-2.181c.987-1.026,1.134-1.618.257-2.461-.507-.488-1.011-.772-1.434-.957l.744-.772c.239.074.868.391,1.571,1.067,1.211,1.165,1.448,2.258-.194,3.965Z"/><path d="M324.516,77.849c-1.813,2.113-3.734,1.624-4.961.572-1.19-1.021-2.035-2.864-.211-4.989l.167-.194,4.202,3.605c.942-1.195.937-2.296-.168-3.244-.838-.72-1.709-.834-2.404-.271l-.972-.834c1.427-1.221,3.057-.54,4.078.336,1.409,1.209,1.979,3.026.27,5.019ZM319.869,74.81c-.702,1.064-.522,2.083.353,2.834.875.75,1.909.773,2.854-.082l-3.207-2.752Z"/><path d="M318.032,69.273l-1.437-1.097-2.931,3.839,1.437,1.097-.65.852-2.275-1.737.961-1.259c-.656.385-1.82.804-2.99-.089-.432-.33-.739-.746-.83-.916l.786-1.029c.107.202.408.572.814.883.966.738,1.878.649,2.491.453l2.184-2.859-2.402-1.834.65-.852,4.843,3.697-.65.852Z"/><path d="M309.838,63.165l-1.642-1.112-2.71,3.999,1.643,1.113-.601.887-1.643-1.112-.018.026c-1.22,1.802-3.164,1.818-5.216.428l.601-.888c1.179.799,2.582,1.208,3.569-.249l.018-.026-2.331-1.579.601-.887,2.331,1.579,2.71-4-2.331-1.579.601-.888,5.02,3.4-.601.888Z"/><path d="M300.446,59.821c-1.458,2.446-3.444,2.214-4.819,1.395-1.375-.819-2.469-2.422-1.035-4.828,1.467-2.461,3.466-2.22,4.827-1.408,1.389.827,2.453,2.449,1.027,4.842ZM295.694,57.007c-.901,1.512-.681,2.612.501,3.317,1.183.704,2.255.374,3.156-1.138.893-1.499.681-2.612-.501-3.317-1.182-.704-2.263-.361-3.156,1.138Z"/><path d="M292.563,52.462l-1.604-.835-2.23,4.286,1.604.834-.495.951-2.541-1.322.731-1.405c-.581.492-1.657,1.104-2.962.425-.482-.251-.856-.607-.975-.76l.598-1.149c.14.181.5.494.954.73,1.079.562,1.962.318,2.533.02l1.662-3.192-2.682-1.396.495-.95,5.407,2.813-.495.951Z"/><path d="M281.661,53.517l-.904-.407.407-.904c-.326.257-1.144.749-2.048.342-.773-.348-.936-1-.867-1.582-.375.287-1.146.677-1.993.296-.919-.413-1.123-1.364-.525-2.691l2.008-4.464,1.094.492-1.876,4.172c-.407.904-.43,1.385.066,1.608.496.223.961.046,1.402-.194l2.159-4.799,1.094.492-1.876,4.172c-.407.904-.43,1.385.066,1.608.496.223.961.046,1.402-.193l2.159-4.8,1.094.492-2.86,6.36Z"/><path d="M219.459,40.6l-1.149-.073.836-13.057,1.149.074-.836,13.056Z"/><path d="M159.49,36.089l-1.18.355c-.301-.945-.934-1.273-2.145-.909-1.593.479-1.533,1.347-1.242,2.312l.267.889c.199-.394.715-1.067,1.726-1.371,1.501-.451,3.112.184,3.835,2.589.733,2.436-.307,3.867-1.762,4.305-1.087.327-2.009-.014-2.464-.361l.258.858-1.011.304-2.088-6.939c-.511-1.7.015-2.895,2.19-3.549,1.562-.471,3.027-.376,3.614,1.519ZM155.463,39.64l1.06,3.523c.538.289,1.168.384,1.842.181,1.317-.396,1.6-1.567,1.167-3.007-.433-1.44-1.315-2.261-2.632-1.864-.674.202-1.147.629-1.437,1.167Z"/><path d="M150.001,40.755l-2.27.829,2.774,7.591,2.27-.83.363.992-3.457,1.264-3.137-8.582-2.27.829-.368-1.007,5.727-2.093.368,1.007Z"/><path d="M139.697,41.469c-1.352.584-1.848,1.374-1.86,2.757l5.612,5.282-1.264.546-2.86-2.827-1.682-1.715.083,2.371.081,4.062-1.205.521-.005-7.479c.001-2.459.633-3.621,2.675-4.503l.425.984Z"/><path d="M133.668,53.863l-.944.475-.402-.801c-.113.594-.512,1.439-1.556,1.964-1.33.669-3.055.407-4.241-1.951-1.143-2.273-.409-3.878.963-4.568.944-.475,1.824-.326,2.232-.155l-1.61-3.202,1.129-.567,4.427,8.807ZM127.669,52.974c.69,1.372,1.693,2.05,2.923,1.432.687-.345,1.057-.89,1.228-1.405l-1.696-3.374c-.516-.17-1.174-.197-1.86.147-1.229.618-1.284,1.827-.594,3.2Z"/><path d="M126.528,61.188l-1.094.632-1.991-3.449c-.06.44-.279,1.213-1.318,1.812-1.025.592-2.328.734-3.488-1.274l-2.143-3.713,1.094-.632,2.007,3.478c.655,1.136,1.239,1.667,2.292,1.06.817-.472,1.051-1.124,1.115-1.493l-2.67-4.627,1.094-.632,5.101,8.839Z"/><path d="M78.7,100.764l-.735.887-10.073-8.351.735-.887,10.073,8.351Z"/><path d="M42.86,147.635l-.425,1.226c-1.004-.281-1.774.18-2.21,1.436-.399,1.148-.208,2.062.654,2.361.666.231,1.12-.103,1.66-.779l1.285-1.604c.72-.902,1.669-1.539,2.909-1.108,1.512.525,1.857,2.119,1.274,3.797-.599,1.725-1.845,2.63-3.604,2.036l.42-1.209c1.23.359,1.812-.388,2.106-1.235.383-1.104.089-1.866-.607-2.107-.575-.2-1.074.067-1.558.679l-1.285,1.604c-.961,1.208-1.771,1.639-2.936,1.234-1.739-.604-2.007-2.272-1.393-4.042.672-1.936,2-2.881,3.708-2.288Z"/><path d="M35.357,155.883c-.402,1.417-.103,2.3.96,3.184l7.639-1.012-.375,1.324-3.998.43-2.391.221,1.889,1.434,3.199,2.504-.358,1.262-5.798-4.72c-1.904-1.555-2.406-2.778-1.799-4.918l1.032.292Z"/><path d="M41.332,167.57l-.215.969-.969-.214c.318.267.965.968.751,1.937-.184.828-.79,1.12-1.375,1.171.358.309.896.985.695,1.892-.218.984-1.108,1.377-2.53,1.062l-4.781-1.06.26-1.172,4.469.99c.969.215,1.444.141,1.562-.391s-.149-.951-.475-1.335l-5.141-1.14.26-1.172,4.469.99c.969.215,1.444.141,1.562-.391.118-.531-.15-.951-.475-1.335l-5.141-1.14.26-1.172,6.812,1.51Z"/><path d="M32.956,178.111l-.884-.144.169-1.042,10.076,1.636-.203,1.247-3.885-.63c.285.338.691,1.133.522,2.175-.238,1.469-1.461,2.713-4.067,2.29-2.511-.407-3.38-1.942-3.134-3.459.187-1.152.874-1.786,1.406-2.073ZM34.889,182.379c1.516.246,2.653-.169,2.874-1.526.123-.759-.101-1.378-.418-1.818l-3.727-.605c-.44.317-.849.835-.972,1.593-.22,1.358.727,2.111,2.243,2.357Z"/><path d="M34.242,186.858c2.833.294,3.457,2.192,3.292,3.783-.165,1.592-1.158,3.259-3.943,2.97-2.849-.295-3.471-2.209-3.308-3.784.167-1.607,1.19-3.255,3.959-2.969ZM33.689,192.35c1.75.182,2.656-.48,2.797-1.85.142-1.368-.608-2.202-2.359-2.384-1.735-.179-2.656.481-2.797,1.851-.142,1.368.624,2.203,2.359,2.383Z"/><path d="M30.881,197.105l-.113,2.412,8.068.378.113-2.413,1.054.05-.172,3.675-9.122-.428-.113,2.413-1.07-.051.285-6.086,1.07.05Z"/><path d="M47.485,259.343l.352,1.098-12.469,3.994-.352-1.098,12.469-3.994Z"/><path d="M73.067,311.196l1.099,1.395-4.312,7.006,1.945-1.718,4.031-3.179.743.942-7.083,5.585-1.099-1.394,4.312-7.007-1.945,1.718-4.031,3.179-.743-.941,7.083-5.586Z"/><path d="M74.433,322.953l3.21-2.842.838.946-3.006,2.661c-.982.87-1.386,1.548-.58,2.458.625.707,1.311.806,1.686.794l4-3.542.838.946-5.222,4.624-.7-.791.695-.614c-.594.077-1.504-.058-2.331-.992-.774-.874-1.164-2.11.573-3.648Z"/><path d="M83.648,326.784l.699.704-.704.699c.396-.123,1.336-.29,2.035.414.598.602.516,1.269.243,1.788.453-.134,1.313-.222,1.967.437.71.716.56,1.677-.473,2.703l-3.474,3.45-.846-.852,3.247-3.225c.704-.699.898-1.14.515-1.525-.383-.387-.881-.388-1.379-.322l-3.735,3.71-.846-.852,3.247-3.225c.704-.699.898-1.14.514-1.525-.383-.387-.881-.388-1.379-.322l-3.735,3.71-.846-.852,4.95-4.916Z"/><path d="M88.53,336.541c1.861-2.07,3.771-1.538,4.973-.458,1.166,1.049,1.968,2.909.096,4.992l-.171.19-4.118-3.701c-.969,1.174-.989,2.274.094,3.247.821.738,1.689.873,2.397.326l.952.855c-1.455,1.188-3.068.47-4.068-.429-1.38-1.241-1.909-3.071-.154-5.023ZM93.105,339.685c.726-1.048.57-2.07-.287-2.841-.857-.77-1.891-.816-2.855.017l3.142,2.824Z"/><path d="M94.841,345.279l1.412,1.13,3.018-3.774-1.412-1.129.67-.838,2.237,1.789-.989,1.237c.665-.37,1.839-.763,2.989.157.425.34.722.762.81.935l-.809,1.012c-.103-.204-.395-.582-.795-.901-.95-.76-1.865-.692-2.482-.51l-2.249,2.812,2.362,1.89-.669.837-4.762-3.808.67-.838Z"/><path d="M103.014,350.753c.936-1.317,2.328-.819,3.424-.041.548.389,1.162.962,1.474,1.379l.352-.495c.621-.875.994-1.649-.232-2.52-.939-.667-1.709-.605-2.265.177l-.992-.703c1.158-1.631,2.798-1.095,3.946-.279,1.5,1.064,1.777,2.36.722,3.848l-1.834,2.583c-.158.222-.135.355.1.522.183.13.458.267.704.362l-.519.73c-.274-.057-.735-.208-1.14-.495-.678-.481-.57-.993-.301-1.371l.074-.104c-.578.178-1.56.207-2.695-.599-1.096-.778-1.614-1.872-.817-2.994ZM106.763,353.71l.63-.888c-.257-.3-.759-.755-1.333-1.162-.887-.63-1.552-.827-1.997-.2-.361.509-.185,1.006.559,1.534.756.537,1.51.72,2.141.716Z"/><path d="M111.243,357.358l2.046,1.283,4.292-6.843-2.046-1.283.561-.895,3.116,1.955-4.853,7.736,2.046,1.284-.569.907-5.163-3.238.57-.907Z"/><path d="M173.632,373.36l1.128.229-2.608,12.819-1.128-.229,2.609-12.819Z"/></svg>