<?xml version="1.0" encoding="UTF-8"?><svg id="Layer_1" xmlns="http://www.w3.org/2000/svg" width="7.67in" height="7.67in" viewBox="0 0 552.25 552.25"><defs><style>.cls-1{fill:#ff8c00;opacity:.5;stroke:#231f20;stroke-miterlimit:10;stroke-width:.25px;}</style></defs><path class="cls-1" d="M278.392.125C125.961.125,2.392,123.694,2.392,276.125s123.569,276,276,276,276-123.569,276-276S430.823.125,278.392.125ZM278.392,483.125c-114.323,0-207-92.677-207-207s92.677-207,207-207,207,92.677,207,207-92.677,207-207,207Z"/><path d="M300.073,513.954l3.896-.415c2.625-.28,4.406.776,4.614,2.725.136,1.272-.492,1.983-1.247,2.445.906.205,2.043.868,2.206,2.399.21,1.968-1.417,3.489-4.002,3.765l-4.255.454-1.213-11.373ZM302.783,518.43l1.432-.152c1.65-.176,2.173-.734,2.078-1.629-.087-.815-.614-1.423-2.324-1.24l-1.491.159.306,2.862ZM303.298,523.262l1.909-.204c1.71-.183,2.104-1.009,2.02-1.804-.093-.875-.738-1.449-2.388-1.273l-1.869.199.329,3.082Z"/><path d="M313.582,522.2l2.902-.462-1.506-9.458-2.902.462-.264-1.658,5.015-.799,1.77,11.116,2.922-.465.264,1.658-7.938,1.264-.264-1.658Z"/><path d="M325.47,519.565c-.425-1.995,1.243-2.902,3.023-3.282.9-.191,1.892-.239,2.434-.19l-.15-.704c-.237-1.115-.621-1.954-2.225-1.612-1.213.258-1.813.897-1.596,1.914l-1.976.421c-.504-2.367,1.262-3.581,3.355-4.027,2.25-.479,3.96.159,4.477,2.585l.762,3.579c.071.333.213.426.565.351.235-.05.574-.184.796-.293l.296,1.39c-.319.231-.942.568-1.588.706-1.095.233-1.529-.268-1.667-.913l-.033-.156c-.329.663-1.117,1.669-2.897,2.048-1.683.358-3.21-.094-3.577-1.814ZM331.435,518.479l-.233-1.096c-.393-.019-1.211.073-1.955.232-1.154.245-1.871.623-1.696,1.444.142.665.693.854,1.652.65,1.095-.233,1.877-.788,2.232-1.231Z"/><path d="M337.251,514.826c-.938-3.516,1.166-5.092,3.291-5.659,1.912-.51,4.224-.3,5.101,2.363l-2.086.558c-.467-1.283-1.392-1.491-2.531-1.188-1.507.402-2.16,1.446-1.649,3.358.516,1.932,1.597,2.492,3.123,2.084,1.121-.299,1.824-.921,1.589-2.266l2.086-.557c.558,2.707-1.395,4.076-3.269,4.577-2.144.572-4.726.206-5.654-3.271Z"/><path d="M347.379,503.178l2.036-.659,2.293,7.078,2.624-4.361,2.702-.875-2.636,4.26,5.57,4.083-2.455.795-4.198-3.287-.942,1.441,1.029,3.177-2.036.66-3.989-12.312Z"/><path d="M362.742,509.918l2.748-1.048-3.413-8.953-2.748,1.047-.599-1.569,4.748-1.811,4.012,10.523,2.767-1.055.599,1.57-7.514,2.865-.599-1.57Z"/><path d="M373.002,503.014c-1.432-3.238.274-5.218,2.269-6.099,2.067-.914,4.606-.812,6.021,2.39l.194.439-6.33,2.798c.678,1.385,1.753,1.938,3.326,1.242,1.08-.478,1.636-1.248,1.434-2.1l2.013-.89c.538,2.256-1.056,3.747-2.812,4.523-2.342,1.035-4.772.732-6.115-2.305ZM378.867,499.262c-.714-1.171-1.864-1.298-2.925-.828-1.061.469-1.741,1.403-1.356,2.721l4.281-1.893Z"/><path d="M386.893,497.315l-1.524-3.017-2.517,1.271-.767-1.518,2.517-1.271-1.849-3.66,1.911-.965,1.849,3.66,3.874-1.957.767,1.518-3.874,1.957,1.488,2.945c.749,1.482,1.295,1.855,2.617,1.188.732-.37,1.329-.873,1.766-1.385l.775,1.535c-.445.538-1.087,1.131-2.14,1.663-2.035,1.028-3.503.784-4.892-1.966Z"/><path d="M398.014,491.451l-1.679-2.935-2.448,1.4-.845-1.477,2.449-1.4-2.037-3.56,1.858-1.062,2.037,3.56,3.768-2.156.844,1.477-3.768,2.155,1.639,2.865c.824,1.441,1.39,1.786,2.675,1.051.712-.407,1.282-.94,1.691-1.475l.854,1.493c-.417.562-1.027,1.187-2.051,1.772-1.979,1.133-3.458.965-4.988-1.709Z"/><path d="M406.443,485.814c-1.912-2.979-.531-5.196,1.303-6.374,1.902-1.221,4.426-1.51,6.316,1.436l.259.404-5.823,3.738c.882,1.263,2.03,1.644,3.477.715.993-.638,1.424-1.484,1.094-2.295l1.852-1.188c.878,2.146-.466,3.864-2.082,4.901-2.154,1.383-4.602,1.457-6.396-1.337ZM411.66,481.206c-.886-1.047-2.041-.995-3.017-.368-.977.626-1.505,1.654-.921,2.896l3.938-2.528Z"/><path d="M418.951,480.85l1.771-1.271-3.183-4.437-1.771,1.271-.991-1.381,3.283-2.354,1.166,1.625c-.262-1.018-.258-2.522,1.155-3.536.537-.385,1.117-.604,1.57-.659l1.259,1.755c-.509.045-1.155.312-1.626.649-1.138.816-1.412,1.875-1.432,2.603l2.308,3.218,3.022-2.168.979,1.364-6.533,4.687-.979-1.365Z"/><path d="M444.479,445.024l1.02-1.018,11.558,11.584-1.02,1.017-11.558-11.583Z"/><path d="M474.971,424.446l1.263-1.754c1.032.62,1.917.419,2.829-.848.83-1.152.926-2.143.18-2.681-.617-.444-1.232-.172-1.99.367l-2.178,1.587c-1.191.868-2.585,1.195-3.917.236-1.737-1.25-1.615-3.405-.189-5.387,1.333-1.851,3.247-2.765,5.349-1.301l-1.274,1.77c-1.069-.671-1.845-.416-2.593.623-.83,1.153-.733,2.012-.121,2.428.531.357,1.031.348,1.824-.24l2.218-1.607c1.168-.835,2.533-1.431,4.027-.354,1.883,1.355,1.607,3.622.135,5.667-1.508,2.095-3.532,2.955-5.562,1.494Z"/><path d="M481.451,413.693c-2.974-1.92-2.634-4.51-1.452-6.341,1.226-1.898,3.403-3.206,6.343-1.308l.403.26-3.753,5.813c1.326.785,2.528.656,3.461-.789.64-.991.682-1.939.046-2.541l1.193-1.848c1.688,1.59,1.175,3.71.133,5.323-1.389,2.15-3.586,3.23-6.375,1.43ZM484.293,407.339c-1.24-.587-2.27-.062-2.899.913-.629.974-.685,2.129.36,3.018l2.539-3.931Z"/><path d="M490.781,403.994l1.086-1.89-4.732-2.721-1.086,1.89-1.474-.847,2.013-3.502,1.733.997c-.66-.817-1.279-2.188-.412-3.696.329-.572.767-1.013,1.156-1.249l1.872,1.075c-.444.252-.922.762-1.211,1.265-.697,1.213-.509,2.29-.226,2.96l3.432,1.974,1.854-3.225,1.456.837-4.006,6.969-1.456-.837Z"/><path d="M488.26,385.266l1.188-2.337,2.158,1.097-1.187,2.337-2.159-1.097ZM497.006,392.92l1.396-2.747-4.87-2.475-1.396,2.747-1.516-.771,2.366-4.655,6.386,3.245,1.278-2.516,1.499.762-3.644,7.171-1.499-.762Z"/><path d="M502.602,381.656l1.09-2.449-4.862-2.164-1.09,2.45-1.536-.684,1.09-2.449-.037-.017c-2.833-1.261-2.932-4.042-1.688-6.839l1.554.691c-.667,1.499-.934,3.329,1.004,4.191l.037.017,1.391-3.126,1.536.683-1.391,3.126,4.862,2.164,1.391-3.126,1.536.683-3.351,7.531-1.536-.683Z"/><path d="M506.511,337.741l.362-1.395,15.839,4.119-.362,1.395-15.839-4.119Z"/><path d="M522.316,304.544l.196-2.15c1.204.009,1.863-.613,2.005-2.167.129-1.413-.291-2.315-1.207-2.398-.757-.069-1.148.478-1.526,1.326l-1.069,2.473c-.585,1.353-1.619,2.342-3.252,2.193-2.13-.194-3.12-2.111-2.899-4.541.207-2.271,1.392-4.029,3.944-3.837l-.198,2.171c-1.262-.035-1.799.578-1.916,1.853-.129,1.414.39,2.104,1.129,2.151.639.038,1.064-.225,1.448-1.133l1.092-2.511c.582-1.312,1.455-2.518,3.287-2.351,2.31.211,3.224,2.302,2.995,4.811-.234,2.569-1.54,4.337-4.029,4.11Z"/><path d="M524.484,292.031c-2.039-.081-2.507-1.921-2.435-3.74.037-.92.235-1.893.416-2.406l-.72-.028c-1.139-.045-2.047.119-2.112,1.758-.049,1.239.422,1.979,1.461,2.021l-.08,2.019c-2.419-.096-3.16-2.107-3.075-4.246.091-2.299,1.132-3.799,3.61-3.701l3.658.146c.34.014.465-.102.479-.461.01-.24-.036-.603-.086-.845l1.419.057c.146.366.319,1.054.292,1.713-.044,1.119-.637,1.416-1.296,1.391l-.16-.007c.562.482,1.342,1.495,1.27,3.313-.068,1.72-.883,3.089-2.642,3.019ZM524.904,285.981l-1.119-.044c-.115.376-.228,1.192-.258,1.951-.047,1.18.142,1.968.982,2.001.679.027.999-.46,1.038-1.439.044-1.12-.301-2.015-.643-2.469Z"/><path d="M518.389,278.845l-.03-1.86,1.2-.02c-.587-.411-1.42-1.218-1.444-2.718-.027-1.681.669-3.173,3.53-3.219l5.461-.087.034,2.141-5.041.08c-1.44.023-2.216.336-2.195,1.636.015.961.404,1.495.83,1.868l6.461-.104.034,2.141-8.842.142Z"/><path d="M524.207,266.672l-.128-2.096c.934-.137,1.274-1.119,1.192-2.457-.075-1.217-.313-2.164-1.131-2.114-.878.054-.936,1.399-1.146,3.195-.195,1.735-.592,3.422-2.448,3.535-1.816.111-2.709-1.717-2.842-3.893-.133-2.176.332-4.067,2.538-4.362l.128,2.096c-.95.198-1.087,1.229-1.031,2.146.074,1.218.355,1.882.954,1.845.798-.049.874-1.115,1.084-3.231.159-1.652.593-3.401,2.41-3.513,2.135-.131,2.977,1.841,3.128,4.316.144,2.354-.536,4.34-2.708,4.532Z"/><path d="M518.598,227.128l-.481-2.106c1.148-.364,1.581-1.161,1.234-2.682-.316-1.385-.996-2.112-1.893-1.907-.741.169-.943.811-1.04,1.735l-.249,2.684c-.137,1.467-.812,2.729-2.412,3.095-2.086.478-3.623-1.039-4.167-3.418-.508-2.224.072-4.264,2.559-4.873l.486,2.125c-1.211.359-1.532,1.109-1.247,2.357.316,1.385,1.024,1.88,1.742,1.695.62-.162.942-.544,1.026-1.527l.259-2.727c.146-1.429.601-2.846,2.396-3.256,2.262-.517,3.78,1.188,4.341,3.646.575,2.516-.118,4.603-2.556,5.159Z"/><path d="M514.808,215.137c-3.406.965-5.126-1.001-5.72-3.099-.616-2.174-.159-4.673,3.208-5.626l.462-.131,1.885,6.658c1.465-.478,2.163-1.465,1.694-3.119-.321-1.136-1.006-1.794-1.877-1.714l-.599-2.116c2.308-.217,3.562,1.569,4.084,3.416.697,2.463.057,4.826-3.137,5.73ZM511.914,208.807c-1.259.544-1.545,1.664-1.229,2.779.316,1.116,1.146,1.921,2.504,1.724l-1.275-4.503Z"/><path d="M513.69,201.738l-.702-2.063-5.169,1.758.702,2.063-1.61.548-1.301-3.825,1.894-.645c-1.05-.044-2.488-.484-3.049-2.132-.212-.625-.254-1.244-.174-1.693l2.045-.696c-.104.501-.037,1.196.15,1.745.451,1.325,1.384,1.896,2.075,2.125l3.749-1.274-1.198-3.522,1.591-.541,2.588,7.612-1.59.541Z"/><path d="M497.97,191.268l-.971-2.433,2.247-.897.971,2.434-2.247.896ZM509.486,189.749l-1.142-2.859-5.07,2.024,1.142,2.859-1.578.631-1.936-4.847,6.648-2.655-1.046-2.618,1.56-.623,2.981,7.465-1.56.623Z"/><path d="M504.712,178.096l-1.121-2.436-4.834,2.225,1.121,2.436-1.527.702-1.12-2.436-.037.017c-2.817,1.297-4.971-.465-6.25-3.246l1.545-.71c.686,1.49,1.884,2.898,3.811,2.012l.036-.017-1.43-3.107,1.526-.702,1.43,3.107,4.834-2.225-1.43-3.107,1.527-.702,3.445,7.487-1.526.702Z"/><path d="M474.323,146.172l-.806-1.192,13.555-9.162.806,1.193-13.555,9.161Z"/><path d="M453.617,117.397l-2.458-2.603c-2.609-2.763-1.932-5.163.671-7.621,2.487-2.349,5.079-2.953,7.647-.234l2.458,2.604-8.318,7.854ZM459.043,109.219l-.934-.989c-1.662-1.76-3.218-.757-4.687.63-1.483,1.401-2.559,2.884-.897,4.644l.934.989,5.584-5.273Z"/><path d="M442.155,107.822l-1.895-1.812,1.672-1.75,1.895,1.812-1.672,1.75ZM452.007,101.655l-2.228-2.129-3.774,3.949,2.228,2.129-1.175,1.229-3.775-3.608,4.949-5.179-2.04-1.949,1.161-1.215,5.815,5.558-1.161,1.215Z"/><path d="M442.334,94.066l-1.591-1.371c.553-.765.087-1.694-.928-2.569-.924-.797-1.77-1.288-2.305-.667-.575.667.349,1.648,1.488,3.053,1.107,1.351,2.039,2.813.824,4.223-1.188,1.379-3.123.742-4.774-.682s-2.682-3.077-1.354-4.864l1.591,1.372c-.521.818.121,1.636.818,2.237.924.797,1.596,1.059,1.988.604.522-.606-.189-1.404-1.558-3.034-1.073-1.268-2.023-2.8-.834-4.179,1.397-1.621,3.398-.848,5.277.771,1.788,1.542,2.735,3.415,1.357,5.105Z"/><path d="M428.585,90.361l-1.469-1.141.711-.916c-.744.207-1.956.202-3.14-.718-1.547-1.202-2.087-3.344-.087-5.918,2-2.574,4.239-2.556,5.755-1.378,1.105.858,1.359,1.967,1.397,2.504l2.797-3.602,1.69,1.313-7.655,9.854ZM426.336,83.018c-1.042,1.343-1.224,2.62-.024,3.552.71.553,1.453.673,2.03.614l2.54-3.269c-.086-.573-.387-1.263-1.098-1.814-1.2-.933-2.393-.44-3.448.917Z"/><path d="M422.974,77.085l-2.411-1.683-5.481,7.857,2.411,1.682-.961,1.378-4.167-2.906,6.443-9.235-2.428-1.693.961-1.378,6.594,4.601-.961,1.378Z"/><path d="M412.583,70.724c-1.08,1.73-2.91,1.226-4.454.262-.781-.487-1.527-1.142-1.884-1.553l-.381.61c-.604.968-.911,1.837.481,2.705,1.052.656,1.928.613,2.478-.269l1.714,1.069c-1.281,2.054-3.396,1.7-5.211.567-1.951-1.218-2.739-2.864-1.426-4.969l1.938-3.104c.18-.289.142-.454-.164-.645-.204-.127-.541-.267-.776-.343l.752-1.205c.39.055,1.073.245,1.633.595.95.593.915,1.255.565,1.814l-.085.136c.697-.249,1.963-.426,3.507.538,1.459.911,2.245,2.297,1.313,3.79ZM407.537,67.363l-.593.95c.27.286.923.788,1.567,1.19,1.001.625,1.78.852,2.224.139.36-.577.095-1.097-.736-1.615-.95-.593-1.898-.736-2.462-.664Z"/><path d="M403.962,60.383c-1.679-.932-2.792-.863-4.05.085l-.833,9.579-2.098-1.165.542-4.479.463-2.854-2.185,1.875-3.542,2.838-1.993-1.106,7.311-5.549c2.674-2.016,4.354-2.364,7.239-.763l-.854,1.539Z"/><path d="M358.365,55.57l-1.355-.484,5.504-15.402,1.355.484-5.504,15.402Z"/><path d="M325.251,44.776l-2.716-.49-.473-3.46-.26-2.607-1.118,2.359-1.653,3.075-2.638-.477,2.034-11.259,1.949.352-1.038,5.748-.862,3.422,3.061-5.81,1.536.277.836,6.513.39-3.507,1.038-5.747,1.949.352-2.034,11.259Z"/><path d="M314.206,35.736c-.451,3.531-3.025,4.271-5.108,4.005-2.222-.283-4.394-1.589-3.938-5.159.448-3.512,3.025-4.271,5.107-4.005,2.222.283,4.391,1.608,3.938,5.159ZM307.322,34.857c-.251,1.964.491,2.946,1.998,3.139,1.508.192,2.472-.571,2.723-2.535.249-1.944-.491-2.946-1.998-3.139-1.508-.192-2.475.592-2.723,2.535Z"/><path d="M300.729,38.59l-1.854-.141.09-1.197c-.462.547-1.342,1.303-2.838,1.189-1.675-.127-3.097-.957-2.88-3.809l.412-5.444,2.134.161-.38,5.026c-.109,1.436.131,2.236,1.428,2.334.957.073,1.524-.266,1.935-.655l.488-6.441,2.134.161-.668,8.815Z"/><path d="M289.209,33.366c-.09,3.559-2.575,4.556-4.674,4.503-2.239-.057-4.532-1.134-4.441-4.732.089-3.538,2.575-4.556,4.674-4.502,2.239.056,4.531,1.154,4.441,4.731ZM282.272,33.192c-.05,1.979.788,2.88,2.307,2.918,1.52.038,2.401-.819,2.451-2.799.049-1.959-.787-2.88-2.307-2.918-1.519-.038-2.401.84-2.451,2.799Z"/><path d="M276.487,31.503l-2.099.053c-.104-.938-1.073-1.313-2.413-1.279-1.219.03-2.174.234-2.153,1.055.022.879,1.365.985,3.152,1.261,1.727.256,3.398.714,3.445,2.573.045,1.818-1.814,2.646-3.993,2.7-2.179.056-4.052-.478-4.268-2.692l2.099-.053c.164.956,1.189,1.13,2.108,1.106,1.219-.03,1.893-.287,1.878-.887-.021-.8-1.083-.913-3.191-1.2-1.646-.219-3.378-.715-3.424-2.533-.054-2.14,1.947-2.91,4.425-2.973,2.359-.059,4.318.691,4.433,2.869Z"/><path d="M263.813,37.999l-1.855.141-.087-1.157c-.412.653-1.313,1.464-2.809,1.577-1.955.147-3.792-1.077-4.039-4.327-.246-3.251,1.426-4.742,3.341-4.887,1.396-.105,2.328.546,2.717.917l-.344-4.547,2.134-.161.943,12.444ZM257.217,34.065c.128,1.695.851,2.764,2.367,2.649.897-.068,1.528-.477,1.917-.907l-.313-4.129c-.449-.367-1.134-.676-2.032-.608-1.516.115-2.069,1.28-1.939,2.995Z"/><path d="M251.319,32.502c.259,2.023-1.478,2.79-3.283,3.021-.913.116-1.905.081-2.441-.012l.091.715c.145,1.13.457,1.998,2.083,1.79,1.229-.157,1.88-.744,1.749-1.775l2.004-.256c.306,2.399-1.554,3.464-3.676,3.735-2.281.291-3.933-.486-4.247-2.945l-.464-3.631c-.043-.337-.177-.44-.534-.396-.238.031-.587.136-.818.226l-.18-1.408c.336-.204.986-.488,1.64-.572,1.111-.142,1.502.393,1.585,1.048l.021.158c.383-.634,1.25-1.571,3.056-1.802,1.706-.218,3.191.359,3.414,2.104ZM245.286,33.09l.142,1.111c.39.051,1.213.026,1.967-.07,1.17-.149,1.916-.466,1.81-1.299-.086-.675-.62-.909-1.592-.785-1.111.143-1.936.631-2.327,1.043Z"/><path d="M239.201,36.259c.647,3.582-1.581,4.98-3.746,5.371-1.949.353-4.236-.048-4.892-2.774l2.126-.385c.36,1.317,1.265,1.602,2.426,1.392,1.536-.277,2.272-1.264,1.92-3.213-.355-1.968-1.387-2.615-2.942-2.334-1.142.206-1.894.769-1.77,2.128l-2.126.385c-.333-2.745,1.726-3.95,3.635-4.295,2.185-.396,4.729.183,5.369,3.726Z"/><path d="M226.832,38.539c.808,3.446-1.234,5.075-3.356,5.572-2.2.516-4.675-.055-5.474-3.462l-.109-.467,6.736-1.579c-.41-1.485-1.364-2.227-3.038-1.835-1.149.27-1.838.924-1.797,1.798l-2.142.502c-.111-2.315,1.73-3.486,3.599-3.925,2.492-.584,4.824.164,5.581,3.396ZM220.376,41.14c.485,1.283,1.591,1.619,2.72,1.354,1.129-.264,1.971-1.057,1.835-2.422l-4.556,1.067Z"/><path d="M188.448,59.427l-1.329.554-6.291-15.103,1.329-.554,6.291,15.103Z"/><path d="M152.445,66.897l-1.833,1.144c-.72-.965-1.615-1.114-2.938-.288-1.205.752-1.669,1.631-1.182,2.412.402.645,1.074.626,1.98.414l2.616-.643c1.432-.351,2.846-.125,3.714,1.266,1.133,1.816.203,3.764-1.867,5.056-1.935,1.207-4.053,1.327-5.442-.824l1.85-1.154c.735,1.027,1.549,1.085,2.635.407,1.205-.752,1.44-1.583,1.032-2.2-.355-.532-.822-.713-1.778-.47l-2.661.646c-1.397.33-2.886.363-3.86-1.197-1.229-1.969-.114-3.961,2.024-5.295,2.188-1.366,4.387-1.395,5.711.727Z"/><path d="M142.412,74.42c2.083,2.985.643,5.186-1.162,6.444-1.624,1.133-3.87,1.724-5.603-.48l1.771-1.236c.877,1.047,1.817.927,2.785.252,1.28-.893,1.537-2.097.404-3.721-1.145-1.641-2.352-1.798-3.648-.894-.951.663-1.4,1.488-.72,2.673l-1.771,1.235c-1.448-2.354-.08-4.309,1.511-5.419,1.821-1.271,4.373-1.808,6.433,1.146Z"/><path d="M130.061,79.846l-1.721,1.337,3.349,4.312,1.722-1.337,1.042,1.343-3.19,2.478-1.227-1.579c.301,1.007.354,2.51-1.02,3.577-.521.405-1.093.646-1.543.719l-1.325-1.706c.507-.064,1.142-.355,1.6-.711,1.105-.858,1.339-1.927,1.331-2.654l-2.429-3.127-2.938,2.281-1.03-1.326,6.349-4.932,1.03,1.326Z"/><path d="M120.122,87.72l-2.333,2.012,3.566,4.137,2.333-2.012,1.11,1.288-3.955,3.409-4.676-5.425-2.137,1.842-1.097-1.272,6.091-5.251,1.097,1.272ZM125.309,98.119l-1.985,1.711-1.581-1.833,1.985-1.711,1.581,1.833Z"/><path d="M115.45,101.363l-1.345,1.285-.802-.839c.096.767-.087,1.965-1.172,3.002-1.417,1.354-3.616,1.574-5.87-.784-2.253-2.357-1.906-4.571-.517-5.898,1.013-.968,2.146-1.056,2.684-1.015l-3.152-3.299,1.548-1.479,8.626,9.026ZM107.853,102.506c1.175,1.229,2.412,1.598,3.512.547.651-.622.879-1.339.907-1.919l-2.862-2.994c-.58,0-1.307.197-1.958.819-1.099,1.051-.788,2.303.401,3.547Z"/><path d="M101.69,107.778l2.458,2.321,1.936-2.051,1.236,1.168-1.937,2.05,2.981,2.815-1.469,1.556-2.981-2.814-2.98,3.155-1.236-1.167,2.98-3.156-2.399-2.266c-1.207-1.14-1.848-1.306-2.864-.229-.563.597-.954,1.272-1.191,1.901l-1.25-1.181c.236-.657.638-1.433,1.448-2.291,1.565-1.658,3.029-1.926,5.269.188Z"/><path d="M83.27,144.983l-.807,1.193-13.555-9.162.807-1.193,13.555,9.162Z"/><path d="M64.544,174.346l-1.154,2.509-3.469-.407-2.591-.399,2.006,1.672,2.565,2.369-1.121,2.436-10.395-4.783.828-1.799,5.307,2.441,3.098,1.689-4.86-4.416.652-1.418,6.516.818-3.299-1.254-5.307-2.441.828-1.799,10.395,4.782Z"/><path d="M53.021,182.795c3.306,1.32,3.378,3.997,2.599,5.947-.831,2.08-2.638,3.855-5.98,2.521-3.287-1.312-3.377-3.997-2.599-5.946.831-2.08,2.657-3.849,5.98-2.521ZM50.448,189.239c1.838.734,2.975.262,3.538-1.149s.065-2.536-1.773-3.271c-1.82-.727-2.975-.262-3.538,1.149s-.047,2.544,1.773,3.271Z"/><path d="M48.457,194.478c3.087,1.05,3.801,3.173,3.183,4.99-.451,1.326-1.416,1.928-1.91,2.14l4.753,1.616-.689,2.026-12.252-4.167.599-1.761,1.098.373c-.439-.635-.831-1.782-.348-3.202.631-1.855,2.479-3.065,5.565-2.016ZM44.465,199.818l3.901,1.326c.514-.269,1.086-.771,1.376-1.624.49-1.438-.384-2.412-1.993-2.959-1.61-.548-2.895-.309-3.384,1.131-.29.852-.143,1.6.101,2.126Z"/><path d="M43.312,206.764l5.253,1.487-.583,2.059-4.849-1.372c-1.385-.393-2.218-.316-2.572.935-.261.923-.043,1.546.258,2.026l6.215,1.76-.583,2.059-8.504-2.408.506-1.789,1.155.327c-.444-.562-1.009-1.574-.601-3.018.458-1.616,1.553-2.844,4.305-2.065Z"/><path d="M38.364,218.43l-.655,2.867,9.341,2.134.655-2.866,1.638.374-1.132,4.953-10.979-2.509-.66,2.887-1.638-.375,1.792-7.839,1.638.374Z"/><path d="M36.377,230.439c2.009.35,2.229,2.235,1.916,4.027-.158.906-.484,1.845-.73,2.329l.709.123c1.123.196,2.044.153,2.325-1.462.213-1.221-.156-2.017-1.18-2.194l.347-1.99c2.384.416,2.852,2.507,2.484,4.614-.395,2.266-1.625,3.614-4.067,3.188l-3.605-.628c-.335-.059-.474.039-.536.394-.041.236-.044.602-.026.848l-1.398-.243c-.096-.383-.176-1.087-.063-1.736.192-1.104.818-1.319,1.469-1.206l.157.027c-.492-.552-1.131-1.658-.819-3.451.295-1.693,1.284-2.942,3.018-2.64ZM35.159,236.377l1.103.192c.164-.357.383-1.151.514-1.899.203-1.163.12-1.969-.708-2.113-.669-.116-1.051.325-1.219,1.29-.192,1.104.031,2.035.31,2.53Z"/><path d="M33.597,243.343l-.264,2.164,5.419.662.264-2.164,1.688.207-.49,4.01-1.985-.243c.927.496,2.031,1.518,1.82,3.245-.08.655-.312,1.231-.579,1.602l-2.144-.262c.312-.405.553-1.062.623-1.637.17-1.39-.423-2.309-.945-2.815l-3.931-.48-.451,3.692-1.667-.204.975-7.98,1.667.204Z"/><path d="M42.686,286.376l.057,1.439-16.351.649-.057-1.439,16.351-.649Z"/><path d="M45.122,321.763l.79,3.84c.532,2.587-.349,4.463-2.269,4.857-1.254.258-2.022-.299-2.555-1.007-.117.923-.667,2.118-2.176,2.429-1.939.398-3.61-1.075-4.134-3.622l-.862-4.192,11.207-2.305ZM36.165,325.872l.387,1.881c.346,1.685,1.207,1.998,1.991,1.837.862-.177,1.372-.874,1.038-2.5l-.379-1.842-3.037.624ZM40.925,324.893l.29,1.41c.334,1.626.941,2.094,1.823,1.912.803-.165,1.357-.748,1.011-2.434l-.302-1.469-2.821.58Z"/><path d="M38.201,335.985l.775,2.981,5.286-1.374-.775-2.982,1.646-.428,1.314,5.054-6.932,1.803.71,2.73-1.626.423-2.024-7.784,1.626-.423ZM49.823,335.919l.66,2.537-2.343.609-.66-2.537,2.343-.609Z"/><path d="M44.071,349.438l3.223-1.019-.85-2.689,1.621-.512.85,2.689,3.91-1.236.645,2.041-3.91,1.235,1.308,4.14-1.621.512-1.308-4.139-3.147.994c-1.583.501-2.04.98-1.594,2.392.247.782.647,1.453,1.083,1.966l-1.64.519c-.46-.526-.942-1.255-1.298-2.38-.687-2.175-.209-3.584,2.728-4.513Z"/><path d="M51.865,357.018l.567,1.518-1.181.441c.63.085,1.69.351,2.131,1.531.364.975-.07,1.756-.644,2.162.478.078,1.589.367,2.023,1.529.483,1.293-.426,2.23-2.075,2.847l-5.715,2.137-.665-1.78,5.396-2.018c1.012-.378,1.354-.72,1.158-1.244-.189-.506-.704-.74-1.121-.884l-6.127,2.29-.666-1.78,5.396-2.017c1.012-.378,1.354-.72,1.158-1.244-.189-.506-.711-.76-1.127-.903l-6.127,2.291-.666-1.78,8.282-3.096Z"/><path d="M50.397,371.448c1.871-.812,3.091.642,3.816,2.311.366.844.61,1.806.67,2.347l.66-.287c1.045-.454,1.791-.996,1.138-2.5-.494-1.137-1.239-1.598-2.193-1.184l-.805-1.853c2.219-.964,3.76.525,4.612,2.488.916,2.108.631,3.911-1.644,4.899l-3.356,1.457c-.312.136-.374.293-.23.623.096.221.294.526.444.723l-1.302.565c-.29-.266-.744-.81-1.007-1.415-.446-1.027-.042-1.552.563-1.814l.147-.063c-.715-.191-1.857-.764-2.583-2.433-.685-1.577-.545-3.164,1.068-3.864ZM52.646,377.077l1.027-.446c-.06-.389-.313-1.172-.616-1.869-.47-1.082-.982-1.71-1.752-1.375-.624.271-.7.849-.31,1.747.446,1.027,1.145,1.683,1.65,1.943Z"/><path d="M61.627,380.652l.827,1.666-1.039.516c.76.137,1.85.667,2.517,2.011.872,1.756.428,3.919-2.492,5.369-2.92,1.449-4.93.46-5.784-1.26-.623-1.254-.369-2.362-.171-2.862l-4.084,2.028-.952-1.917,11.178-5.551ZM60.461,388.243c1.522-.756,2.241-1.828,1.565-3.189-.4-.806-1.017-1.237-1.562-1.436l-3.708,1.842c-.171.554-.201,1.306.2,2.111.676,1.361,1.964,1.437,3.505.672Z"/><path d="M86.457,414.671l.841,1.169-13.28,9.561-.842-1.169,13.281-9.561Z"/><path d="M109.916,444.732l1.671,1.667-5.236,10.939-1.685-1.681,1.186-2.378-2.846-2.84-2.361,1.205-1.657-1.653,10.928-5.26ZM104.603,449.547l2.096,2.091.564-1.104,1.835-3.396-3.393,1.843-1.103.567Z"/><path d="M112.896,458.253l2.261-2.512-2.095-1.887,1.137-1.264,2.096,1.887,2.743-3.046,1.59,1.432-2.743,3.047,3.225,2.903-1.138,1.264-3.225-2.904-2.208,2.452c-1.111,1.233-1.261,1.879-.161,2.869.609.549,1.294.924,1.929,1.146l-1.151,1.277c-.663-.22-1.448-.604-2.325-1.393-1.694-1.526-1.997-2.982.064-5.271Z"/><path d="M116.818,469.386c1.49,1.21,2.598,1.337,4.001.622l2.492-9.282,1.862,1.513-1.315,4.314-.954,2.728,2.478-1.465,3.981-2.175,1.769,1.438-8.164,4.186c-2.984,1.518-4.698,1.567-7.259-.513l1.109-1.365Z"/><path d="M133.815,469.107l1.501,1.098-.684.936c.737-.229,1.948-.26,3.159.625,1.582,1.155,2.185,3.279.262,5.911-1.923,2.632-4.162,2.68-5.711,1.547-1.13-.825-1.416-1.926-1.471-2.461l-2.689,3.681-1.728-1.262,7.36-10.074ZM136.277,476.378c1.002-1.372,1.146-2.653-.081-3.55-.727-.531-1.472-.63-2.046-.555l-2.441,3.342c.103.571.423,1.251,1.15,1.781,1.227.896,2.404.37,3.418-1.019Z"/><path d="M140.855,479.617c1.95-2.977,4.587-2.516,6.344-1.365,1.873,1.228,3.254,3.351,1.282,6.361-1.939,2.96-4.588,2.516-6.344,1.365-1.873-1.228-3.244-3.368-1.282-6.361ZM146.658,483.419c1.085-1.655.848-2.862-.423-3.695-1.271-.832-2.472-.567-3.557,1.088-1.074,1.639-.848,2.862.423,3.695,1.271.832,2.483.551,3.557-1.088Z"/><path d="M149.05,490.765l1.779,1.039c-.473.928-.391,1.74.922,2.507,1.589.928,2.273.192,2.869-.827l.635-1.088c-.584.168-1.588.3-2.763-.386-1.779-1.039-2.552-3.088-1.019-5.713,1.543-2.644,3.779-2.982,5.507-1.974,1.244.727,1.744,1.853,1.794,2.6l.575-.984,1.606.938-4.579,7.842c-1.2,2.055-2.99,2.423-5.512.95-1.692-.988-3.165-2.474-1.814-4.904ZM155.991,491.135l1.937-3.316c-.175-.612-.557-1.229-1.282-1.652-1.33-.776-2.455-.159-3.262,1.223-.807,1.382-.781,2.647.548,3.424.726.424,1.44.47,2.059.322Z"/><path d="M161.509,495.355l1.936,1.002,2.508-4.849-1.936-1.002.781-1.51,3.588,1.855-.918,1.776c.788-.695,2.129-1.375,3.674-.576.586.304,1.046.722,1.3,1.101l-.992,1.918c-.271-.433-.802-.888-1.316-1.153-1.244-.644-2.311-.407-2.968-.095l-1.819,3.517,3.304,1.709-.771,1.492-7.14-3.693.771-1.492Z"/><path d="M172.65,500.287c.842-1.858,2.723-1.599,4.381-.848.838.38,1.665.931,2.072,1.291l.297-.656c.471-1.038.66-1.941-.834-2.618-1.13-.512-1.992-.354-2.421.594l-1.84-.833c.999-2.205,3.141-2.135,5.09-1.251,2.095.949,3.093,2.478,2.07,4.736l-1.511,3.334c-.14.31-.081.469.248.617.219.1.571.193.814.237l-.586,1.294c-.394-.003-1.096-.102-1.697-.374-1.02-.462-1.072-1.122-.8-1.724l.066-.146c-.658.338-1.89.681-3.547-.07-1.567-.71-2.529-1.98-1.802-3.584ZM178.097,502.953l.462-1.021c-.305-.248-1.019-.659-1.711-.973-1.075-.487-1.876-.609-2.223.156-.28.619.051,1.099.944,1.504,1.021.462,1.979.479,2.528.333Z"/><path d="M187.185,499.588l1.731.68-.424,1.08c.655-.409,1.818-.747,3.215-.199,1.824.717,2.947,2.618,1.755,5.652-1.191,3.035-3.345,3.65-5.132,2.948-1.303-.512-1.859-1.503-2.048-2.007l-1.667,4.244-1.992-.782,4.561-11.616ZM191.415,505.998c.622-1.582.435-2.858-.979-3.414-.838-.329-1.584-.235-2.121-.017l-1.513,3.854c.245.526.728,1.103,1.565,1.432,1.415.556,2.42-.253,3.048-1.854Z"/><path d="M200.009,500.096l2.03.678-1.609,4.817c.411-.284,1.436-.764,2.745-.327,1.593.532,2.731,1.671,1.825,4.383l-1.729,5.178-2.029-.678,1.596-4.779c.456-1.365.418-2.2-.814-2.611-.911-.305-1.543-.115-2.036.163l-2.045,6.126-2.03-.678,4.097-12.271Z"/><path d="M206.829,517.998c1.85.513,2.916.186,3.917-1.031l-1.433-9.507,2.312.641.522,4.481.218,2.883,1.685-2.334,2.779-3.588,2.197.608-5.808,7.106c-2.128,2.585-3.68,3.317-6.859,2.437l.47-1.696Z"/><path d="M252.293,511.991l1.432.152-1.735,16.264-1.432-.152,1.735-16.264Z"/></svg>