<?xml version="1.0" encoding="UTF-8"?><svg id="Layer_1" xmlns="http://www.w3.org/2000/svg" width="9.587in" height="9.587in" viewBox="0 0 690.25 690.25"><defs><style>.cls-1{fill:#ff8c00;opacity:.5;stroke:#231f20;stroke-miterlimit:10;stroke-width:.25px;}</style></defs><path class="cls-1" d="M343.651.125C153.113.125-1.349,154.587-1.349,345.125s154.462,345,345,345,345-154.462,345-345S534.19.125,343.651.125ZM343.651,621.125c-152.431,0-276-123.569-276-276S191.221,69.125,343.651,69.125s276,123.569,276,276-123.569,276-276,276Z"/><path d="M362.237,655.929c-.28-3.81,1.223-6.005,4.254-6.228,1.935-.143,4.131.559,4.452,3.562l-1.595.117c-.281-1.644-1.295-2.351-2.792-2.241-2.533.187-2.766,2.469-2.605,4.663.152,2.074.718,4.318,3.251,4.132,1.695-.124,2.417-.939,2.416-2.604l1.615-.118c.113,2.898-1.871,4.007-3.945,4.159-3.131.23-4.784-1.794-5.052-5.443Z"/><path d="M374.676,654.965c-.413-3.636.762-6.044,3.782-6.387,3-.341,4.619,1.688,5.026,5.265.413,3.636-.764,6.023-3.784,6.366-3,.342-4.619-1.688-5.023-5.244ZM381.782,654.097c-.215-1.888-.738-4.363-3.201-4.084-2.463.28-2.417,2.811-2.203,4.698.212,1.867.735,4.344,3.199,4.063,2.463-.28,2.417-2.811,2.205-4.678Z"/><path d="M387.106,647.708l2.193-.341,4.979,9.001-.675-3.173-.984-6.344,1.482-.229,1.73,11.145-2.193.341-4.979-9.002.675,3.174.984,6.343-1.482.23-1.73-11.145Z"/><path d="M402.122,646.6l-3.729.733-.274-1.394,9.125-1.795.274,1.394-3.768.741,1.903,9.674-1.629.32-1.903-9.674Z"/><path d="M411.163,643.268l2.84-.68c2.821-.675,4.832.078,5.353,2.257.424,1.771-.435,3.169-1.864,3.901l4.447,3.544-2.023.483-4.032-3.354-1.459.349.978,4.086-1.615.387-2.625-10.973ZM414.105,648.426l1.245-.298c2.062-.493,2.66-1.521,2.362-2.766-.293-1.226-1.296-1.892-3.358-1.397l-1.245.298.996,4.163Z"/><path d="M425.621,639.6l1.732-.489,6.893,9.771-1.732.489-1.594-2.334-4.233,1.194-.138,2.823-1.693.479.765-11.934ZM426.703,646.815l3.425-.967-1.02-1.478-2.192-3.35-.117,4.001-.096,1.793Z"/><path d="M436.714,644.732l1.54-.503c.479,1.211,1.521,1.628,3.099,1.112,1.445-.472,2.209-1.353,1.855-2.437-.273-.836-.949-1.036-2.03-1.062l-2.567-.065c-1.442-.034-2.793-.498-3.302-2.057-.621-1.901.704-3.449,2.814-4.139,2.167-.708,4.011-.153,4.75,2.046l-1.521.497c-.573-1.496-1.756-1.51-2.82-1.162-1.388.454-1.924,1.323-1.639,2.198.236.723.879,1.017,1.853,1.035l2.568.066c1.929.043,2.969.524,3.448,1.988.714,2.187-.744,3.714-2.968,4.441-2.434.795-4.378.188-5.08-1.96Z"/><path d="M449.489,633.37l-3.56,1.325-.495-1.33,8.713-3.243.495,1.331-3.598,1.339,3.438,9.237-1.555.579-3.438-9.238Z"/><path d="M484.118,622.915c-1.709-3.236-1.491-5.907,1.197-7.327,2.67-1.41,4.918-.108,6.599,3.074,1.708,3.236,1.481,5.89-1.207,7.309-2.67,1.41-4.917.109-6.589-3.056ZM490.421,619.519c-.887-1.68-2.276-3.797-4.469-2.639s-1.229,3.499-.341,5.179c.877,1.662,2.267,3.778,4.459,2.62,2.193-1.157,1.229-3.498.351-5.16Z"/><path d="M493.04,611.643l6.437-3.734.713,1.229-5.001,2.901,1.888,3.253,4.378-2.54.713,1.229-4.378,2.54,2.35,4.049-1.437.834-5.663-9.76Z"/><path d="M530.096,597.095l1.286-.985c.854.982,1.974,1.031,3.291.021,1.206-.924,1.635-2.008.941-2.912-.535-.698-1.238-.663-2.267-.329l-2.443.789c-1.371.446-2.799.457-3.796-.844-1.216-1.587-.48-3.486,1.281-4.836,1.809-1.387,3.732-1.475,5.158.354l-1.27.973c-1.036-1.221-2.156-.842-3.044-.16-1.159.888-1.376,1.886-.817,2.615.462.604,1.167.668,2.091.362l2.443-.789c1.833-.599,2.974-.491,3.911.731,1.398,1.824.531,3.749-1.326,5.172-2.031,1.557-4.066,1.63-5.44-.163Z"/><path d="M538.329,587.719c-2.442-2.938-2.496-5.599-.158-7.543,1.492-1.24,3.688-1.946,5.695.312l-1.23,1.023c-1.185-1.175-2.421-1.16-3.575-.201-1.953,1.624-.816,3.617.59,5.31,1.33,1.6,3.095,3.097,5.049,1.473,1.307-1.087,1.421-2.17.452-3.523l1.246-1.035c1.777,2.294.807,4.35-.793,5.679-2.415,2.008-4.937,1.321-7.276-1.493Z"/><path d="M546.709,573.086l1.336-1.206,10.511,5.708-1.336,1.206-2.463-1.387-3.267,2.947,1.127,2.593-1.306,1.179-4.602-11.04ZM550.876,579.078l2.643-2.385-1.569-.874-3.45-2.031,1.668,3.64.708,1.65Z"/><path d="M553.772,566.579l1.187-1.16,6.891,7.048,4.132-4.039.992,1.016-5.319,5.199-7.883-8.063Z"/><path d="M562.445,557.949l5.04-5.337,1.032.976-3.9,4.13,2.472,2.334,3.392-3.592,1.033.976-3.392,3.592,2.632,2.485,3.9-4.13,1.032.975-5.04,5.337-8.201-7.745Z"/><path d="M588.208,525.032l.847-1.165,13.23,9.623-.847,1.165-13.23-9.623Z"/><path d="M613.569,498.98c-3.352-1.834-4.38-4.288-2.921-6.955.931-1.702,2.713-3.167,5.41-1.806l-.768,1.403c-1.533-.656-2.678-.188-3.398,1.128-1.219,2.229.572,3.664,2.502,4.72,1.825.998,4.018,1.741,5.236-.487.816-1.491.523-2.54-.875-3.442l.777-1.421c2.497,1.479,2.35,3.747,1.352,5.572-1.507,2.755-4.104,3.044-7.315,1.288Z"/><path d="M619.519,487.999c-3.278-1.625-4.663-3.918-3.313-6.642,1.341-2.705,3.924-2.964,7.149-1.365,3.278,1.625,4.645,3.909,3.295,6.633-1.341,2.704-3.924,2.964-7.131,1.374ZM622.644,481.56c-1.702-.844-4.065-1.748-5.167.474-1.101,2.221,1.05,3.555,2.751,4.398,1.684.835,4.047,1.739,5.149-.482,1.101-2.222-1.05-3.555-2.733-4.39Z"/><path d="M620.161,473.63l.905-2.027,10.264.702-3.032-1.155-5.863-2.616.611-1.369,10.301,4.596-.904,2.027-10.264-.703,3.032,1.155,5.863,2.616-.611,1.37-10.302-4.596Z"/><path d="M627.371,460.423l-1.406,3.531-1.32-.525,3.441-8.643,1.319.525-1.421,3.568,9.163,3.648-.614,1.543-9.163-3.648Z"/><path d="M629.491,451.003l.969-2.753c.962-2.734,2.685-4.016,4.797-3.271,1.716.604,2.425,2.083,2.266,3.68l5.386-1.813-.69,1.961-5.002,1.567-.498,1.415,3.961,1.394-.551,1.565-10.637-3.744ZM635.417,451.331l.425-1.207c.704-2,.165-3.059-1.042-3.483-1.188-.418-2.29.063-2.994,2.062l-.425,1.207,4.036,1.421Z"/><path d="M634.243,436.867l.529-1.721,11.952-.491-.529,1.721-2.826.072-1.292,4.207,2.298,1.647-.517,1.683-9.614-7.118ZM640.893,439.873l1.046-3.403-1.796.056-4.004.024,3.299,2.27,1.455,1.054Z"/><path d="M644.571,430.334l.413-1.566c1.278.254,2.193-.395,2.617-2.001.387-1.471.062-2.591-1.042-2.881-.851-.225-1.386.234-1.994,1.13l-1.449,2.122c-.811,1.193-1.933,2.077-3.52,1.659-1.935-.51-2.517-2.464-1.951-4.611.581-2.205,2.048-3.453,4.297-2.882l-.408,1.548c-1.568-.33-2.221.656-2.506,1.74-.372,1.412.067,2.335.958,2.569.735.193,1.332-.188,1.876-.995l1.449-2.122c1.083-1.598,2.052-2.212,3.542-1.819,2.225.586,2.718,2.641,2.122,4.904-.652,2.477-2.217,3.781-4.403,3.205Z"/><path d="M641.951,413.444l-.818,3.711-1.387-.306,2.001-9.082,1.387.306-.826,3.75,9.629,2.121-.357,1.621-9.629-2.121Z"/><path d="M651.957,378.678c-3.647-.324-5.771-1.959-5.502-4.988.267-3.009,2.581-4.189,6.168-3.871,3.646.324,5.751,1.957,5.482,4.986-.267,3.009-2.582,4.189-6.148,3.873ZM652.531,371.539c-1.893-.168-4.425-.152-4.645,2.318-.22,2.472,2.27,2.934,4.163,3.102,1.874.167,4.406.15,4.625-2.32.22-2.472-2.27-2.934-4.144-3.1Z"/><path d="M647.34,365.088l.363-7.431,1.418.069-.282,5.772,3.755.184.247-5.054,1.418.069-.247,5.054,4.674.229-.081,1.658-11.265-.551Z"/><path d="M647.332,327.581l-.126-1.615,6.089-1.158,3.583-.62-6.096-1.229-.121-1.556,5.832-2.141-3.638-.077-6.194-.18-.125-1.595,11.357.518.165,2.114-5.361,2.004,5.607,1.147.165,2.113-11.139,2.274Z"/><path d="M646.151,313.831l-.868-7.291,1.41-.168.672,5.643,3.377-.402-.584-4.907,1.41-.168.584,4.907,3.596-.429-.671-5.642,1.41-.168.868,7.291-11.205,1.334Z"/><path d="M654.35,300.155l-.436-2.725-8.333,1.333.436,2.725-1.402.225-1.131-7.069,1.402-.224.433,2.705,8.333-1.333-.433-2.705,1.402-.225,1.131,7.069-1.402.224Z"/><path d="M648.274,289.335c-3.549.716-6.049-.352-6.638-3.273-.423-2.098.367-3.95,3.088-4.621l.316,1.568c-1.616.488-2.293,1.278-2.004,2.71.502,2.49,2.977,2.317,4.918,1.926,2.235-.45,4.211-1.277,3.749-3.571-.206-1.02-.736-1.627-1.403-2.104l-2.451.494.521,2.589-1.353.272-.838-4.157,5.96-1.201.257,1.274-1.215.245c.62.242,1.68,1.049,2.008,2.676.604,3-1.994,4.585-4.915,5.174Z"/><path d="M640.057,277.625l-.394-1.612,4.681-1.144-.901-3.69-4.682,1.144-.394-1.612,10.955-2.677.394,1.612-4.915,1.201.902,3.69,4.915-1.201.394,1.612-10.955,2.677Z"/><path d="M637.654,262.709l1.049,3.653-1.365.392-2.568-8.939,1.365-.393,1.061,3.691,9.478-2.723.458,1.596-9.478,2.723Z"/><path d="M621.806,226.831l-.574-1.32,15.003-6.516.574,1.321-15.003,6.515Z"/><path d="M612.225,191.765c-3.281,1.958-5.919,1.599-7.478-1.013-.995-1.667-1.353-3.946,1.19-5.58l.82,1.374c-1.344.988-1.522,2.213-.753,3.502,1.302,2.182,3.449,1.367,5.338.239,1.787-1.066,3.541-2.579,2.238-4.762-.872-1.46-1.924-1.74-3.412-.992l-.831-1.392c2.542-1.401,4.423-.124,5.49,1.663,1.61,2.697.541,5.083-2.604,6.96Z"/><path d="M605.777,181.063c-3.066,2.003-5.747,2.032-7.41-.514-1.652-2.53-.564-4.89,2.452-6.859,3.066-2.002,5.73-2.021,7.393.525,1.652,2.53.564,4.89-2.435,6.848ZM601.81,175.098c-1.592,1.039-3.571,2.619-2.215,4.696,1.356,2.078,3.599.9,5.19-.139,1.575-1.028,3.555-2.608,2.198-4.686-1.357-2.078-3.599-.9-5.174.128Z"/><path d="M593.734,173.229l-1.287-1.809,5.818-8.486-2.536,2.025-5.231,3.723-.87-1.222,9.191-6.541,1.288,1.809-5.819,8.486,2.536-2.025,5.231-3.723.87,1.222-9.191,6.541Z"/><path d="M586.011,160.295l2.325,3.007-1.123.869-5.69-7.358,1.123-.868,2.35,3.038,7.801-6.033,1.016,1.313-7.801,6.032Z"/><path d="M578.975,153.696l-1.878-2.236c-1.865-2.222-2.091-4.357-.375-5.798,1.395-1.17,3.029-1.027,4.323-.077l1.181-5.562,1.338,1.594-1.198,5.106.965,1.148,3.217-2.701,1.067,1.271-8.64,7.255ZM582.274,148.758l-.823-.98c-1.364-1.624-2.55-1.699-3.53-.876-.965.811-1.112,2.005.252,3.629l.823.98,3.278-2.753Z"/><path d="M569.217,142.41l-1.212-1.331,5.658-10.541,1.212,1.33-1.375,2.471,2.964,3.253,2.587-1.14,1.186,1.301-11.021,4.657ZM575.189,138.212l-2.398-2.632-.866,1.573-2.016,3.461,3.632-1.687,1.647-.716Z"/><path d="M568.847,130.185l-1.138-1.153c.869-.97.777-2.088-.389-3.27-1.068-1.082-2.198-1.372-3.009-.571-.626.618-.503,1.312-.043,2.291l1.088,2.327c.614,1.306.803,2.721-.365,3.873-1.423,1.406-3.401.912-4.96-.668-1.603-1.623-1.93-3.521-.292-5.165l1.124,1.139c-1.083,1.182-.566,2.245.221,3.043,1.026,1.039,2.044,1.131,2.699.484.541-.534.518-1.242.099-2.121l-1.088-2.327c-.823-1.745-.858-2.892.238-3.974,1.637-1.616,3.656-.995,5.3.671,1.799,1.822,2.125,3.833.517,5.421Z"/><path d="M552.997,123.847l2.774,2.595-.97,1.037-6.79-6.351.969-1.037,2.804,2.622,6.733-7.199,1.212,1.134-6.732,7.199Z"/><path d="M528.179,97.483c-2.139,2.971-4.629,3.964-7.097,2.188-2.451-1.765-2.286-4.357-.182-7.28,2.139-2.971,4.617-3.947,7.085-2.171,2.452,1.765,2.286,4.357.194,7.264ZM522.331,93.347c-1.11,1.542-2.389,3.729-.375,5.178s3.681-.456,4.792-1.999c1.099-1.525,2.376-3.712.363-5.161s-3.681.456-4.779,1.982Z"/><path d="M514.139,94.518l-6.204-4.104.783-1.184,4.82,3.188,2.074-3.136-4.22-2.791.783-1.185,4.22,2.791,2.582-3.902,1.384.916-6.222,9.406Z"/><path d="M483.788,70.027c-1.682,3.431-4.088,4.567-6.817,3.229-1.742-.854-3.286-2.568-2.046-5.324l1.437.704c-.587,1.561-.068,2.684,1.278,3.345,2.281,1.118,3.635-.735,4.604-2.711.916-1.868,1.56-4.092-.721-5.21-1.526-.748-2.562-.409-3.4,1.029l-1.455-.714c1.367-2.56,3.639-2.515,5.507-1.6,2.82,1.383,3.225,3.965,1.613,7.251Z"/><path d="M472.546,64.577c-1.475,3.349-3.702,4.836-6.483,3.611-2.763-1.217-3.139-3.785-1.688-7.078,1.474-3.349,3.694-4.817,6.475-3.593,2.763,1.217,3.139,3.785,1.697,7.06ZM465.972,61.748c-.766,1.738-1.561,4.14.708,5.139s3.503-1.209,4.269-2.947c.757-1.72,1.553-4.121-.716-5.12-2.269-.999-3.503,1.209-4.26,2.929Z"/><path d="M458.193,64.599l-1.545-.606,3.604-9.178-5.38-2.112.519-1.321,6.925,2.719-4.123,10.499Z"/><path d="M449.439,55.111c-1.198,3.457-3.298,5.12-6.169,4.125-2.853-.988-3.436-3.518-2.258-6.918,1.198-3.457,3.292-5.102,6.163-4.106,2.853.988,3.436,3.519,2.264,6.899ZM442.657,52.824c-.622,1.795-1.22,4.254,1.122,5.065,2.343.812,3.394-1.49,4.016-3.284.615-1.776,1.213-4.234-1.129-5.047-2.343-.812-3.394,1.49-4.009,3.266Z"/><path d="M437.549,49.401l-2.111,6.989-1.589-.479,2.111-6.99c.578-1.915.192-2.783-1.32-3.24s-2.314.053-2.893,1.968l-2.111,6.99-1.589-.48,2.111-6.989c.844-2.796,2.396-3.644,4.905-2.887,2.508.758,3.332,2.323,2.487,5.119Z"/><path d="M423.386,52.856l-2.827-.73c-2.808-.727-4.23-2.333-3.67-4.502.455-1.762,1.869-2.595,3.474-2.572l-2.268-5.214,2.014.521,1.989,4.853,1.452.375,1.051-4.066,1.607.416-2.823,10.921ZM423.205,46.921l-1.239-.32c-2.053-.53-3.062.098-3.382,1.337-.315,1.22.259,2.276,2.311,2.808l1.239.32,1.071-4.145Z"/><path d="M382.131,46.226l-1.429-.178,2.022-16.239,1.429.179-2.022,16.238Z"/><path d="M347.055,36.575c.062,3.821-1.566,5.928-4.606,5.977-1.94.031-4.095-.795-4.243-3.813l1.601-.025c.187,1.657,1.159,2.422,2.66,2.398,2.541-.041,2.904-2.308,2.869-4.509-.033-2.08-.47-4.354-3.011-4.313-1.7.027-2.468.8-2.562,2.462l-1.621.026c.054-2.902,2.099-3.896,4.179-3.929,3.141-.051,4.675,2.066,4.734,5.727Z"/><path d="M334.585,36.723c.156,3.658-1.186,5.979-4.225,6.108-3.018.129-4.492-2.011-4.646-5.609-.156-3.657,1.188-5.958,4.226-6.088,3.019-.129,4.492,2.011,4.645,5.589ZM327.432,37.089c.081,1.898.429,4.407,2.907,4.301,2.479-.105,2.611-2.635,2.53-4.533-.081-1.879-.428-4.388-2.907-4.281-2.479.105-2.611,2.635-2.53,4.514Z"/><path d="M321.684,43.081l-2.212.183-4.323-9.334.446,3.214.529,6.397-1.495.123-.93-11.239,2.212-.183,4.323,9.333-.446-3.213-.529-6.397,1.495-.123.93,11.239Z"/><path d="M306.63,43.123l3.772-.467.174,1.409-9.231,1.143-.174-1.409,3.812-.472-1.211-9.787,1.648-.204,1.211,9.787Z"/><path d="M297.353,45.799l-2.881.475c-2.861.471-4.812-.424-5.176-2.634-.295-1.795.66-3.128,2.137-3.756l-4.181-3.851,2.052-.339,3.78,3.634,1.48-.244-.683-4.144,1.637-.27,1.833,11.128ZM294.789,40.446l-1.263.208c-2.091.345-2.761,1.326-2.553,2.589.205,1.243,1.157,1.978,3.248,1.633l1.263-.208-.695-4.222Z"/><path d="M282.662,48.437l-1.764.364-6.179-10.246,1.763-.363,1.424,2.443,4.31-.89.34-2.808,1.724-.355-1.618,11.854ZM282.099,41.159l-3.488.72.912,1.548,1.948,3.5.403-3.985.225-1.782Z"/><path d="M271.972,42.521l-1.572.392c-.392-1.242-1.401-1.733-3.012-1.332-1.475.368-2.301,1.192-2.025,2.298.213.854.873,1.103,1.949,1.205l2.557.249c1.436.137,2.75.696,3.147,2.288.483,1.94-.949,3.39-3.103,3.927-2.213.552-4.012-.134-4.593-2.381l1.553-.387c.465,1.533,1.644,1.632,2.73,1.36,1.417-.353,2.014-1.182,1.792-2.075-.184-.737-.805-1.077-1.775-1.165l-2.557-.25c-1.921-.181-2.925-.734-3.297-2.229-.556-2.232,1.007-3.652,3.278-4.219,2.484-.619,4.381.125,4.927,2.318Z"/><path d="M258.433,52.938l3.647-1.066.399,1.362-8.926,2.611-.398-1.363,3.686-1.078-2.769-9.463,1.593-.466,2.769,9.463Z"/><path d="M223.128,60.896c1.472,3.351,1.062,5.998-1.721,7.221-2.765,1.214-4.913-.245-6.36-3.541-1.472-3.351-1.054-5.98,1.729-7.203,2.765-1.214,4.913.245,6.353,3.523ZM216.597,63.83c.764,1.739,1.997,3.95,4.268,2.953s1.477-3.401.713-5.141c-.756-1.722-1.989-3.932-4.259-2.935s-1.477,3.4-.721,5.122Z"/><path d="M213.452,71.49l-6.687,3.264-.623-1.275,5.195-2.536-1.649-3.379-4.548,2.22-.623-1.276,4.547-2.22-2.053-4.206,1.492-.729,4.948,10.138Z"/><path d="M179.321,90.456l-6.209,4.099-.782-1.186,4.824-3.184-2.071-3.139-4.223,2.787-.782-1.185,4.223-2.787-2.578-3.906,1.385-.915,6.213,9.415Z"/><path d="M166.544,92.141c2.136,2.971,2.287,5.646-.181,7.42-2.452,1.763-4.856.782-6.957-2.14-2.136-2.972-2.275-5.63.193-7.404,2.452-1.763,4.856-.782,6.945,2.124ZM160.767,96.369c1.109,1.542,2.774,3.448,4.788,2,2.013-1.447.737-3.633-.372-5.175-1.098-1.526-2.763-3.432-4.776-1.984s-.737,3.633.36,5.159Z"/><path d="M159.264,104.524l-2.301,1.798c-2.286,1.785-4.427,1.936-5.806.17-1.121-1.435-.921-3.062.075-4.322l-5.517-1.376,1.639-1.281,5.061,1.377,1.182-.924-2.586-3.31,1.309-1.022,6.945,8.891ZM154.446,101.053l-1.009.788c-1.67,1.306-1.788,2.488-1,3.497.776.993,1.964,1.182,3.635-.124l1.009-.788-2.635-3.373Z"/><path d="M150.171,111.732l-1.678,1.423-3.409-2.04-2.184-1.4,1.04,2.371,1.456,3.696-1.632,1.385-7.298-8.605,1.144-.971,4.27,5.035,1.925,2.486-2.579-6.443.977-.828,5.936,3.597-2.138-2.306-4.27-5.035,1.144-.971,7.298,8.606Z"/><path d="M120.442,142.011l-.97,1.063-12.083-11.021.97-1.063,12.083,11.021Z"/><path d="M92.35,165.106c3.127,2.194,3.876,4.748,2.13,7.237-1.114,1.588-3.048,2.846-5.578,1.192l.919-1.31c1.451.823,2.641.485,3.502-.743,1.459-2.079-.161-3.705-1.962-4.969-1.703-1.195-3.799-2.178-5.258-.098-.977,1.392-.803,2.467.487,3.519l-.931,1.326c-2.316-1.748-1.919-3.986-.724-5.688,1.804-2.571,4.417-2.569,7.414-.467Z"/><path d="M85.225,175.347c3.077,1.979,4.198,4.413,2.554,6.969-1.633,2.539-4.229,2.51-7.256.562-3.077-1.979-4.182-4.401-2.537-6.958,1.634-2.539,4.23-2.509,7.24-.572ZM81.403,181.399c1.598,1.028,3.846,2.189,5.188.104,1.342-2.085-.647-3.65-2.245-4.678-1.581-1.017-3.829-2.179-5.171-.094-1.341,2.086.647,3.65,2.228,4.667Z"/><path d="M82.999,189.536l-1.125,1.914-10.122-1.842,2.884,1.486,5.535,3.252-.76,1.294-9.725-5.715,1.125-1.914,10.122,1.842-2.884-1.486-5.535-3.252.76-1.293,9.725,5.714Z"/><path d="M74.349,201.874l1.792-3.352,1.252.669-4.385,8.202-1.252-.669,1.811-3.387-8.696-4.649.783-1.464,8.696,4.649Z"/><path d="M71.191,211.01l-1.272,2.629c-1.263,2.611-3.119,3.69-5.136,2.715-1.638-.793-2.177-2.343-1.84-3.912l-5.558,1.199.906-1.873,5.149-.997.654-1.351-3.781-1.829.723-1.495,10.155,4.914ZM65.336,210.022l-.558,1.152c-.923,1.908-.506,3.021.646,3.579,1.134.549,2.284.194,3.207-1.715l.558-1.152-3.853-1.864Z"/><path d="M64.89,224.516l-.718,1.65-11.933-.851.718-1.65,2.817.244,1.755-4.035-2.099-1.896.703-1.613,8.756,8.15ZM58.618,220.784l-1.42,3.265,1.79.146,3.982.424-3.024-2.625-1.328-1.21Z"/><path d="M53.895,229.85l-.586,1.511c-1.241-.396-2.223.146-2.823,1.693-.55,1.417-.352,2.566.711,2.979.82.318,1.403-.078,2.107-.898l1.677-1.945c.939-1.095,2.153-1.846,3.682-1.253,1.865.724,2.224,2.729,1.421,4.799-.825,2.125-2.421,3.2-4.592,2.38l.579-1.491c1.521.504,2.28-.403,2.685-1.447.528-1.361.195-2.327-.663-2.659-.708-.275-1.344.036-1.975.778l-1.677,1.945c-1.255,1.465-2.286,1.966-3.722,1.409-2.145-.832-2.404-2.928-1.558-5.109.926-2.387,2.626-3.508,4.733-2.69Z"/><path d="M54.609,246.917l1.229-3.595,1.343.459-3.008,8.798-1.343-.459,1.242-3.633-9.328-3.189.537-1.57,9.328,3.189Z"/><path d="M40.784,280.355c3.588.726,5.518,2.586,4.915,5.566-.599,2.96-3.03,3.877-6.559,3.163-3.588-.727-5.499-2.582-4.896-5.562.599-2.961,3.03-3.878,6.54-3.167ZM39.422,287.386c1.862.377,4.381.642,4.873-1.79.492-2.432-1.931-3.167-3.793-3.544-1.843-.372-4.361-.637-4.854,1.794-.492,2.432,1.931,3.167,3.774,3.54Z"/><path d="M43.86,294.395l-1.181,7.345-1.402-.226.917-5.706-3.712-.597-.803,4.995-1.402-.225.803-4.996-4.621-.742.264-1.639,11.136,1.79Z"/><path d="M39.697,333.204l-.103,3.298c-.116,3.698-2.486,4.624-5.704,4.523-3.318-.104-5.684-1.238-5.57-4.876l.104-3.299,11.273.354ZM29.791,334.554l-.051,1.639c-.086,2.759,2.325,3.054,4.125,3.11,1.819.057,4.225-.088,4.311-2.847l.052-1.639-8.436-.264Z"/><path d="M29.523,345.54l.044,2.761,8.442-.135-.044-2.761,1.42-.022.115,7.161-1.42.022-.044-2.74-8.442.135.044,2.741-1.42.022-.115-7.161,1.42-.023Z"/><path d="M39.608,357.709l.138,2.916c.137,2.896-.977,4.73-3.214,4.837-1.818.086-3.031-1.018-3.484-2.558l-4.309,3.707-.098-2.077,4.046-3.335-.071-1.498-4.195.199-.079-1.658,11.266-.533ZM33.994,359.637l.061,1.278c.1,2.117.998,2.896,2.276,2.835,1.258-.06,2.098-.921,1.998-3.038l-.061-1.278-4.274.203Z"/><path d="M40.299,369.933l.644,7.313-1.415.125-.499-5.66-3.388.299.434,4.922-1.415.125-.434-4.923-3.607.318.499,5.659-1.415.125-.644-7.313,11.24-.99Z"/><path d="M35.722,381.974c3.789-.487,6.063.895,6.451,3.909.247,1.925-.333,4.156-3.316,4.641l-.204-1.587c1.626-.37,2.277-1.422,2.086-2.909-.323-2.52-2.616-2.628-4.798-2.348-2.063.265-4.273.952-3.95,3.471.216,1.687,1.07,2.363,2.731,2.271l.207,1.607c-2.889.27-4.104-1.651-4.369-3.714-.4-3.114,1.531-4.875,5.161-5.341Z"/><path d="M42.185,397.205l-.635-3.745,1.4-.237,1.554,9.167-1.399.237-.642-3.785-9.719,1.647-.277-1.637,9.719-1.647Z"/><path d="M35.633,408.371l.571,2.699,8.255-1.744-.57-2.7,1.389-.293,1.48,7.003-1.389.293-.566-2.68-8.255,1.745.566,2.68-1.389.294-1.48-7.003,1.389-.294Z"/><path d="M42.177,418.854c3.546-.902,6.091-.063,6.84,2.882.744,2.926-1.047,4.806-4.536,5.692-3.546.902-6.072.059-6.821-2.887-.744-2.926,1.047-4.806,4.516-5.688ZM43.999,425.777c1.841-.469,4.224-1.322,3.612-3.725-.611-2.403-3.112-2.015-4.953-1.547-1.821.464-4.204,1.317-3.593,3.72.611,2.403,3.112,2.015,4.934,1.552Z"/><path d="M51.046,430.182l.633,2.127-8.247,6.149,3.053-1.098,6.152-1.832.428,1.438-10.809,3.219-.633-2.127,8.247-6.148-3.054,1.097-6.152,1.832-.428-1.438,10.809-3.219Z"/><path d="M66.646,468.898l.586,1.315-14.941,6.652-.585-1.314,14.94-6.653Z"/><path d="M76.562,503.874c3.261-1.987,5.9-1.652,7.482.942,1.009,1.656,1.389,3.931-1.138,5.588l-.833-1.366c1.334-1,1.5-2.226.72-3.506-1.321-2.169-3.459-1.335-5.337-.189-1.776,1.082-3.514,2.609-2.193,4.778.885,1.451,1.939,1.722,3.419.961l.843,1.383c-2.528,1.423-4.419.164-5.501-1.611-1.634-2.681-.587-5.075,2.538-6.979Z"/><path d="M83.111,514.507c3.046-2.029,5.727-2.085,7.413.446,1.675,2.514.609,4.882-2.387,6.879-3.046,2.03-5.709,2.074-7.396-.456-1.675-2.515-.609-4.883,2.371-6.869ZM87.132,520.434c1.582-1.054,3.546-2.651,2.17-4.716s-3.606-.866-5.188.188c-1.565,1.043-3.529,2.641-2.154,4.705,1.376,2.064,3.606.866,5.171-.177Z"/><path d="M95.246,522.248l1.304,1.798-5.74,8.54,2.517-2.049,5.197-3.771.881,1.214-9.131,6.627-1.304-1.797,5.74-8.541-2.517,2.049-5.197,3.771-.881-1.214,9.131-6.627Z"/><path d="M103.068,535.078l-2.354-2.983,1.115-.879,5.761,7.301-1.115.88-2.379-3.015-7.741,6.108-1.028-1.304,7.741-6.108Z"/><path d="M110.178,541.628l1.9,2.216c1.887,2.202,2.135,4.334.434,5.792-1.381,1.185-3.017,1.059-4.321.122l-1.123,5.572-1.354-1.579,1.145-5.117-.976-1.139-3.188,2.733-1.081-1.26,8.563-7.341ZM106.931,546.598l.833.972c1.379,1.609,2.566,1.672,3.538.839.957-.82,1.091-2.016-.289-3.625l-.833-.972-3.249,2.786Z"/><path d="M120.033,552.806l1.225,1.32-5.562,10.595-1.225-1.32,1.353-2.483-2.994-3.227-2.578,1.164-1.198-1.29,10.979-4.759ZM114.098,557.059l2.423,2.61.852-1.582,1.984-3.479-3.618,1.72-1.641.731Z"/><path d="M120.513,565.027l1.148,1.142c-.86.979-.758,2.095.419,3.265,1.077,1.071,2.209,1.352,3.013.544.62-.624.491-1.316.022-2.291l-1.109-2.315c-.625-1.299-.827-2.712.329-3.874,1.41-1.418,3.391-.942,4.964.622,1.616,1.607,1.96,3.501.339,5.159l-1.134-1.128c1.071-1.19.545-2.249-.249-3.038-1.035-1.029-2.053-1.111-2.701-.46-.536.539-.506,1.246-.079,2.121l1.109,2.315c.839,1.736.884,2.882-.201,3.974-1.622,1.63-3.645,1.027-5.303-.622-1.814-1.805-2.159-3.812-.566-5.413Z"/><path d="M136.448,571.229l-2.8-2.568.959-1.047,6.854,6.287-.96,1.047-2.83-2.596-6.665,7.267-1.224-1.122,6.665-7.268Z"/><path d="M161.495,597.347c2.111-2.99,4.591-4.006,7.075-2.253,2.468,1.742,2.326,4.336.25,7.277-2.111,2.99-4.58,3.99-7.064,2.236-2.467-1.741-2.326-4.335-.261-7.261ZM167.38,601.428c1.096-1.553,2.353-3.75.327-5.181-2.026-1.43-3.676.49-4.772,2.043-1.084,1.536-2.342,3.733-.315,5.164,2.027,1.431,3.676-.49,4.761-2.026Z"/><path d="M175.561,600.18l6.244,4.041-.771,1.191-4.851-3.14-2.042,3.155,4.247,2.749-.771,1.191-4.247-2.748-2.542,3.928-1.393-.902,6.127-9.466Z"/><path d="M211.249,622.094l-3.43-1.638.612-1.282,8.394,4.009-.612,1.282-3.466-1.655-4.25,8.898-1.498-.715,4.25-8.899Z"/><path d="M220.501,624.836l6.743,2.896-.56,1.305-5.218-2.241-1.341,3.124,4.538,1.948-.56,1.305-4.538-1.949-1.428,3.325,5.218,2.241-.56,1.304-6.743-2.895,4.449-10.362Z"/><path d="M232.291,635.647l-1.529-6.472,1.793.686.632,2.938.422,2.089,1.726-1.268,2.432-1.768,1.755.672-5.442,3.763,1.601,6.842-1.793-.686-.727-3.36-.425-2.024-1.648,1.231-2.821,2.004-1.737-.664,5.762-3.983Z"/><path d="M245.41,636.061l-3.601-1.212.453-1.346,8.812,2.966-.453,1.346-3.639-1.225-3.145,9.343-1.573-.529,3.144-9.343Z"/><path d="M252.588,644.571l2.044-7.007,1.593.465-2.044,7.007c-.56,1.92-.167,2.784,1.35,3.227,1.517.442,2.313-.075,2.873-1.994l2.044-7.007,1.593.465-2.044,7.006c-.817,2.803-2.36,3.665-4.875,2.932s-3.352-2.29-2.534-5.093Z"/><path d="M266.725,640.98l2.834.702c2.814.696,4.253,2.289,3.715,4.463-.438,1.766-1.842,2.613-3.447,2.606l2.32,5.189-2.019-.5-2.038-4.831-1.456-.36-1.009,4.076-1.611-.399,2.711-10.946ZM266.967,646.911l1.242.308c2.058.51,3.06-.128,3.368-1.37.303-1.223-.282-2.274-2.339-2.783l-1.242-.308-1.029,4.153Z"/><path d="M278.618,643.82l7.19,1.479-.286,1.391-5.564-1.144-.685,3.33,4.839.995-.286,1.392-4.839-.995-.729,3.546,5.564,1.145-.286,1.391-7.19-1.479,2.272-11.05Z"/><path d="M320.172,648.389l1.436.106-1.21,16.313-1.436-.106,1.211-16.313Z"/></svg>