<?xml version="1.0" encoding="UTF-8"?><svg id="Layer_1" xmlns="http://www.w3.org/2000/svg" width="3.837in" height="3.837in" viewBox="0 0 276.25 276.25"><defs><style>.cls-1{fill:#ff8c00;opacity:.5;stroke:#231f20;stroke-miterlimit:10;stroke-width:.25px;}</style></defs><path class="cls-1" d="M138.125.125C61.91.125.125,61.91.125,138.125s61.785,138,138,138,138-61.785,138-138S214.34.125,138.125.125ZM138.125,207.125c-38.108,0-69-30.892-69-69s30.892-69,69-69,69,30.892,69,69-30.892,69-69,69Z"/><path d="M154.655,237.019l2.107-.473,1.789,5.502,1.046,3.476.2-5.866,1.815-.408,2.664,5.204-.515-3.574-.754-5.734,2.069-.465,1.197,11.457-2.557.573-2.446-4.596-.247,5.2-2.557.574-3.812-10.87Z"/><path d="M169.249,240.718c-1.192-3.354.771-5.178,2.749-5.881,2.111-.75,4.638-.566,5.844,2.826,1.186,3.335-.771,5.177-2.75,5.88-2.11.75-4.645.548-5.844-2.825ZM175.788,238.393c-.663-1.865-1.768-2.406-3.2-1.897-1.433.509-1.948,1.626-1.285,3.492.656,1.847,1.768,2.406,3.2,1.897s1.941-1.646,1.285-3.492Z"/><path d="M182.789,238.498l1.951-.972-2.433-4.886-1.951.971-.758-1.521,3.616-1.801.891,1.79c-.097-1.046.147-2.53,1.705-3.306.591-.294,1.199-.418,1.655-.399l.962,1.934c-.509-.037-1.189.123-1.708.381-1.253.624-1.693,1.625-1.828,2.34l1.765,3.544,3.329-1.657.749,1.503-7.195,3.583-.749-1.504Z"/><path d="M192.284,230.478c-1.791-2.724-1.051-4.837.553-5.892,1.169-.77,2.3-.651,2.821-.515l-2.758-4.194,1.788-1.176,7.108,10.811-1.554,1.021-.637-.969c-.044.771-.439,1.916-1.692,2.74-1.637,1.077-3.838.896-5.629-1.827ZM198.712,228.716l-2.263-3.441c-.571-.104-1.331-.059-2.083.436-1.27.835-1.178,2.139-.245,3.56.934,1.42,2.095,2.021,3.365,1.186.752-.494,1.094-1.174,1.226-1.739Z"/><path d="M221.434,189.668l.976-1.654,14.281,8.425-.976,1.654-14.281-8.425Z"/><path d="M238.365,148.045l-.274,3.769-1.875-.136.71-9.772,1.875.137-.274,3.769,9.533.693-.163,2.233-9.533-.692Z"/><path d="M243.948,139.252c-3.555.16-4.725-2.249-4.819-4.346-.101-2.237.813-4.601,4.409-4.763,3.536-.159,4.725,2.249,4.819,4.347.101,2.237-.833,4.601-4.409,4.762ZM243.635,132.321c-1.978.089-2.817.987-2.749,2.506.068,1.518.986,2.337,2.963,2.248,1.958-.089,2.817-.988,2.749-2.506s-1.006-2.336-2.963-2.248Z"/><path d="M238.701,126.704l-.304-1.835,1.145-.189c-.687-.353-1.574-1.179-1.818-2.659-.32-1.933.737-3.871,3.954-4.403,3.216-.533,4.848,1.001,5.162,2.896.229,1.381-.338,2.366-.674,2.787l4.498-.745.35,2.111-12.312,2.038ZM242.036,119.787c-1.677.277-2.677,1.092-2.429,2.591.147.888.61,1.48,1.073,1.829l4.084-.676c.326-.479.573-1.189.426-2.077-.248-1.499-1.458-1.948-3.154-1.667Z"/><path d="M231.761,113.325l-.736-2.515,2.323-.679.736,2.515-2.323.679ZM243.371,112.909l-.865-2.956-5.24,1.533.865,2.956-1.632.478-1.465-5.011,6.872-2.01-.792-2.707,1.612-.472,2.258,7.717-1.613.472Z"/><path d="M237.14,102.118c-3.346,1.434-5.208-.424-6.074-2.447-.779-1.819-.902-4.139,1.609-5.389l.851,1.986c-1.203.646-1.277,1.591-.812,2.676.614,1.435,1.741,1.931,3.561,1.151,1.839-.787,2.238-1.938,1.616-3.39-.457-1.066-1.173-1.674-2.471-1.249l-.851-1.985c2.601-.939,4.236.797,5,2.58.874,2.041.881,4.649-2.429,6.066Z"/><path d="M202.064,66.316l-1.458-1.249,10.79-12.587,1.458,1.25-10.79,12.586Z"/><path d="M162.968,32.534c.723-.167,1.528-.169,2.419.059,3.159.803,4.031,3.294,3.129,6.841-.907,3.565-2.927,5.425-6.085,4.621-3.178-.809-4.021-3.334-3.129-6.841.443-1.744,1.176-3.085,2.169-3.905l-1.86-2.99,2.345.597,1.012,1.619ZM164.081,34.323l1.71,2.767-2.364-.602-.829-1.366c-.536.647-.846,1.621-1.092,2.59-.498,1.958-.744,3.979,1.407,4.526,2.151.547,2.901-1.347,3.398-3.304.488-1.918.744-3.979-1.407-4.525-.31-.079-.572-.104-.824-.086Z"/><path d="M155.819,34.168l-.7,5.415-2.123-.274.646-4.999c.185-1.428-.013-2.24-1.302-2.406-.952-.123-1.536.185-1.967.552l-.828,6.407-2.123-.274,1.133-8.768,1.845.238-.154,1.19c.491-.521,1.41-1.229,2.897-1.037,1.666.215,3.042,1.119,2.675,3.956Z"/><path d="M143.784,33.86c-.057,3.541-2.436,4.623-4.616,4.588-2.261-.036-4.523-1.192-4.467-4.693l.008-.48,6.921.111c-.035-1.541-.78-2.493-2.5-2.521-1.18-.019-2.008.448-2.182,1.306l-2.2-.035c.457-2.273,2.528-2.961,4.449-2.93,2.561.041,4.641,1.335,4.588,4.655ZM136.885,34.81c.158,1.363,1.149,1.959,2.309,1.978s2.17-.545,2.372-1.902l-4.681-.075Z"/><path d="M130.849,32.331l-2.088.226c-.181-.926-1.178-1.22-2.51-1.076-1.212.132-2.147.414-2.06,1.229.095.874,1.442.869,3.246.996,1.742.113,3.446.432,3.646,2.28.196,1.81-1.589,2.787-3.756,3.021-2.167.234-4.079-.142-4.477-2.331l2.088-.227c.242.939,1.278,1.028,2.192.93,1.213-.131,1.863-.443,1.798-1.039-.086-.796-1.155-.82-3.279-.933-1.658-.082-3.426-.434-3.622-2.243-.23-2.128,1.7-3.061,4.166-3.327,2.346-.254,4.361.332,4.655,2.493Z"/><path d="M116.067,35.428l.764,3.293,2.747-.637.384,1.656-2.748.637.926,3.995-2.085.482-.926-3.994-4.229.98-.384-1.656,4.229-.98-.746-3.215c-.375-1.617-.817-2.11-2.259-1.776-.799.186-1.499.532-2.044.926l-.389-1.676c.561-.417,1.325-.841,2.474-1.107,2.221-.515,3.589.071,4.285,3.072Z"/><path d="M104.923,36.177l-2.895,1.051,1.862,5.132,2.895-1.05.58,1.598-4.907,1.78-2.442-6.73-2.65.962-.573-1.579,7.557-2.742.573,1.579ZM106.074,47.737l-2.463.894-.825-2.274,2.463-.894.825,2.274Z"/><path d="M94.561,43.075c1.605,3.178-.113,5.233-1.987,6.18-2,1.011-4.53,1.146-6.153-2.067-1.596-3.16.113-5.233,1.987-6.181,2-1.01,4.539-1.127,6.153,2.068ZM88.366,46.204c.893,1.768,2.057,2.166,3.414,1.48s1.728-1.859.835-3.626c-.884-1.75-2.057-2.166-3.414-1.48s-1.719,1.877-.835,3.626Z"/><path d="M85.255,53.028l-1.548,1.031-.666-.999c-.028.716-.256,1.854-1.504,2.686-1.398.932-3.029,1.153-4.616-1.228l-3.028-4.544,1.781-1.188,2.795,4.195c.799,1.198,1.481,1.682,2.563.96.799-.532,1.038-1.148,1.121-1.708l-3.583-5.377,1.781-1.188,4.903,7.358Z"/><path d="M54.492,89.958l-.965,1.66-14.332-8.336.965-1.66,14.332,8.336Z"/><path d="M37.835,131.688l.251-3.772,1.876.125-.65,9.779-1.876-.125.25-3.771-9.54-.635.149-2.235,9.54.635Z"/><path d="M29.598,141.195l.112,2.177,5.453-.278-.111-2.178,1.698-.087.207,4.035-1.998.102c.998.33,2.262,1.146,2.351,2.884.034.659-.095,1.267-.295,1.678l-2.157.11c.237-.453.362-1.141.333-1.72-.072-1.397-.814-2.201-1.416-2.61l-3.955.202.19,3.715-1.678.086-.411-8.029,1.678-.086Z"/><path d="M31.105,153.529c2.011-.348,2.853,1.354,3.163,3.148.156.907.166,1.9.096,2.44l.71-.123c1.124-.193,1.977-.544,1.698-2.16-.211-1.223-.827-1.848-1.852-1.67l-.344-1.991c2.385-.412,3.531,1.4,3.895,3.51.392,2.267-.312,3.952-2.757,4.374l-3.608.622c-.335.058-.433.197-.372.552.041.236.161.581.261.808l-1.399.241c-.219-.327-.532-.964-.644-1.614-.191-1.104.327-1.519.977-1.63l.158-.027c-.65-.355-1.625-1.182-1.935-2.976-.292-1.695.218-3.205,1.953-3.504ZM31.958,159.533l1.104-.19c.034-.392-.026-1.214-.156-1.963-.201-1.163-.55-1.895-1.378-1.752-.67.116-.881.66-.714,1.626.191,1.104.715,1.906,1.145,2.279Z"/><path d="M39.956,164.95l.534,1.783-1.15.344c.676.236,1.697.787,2.127,2.225.482,1.609.217,3.234-2.524,4.055l-5.232,1.566-.614-2.051,4.83-1.446c1.38-.413,2.042-.924,1.668-2.17-.275-.92-.794-1.328-1.306-1.571l-6.19,1.853-.614-2.051,8.471-2.536Z"/><path d="M37.898,178.373l.84,1.925c-.83.449-.812,1.488-.276,2.716.488,1.118,1.037,1.926,1.788,1.599.807-.353.399-1.636-.02-3.395-.413-1.696-.618-3.417,1.086-4.161,1.667-.728,3.134.684,4.005,2.681.872,1.998,1.083,3.934-.887,4.968l-.839-1.924c.824-.512.599-1.526.231-2.37-.488-1.117-.979-1.645-1.529-1.404-.733.319-.438,1.347.09,3.407.417,1.606.61,3.398-1.058,4.126-1.96.855-3.428-.708-4.419-2.98-.943-2.162-.986-4.26.987-5.187Z"/><path d="M42.51,190.954l1.489,2.535,8.259-4.854-1.489-2.534,1.448-.852,2.574,4.38-9.708,5.704,1.5,2.552-1.448.852-4.073-6.932,1.449-.852Z"/><path d="M49.535,201.19c1.624-1.236,3.156-.115,4.258,1.333.558.732,1.024,1.609,1.211,2.12l.573-.437c.907-.69,1.502-1.395.508-2.699-.751-.987-1.585-1.257-2.413-.627l-1.224-1.607c1.926-1.466,3.778-.388,5.074,1.315,1.393,1.83,1.546,3.649-.427,5.151l-2.913,2.218c-.271.206-.293.374-.075.66.146.191.411.441.604.596l-1.13.86c-.346-.189-.917-.609-1.316-1.135-.679-.892-.411-1.497.114-1.896l.127-.098c-.74-.015-1.986-.298-3.089-1.746-1.042-1.368-1.285-2.942.115-4.009ZM53.063,206.121l.891-.678c-.15-.363-.583-1.064-1.044-1.669-.715-.939-1.362-1.427-2.031-.918-.541.412-.477.992.117,1.771.678.892,1.514,1.361,2.067,1.493Z"/><path d="M60.238,212.04l2.429-2.352-1.962-2.026,1.222-1.184,1.962,2.027,2.947-2.854,1.489,1.538-2.947,2.854,3.02,3.119-1.222,1.183-3.02-3.119-2.372,2.296c-1.193,1.155-1.387,1.789-.357,2.853.57.589,1.229,1.01,1.847,1.274l-1.236,1.197c-.646-.266-1.403-.702-2.225-1.55-1.586-1.639-1.789-3.113.425-5.257Z"/><path d="M67.94,218.796c2.233-2.746,4.771-2.126,6.463-.751,1.753,1.426,2.816,3.733.607,6.449l-.303.372-5.369-4.366c-.925,1.233-.929,2.442.406,3.527.916.744,1.855.89,2.521.323l1.707,1.388c-1.765,1.504-3.817.764-5.307-.448-1.986-1.615-2.821-3.918-.726-6.494ZM73.946,222.315c.719-1.169.309-2.25-.591-2.981-.9-.732-2.042-.913-3.04.028l3.631,2.953Z"/><path d="M115.619,234.14l1.872.425-3.668,16.166-1.872-.425,3.668-16.166Z"/></svg>