<?xml version="1.0" encoding="UTF-8"?><svg id="Layer_1" xmlns="http://www.w3.org/2000/svg" width="11.503in" height="11.503in" viewBox="0 0 828.25 828.25"><defs><style>.cls-1{fill:#ff8c00;opacity:.5;stroke:#231f20;stroke-miterlimit:10;stroke-width:.25px;}</style></defs><path class="cls-1" d="M414.075.125C185.429.125.075,185.479.075,414.125s185.354,414,414,414,414-185.354,414-414S642.721.125,414.075.125ZM414.075,759.125c-190.538,0-345-154.462-345-345S223.537,69.125,414.075,69.125s345,154.462,345,345-154.462,345-345,345Z"/><path d="M458.817,787.833l-3.002.363-.181-1.493,7.783-.942.181,1.493-3.002.363.919,7.593-1.779.216-.919-7.593Z"/><path d="M467.201,796.078c1.519-.226,2.192-.811,2.53-2.025l-4.133-6.485,1.899-.282,1.836,3.107,1.095,2.037.474-2.254.867-3.525,1.804-.268-1.94,7.08c-.716,2.581-1.613,3.62-4.224,4.008l-.207-1.393Z"/><path d="M476.302,785.928l1.466-.257.16.914c.277-.552.931-1.268,2.113-1.475,1.545-.271,3.104.561,3.554,3.13s-.765,3.887-2.278,4.152c-1.103.193-1.896-.253-2.235-.519l.63,3.594-1.687.296-1.724-9.836ZM481.862,788.544c-.235-1.34-.894-2.134-2.092-1.924-.709.124-1.18.499-1.456.872l.572,3.263c.386.257.956.45,1.666.325,1.198-.21,1.547-1.181,1.31-2.536Z"/><path d="M486.262,787.769c-.562-2.776,1.111-4.029,2.821-4.375,1.773-.358,3.739.157,4.294,2.902l.076.377-5.427,1.098c.292,1.198,1.037,1.815,2.386,1.542.925-.187,1.493-.693,1.481-1.394l1.726-.349c.032,1.854-1.469,2.746-2.975,3.051-2.008.406-3.854-.249-4.381-2.853ZM491.49,785.846c-.357-1.038-1.233-1.335-2.143-1.15-.91.184-1.602.798-1.527,1.893l3.67-.742Z"/><path d="M498.975,785.792l-2.682.62-.335-1.451,2.682-.619-.626-2.713,1.606-.371.626,2.713,2.683-.619.335,1.45-2.683.619.63,2.729-1.606.371-.63-2.729Z"/><path d="M506.823,785.263l2.153-.558-1.541-5.947-2.153.558-.377-1.456,6.041-1.565.377,1.456-2.153.558,1.541,5.947,2.153-.558.377,1.456-6.041,1.565-.377-1.456Z"/><path d="M514.3,777.543l1.246-.358.279.969c.107-.497.384-1.326,1.354-1.605.8-.229,1.396.165,1.685.647.092-.376.391-1.244,1.345-1.519,1.062-.306,1.753.478,2.143,1.831l1.35,4.691-1.461.421-1.274-4.43c-.239-.831-.49-1.125-.92-1.001-.416.119-.634.516-.774.839l1.447,5.029-1.461.421-1.274-4.43c-.239-.831-.49-1.125-.921-1.001-.416.119-.65.52-.79.843l1.447,5.03-1.461.42-1.956-6.798Z"/><path d="M525.622,779.679c-.492-1.557.767-2.407,2.155-2.846.702-.222,1.488-.336,1.923-.34l-.174-.549c-.275-.87-.644-1.508-1.896-1.113-.946.3-1.375.854-1.124,1.647l-1.541.487c-.583-1.847.729-2.949,2.362-3.465,1.755-.555,3.166-.179,3.764,1.714l.882,2.792c.082.26.203.322.477.235.183-.058.443-.19.612-.294l.343,1.083c-.236.209-.707.525-1.21.685-.854.271-1.238-.095-1.397-.599l-.039-.122c-.211.554-.761,1.415-2.15,1.854-1.312.414-2.563.172-2.988-1.171ZM530.289,778.356l-.27-.854c-.314.015-.959.151-1.539.335-.9.284-1.442.641-1.24,1.281.164.519.618.627,1.365.391.854-.27,1.435-.771,1.684-1.152Z"/><path d="M536.034,778.724l1.558-.539c.317.771.853,1.145,2.002.746,1.391-.481,1.301-1.279.992-2.172l-.33-.952c-.203.442-.645,1.12-1.673,1.477-1.558.539-3.204-.06-4-2.358-.801-2.313.158-3.848,1.67-4.371,1.089-.377,2.033-.094,2.513.265l-.298-.862,1.406-.486,2.376,6.865c.623,1.8-.086,3.078-2.294,3.842-1.482.513-3.15.633-3.923-1.453ZM539.874,774.703l-1.005-2.903c-.463-.212-1.036-.302-1.671-.082-1.164.403-1.375,1.407-.957,2.617.418,1.21,1.2,1.854,2.365,1.45.635-.22,1.035-.629,1.268-1.082Z"/><path d="M544.103,771.748c-.997-2.649.454-4.152,2.086-4.766,1.691-.637,3.713-.439,4.698,2.18l.135.359-5.179,1.948c.479,1.136,1.312,1.625,2.599,1.141.883-.332,1.362-.922,1.24-1.61l1.646-.62c.328,1.825-1.012,2.943-2.449,3.484-1.916.721-3.842.369-4.777-2.116ZM548.954,769.017c-.518-.967-1.429-1.119-2.297-.793-.868.327-1.454,1.042-1.205,2.111l3.502-1.318Z"/><path d="M633.355,725.737l1.401-1.012c.627.731,1.349.802,2.36.071.921-.665,1.245-1.393.813-1.989-.356-.493-.891-.441-1.603-.224l-2.054.654c-1.124.357-2.264.254-3.032-.81-1.002-1.388-.366-2.993,1.217-4.136,1.479-1.068,3.163-1.278,4.388.363l-1.414,1.021c-.642-.779-1.295-.782-2.125-.183-.921.666-1.064,1.342-.705,1.812.313.405.695.524,1.445.278l2.089-.66c1.097-.339,2.283-.445,3.146.748,1.086,1.504.305,3.154-1.33,4.335-1.673,1.208-3.426,1.35-4.597-.271Z"/><path d="M637.971,714.445l5.078-3.872.912,1.196-3.665,2.795,1.359,1.781,3.143-2.397.913,1.196-3.144,2.397,1.456,1.909,3.665-2.795.913,1.196-5.078,3.872-5.551-7.279Z"/><path d="M645.794,708.417l2.341-1.888c1.718-1.385,3.61-1.74,4.936-.097,1.335,1.656.59,3.408-1.141,4.804l-.959.772,1.948,2.416-1.382,1.114-5.743-7.122ZM650.037,710.852l.971-.783c1.108-.894,1.242-1.721.63-2.48s-1.439-.791-2.547.103l-.971.782,1.917,2.379Z"/><path d="M655.076,700.801l1.439-1.223,8.377,4.892-1.451,1.232-1.817-1.101-2.451,2.082.806,1.961-1.426,1.213-3.476-9.057ZM658.566,705.352l1.805-1.533-.843-.522-2.587-1.686,1.246,2.825.379.916Z"/><path d="M660.921,695.766l2.002-1.794c1.704-1.527,3.495-1.951,4.916-.366.876.978.851,2.269.286,3.269l4.304.87-1.621,1.452-3.769-.92-.822.737,2.136,2.384-1.323,1.186-6.109-6.817ZM665.256,697.942l.68-.609c1.061-.95,1.196-1.781.545-2.509-.651-.727-1.493-.682-2.553.269l-.679.608,2.008,2.241Z"/><path d="M669.811,687.662l1.372-1.296,8.621,4.442-1.384,1.308-1.873-1.004-2.337,2.208.908,1.916-1.36,1.285-3.947-8.859ZM673.535,692.022l1.721-1.626-.869-.477-2.672-1.547,1.393,2.755.427.895Z"/><path d="M678.008,681.835l-2.143,2.135-1.061-1.065,5.555-5.533,1.061,1.065-2.143,2.134,5.397,5.42-1.27,1.265-5.397-5.42Z"/><path d="M687.855,680.631l1.533-1.61-4.447-4.236-1.533,1.61-1.089-1.037,4.303-4.517,1.088,1.037-1.533,1.609,4.447,4.236,1.533-1.609,1.089,1.037-4.303,4.517-1.088-1.037Z"/><path d="M692.06,671.788c-2.185-1.975-2.745-4.098-.997-6.033,1.759-1.947,3.861-1.601,6.01.342,2.161,1.952,2.756,4.086.997,6.032-1.749,1.936-3.837,1.622-6.01-.341ZM695.896,667.469c-1.199-1.083-2.537-2.013-3.728-.694-1.19,1.317-.131,2.556,1.068,3.639,1.175,1.062,2.538,2.013,3.728.694,1.191-1.317.107-2.576-1.068-3.639Z"/><path d="M695.678,660.823l1.467-1.712,7.321,2.86-2.321-1.715-3.45-2.956,1.02-1.19,6.947,5.953-1.467,1.713-7.321-2.861,2.321,1.715,3.45,2.956-1.02,1.19-6.947-5.953Z"/><path d="M750.12,575.829l.659-1.388,11.979,5.692-.659,1.388-11.979-5.692Z"/><path d="M783.001,482.748l-.53,2.977-1.48-.264,1.376-7.717,1.48.265-.531,2.976,7.527,1.343-.314,1.764-7.527-1.343Z"/><path d="M793.342,477.137c.23-1.52-.132-2.335-1.195-3.014l-7.416,2.05.288-1.898,3.511-.845,2.269-.449-2.016-1.115-3.117-1.863.273-1.804,6.203,3.933c2.258,1.443,2.988,2.605,2.593,5.217l-1.392-.211Z"/><path d="M786.303,465.443l.183-1.478.921.114c-.447-.426-.94-1.262-.792-2.452.193-1.557,1.444-2.806,4.033-2.484,2.589.321,3.494,1.868,3.305,3.394-.138,1.111-.796,1.739-1.149,1.986l3.622.449-.21,1.699-9.912-1.229ZM790.432,460.89c-1.35-.167-2.303.231-2.453,1.438-.088.715.133,1.274.409,1.647l3.288.407c.359-.294.71-.783.799-1.498.149-1.207-.677-1.825-2.043-1.995Z"/><path d="M790.981,456.458c-2.82-.275-3.528-2.242-3.358-3.979.176-1.8,1.245-3.529,4.033-3.257l.382.037-.539,5.512c1.231.072,2.039-.46,2.173-1.83.092-.939-.227-1.63-.899-1.824l.171-1.752c1.783.512,2.197,2.208,2.047,3.737-.199,2.039-1.366,3.614-4.011,3.355ZM790.672,450.896c-1.097.038-1.637.789-1.727,1.713-.09.924.294,1.766,1.363,2.015l.364-3.728Z"/><path d="M792.82,443.73l-.194,2.745-1.484-.104.194-2.745-2.777-.197.116-1.644,2.777.196.194-2.745,1.484.105-.194,2.745,2.793.197-.116,1.644-2.793-.197Z"/><path d="M794.615,436.079l.1-2.224-6.141-.275-.1,2.224-1.503-.067.28-6.237,1.503.067-.1,2.223,6.141.275.1-2.223,1.503.067-.28,6.237-1.503-.067Z"/><path d="M789.441,426.653l.024-1.295,1.008.019c-.443-.248-1.153-.758-1.134-1.765.016-.832.568-1.285,1.115-1.419-.332-.198-1.074-.74-1.055-1.731.021-1.104.973-1.533,2.38-1.507l4.877.094-.029,1.519-4.605-.088c-.863-.016-1.218.137-1.227.585-.008.432.305.758.573.986l5.229.101-.029,1.519-4.605-.088c-.863-.017-1.218.137-1.227.585-.008.432.305.773.573,1.002l5.229.101-.029,1.519-7.068-.135Z"/><path d="M794.846,416.443c-1.631.026-2.086-1.422-2.11-2.877-.012-.735.104-1.521.225-1.939l-.576.01c-.912.015-1.628.187-1.607,1.498.016.991.425,1.561,1.257,1.547l.026,1.615c-1.935.031-2.616-1.541-2.644-3.252-.03-1.84.734-3.083,2.717-3.115l2.926-.048c.272-.005.366-.102.361-.39-.003-.192-.056-.479-.106-.67l1.135-.019c.132.285.301.827.31,1.354.015.896-.445,1.159-.973,1.167l-.128.003c.47.359,1.138,1.133,1.162,2.588.022,1.375-.567,2.505-1.974,2.527ZM794.91,411.595l-.896.015c-.075.305-.128.962-.118,1.569.015.943.201,1.564.873,1.554.543-.009.777-.413.764-1.196-.015-.896-.33-1.594-.624-1.941Z"/><path d="M796.974,406.254l-.054-1.647c.83-.075,1.345-.476,1.306-1.691-.047-1.471-.837-1.621-1.78-1.591l-1.007.032c.363.325.879.948.915,2.036.053,1.646-1.006,3.042-3.437,3.121-2.447.079-3.628-1.291-3.68-2.891-.038-1.151.512-1.97.997-2.321l-.912.029-.048-1.487,7.26-.235c1.903-.062,2.914.994,2.989,3.329.051,1.566-.328,3.196-2.549,3.316ZM794.271,401.395l-3.07.1c-.34.379-.595.9-.573,1.571.04,1.231.937,1.73,2.216,1.689,1.279-.042,2.125-.598,2.086-1.829-.022-.671-.294-1.175-.658-1.531Z"/><path d="M792.692,396.469c-2.828.167-3.834-1.665-3.937-3.406-.107-1.806.68-3.68,3.476-3.845l.383-.023.328,5.528c1.227-.121,1.942-.772,1.861-2.146-.056-.942-.478-1.575-1.173-1.662l-.104-1.757c1.841.228,2.514,1.839,2.604,3.372.121,2.045-.786,3.782-3.438,3.939ZM791.52,391.024c-1.078.208-1.494,1.034-1.439,1.961.055.926.565,1.697,1.66,1.777l-.221-3.738Z"/><path d="M769.017,299.159l-2.065-6.128,1.426-.48,1.498,4.444,2.503-.844-1.298-3.853,1.426-.48,1.298,3.853,3.321-1.119.567,1.684-8.675,2.924Z"/><path d="M771.356,288.038l-5.45,2-.611-1.667,5.45-1.999c1.381-.507,1.667-1.123,1.297-2.129-.369-1.006-.984-1.291-2.366-.784l-5.451,2-.611-1.667,5.45-2c2.192-.804,3.652-.215,4.434,1.917.793,2.162.05,3.525-2.143,4.329Z"/><path d="M768.511,278.674l-.638-1.605c.862-.429,1.107-1.111.646-2.271-.419-1.055-1.045-1.547-1.729-1.274-.564.224-.646.756-.609,1.498l.132,2.15c.072,1.176-.308,2.256-1.527,2.74-1.59.632-2.989-.378-3.71-2.191-.673-1.694-.464-3.377,1.426-4.163l.644,1.62c-.913.432-1.075,1.063-.697,2.015.419,1.056,1.04,1.359,1.583,1.126.47-.203.678-.545.624-1.332l-.128-2.186c-.06-1.146.127-2.322,1.494-2.865,1.724-.686,3.132.477,3.876,2.349.762,1.918.47,3.651-1.388,4.39Z"/><path d="M765.732,268.446l-.876-2.045-5.648,2.42.876,2.045-1.383.593-2.458-5.737,1.383-.592.876,2.044,5.648-2.42-.876-2.044,1.382-.593,2.458,5.736-1.383.593Z"/><path d="M759.254,261.088c-2.676,1.229-4.85.907-5.939-1.463-1.096-2.385.052-4.181,2.684-5.39,2.646-1.217,4.843-.923,5.938,1.462,1.089,2.37-.022,4.167-2.683,5.391ZM756.798,255.859c-1.469.675-2.851,1.539-2.108,3.153.742,1.613,2.297,1.128,3.766.453,1.439-.662,2.85-1.539,2.108-3.153s-2.327-1.115-3.766-.453Z"/><path d="M750.589,253.45l-.999-2.024,5.516-5.611-2.493,1.462-4.078,2.011-.694-1.407,8.213-4.05.998,2.024-5.515,5.611,2.493-1.461,4.078-2.011.694,1.406-8.213,4.05Z"/><path d="M693.838,170.012l-1.017-1.151,9.942-8.778,1.017,1.151-9.942,8.778Z"/><path d="M621.28,103.027l2.523,1.666-.829,1.256-6.542-4.322.829-1.255,2.523,1.667,4.216-6.382,1.495.987-4.216,6.383Z"/><path d="M620.208,91.293c-1.304-.813-2.196-.804-3.24-.097l-1.056,7.621-1.629-1.016.615-3.559.486-2.262-1.822,1.41-2.946,2.123-1.548-.965,6.069-4.138c2.219-1.502,3.576-1.712,5.817-.314l-.745,1.195Z"/><path d="M606.706,93.131l-1.283-.754.47-.8c-.569.241-1.531.363-2.565-.245-1.352-.794-2.001-2.437-.68-4.685,1.32-2.249,3.099-2.466,4.423-1.688.965.566,1.281,1.42,1.367,1.842l1.847-3.146,1.476.867-5.056,8.607ZM604.165,87.539c-.688,1.173-.701,2.204.347,2.82.621.364,1.222.384,1.674.278l1.677-2.855c-.128-.446-.437-.962-1.058-1.326-1.048-.616-1.943-.104-2.64,1.083Z"/><path d="M600.299,85.272c-1.369,2.479-3.456,2.351-4.982,1.508-1.583-.874-2.746-2.541-1.393-4.992l.186-.336,4.847,2.677c.554-1.102.385-2.055-.819-2.72-.827-.456-1.586-.438-2.031.104l-1.541-.852c1.176-1.435,2.897-1.142,4.242-.399,1.793.99,2.776,2.686,1.492,5.011ZM595.07,83.353c-.4,1.022.076,1.815.888,2.264.812.449,1.737.43,2.39-.453l-3.278-1.811Z"/><path d="M589.353,78.547l2.443,1.268-.685,1.32-2.443-1.268-1.283,2.473-1.463-.76,1.282-2.472-2.443-1.268.685-1.321,2.444,1.268,1.29-2.486,1.463.76-1.29,2.486Z"/><path d="M583.037,73.87l-2-.972-2.684,5.525,2,.972-.657,1.353-5.612-2.726.657-1.353,2,.971,2.684-5.525-2-.971.657-1.353,5.612,2.726-.657,1.353Z"/><path d="M572.327,74.893l-1.18-.535.416-.918c-.403.309-1.152.76-2.07.344-.758-.344-.956-1.031-.862-1.586-.313.227-1.105.693-2.009.284-1.005-.456-1.023-1.501-.442-2.783l2.015-4.444,1.384.628-1.903,4.196c-.357.787-.356,1.174.052,1.358.393.179.817.02,1.133-.136l2.16-4.765,1.385.627-1.903,4.197c-.357.787-.356,1.174.051,1.358.394.179.832.025,1.148-.13l2.161-4.765,1.384.628-2.92,6.44Z"/><path d="M565.068,65.921c-.634,1.504-2.143,1.337-3.484.771-.678-.286-1.351-.708-1.684-.987l-.224.53c-.354.841-.486,1.566.723,2.075.914.385,1.6.24,1.923-.526l1.488.627c-.751,1.784-2.465,1.773-4.042,1.108-1.695-.714-2.525-1.914-1.755-3.742l1.136-2.697c.105-.251.055-.376-.211-.488-.177-.074-.46-.142-.656-.172l.441-1.047c.315-.006.878.058,1.365.263.826.348.881.875.676,1.361l-.05.117c.519-.284,1.496-.584,2.837-.02,1.268.534,2.063,1.529,1.517,2.826ZM560.658,63.908l-.348.825c.249.191.829.505,1.389.741.87.366,1.513.446,1.774-.173.211-.501-.064-.877-.787-1.182-.826-.348-1.592-.341-2.028-.212Z"/><path d="M556.545,59.913l-1.536-.599c.257-.793.092-1.425-1.042-1.866-1.372-.535-1.82.132-2.163,1.011l-.367.939c.441-.206,1.218-.436,2.231-.04,1.536.599,2.401,2.122,1.518,4.388-.89,2.281-2.614,2.828-4.105,2.246-1.073-.418-1.609-1.246-1.742-1.83l-.332.85-1.387-.54,2.64-6.769c.692-1.774,2.06-2.288,4.237-1.439,1.461.57,2.81,1.56,2.046,3.649ZM551.014,60.487l-1.116,2.862c.215.461.593.9,1.22,1.145,1.147.448,1.959-.18,2.424-1.373.465-1.192.287-2.189-.861-2.637-.626-.244-1.196-.191-1.667.003Z"/><path d="M545.871,59.995c-.959,2.666-3.04,2.87-4.681,2.28-1.702-.612-3.115-2.073-2.167-4.709l.13-.361,5.211,1.874c.372-1.176.054-2.09-1.241-2.556-.889-.319-1.636-.18-1.989.425l-1.657-.597c.934-1.603,2.68-1.587,4.126-1.067,1.928.693,3.167,2.211,2.269,4.711ZM540.404,58.93c-.233,1.072.363,1.78,1.236,2.095.874.313,1.784.147,2.288-.827l-3.524-1.268Z"/><path d="M447.09,43.543l-6.442-.512.119-1.499,4.672.371.209-2.631-4.05-.321.119-1.499,4.05.321.277-3.491,1.77.141-.724,9.12Z"/><path d="M437.257,42.815l-2.684-.141c-2.285-.12-3.852-1.083-3.74-3.208.069-1.311.997-2.207,2.103-2.517l-2.436-3.652,2.173.113,2.021,3.311,1.102.058.168-3.194,1.773.093-.48,9.138ZM435.721,38.217l-.911-.048c-1.422-.075-2.105.418-2.156,1.393-.051.975.576,1.536,1.998,1.61l.91.048.158-3.003Z"/><path d="M425.224,42.281l-1.887-.051-2.97-9.232,1.903.051.618,2.033,3.214.086.709-1.998,1.871.05-3.458,9.062ZM425.665,36.564l-2.366-.063.278.951.801,2.982.958-2.936.329-.935Z"/><path d="M418.228,37.605c-.047,2.878-1.276,4.714-3.883,4.672-2.191-.036-3.357-1.11-3.418-3.239l1.791.029c.094,1.073.549,1.673,1.652,1.69,1.791.029,1.994-1.631,2.019-3.183.03-1.839-.22-3.202-1.995-3.231-.768-.013-1.317.314-1.642.613l-.026,1.615,1.919.031-.022,1.375-3.662-.06.081-5.005,1.503.024-.016.976c.359-.458,1.106-1.118,2.417-1.097,2.511.041,3.323,2.213,3.282,4.788Z"/><path d="M408.144,42.147l-2.207.055-.929-2.633-.626-2.001-.494,2.028-.797,2.676-2.143.054-.227-9.147,1.583-.039.116,4.67-.122,2.818,1.459-5.044,1.247-.031,1.708,4.966-.262-2.81-.116-4.669,1.583-.04.227,9.147Z"/><path d="M397.802,42.454l-6.375.323-.076-1.502,4.601-.233-.113-2.236-3.946.2-.076-1.502,3.946-.2-.121-2.396-4.601.233-.076-1.502,6.375-.322.462,9.138Z"/><path d="M387.953,43.003l-2.248.174-3.157-7.198.43,2.854.351,4.528-1.562.121-.707-9.121,2.248-.174,3.157,7.198-.43-2.854-.351-4.528,1.562-.121.707,9.121Z"/><path d="M375.778,42.547l3.008-.312.155,1.496-7.798.808-.155-1.496,3.008-.312-.788-7.607,1.782-.185.788,7.607Z"/><path d="M366.169,45.165l-1.872.245-4.377-8.66,1.889-.247.928,1.912,3.189-.417.39-2.084,1.856-.243-2.003,9.494ZM365.712,39.447l-2.349.308.424.896,1.257,2.822.489-3.051.179-.976Z"/><path d="M356.112,45.069l2.988-.47.234,1.485-7.746,1.219-.234-1.485,2.988-.471-1.189-7.556,1.771-.279,1.189,7.557Z"/><path d="M347.421,40.271l-2.187.404,1.119,6.041,2.187-.404.274,1.479-6.135,1.137-.274-1.479,2.187-.405-1.119-6.041-2.187.405-.274-1.479,6.135-1.137.274,1.479Z"/><path d="M338.823,44.968c.612,2.881-.18,4.931-2.731,5.473-2.567.546-4.067-.968-4.669-3.802-.605-2.85.164-4.927,2.731-5.473,2.552-.542,4.061.938,4.669,3.802ZM333.181,46.216c.336,1.581.875,3.119,2.613,2.75s1.605-1.993,1.269-3.575c-.329-1.55-.875-3.119-2.613-2.75-1.737.37-1.599,2.025-1.269,3.575Z"/><path d="M329.478,51.733l-2.195.527-4.256-6.616.875,2.753,1.062,4.42-1.525.366-2.138-8.902,2.194-.527,4.256,6.616-.875-2.753-1.062-4.42,1.525-.366,2.139,8.902Z"/><path d="M235.627,88.801l-1.346.739-6.388-11.624,1.346-.74,6.388,11.625Z"/><path d="M154.47,145.034l2.177-2.099,1.044,1.082-5.645,5.443-1.044-1.083,2.177-2.1-5.31-5.506,1.29-1.244,5.31,5.506Z"/><path d="M142.794,143.517c-1.077,1.096-1.261,1.969-.798,3.142l7.208,2.687-1.346,1.37-3.339-1.374-2.102-.966.98,2.084,1.432,3.337-1.278,1.302-2.719-6.822c-.984-2.492-.894-3.862.957-5.745l1.004.986Z"/><path d="M141.639,157.105l-1.015,1.089-.679-.633c.112.607.021,1.572-.797,2.45-1.069,1.147-2.814,1.424-4.722-.354s-1.732-3.562-.685-4.686c.764-.819,1.665-.941,2.096-.934l-2.668-2.488,1.167-1.252,7.303,6.808ZM135.627,158.369c.995.928,2,1.164,2.829.274.491-.526.64-1.109.635-1.573l-2.423-2.258c-.463.027-1.034.217-1.524.744-.829.89-.523,1.875.483,2.812Z"/><path d="M132.565,161.649c2.12,1.877,1.54,3.884.384,5.189-1.199,1.354-3.078,2.125-5.174.27l-.288-.255,3.669-4.145c-.955-.78-1.92-.823-2.833.207-.625.706-.773,1.452-.343,2.004l-1.167,1.317c-1.143-1.461-.481-3.076.537-4.226,1.357-1.533,3.226-2.123,5.214-.362ZM129.552,166.331c.91.613,1.788.321,2.402-.373.615-.695.798-1.602.079-2.431l-2.481,2.804Z"/><path d="M123.622,170.854l1.769-2.107,1.139.956-1.769,2.108,2.132,1.789-1.06,1.262-2.132-1.789-1.769,2.107-1.139-.956,1.769-2.108-2.144-1.799,1.059-1.263,2.145,1.8Z"/><path d="M117.667,176.01l-1.385,1.741,4.811,3.826,1.385-1.741,1.178.937-3.886,4.886-1.177-.937,1.385-1.741-4.811-3.826-1.385,1.741-1.178-.937,3.886-4.886,1.178.937Z"/><path d="M116.345,186.655l-.78,1.035-.805-.606c.213.461.49,1.29-.117,2.095-.5.664-1.214.707-1.735.494.153.355.435,1.229-.162,2.021-.665.882-1.688.671-2.812-.177l-3.896-2.937.915-1.213,3.678,2.772c.689.521,1.067.604,1.336.247.26-.345.197-.793.115-1.136l-4.176-3.148.915-1.213,3.678,2.772c.69.521,1.067.604,1.336.247.26-.345.207-.806.125-1.148l-4.176-3.148.915-1.213,5.645,4.255Z"/><path d="M105.998,191.783c1.33.948.835,2.385-.01,3.57-.427.6-.987,1.164-1.333,1.429l.469.334c.743.53,1.422.817,2.184-.251.576-.808.585-1.509-.092-1.992l.938-1.316c1.577,1.124,1.191,2.796.197,4.189-1.069,1.499-2.423,2.047-4.039.895l-2.385-1.7c-.222-.158-.355-.136-.523.099-.111.156-.24.419-.312.604l-.925-.66c.063-.309.249-.845.556-1.274.52-.73,1.047-.669,1.477-.362l.104.074c-.164-.569-.243-1.589.603-2.774.799-1.121,1.945-1.68,3.091-.862ZM103.066,195.648l.729.521c.242-.201.675-.698,1.028-1.193.548-.77.767-1.38.22-1.77-.443-.316-.871-.13-1.326.509-.521.729-.682,1.479-.651,1.934Z"/><path d="M98.261,198.788l-.921,1.365c-.716-.425-1.369-.402-2.048.605-.823,1.221-.271,1.805.511,2.332l.835.563c-.104-.476-.157-1.283.451-2.185.921-1.366,2.596-1.876,4.611-.517,2.029,1.368,2.184,3.17,1.29,4.495-.644.955-1.568,1.296-2.167,1.298l.755.509-.832,1.233-6.02-4.06c-1.578-1.063-1.778-2.511-.473-4.447.876-1.299,2.138-2.396,4.007-1.193ZM97.606,204.306l2.546,1.717c.497-.108,1.009-.381,1.384-.938.688-1.021.254-1.95-.807-2.666-1.061-.715-2.072-.76-2.76.261-.375.557-.45,1.124-.363,1.626Z"/><path d="M96.003,209.217c2.391,1.521,2.133,3.595,1.196,5.067-.971,1.525-2.706,2.584-5.069,1.081l-.324-.207,2.973-4.672c-1.065-.621-2.027-.512-2.766.649-.507.797-.535,1.557-.023,2.034l-.945,1.485c-1.359-1.263-.96-2.963-.136-4.26,1.1-1.729,2.852-2.604,5.094-1.179ZM93.763,214.318c.996.463,1.817.037,2.315-.747.498-.783.536-1.707-.305-2.413l-2.01,3.16Z"/><path d="M50.919,299.701l-.657,2.125,5.871,1.816.657-2.125,1.438.445-1.845,5.962-1.437-.444.658-2.125-5.871-1.816-.658,2.125-1.437-.444,1.845-5.963,1.437.444Z"/><path d="M55.358,311.394l-.609,2.173-7.85.493,2.83.577,4.377,1.227-.423,1.51-8.815-2.47.609-2.173,7.851-.493-2.83-.577-4.377-1.227.423-1.51,8.815,2.47Z"/><path d="M53.003,319.847l-.488,1.939-4.852.33-2.682.101,2.299,1.354,4.137,2.576-.469,1.861-8.072-5.431.445-1.77,9.681-.962Z"/><path d="M50.365,330.49l-1.395,6.229-1.467-.329,1.006-4.495-2.185-.489-.863,3.855-1.467-.328.863-3.855-2.341-.524-1.006,4.495-1.467-.328,1.394-6.229,8.929,1.999Z"/><path d="M48.258,340.124l-.518,2.638c-.441,2.245-1.616,3.661-3.704,3.251-1.288-.252-2.044-1.298-2.196-2.437l-3.96,1.897.419-2.136,3.562-1.534.212-1.084-3.14-.616.342-1.743,8.981,1.764ZM43.488,340.998l-.175.896c-.274,1.397.117,2.143,1.075,2.331.958.188,1.602-.354,1.876-1.752l.176-.895-2.952-.58Z"/><path d="M40.176,348.257l-.289,1.704c-.96-.081-1.524.375-1.732,1.605-.189,1.12.09,1.865.816,1.988.6.102.945-.311,1.299-.965l1.004-1.907c.55-1.043,1.436-1.77,2.729-1.551,1.688.286,2.36,1.877,2.034,3.802-.304,1.798-1.357,3.129-3.382,2.819l.291-1.72c1.005.104,1.472-.352,1.643-1.361.189-1.12-.183-1.703-.769-1.786-.507-.069-.863.114-1.225.815l-1.026,1.937c-.544,1.012-1.315,1.92-2.766,1.674-1.831-.31-2.431-2.034-2.095-4.022.345-2.035,1.495-3.366,3.467-3.032Z"/><path d="M37.238,358.461l-.312,2.201,6.082.861.312-2.201,1.489.211-.875,6.177-1.489-.211.312-2.201-6.082-.861-.312,2.201-1.489-.211.875-6.177,1.489.211Z"/><path d="M38.957,368.109c2.925.337,4.617,1.74,4.318,4.332-.3,2.607-2.213,3.547-5.091,3.216-2.894-.333-4.619-1.725-4.318-4.332.298-2.592,2.181-3.551,5.091-3.216ZM38.344,373.854c1.606.186,3.235.164,3.438-1.602.204-1.765-1.378-2.156-2.984-2.341-1.574-.182-3.235-.163-3.439,1.602-.203,1.765,1.411,2.16,2.985,2.341Z"/><path d="M42.396,379.127l-.198,2.248-7.626,1.932,2.889.046,4.528.398-.138,1.562-9.121-.803.198-2.248,7.626-1.932-2.888-.046-4.529-.398.138-1.562,9.121.803Z"/><path d="M47.404,479.956l.267,1.513-13.067,2.302-.267-1.513,13.067-2.302Z"/><path d="M74.571,574.844l-1.292-2.733,1.36-.643,3.35,7.088-1.36.643-1.292-2.734-6.915,3.268-.766-1.62,6.915-3.268Z"/><path d="M69.402,585.422c.693,1.371,1.46,1.825,2.72,1.763l4.855-5.968.866,1.714-2.372,2.723-1.589,1.682,2.289-.261,3.62-.287.823,1.628-7.334.39c-2.676.133-3.945-.392-5.136-2.748l1.257-.635Z"/><path d="M81.905,590.847l.707,1.31-.817.441c.611.088,1.498.482,2.067,1.539.745,1.38.448,3.122-1.848,4.361-2.296,1.238-3.93.501-4.659-.851-.532-.986-.359-1.879-.214-2.284l-3.211,1.732-.813-1.508,8.788-4.741ZM81.179,596.949c1.197-.646,1.743-1.522,1.165-2.593-.342-.634-.846-.961-1.287-1.105l-2.916,1.573c-.122.448-.125,1.05.217,1.683.577,1.071,1.609,1.096,2.82.442Z"/><path d="M83.31,600.895c2.455-1.41,4.171-.22,5.04,1.292.9,1.567,1.032,3.595-1.396,4.989l-.333.19-2.756-4.799c-1.044.655-1.394,1.557-.708,2.749.47.818,1.129,1.196,1.79.965l.876,1.525c-1.749.617-3.068-.525-3.833-1.856-1.02-1.775-.982-3.733,1.32-5.056ZM86.785,605.244c.872-.666.875-1.591.414-2.396s-1.263-1.267-2.277-.85l1.864,3.245Z"/><path d="M142.371,682.259c1.153-1.155,2.489-.432,3.519.598.521.52.985,1.164,1.189,1.549l.407-.407c.645-.646,1.04-1.269.112-2.195-.702-.701-1.393-.825-1.98-.236l-1.144-1.142c1.368-1.37,2.953-.715,4.164.494,1.302,1.301,1.62,2.727.218,4.13l-2.069,2.072c-.192.192-.192.328.012.531.136.136.374.306.543.407l-.803.804c-.294-.112-.792-.384-1.166-.757-.634-.634-.487-1.143-.114-1.517l.09-.09c-.588.068-1.606-.021-2.637-1.051-.974-.973-1.337-2.194-.342-3.19ZM145.7,685.787l.633-.634c-.159-.271-.578-.78-1.008-1.21-.668-.667-1.234-.983-1.708-.508-.385.385-.271.838.284,1.392.634.633,1.347.915,1.799.96Z"/><path d="M149.814,689.123l1.219,1.157c-.471.59-.134,1.351.644,2.089.708.672,1.365,1.097,1.816.62.485-.511-.216-1.33-1.073-2.496-.833-1.122-1.521-2.326-.497-3.406,1.002-1.057,2.524-.475,3.79.727s2.026,2.562.896,3.939l-1.219-1.157c.448-.634-.035-1.312-.569-1.819-.708-.672-1.235-.907-1.565-.559-.441.465.098,1.13,1.129,2.483.809,1.055,1.51,2.315.508,3.372-1.179,1.243-2.749.548-4.188-.818-1.37-1.3-2.056-2.833-.89-4.132Z"/><path d="M230.779,749.733l1.958,1.057,2.918-5.408-1.958-1.057.714-1.323,5.493,2.963-.714,1.324-1.958-1.057-2.918,5.408,1.958,1.057-.714,1.324-5.493-2.964.714-1.324Z"/><path d="M241.511,749.158l1.157.585-.455.899c.416-.291,1.184-.71,2.083-.256.743.376.912,1.07.794,1.621.323-.213,1.134-.646,2.019-.199.986.498.96,1.543.325,2.8l-2.201,4.356-1.357-.686,2.079-4.113c.39-.771.406-1.158.006-1.36-.386-.194-.816-.054-1.139.089l-2.36,4.67-1.357-.686,2.079-4.113c.39-.771.406-1.158.006-1.36-.386-.194-.83-.061-1.152.081l-2.36,4.671-1.357-.686,3.19-6.313Z"/><path d="M248.369,758.427c.697-1.476,2.198-1.244,3.515-.622.666.314,1.319.765,1.641,1.059l.246-.521c.39-.825.552-1.544-.634-2.104-.897-.424-1.588-.309-1.944.443l-1.461-.69c.827-1.75,2.54-1.666,4.087-.935,1.663.786,2.442,2.021,1.595,3.814l-1.251,2.647c-.116.246-.071.374.189.497.174.082.455.161.649.2l-.485,1.026c-.315-.007-.875-.095-1.353-.32-.81-.383-.843-.911-.618-1.389l.055-.116c-.531.263-1.52.521-2.836-.102-1.244-.588-1.997-1.616-1.396-2.889ZM252.691,760.628l.383-.81c-.241-.203-.807-.541-1.356-.801-.854-.403-1.493-.511-1.78.097-.232.492.027.88.735,1.215.81.383,1.577.409,2.018.299Z"/><path d="M256.644,764.805l1.509.665c-.292.781-.153,1.419.96,1.91,1.348.594,1.825-.054,2.206-.918l.407-.923c-.45.188-1.235.383-2.231-.056-1.509-.665-2.309-2.225-1.328-4.451.987-2.241,2.735-2.713,4.2-2.067,1.055.465,1.555,1.314,1.662,1.904l.368-.835,1.362.601-2.931,6.65c-.768,1.743-2.158,2.197-4.296,1.255-1.436-.632-2.741-1.68-1.888-3.735ZM262.197,764.47l1.239-2.812c-.195-.471-.554-.926-1.169-1.197-1.128-.497-1.966.096-2.483,1.268-.516,1.172-.381,2.176.747,2.673.615.271,1.187.243,1.666.069Z"/><path d="M267.294,765.168c1.072-2.622,3.16-2.737,4.775-2.077,1.674.685,3.024,2.205,1.964,4.798l-.146.355-5.126-2.096c-.422,1.159-.144,2.086,1.131,2.606.874.357,1.627.25,2.006-.339l1.63.667c-1.002,1.562-2.746,1.471-4.168.89-1.896-.775-3.07-2.345-2.065-4.805ZM272.712,766.467c.278-1.062-.287-1.795-1.146-2.146-.859-.352-1.776-.225-2.321.728l3.467,1.418Z"/><path d="M367.756,784.915l1.525.187-1.606,13.168-1.525-.187,1.606-13.168Z"/><path class="cls-1" d="M414.075,69.608c-190.538,0-345,154.462-345,345s154.462,345,345,345,345-154.462,345-345S604.614,69.608,414.075,69.608ZM414.075,690.608c-152.431,0-276-123.569-276-276s123.569-276,276-276,276,123.569,276,276-123.569,276-276,276Z"/><path d="M432.66,725.412c-.28-3.81,1.223-6.005,4.254-6.228,1.935-.143,4.131.559,4.452,3.562l-1.595.117c-.281-1.644-1.295-2.351-2.792-2.241-2.533.187-2.766,2.469-2.605,4.663.152,2.074.718,4.318,3.251,4.132,1.695-.124,2.417-.939,2.416-2.604l1.615-.118c.113,2.898-1.871,4.007-3.945,4.159-3.131.23-4.784-1.794-5.052-5.443Z"/><path d="M445.1,724.448c-.413-3.636.762-6.044,3.782-6.387,3-.341,4.619,1.688,5.026,5.265.413,3.636-.764,6.023-3.784,6.366-3,.342-4.619-1.688-5.023-5.244ZM452.206,723.58c-.215-1.888-.738-4.363-3.201-4.084-2.463.28-2.417,2.811-2.203,4.698.212,1.867.735,4.344,3.199,4.063,2.463-.28,2.417-2.811,2.205-4.678Z"/><path d="M457.53,717.191l2.193-.341,4.979,9.001-.675-3.173-.984-6.344,1.482-.229,1.73,11.145-2.193.341-4.979-9.002.675,3.174.984,6.343-1.482.23-1.73-11.145Z"/><path d="M472.546,716.083l-3.729.733-.274-1.394,9.125-1.795.274,1.394-3.768.741,1.903,9.674-1.629.32-1.903-9.674Z"/><path d="M481.587,712.751l2.84-.68c2.821-.675,4.832.078,5.353,2.257.424,1.771-.435,3.169-1.864,3.901l4.447,3.544-2.023.483-4.032-3.354-1.459.349.978,4.086-1.615.387-2.625-10.973ZM484.529,717.909l1.245-.298c2.062-.493,2.66-1.521,2.362-2.766-.293-1.226-1.296-1.892-3.358-1.397l-1.245.298.996,4.163Z"/><path d="M496.045,709.083l1.732-.489,6.893,9.771-1.732.489-1.594-2.334-4.233,1.194-.138,2.823-1.693.479.765-11.934ZM497.127,716.298l3.425-.967-1.02-1.478-2.192-3.35-.117,4.001-.096,1.793Z"/><path d="M507.138,714.215l1.54-.503c.479,1.211,1.521,1.628,3.099,1.112,1.445-.472,2.209-1.353,1.855-2.437-.273-.836-.949-1.036-2.03-1.062l-2.567-.065c-1.442-.034-2.793-.498-3.302-2.057-.621-1.901.704-3.449,2.814-4.139,2.167-.708,4.011-.153,4.75,2.046l-1.521.497c-.573-1.496-1.756-1.51-2.82-1.162-1.388.454-1.924,1.323-1.639,2.198.236.723.879,1.017,1.853,1.035l2.568.066c1.929.043,2.969.524,3.448,1.988.714,2.187-.744,3.714-2.968,4.441-2.434.795-4.378.188-5.08-1.96Z"/><path d="M519.912,702.852l-3.56,1.325-.495-1.33,8.713-3.243.495,1.331-3.598,1.339,3.438,9.237-1.555.579-3.438-9.238Z"/><path d="M554.542,692.398c-1.709-3.236-1.491-5.907,1.197-7.327,2.67-1.41,4.918-.108,6.599,3.074,1.708,3.236,1.481,5.89-1.207,7.309-2.67,1.41-4.917.109-6.589-3.056ZM560.845,689.002c-.887-1.68-2.276-3.797-4.469-2.639s-1.229,3.499-.341,5.179c.877,1.662,2.267,3.778,4.459,2.62,2.193-1.157,1.229-3.498.351-5.16Z"/><path d="M563.464,681.126l6.437-3.734.713,1.229-5.001,2.901,1.888,3.253,4.378-2.54.713,1.229-4.378,2.54,2.35,4.049-1.437.834-5.663-9.76Z"/><path d="M600.519,666.578l1.286-.985c.854.982,1.974,1.031,3.291.021,1.206-.924,1.635-2.008.941-2.912-.535-.698-1.238-.663-2.267-.329l-2.443.789c-1.371.446-2.799.457-3.796-.844-1.216-1.587-.48-3.486,1.281-4.836,1.809-1.387,3.732-1.475,5.158.354l-1.27.973c-1.036-1.221-2.156-.842-3.044-.16-1.159.888-1.376,1.886-.817,2.615.462.604,1.167.668,2.091.362l2.443-.789c1.833-.599,2.974-.491,3.911.731,1.398,1.824.531,3.749-1.326,5.172-2.031,1.557-4.066,1.63-5.44-.163Z"/><path d="M608.753,657.202c-2.442-2.938-2.496-5.599-.158-7.543,1.492-1.24,3.688-1.946,5.695.312l-1.23,1.023c-1.185-1.175-2.421-1.16-3.575-.201-1.953,1.624-.816,3.617.59,5.31,1.33,1.6,3.095,3.097,5.049,1.473,1.307-1.087,1.421-2.17.452-3.523l1.246-1.035c1.777,2.294.807,4.35-.793,5.679-2.415,2.008-4.937,1.321-7.276-1.493Z"/><path d="M617.133,642.569l1.336-1.206,10.511,5.708-1.336,1.206-2.463-1.387-3.267,2.947,1.127,2.593-1.306,1.179-4.602-11.04ZM621.3,648.56l2.643-2.385-1.569-.874-3.45-2.031,1.668,3.64.708,1.65Z"/><path d="M624.196,636.061l1.187-1.16,6.891,7.048,4.132-4.039.992,1.016-5.319,5.199-7.883-8.063Z"/><path d="M632.869,627.431l5.04-5.337,1.032.976-3.9,4.13,2.472,2.334,3.392-3.592,1.033.976-3.392,3.592,2.632,2.485,3.9-4.13,1.032.975-5.04,5.337-8.201-7.745Z"/><path d="M658.632,594.514l.847-1.165,13.23,9.623-.847,1.165-13.23-9.623Z"/><path d="M683.992,568.463c-3.352-1.834-4.38-4.288-2.921-6.955.931-1.702,2.713-3.167,5.41-1.806l-.768,1.403c-1.533-.656-2.678-.188-3.398,1.128-1.219,2.229.572,3.664,2.502,4.72,1.825.998,4.018,1.741,5.236-.487.816-1.491.523-2.54-.875-3.442l.777-1.421c2.497,1.479,2.35,3.747,1.352,5.572-1.507,2.755-4.104,3.044-7.315,1.288Z"/><path d="M689.943,557.482c-3.278-1.625-4.663-3.918-3.313-6.642,1.341-2.705,3.924-2.964,7.149-1.365,3.278,1.625,4.645,3.909,3.295,6.633-1.341,2.704-3.924,2.964-7.131,1.374ZM693.068,551.043c-1.702-.844-4.065-1.748-5.167.474-1.101,2.221,1.05,3.555,2.751,4.398,1.684.835,4.047,1.739,5.149-.482,1.101-2.222-1.05-3.555-2.733-4.39Z"/><path d="M690.585,543.113l.905-2.027,10.264.702-3.032-1.155-5.863-2.616.611-1.369,10.301,4.596-.904,2.027-10.264-.703,3.032,1.155,5.863,2.616-.611,1.37-10.302-4.596Z"/><path d="M697.795,529.906l-1.406,3.531-1.32-.525,3.441-8.643,1.319.525-1.421,3.568,9.163,3.648-.614,1.543-9.163-3.648Z"/><path d="M699.915,520.486l.969-2.753c.962-2.734,2.685-4.016,4.797-3.271,1.716.604,2.425,2.083,2.266,3.68l5.386-1.813-.69,1.961-5.002,1.567-.498,1.415,3.961,1.394-.551,1.565-10.637-3.744ZM705.841,520.813l.425-1.207c.704-2,.165-3.059-1.042-3.483-1.188-.418-2.29.063-2.994,2.062l-.425,1.207,4.036,1.421Z"/><path d="M704.666,506.349l.529-1.721,11.952-.491-.529,1.721-2.826.072-1.292,4.207,2.298,1.647-.517,1.683-9.614-7.118ZM711.317,509.355l1.046-3.403-1.796.056-4.004.024,3.299,2.27,1.455,1.054Z"/><path d="M714.994,499.817l.413-1.566c1.278.254,2.193-.395,2.617-2.001.387-1.471.062-2.591-1.042-2.881-.851-.225-1.386.234-1.994,1.13l-1.449,2.122c-.811,1.193-1.933,2.077-3.52,1.659-1.935-.51-2.517-2.464-1.951-4.611.581-2.205,2.048-3.453,4.297-2.882l-.408,1.548c-1.568-.33-2.221.656-2.506,1.74-.372,1.412.067,2.335.958,2.569.735.193,1.332-.188,1.876-.995l1.449-2.122c1.083-1.598,2.052-2.212,3.542-1.819,2.225.586,2.718,2.641,2.122,4.904-.652,2.477-2.217,3.781-4.403,3.205Z"/><path d="M712.375,482.927l-.818,3.711-1.387-.306,2.001-9.082,1.387.306-.826,3.75,9.629,2.121-.357,1.621-9.629-2.121Z"/><path d="M722.381,448.161c-3.647-.324-5.771-1.959-5.502-4.988.267-3.009,2.581-4.189,6.168-3.871,3.646.324,5.751,1.957,5.482,4.986-.267,3.009-2.582,4.189-6.148,3.873ZM722.955,441.021c-1.893-.168-4.425-.152-4.645,2.318-.22,2.472,2.27,2.934,4.163,3.102,1.874.167,4.406.15,4.625-2.32.22-2.472-2.27-2.934-4.144-3.1Z"/><path d="M717.764,434.571l.363-7.431,1.418.069-.282,5.772,3.755.184.247-5.054,1.418.069-.247,5.054,4.674.229-.081,1.658-11.265-.551Z"/><path d="M717.756,397.063l-.126-1.615,6.089-1.158,3.583-.62-6.096-1.229-.121-1.556,5.832-2.141-3.638-.077-6.194-.18-.125-1.595,11.357.518.165,2.114-5.361,2.004,5.607,1.147.165,2.113-11.139,2.274Z"/><path d="M716.575,383.313l-.868-7.291,1.41-.168.672,5.643,3.377-.402-.584-4.907,1.41-.168.584,4.907,3.596-.429-.671-5.642,1.41-.168.868,7.291-11.205,1.334Z"/><path d="M724.774,369.638l-.436-2.725-8.333,1.333.436,2.725-1.402.225-1.131-7.069,1.402-.224.433,2.705,8.333-1.333-.433-2.705,1.402-.225,1.131,7.069-1.402.224Z"/><path d="M718.698,358.818c-3.549.716-6.049-.352-6.638-3.273-.423-2.098.367-3.95,3.088-4.621l.316,1.568c-1.616.488-2.293,1.278-2.004,2.71.502,2.49,2.977,2.317,4.918,1.926,2.235-.45,4.211-1.277,3.749-3.571-.206-1.02-.736-1.627-1.403-2.104l-2.451.494.521,2.589-1.353.272-.838-4.157,5.96-1.201.257,1.274-1.215.245c.62.242,1.68,1.049,2.008,2.676.604,3-1.994,4.585-4.915,5.174Z"/><path d="M710.481,347.108l-.394-1.612,4.681-1.144-.901-3.69-4.682,1.144-.394-1.612,10.955-2.677.394,1.612-4.915,1.201.902,3.69,4.915-1.201.394,1.612-10.955,2.677Z"/><path d="M708.078,332.192l1.049,3.653-1.365.392-2.568-8.939,1.365-.393,1.061,3.691,9.478-2.723.458,1.596-9.478,2.723Z"/><path d="M692.23,296.313l-.574-1.32,15.003-6.516.574,1.321-15.003,6.515Z"/><path d="M682.649,261.248c-3.281,1.958-5.919,1.599-7.478-1.013-.995-1.667-1.353-3.946,1.19-5.58l.82,1.374c-1.344.988-1.522,2.213-.753,3.502,1.302,2.182,3.449,1.367,5.338.239,1.787-1.066,3.541-2.579,2.238-4.762-.872-1.46-1.924-1.74-3.412-.992l-.831-1.392c2.542-1.401,4.423-.124,5.49,1.663,1.61,2.697.541,5.083-2.604,6.96Z"/><path d="M676.201,250.546c-3.066,2.003-5.747,2.032-7.41-.514-1.652-2.53-.564-4.89,2.452-6.859,3.066-2.002,5.73-2.021,7.393.525,1.652,2.53.564,4.89-2.435,6.848ZM672.234,244.581c-1.592,1.039-3.571,2.619-2.215,4.696,1.356,2.078,3.599.9,5.19-.139,1.575-1.028,3.555-2.608,2.198-4.686-1.357-2.078-3.599-.9-5.174.128Z"/><path d="M664.158,242.712l-1.287-1.809,5.818-8.486-2.536,2.025-5.231,3.723-.87-1.222,9.191-6.541,1.288,1.809-5.819,8.486,2.536-2.025,5.231-3.723.87,1.222-9.191,6.541Z"/><path d="M656.435,229.778l2.325,3.007-1.123.869-5.69-7.358,1.123-.868,2.35,3.038,7.801-6.033,1.016,1.313-7.801,6.032Z"/><path d="M649.399,223.179l-1.878-2.236c-1.865-2.222-2.091-4.357-.375-5.798,1.395-1.17,3.029-1.027,4.323-.077l1.181-5.562,1.338,1.594-1.198,5.106.965,1.148,3.217-2.701,1.067,1.271-8.64,7.255ZM652.698,218.241l-.823-.98c-1.364-1.624-2.55-1.699-3.53-.876-.965.811-1.112,2.005.252,3.629l.823.98,3.278-2.753Z"/><path d="M639.641,211.892l-1.212-1.331,5.658-10.541,1.212,1.33-1.375,2.471,2.964,3.253,2.587-1.14,1.186,1.301-11.021,4.657ZM645.613,207.695l-2.398-2.632-.866,1.573-2.016,3.461,3.632-1.687,1.647-.716Z"/><path d="M639.27,199.668l-1.138-1.153c.869-.97.777-2.088-.389-3.27-1.068-1.082-2.198-1.372-3.009-.571-.626.618-.503,1.312-.043,2.291l1.088,2.327c.614,1.306.803,2.721-.365,3.873-1.423,1.406-3.401.912-4.96-.668-1.603-1.623-1.93-3.521-.292-5.165l1.124,1.139c-1.083,1.182-.566,2.245.221,3.043,1.026,1.039,2.044,1.131,2.699.484.541-.534.518-1.242.099-2.121l-1.088-2.327c-.823-1.745-.858-2.892.238-3.974,1.637-1.616,3.656-.995,5.3.671,1.799,1.822,2.125,3.833.517,5.421Z"/><path d="M623.421,193.33l2.774,2.595-.97,1.037-6.79-6.351.969-1.037,2.804,2.622,6.733-7.199,1.212,1.134-6.732,7.199Z"/><path d="M598.602,166.966c-2.139,2.971-4.629,3.964-7.097,2.188-2.451-1.765-2.286-4.357-.182-7.28,2.139-2.971,4.617-3.947,7.085-2.171,2.452,1.765,2.286,4.357.194,7.264ZM592.755,162.83c-1.11,1.542-2.389,3.729-.375,5.178s3.681-.456,4.792-1.999c1.099-1.525,2.376-3.712.363-5.161s-3.681.456-4.779,1.982Z"/><path d="M584.563,164.001l-6.204-4.104.783-1.184,4.82,3.188,2.074-3.136-4.22-2.791.783-1.185,4.22,2.791,2.582-3.902,1.384.916-6.222,9.406Z"/><path d="M554.212,139.51c-1.682,3.431-4.088,4.567-6.817,3.229-1.742-.854-3.286-2.568-2.046-5.324l1.437.704c-.587,1.561-.068,2.684,1.278,3.345,2.281,1.118,3.635-.735,4.604-2.711.916-1.868,1.56-4.092-.721-5.21-1.526-.748-2.562-.409-3.4,1.029l-1.455-.714c1.367-2.56,3.639-2.515,5.507-1.6,2.82,1.383,3.225,3.965,1.613,7.251Z"/><path d="M542.97,134.059c-1.475,3.349-3.702,4.836-6.483,3.611-2.763-1.217-3.139-3.785-1.688-7.078,1.474-3.349,3.694-4.817,6.475-3.593,2.763,1.217,3.139,3.785,1.697,7.06ZM536.396,131.23c-.766,1.738-1.561,4.14.708,5.139s3.503-1.209,4.269-2.947c.757-1.72,1.553-4.121-.716-5.12-2.269-.999-3.503,1.209-4.26,2.929Z"/><path d="M528.617,134.082l-1.545-.606,3.604-9.178-5.38-2.112.519-1.321,6.925,2.719-4.123,10.499Z"/><path d="M519.863,124.594c-1.198,3.457-3.298,5.12-6.169,4.125-2.853-.988-3.436-3.518-2.258-6.918,1.198-3.457,3.292-5.102,6.163-4.106,2.853.988,3.436,3.519,2.264,6.899ZM513.081,122.306c-.622,1.795-1.22,4.254,1.122,5.065,2.343.812,3.394-1.49,4.016-3.284.615-1.776,1.213-4.234-1.129-5.047-2.343-.812-3.394,1.49-4.009,3.266Z"/><path d="M507.973,118.884l-2.111,6.989-1.589-.479,2.111-6.99c.578-1.915.192-2.783-1.32-3.24s-2.314.053-2.893,1.968l-2.111,6.99-1.589-.48,2.111-6.989c.844-2.796,2.396-3.644,4.905-2.887,2.508.758,3.332,2.323,2.487,5.119Z"/><path d="M493.81,122.339l-2.827-.73c-2.808-.727-4.23-2.333-3.67-4.502.455-1.762,1.869-2.595,3.474-2.572l-2.268-5.214,2.014.521,1.989,4.853,1.452.375,1.051-4.066,1.607.416-2.823,10.921ZM493.629,116.404l-1.239-.32c-2.053-.53-3.062.098-3.382,1.337-.315,1.22.259,2.276,2.311,2.808l1.239.32,1.071-4.145Z"/><path d="M452.555,115.709l-1.429-.178,2.022-16.239,1.429.179-2.022,16.238Z"/><path d="M417.479,106.057c.062,3.821-1.566,5.928-4.606,5.977-1.94.031-4.095-.795-4.243-3.813l1.601-.025c.187,1.657,1.159,2.422,2.66,2.398,2.541-.041,2.904-2.308,2.869-4.509-.033-2.08-.47-4.354-3.011-4.313-1.7.027-2.468.8-2.562,2.462l-1.621.026c.054-2.902,2.099-3.896,4.179-3.929,3.141-.051,4.675,2.066,4.734,5.727Z"/><path d="M405.009,106.206c.156,3.658-1.186,5.979-4.225,6.108-3.018.129-4.492-2.011-4.646-5.609-.156-3.657,1.188-5.958,4.226-6.088,3.019-.129,4.492,2.011,4.645,5.589ZM397.856,106.572c.081,1.898.429,4.407,2.907,4.301,2.479-.105,2.611-2.635,2.53-4.533-.081-1.879-.428-4.388-2.907-4.281-2.479.105-2.611,2.635-2.53,4.514Z"/><path d="M392.108,112.564l-2.212.183-4.323-9.334.446,3.214.529,6.397-1.495.123-.93-11.239,2.212-.183,4.323,9.333-.446-3.213-.529-6.397,1.495-.123.93,11.239Z"/><path d="M377.054,112.606l3.772-.467.174,1.409-9.231,1.143-.174-1.409,3.812-.472-1.211-9.787,1.648-.204,1.211,9.787Z"/><path d="M367.777,115.282l-2.881.475c-2.861.471-4.812-.424-5.176-2.634-.295-1.795.66-3.128,2.137-3.756l-4.181-3.851,2.052-.339,3.78,3.634,1.48-.244-.683-4.144,1.637-.27,1.833,11.128ZM365.213,109.929l-1.263.208c-2.091.345-2.761,1.326-2.553,2.589.205,1.243,1.157,1.978,3.248,1.633l1.263-.208-.695-4.222Z"/><path d="M353.086,117.92l-1.764.364-6.179-10.246,1.763-.363,1.424,2.443,4.31-.89.34-2.808,1.724-.355-1.618,11.854ZM352.523,110.641l-3.488.72.912,1.548,1.948,3.5.403-3.985.225-1.782Z"/><path d="M342.396,112.004l-1.572.392c-.392-1.242-1.401-1.733-3.012-1.332-1.475.368-2.301,1.192-2.025,2.298.213.854.873,1.103,1.949,1.205l2.557.249c1.436.137,2.75.696,3.147,2.288.483,1.94-.949,3.39-3.103,3.927-2.213.552-4.012-.134-4.593-2.381l1.553-.387c.465,1.533,1.644,1.632,2.73,1.36,1.417-.353,2.014-1.182,1.792-2.075-.184-.737-.805-1.077-1.775-1.165l-2.557-.25c-1.921-.181-2.925-.734-3.297-2.229-.556-2.232,1.007-3.652,3.278-4.219,2.484-.619,4.381.125,4.927,2.318Z"/><path d="M328.857,122.421l3.647-1.066.399,1.362-8.926,2.611-.398-1.363,3.686-1.078-2.769-9.463,1.593-.466,2.769,9.463Z"/><path d="M293.552,130.379c1.472,3.351,1.062,5.998-1.721,7.221-2.765,1.214-4.913-.245-6.36-3.541-1.472-3.351-1.054-5.98,1.729-7.203,2.765-1.214,4.913.245,6.353,3.523ZM287.021,133.312c.764,1.739,1.997,3.95,4.268,2.953s1.477-3.401.713-5.141c-.756-1.722-1.989-3.932-4.259-2.935s-1.477,3.4-.721,5.122Z"/><path d="M283.876,140.972l-6.687,3.264-.623-1.275,5.195-2.536-1.649-3.379-4.548,2.22-.623-1.276,4.547-2.22-2.053-4.206,1.492-.729,4.948,10.138Z"/><path d="M249.744,159.939l-6.209,4.099-.782-1.186,4.824-3.184-2.071-3.139-4.223,2.787-.782-1.185,4.223-2.787-2.578-3.906,1.385-.915,6.213,9.415Z"/><path d="M236.968,161.624c2.136,2.971,2.287,5.646-.181,7.42-2.452,1.763-4.856.782-6.957-2.14-2.136-2.972-2.275-5.63.193-7.404,2.452-1.763,4.856-.782,6.945,2.124ZM231.191,165.851c1.109,1.542,2.774,3.448,4.788,2,2.013-1.447.737-3.633-.372-5.175-1.098-1.526-2.763-3.432-4.776-1.984s-.737,3.633.36,5.159Z"/><path d="M229.688,174.007l-2.301,1.798c-2.286,1.785-4.427,1.936-5.806.17-1.121-1.435-.921-3.062.075-4.322l-5.517-1.376,1.639-1.281,5.061,1.377,1.182-.924-2.586-3.31,1.309-1.022,6.945,8.891ZM224.87,170.536l-1.009.788c-1.67,1.306-1.788,2.488-1,3.497.776.993,1.964,1.182,3.635-.124l1.009-.788-2.635-3.373Z"/><path d="M220.595,181.215l-1.678,1.423-3.409-2.04-2.184-1.4,1.04,2.371,1.456,3.696-1.632,1.385-7.298-8.605,1.144-.971,4.27,5.035,1.925,2.486-2.579-6.443.977-.828,5.936,3.597-2.138-2.306-4.27-5.035,1.144-.971,7.298,8.606Z"/><path d="M190.866,211.494l-.97,1.063-12.083-11.021.97-1.063,12.083,11.021Z"/><path d="M162.774,234.589c3.127,2.194,3.876,4.748,2.13,7.237-1.114,1.588-3.048,2.846-5.578,1.192l.919-1.31c1.451.823,2.641.485,3.502-.743,1.459-2.079-.161-3.705-1.962-4.969-1.703-1.195-3.799-2.178-5.258-.098-.977,1.392-.803,2.467.487,3.519l-.931,1.326c-2.316-1.748-1.919-3.986-.724-5.688,1.804-2.571,4.417-2.569,7.414-.467Z"/><path d="M155.649,244.83c3.077,1.979,4.198,4.413,2.554,6.969-1.633,2.539-4.229,2.51-7.256.562-3.077-1.979-4.182-4.401-2.537-6.958,1.634-2.539,4.23-2.509,7.24-.572ZM151.826,250.882c1.598,1.028,3.846,2.189,5.188.104,1.342-2.085-.647-3.65-2.245-4.678-1.581-1.017-3.829-2.179-5.171-.094-1.341,2.086.647,3.65,2.228,4.667Z"/><path d="M153.423,259.018l-1.125,1.914-10.122-1.842,2.884,1.486,5.535,3.252-.76,1.294-9.725-5.715,1.125-1.914,10.122,1.842-2.884-1.486-5.535-3.252.76-1.293,9.725,5.714Z"/><path d="M144.773,271.357l1.792-3.352,1.252.669-4.385,8.202-1.252-.669,1.811-3.387-8.696-4.649.783-1.464,8.696,4.649Z"/><path d="M141.615,280.493l-1.272,2.629c-1.263,2.611-3.119,3.69-5.136,2.715-1.638-.793-2.177-2.343-1.84-3.912l-5.558,1.199.906-1.873,5.149-.997.654-1.351-3.781-1.829.723-1.495,10.155,4.914ZM135.76,279.505l-.558,1.152c-.923,1.908-.506,3.021.646,3.579,1.134.549,2.284.194,3.207-1.715l.558-1.152-3.853-1.864Z"/><path d="M135.314,293.999l-.718,1.65-11.933-.851.718-1.65,2.817.244,1.755-4.035-2.099-1.896.703-1.613,8.756,8.15ZM129.042,290.266l-1.42,3.265,1.79.146,3.982.424-3.024-2.625-1.328-1.21Z"/><path d="M124.319,299.333l-.586,1.511c-1.241-.396-2.223.146-2.823,1.693-.55,1.417-.352,2.566.711,2.979.82.318,1.403-.078,2.107-.898l1.677-1.945c.939-1.095,2.153-1.846,3.682-1.253,1.865.724,2.224,2.729,1.421,4.799-.825,2.125-2.421,3.2-4.592,2.38l.579-1.491c1.521.504,2.28-.403,2.685-1.447.528-1.361.195-2.327-.663-2.659-.708-.275-1.344.036-1.975.778l-1.677,1.945c-1.255,1.465-2.286,1.966-3.722,1.409-2.145-.832-2.404-2.928-1.558-5.109.926-2.387,2.626-3.508,4.733-2.69Z"/><path d="M125.033,316.4l1.229-3.595,1.343.459-3.008,8.798-1.343-.459,1.242-3.633-9.328-3.189.537-1.57,9.328,3.189Z"/><path d="M111.207,349.838c3.588.726,5.518,2.586,4.915,5.566-.599,2.96-3.03,3.877-6.559,3.163-3.588-.727-5.499-2.582-4.896-5.562.599-2.961,3.03-3.878,6.54-3.167ZM109.846,356.869c1.862.377,4.381.642,4.873-1.79.492-2.432-1.931-3.167-3.793-3.544-1.843-.372-4.361-.637-4.854,1.794-.492,2.432,1.931,3.167,3.774,3.54Z"/><path d="M114.284,363.878l-1.181,7.345-1.402-.226.917-5.706-3.712-.597-.803,4.995-1.402-.225.803-4.996-4.621-.742.264-1.639,11.136,1.79Z"/><path d="M110.121,402.686l-.103,3.298c-.116,3.698-2.486,4.624-5.704,4.523-3.318-.104-5.684-1.238-5.57-4.876l.104-3.299,11.273.354ZM100.215,404.037l-.051,1.639c-.086,2.759,2.325,3.054,4.125,3.11,1.819.057,4.225-.088,4.311-2.847l.052-1.639-8.436-.264Z"/><path d="M99.947,415.022l.044,2.761,8.442-.135-.044-2.761,1.42-.022.115,7.161-1.42.022-.044-2.74-8.442.135.044,2.741-1.42.022-.115-7.161,1.42-.023Z"/><path d="M110.032,427.192l.138,2.916c.137,2.896-.977,4.73-3.214,4.837-1.818.086-3.031-1.018-3.484-2.558l-4.309,3.707-.098-2.077,4.046-3.335-.071-1.498-4.195.199-.079-1.658,11.266-.533ZM104.418,429.12l.061,1.278c.1,2.117.998,2.896,2.276,2.835,1.258-.06,2.098-.921,1.998-3.038l-.061-1.278-4.274.203Z"/><path d="M110.723,439.416l.644,7.313-1.415.125-.499-5.66-3.388.299.434,4.922-1.415.125-.434-4.923-3.607.318.499,5.659-1.415.125-.644-7.313,11.24-.99Z"/><path d="M106.145,451.457c3.789-.487,6.063.895,6.451,3.909.247,1.925-.333,4.156-3.316,4.641l-.204-1.587c1.626-.37,2.277-1.422,2.086-2.909-.323-2.52-2.616-2.628-4.798-2.348-2.063.265-4.273.952-3.95,3.471.216,1.687,1.07,2.363,2.731,2.271l.207,1.607c-2.889.27-4.104-1.651-4.369-3.714-.4-3.114,1.531-4.875,5.161-5.341Z"/><path d="M112.609,466.687l-.635-3.745,1.4-.237,1.554,9.167-1.399.237-.642-3.785-9.719,1.647-.277-1.637,9.719-1.647Z"/><path d="M106.056,477.853l.571,2.699,8.255-1.744-.57-2.7,1.389-.293,1.48,7.003-1.389.293-.566-2.68-8.255,1.745.566,2.68-1.389.294-1.48-7.003,1.389-.294Z"/><path d="M112.6,488.337c3.546-.902,6.091-.063,6.84,2.882.744,2.926-1.047,4.806-4.536,5.692-3.546.902-6.072.059-6.821-2.887-.744-2.926,1.047-4.806,4.516-5.688ZM114.423,495.26c1.841-.469,4.224-1.322,3.612-3.725-.611-2.403-3.112-2.015-4.953-1.547-1.821.464-4.204,1.317-3.593,3.72.611,2.403,3.112,2.015,4.934,1.552Z"/><path d="M121.47,499.665l.633,2.127-8.247,6.149,3.053-1.098,6.152-1.832.428,1.438-10.809,3.219-.633-2.127,8.247-6.148-3.054,1.097-6.152,1.832-.428-1.438,10.809-3.219Z"/><path d="M137.07,538.381l.586,1.315-14.941,6.652-.585-1.314,14.94-6.653Z"/><path d="M146.986,573.357c3.261-1.987,5.9-1.652,7.482.942,1.009,1.656,1.389,3.931-1.138,5.588l-.833-1.366c1.334-1,1.5-2.226.72-3.506-1.321-2.169-3.459-1.335-5.337-.189-1.776,1.082-3.514,2.609-2.193,4.778.885,1.451,1.939,1.722,3.419.961l.843,1.383c-2.528,1.423-4.419.164-5.501-1.611-1.634-2.681-.587-5.075,2.538-6.979Z"/><path d="M153.534,583.99c3.046-2.029,5.727-2.085,7.413.446,1.675,2.514.609,4.882-2.387,6.879-3.046,2.03-5.709,2.074-7.396-.456-1.675-2.515-.609-4.883,2.371-6.869ZM157.556,589.917c1.582-1.054,3.546-2.651,2.17-4.716s-3.606-.866-5.188.188c-1.565,1.043-3.529,2.641-2.154,4.705,1.376,2.064,3.606.866,5.171-.177Z"/><path d="M165.67,591.73l1.304,1.798-5.74,8.54,2.517-2.049,5.197-3.771.881,1.214-9.131,6.627-1.304-1.797,5.74-8.541-2.517,2.049-5.197,3.771-.881-1.214,9.131-6.627Z"/><path d="M173.492,604.56l-2.354-2.983,1.115-.879,5.761,7.301-1.115.88-2.379-3.015-7.741,6.108-1.028-1.304,7.741-6.108Z"/><path d="M180.601,611.111l1.9,2.216c1.887,2.202,2.135,4.334.434,5.792-1.381,1.185-3.017,1.059-4.321.122l-1.123,5.572-1.354-1.579,1.145-5.117-.976-1.139-3.188,2.733-1.081-1.26,8.563-7.341ZM177.355,616.081l.833.972c1.379,1.609,2.566,1.672,3.538.839.957-.82,1.091-2.016-.289-3.625l-.833-.972-3.249,2.786Z"/><path d="M190.457,622.289l1.225,1.32-5.562,10.595-1.225-1.32,1.353-2.483-2.994-3.227-2.578,1.164-1.198-1.29,10.979-4.759ZM184.522,626.542l2.423,2.61.852-1.582,1.984-3.479-3.618,1.72-1.641.731Z"/><path d="M190.936,634.51l1.148,1.142c-.86.979-.758,2.095.419,3.265,1.077,1.071,2.209,1.352,3.013.544.62-.624.491-1.316.022-2.291l-1.109-2.315c-.625-1.299-.827-2.712.329-3.874,1.41-1.418,3.391-.942,4.964.622,1.616,1.607,1.96,3.501.339,5.159l-1.134-1.128c1.071-1.19.545-2.249-.249-3.038-1.035-1.029-2.053-1.111-2.701-.46-.536.539-.506,1.246-.079,2.121l1.109,2.315c.839,1.736.884,2.882-.201,3.974-1.622,1.63-3.645,1.027-5.303-.622-1.814-1.805-2.159-3.812-.566-5.413Z"/><path d="M206.872,640.712l-2.8-2.568.959-1.047,6.854,6.287-.96,1.047-2.83-2.596-6.665,7.267-1.224-1.122,6.665-7.268Z"/><path d="M231.919,666.83c2.111-2.99,4.591-4.006,7.075-2.253,2.468,1.742,2.326,4.336.25,7.277-2.111,2.99-4.58,3.99-7.064,2.236-2.467-1.741-2.326-4.335-.261-7.261ZM237.804,670.911c1.096-1.553,2.353-3.75.327-5.181-2.026-1.43-3.676.49-4.772,2.043-1.084,1.536-2.342,3.733-.315,5.164,2.027,1.431,3.676-.49,4.761-2.026Z"/><path d="M245.985,669.663l6.244,4.041-.771,1.191-4.851-3.14-2.042,3.155,4.247,2.749-.771,1.191-4.247-2.748-2.542,3.928-1.393-.902,6.127-9.466Z"/><path d="M281.673,691.577l-3.43-1.638.612-1.282,8.394,4.009-.612,1.282-3.466-1.655-4.25,8.898-1.498-.715,4.25-8.899Z"/><path d="M290.925,694.319l6.743,2.896-.56,1.305-5.218-2.241-1.341,3.124,4.538,1.948-.56,1.305-4.538-1.949-1.428,3.325,5.218,2.241-.56,1.304-6.743-2.895,4.449-10.362Z"/><path d="M302.715,705.13l-1.529-6.472,1.793.686.632,2.938.422,2.089,1.726-1.268,2.432-1.768,1.755.672-5.442,3.763,1.601,6.842-1.793-.686-.727-3.36-.425-2.024-1.648,1.231-2.821,2.004-1.737-.664,5.762-3.983Z"/><path d="M315.834,705.544l-3.601-1.212.453-1.346,8.812,2.966-.453,1.346-3.639-1.225-3.145,9.343-1.573-.529,3.144-9.343Z"/><path d="M323.012,714.054l2.044-7.007,1.593.465-2.044,7.007c-.56,1.92-.167,2.784,1.35,3.227,1.517.442,2.313-.075,2.873-1.994l2.044-7.007,1.593.465-2.044,7.006c-.817,2.803-2.36,3.665-4.875,2.932s-3.352-2.29-2.534-5.093Z"/><path d="M337.149,710.463l2.834.702c2.814.696,4.253,2.289,3.715,4.463-.438,1.766-1.842,2.613-3.447,2.606l2.32,5.189-2.019-.5-2.038-4.831-1.456-.36-1.009,4.076-1.611-.399,2.711-10.946ZM337.39,716.393l1.242.308c2.058.51,3.06-.128,3.368-1.37.303-1.223-.282-2.274-2.339-2.783l-1.242-.308-1.029,4.153Z"/><path d="M349.041,713.303l7.19,1.479-.286,1.391-5.564-1.144-.685,3.33,4.839.995-.286,1.392-4.839-.995-.729,3.546,5.564,1.145-.286,1.391-7.19-1.479,2.272-11.05Z"/><path d="M390.596,717.872l1.436.106-1.21,16.313-1.436-.106,1.211-16.313Z"/><path class="cls-1" d="M414.075,138.463c-152.431,0-276,123.569-276,276s123.569,276,276,276,276-123.569,276-276-123.569-276-276-276ZM414.075,621.463c-114.323,0-207-92.677-207-207s92.677-207,207-207,207,92.677,207,207-92.677,207-207,207Z"/><path d="M435.757,652.292l3.896-.415c2.625-.28,4.406.776,4.614,2.725.136,1.272-.492,1.983-1.247,2.445.906.205,2.043.868,2.206,2.399.21,1.968-1.417,3.489-4.002,3.765l-4.255.454-1.213-11.373ZM438.466,656.768l1.432-.152c1.65-.176,2.173-.734,2.078-1.629-.087-.815-.614-1.423-2.324-1.24l-1.491.159.306,2.862ZM438.981,661.6l1.909-.204c1.71-.183,2.104-1.009,2.02-1.804-.093-.875-.738-1.449-2.388-1.273l-1.869.199.329,3.082Z"/><path d="M449.265,660.538l2.902-.462-1.506-9.458-2.902.462-.264-1.658,5.015-.799,1.77,11.116,2.922-.465.264,1.658-7.938,1.264-.264-1.658Z"/><path d="M461.153,657.903c-.425-1.995,1.243-2.902,3.023-3.282.9-.191,1.892-.239,2.434-.19l-.15-.704c-.237-1.115-.621-1.954-2.225-1.612-1.213.258-1.813.897-1.596,1.914l-1.976.421c-.504-2.367,1.262-3.581,3.355-4.027,2.25-.479,3.96.159,4.477,2.585l.762,3.579c.071.333.213.426.565.351.235-.05.574-.184.796-.293l.296,1.39c-.319.231-.942.568-1.588.706-1.095.233-1.529-.268-1.667-.913l-.033-.156c-.329.663-1.117,1.669-2.897,2.048-1.683.358-3.21-.094-3.577-1.814ZM467.118,656.817l-.233-1.096c-.393-.019-1.211.073-1.955.232-1.154.245-1.871.623-1.696,1.444.142.665.693.854,1.652.65,1.095-.233,1.877-.788,2.232-1.231Z"/><path d="M472.934,653.164c-.938-3.516,1.166-5.092,3.291-5.659,1.912-.51,4.224-.3,5.101,2.363l-2.086.558c-.467-1.283-1.392-1.491-2.531-1.188-1.507.402-2.16,1.446-1.649,3.358.516,1.932,1.597,2.492,3.123,2.084,1.121-.299,1.824-.921,1.589-2.266l2.086-.557c.558,2.707-1.395,4.076-3.269,4.577-2.144.572-4.726.206-5.654-3.271Z"/><path d="M483.063,641.516l2.036-.659,2.293,7.078,2.624-4.361,2.702-.875-2.636,4.26,5.57,4.083-2.455.795-4.198-3.287-.942,1.441,1.029,3.177-2.036.66-3.989-12.312Z"/><path d="M498.426,648.255l2.748-1.048-3.413-8.953-2.748,1.047-.599-1.569,4.748-1.811,4.012,10.523,2.767-1.055.599,1.57-7.514,2.865-.599-1.57Z"/><path d="M508.686,641.352c-1.432-3.238.274-5.218,2.269-6.099,2.067-.914,4.606-.812,6.021,2.39l.194.439-6.33,2.798c.678,1.385,1.753,1.938,3.326,1.242,1.08-.478,1.636-1.248,1.434-2.1l2.013-.89c.538,2.256-1.056,3.747-2.812,4.523-2.342,1.035-4.772.732-6.115-2.305ZM514.551,637.6c-.714-1.171-1.864-1.298-2.925-.828-1.061.469-1.741,1.403-1.356,2.721l4.281-1.893Z"/><path d="M522.576,635.653l-1.524-3.017-2.517,1.271-.767-1.518,2.517-1.271-1.849-3.66,1.911-.965,1.849,3.66,3.874-1.957.767,1.518-3.874,1.957,1.488,2.945c.749,1.482,1.295,1.855,2.617,1.188.732-.37,1.329-.873,1.766-1.385l.775,1.535c-.445.538-1.087,1.131-2.14,1.663-2.035,1.028-3.503.784-4.892-1.966Z"/><path d="M533.697,629.789l-1.679-2.935-2.448,1.4-.845-1.477,2.449-1.4-2.037-3.56,1.858-1.062,2.037,3.56,3.768-2.156.844,1.477-3.768,2.155,1.639,2.865c.824,1.441,1.39,1.786,2.675,1.051.712-.407,1.282-.94,1.691-1.475l.854,1.493c-.417.562-1.027,1.187-2.051,1.772-1.979,1.133-3.458.965-4.988-1.709Z"/><path d="M542.127,624.152c-1.912-2.979-.531-5.196,1.303-6.374,1.902-1.221,4.426-1.51,6.316,1.436l.259.404-5.823,3.738c.882,1.263,2.03,1.644,3.477.715.993-.638,1.424-1.484,1.094-2.295l1.852-1.188c.878,2.146-.466,3.864-2.082,4.901-2.154,1.383-4.602,1.457-6.396-1.337ZM547.344,619.544c-.886-1.047-2.041-.995-3.017-.368-.977.626-1.505,1.654-.921,2.896l3.938-2.528Z"/><path d="M554.634,619.188l1.771-1.271-3.183-4.437-1.771,1.271-.991-1.381,3.283-2.354,1.166,1.625c-.262-1.018-.258-2.522,1.155-3.536.537-.385,1.117-.604,1.57-.659l1.259,1.755c-.509.045-1.155.312-1.626.649-1.138.816-1.412,1.875-1.432,2.603l2.308,3.218,3.022-2.168.979,1.364-6.533,4.687-.979-1.365Z"/><path d="M580.162,583.362l1.02-1.018,11.558,11.584-1.02,1.017-11.558-11.583Z"/><path d="M610.655,562.784l1.263-1.754c1.032.62,1.917.419,2.829-.848.83-1.152.926-2.143.18-2.681-.617-.444-1.232-.172-1.99.367l-2.178,1.587c-1.191.868-2.585,1.195-3.917.236-1.737-1.25-1.615-3.405-.189-5.387,1.333-1.851,3.247-2.765,5.349-1.301l-1.274,1.77c-1.069-.671-1.845-.416-2.593.623-.83,1.153-.733,2.012-.121,2.428.531.357,1.031.348,1.824-.24l2.218-1.607c1.168-.835,2.533-1.431,4.027-.354,1.883,1.355,1.607,3.622.135,5.667-1.508,2.095-3.532,2.955-5.562,1.494Z"/><path d="M617.135,552.031c-2.974-1.92-2.634-4.51-1.452-6.341,1.226-1.898,3.403-3.206,6.343-1.308l.403.26-3.753,5.813c1.326.785,2.528.656,3.461-.789.64-.991.682-1.939.046-2.541l1.193-1.848c1.688,1.59,1.175,3.71.133,5.323-1.389,2.15-3.586,3.23-6.375,1.43ZM619.976,545.677c-1.24-.587-2.27-.062-2.899.913-.629.974-.685,2.129.36,3.018l2.539-3.931Z"/><path d="M626.464,542.332l1.086-1.89-4.732-2.721-1.086,1.89-1.474-.847,2.013-3.502,1.733.997c-.66-.817-1.279-2.188-.412-3.696.329-.572.767-1.013,1.156-1.249l1.872,1.075c-.444.252-.922.762-1.211,1.265-.697,1.213-.509,2.29-.226,2.96l3.432,1.974,1.854-3.225,1.456.837-4.006,6.969-1.456-.837Z"/><path d="M623.943,523.604l1.188-2.337,2.158,1.097-1.187,2.337-2.159-1.097ZM632.69,531.257l1.396-2.747-4.87-2.475-1.396,2.747-1.516-.771,2.366-4.655,6.386,3.245,1.278-2.516,1.499.762-3.644,7.171-1.499-.762Z"/><path d="M638.285,519.994l1.09-2.449-4.862-2.164-1.09,2.45-1.536-.684,1.09-2.449-.037-.017c-2.833-1.261-2.932-4.042-1.688-6.839l1.554.691c-.667,1.499-.934,3.329,1.004,4.191l.037.017,1.391-3.126,1.536.683-1.391,3.126,4.862,2.164,1.391-3.126,1.536.683-3.351,7.531-1.536-.683Z"/><path d="M642.194,476.079l.362-1.395,15.839,4.119-.362,1.395-15.839-4.119Z"/><path d="M658,442.881l.196-2.15c1.204.009,1.863-.613,2.005-2.167.129-1.413-.291-2.315-1.207-2.398-.757-.069-1.148.478-1.526,1.326l-1.069,2.473c-.585,1.353-1.619,2.342-3.252,2.193-2.13-.194-3.12-2.111-2.899-4.541.207-2.271,1.392-4.029,3.944-3.837l-.198,2.171c-1.262-.035-1.799.578-1.916,1.853-.129,1.414.39,2.104,1.129,2.151.639.038,1.064-.225,1.448-1.133l1.092-2.511c.582-1.312,1.455-2.518,3.287-2.351,2.31.211,3.224,2.302,2.995,4.811-.234,2.569-1.54,4.337-4.029,4.11Z"/><path d="M660.168,430.369c-2.039-.081-2.507-1.921-2.435-3.74.037-.92.235-1.893.416-2.406l-.72-.028c-1.139-.045-2.047.119-2.112,1.758-.049,1.239.422,1.979,1.461,2.021l-.08,2.019c-2.419-.096-3.16-2.107-3.075-4.246.091-2.299,1.132-3.799,3.61-3.701l3.658.146c.34.014.465-.102.479-.461.01-.24-.036-.603-.086-.845l1.419.057c.146.366.319,1.054.292,1.713-.044,1.119-.637,1.416-1.296,1.391l-.16-.007c.562.482,1.342,1.495,1.27,3.313-.068,1.72-.883,3.089-2.642,3.019ZM660.588,424.319l-1.119-.044c-.115.376-.228,1.192-.258,1.951-.047,1.18.142,1.968.982,2.001.679.027.999-.46,1.038-1.439.044-1.12-.301-2.015-.643-2.469Z"/><path d="M654.072,417.183l-.03-1.86,1.2-.02c-.587-.411-1.42-1.218-1.444-2.718-.027-1.681.669-3.173,3.53-3.219l5.461-.087.034,2.141-5.041.08c-1.44.023-2.216.336-2.195,1.636.015.961.404,1.495.83,1.868l6.461-.104.034,2.141-8.842.142Z"/><path d="M659.89,405.01l-.128-2.096c.934-.137,1.274-1.119,1.192-2.457-.075-1.217-.313-2.164-1.131-2.114-.878.054-.936,1.399-1.146,3.195-.195,1.735-.592,3.422-2.448,3.535-1.816.111-2.709-1.717-2.842-3.893-.133-2.176.332-4.067,2.538-4.362l.128,2.096c-.95.198-1.087,1.229-1.031,2.146.074,1.218.355,1.882.954,1.845.798-.049.874-1.115,1.084-3.231.159-1.652.593-3.401,2.41-3.513,2.135-.131,2.977,1.841,3.128,4.316.144,2.354-.536,4.34-2.708,4.532Z"/><path d="M654.281,365.466l-.481-2.106c1.148-.364,1.581-1.161,1.234-2.682-.316-1.385-.996-2.112-1.893-1.907-.741.169-.943.811-1.04,1.735l-.249,2.684c-.137,1.467-.812,2.729-2.412,3.095-2.086.478-3.623-1.039-4.167-3.418-.508-2.224.072-4.264,2.559-4.873l.486,2.125c-1.211.359-1.532,1.109-1.247,2.357.316,1.385,1.024,1.88,1.742,1.695.62-.162.942-.544,1.026-1.527l.259-2.727c.146-1.429.601-2.846,2.396-3.256,2.262-.517,3.78,1.188,4.341,3.646.575,2.516-.118,4.603-2.556,5.159Z"/><path d="M650.491,353.475c-3.406.965-5.126-1.001-5.72-3.099-.616-2.174-.159-4.673,3.208-5.626l.462-.131,1.885,6.658c1.465-.478,2.163-1.465,1.694-3.119-.321-1.136-1.006-1.794-1.877-1.714l-.599-2.116c2.308-.217,3.562,1.569,4.084,3.416.697,2.463.057,4.826-3.137,5.73ZM647.597,347.145c-1.259.544-1.545,1.664-1.229,2.779.316,1.116,1.146,1.921,2.504,1.724l-1.275-4.503Z"/><path d="M649.374,340.076l-.702-2.063-5.169,1.758.702,2.063-1.61.548-1.301-3.825,1.894-.645c-1.05-.044-2.488-.484-3.049-2.132-.212-.625-.254-1.244-.174-1.693l2.045-.696c-.104.501-.037,1.196.15,1.745.451,1.325,1.384,1.896,2.075,2.125l3.749-1.274-1.198-3.522,1.591-.541,2.588,7.612-1.59.541Z"/><path d="M633.654,329.606l-.971-2.433,2.247-.897.971,2.434-2.247.896ZM645.169,328.086l-1.142-2.859-5.07,2.024,1.142,2.859-1.578.631-1.936-4.847,6.648-2.655-1.046-2.618,1.56-.623,2.981,7.465-1.56.623Z"/><path d="M640.395,316.434l-1.121-2.436-4.834,2.225,1.121,2.436-1.527.702-1.12-2.436-.037.017c-2.817,1.297-4.971-.465-6.25-3.246l1.545-.71c.686,1.49,1.884,2.898,3.811,2.012l.036-.017-1.43-3.107,1.526-.702,1.43,3.107,4.834-2.225-1.43-3.107,1.527-.702,3.445,7.487-1.526.702Z"/><path d="M610.007,284.51l-.806-1.192,13.555-9.162.806,1.193-13.555,9.161Z"/><path d="M589.3,255.735l-2.458-2.603c-2.609-2.763-1.932-5.163.671-7.621,2.487-2.349,5.079-2.953,7.647-.234l2.458,2.604-8.318,7.854ZM594.726,247.557l-.934-.989c-1.662-1.76-3.218-.757-4.687.63-1.483,1.401-2.559,2.884-.897,4.644l.934.989,5.584-5.273Z"/><path d="M577.839,246.16l-1.895-1.812,1.672-1.75,1.895,1.812-1.672,1.75ZM587.69,239.993l-2.228-2.129-3.774,3.949,2.228,2.129-1.175,1.229-3.775-3.608,4.949-5.179-2.04-1.949,1.161-1.215,5.815,5.558-1.161,1.215Z"/><path d="M578.017,232.404l-1.591-1.371c.553-.765.087-1.694-.928-2.569-.924-.797-1.77-1.288-2.305-.667-.575.667.349,1.648,1.488,3.053,1.107,1.351,2.039,2.813.824,4.223-1.188,1.379-3.123.742-4.774-.682s-2.682-3.077-1.354-4.864l1.591,1.372c-.521.818.121,1.636.818,2.237.924.797,1.596,1.059,1.988.604.522-.606-.189-1.404-1.558-3.034-1.073-1.268-2.023-2.8-.834-4.179,1.397-1.621,3.398-.848,5.277.771,1.788,1.542,2.735,3.415,1.357,5.105Z"/><path d="M564.268,228.699l-1.469-1.141.711-.916c-.744.207-1.956.202-3.14-.718-1.547-1.202-2.087-3.344-.087-5.918,2-2.574,4.239-2.556,5.755-1.378,1.105.858,1.359,1.967,1.397,2.504l2.797-3.602,1.69,1.313-7.655,9.854ZM562.02,221.356c-1.042,1.343-1.224,2.62-.024,3.552.71.553,1.453.673,2.03.614l2.54-3.269c-.086-.573-.387-1.263-1.098-1.814-1.2-.933-2.393-.44-3.448.917Z"/><path d="M558.658,215.422l-2.411-1.683-5.481,7.857,2.411,1.682-.961,1.378-4.167-2.906,6.443-9.235-2.428-1.693.961-1.378,6.594,4.601-.961,1.378Z"/><path d="M548.266,209.062c-1.08,1.73-2.91,1.226-4.454.262-.781-.487-1.527-1.142-1.884-1.553l-.381.61c-.604.968-.911,1.837.481,2.705,1.052.656,1.928.613,2.478-.269l1.714,1.069c-1.281,2.054-3.396,1.7-5.211.567-1.951-1.218-2.739-2.864-1.426-4.969l1.938-3.104c.18-.289.142-.454-.164-.645-.204-.127-.541-.267-.776-.343l.752-1.205c.39.055,1.073.245,1.633.595.95.593.915,1.255.565,1.814l-.085.136c.697-.249,1.963-.426,3.507.538,1.459.911,2.245,2.297,1.313,3.79ZM543.22,205.701l-.593.95c.27.286.923.788,1.567,1.19,1.001.625,1.78.852,2.224.139.36-.577.095-1.097-.736-1.615-.95-.593-1.898-.736-2.462-.664Z"/><path d="M539.646,198.721c-1.679-.932-2.792-.863-4.05.085l-.833,9.579-2.098-1.165.542-4.479.463-2.854-2.185,1.875-3.542,2.838-1.993-1.106,7.311-5.549c2.674-2.016,4.354-2.364,7.239-.763l-.854,1.539Z"/><path d="M494.048,193.908l-1.355-.484,5.504-15.402,1.355.484-5.504,15.402Z"/><path d="M460.934,183.114l-2.716-.49-.473-3.46-.26-2.607-1.118,2.359-1.653,3.075-2.638-.477,2.034-11.259,1.949.352-1.038,5.748-.862,3.422,3.061-5.81,1.536.277.836,6.513.39-3.507,1.038-5.747,1.949.352-2.034,11.259Z"/><path d="M449.889,174.074c-.451,3.531-3.025,4.271-5.108,4.005-2.222-.283-4.394-1.589-3.938-5.159.448-3.512,3.025-4.271,5.107-4.005,2.222.283,4.391,1.608,3.938,5.159ZM443.006,173.195c-.251,1.964.491,2.946,1.998,3.139,1.508.192,2.472-.571,2.723-2.535.249-1.944-.491-2.946-1.998-3.139-1.508-.192-2.475.592-2.723,2.535Z"/><path d="M436.412,176.928l-1.854-.141.09-1.197c-.462.547-1.342,1.303-2.838,1.189-1.675-.127-3.097-.957-2.88-3.809l.412-5.444,2.134.161-.38,5.026c-.109,1.436.131,2.236,1.428,2.334.957.073,1.524-.266,1.935-.655l.488-6.441,2.134.161-.668,8.815Z"/><path d="M424.892,171.704c-.09,3.559-2.575,4.556-4.674,4.503-2.239-.057-4.532-1.134-4.441-4.732.089-3.538,2.575-4.556,4.674-4.502,2.239.056,4.531,1.154,4.441,4.731ZM417.955,171.53c-.05,1.979.788,2.88,2.307,2.918,1.52.038,2.401-.819,2.451-2.799.049-1.959-.787-2.88-2.307-2.918-1.519-.038-2.401.84-2.451,2.799Z"/><path d="M412.171,169.84l-2.099.053c-.104-.938-1.073-1.313-2.413-1.279-1.219.03-2.174.234-2.153,1.055.022.879,1.365.985,3.152,1.261,1.727.256,3.398.714,3.445,2.573.045,1.818-1.814,2.646-3.993,2.7-2.179.056-4.052-.478-4.268-2.692l2.099-.053c.164.956,1.189,1.13,2.108,1.106,1.219-.03,1.893-.287,1.878-.887-.021-.8-1.083-.913-3.191-1.2-1.646-.219-3.378-.715-3.424-2.533-.054-2.14,1.947-2.91,4.425-2.973,2.359-.059,4.318.691,4.433,2.869Z"/><path d="M399.496,176.336l-1.855.141-.087-1.157c-.412.653-1.313,1.464-2.809,1.577-1.955.147-3.792-1.077-4.039-4.327-.246-3.251,1.426-4.742,3.341-4.887,1.396-.105,2.328.546,2.717.917l-.344-4.547,2.134-.161.943,12.444ZM392.9,172.403c.128,1.695.851,2.764,2.367,2.649.897-.068,1.528-.477,1.917-.907l-.313-4.129c-.449-.367-1.134-.676-2.032-.608-1.516.115-2.069,1.28-1.939,2.995Z"/><path d="M387.003,170.839c.259,2.023-1.478,2.79-3.283,3.021-.913.116-1.905.081-2.441-.012l.091.715c.145,1.13.457,1.998,2.083,1.79,1.229-.157,1.88-.744,1.749-1.775l2.004-.256c.306,2.399-1.554,3.464-3.676,3.735-2.281.291-3.933-.486-4.247-2.945l-.464-3.631c-.043-.337-.177-.44-.534-.396-.238.031-.587.136-.818.226l-.18-1.408c.336-.204.986-.488,1.64-.572,1.111-.142,1.502.393,1.585,1.048l.021.158c.383-.634,1.25-1.571,3.056-1.802,1.706-.218,3.191.359,3.414,2.104ZM380.97,171.428l.142,1.111c.39.051,1.213.026,1.967-.07,1.17-.149,1.916-.466,1.81-1.299-.086-.675-.62-.909-1.592-.785-1.111.143-1.936.631-2.327,1.043Z"/><path d="M374.884,174.597c.647,3.582-1.581,4.98-3.746,5.371-1.949.353-4.236-.048-4.892-2.774l2.126-.385c.36,1.317,1.265,1.602,2.426,1.392,1.536-.277,2.272-1.264,1.92-3.213-.355-1.968-1.387-2.615-2.942-2.334-1.142.206-1.894.769-1.77,2.128l-2.126.385c-.333-2.745,1.726-3.95,3.635-4.295,2.185-.396,4.729.183,5.369,3.726Z"/><path d="M362.515,176.877c.808,3.446-1.234,5.075-3.356,5.572-2.2.516-4.675-.055-5.474-3.462l-.109-.467,6.736-1.579c-.41-1.485-1.364-2.227-3.038-1.835-1.149.27-1.838.924-1.797,1.798l-2.142.502c-.111-2.315,1.73-3.486,3.599-3.925,2.492-.584,4.824.164,5.581,3.396ZM356.059,179.478c.485,1.283,1.591,1.619,2.72,1.354,1.129-.264,1.971-1.057,1.835-2.422l-4.556,1.067Z"/><path d="M324.132,197.765l-1.329.554-6.291-15.103,1.329-.554,6.291,15.103Z"/><path d="M288.129,205.235l-1.833,1.144c-.72-.965-1.615-1.114-2.938-.288-1.205.752-1.669,1.631-1.182,2.412.402.645,1.074.626,1.98.414l2.616-.643c1.432-.351,2.846-.125,3.714,1.266,1.133,1.816.203,3.764-1.867,5.056-1.935,1.207-4.053,1.327-5.442-.824l1.85-1.154c.735,1.027,1.549,1.085,2.635.407,1.205-.752,1.44-1.583,1.032-2.2-.355-.532-.822-.713-1.778-.47l-2.661.646c-1.397.33-2.886.363-3.86-1.197-1.229-1.969-.114-3.961,2.024-5.295,2.188-1.366,4.387-1.395,5.711.727Z"/><path d="M278.096,212.757c2.083,2.985.643,5.186-1.162,6.444-1.624,1.133-3.87,1.724-5.603-.48l1.771-1.236c.877,1.047,1.817.927,2.785.252,1.28-.893,1.537-2.097.404-3.721-1.145-1.641-2.352-1.798-3.648-.894-.951.663-1.4,1.488-.72,2.673l-1.771,1.235c-1.448-2.354-.08-4.309,1.511-5.419,1.821-1.271,4.373-1.808,6.433,1.146Z"/><path d="M265.744,218.184l-1.721,1.337,3.349,4.312,1.722-1.337,1.042,1.343-3.19,2.478-1.227-1.579c.301,1.007.354,2.51-1.02,3.577-.521.405-1.093.646-1.543.719l-1.325-1.706c.507-.064,1.142-.355,1.6-.711,1.105-.858,1.339-1.927,1.331-2.654l-2.429-3.127-2.938,2.281-1.03-1.326,6.349-4.932,1.03,1.326Z"/><path d="M255.805,226.058l-2.333,2.012,3.566,4.137,2.333-2.012,1.11,1.288-3.955,3.409-4.676-5.425-2.137,1.842-1.097-1.272,6.091-5.251,1.097,1.272ZM260.992,236.457l-1.985,1.711-1.581-1.833,1.985-1.711,1.581,1.833Z"/><path d="M251.134,239.701l-1.345,1.285-.802-.839c.096.767-.087,1.965-1.172,3.002-1.417,1.354-3.616,1.574-5.87-.784-2.253-2.357-1.906-4.571-.517-5.898,1.013-.968,2.146-1.056,2.684-1.015l-3.152-3.299,1.548-1.479,8.626,9.026ZM243.536,240.844c1.175,1.229,2.412,1.598,3.512.547.651-.622.879-1.339.907-1.919l-2.862-2.994c-.58,0-1.307.197-1.958.819-1.099,1.051-.788,2.303.401,3.547Z"/><path d="M237.374,246.116l2.458,2.321,1.936-2.051,1.236,1.168-1.937,2.05,2.981,2.815-1.469,1.556-2.981-2.814-2.98,3.155-1.236-1.167,2.98-3.156-2.399-2.266c-1.207-1.14-1.848-1.306-2.864-.229-.563.597-.954,1.272-1.191,1.901l-1.25-1.181c.236-.657.638-1.433,1.448-2.291,1.565-1.658,3.029-1.926,5.269.188Z"/><path d="M218.953,283.321l-.807,1.193-13.555-9.162.807-1.193,13.555,9.162Z"/><path d="M200.228,312.684l-1.154,2.509-3.469-.407-2.591-.399,2.006,1.672,2.565,2.369-1.121,2.436-10.395-4.783.828-1.799,5.307,2.441,3.098,1.689-4.86-4.416.652-1.418,6.516.818-3.299-1.254-5.307-2.441.828-1.799,10.395,4.782Z"/><path d="M188.704,321.132c3.306,1.32,3.378,3.997,2.599,5.947-.831,2.08-2.638,3.855-5.98,2.521-3.287-1.312-3.377-3.997-2.599-5.946.831-2.08,2.657-3.849,5.98-2.521ZM186.131,327.577c1.838.734,2.975.262,3.538-1.149s.065-2.536-1.773-3.271c-1.82-.727-2.975-.262-3.538,1.149s-.047,2.544,1.773,3.271Z"/><path d="M184.14,332.816c3.087,1.05,3.801,3.173,3.183,4.99-.451,1.326-1.416,1.928-1.91,2.14l4.753,1.616-.689,2.026-12.252-4.167.599-1.761,1.098.373c-.439-.635-.831-1.782-.348-3.202.631-1.855,2.479-3.065,5.565-2.016ZM180.149,338.156l3.901,1.326c.514-.269,1.086-.771,1.376-1.624.49-1.438-.384-2.412-1.993-2.959-1.61-.548-2.895-.309-3.384,1.131-.29.852-.143,1.6.101,2.126Z"/><path d="M178.995,345.102l5.253,1.487-.583,2.059-4.849-1.372c-1.385-.393-2.218-.316-2.572.935-.261.923-.043,1.546.258,2.026l6.215,1.76-.583,2.059-8.504-2.408.506-1.789,1.155.327c-.444-.562-1.009-1.574-.601-3.018.458-1.616,1.553-2.844,4.305-2.065Z"/><path d="M174.048,356.768l-.655,2.867,9.341,2.134.655-2.866,1.638.374-1.132,4.953-10.979-2.509-.66,2.887-1.638-.375,1.792-7.839,1.638.374Z"/><path d="M172.06,368.777c2.009.35,2.229,2.235,1.916,4.027-.158.906-.484,1.845-.73,2.329l.709.123c1.123.196,2.044.153,2.325-1.462.213-1.221-.156-2.017-1.18-2.194l.347-1.99c2.384.416,2.852,2.507,2.484,4.614-.395,2.266-1.625,3.614-4.067,3.188l-3.605-.628c-.335-.059-.474.039-.536.394-.041.236-.044.602-.026.848l-1.398-.243c-.096-.383-.176-1.087-.063-1.736.192-1.104.818-1.319,1.469-1.206l.157.027c-.492-.552-1.131-1.658-.819-3.451.295-1.693,1.284-2.942,3.018-2.64ZM170.842,374.714l1.103.192c.164-.357.383-1.151.514-1.899.203-1.163.12-1.969-.708-2.113-.669-.116-1.051.325-1.219,1.29-.192,1.104.031,2.035.31,2.53Z"/><path d="M169.28,381.681l-.264,2.164,5.419.662.264-2.164,1.688.207-.49,4.01-1.985-.243c.927.496,2.031,1.518,1.82,3.245-.08.655-.312,1.231-.579,1.602l-2.144-.262c.312-.405.553-1.062.623-1.637.17-1.39-.423-2.309-.945-2.815l-3.931-.48-.451,3.692-1.667-.204.975-7.98,1.667.204Z"/><path d="M178.369,424.713l.057,1.439-16.351.649-.057-1.439,16.351-.649Z"/><path d="M180.805,460.101l.79,3.84c.532,2.587-.349,4.463-2.269,4.857-1.254.258-2.022-.299-2.555-1.007-.117.923-.667,2.118-2.176,2.429-1.939.398-3.61-1.075-4.134-3.622l-.862-4.192,11.207-2.305ZM171.848,464.21l.387,1.881c.346,1.685,1.207,1.998,1.991,1.837.862-.177,1.372-.874,1.038-2.5l-.379-1.842-3.037.624ZM176.609,463.231l.29,1.41c.334,1.626.941,2.094,1.823,1.912.803-.165,1.357-.748,1.011-2.434l-.302-1.469-2.821.58Z"/><path d="M173.885,474.323l.775,2.981,5.286-1.374-.775-2.982,1.646-.428,1.314,5.054-6.932,1.803.71,2.73-1.626.423-2.024-7.784,1.626-.423ZM185.506,474.256l.66,2.537-2.343.609-.66-2.537,2.343-.609Z"/><path d="M179.754,487.776l3.223-1.019-.85-2.689,1.621-.512.85,2.689,3.91-1.236.645,2.041-3.91,1.235,1.308,4.14-1.621.512-1.308-4.139-3.147.994c-1.583.501-2.04.98-1.594,2.392.247.782.647,1.453,1.083,1.966l-1.64.519c-.46-.526-.942-1.255-1.298-2.38-.687-2.175-.209-3.584,2.728-4.513Z"/><path d="M187.549,495.356l.567,1.518-1.181.441c.63.085,1.69.351,2.131,1.531.364.975-.07,1.756-.644,2.162.478.078,1.589.367,2.023,1.529.483,1.293-.426,2.23-2.075,2.847l-5.715,2.137-.665-1.78,5.396-2.018c1.012-.378,1.354-.72,1.158-1.244-.189-.506-.704-.74-1.121-.884l-6.127,2.29-.666-1.78,5.396-2.017c1.012-.378,1.354-.72,1.158-1.244-.189-.506-.711-.76-1.127-.903l-6.127,2.291-.666-1.78,8.282-3.096Z"/><path d="M186.08,509.786c1.871-.812,3.091.642,3.816,2.311.366.844.61,1.806.67,2.347l.66-.287c1.045-.454,1.791-.996,1.138-2.5-.494-1.137-1.239-1.598-2.193-1.184l-.805-1.853c2.219-.964,3.76.525,4.612,2.488.916,2.108.631,3.911-1.644,4.899l-3.356,1.457c-.312.136-.374.293-.23.623.096.221.294.526.444.723l-1.302.565c-.29-.266-.744-.81-1.007-1.415-.446-1.027-.042-1.552.563-1.814l.147-.063c-.715-.191-1.857-.764-2.583-2.433-.685-1.577-.545-3.164,1.068-3.864ZM188.329,515.415l1.027-.446c-.06-.389-.313-1.172-.616-1.869-.47-1.082-.982-1.71-1.752-1.375-.624.271-.7.849-.31,1.747.446,1.027,1.145,1.683,1.65,1.943Z"/><path d="M197.31,518.99l.827,1.666-1.039.516c.76.137,1.85.667,2.517,2.011.872,1.756.428,3.919-2.492,5.369-2.92,1.449-4.93.46-5.784-1.26-.623-1.254-.369-2.362-.171-2.862l-4.084,2.028-.952-1.917,11.178-5.551ZM196.144,526.581c1.522-.756,2.241-1.828,1.565-3.189-.4-.806-1.017-1.237-1.562-1.436l-3.708,1.842c-.171.554-.201,1.306.2,2.111.676,1.361,1.964,1.437,3.505.672Z"/><path d="M222.14,553.009l.841,1.169-13.28,9.561-.842-1.169,13.281-9.561Z"/><path d="M245.599,583.07l1.671,1.667-5.236,10.939-1.685-1.681,1.186-2.378-2.846-2.84-2.361,1.205-1.657-1.653,10.928-5.26ZM240.286,587.885l2.096,2.091.564-1.104,1.835-3.396-3.393,1.843-1.103.567Z"/><path d="M248.579,596.59l2.261-2.512-2.095-1.887,1.137-1.264,2.096,1.887,2.743-3.046,1.59,1.432-2.743,3.047,3.225,2.903-1.138,1.264-3.225-2.904-2.208,2.452c-1.111,1.233-1.261,1.879-.161,2.869.609.549,1.294.924,1.929,1.146l-1.151,1.277c-.663-.22-1.448-.604-2.325-1.393-1.694-1.526-1.997-2.982.064-5.271Z"/><path d="M252.501,607.724c1.49,1.21,2.598,1.337,4.001.622l2.492-9.282,1.862,1.513-1.315,4.314-.954,2.728,2.478-1.465,3.981-2.175,1.769,1.438-8.164,4.186c-2.984,1.518-4.698,1.567-7.259-.513l1.109-1.365Z"/><path d="M269.498,607.445l1.501,1.098-.684.936c.737-.229,1.948-.26,3.159.625,1.582,1.155,2.185,3.279.262,5.911-1.923,2.632-4.162,2.68-5.711,1.547-1.13-.825-1.416-1.926-1.471-2.461l-2.689,3.681-1.728-1.262,7.36-10.074ZM271.961,614.716c1.002-1.372,1.146-2.653-.081-3.55-.727-.531-1.472-.63-2.046-.555l-2.441,3.342c.103.571.423,1.251,1.15,1.781,1.227.896,2.404.37,3.418-1.019Z"/><path d="M276.538,617.955c1.95-2.977,4.587-2.516,6.344-1.365,1.873,1.228,3.254,3.351,1.282,6.361-1.939,2.96-4.588,2.516-6.344,1.365-1.873-1.228-3.244-3.368-1.282-6.361ZM282.341,621.756c1.085-1.655.848-2.862-.423-3.695-1.271-.832-2.472-.567-3.557,1.088-1.074,1.639-.848,2.862.423,3.695,1.271.832,2.483.551,3.557-1.088Z"/><path d="M284.734,629.103l1.779,1.039c-.473.928-.391,1.74.922,2.507,1.589.928,2.273.192,2.869-.827l.635-1.088c-.584.168-1.588.3-2.763-.386-1.779-1.039-2.552-3.088-1.019-5.713,1.543-2.644,3.779-2.982,5.507-1.974,1.244.727,1.744,1.853,1.794,2.6l.575-.984,1.606.938-4.579,7.842c-1.2,2.055-2.99,2.423-5.512.95-1.692-.988-3.165-2.474-1.814-4.904ZM291.675,629.473l1.937-3.316c-.175-.612-.557-1.229-1.282-1.652-1.33-.776-2.455-.159-3.262,1.223-.807,1.382-.781,2.647.548,3.424.726.424,1.44.47,2.059.322Z"/><path d="M297.193,633.693l1.936,1.002,2.508-4.849-1.936-1.002.781-1.51,3.588,1.855-.918,1.776c.788-.695,2.129-1.375,3.674-.576.586.304,1.046.722,1.3,1.101l-.992,1.918c-.271-.433-.802-.888-1.316-1.153-1.244-.644-2.311-.407-2.968-.095l-1.819,3.517,3.304,1.709-.771,1.492-7.14-3.693.771-1.492Z"/><path d="M308.334,638.625c.842-1.858,2.723-1.599,4.381-.848.838.38,1.665.931,2.072,1.291l.297-.656c.471-1.038.66-1.941-.834-2.618-1.13-.512-1.992-.354-2.421.594l-1.84-.833c.999-2.205,3.141-2.135,5.09-1.251,2.095.949,3.093,2.478,2.07,4.736l-1.511,3.334c-.14.31-.081.469.248.617.219.1.571.193.814.237l-.586,1.294c-.394-.003-1.096-.102-1.697-.374-1.02-.462-1.072-1.122-.8-1.724l.066-.146c-.658.338-1.89.681-3.547-.07-1.567-.71-2.529-1.98-1.802-3.584ZM313.78,641.291l.462-1.021c-.305-.248-1.019-.659-1.711-.973-1.075-.487-1.876-.609-2.223.156-.28.619.051,1.099.944,1.504,1.021.462,1.979.479,2.528.333Z"/><path d="M322.868,637.926l1.731.68-.424,1.08c.655-.409,1.818-.747,3.215-.199,1.824.717,2.947,2.618,1.755,5.652-1.191,3.035-3.345,3.65-5.132,2.948-1.303-.512-1.859-1.503-2.048-2.007l-1.667,4.244-1.992-.782,4.561-11.616ZM327.098,644.336c.622-1.582.435-2.858-.979-3.414-.838-.329-1.584-.235-2.121-.017l-1.513,3.854c.245.526.728,1.103,1.565,1.432,1.415.556,2.42-.253,3.048-1.854Z"/><path d="M335.693,638.434l2.03.678-1.609,4.817c.411-.284,1.436-.764,2.745-.327,1.593.532,2.731,1.671,1.825,4.383l-1.729,5.178-2.029-.678,1.596-4.779c.456-1.365.418-2.2-.814-2.611-.911-.305-1.543-.115-2.036.163l-2.045,6.126-2.03-.678,4.097-12.271Z"/><path d="M342.512,656.336c1.85.513,2.916.186,3.917-1.031l-1.433-9.507,2.312.641.522,4.481.218,2.883,1.685-2.334,2.779-3.588,2.197.608-5.808,7.106c-2.128,2.585-3.68,3.317-6.859,2.437l.47-1.696Z"/><path d="M387.977,650.329l1.432.152-1.735,16.264-1.432-.152,1.735-16.264Z"/><path class="cls-1" d="M414.075,207.318c-114.323,0-207,92.677-207,207s92.677,207,207,207,207-92.677,207-207-92.677-207-207-207ZM414.075,552.318c-76.215,0-138-61.785-138-138s61.785-138,138-138,138,61.785,138,138-61.785,138-138,138Z"/><path d="M445.06,582.44l5.835-1.181.225,1.114-4.533.917.597,2.949,3.969-.804.225,1.114-3.968.803.743,3.671-1.302.264-1.79-8.848Z"/><path d="M455.46,585.908c-.725-2.754.831-4.008,2.378-4.415,1.547-.407,3.457-.066,4.17,2.641.729,2.77-.842,4.027-2.374,4.431-1.562.412-3.465.036-4.174-2.656ZM460.794,584.488c-.448-1.702-1.387-2.315-2.718-1.965-1.331.351-1.846,1.347-1.398,3.048.444,1.687,1.387,2.315,2.718,1.965s1.842-1.361,1.398-3.048Z"/><path d="M464.58,579.761l1.004-.327.288.883c.166-.576.652-1.357,1.838-1.744,1.11-.361,2.4-.227,3.119,1.979l1.329,4.077-1.202.392-1.245-3.818c-.407-1.248-.868-1.889-2.024-1.512-.897.293-1.261.883-1.4,1.23l1.656,5.081-1.202.392-2.162-6.633Z"/><path d="M476.724,579.943l-1.119-2.862-2.132.833-.391-.999,2.132-.833-1.178-3.012,1.178-.46,1.178,3.011,3.19-1.247.391.999-3.19,1.247,1.102,2.817c.519,1.327.994,1.708,2.127,1.266.656-.257,1.125-.595,1.469-.901l.391.999c-.168.186-.718.624-1.627.979-1.565.612-2.658.369-3.52-1.837Z"/><path d="M525.887,541.568l.858-.768,8.725,9.748-.858.768-8.725-9.748Z"/><path d="M564.874,495.678l-1.415,2.69-1.005-.528,3.462-6.585,1.005.528-1.43,2.719,6.981,3.672-.618,1.175-6.98-3.671Z"/><path d="M576.961,493.492c.609-1.341.446-2.259-.473-3.292l-7.706-.144.569-1.254,4.018.174,2.397.14-1.653-1.7-2.789-2.955.543-1.195,5.026,5.537c1.65,1.822,1.963,3.107,1.043,5.133l-.977-.443Z"/><path d="M573.107,480.264l.381-.985.835.323c-.315-.517-.587-1.41-.166-2.5.537-1.388,1.99-2.353,4.452-1.401,2.373.918,2.907,2.599,2.353,4.031-.381.985-1.133,1.467-1.55,1.614l3.343,1.292-.456,1.179-9.192-3.553ZM578.148,476.895c-1.433-.554-2.631-.382-3.127.901-.277.716-.186,1.368.034,1.865l3.522,1.361c.497-.22,1.003-.642,1.28-1.358.496-1.283-.276-2.216-1.708-2.77Z"/><path d="M579.717,472.626c-2.65-.852-2.943-2.812-2.449-4.35.48-1.492,1.85-2.984,4.515-2.127l.244.078-1.695,5.27c1.466.404,2.479-.026,2.924-1.412.338-1.051.106-1.898-.682-2.32l.392-1.218c1.678.842,1.682,2.607,1.27,3.887-.568,1.767-2.022,2.996-4.52,2.192ZM580.717,467.167c-1.252-.234-2.121.326-2.474,1.423s.027,2.059,1.181,2.598l1.293-4.021Z"/><path d="M585.12,463.277l.498-1.92-4.677-1.212-.498,1.92-1.038-.269.498-1.921-.031-.008c-2.106-.546-2.774-2.371-2.152-4.771l1.038.269c-.357,1.378-.272,2.838,1.431,3.279l.031.008.707-2.726,1.038.27-.707,2.726,4.678,1.212.706-2.726,1.038.269-1.521,5.87-1.038-.27Z"/><path d="M586.761,453.615c-1.585-.314-1.701-1.79-1.439-3.108.13-.659.402-1.454.656-1.91l-.597-.118c-1.052-.208-1.912-.232-2.205,1.244-.224,1.13.147,1.808,1.089,1.994l-.236,1.193c-1.963-.389-2.145-2.105-1.871-3.487.358-1.806,1.427-2.589,3.217-2.234l3.109.616c.267.053.38-.022.436-.306.043-.22.056-.527.042-.791l.879.175c.06.272.111.756.015,1.243-.162.816-.673.927-1.129.837l-.125-.025c.399.455.828,1.339.557,2.705-.262,1.319-1.048,2.24-2.398,1.973ZM587.924,448.982l-1.067-.211c-.169.357-.378,1.002-.515,1.692-.212,1.068-.12,1.755.634,1.904.612.122.995-.243,1.172-1.138.181-.911.038-1.674-.224-2.248Z"/><path d="M586.974,443.406c-2.87-.397-3.351-2.403-3.136-3.957.185-1.332.95-2.891,3.028-2.731l-.173,1.253c-1.175-.034-1.623.631-1.757,1.599-.195,1.41.472,2.311,2.215,2.553,1.76.244,2.631-.443,2.826-1.854.134-.967-.116-1.729-1.255-2.016l.173-1.253c2.028.41,2.35,2.168,2.172,3.452-.227,1.633-1.256,3.349-4.094,2.955Z"/><path d="M588.281,433.452c-2.774-.226-3.507-2.067-3.376-3.678.127-1.562,1.122-3.327,3.912-3.101l.255.021-.449,5.518c1.52.06,2.408-.591,2.525-2.042.09-1.1-.329-1.872-1.193-2.104l.104-1.275c1.826.438,2.232,2.156,2.124,3.495-.15,1.85-1.286,3.379-3.901,3.166ZM588.01,427.908c-1.273.058-1.992.802-2.085,1.949-.093,1.148.496,1.999,1.742,2.261l.343-4.21Z"/><path d="M576.257,370.527l-.313-1.108,12.594-3.558.313,1.108-12.594,3.558Z"/><path d="M552.486,317.824l-.786-1.07,6.356-4.672-2.739-3.726.916-.673,3.525,4.796-7.272,5.345Z"/><path d="M551.257,306.923c-2.146,1.773-3.955.966-4.984-.279-.999-1.209-1.518-3.167.64-4.95l.197-.163,3.526,4.266c1.131-1.018,1.313-2.103.386-3.225-.704-.851-1.542-1.112-2.322-.675l-.815-.986c1.614-.96,3.103-.012,3.959,1.023,1.182,1.43,1.435,3.317-.587,4.989ZM547.196,303.141c-.872.928-.868,1.963-.134,2.851s1.749,1.086,2.825.404l-2.69-3.255Z"/><path d="M543.928,297.372l-2.253,2.089,1.556,1.678-.786.729-1.556-1.678-2.37,2.197-.859-.927,2.37-2.197-2.328-2.512.786-.729,2.328,2.511,2.218-2.056c1.044-.969,1.225-1.551.398-2.442-.479-.517-.965-.829-1.376-1.037l.786-.729c.234.088.844.439,1.507,1.155,1.143,1.231,1.316,2.337-.421,3.947Z"/><path d="M536.928,290.125l-2.13,2.215,1.649,1.587-.743.772-1.65-1.586-2.241,2.33-.911-.876,2.241-2.331-2.469-2.374.743-.772,2.469,2.374,2.097-2.181c.987-1.026,1.134-1.618.257-2.461-.507-.488-1.011-.772-1.434-.957l.744-.772c.239.074.868.391,1.571,1.067,1.211,1.165,1.448,2.258-.194,3.965Z"/><path d="M530.59,285.042c-1.813,2.113-3.734,1.624-4.961.572-1.19-1.021-2.035-2.864-.211-4.989l.167-.194,4.202,3.605c.942-1.195.937-2.296-.168-3.244-.838-.72-1.709-.834-2.404-.271l-.972-.834c1.427-1.221,3.057-.54,4.078.336,1.409,1.209,1.979,3.026.27,5.019ZM525.943,282.003c-.702,1.064-.522,2.083.353,2.834.875.75,1.909.773,2.854-.082l-3.207-2.752Z"/><path d="M524.105,276.466l-1.437-1.097-2.931,3.839,1.437,1.097-.65.852-2.275-1.737.961-1.259c-.656.385-1.82.804-2.99-.089-.432-.33-.739-.746-.83-.916l.786-1.029c.107.202.408.572.814.883.966.738,1.878.649,2.491.453l2.184-2.859-2.402-1.834.65-.852,4.843,3.697-.65.852Z"/><path d="M515.911,270.358l-1.642-1.112-2.71,3.999,1.643,1.113-.601.887-1.643-1.112-.018.026c-1.22,1.802-3.164,1.818-5.216.428l.601-.888c1.179.799,2.582,1.208,3.569-.249l.018-.026-2.331-1.579.601-.887,2.331,1.579,2.71-4-2.331-1.579.601-.888,5.02,3.4-.601.888Z"/><path d="M506.519,267.014c-1.458,2.446-3.444,2.214-4.819,1.395-1.375-.819-2.469-2.422-1.035-4.828,1.467-2.461,3.466-2.22,4.827-1.408,1.389.827,2.453,2.449,1.027,4.842ZM501.767,264.2c-.901,1.512-.681,2.612.501,3.317,1.183.704,2.255.374,3.156-1.138.893-1.499.681-2.612-.501-3.317-1.182-.704-2.263-.361-3.156,1.138Z"/><path d="M498.636,259.656l-1.604-.835-2.23,4.286,1.604.834-.495.951-2.541-1.322.731-1.405c-.581.492-1.657,1.104-2.962.425-.482-.251-.856-.607-.975-.76l.598-1.149c.14.181.5.494.954.73,1.079.562,1.962.318,2.533.02l1.662-3.192-2.682-1.396.495-.95,5.407,2.813-.495.951Z"/><path d="M487.734,260.71l-.904-.407.407-.904c-.326.257-1.144.749-2.048.342-.773-.348-.936-1-.867-1.582-.375.287-1.146.677-1.993.296-.919-.413-1.123-1.364-.525-2.691l2.008-4.464,1.094.492-1.876,4.172c-.407.904-.43,1.385.066,1.608.496.223.961.046,1.402-.194l2.159-4.799,1.094.492-1.876,4.172c-.407.904-.43,1.385.066,1.608.496.223.961.046,1.402-.193l2.159-4.8,1.094.492-2.86,6.36Z"/><path d="M425.533,247.793l-1.149-.073.836-13.057,1.149.074-.836,13.056Z"/><path d="M365.563,243.282l-1.18.355c-.301-.945-.934-1.273-2.145-.909-1.593.479-1.533,1.347-1.242,2.312l.267.889c.199-.394.715-1.067,1.726-1.371,1.501-.451,3.112.184,3.835,2.589.733,2.436-.307,3.867-1.762,4.305-1.087.327-2.009-.014-2.464-.361l.258.858-1.011.304-2.088-6.939c-.511-1.7.015-2.895,2.19-3.549,1.562-.471,3.027-.376,3.614,1.519ZM361.536,246.833l1.06,3.523c.538.289,1.168.384,1.842.181,1.317-.396,1.6-1.567,1.167-3.007-.433-1.44-1.315-2.261-2.632-1.864-.674.202-1.147.629-1.437,1.167Z"/><path d="M356.075,247.948l-2.27.829,2.774,7.591,2.27-.83.363.992-3.457,1.264-3.137-8.582-2.27.829-.368-1.007,5.727-2.093.368,1.007Z"/><path d="M345.77,248.662c-1.352.584-1.848,1.374-1.86,2.757l5.612,5.282-1.264.546-2.86-2.827-1.682-1.715.083,2.371.081,4.062-1.205.521-.005-7.479c.001-2.459.633-3.621,2.675-4.503l.425.984Z"/><path d="M339.742,261.056l-.944.475-.402-.801c-.113.594-.512,1.439-1.556,1.964-1.33.669-3.055.407-4.241-1.951-1.143-2.273-.409-3.878.963-4.568.944-.475,1.824-.326,2.232-.155l-1.61-3.202,1.129-.567,4.427,8.807ZM333.742,260.167c.69,1.372,1.693,2.05,2.923,1.432.687-.345,1.057-.89,1.228-1.405l-1.696-3.374c-.516-.17-1.174-.197-1.86.147-1.229.618-1.284,1.827-.594,3.2Z"/><path d="M332.601,268.381l-1.094.632-1.991-3.449c-.06.44-.279,1.213-1.318,1.812-1.025.592-2.328.734-3.488-1.274l-2.143-3.713,1.094-.632,2.007,3.478c.655,1.136,1.239,1.667,2.292,1.06.817-.472,1.051-1.124,1.115-1.493l-2.67-4.627,1.094-.632,5.101,8.839Z"/><path d="M284.774,307.957l-.735.887-10.073-8.351.735-.887,10.073,8.351Z"/><path d="M248.933,354.828l-.425,1.226c-1.004-.281-1.774.18-2.21,1.436-.399,1.148-.208,2.062.654,2.361.666.231,1.12-.103,1.66-.779l1.285-1.604c.72-.902,1.669-1.539,2.909-1.108,1.512.525,1.857,2.119,1.274,3.797-.599,1.725-1.845,2.63-3.604,2.036l.42-1.209c1.23.359,1.812-.388,2.106-1.235.383-1.104.089-1.866-.607-2.107-.575-.2-1.074.067-1.558.679l-1.285,1.604c-.961,1.208-1.771,1.639-2.936,1.234-1.739-.604-2.007-2.272-1.393-4.042.672-1.936,2-2.881,3.708-2.288Z"/><path d="M241.43,363.076c-.402,1.417-.103,2.3.96,3.184l7.639-1.012-.375,1.324-3.998.43-2.391.221,1.889,1.434,3.199,2.504-.358,1.262-5.798-4.72c-1.904-1.555-2.406-2.778-1.799-4.918l1.032.292Z"/><path d="M247.406,374.763l-.215.969-.969-.214c.318.267.965.968.751,1.937-.184.828-.79,1.12-1.375,1.171.358.309.896.985.695,1.892-.218.984-1.108,1.377-2.53,1.062l-4.781-1.06.26-1.172,4.469.99c.969.215,1.444.141,1.562-.391s-.149-.951-.475-1.335l-5.141-1.14.26-1.172,4.469.99c.969.215,1.444.141,1.562-.391.118-.531-.15-.951-.475-1.335l-5.141-1.14.26-1.172,6.812,1.51Z"/><path d="M239.029,385.304l-.884-.144.169-1.042,10.076,1.636-.203,1.247-3.885-.63c.285.338.691,1.133.522,2.175-.238,1.469-1.461,2.713-4.067,2.29-2.511-.407-3.38-1.942-3.134-3.459.187-1.152.874-1.786,1.406-2.073ZM240.962,389.573c1.516.246,2.653-.169,2.874-1.526.123-.759-.101-1.378-.418-1.818l-3.727-.605c-.44.317-.849.835-.972,1.593-.22,1.358.727,2.111,2.243,2.357Z"/><path d="M240.315,394.051c2.833.294,3.457,2.192,3.292,3.783-.165,1.592-1.158,3.259-3.943,2.97-2.849-.295-3.471-2.209-3.308-3.784.167-1.607,1.19-3.255,3.959-2.969ZM239.763,399.543c1.75.182,2.656-.48,2.797-1.85.142-1.368-.608-2.202-2.359-2.384-1.735-.179-2.656.481-2.797,1.851-.142,1.368.624,2.203,2.359,2.383Z"/><path d="M236.954,404.298l-.113,2.412,8.068.378.113-2.413,1.054.05-.172,3.675-9.122-.428-.113,2.413-1.07-.051.285-6.086,1.07.05Z"/><path d="M253.558,466.536l.352,1.098-12.469,3.994-.352-1.098,12.469-3.994Z"/><path d="M279.14,518.389l1.099,1.395-4.312,7.006,1.945-1.718,4.031-3.179.743.942-7.083,5.585-1.099-1.394,4.312-7.007-1.945,1.718-4.031,3.179-.743-.941,7.083-5.586Z"/><path d="M280.507,530.146l3.21-2.842.838.946-3.006,2.661c-.982.87-1.386,1.548-.58,2.458.625.707,1.311.806,1.686.794l4-3.542.838.946-5.222,4.624-.7-.791.695-.614c-.594.077-1.504-.058-2.331-.992-.774-.874-1.164-2.11.573-3.648Z"/><path d="M289.721,533.977l.699.704-.704.699c.396-.123,1.336-.29,2.035.414.598.602.516,1.269.243,1.788.453-.134,1.313-.222,1.967.437.71.716.56,1.677-.473,2.703l-3.474,3.45-.846-.852,3.247-3.225c.704-.699.898-1.14.515-1.525-.383-.387-.881-.388-1.379-.322l-3.735,3.71-.846-.852,3.247-3.225c.704-.699.898-1.14.514-1.525-.383-.387-.881-.388-1.379-.322l-3.735,3.71-.846-.852,4.95-4.916Z"/><path d="M294.603,543.734c1.861-2.07,3.771-1.538,4.973-.458,1.166,1.049,1.968,2.909.096,4.992l-.171.19-4.118-3.701c-.969,1.174-.989,2.274.094,3.247.821.738,1.689.873,2.397.326l.952.855c-1.455,1.188-3.068.47-4.068-.429-1.38-1.241-1.909-3.071-.154-5.023ZM299.178,546.878c.726-1.048.57-2.07-.287-2.841-.857-.77-1.891-.816-2.855.017l3.142,2.824Z"/><path d="M300.914,552.472l1.412,1.13,3.018-3.774-1.412-1.129.67-.838,2.237,1.789-.989,1.237c.665-.37,1.839-.763,2.989.157.425.34.722.762.81.935l-.809,1.012c-.103-.204-.395-.582-.795-.901-.95-.76-1.865-.692-2.482-.51l-2.249,2.812,2.362,1.89-.669.837-4.762-3.808.67-.838Z"/><path d="M309.088,557.947c.936-1.317,2.328-.819,3.424-.041.548.389,1.162.962,1.474,1.379l.352-.495c.621-.875.994-1.649-.232-2.52-.939-.667-1.709-.605-2.265.177l-.992-.703c1.158-1.631,2.798-1.095,3.946-.279,1.5,1.064,1.777,2.36.722,3.848l-1.834,2.583c-.158.222-.135.355.1.522.183.13.458.267.704.362l-.519.73c-.274-.057-.735-.208-1.14-.495-.678-.481-.57-.993-.301-1.371l.074-.104c-.578.178-1.56.207-2.695-.599-1.096-.778-1.614-1.872-.817-2.994ZM312.836,560.903l.63-.888c-.257-.3-.759-.755-1.333-1.162-.887-.63-1.552-.827-1.997-.2-.361.509-.185,1.006.559,1.534.756.537,1.51.72,2.141.716Z"/><path d="M317.317,564.551l2.046,1.283,4.292-6.843-2.046-1.283.561-.895,3.116,1.955-4.853,7.736,2.046,1.284-.569.907-5.163-3.238.57-.907Z"/><path d="M379.705,580.553l1.128.229-2.608,12.819-1.128-.229,2.609-12.819Z"/><path class="cls-1" d="M414.075,276.173c-76.215,0-138,61.785-138,138s61.785,138,138,138,138-61.785,138-138-61.785-138-138-138ZM414.075,483.173c-38.108,0-69-30.892-69-69s30.892-69,69-69,69,30.892,69,69-30.892,69-69,69Z"/><path d="M430.605,513.067l2.107-.473,1.789,5.502,1.046,3.476.2-5.866,1.815-.408,2.664,5.204-.515-3.574-.754-5.734,2.069-.465,1.197,11.457-2.557.573-2.446-4.596-.247,5.2-2.557.574-3.812-10.87Z"/><path d="M445.199,516.767c-1.192-3.354.771-5.178,2.749-5.881,2.111-.75,4.638-.566,5.844,2.826,1.186,3.335-.771,5.177-2.75,5.88-2.11.75-4.645.548-5.844-2.825ZM451.738,514.441c-.663-1.865-1.768-2.406-3.2-1.897-1.433.509-1.948,1.626-1.285,3.492.656,1.847,1.768,2.406,3.2,1.897s1.941-1.646,1.285-3.492Z"/><path d="M458.739,514.546l1.951-.972-2.433-4.886-1.951.971-.758-1.521,3.616-1.801.891,1.79c-.097-1.046.147-2.53,1.705-3.306.591-.294,1.199-.418,1.655-.399l.962,1.934c-.509-.037-1.189.123-1.708.381-1.253.624-1.693,1.625-1.828,2.34l1.765,3.544,3.329-1.657.749,1.503-7.195,3.583-.749-1.504Z"/><path d="M468.234,506.526c-1.791-2.724-1.051-4.837.553-5.892,1.169-.77,2.3-.651,2.821-.515l-2.758-4.194,1.788-1.176,7.108,10.811-1.554,1.021-.637-.969c-.044.771-.439,1.916-1.692,2.74-1.637,1.077-3.838.896-5.629-1.827ZM474.662,504.765l-2.263-3.441c-.571-.104-1.331-.059-2.083.436-1.27.835-1.178,2.139-.245,3.56.934,1.42,2.095,2.021,3.365,1.186.752-.494,1.094-1.174,1.226-1.739Z"/><path d="M497.385,465.716l.976-1.654,14.281,8.425-.976,1.654-14.281-8.425Z"/><path d="M514.315,424.093l-.274,3.769-1.875-.136.71-9.772,1.875.137-.274,3.769,9.533.693-.163,2.233-9.533-.692Z"/><path d="M519.898,415.3c-3.555.16-4.725-2.249-4.819-4.346-.101-2.237.813-4.601,4.409-4.763,3.536-.159,4.725,2.249,4.819,4.347.101,2.237-.833,4.601-4.409,4.762ZM519.586,408.369c-1.978.089-2.817.987-2.749,2.506.068,1.518.986,2.337,2.963,2.248,1.958-.089,2.817-.988,2.749-2.506s-1.006-2.336-2.963-2.248Z"/><path d="M514.651,402.752l-.304-1.835,1.145-.189c-.687-.353-1.574-1.179-1.818-2.659-.32-1.933.737-3.871,3.954-4.403,3.216-.533,4.848,1.001,5.162,2.896.229,1.381-.338,2.366-.674,2.787l4.498-.745.35,2.111-12.312,2.038ZM517.986,395.835c-1.677.277-2.677,1.092-2.429,2.591.147.888.61,1.48,1.073,1.829l4.084-.676c.326-.479.573-1.189.426-2.077-.248-1.499-1.458-1.948-3.154-1.667Z"/><path d="M507.712,389.373l-.736-2.515,2.323-.679.736,2.515-2.323.679ZM519.322,388.957l-.865-2.956-5.24,1.533.865,2.956-1.632.478-1.465-5.011,6.872-2.01-.792-2.707,1.612-.472,2.258,7.717-1.613.472Z"/><path d="M513.09,378.166c-3.346,1.434-5.208-.424-6.074-2.447-.779-1.819-.902-4.139,1.609-5.389l.851,1.986c-1.203.646-1.277,1.591-.812,2.676.614,1.435,1.741,1.931,3.561,1.151,1.839-.787,2.238-1.938,1.616-3.39-.457-1.066-1.173-1.674-2.471-1.249l-.851-1.985c2.601-.939,4.236.797,5,2.58.874,2.041.881,4.649-2.429,6.066Z"/><path d="M478.014,342.364l-1.458-1.249,10.79-12.587,1.458,1.25-10.79,12.586Z"/><path d="M438.918,308.582c.723-.167,1.528-.169,2.419.059,3.159.803,4.031,3.294,3.129,6.841-.907,3.565-2.927,5.425-6.085,4.621-3.178-.809-4.021-3.334-3.129-6.841.443-1.744,1.176-3.085,2.169-3.905l-1.86-2.99,2.345.597,1.012,1.619ZM440.031,310.371l1.71,2.767-2.364-.602-.829-1.366c-.536.647-.846,1.621-1.092,2.59-.498,1.958-.744,3.979,1.407,4.526,2.151.547,2.901-1.347,3.398-3.304.488-1.918.744-3.979-1.407-4.525-.31-.079-.572-.104-.824-.086Z"/><path d="M431.769,310.216l-.7,5.415-2.123-.274.646-4.999c.185-1.428-.013-2.24-1.302-2.406-.952-.123-1.536.185-1.967.552l-.828,6.407-2.123-.274,1.133-8.768,1.845.238-.154,1.19c.491-.521,1.41-1.229,2.897-1.037,1.666.215,3.042,1.119,2.675,3.956Z"/><path d="M419.734,309.908c-.057,3.541-2.436,4.623-4.616,4.588-2.261-.036-4.523-1.192-4.467-4.693l.008-.48,6.921.111c-.035-1.541-.78-2.493-2.5-2.521-1.18-.019-2.008.448-2.182,1.306l-2.2-.035c.457-2.273,2.528-2.961,4.449-2.93,2.561.041,4.641,1.335,4.588,4.655ZM412.836,310.858c.158,1.363,1.149,1.959,2.309,1.978s2.17-.545,2.372-1.902l-4.681-.075Z"/><path d="M406.799,308.379l-2.088.226c-.181-.926-1.178-1.22-2.51-1.076-1.212.132-2.147.414-2.06,1.229.095.874,1.442.869,3.246.996,1.742.113,3.446.432,3.646,2.28.196,1.81-1.589,2.787-3.756,3.021-2.167.234-4.079-.142-4.477-2.331l2.088-.227c.242.939,1.278,1.028,2.192.93,1.213-.131,1.863-.443,1.798-1.039-.086-.796-1.155-.82-3.279-.933-1.658-.082-3.426-.434-3.622-2.243-.23-2.128,1.7-3.061,4.166-3.327,2.346-.254,4.361.332,4.655,2.493Z"/><path d="M392.017,311.477l.764,3.293,2.747-.637.384,1.656-2.748.637.926,3.995-2.085.482-.926-3.994-4.229.98-.384-1.656,4.229-.98-.746-3.215c-.375-1.617-.817-2.11-2.259-1.776-.799.186-1.499.532-2.044.926l-.389-1.676c.561-.417,1.325-.841,2.474-1.107,2.221-.515,3.589.071,4.285,3.072Z"/><path d="M380.873,312.226l-2.895,1.051,1.862,5.132,2.895-1.05.58,1.598-4.907,1.78-2.442-6.73-2.65.962-.573-1.579,7.557-2.742.573,1.579ZM382.025,323.785l-2.463.894-.825-2.274,2.463-.894.825,2.274Z"/><path d="M370.511,319.123c1.605,3.178-.113,5.233-1.987,6.18-2,1.011-4.53,1.146-6.153-2.067-1.596-3.16.113-5.233,1.987-6.181,2-1.01,4.539-1.127,6.153,2.068ZM364.316,322.252c.893,1.768,2.057,2.166,3.414,1.48s1.728-1.859.835-3.626c-.884-1.75-2.057-2.166-3.414-1.48s-1.719,1.877-.835,3.626Z"/><path d="M361.205,329.076l-1.548,1.031-.666-.999c-.028.716-.256,1.854-1.504,2.686-1.398.932-3.029,1.153-4.616-1.228l-3.028-4.544,1.781-1.188,2.795,4.195c.799,1.198,1.481,1.682,2.563.96.799-.532,1.038-1.148,1.121-1.708l-3.583-5.377,1.781-1.188,4.903,7.358Z"/><path d="M330.442,366.006l-.965,1.66-14.332-8.336.965-1.66,14.332,8.336Z"/><path d="M313.785,407.736l.251-3.772,1.876.125-.65,9.779-1.876-.125.25-3.771-9.54-.635.149-2.235,9.54.635Z"/><path d="M305.548,417.243l.112,2.177,5.453-.278-.111-2.178,1.698-.087.207,4.035-1.998.102c.998.33,2.262,1.146,2.351,2.884.034.659-.095,1.267-.295,1.678l-2.157.11c.237-.453.362-1.141.333-1.72-.072-1.397-.814-2.201-1.416-2.61l-3.955.202.19,3.715-1.678.086-.411-8.029,1.678-.086Z"/><path d="M307.055,429.577c2.011-.348,2.853,1.354,3.163,3.148.156.907.166,1.9.096,2.44l.71-.123c1.124-.193,1.977-.544,1.698-2.16-.211-1.223-.827-1.848-1.852-1.67l-.344-1.991c2.385-.412,3.531,1.4,3.895,3.51.392,2.267-.312,3.952-2.757,4.374l-3.608.622c-.335.058-.433.197-.372.552.041.236.161.581.261.808l-1.399.241c-.219-.327-.532-.964-.644-1.614-.191-1.104.327-1.519.977-1.63l.158-.027c-.65-.355-1.625-1.182-1.935-2.976-.292-1.695.218-3.205,1.953-3.504ZM307.909,435.581l1.104-.19c.034-.392-.026-1.214-.156-1.963-.201-1.163-.55-1.895-1.378-1.752-.67.116-.881.66-.714,1.626.191,1.104.715,1.906,1.145,2.279Z"/><path d="M315.907,440.998l.534,1.783-1.15.344c.676.236,1.697.787,2.127,2.225.482,1.609.217,3.234-2.524,4.055l-5.232,1.566-.614-2.051,4.83-1.446c1.38-.413,2.042-.924,1.668-2.17-.275-.92-.794-1.328-1.306-1.571l-6.19,1.853-.614-2.051,8.471-2.536Z"/><path d="M313.848,454.421l.84,1.925c-.83.449-.812,1.488-.276,2.716.488,1.118,1.037,1.926,1.788,1.599.807-.353.399-1.636-.02-3.395-.413-1.696-.618-3.417,1.086-4.161,1.667-.728,3.134.684,4.005,2.681.872,1.998,1.083,3.934-.887,4.968l-.839-1.924c.824-.512.599-1.526.231-2.37-.488-1.117-.979-1.645-1.529-1.404-.733.319-.438,1.347.09,3.407.417,1.606.61,3.398-1.058,4.126-1.96.855-3.428-.708-4.419-2.98-.943-2.162-.986-4.26.987-5.187Z"/><path d="M318.461,467.002l1.489,2.535,8.259-4.854-1.489-2.534,1.448-.852,2.574,4.38-9.708,5.704,1.5,2.552-1.448.852-4.073-6.932,1.449-.852Z"/><path d="M325.485,477.238c1.624-1.236,3.156-.115,4.258,1.333.558.732,1.024,1.609,1.211,2.12l.573-.437c.907-.69,1.502-1.395.508-2.699-.751-.987-1.585-1.257-2.413-.627l-1.224-1.607c1.926-1.466,3.778-.388,5.074,1.315,1.393,1.83,1.546,3.649-.427,5.151l-2.913,2.218c-.271.206-.293.374-.075.66.146.191.411.441.604.596l-1.13.86c-.346-.189-.917-.609-1.316-1.135-.679-.892-.411-1.497.114-1.896l.127-.098c-.74-.015-1.986-.298-3.089-1.746-1.042-1.368-1.285-2.942.115-4.009ZM329.013,482.169l.891-.678c-.15-.363-.583-1.064-1.044-1.669-.715-.939-1.362-1.427-2.031-.918-.541.412-.477.992.117,1.771.678.892,1.514,1.361,2.067,1.493Z"/><path d="M336.188,488.088l2.429-2.352-1.962-2.026,1.222-1.184,1.962,2.027,2.947-2.854,1.489,1.538-2.947,2.854,3.02,3.119-1.222,1.183-3.02-3.119-2.372,2.296c-1.193,1.155-1.387,1.789-.357,2.853.57.589,1.229,1.01,1.847,1.274l-1.236,1.197c-.646-.266-1.403-.702-2.225-1.55-1.586-1.639-1.789-3.113.425-5.257Z"/><path d="M343.89,494.845c2.233-2.746,4.771-2.126,6.463-.751,1.753,1.426,2.816,3.733.607,6.449l-.303.372-5.369-4.366c-.925,1.233-.929,2.442.406,3.527.916.744,1.855.89,2.521.323l1.707,1.388c-1.765,1.504-3.817.764-5.307-.448-1.986-1.615-2.821-3.918-.726-6.494ZM349.897,498.363c.719-1.169.309-2.25-.591-2.981-.9-.732-2.042-.913-3.04.028l3.631,2.953Z"/><path d="M391.569,510.188l1.872.425-3.668,16.166-1.872-.425,3.668-16.166Z"/></svg>